<?xml version="1.0" encoding="UTF-8" standalone="no"?>
<!DOCTYPE svg PUBLIC "-//W3C//DTD SVG 1.1//EN" "http://www.w3.org/Graphics/SVG/1.1/DTD/svg11.dtd">
<svg width="100%" height="100%" viewBox="0 0 500 449" version="1.1" xmlns="http://www.w3.org/2000/svg" xmlns:xlink="http://www.w3.org/1999/xlink" xml:space="preserve" style="fill-rule:evenodd;clip-rule:evenodd;stroke-linejoin:round;stroke-miterlimit:1.41421;">
    <g transform="matrix(12.6199,0,0,12.6199,-2.24174e-14,-0.00126199)">
        <path d="M29.885,33.047C25.218,35.743 18.801,36.02 12.345,33.253C7.118,31.029 2.78,27.136 0,22.688C1.335,23.8 2.892,24.69 4.56,25.468C11.227,28.593 17.893,28.379 22.584,25.476C22.581,25.473 22.579,25.471 22.577,25.468C15.904,20.352 10.232,13.679 6.006,8.23C5.116,7.34 4.448,6.228 3.781,5.227C8.897,9.898 17.016,15.792 19.907,17.461C13.791,11.01 8.341,3.003 8.563,3.225C18.239,13.012 27.248,18.573 27.248,18.573C27.546,18.741 27.776,18.881 27.961,19.006C28.156,18.51 28.327,17.995 28.471,17.461C30.028,11.789 28.249,5.338 24.356,0C33.364,5.45 38.703,15.681 36.478,24.245C36.42,24.476 36.357,24.704 36.289,24.928C36.315,24.959 36.341,24.991 36.367,25.024C40.815,30.585 39.592,36.479 39.036,35.367C36.623,30.645 32.156,32.089 29.885,33.047L29.885,33.047Z" style="fill:url(#_Linear1);fill-rule:nonzero;"/>
    </g>
    <defs>
        <linearGradient id="_Linear1" x1="0" y1="0" x2="1" y2="0" gradientUnits="userSpaceOnUse" gradientTransform="matrix(2.17395e-15,35.5033,-35.5033,2.17395e-15,19.81,0.0001)"><stop offset="0%" style="stop-color:rgb(248,138,54);stop-opacity:1"/><stop offset="100%" style="stop-color:rgb(253,32,32);stop-opacity:1"/></linearGradient>
    </defs>
</svg>
