<?xml version="1.0" standalone="no"?>
<!DOCTYPE svg PUBLIC "-//W3C//DTD SVG 1.1//EN" "http://www.w3.org/Graphics/SVG/1.1/DTD/svg11.dtd">
<svg width="100%" height="100%" viewBox="0 0 482 482" version="1.1" xmlns="http://www.w3.org/2000/svg" xmlns:xlink="http://www.w3.org/1999/xlink" xml:space="preserve" style="fill-rule:evenodd;clip-rule:evenodd;stroke-linecap:round;stroke-linejoin:round;stroke-miterlimit:10;">
    <rect x="-1233" y="-1233" width="2795" height="2349" style="fill:white;fill-rule:nonzero;"/>
    <path d="M42.591,42.591L42.591,439.441L439.441,439.441L439.441,382.748L99.283,382.748L99.283,42.591L42.591,42.591Z" style="fill:rgb(192,192,192);fill-rule:nonzero;"/>
    <path d="M155.976,42.591L396.921,42.591L283.535,155.976L155.976,155.976L155.976,42.591Z" style="fill:rgb(192,192,192);fill-rule:nonzero;"/>
    <path d="M155.976,326.055L155.976,212.669L311.882,212.669L439.441,85.11L439.441,326.055L155.976,326.055Z" style="fill:rgb(192,192,192);fill-rule:nonzero;"/>
    <path d="M477.809,4.222C483.344,9.757 483.344,18.731 477.809,24.266C472.274,29.801 463.3,29.801 457.765,24.266C452.23,18.731 452.23,9.757 457.765,4.222C463.3,-1.313 472.274,-1.313 477.809,4.222" style="fill:rgb(192,192,192);fill-rule:nonzero;"/>
    <path d="M307.731,174.301C313.266,179.836 313.266,188.81 307.731,194.345C302.196,199.88 293.222,199.88 287.687,194.345C282.152,188.81 282.152,179.836 287.687,174.301C293.222,168.766 302.196,168.766 307.731,174.301" style="fill:rgb(192,192,192);fill-rule:nonzero;"/>
    <path d="M137.652,344.38C143.187,349.915 143.187,358.889 137.652,364.424C132.117,369.959 123.143,369.959 117.608,364.424C112.073,358.889 112.073,349.915 117.608,344.38C123.143,338.845 132.117,338.845 137.652,344.38" style="fill:rgb(192,192,192);fill-rule:nonzero;"/>
    <path d="M24.266,457.765C29.801,463.3 29.801,472.274 24.266,477.809C18.731,483.344 9.757,483.344 4.222,477.809C-1.313,472.274 -1.313,463.3 4.222,457.765C9.757,452.23 18.731,452.23 24.266,457.765" style="fill:rgb(192,192,192);fill-rule:nonzero;"/>
    <path d="M477.809,344.38C483.344,349.915 483.344,358.889 477.809,364.424C472.274,369.959 463.3,369.959 457.765,364.424C452.23,358.889 452.23,349.915 457.765,344.38C463.3,338.845 472.274,338.845 477.809,344.38" style="fill:rgb(192,192,192);fill-rule:nonzero;"/>
    <path d="M477.809,457.765C483.344,463.3 483.344,472.274 477.809,477.809C472.274,483.344 463.3,483.344 457.765,477.809C452.23,472.274 452.23,463.3 457.765,457.765C463.3,452.23 472.274,452.23 477.809,457.765" style="fill:rgb(192,192,192);fill-rule:nonzero;"/>
    <path d="M137.652,174.301C143.187,179.836 143.187,188.81 137.652,194.345C132.117,199.88 123.143,199.88 117.608,194.345C112.073,188.81 112.073,179.836 117.608,174.301C123.143,168.766 132.117,168.766 137.652,174.301" style="fill:black;fill-rule:nonzero;"/>
    <path d="M137.652,4.222C143.187,9.757 143.187,18.731 137.652,24.266C132.117,29.801 123.143,29.801 117.608,24.266C112.073,18.731 112.073,9.757 117.608,4.222C123.143,-1.313 132.117,-1.313 137.652,4.222" style="fill:rgb(192,192,192);fill-rule:nonzero;"/>
    <path d="M24.266,4.222C29.801,9.757 29.801,18.731 24.266,24.266C18.731,29.801 9.757,29.801 4.222,24.266C-1.313,18.731 -1.313,9.757 4.222,4.222C9.757,-1.313 18.731,-1.313 24.266,4.222" style="fill:rgb(192,192,192);fill-rule:nonzero;"/>
    <path d="M14.244,42.591L14.244,439.441" style="fill:none;stroke-width:5px;stroke:rgb(192,192,192);"/>
    <path d="M42.591,14.244L99.283,14.244" style="fill:none;stroke-width:5px;stroke:rgb(192,192,192);"/>
    <path d="M155.976,14.244L439.441,14.244" style="fill:none;stroke-width:5px;stroke:rgb(192,192,192);"/>
    <path d="M127.63,42.591L127.63,153.623" style="fill:none;stroke-width:5px;stroke:rgb(192,192,192);"/>
    <path d="M127.63,215.022L127.63,326.055" style="fill:none;stroke-width:5px;stroke:rgb(192,192,192);"/>
    <path d="M158.329,184.323L269.362,184.323" style="fill:none;stroke-width:5px;stroke:rgb(192,192,192);"/>
    <path d="M155.976,354.402L439.441,354.402" style="fill:none;stroke-width:5px;stroke:rgb(192,192,192);"/>
    <path d="M42.591,467.787L439.441,467.787" style="fill:none;stroke-width:5px;stroke:rgb(192,192,192);"/>
    <path d="M467.787,42.591L467.787,326.055" style="fill:none;stroke-width:5px;stroke:rgb(192,192,192);"/>
    <path d="M467.787,382.748L467.787,439.441" style="fill:none;stroke-width:5px;stroke:rgb(192,192,192);"/>
    <path d="M318.968,163.063L446.528,35.504" style="fill:none;stroke-width:5px;stroke:rgb(192,192,192);"/>
    <g>
        <g>
            <g>
                <path d="M178.45,276.051C178.45,262.063 183.668,256.361 186.789,252.702L185.766,251.303C182.7,254.047 173.823,261.203 173.823,276.051C173.823,281.808 175.168,287.242 177.75,292.084C179.633,295.689 181.355,297.787 185.766,301.929L186.789,300.8C184.314,297.733 178.45,291.169 178.45,276.051Z" style="fill:rgb(255,47,146);fill-rule:nonzero;"/>
                <path d="M199.133,272.931C201.016,270.564 202.038,269.864 202.576,269.864C203.114,269.864 203.599,270.618 204.352,273.254L206.181,278.849C202.845,283.852 200.317,286.973 198.757,286.973C198.219,286.973 197.788,286.758 197.519,286.435C197.25,286.112 196.981,285.897 196.658,285.897C195.636,285.897 194.506,287.134 194.506,288.425C194.453,289.932 195.582,291.008 196.927,291.008C199.51,291.008 201.985,288.372 206.773,280.84L208.441,286.058C209.463,289.448 210.647,291.008 211.992,291.008C213.875,291.008 216.349,289.017 218.824,285.197L217.91,284.121C216.188,286.166 214.897,287.242 214.036,287.242C213.175,287.242 212.368,285.682 211.292,282.292L209.571,276.912C210.754,275.244 211.938,273.792 213.068,272.501C214.466,270.725 215.542,269.811 216.296,269.811C216.78,269.811 217.21,270.026 217.533,270.456C217.802,270.725 218.017,270.887 218.34,270.887C219.147,270.887 220.384,269.811 220.438,268.519C220.438,267.336 219.577,266.206 218.179,266.206C215.811,266.206 213.498,268.519 209.033,275.029L208.064,272.07C206.773,268.197 206.074,266.206 204.621,266.206C202.845,266.206 200.478,268.519 198.219,271.801L199.133,272.931Z" style="fill:rgb(255,47,146);fill-rule:nonzero;"/>
                <path d="M228.992,274.548C223.343,274.548 221.272,281.252 221.272,286.75C221.272,292.7 223.306,298.914 228.992,298.914C234.641,298.914 236.637,292.211 236.637,286.713C236.637,280.913 234.641,274.548 228.992,274.548ZM228.955,275.791C232.344,275.791 233.285,281.365 233.285,286.713C233.285,291.985 232.382,297.634 228.992,297.634C225.716,297.634 224.624,291.947 224.624,286.675C224.624,281.44 225.528,275.791 228.955,275.791Z" style="fill:rgb(255,47,146);fill-rule:nonzero;"/>
                <path d="M251.656,283.745C250.203,284.229 249.235,284.552 246.383,285.359C246.007,289.448 244.662,292.945 241.541,298.11L242.295,298.701L244.5,297.679C248.858,292.03 250.903,288.641 252.409,284.498L251.656,283.745Z" style="fill:rgb(255,47,146);fill-rule:nonzero;"/>
                <path d="M268.254,272.931C270.137,270.564 271.159,269.864 271.697,269.864C272.235,269.864 272.719,270.618 273.472,273.254L275.301,278.849C271.966,283.852 269.437,286.973 267.877,286.973C267.339,286.973 266.909,286.758 266.64,286.435C266.371,286.112 266.102,285.897 265.779,285.897C264.757,285.897 263.627,287.134 263.627,288.425C263.573,289.932 264.703,291.008 266.048,291.008C268.63,291.008 271.105,288.372 275.893,280.84L277.561,286.058C278.583,289.448 279.767,291.008 281.112,291.008C282.995,291.008 285.47,289.017 287.945,285.197L287.03,284.121C285.308,286.166 284.017,287.242 283.156,287.242C282.295,287.242 281.488,285.682 280.412,282.292L278.691,276.912C279.874,275.244 281.058,273.792 282.188,272.501C283.587,270.725 284.663,269.811 285.416,269.811C285.9,269.811 286.331,270.026 286.653,270.456C286.922,270.725 287.138,270.887 287.46,270.887C288.267,270.887 289.505,269.811 289.559,268.519C289.559,267.336 288.698,266.206 287.299,266.206C284.932,266.206 282.618,268.519 278.153,275.029L277.184,272.07C275.893,268.197 275.194,266.206 273.741,266.206C271.966,266.206 269.599,268.519 267.339,271.801L268.254,272.931Z" style="fill:rgb(255,47,146);fill-rule:nonzero;"/>
                <path d="M303.536,298.462L303.536,297.445C300.109,297.182 299.883,296.881 299.883,294.169L299.883,274.548C297.811,275.377 295.589,276.092 293.179,276.507L293.179,277.373L294.987,277.448C296.644,277.524 296.795,277.712 296.795,279.67L296.795,294.169C296.795,296.881 296.606,297.182 293.179,297.445L293.179,298.462L303.536,298.462Z" style="fill:rgb(255,47,146);fill-rule:nonzero;"/>
                <path d="M320.826,283.745C319.374,284.229 318.405,284.552 315.554,285.359C315.177,289.448 313.832,292.945 310.712,298.11L311.465,298.701L313.671,297.679C318.029,292.03 320.073,288.641 321.579,284.498L320.826,283.745Z" style="fill:rgb(255,47,146);fill-rule:nonzero;"/>
                <path d="M339.418,284.39C337.804,284.39 336.352,285.897 336.352,287.511C336.352,289.125 337.804,290.631 339.365,290.631C341.086,290.631 342.593,289.179 342.593,287.511C342.593,285.897 341.086,284.39 339.418,284.39Z" style="fill:rgb(255,47,146);fill-rule:nonzero;"/>
                <path d="M362.315,284.39C360.701,284.39 359.248,285.897 359.248,287.511C359.248,289.125 360.701,290.631 362.261,290.631C363.982,290.631 365.489,289.179 365.489,287.511C365.489,285.897 363.982,284.39 362.315,284.39Z" style="fill:rgb(255,47,146);fill-rule:nonzero;"/>
                <path d="M385.211,284.39C383.597,284.39 382.144,285.897 382.144,287.511C382.144,289.125 383.597,290.631 385.157,290.631C386.879,290.631 388.385,289.179 388.385,287.511C388.385,285.897 386.879,284.39 385.211,284.39Z" style="fill:rgb(255,47,146);fill-rule:nonzero;"/>
                <path d="M396.23,251.303L395.208,252.702C398.167,256.145 403.547,262.063 403.547,276.051C403.547,290.9 397.951,297.41 395.208,300.8L396.23,301.929C399.081,299.239 408.173,291.6 408.173,276.105C408.173,261.203 399.296,254.047 396.23,251.303Z" style="fill:rgb(255,47,146);fill-rule:nonzero;"/>
            </g>
        </g>
    </g>
    <path d="M141.803,186.923L232.928,240.232" style="fill:none;stroke-width:3px;stroke:rgb(255,47,146);"/>
</svg>
