<?xml version="1.0" standalone="no"?>
<!DOCTYPE svg PUBLIC "-//W3C//DTD SVG 1.1//EN" "http://www.w3.org/Graphics/SVG/1.1/DTD/svg11.dtd">
<svg width="100%" height="100%" viewBox="0 0 483 483" version="1.1" xmlns="http://www.w3.org/2000/svg" xmlns:xlink="http://www.w3.org/1999/xlink" xml:space="preserve" style="fill-rule:evenodd;clip-rule:evenodd;stroke-linecap:round;stroke-linejoin:round;stroke-miterlimit:10;">
    <path d="M137.825,4.852C143.36,10.387 143.36,19.361 137.825,24.896C132.29,30.431 123.316,30.431 117.781,24.896C112.246,19.361 112.246,10.387 117.781,4.852C123.316,-0.683 132.29,-0.683 137.825,4.852" style="fill:rgb(192,192,192);fill-rule:nonzero;"/>
    <path d="M251.211,231.624C256.746,237.159 256.746,246.133 251.211,251.668C245.676,257.203 236.702,257.203 231.167,251.668C225.632,246.133 225.632,237.159 231.167,231.624C236.702,226.089 245.676,226.089 251.211,231.624" style="fill:black;fill-rule:nonzero;"/>
    <path d="M24.439,231.624C29.974,237.159 29.974,246.133 24.439,251.668C18.904,257.203 9.93,257.203 4.395,251.668C-1.14,246.133 -1.14,237.159 4.395,231.624C9.93,226.089 18.904,226.089 24.439,231.624" style="fill:rgb(192,192,192);fill-rule:nonzero;"/>
    <path d="M137.825,458.395C143.36,463.93 143.36,472.904 137.825,478.439C132.29,483.974 123.316,483.974 117.781,478.439C112.246,472.904 112.246,463.93 117.781,458.395C123.316,452.86 132.29,452.86 137.825,458.395" style="fill:rgb(192,192,192);fill-rule:nonzero;"/>
    <path d="M141.976,43.221L227.016,213.299" style="fill:none;stroke-width:5px;stroke:rgb(192,192,192);"/>
    <path d="M113.63,43.221L28.591,213.299" style="fill:none;stroke-width:5px;stroke:rgb(192,192,192);"/>
    <path d="M42.764,241.646L212.843,241.646" style="fill:none;stroke-width:5px;stroke:rgb(192,192,192);"/>
    <path d="M28.591,269.992L113.63,440.071" style="fill:none;stroke-width:5px;stroke:rgb(192,192,192);"/>
    <path d="M227.016,269.992L141.976,440.071" style="fill:none;stroke-width:5px;stroke:rgb(192,192,192);"/>
    <path d="M71.11,277.079L184.496,277.079L127.803,390.465L71.11,277.079Z" style="fill:rgb(192,192,192);fill-rule:nonzero;"/>
    <path d="M71.11,207.213L184.496,207.213L127.803,93.827L71.11,207.213Z" style="fill:rgb(192,192,192);fill-rule:nonzero;"/>
    <path d="M364.597,4.852C370.132,10.387 370.132,19.361 364.597,24.896C359.062,30.431 350.088,30.431 344.553,24.896C339.018,19.361 339.018,10.387 344.553,4.852C350.088,-0.683 359.062,-0.683 364.597,4.852" style="fill:rgb(192,192,192);fill-rule:nonzero;"/>
    <path d="M156.15,14.874L326.228,14.874" style="fill:none;stroke-width:5px;stroke:rgb(192,192,192);"/>
    <path d="M340.402,43.221L255.362,213.299" style="fill:none;stroke-width:5px;stroke:rgb(192,192,192);"/>
    <path d="M184.496,50.307L297.882,50.307L241.189,163.693L184.496,50.307Z" style="fill:rgb(192,192,192);fill-rule:nonzero;"/>
    <path d="M477.983,231.624C483.518,237.159 483.518,246.133 477.983,251.668C472.448,257.203 463.474,257.203 457.939,251.668C452.404,246.133 452.404,237.159 457.939,231.624C463.474,226.089 472.448,226.089 477.983,231.624" style="fill:rgb(192,192,192);fill-rule:nonzero;"/>
    <path d="M368.748,43.221L453.787,213.299" style="fill:none;stroke-width:5px;stroke:rgb(192,192,192);"/>
    <path d="M269.535,241.646L439.614,241.646" style="fill:none;stroke-width:5px;stroke:rgb(192,192,192);"/>
    <path d="M297.882,207.213L411.268,207.213L354.575,93.827L297.882,207.213Z" style="fill:rgb(192,192,192);fill-rule:nonzero;"/>
    <path d="M364.597,458.395C370.132,463.93 370.132,472.904 364.597,478.439C359.062,483.974 350.088,483.974 344.553,478.439C339.018,472.904 339.018,463.93 344.553,458.395C350.088,452.86 359.062,452.86 364.597,458.395" style="fill:rgb(192,192,192);fill-rule:nonzero;"/>
    <path d="M255.362,269.992L340.402,440.071" style="fill:none;stroke-width:5px;stroke:rgb(192,192,192);"/>
    <path d="M156.15,468.417L326.228,468.417" style="fill:none;stroke-width:5px;stroke:rgb(192,192,192);"/>
    <path d="M184.496,433.984L297.882,433.984L241.189,320.598L184.496,433.984Z" style="fill:rgb(192,192,192);fill-rule:nonzero;"/>
    <path d="M453.787,269.992L368.748,440.071" style="fill:none;stroke-width:5px;stroke:rgb(192,192,192);"/>
    <path d="M297.882,277.079L411.268,277.079L354.575,390.465L297.882,277.079Z" style="fill:rgb(192,192,192);fill-rule:nonzero;"/>
    <path d="M297.291,241.362L297.974,240.573C293.09,236.406 291.257,229.87 291.257,223.442C291.257,216.976 293.09,210.44 297.974,206.275L297.291,205.484C291.436,209.436 288.457,216.331 288.457,223.442C288.457,230.517 291.437,237.412 297.291,241.362" style="fill:black;fill-rule:nonzero;"/>
    <path d="M304.017,221.015C305.273,219.383 305.956,218.901 306.279,218.901C306.638,218.901 306.961,219.406 307.5,221.167L308.721,224.906C306.459,228.25 304.772,230.299 303.73,230.299C303.407,230.299 303.12,230.159 302.905,229.948C302.761,229.737 302.582,229.596 302.33,229.596C301.684,229.596 300.894,230.42 300.894,231.279C300.865,232.281 301.618,232.997 302.551,232.997C304.238,232.997 305.889,231.249 309.082,226.286L310.195,229.75C310.877,231.963 311.666,232.998 312.563,232.998C313.819,232.998 315.469,231.716 317.12,229.187L316.51,228.439C315.362,229.789 314.5,230.499 313.926,230.499C313.352,230.499 312.814,229.458 312.132,227.232L310.984,223.606C311.738,222.493 312.527,221.56 313.28,220.698C314.213,219.513 314.931,218.901 315.469,218.901C315.792,218.901 316.043,219.092 316.259,219.358C316.438,219.587 316.618,219.701 316.797,219.701C317.335,219.701 318.161,218.937 318.199,218.064C318.199,217.3 317.623,216.5 316.69,216.5C315.146,216.5 313.602,218.052 310.586,222.413L309.94,220.467C309.114,217.871 308.611,216.5 307.642,216.5C306.493,216.5 304.913,218.054 303.369,220.292" style="fill:black;fill-rule:nonzero;"/>
    <path d="M323.925,222.1C320.089,222.1 318.7,226.535 318.7,230.189C318.7,234.269 320.063,238.3 323.925,238.3C327.737,238.3 329.1,233.844 329.1,230.189C329.1,226.259 327.737,222.1 323.95,222.1L323.925,222.1ZM323.925,223C326.143,223 326.8,226.601 326.8,230.125C326.8,233.625 326.194,237.299 323.951,237.299C321.758,237.299 321.002,233.6 321.002,230.125C321.002,226.651 321.607,223 323.9,223" style="fill:black;fill-rule:nonzero;"/>
    <path d="M339.091,232.564C339.091,230.194 338.193,228.794 336.793,228.794C335.607,228.794 334.89,229.691 334.89,230.697C334.89,231.666 335.607,232.6 336.793,232.6C337.224,232.6 337.691,232.456 338.049,232.133C338.157,232.061 338.193,232.025 338.229,232.025C338.265,232.025 338.301,232.061 338.301,232.564C338.301,235.222 337.045,237.376 335.859,238.562C335.464,238.956 335.464,239.028 335.464,239.135C335.464,239.387 335.644,239.53 335.823,239.53C336.218,239.53 339.092,236.764 339.092,232.563" style="fill:black;fill-rule:nonzero;"/>
    <path d="M350.217,221.015C351.473,219.383 352.156,218.901 352.479,218.901C352.838,218.901 353.161,219.406 353.7,221.167L354.921,224.906C352.659,228.25 350.972,230.299 349.93,230.299C349.607,230.299 349.32,230.159 349.105,229.948C348.961,229.737 348.782,229.596 348.53,229.596C347.884,229.596 347.094,230.42 347.094,231.279C347.065,232.281 347.818,232.997 348.751,232.997C350.438,232.997 352.089,231.249 355.282,226.286L356.395,229.75C357.077,231.963 357.866,232.998 358.763,232.998C360.019,232.998 361.669,231.716 363.32,229.187L362.71,228.439C361.562,229.789 360.7,230.499 360.126,230.499C359.552,230.499 359.014,229.458 358.332,227.232L357.184,223.606C357.938,222.493 358.727,221.56 359.48,220.698C360.413,219.513 361.131,218.901 361.669,218.901C361.992,218.901 362.243,219.092 362.459,219.358C362.638,219.587 362.818,219.701 362.997,219.701C363.535,219.701 364.361,218.937 364.399,218.064C364.399,217.3 363.823,216.5 362.89,216.5C361.346,216.5 359.802,218.052 356.786,222.413L356.14,220.467C355.314,217.871 354.811,216.5 353.842,216.5C352.693,216.5 351.113,218.054 349.569,220.292" style="fill:black;fill-rule:nonzero;"/>
    <path d="M373.866,238L373.866,237.2C371.552,237.05 371.4,236.85 371.4,235.047L371.4,222.1C369.97,222.65 368.491,223.1 366.836,223.4L366.836,224.1L368.143,224.1C369.199,224.152 369.299,224.277 369.299,225.532L369.299,235.043C369.299,236.85 369.148,237.05 366.861,237.201L366.861,238.001" style="fill:black;fill-rule:nonzero;"/>
    <path d="M385.391,232.564C385.391,230.194 384.493,228.794 383.093,228.794C381.907,228.794 381.19,229.691 381.19,230.697C381.19,231.666 381.907,232.6 383.093,232.6C383.524,232.6 383.991,232.456 384.349,232.133C384.457,232.061 384.493,232.025 384.529,232.025C384.565,232.025 384.601,232.061 384.601,232.564C384.601,235.222 383.345,237.376 382.159,238.562C381.764,238.956 381.764,239.028 381.764,239.135C381.764,239.387 381.944,239.53 382.123,239.53C382.518,239.53 385.392,236.764 385.392,232.563" style="fill:black;fill-rule:nonzero;"/>
    <path d="M400.295,230.697C400.295,229.655 399.433,228.794 398.392,228.794C397.35,228.794 396.489,229.655 396.489,230.697C396.489,231.738 397.35,232.6 398.392,232.6C399.433,232.6 400.295,231.737 400.295,230.697" style="fill:black;fill-rule:nonzero;"/>
    <path d="M415.595,230.697C415.595,229.655 414.733,228.794 413.692,228.794C412.65,228.794 411.789,229.655 411.789,230.697C411.789,231.738 412.65,232.6 413.692,232.6C414.733,232.6 415.595,231.737 415.595,230.697" style="fill:black;fill-rule:nonzero;"/>
    <path d="M430.795,230.697C430.795,229.655 429.933,228.794 428.892,228.794C427.85,228.794 426.989,229.655 426.989,230.697C426.989,231.738 427.85,232.6 428.892,232.6C429.933,232.6 430.795,231.737 430.795,230.697" style="fill:black;fill-rule:nonzero;"/>
    <path d="M437.456,241.362C443.309,237.412 446.29,230.517 446.29,223.442C446.29,216.331 443.309,209.436 437.456,205.484L436.773,206.275C441.657,210.441 443.489,216.977 443.489,223.442C443.489,229.87 441.658,236.406 436.773,240.573L437.456,241.362" style="fill:black;fill-rule:nonzero;"/>
    <path d="M248.796,230.073C255.981,224.482 263.87,215.801 270.353,213.299C276.837,210.798 281.919,214.475 287.701,215.063" style="fill:none;stroke-width:1px;stroke:black;"/>
</svg>
