<?xml version="1.0" standalone="no"?>
<!DOCTYPE svg PUBLIC "-//W3C//DTD SVG 1.1//EN" "http://www.w3.org/Graphics/SVG/1.1/DTD/svg11.dtd">
<svg width="100%" height="100%" viewBox="0 0 483 483" version="1.1" xmlns="http://www.w3.org/2000/svg" xmlns:xlink="http://www.w3.org/1999/xlink" xml:space="preserve" style="fill-rule:evenodd;clip-rule:evenodd;stroke-linecap:round;stroke-linejoin:round;stroke-miterlimit:10;">
    <rect x="-1799" y="-666" width="2795" height="2349" style="fill:white;fill-rule:nonzero;"/>
    <path d="M43.52,42.661L43.52,439.512L440.37,439.512L440.37,382.819L100.213,382.819L100.213,42.661L43.52,42.661Z" style="fill:rgb(192,192,192);fill-rule:nonzero;"/>
    <path d="M156.906,42.661L397.85,42.661L284.465,156.047L156.906,156.047L156.906,42.661Z" style="fill:rgb(192,192,192);fill-rule:nonzero;"/>
    <path d="M156.906,326.126L156.906,212.74L312.811,212.74L440.37,85.181L440.37,326.126L156.906,326.126Z" style="fill:rgb(192,192,192);fill-rule:nonzero;"/>
    <path d="M478.738,4.293C484.273,9.828 484.273,18.802 478.738,24.337C473.203,29.872 464.23,29.872 458.695,24.337C453.16,18.802 453.16,9.828 458.695,4.293C464.23,-1.242 473.203,-1.242 478.738,4.293" style="fill:rgb(192,192,192);fill-rule:nonzero;"/>
    <path d="M308.66,174.372C314.195,179.907 314.195,188.881 308.66,194.416C303.125,199.951 294.151,199.951 288.616,194.416C283.081,188.881 283.081,179.907 288.616,174.372C294.151,168.837 303.125,168.837 308.66,174.372" style="fill:rgb(192,192,192);fill-rule:nonzero;"/>
    <path d="M138.581,344.451C144.116,349.985 144.116,358.959 138.581,364.494C133.046,370.029 124.072,370.029 118.537,364.494C113.002,358.959 113.002,349.985 118.537,344.451C124.072,338.915 133.046,338.915 138.581,344.451" style="fill:rgb(255,47,146);fill-rule:nonzero;"/>
    <path d="M25.195,457.836C30.73,463.371 30.73,472.345 25.195,477.88C19.66,483.415 10.686,483.415 5.151,477.88C-0.384,472.345 -0.384,463.371 5.151,457.836C10.686,452.301 19.66,452.301 25.195,457.836" style="fill:rgb(192,192,192);fill-rule:nonzero;"/>
    <path d="M478.738,344.451C484.273,349.985 484.273,358.959 478.738,364.494C473.203,370.029 464.23,370.029 458.695,364.494C453.16,358.959 453.16,349.985 458.695,344.451C464.23,338.915 473.203,338.915 478.738,344.451" style="fill:rgb(192,192,192);fill-rule:nonzero;"/>
    <path d="M478.738,457.836C484.273,463.371 484.273,472.345 478.738,477.88C473.203,483.415 464.23,483.415 458.695,477.88C453.16,472.345 453.16,463.371 458.695,457.836C464.23,452.301 473.203,452.301 478.738,457.836" style="fill:rgb(192,192,192);fill-rule:nonzero;"/>
    <path d="M138.581,174.372C144.116,179.907 144.116,188.881 138.581,194.416C133.046,199.951 124.072,199.951 118.537,194.416C113.002,188.881 113.002,179.907 118.537,174.372C124.072,168.837 133.046,168.837 138.581,174.372" style="fill:rgb(255,47,146);fill-rule:nonzero;"/>
    <path d="M138.581,4.293C144.116,9.828 144.116,18.802 138.581,24.337C133.046,29.872 124.072,29.872 118.537,24.337C113.002,18.802 113.002,9.828 118.537,4.293C124.072,-1.242 133.046,-1.242 138.581,4.293" style="fill:rgb(192,192,192);fill-rule:nonzero;"/>
    <path d="M25.195,4.293C30.73,9.828 30.73,18.802 25.195,24.337C19.66,29.872 10.686,29.872 5.151,24.337C-0.384,18.802 -0.384,9.828 5.151,4.293C10.686,-1.242 19.66,-1.242 25.195,4.293" style="fill:rgb(192,192,192);fill-rule:nonzero;"/>
    <path d="M15.173,42.661L15.173,439.512" style="fill:none;stroke-width:5px;stroke:rgb(192,192,192);"/>
    <path d="M43.52,14.315L100.213,14.315" style="fill:none;stroke-width:5px;stroke:rgb(192,192,192);"/>
    <path d="M156.906,14.315L440.37,14.315" style="fill:none;stroke-width:5px;stroke:rgb(192,192,192);"/>
    <path d="M128.559,42.661L128.559,156.047" style="fill:none;stroke-width:5px;stroke:rgb(192,192,192);"/>
    <path d="M128.559,212.74L128.559,326.126" style="fill:none;stroke-width:5px;stroke:black;"/>
    <path d="M156.906,184.394L270.291,184.394" style="fill:none;stroke-width:5px;stroke:rgb(192,192,192);"/>
    <path d="M156.906,354.472L440.37,354.472" style="fill:none;stroke-width:5px;stroke:rgb(192,192,192);"/>
    <path d="M43.52,467.858L440.37,467.858" style="fill:none;stroke-width:5px;stroke:rgb(192,192,192);"/>
    <path d="M468.717,42.661L468.717,326.126" style="fill:none;stroke-width:5px;stroke:rgb(192,192,192);"/>
    <path d="M468.717,382.819L468.717,439.512" style="fill:none;stroke-width:5px;stroke:rgb(192,192,192);"/>
    <path d="M319.898,163.134L447.457,35.575" style="fill:none;stroke-width:5px;stroke:rgb(192,192,192);"/>
    <path d="M128.559,269.433C135.645,259.985 148.989,253.046 149.819,241.087C150.431,232.269 144.239,220.717 138.769,209.457" style="fill:none;stroke-width:2px;stroke:black;"/>
    <path d="M134.876,200.684L135.479,210.919L142.06,207.998L134.876,200.684Z" style="fill:black;fill-rule:nonzero;stroke-width:2px;stroke-linecap:butt;stroke-linejoin:miter;stroke:black;"/>
    <path d="M128.559,269.433C135.645,281.243 148.888,292.866 149.819,304.866C150.461,313.147 145.241,321.611 140.226,330.067" style="fill:none;stroke-width:2px;stroke:black;"/>
    <path d="M135.7,338.532L143.402,331.764L137.052,328.369L135.7,338.532Z" style="fill:black;fill-rule:nonzero;"/>
    <path d="M135.7,338.532L143.402,331.764L137.052,328.368L135.7,338.532Z" style="fill:none;stroke-width:2px;stroke-linecap:butt;stroke-linejoin:miter;stroke:black;"/>
</svg>
