<?xml version="1.0" standalone="no"?>
<!DOCTYPE svg PUBLIC "-//W3C//DTD SVG 1.1//EN" "http://www.w3.org/Graphics/SVG/1.1/DTD/svg11.dtd">
<svg width="100%" height="100%" viewBox="0 0 227 331" version="1.1" xmlns="http://www.w3.org/2000/svg" xmlns:xlink="http://www.w3.org/1999/xlink" xml:space="preserve" style="fill-rule:evenodd;clip-rule:evenodd;stroke-linecap:round;stroke-linejoin:round;stroke-miterlimit:10;">
    <rect x="-834" y="-191" width="1677" height="1566" style="fill:white;fill-rule:nonzero;"/>
    <path d="M194.508,80.886C197.967,84.345 197.967,89.954 194.508,93.413C191.049,96.873 185.44,96.873 181.98,93.413C178.521,89.954 178.521,84.345 181.98,80.886C185.44,77.426 191.049,77.426 194.508,80.886" style="fill:none;stroke-width:4px;stroke:rgb(79,143,0);stroke-opacity:0.25098;"/>
    <path d="M194.508,80.886C197.967,84.345 197.967,89.954 194.508,93.413C191.049,96.873 185.44,96.873 181.98,93.413C178.521,89.954 178.521,84.345 181.98,80.886C185.44,77.426 191.049,77.426 194.508,80.886" style="fill:none;stroke-width:2px;stroke:white;"/>
    <path d="M134.272,20.65C137.731,24.109 137.731,29.718 134.272,33.177C130.812,36.637 125.204,36.637 121.744,33.177C118.285,29.718 118.285,24.109 121.744,20.65C125.204,17.19 130.812,17.19 134.272,20.65" style="fill:none;stroke-width:4px;stroke:rgb(79,143,0);stroke-opacity:0.25098;"/>
    <path d="M134.272,20.65C137.731,24.109 137.731,29.718 134.272,33.177C130.812,36.637 125.204,36.637 121.744,33.177C118.285,29.718 118.285,24.109 121.744,20.65C125.204,17.19 130.812,17.19 134.272,20.65" style="fill:none;stroke-width:2px;stroke:white;"/>
    <path d="M95.295,20.65C98.755,24.109 98.755,29.718 95.295,33.177C91.836,36.637 86.227,36.637 82.768,33.177C79.308,29.718 79.308,24.109 82.768,20.65C86.227,17.19 91.836,17.19 95.295,20.65" style="fill:none;stroke-width:4px;stroke:rgb(79,143,0);stroke-opacity:0.25098;"/>
    <path d="M95.295,20.65C98.755,24.109 98.755,29.718 95.295,33.177C91.836,36.637 86.227,36.637 82.768,33.177C79.308,29.718 79.308,24.109 82.768,20.65C86.227,17.19 91.836,17.19 95.295,20.65" style="fill:none;stroke-width:2px;stroke:white;"/>
    <path d="M38.602,77.343C42.062,80.802 42.062,86.411 38.602,89.87C35.143,93.329 29.534,93.329 26.075,89.87C22.615,86.411 22.615,80.802 26.075,77.343C29.534,73.883 35.143,73.883 38.602,77.343" style="fill:none;stroke-width:4px;stroke:rgb(79,143,0);stroke-opacity:0.25098;"/>
    <path d="M38.602,77.343C42.062,80.802 42.062,86.411 38.602,89.87C35.143,93.329 29.534,93.329 26.075,89.87C22.615,86.411 22.615,80.802 26.075,77.343C29.534,73.883 35.143,73.883 38.602,77.343" style="fill:none;stroke-width:2px;stroke:white;"/>
    <path d="M221.083,146.437C224.542,149.896 224.542,155.505 221.083,158.965C217.623,162.424 212.015,162.424 208.555,158.965C205.096,155.505 205.096,149.896 208.555,146.437C212.015,142.978 217.623,142.978 221.083,146.437" style="fill:none;stroke-width:4px;stroke:rgb(79,143,0);stroke-opacity:0.25098;"/>
    <path d="M221.083,146.437C224.542,149.896 224.542,155.505 221.083,158.965C217.623,162.424 212.015,162.424 208.555,158.965C205.096,155.505 205.096,149.896 208.555,146.437C212.015,142.978 217.623,142.978 221.083,146.437" style="fill:none;stroke-width:2px;stroke:white;"/>
    <path d="M221.083,273.996C224.542,277.455 224.542,283.064 221.083,286.523C217.623,289.983 212.015,289.983 208.555,286.523C205.096,283.064 205.096,277.455 208.555,273.996C212.015,270.537 217.623,270.537 221.083,273.996" style="fill:none;stroke-width:4px;stroke:rgb(79,143,0);stroke-opacity:0.25098;"/>
    <path d="M221.083,273.996C224.542,277.455 224.542,283.064 221.083,286.523C217.623,289.983 212.015,289.983 208.555,286.523C205.096,283.064 205.096,277.455 208.555,273.996C212.015,270.537 217.623,270.537 221.083,273.996" style="fill:none;stroke-width:2px;stroke:white;"/>
    <path d="M189.193,305.886C192.652,309.345 192.652,314.954 189.193,318.413C185.734,321.873 180.125,321.873 176.666,318.413C173.206,314.954 173.206,309.345 176.666,305.886C180.125,302.426 185.734,302.426 189.193,305.886" style="fill:none;stroke-width:4px;stroke:rgb(79,143,0);stroke-opacity:0.25098;"/>
    <path d="M189.193,305.886C192.652,309.345 192.652,314.954 189.193,318.413C185.734,321.873 180.125,321.873 176.666,318.413C173.206,314.954 173.206,309.345 176.666,305.886C180.125,302.426 185.734,302.426 189.193,305.886" style="fill:none;stroke-width:2px;stroke:white;"/>
    <path d="M61.634,305.886C65.093,309.345 65.093,314.954 61.634,318.413C58.175,321.873 52.566,321.873 49.106,318.413C45.647,314.954 45.647,309.345 49.106,305.886C52.566,302.426 58.175,302.426 61.634,305.886" style="fill:none;stroke-width:4px;stroke:rgb(79,143,0);stroke-opacity:0.25098;"/>
    <path d="M61.634,305.886C65.093,309.345 65.093,314.954 61.634,318.413C58.175,321.873 52.566,321.873 49.106,318.413C45.647,314.954 45.647,309.345 49.106,305.886C52.566,302.426 58.175,302.426 61.634,305.886" style="fill:none;stroke-width:2px;stroke:white;"/>
    <path d="M19.114,263.366C22.574,266.826 22.574,272.434 19.114,275.894C15.655,279.353 10.046,279.353 6.587,275.894C3.127,272.434 3.127,266.826 6.587,263.366C10.046,259.907 15.655,259.907 19.114,263.366" style="fill:none;stroke-width:4px;stroke:rgb(79,143,0);stroke-opacity:0.25098;"/>
    <path d="M19.114,263.366C22.574,266.826 22.574,272.434 19.114,275.894C15.655,279.353 10.046,279.353 6.587,275.894C3.127,272.434 3.127,266.826 6.587,263.366C10.046,259.907 15.655,259.907 19.114,263.366" style="fill:none;stroke-width:2px;stroke:white;"/>
    <path d="M19.114,135.807C22.574,139.266 22.574,144.875 19.114,148.335C15.655,151.794 10.046,151.794 6.587,148.335C3.127,144.875 3.127,139.266 6.587,135.807C10.046,132.348 15.655,132.348 19.114,135.807" style="fill:none;stroke-width:4px;stroke:rgb(79,143,0);stroke-opacity:0.25098;"/>
    <path d="M19.114,135.807C22.574,139.266 22.574,144.875 19.114,148.335C15.655,151.794 10.046,151.794 6.587,148.335C3.127,144.875 3.127,139.266 6.587,135.807C10.046,132.348 15.655,132.348 19.114,135.807" style="fill:none;stroke-width:2px;stroke:white;"/>
    <path d="M44.741,110.681L44.741,116.768" style="fill:none;stroke-width:4px;stroke:rgb(79,143,0);stroke-opacity:0.101961;"/>
    <path d="M44.741,110.681L44.741,116.768" style="fill:none;stroke-width:2px;stroke:white;"/>
    <path d="M172.299,110.681L172.299,116.768" style="fill:none;stroke-width:4px;stroke:rgb(79,143,0);stroke-opacity:0.101961;"/>
    <path d="M172.299,110.681L172.299,116.768" style="fill:none;stroke-width:2px;stroke:white;"/>
    <path d="M182.245,137.843L187.157,142.755" style="fill:none;stroke-width:4px;stroke:rgb(79,143,0);stroke-opacity:0.25098;"/>
    <path d="M182.245,137.843L187.157,142.755" style="fill:none;stroke-width:2px;stroke:white;"/>
    <path d="M40.513,279.576L45.425,284.488" style="fill:none;stroke-width:4px;stroke:rgb(79,143,0);stroke-opacity:0.25098;"/>
    <path d="M40.513,279.576L45.425,284.488" style="fill:none;stroke-width:2px;stroke:white;"/>
    <path d="M34.111,301.52L204.189,301.52L204.189,131.441L34.111,301.52Z" style="fill:rgb(255,251,0);fill-opacity:0.101961;fill-rule:nonzero;"/>
    <path d="M193.559,120.811L23.481,120.811L23.48,290.89L193.559,120.811Z" style="fill:rgb(142,250,0);fill-opacity:0.101961;fill-rule:nonzero;"/>
    <path d="M108.321,21.599L23.282,106.638L193.36,106.638L108.321,21.599Z" style="fill:rgb(255,147,0);fill-opacity:0.25098;fill-rule:nonzero;"/>
    <path d="M143.953,57.031L154.583,67.661" style="fill:none;stroke-width:2px;stroke-dasharray:2,6;stroke:rgb(255,38,0);stroke-opacity:0.25098;"/>
    <path d="M72.403,57.031L62.457,67.661" style="fill:none;stroke-width:2px;stroke-dasharray:2,6;stroke:rgb(255,38,0);stroke-opacity:0.25098;"/>
    <path d="M97.89,106.638L119.15,106.638" style="fill:none;stroke-width:2px;stroke-dasharray:2,6;stroke:rgb(255,38,0);stroke-opacity:0.25098;"/>
    <path d="M98.221,120.957L119.48,120.957" style="fill:none;stroke-width:2px;stroke-dasharray:2,6;stroke:rgb(255,38,0);stroke-opacity:0.25098;"/>
    <path d="M23.481,195.22L23.481,216.48" style="fill:none;stroke-width:2px;stroke-dasharray:2,6;stroke:rgb(255,38,0);stroke-opacity:0.25098;"/>
    <path d="M101.134,213.029L115.937,198.764" style="fill:none;stroke-width:2px;stroke-dasharray:2,6;stroke:rgb(255,38,0);stroke-opacity:0.25098;"/>
    <path d="M126.236,208.705L111.764,223.659" style="fill:none;stroke-width:2px;stroke-dasharray:2,6;stroke:rgb(255,38,0);stroke-opacity:0.25098;"/>
    <path d="M109.204,301.52L129.78,301.52" style="fill:none;stroke-width:2px;stroke-dasharray:2,6;stroke:rgb(255,38,0);stroke-opacity:0.25098;"/>
    <path d="M204.189,206.535L204.189,227.11" style="fill:none;stroke-width:2px;stroke-dasharray:2,6;stroke:rgb(255,38,0);stroke-opacity:0.25098;"/>
    <path d="M174.108,103.02L177.577,96.082" style="fill:none;stroke-width:2px;stroke:rgb(4,51,255);stroke-opacity:0.25098;"/>
    <path d="M101.933,32.228L115.106,32.228" style="fill:none;stroke-width:2px;stroke:rgb(4,51,255);stroke-opacity:0.25098;"/>
    <path d="M39.462,96.082L42.932,103.02" style="fill:none;stroke-width:2px;stroke:rgb(4,51,255);stroke-opacity:0.25098;"/>
    <path d="M26.339,139.212L41.881,123.67" style="fill:none;stroke-width:2px;stroke:rgb(4,51,255);stroke-opacity:0.25098;"/>
    <path d="M174.108,124.428L177.577,131.367" style="fill:none;stroke-width:2px;stroke:rgb(4,51,255);stroke-opacity:0.25098;"/>
    <path d="M193.633,147.423L200.572,150.892" style="fill:none;stroke-width:2px;stroke:rgb(4,51,255);stroke-opacity:0.25098;"/>
    <path d="M185.788,298.662L201.33,283.12" style="fill:none;stroke-width:2px;stroke:rgb(4,51,255);stroke-opacity:0.25098;"/>
    <path d="M53.562,297.903L50.092,290.964" style="fill:none;stroke-width:2px;stroke:rgb(4,51,255);stroke-opacity:0.25098;"/>
    <path d="M34.037,274.908L27.098,271.439" style="fill:none;stroke-width:2px;stroke:rgb(4,51,255);stroke-opacity:0.25098;"/>
    <path d="M37.654,92.465L62.457,67.661L90.803,71.205L37.654,92.465Z" style="fill:rgb(255,147,0);fill-opacity:0.501961;fill-rule:nonzero;"/>
    <path d="M179.386,92.465L154.583,67.661L126.236,71.205L179.386,92.465Z" style="fill:rgb(255,147,0);fill-opacity:0.501961;fill-rule:nonzero;"/>
    <path d="M44.74,106.638L97.89,81.835L97.89,106.638L44.74,106.638Z" style="fill:rgb(255,147,0);fill-opacity:0.501961;fill-rule:nonzero;"/>
    <path d="M172.299,106.638L119.15,81.835L119.15,106.638L172.299,106.638Z" style="fill:rgb(255,147,0);fill-opacity:0.501961;fill-rule:nonzero;"/>
    <path d="M73.087,57.032L97.89,32.228L97.89,60.575L73.087,57.032Z" style="fill:rgb(255,147,0);fill-opacity:0.501961;fill-rule:nonzero;"/>
    <path d="M119.15,60.575L119.15,32.228L143.953,57.032L119.15,60.575Z" style="fill:rgb(255,147,0);fill-opacity:0.501961;fill-rule:nonzero;"/>
    <path d="M44.74,120.811L97.89,120.811L80.173,149.158L44.74,120.811Z" style="fill:rgb(142,250,0);fill-opacity:0.501961;fill-rule:nonzero;"/>
    <path d="M23.48,142.071L23.48,195.221L58.913,170.417L23.48,142.071Z" style="fill:rgb(142,250,0);fill-opacity:0.501961;fill-rule:nonzero;"/>
    <path d="M23.48,216.48L23.48,269.63L66,188.134L23.48,216.48Z" style="fill:rgb(142,250,0);fill-opacity:0.501961;fill-rule:nonzero;"/>
    <path d="M37.654,276.717L83.717,195.221L101.433,212.937L37.654,276.717Z" style="fill:rgb(142,250,0);fill-opacity:0.501961;fill-rule:nonzero;"/>
    <path d="M115.606,198.764L97.89,181.047L179.386,134.984L115.606,198.764Z" style="fill:rgb(142,250,0);fill-opacity:0.501961;fill-rule:nonzero;"/>
    <path d="M90.803,163.331L119.15,120.811L172.299,120.811L90.803,163.331Z" style="fill:rgb(142,250,0);fill-opacity:0.501961;fill-rule:nonzero;"/>
    <path d="M190.016,145.614L126.236,209.394L143.953,227.11L190.016,145.614Z" style="fill:rgb(255,251,0);fill-opacity:0.501961;fill-rule:nonzero;"/>
    <path d="M161.669,234.197L204.189,152.701L204.189,205.85L161.669,234.197Z" style="fill:rgb(255,251,0);fill-opacity:0.501961;fill-rule:nonzero;"/>
    <path d="M204.189,280.26L204.189,227.11L168.756,251.913L204.189,280.26Z" style="fill:rgb(255,251,0);fill-opacity:0.501961;fill-rule:nonzero;"/>
    <path d="M182.929,301.52L147.496,273.173L129.779,301.52L182.929,301.52Z" style="fill:rgb(255,251,0);fill-opacity:0.501961;fill-rule:nonzero;"/>
    <path d="M108.52,301.52L136.866,259L55.37,301.52L108.52,301.52Z" style="fill:rgb(255,251,0);fill-opacity:0.501961;fill-rule:nonzero;"/>
    <path d="M48.283,287.346L112.063,223.567L129.779,241.283L48.283,287.346Z" style="fill:rgb(255,251,0);fill-opacity:0.501961;fill-rule:nonzero;"/>
    <path d="M174.805,109.143C173.421,110.527 171.178,110.527 169.794,109.143C168.41,107.76 168.41,105.516 169.794,104.132C171.178,102.749 173.421,102.749 174.805,104.132C176.189,105.516 176.189,107.76 174.805,109.143" style="fill:black;fill-rule:nonzero;stroke-width:1px;stroke:black;"/>
    <path d="M174.805,123.317C173.421,124.7 171.178,124.7 169.794,123.317C168.41,121.933 168.41,119.689 169.794,118.306C171.178,116.922 173.421,116.922 174.805,118.306C176.189,119.689 176.189,121.933 174.805,123.317" style="fill:black;fill-rule:nonzero;stroke-width:1px;stroke:black;"/>
    <path d="M181.891,94.97C180.508,96.354 178.264,96.354 176.88,94.97C175.497,93.586 175.497,91.343 176.88,89.959C178.264,88.575 180.508,88.575 181.891,89.959C183.275,91.343 183.275,93.586 181.891,94.97" style="fill:black;fill-rule:nonzero;stroke-width:1px;stroke:black;"/>
    <path d="M181.891,137.49C180.508,138.874 178.264,138.874 176.88,137.49C175.497,136.106 175.497,133.863 176.88,132.479C178.264,131.095 180.508,131.095 181.891,132.479C183.275,133.863 183.275,136.106 181.891,137.49" style="fill:black;fill-rule:nonzero;stroke-width:1px;stroke:black;"/>
    <path d="M192.521,148.12C191.138,149.503 188.894,149.503 187.51,148.12C186.127,146.736 186.127,144.492 187.51,143.109C188.894,141.725 191.138,141.725 192.521,143.109C193.905,144.492 193.905,146.736 192.521,148.12" style="fill:black;fill-rule:nonzero;stroke-width:1px;stroke:black;"/>
    <path d="M206.694,155.206C205.311,156.59 203.067,156.59 201.683,155.206C200.3,153.823 200.3,151.579 201.683,150.195C203.067,148.812 205.311,148.812 206.694,150.195C208.078,151.579 208.078,153.823 206.694,155.206" style="fill:black;fill-rule:nonzero;stroke-width:1px;stroke:black;"/>
    <path d="M40.159,94.97C38.776,96.354 36.532,96.354 35.148,94.97C33.765,93.586 33.765,91.343 35.148,89.959C36.532,88.575 38.776,88.575 40.159,89.959C41.543,91.343 41.543,93.586 40.159,94.97" style="fill:black;fill-rule:nonzero;stroke-width:1px;stroke:black;"/>
    <path d="M47.246,109.143C45.862,110.527 43.619,110.527 42.235,109.143C40.851,107.76 40.851,105.516 42.235,104.132C43.619,102.749 45.862,102.749 47.246,104.132C48.63,105.516 48.63,107.76 47.246,109.143" style="fill:black;fill-rule:nonzero;stroke-width:1px;stroke:black;"/>
    <path d="M47.246,123.317C45.862,124.7 43.619,124.7 42.235,123.317C40.851,121.933 40.851,119.689 42.235,118.306C43.619,116.922 45.862,116.922 47.246,118.306C48.63,119.689 48.63,121.933 47.246,123.317" style="fill:black;fill-rule:nonzero;stroke-width:1px;stroke:black;"/>
    <path d="M25.986,144.576C24.602,145.96 22.359,145.96 20.975,144.576C19.591,143.193 19.591,140.949 20.975,139.565C22.359,138.182 24.602,138.182 25.986,139.565C27.37,140.949 27.37,143.193 25.986,144.576" style="fill:black;fill-rule:nonzero;stroke-width:1px;stroke:black;"/>
    <path d="M25.986,272.135C24.602,273.519 22.359,273.519 20.975,272.135C19.591,270.752 19.591,268.508 20.975,267.124C22.359,265.741 24.602,265.741 25.986,267.124C27.37,268.508 27.37,270.752 25.986,272.135" style="fill:black;fill-rule:nonzero;stroke-width:1px;stroke:black;"/>
    <path d="M40.159,279.222C38.776,280.606 36.532,280.606 35.148,279.222C33.765,277.838 33.765,275.595 35.148,274.211C36.532,272.827 38.776,272.827 40.159,274.211C41.543,275.595 41.543,277.838 40.159,279.222" style="fill:black;fill-rule:nonzero;stroke-width:1px;stroke:black;"/>
    <path d="M50.789,289.853C49.406,291.236 47.162,291.236 45.778,289.853C44.395,288.469 44.395,286.225 45.778,284.842C47.162,283.458 49.406,283.458 50.789,284.842C52.173,286.225 52.173,288.469 50.789,289.853" style="fill:black;fill-rule:nonzero;stroke-width:1px;stroke:black;"/>
    <path d="M57.876,304.026C56.492,305.41 54.249,305.41 52.865,304.026C51.481,302.643 51.481,300.399 52.865,299.015C54.249,297.632 56.492,297.632 57.876,299.015C59.26,300.399 59.26,302.643 57.876,304.026" style="fill:black;fill-rule:nonzero;stroke-width:1px;stroke:black;"/>
    <path d="M185.435,304.026C184.051,305.41 181.808,305.41 180.424,304.026C179.04,302.643 179.04,300.399 180.424,299.015C181.808,297.632 184.051,297.632 185.435,299.015C186.819,300.399 186.819,302.643 185.435,304.026" style="fill:black;fill-rule:nonzero;stroke-width:1px;stroke:black;"/>
    <path d="M206.695,282.766C205.311,284.15 203.068,284.15 201.684,282.766C200.3,281.383 200.3,279.139 201.684,277.755C203.068,276.372 205.311,276.372 206.695,277.755C208.078,279.139 208.078,281.383 206.695,282.766" style="fill:black;fill-rule:nonzero;stroke-width:1px;stroke:black;"/>
    <path d="M176.527,89.606L154.583,67.661" style="fill:none;stroke-width:2px;stroke:black;"/>
    <path d="M40.513,89.606L62.457,67.661" style="fill:none;stroke-width:2px;stroke:black;"/>
    <path d="M48.784,106.638L97.89,106.638" style="fill:none;stroke-width:2px;stroke:black;"/>
    <path d="M168.256,106.638L119.834,106.638" style="fill:none;stroke-width:2px;stroke:black;"/>
    <path d="M40.508,273.853L101.134,213.029" style="fill:none;stroke-width:2px;stroke:black;"/>
    <path d="M176.534,137.851L115.937,198.764" style="fill:none;stroke-width:2px;stroke:black;"/>
    <path d="M23.48,146.114L23.481,195.22" style="fill:none;stroke-width:2px;stroke:black;"/>
    <path d="M23.481,265.587L23.481,216.48" style="fill:none;stroke-width:2px;stroke:black;"/>
    <path d="M204.189,156.744L204.189,206.535" style="fill:none;stroke-width:2px;stroke:black;"/>
    <path d="M204.189,276.216L204.189,227.794" style="fill:none;stroke-width:2px;stroke:black;"/>
    <path d="M59.414,301.52L109.204,301.52" style="fill:none;stroke-width:2px;stroke:black;"/>
    <path d="M178.886,301.52L130.464,301.52" style="fill:none;stroke-width:2px;stroke:black;"/>
    <path d="M48.43,120.957L98.221,120.957" style="fill:none;stroke-width:2px;stroke:black;"/>
    <path d="M167.902,120.957L119.48,120.957" style="fill:none;stroke-width:2px;stroke:black;"/>
    <path d="M51.138,284.483L111.764,223.659" style="fill:none;stroke-width:2px;stroke:black;"/>
    <path d="M187.152,148.468L126.236,208.705" style="fill:none;stroke-width:2px;stroke:black;"/>
    <path d="M97.89,82.335L97.89,106.638" style="fill:none;stroke-width:0.5px;stroke:black;"/>
    <path d="M90.803,71.205L62.457,67.661" style="fill:none;stroke-width:0.5px;stroke:black;"/>
    <path d="M90.803,71.205L41.409,90.963" style="fill:none;stroke-width:0.5px;stroke:black;"/>
    <path d="M48.418,104.956L97.89,82.335" style="fill:none;stroke-width:0.5px;stroke:black;"/>
    <path d="M119.15,82.335L119.15,106.638" style="fill:none;stroke-width:0.5px;stroke:black;"/>
    <path d="M119.15,82.335L168.621,104.956" style="fill:none;stroke-width:0.5px;stroke:black;"/>
    <path d="M175.631,90.963L126.236,71.205" style="fill:none;stroke-width:0.5px;stroke:black;"/>
    <path d="M126.236,71.205L154.583,67.661" style="fill:none;stroke-width:0.5px;stroke:black;"/>
    <path d="M94.992,35.048L72.403,57.031" style="fill:none;stroke-width:2px;stroke:black;"/>
    <path d="M97.89,60.575L72.403,57.031" style="fill:none;stroke-width:0.5px;stroke:black;"/>
    <path d="M97.89,36.272L97.89,60.575" style="fill:none;stroke-width:0.5px;stroke:black;"/>
    <path d="M100.396,34.734C99.012,36.118 96.768,36.118 95.385,34.734C94.001,33.35 94.001,31.107 95.385,29.723C96.768,28.339 99.012,28.339 100.396,29.723C101.779,31.107 101.779,33.35 100.396,34.734" style="fill:black;fill-rule:nonzero;stroke-width:1px;stroke:black;"/>
    <path d="M121.655,34.734C120.272,36.118 118.028,36.118 116.644,34.734C115.261,33.35 115.261,31.107 116.644,29.723C118.028,28.339 120.272,28.339 121.655,29.723C123.039,31.107 123.039,33.35 121.655,34.734" style="fill:black;fill-rule:nonzero;stroke-width:1px;stroke:black;"/>
    <path d="M122.009,35.087L143.953,57.031" style="fill:none;stroke-width:2px;stroke:black;"/>
    <path d="M143.953,57.031L119.15,60.575" style="fill:none;stroke-width:0.5px;stroke:black;"/>
    <path d="M119.15,36.272L119.15,60.575" style="fill:none;stroke-width:0.5px;stroke:black;"/>
    <path d="M25.351,266.044L66,188.134" style="fill:none;stroke-width:0.5px;stroke:black;"/>
    <path d="M66,188.134L23.481,216.48" style="fill:none;stroke-width:0.5px;stroke:black;"/>
    <path d="M39.636,273.191L83.417,195.313" style="fill:none;stroke-width:0.5px;stroke:black;"/>
    <path d="M101.134,213.029L83.417,195.313" style="fill:none;stroke-width:0.5px;stroke:black;"/>
    <path d="M58.913,170.417L23.481,195.22" style="fill:none;stroke-width:0.5px;stroke:black;"/>
    <path d="M26.638,144.597L58.913,170.417" style="fill:none;stroke-width:0.5px;stroke:black;"/>
    <path d="M47.898,123.337L80.173,149.158" style="fill:none;stroke-width:0.5px;stroke:black;"/>
    <path d="M80.173,149.158L98.221,120.957" style="fill:none;stroke-width:0.5px;stroke:black;"/>
    <path d="M90.803,163.331L119.48,120.957" style="fill:none;stroke-width:0.5px;stroke:black;"/>
    <path d="M90.803,163.331L168.714,122.682" style="fill:none;stroke-width:0.5px;stroke:black;"/>
    <path d="M97.89,181.047L175.865,136.974" style="fill:none;stroke-width:0.5px;stroke:black;"/>
    <path d="M97.89,181.047L115.937,198.764" style="fill:none;stroke-width:0.5px;stroke:black;"/>
    <path d="M202.341,156.451L161.692,234.361" style="fill:none;stroke-width:0.5px;stroke:black;"/>
    <path d="M161.692,234.361L204.189,206.535" style="fill:none;stroke-width:0.5px;stroke:black;"/>
    <path d="M188.057,149.304L144.275,227.182" style="fill:none;stroke-width:0.5px;stroke:black;"/>
    <path d="M126.236,209.394L144.275,227.182" style="fill:none;stroke-width:0.5px;stroke:black;"/>
    <path d="M168.779,252.078L204.212,227.275" style="fill:none;stroke-width:0.5px;stroke:black;"/>
    <path d="M201.054,277.898L168.779,252.078" style="fill:none;stroke-width:0.5px;stroke:black;"/>
    <path d="M179.794,299.158L147.519,273.338" style="fill:none;stroke-width:0.5px;stroke:black;"/>
    <path d="M147.519,273.338L129.472,301.538" style="fill:none;stroke-width:0.5px;stroke:black;"/>
    <path d="M136.889,259.164L109.204,301.52" style="fill:none;stroke-width:0.5px;stroke:black;"/>
    <path d="M136.889,259.164L58.979,299.813" style="fill:none;stroke-width:0.5px;stroke:black;"/>
    <path d="M129.802,241.448L51.827,285.521" style="fill:none;stroke-width:0.5px;stroke:black;"/>
    <path d="M129.802,241.448L111.755,223.731" style="fill:none;stroke-width:0.5px;stroke:black;"/>
    <path d="M20.937,104.941C17.337,104.941 16.017,109.213 16.017,112.717C16.017,116.509 17.313,120.469 20.937,120.469C24.537,120.469 25.809,116.197 25.809,112.693C25.809,108.997 24.537,104.941 20.937,104.941ZM20.913,105.733C23.073,105.733 23.673,109.285 23.673,112.693C23.673,116.053 23.097,119.653 20.937,119.653C18.849,119.653 18.153,116.029 18.153,112.669C18.153,109.333 18.729,105.733 20.913,105.733Z" style="fill:black;fill-rule:nonzero;"/>
    <path d="M201.646,104.941C198.046,104.941 196.726,109.213 196.726,112.717C196.726,116.509 198.022,120.469 201.646,120.469C205.246,120.469 206.518,116.197 206.518,112.693C206.518,108.997 205.246,104.941 201.646,104.941ZM201.622,105.733C203.782,105.733 204.382,109.285 204.382,112.693C204.382,116.053 203.806,119.653 201.646,119.653C199.558,119.653 198.862,116.029 198.862,112.669C198.862,109.333 199.438,105.733 201.622,105.733Z" style="fill:black;fill-rule:nonzero;"/>
    <path d="M108.52,2.06C104.92,2.06 103.6,6.332 103.6,9.836C103.6,13.628 104.896,17.588 108.52,17.588C112.12,17.588 113.392,13.316 113.392,9.812C113.392,6.116 112.12,2.06 108.52,2.06ZM108.496,2.852C110.656,2.852 111.256,6.404 111.256,9.812C111.256,13.172 110.68,16.772 108.52,16.772C106.432,16.772 105.736,13.148 105.736,9.788C105.736,6.452 106.312,2.852 108.496,2.852Z" style="fill:black;fill-rule:nonzero;"/>
    <path d="M20.937,292.736C17.337,292.736 16.017,297.008 16.017,300.512C16.017,304.304 17.313,308.264 20.937,308.264C24.537,308.264 25.809,303.992 25.809,300.488C25.809,296.792 24.537,292.736 20.937,292.736ZM20.913,293.528C23.073,293.528 23.673,297.08 23.673,300.488C23.673,303.848 23.097,307.448 20.937,307.448C18.849,307.448 18.153,303.824 18.153,300.464C18.153,297.128 18.729,293.528 20.913,293.528Z" style="fill:black;fill-rule:nonzero;"/>
    <path d="M201.646,292.736C198.046,292.736 196.726,297.008 196.726,300.512C196.726,304.304 198.022,308.264 201.646,308.264C205.246,308.264 206.518,303.992 206.518,300.488C206.518,296.792 205.246,292.736 201.646,292.736ZM201.622,293.528C203.782,293.528 204.382,297.08 204.382,300.488C204.382,303.848 203.806,307.448 201.646,307.448C199.558,307.448 198.862,303.824 198.862,300.464C198.862,297.128 199.438,293.528 201.622,293.528Z" style="fill:black;fill-rule:nonzero;"/>
    <path d="M63.369,59.945L63.369,59.297C61.185,59.129 61.041,58.937 61.041,57.209L61.041,44.705C59.721,45.233 58.305,45.689 56.769,45.953L56.769,46.505L57.921,46.553C58.977,46.601 59.073,46.721 59.073,47.969L59.073,57.209C59.073,58.937 58.953,59.129 56.769,59.297L56.769,59.945L63.369,59.945Z" style="fill:black;fill-rule:nonzero;"/>
    <path d="M162.582,59.945L162.582,59.297C160.398,59.129 160.254,58.937 160.254,57.209L160.254,44.705C158.934,45.233 157.518,45.689 155.982,45.953L155.982,46.505L157.134,46.553C158.19,46.601 158.286,46.721 158.286,47.969L158.286,57.209C158.286,58.937 158.166,59.129 155.982,59.297L155.982,59.945L162.582,59.945Z" style="fill:black;fill-rule:nonzero;"/>
    <path d="M111.483,120.181L111.483,119.533C109.299,119.365 109.155,119.173 109.155,117.445L109.155,104.941C107.835,105.469 106.419,105.925 104.883,106.189L104.883,106.741L106.035,106.789C107.091,106.837 107.187,106.957 107.187,108.205L107.187,117.445C107.187,119.173 107.067,119.365 104.883,119.533L104.883,120.181L111.483,120.181Z" style="fill:black;fill-rule:nonzero;"/>
    <path d="M21.408,212.307L21.408,211.659C19.224,211.491 19.08,211.299 19.08,209.571L19.08,197.067C17.76,197.595 16.344,198.051 14.808,198.315L14.808,198.867L15.96,198.915C17.016,198.963 17.112,199.083 17.112,200.331L17.112,209.571C17.112,211.299 16.992,211.491 14.808,211.659L14.808,212.307L21.408,212.307Z" style="fill:black;fill-rule:nonzero;"/>
    <path d="M115.585,219.394L115.585,218.746C113.401,218.578 113.257,218.386 113.257,216.658L113.257,204.154C111.937,204.682 110.521,205.138 108.985,205.402L108.985,205.954L110.137,206.002C111.193,206.05 111.289,206.17 111.289,207.418L111.289,216.658C111.289,218.386 111.169,218.578 108.985,218.746L108.985,219.394L115.585,219.394Z" style="fill:black;fill-rule:nonzero;"/>
    <path d="M213.305,222.937L213.305,222.289C211.121,222.121 210.977,221.929 210.977,220.201L210.977,207.697C209.657,208.225 208.241,208.681 206.705,208.945L206.705,209.497L207.857,209.545C208.913,209.593 209.009,209.713 209.009,210.961L209.009,220.201C209.009,221.929 208.889,222.121 206.705,222.289L206.705,222.937L213.305,222.937Z" style="fill:black;fill-rule:nonzero;"/>
    <path d="M122.671,318.606L122.671,317.958C120.487,317.79 120.343,317.598 120.343,315.87L120.343,303.366C119.023,303.894 117.607,304.35 116.071,304.614L116.071,305.166L117.223,305.214C118.279,305.262 118.375,305.382 118.375,306.63L118.375,315.87C118.375,317.598 118.255,317.79 116.071,317.958L116.071,318.606L122.671,318.606Z" style="fill:black;fill-rule:nonzero;"/>
    <path d="M112.492,75.457C111.772,76.969 111.46,77.065 110.164,77.065L105.676,77.065L109.084,73.489C111.292,71.137 112.252,69.721 112.252,67.633C112.252,65.113 110.332,63.577 108.22,63.577C106.828,63.577 105.7,64.201 104.98,64.993L103.612,66.937L104.14,67.417C104.764,66.481 105.772,65.185 107.404,65.185C109.18,65.185 110.236,66.361 110.236,68.377C110.236,70.441 108.724,72.409 107.236,74.185C106.036,75.577 104.692,76.945 103.348,78.265L103.348,78.817L112.324,78.817C112.612,77.737 112.852,76.681 113.164,75.673L112.492,75.457Z" style="fill:black;fill-rule:nonzero;"/>
    <path d="M80.343,174.332C79.623,175.844 79.311,175.94 78.015,175.94L73.527,175.94L76.935,172.364C79.143,170.012 80.103,168.596 80.103,166.508C80.103,163.988 78.183,162.452 76.071,162.452C74.679,162.452 73.551,163.076 72.831,163.868L71.463,165.812L71.991,166.292C72.615,165.356 73.623,164.06 75.255,164.06C77.031,164.06 78.087,165.236 78.087,167.252C78.087,169.316 76.575,171.284 75.087,173.06C73.887,174.452 72.543,175.82 71.199,177.14L71.199,177.692L80.175,177.692C80.463,176.612 80.703,175.556 81.015,174.548L80.343,174.332Z" style="fill:black;fill-rule:nonzero;"/>
    <path d="M154.493,253.571C153.773,255.083 153.461,255.179 152.165,255.179L147.677,255.179L151.085,251.603C153.293,249.251 154.253,247.835 154.253,245.747C154.253,243.227 152.333,241.691 150.221,241.691C148.829,241.691 147.701,242.315 146.981,243.107L145.613,245.051L146.141,245.531C146.765,244.595 147.773,243.299 149.405,243.299C151.181,243.299 152.237,244.475 152.237,246.491C152.237,248.555 150.725,250.523 149.237,252.299C148.037,253.691 146.693,255.059 145.349,256.379L145.349,256.931L154.325,256.931C154.613,255.851 154.853,254.795 155.165,253.787L154.493,253.571Z" style="fill:black;fill-rule:nonzero;"/>
</svg>
