<?xml version="1.0" standalone="no"?>
<!DOCTYPE svg PUBLIC "-//W3C//DTD SVG 1.1//EN" "http://www.w3.org/Graphics/SVG/1.1/DTD/svg11.dtd">
<svg width="100%" height="100%" viewBox="0 0 226 310" version="1.1" xmlns="http://www.w3.org/2000/svg" xmlns:xlink="http://www.w3.org/1999/xlink" xml:space="preserve" style="fill-rule:evenodd;clip-rule:evenodd;stroke-linecap:round;stroke-linejoin:round;stroke-miterlimit:10;">
    <rect x="-34" y="-206" width="1677" height="1566" style="fill:white;fill-rule:nonzero;"/>
    <path d="M193.72,65.886C197.18,69.345 197.18,74.954 193.72,78.413C190.261,81.873 184.652,81.873 181.193,78.413C177.734,74.954 177.734,69.345 181.193,65.886C184.652,62.426 190.261,62.426 193.72,65.886" style="fill:none;stroke-width:4px;stroke:rgb(79,143,0);"/>
    <path d="M193.72,65.886C197.18,69.345 197.18,74.954 193.72,78.413C190.261,81.873 184.652,81.873 181.193,78.413C177.734,74.954 177.734,69.345 181.193,65.886C184.652,62.426 190.261,62.426 193.72,65.886" style="fill:none;stroke-width:2px;stroke:white;"/>
    <path d="M133.484,5.65C136.944,9.109 136.944,14.718 133.484,18.177C130.025,21.637 124.416,21.637 120.957,18.177C117.497,14.718 117.497,9.109 120.957,5.65C124.416,2.19 130.025,2.19 133.484,5.65" style="fill:none;stroke-width:4px;stroke:rgb(79,143,0);"/>
    <path d="M133.484,5.65C136.944,9.109 136.944,14.718 133.484,18.177C130.025,21.637 124.416,21.637 120.957,18.177C117.497,14.718 117.497,9.109 120.957,5.65C124.416,2.19 130.025,2.19 133.484,5.65" style="fill:none;stroke-width:2px;stroke:white;"/>
    <path d="M94.508,5.65C97.967,9.109 97.967,14.718 94.508,18.177C91.049,21.637 85.44,21.637 81.98,18.177C78.521,14.718 78.521,9.109 81.98,5.65C85.44,2.19 91.049,2.19 94.508,5.65" style="fill:none;stroke-width:4px;stroke:rgb(79,143,0);"/>
    <path d="M94.508,5.65C97.967,9.109 97.967,14.718 94.508,18.177C91.049,21.637 85.44,21.637 81.98,18.177C78.521,14.718 78.521,9.109 81.98,5.65C85.44,2.19 91.049,2.19 94.508,5.65" style="fill:none;stroke-width:2px;stroke:white;"/>
    <path d="M37.815,62.343C41.274,65.802 41.274,71.411 37.815,74.87C34.356,78.329 28.747,78.329 25.287,74.87C21.828,71.411 21.828,65.802 25.287,62.343C28.747,58.883 34.356,58.883 37.815,62.343" style="fill:none;stroke-width:4px;stroke:rgb(79,143,0);"/>
    <path d="M37.815,62.343C41.274,65.802 41.274,71.411 37.815,74.87C34.356,78.329 28.747,78.329 25.287,74.87C21.828,71.411 21.828,65.802 25.287,62.343C28.747,58.883 34.356,58.883 37.815,62.343" style="fill:none;stroke-width:2px;stroke:white;"/>
    <path d="M220.295,131.437C223.755,134.896 223.755,140.505 220.295,143.965C216.836,147.424 211.227,147.424 207.768,143.965C204.308,140.505 204.308,134.896 207.768,131.437C211.227,127.978 216.836,127.978 220.295,131.437" style="fill:none;stroke-width:4px;stroke:rgb(79,143,0);"/>
    <path d="M220.295,131.437C223.755,134.896 223.755,140.505 220.295,143.965C216.836,147.424 211.227,147.424 207.768,143.965C204.308,140.505 204.308,134.896 207.768,131.437C211.227,127.978 216.836,127.978 220.295,131.437" style="fill:none;stroke-width:2px;stroke:white;"/>
    <path d="M220.295,258.996C223.755,262.455 223.755,268.064 220.295,271.523C216.836,274.983 211.227,274.983 207.768,271.523C204.308,268.064 204.308,262.455 207.768,258.996C211.227,255.537 216.836,255.537 220.295,258.996" style="fill:none;stroke-width:4px;stroke:rgb(79,143,0);"/>
    <path d="M220.295,258.996C223.755,262.455 223.755,268.064 220.295,271.523C216.836,274.983 211.227,274.983 207.768,271.523C204.308,268.064 204.308,262.455 207.768,258.996C211.227,255.537 216.836,255.537 220.295,258.996" style="fill:none;stroke-width:2px;stroke:white;"/>
    <path d="M188.406,290.886C191.865,294.345 191.865,299.954 188.406,303.413C184.946,306.873 179.337,306.873 175.878,303.413C172.419,299.954 172.419,294.345 175.878,290.886C179.337,287.426 184.946,287.426 188.406,290.886" style="fill:none;stroke-width:4px;stroke:rgb(79,143,0);"/>
    <path d="M188.406,290.886C191.865,294.345 191.865,299.954 188.406,303.413C184.946,306.873 179.337,306.873 175.878,303.413C172.419,299.954 172.419,294.345 175.878,290.886C179.337,287.426 184.946,287.426 188.406,290.886" style="fill:none;stroke-width:2px;stroke:white;"/>
    <path d="M60.846,290.886C64.306,294.345 64.306,299.954 60.846,303.413C57.387,306.873 51.778,306.873 48.319,303.413C44.86,299.954 44.86,294.345 48.319,290.886C51.778,287.426 57.387,287.426 60.846,290.886" style="fill:none;stroke-width:4px;stroke:rgb(79,143,0);"/>
    <path d="M60.846,290.886C64.306,294.345 64.306,299.954 60.846,303.413C57.387,306.873 51.778,306.873 48.319,303.413C44.86,299.954 44.86,294.345 48.319,290.886C51.778,287.426 57.387,287.426 60.846,290.886" style="fill:none;stroke-width:2px;stroke:white;"/>
    <path d="M18.327,248.366C21.786,251.826 21.786,257.434 18.327,260.894C14.867,264.353 9.259,264.353 5.799,260.894C2.34,257.434 2.34,251.826 5.799,248.366C9.259,244.907 14.867,244.907 18.327,248.366" style="fill:none;stroke-width:4px;stroke:rgb(79,143,0);"/>
    <path d="M18.327,248.366C21.786,251.826 21.786,257.434 18.327,260.894C14.867,264.353 9.259,264.353 5.799,260.894C2.34,257.434 2.34,251.826 5.799,248.366C9.259,244.907 14.867,244.907 18.327,248.366" style="fill:none;stroke-width:2px;stroke:white;"/>
    <path d="M18.327,120.807C21.786,124.266 21.786,129.875 18.327,133.335C14.867,136.794 9.259,136.794 5.799,133.335C2.34,129.875 2.34,124.266 5.799,120.807C9.259,117.348 14.867,117.348 18.327,120.807" style="fill:none;stroke-width:4px;stroke:rgb(79,143,0);"/>
    <path d="M18.327,120.807C21.786,124.266 21.786,129.875 18.327,133.335C14.867,136.794 9.259,136.794 5.799,133.335C2.34,129.875 2.34,124.266 5.799,120.807C9.259,117.348 14.867,117.348 18.327,120.807" style="fill:none;stroke-width:2px;stroke:white;"/>
    <path d="M43.953,95.681L43.953,101.768" style="fill:none;stroke-width:4px;stroke:rgb(79,143,0);"/>
    <path d="M43.953,95.681L43.953,101.768" style="fill:none;stroke-width:2px;stroke:white;"/>
    <path d="M171.512,95.681L171.512,101.768" style="fill:none;stroke-width:4px;stroke:rgb(79,143,0);"/>
    <path d="M171.512,95.681L171.512,101.768" style="fill:none;stroke-width:2px;stroke:white;"/>
    <path d="M181.458,122.843L186.369,127.755" style="fill:none;stroke-width:4px;stroke:rgb(79,143,0);"/>
    <path d="M181.458,122.843L186.369,127.755" style="fill:none;stroke-width:2px;stroke:white;"/>
    <path d="M39.725,264.576L44.637,269.488" style="fill:none;stroke-width:4px;stroke:rgb(79,143,0);"/>
    <path d="M39.725,264.576L44.637,269.488" style="fill:none;stroke-width:2px;stroke:white;"/>
    <path d="M33.323,286.52L203.401,286.52L203.402,116.441L33.323,286.52Z" style="fill:rgb(255,251,0);fill-opacity:0.501961;fill-rule:nonzero;"/>
    <path d="M192.771,105.811L22.693,105.811L22.693,275.89L192.771,105.811Z" style="fill:rgb(142,250,0);fill-opacity:0.501961;fill-rule:nonzero;"/>
    <path d="M107.534,6.599L22.494,91.638L192.573,91.638L107.534,6.599Z" style="fill:rgb(255,147,0);fill-opacity:0.501961;fill-rule:nonzero;"/>
    <path d="M174.017,94.143C172.634,95.527 170.39,95.527 169.006,94.143C167.623,92.76 167.623,90.516 169.006,89.132C170.39,87.749 172.634,87.749 174.017,89.132C175.401,90.516 175.401,92.76 174.017,94.143" style="fill:black;fill-rule:nonzero;stroke-width:1px;stroke:black;"/>
    <path d="M174.017,108.317C172.634,109.7 170.39,109.7 169.006,108.317C167.623,106.933 167.623,104.689 169.006,103.306C170.39,101.922 172.634,101.922 174.017,103.306C175.401,104.689 175.401,106.933 174.017,108.317" style="fill:black;fill-rule:nonzero;stroke-width:1px;stroke:black;"/>
    <path d="M181.104,79.97C179.72,81.354 177.477,81.354 176.093,79.97C174.709,78.586 174.709,76.343 176.093,74.959C177.477,73.575 179.72,73.575 181.104,74.959C182.488,76.343 182.488,78.586 181.104,79.97" style="fill:black;fill-rule:nonzero;stroke-width:1px;stroke:black;"/>
    <path d="M181.104,122.49C179.72,123.874 177.477,123.874 176.093,122.49C174.709,121.106 174.709,118.863 176.093,117.479C177.477,116.095 179.72,116.095 181.104,117.479C182.488,118.863 182.488,121.106 181.104,122.49" style="fill:black;fill-rule:nonzero;stroke-width:1px;stroke:black;"/>
    <path d="M191.734,133.12C190.35,134.503 188.107,134.503 186.723,133.12C185.339,131.736 185.339,129.492 186.723,128.109C188.107,126.725 190.35,126.725 191.734,128.109C193.118,129.492 193.118,131.736 191.734,133.12" style="fill:black;fill-rule:nonzero;stroke-width:1px;stroke:black;"/>
    <path d="M205.907,140.206C204.523,141.59 202.28,141.59 200.896,140.206C199.512,138.823 199.512,136.579 200.896,135.195C202.28,133.812 204.523,133.812 205.907,135.195C207.291,136.579 207.291,138.823 205.907,140.206" style="fill:black;fill-rule:nonzero;stroke-width:1px;stroke:black;"/>
    <path d="M120.868,19.734C119.484,21.118 117.241,21.118 115.857,19.734C114.473,18.35 114.473,16.107 115.857,14.723C117.241,13.339 119.484,13.339 120.868,14.723C122.252,16.107 122.252,18.35 120.868,19.734" style="fill:black;fill-rule:nonzero;stroke-width:1px;stroke:black;"/>
    <path d="M99.608,19.734C98.224,21.118 95.981,21.118 94.597,19.734C93.213,18.35 93.213,16.107 94.597,14.723C95.981,13.339 98.224,13.339 99.608,14.723C100.992,16.107 100.992,18.35 99.608,19.734" style="fill:black;fill-rule:nonzero;stroke-width:1px;stroke:black;"/>
    <path d="M39.372,79.97C37.988,81.354 35.745,81.354 34.361,79.97C32.977,78.586 32.977,76.343 34.361,74.959C35.745,73.575 37.988,73.575 39.372,74.959C40.756,76.343 40.756,78.586 39.372,79.97" style="fill:black;fill-rule:nonzero;stroke-width:1px;stroke:black;"/>
    <path d="M46.458,94.143C45.075,95.527 42.831,95.527 41.448,94.143C40.064,92.76 40.064,90.516 41.448,89.132C42.831,87.749 45.075,87.749 46.458,89.132C47.842,90.516 47.842,92.76 46.458,94.143" style="fill:black;fill-rule:nonzero;stroke-width:1px;stroke:black;"/>
    <path d="M46.458,108.317C45.075,109.7 42.831,109.7 41.448,108.317C40.064,106.933 40.064,104.689 41.448,103.306C42.831,101.922 45.075,101.922 46.458,103.306C47.842,104.689 47.842,106.933 46.458,108.317" style="fill:black;fill-rule:nonzero;stroke-width:1px;stroke:black;"/>
    <path d="M25.198,129.576C23.815,130.96 21.571,130.96 20.187,129.576C18.804,128.193 18.804,125.949 20.187,124.565C21.571,123.182 23.815,123.182 25.198,124.565C26.582,125.949 26.582,128.193 25.198,129.576" style="fill:black;fill-rule:nonzero;stroke-width:1px;stroke:black;"/>
    <path d="M25.199,257.135C23.815,258.519 21.571,258.519 20.188,257.135C18.804,255.752 18.804,253.508 20.188,252.124C21.571,250.741 23.815,250.741 25.199,252.124C26.582,253.508 26.582,255.752 25.199,257.135" style="fill:black;fill-rule:nonzero;stroke-width:1px;stroke:black;"/>
    <path d="M39.372,264.222C37.988,265.606 35.745,265.606 34.361,264.222C32.977,262.838 32.977,260.595 34.361,259.211C35.745,257.827 37.988,257.827 39.372,259.211C40.756,260.595 40.756,262.838 39.372,264.222" style="fill:black;fill-rule:nonzero;stroke-width:1px;stroke:black;"/>
    <path d="M50.002,274.853C48.618,276.236 46.375,276.236 44.991,274.853C43.607,273.469 43.607,271.225 44.991,269.842C46.375,268.458 48.618,268.458 50.002,269.842C51.386,271.225 51.386,273.469 50.002,274.853" style="fill:black;fill-rule:nonzero;stroke-width:1px;stroke:black;"/>
    <path d="M57.088,289.026C55.705,290.41 53.461,290.41 52.077,289.026C50.694,287.643 50.694,285.399 52.077,284.015C53.461,282.632 55.705,282.632 57.088,284.015C58.472,285.399 58.472,287.643 57.088,289.026" style="fill:black;fill-rule:nonzero;stroke-width:1px;stroke:black;"/>
    <path d="M184.647,289.026C183.264,290.41 181.02,290.41 179.636,289.026C178.253,287.643 178.253,285.399 179.636,284.015C181.02,282.632 183.264,282.632 184.647,284.015C186.031,285.399 186.031,287.643 184.647,289.026" style="fill:black;fill-rule:nonzero;stroke-width:1px;stroke:black;"/>
    <path d="M205.907,267.766C204.523,269.15 202.28,269.15 200.896,267.766C199.513,266.383 199.513,264.139 200.896,262.755C202.28,261.372 204.523,261.372 205.907,262.755C207.291,264.139 207.291,266.383 205.907,267.766" style="fill:black;fill-rule:nonzero;stroke-width:1px;stroke:black;"/>
    <path d="M121.221,20.087L143.165,42.031" style="fill:none;stroke-width:2px;stroke:black;"/>
    <path d="M175.739,74.606L153.795,52.661" style="fill:none;stroke-width:2px;stroke:black;"/>
    <path d="M94.205,20.048L71.615,42.031" style="fill:none;stroke-width:2px;stroke:black;"/>
    <path d="M39.725,74.606L61.669,52.661" style="fill:none;stroke-width:2px;stroke:black;"/>
    <path d="M47.996,91.638L97.787,91.638" style="fill:none;stroke-width:2px;stroke:black;"/>
    <path d="M167.469,91.638L119.046,91.638" style="fill:none;stroke-width:2px;stroke:black;"/>
    <path d="M39.721,258.853L100.346,198.029" style="fill:none;stroke-width:2px;stroke:black;"/>
    <path d="M175.735,122.839L115.379,182.996" style="fill:none;stroke-width:2px;stroke:black;"/>
    <path d="M22.693,131.114L22.693,180.22" style="fill:none;stroke-width:2px;stroke:black;"/>
    <path d="M22.693,250.587L22.693,201.48" style="fill:none;stroke-width:2px;stroke:black;"/>
    <path d="M203.402,141.744L203.402,191.535" style="fill:none;stroke-width:2px;stroke:black;"/>
    <path d="M203.402,261.216L203.402,212.794" style="fill:none;stroke-width:2px;stroke:black;"/>
    <path d="M58.626,286.52L108.417,286.52" style="fill:none;stroke-width:2px;stroke:black;"/>
    <path d="M178.098,286.52L129.676,286.52" style="fill:none;stroke-width:2px;stroke:black;"/>
    <path d="M47.643,105.957L97.433,105.957" style="fill:none;stroke-width:2px;stroke:black;"/>
    <path d="M167.115,105.957L118.693,105.957" style="fill:none;stroke-width:2px;stroke:black;"/>
    <path d="M50.351,269.483L110.976,208.659" style="fill:none;stroke-width:2px;stroke:black;"/>
    <path d="M186.365,133.468L126.009,193.626" style="fill:none;stroke-width:2px;stroke:black;"/>
    <path d="M143.165,42.031L153.795,52.661" style="fill:none;stroke-width:2px;stroke-dasharray:2,6;stroke:rgb(255,38,0);"/>
    <path d="M71.615,42.031L61.669,52.661" style="fill:none;stroke-width:2px;stroke-dasharray:2,6;stroke:rgb(255,38,0);"/>
    <path d="M97.787,91.638L118.362,91.638" style="fill:none;stroke-width:2px;stroke-dasharray:2,6;stroke:rgb(255,38,0);"/>
    <path d="M97.433,105.957L118.693,105.957" style="fill:none;stroke-width:2px;stroke-dasharray:2,6;stroke:rgb(255,38,0);"/>
    <path d="M22.693,180.22L22.693,201.48" style="fill:none;stroke-width:2px;stroke-dasharray:2,6;stroke:rgb(255,38,0);"/>
    <path d="M100.346,198.029L115.379,182.996" style="fill:none;stroke-width:2px;stroke-dasharray:2,6;stroke:rgb(255,38,0);"/>
    <path d="M126.009,193.626L110.976,208.659" style="fill:none;stroke-width:2px;stroke-dasharray:2,6;stroke:rgb(255,38,0);"/>
    <path d="M108.417,286.52L128.992,286.52" style="fill:none;stroke-width:2px;stroke-dasharray:2,6;stroke:rgb(255,38,0);"/>
    <path d="M203.402,191.535L203.402,212.11" style="fill:none;stroke-width:2px;stroke-dasharray:2,6;stroke:rgb(255,38,0);"/>
    <path d="M173.321,88.02L176.79,81.082" style="fill:none;stroke-width:2px;stroke:rgb(4,51,255);"/>
    <path d="M101.146,17.228L114.319,17.228" style="fill:none;stroke-width:2px;stroke:rgb(4,51,255);"/>
    <path d="M38.675,81.082L42.144,88.02" style="fill:none;stroke-width:2px;stroke:rgb(4,51,255);"/>
    <path d="M25.552,124.212L41.094,108.67" style="fill:none;stroke-width:2px;stroke:rgb(4,51,255);"/>
    <path d="M173.321,109.428L176.79,116.367" style="fill:none;stroke-width:2px;stroke:rgb(4,51,255);"/>
    <path d="M192.846,132.423L199.784,135.892" style="fill:none;stroke-width:2px;stroke:rgb(4,51,255);"/>
    <path d="M185.001,283.662L200.543,268.12" style="fill:none;stroke-width:2px;stroke:rgb(4,51,255);"/>
    <path d="M52.774,282.903L49.305,275.964" style="fill:none;stroke-width:2px;stroke:rgb(4,51,255);"/>
    <path d="M33.249,259.908L26.31,256.439" style="fill:none;stroke-width:2px;stroke:rgb(4,51,255);"/>
    <g>
        <clipPath id="_clip1">
            <rect x="193.272" y="1.228" width="22" height="17"/>
        </clipPath>
        <g clip-path="url(#_clip1)">
            <g>
                <g>
                    <path d="M202.204,12.775C203.304,12.775 204.906,11.101 205.672,10.383L205.672,10.073L205.361,10.073C204.906,10.503 204.333,11.077 203.687,11.077C202.611,11.077 202.778,7.992 202.778,7.227C203.974,5.745 205.074,4.19 205.982,2.517C205.815,2.158 205.648,1.775 205.456,1.417L205.193,1.417C204.859,3.043 203.544,4.86 202.683,6.247C202.731,4.358 203.28,1.106 200.579,1.082C196.561,1.082 193.286,6.582 193.214,10.168C193.19,11.603 193.668,12.775 195.294,12.775C197.494,12.775 199.742,10.862 201.176,9.26C201.176,10.097 200.961,12.751 202.204,12.775ZM199.431,1.943C201.511,1.943 201.2,7.036 201.176,8.471C200.148,9.69 198.211,11.722 196.514,11.722C195.246,11.722 194.983,10.718 195.007,9.642C195.031,7.562 196.824,1.943 199.431,1.943Z" style="fill:rgb(255,38,0);fill-rule:nonzero;"/>
                    <path d="M211.434,5.405C208.728,5.405 207.349,7.552 207.349,11.777C207.349,13.819 207.716,15.582 208.327,16.437C208.938,17.292 209.915,17.781 210.998,17.781C213.633,17.781 214.96,15.512 214.96,11.043C214.96,7.221 213.825,5.405 211.434,5.405ZM211.12,6.156C212.813,6.156 213.494,7.727 213.494,11.916C213.494,15.634 212.83,17.031 211.225,17.031C209.531,17.031 208.816,15.407 208.816,11.148C208.816,7.465 209.462,6.156 211.12,6.156Z" style="fill:rgb(255,38,0);fill-rule:nonzero;"/>
                </g>
            </g>
        </g>
    </g>
    <g>
        <g>
            <path d="M202.204,31.075C203.304,31.075 204.906,29.401 205.672,28.683L205.672,28.373L205.361,28.373C204.906,28.803 204.333,29.377 203.687,29.377C202.611,29.377 202.778,26.292 202.778,25.527C203.974,24.045 205.074,22.49 205.982,20.817C205.815,20.458 205.648,20.075 205.456,19.717L205.193,19.717C204.859,21.343 203.544,23.16 202.683,24.547C202.731,22.658 203.28,19.406 200.579,19.382C196.561,19.382 193.286,24.882 193.214,28.468C193.19,29.903 193.668,31.075 195.294,31.075C197.494,31.075 199.742,29.162 201.176,27.56C201.176,28.397 200.961,31.051 202.204,31.075ZM199.431,20.243C201.511,20.243 201.2,25.336 201.176,26.771C200.148,27.99 198.211,30.022 196.514,30.022C195.246,30.022 194.983,29.018 195.007,27.942C195.031,25.862 196.824,20.243 199.431,20.243Z" style="fill:rgb(4,51,255);fill-rule:nonzero;"/>
            <path d="M214.14,35.784L214.14,35.156L213.232,35.104C212.272,35.051 212.097,34.859 212.097,33.952L212.097,23.705L211.853,23.618C210.718,24.212 209.479,24.735 207.891,25.294L208.013,26.149L208.187,26.149L210.491,25.119C210.596,25.119 210.631,25.276 210.631,25.695L210.631,33.952C210.631,34.859 210.439,35.051 209.496,35.104L208.519,35.156L208.519,35.784C211.207,35.732 211.207,35.732 211.399,35.732C211.94,35.732 213.86,35.784 214.14,35.784Z" style="fill:rgb(4,51,255);fill-rule:nonzero;"/>
        </g>
    </g>
    <g>
        <clipPath id="_clip2">
            <rect x="192.772" y="36.661" width="23" height="17"/>
        </clipPath>
        <g clip-path="url(#_clip2)">
            <g>
                <g>
                    <path d="M202.204,49.075C203.304,49.075 204.906,47.401 205.672,46.683L205.672,46.373L205.361,46.373C204.906,46.803 204.333,47.377 203.687,47.377C202.611,47.377 202.778,44.292 202.778,43.527C203.974,42.045 205.074,40.49 205.982,38.817C205.815,38.458 205.648,38.075 205.456,37.717L205.193,37.717C204.859,39.343 203.544,41.16 202.683,42.547C202.731,40.658 203.28,37.406 200.579,37.382C196.561,37.382 193.286,42.882 193.214,46.468C193.19,47.903 193.668,49.075 195.294,49.075C197.494,49.075 199.742,47.162 201.176,45.56C201.176,46.397 200.961,49.051 202.204,49.075ZM199.431,38.243C201.511,38.243 201.2,43.336 201.176,44.771C200.148,45.99 198.211,48.022 196.514,48.022C195.246,48.022 194.983,47.018 195.007,45.942C195.031,43.862 196.824,38.243 199.431,38.243Z" style="fill:rgb(79,143,0);fill-rule:nonzero;"/>
                    <path d="M207.123,52.685L207.123,53.784C210.387,53.784 210.387,53.732 211.015,53.732C211.643,53.732 211.643,53.784 215.012,53.784C215.012,53.418 214.977,53.243 214.977,52.999C214.977,52.772 215.012,52.597 215.012,52.213C213.005,52.301 212.202,52.318 208.973,52.388L212.15,49.019C213.843,47.221 214.366,46.261 214.366,44.952C214.366,42.945 213.005,41.705 210.788,41.705C209.531,41.705 208.676,42.054 207.821,42.927L207.524,45.301L208.292,45.301L208.519,44.498C208.798,43.486 209.165,43.049 210.334,43.049C211.835,43.049 212.795,43.992 212.795,45.476C212.795,46.785 211.521,47.989 209.549,50.084L207.123,52.685Z" style="fill:rgb(79,143,0);fill-rule:nonzero;"/>
                </g>
            </g>
        </g>
    </g>
    <path d="M167.969,8.098L188.544,8.099" style="fill:none;stroke-width:2px;stroke-dasharray:2,6;stroke:rgb(255,38,0);"/>
    <g id="Trimado">
        <path d="M167.969,26.315L188.544,26.315" style="fill:none;stroke-width:2px;stroke:rgb(4,51,255);"/>
        <path d="M167.969,44.531L188.544,44.531" style="fill:none;stroke-width:4px;stroke:rgb(79,143,0);"/>
        <path d="M167.969,44.531L188.544,44.531" style="fill:none;stroke-width:2px;stroke:white;"/>
    </g>
</svg>
