<?xml version="1.0" standalone="no"?>
<!DOCTYPE svg PUBLIC "-//W3C//DTD SVG 1.1//EN" "http://www.w3.org/Graphics/SVG/1.1/DTD/svg11.dtd">
<svg width="100%" height="100%" viewBox="0 0 1115 379" version="1.1" xmlns="http://www.w3.org/2000/svg" xmlns:xlink="http://www.w3.org/1999/xlink" xml:space="preserve" style="fill-rule:evenodd;clip-rule:evenodd;stroke-miterlimit:10;">
    <path d="M415.581,163.332L183.477,375.496L169.093,264.534L409.744,71.502L415.581,163.332Z" style="fill:rgb(168,168,168);fill-rule:nonzero;"/>
    <path d="M183.477,375.496L22.845,353.211L4.107,244.144L169.093,264.534L183.477,375.496Z" style="fill:white;fill-rule:nonzero;"/>
    <path d="M169.093,264.534L4.107,244.144L275.588,58.942L409.744,71.502L169.093,264.534Z" style="fill:rgb(206,206,206);fill-rule:nonzero;"/>
    <path d="M1036.24,370.373L857.51,348.313L863.083,239.666L1047.25,259.844L1036.24,370.373Z" style="fill:white;fill-rule:nonzero;"/>
    <path d="M863.083,239.666L903.424,155.551L1070.14,171.955L1047.25,259.844L863.083,239.666Z" style="fill:rgb(206,206,206);fill-rule:nonzero;"/>
    <path d="M1070.14,171.955L1059.6,274.076L1036.24,370.373L1047.25,259.844L1070.14,171.955Z" style="fill:rgb(168,168,168);fill-rule:nonzero;"/>
    <path d="M1102.07,98.994L1087.24,160.149L1097.05,68.624L1111.42,13.445L1102.07,98.994Z" style="fill:rgb(168,168,168);fill-rule:nonzero;"/>
    <path d="M1087.24,160.149L944.705,146.361L951.088,56.167L1097.05,68.624L1087.24,160.149Z" style="fill:white;fill-rule:nonzero;"/>
    <path d="M951.088,56.167L976.645,2.877L1111.42,13.445L1097.05,68.624L951.088,56.167Z" style="fill:rgb(206,206,206);fill-rule:nonzero;"/>
    <path d="M775.849,41.21L617.147,54.342L641.106,29.71L775.849,41.21Z" style="fill:rgb(112,113,136);fill-rule:nonzero;"/>
    <path d="M617.147,54.342L775.849,41.21L748.376,77.668L576.749,95.872L617.147,54.342Z" style="fill:rgb(112,113,136);fill-rule:nonzero;"/>
    <path d="M773.435,129.794L722.72,205.683L724.133,109.84L748.376,77.668L775.849,41.21L773.435,129.794Z" style="fill:rgb(90,91,109);fill-rule:nonzero;"/>
    <path d="M434.705,241.899L513.824,160.562L683.296,164.032L625.368,240.905L434.705,241.899Z" style="fill:rgb(112,113,136);fill-rule:nonzero;"/>
    <path d="M625.368,240.905L683.296,164.032L683.126,201.44L682.835,265.368L610.955,372.928L609.334,262.183L625.368,240.905Z" style="fill:rgb(90,91,109);fill-rule:nonzero;"/>
    <path d="M434.705,241.899L625.368,240.905L609.334,262.183L434.705,241.899Z" style="fill:rgb(112,113,136);fill-rule:nonzero;"/>
    <path d="M683.296,164.032L513.824,160.562L526.092,147.95L578.022,153.262L683.296,164.032Z" style="fill:rgb(112,113,136);fill-rule:nonzero;"/>
    <path d="M576.749,95.872L748.376,77.668L724.133,109.84L576.749,95.872Z" style="fill:rgb(112,113,136);fill-rule:nonzero;"/>
    <path d="M683.296,164.032L578.022,153.262L576.749,95.872L724.133,109.84L722.72,205.683L683.126,201.44L683.296,164.032Z" style="fill:rgb(150,151,180);fill-rule:nonzero;"/>
    <path d="M609.334,262.183L610.955,372.928L441.225,350.756L434.705,241.899L609.334,262.183Z" style="fill:rgb(150,151,180);fill-rule:nonzero;"/>
    <path d="M183.477,375.496L415.581,163.332" style="fill:none;stroke-width:1.5px;stroke:black;"/>
    <path d="M22.845,353.211L183.477,375.496" style="fill:none;stroke-width:1.5px;stroke:black;"/>
    <path d="M275.588,58.942L4.107,244.144" style="fill:none;stroke-width:1.5px;stroke:black;"/>
    <path d="M4.107,244.144L169.093,264.534" style="fill:none;stroke-width:0.75px;stroke:black;"/>
    <path d="M169.093,264.534L409.744,71.502" style="fill:none;stroke-width:0.75px;stroke:black;"/>
    <path d="M409.744,71.502L275.588,58.942" style="fill:none;stroke-width:1.5px;stroke:black;"/>
    <path d="M22.845,353.211L4.107,244.144" style="fill:none;stroke-width:1.5px;stroke:black;"/>
    <path d="M183.477,375.496L169.093,264.534" style="fill:none;stroke-width:0.75px;stroke:black;"/>
    <path d="M415.581,163.332L409.744,71.502" style="fill:none;stroke-width:1.5px;stroke:black;"/>
    <path d="M1036.24,370.373L1059.6,274.076" style="fill:none;stroke-width:1.5px;stroke:black;"/>
    <path d="M857.51,348.313L1036.24,370.373" style="fill:none;stroke-width:1.5px;stroke:black;"/>
    <path d="M903.424,155.551L863.083,239.666" style="fill:none;stroke-width:1.5px;stroke:black;"/>
    <path d="M863.083,239.666L1047.25,259.844" style="fill:none;stroke-width:0.75px;stroke:black;"/>
    <path d="M1047.25,259.844L1070.14,171.955" style="fill:none;stroke-width:0.75px;stroke:black;"/>
    <path d="M1070.14,171.955L903.424,155.551" style="fill:none;stroke-width:1.5px;stroke:black;"/>
    <path d="M857.51,348.313L863.083,239.666" style="fill:none;stroke-width:1.5px;stroke:black;"/>
    <path d="M1036.24,370.373L1047.25,259.844" style="fill:none;stroke-width:0.75px;stroke:black;"/>
    <path d="M1059.6,274.076L1070.14,171.955" style="fill:none;stroke-width:1.5px;stroke:black;"/>
    <path d="M1087.24,160.149L1102.07,98.994" style="fill:none;stroke-width:1.5px;stroke:black;"/>
    <path d="M944.705,146.361L1087.24,160.149" style="fill:none;stroke-width:1.5px;stroke:black;"/>
    <path d="M976.645,2.877L951.088,56.167" style="fill:none;stroke-width:1.5px;stroke:black;"/>
    <path d="M951.088,56.167L1097.05,68.624" style="fill:none;stroke-width:0.75px;stroke:black;"/>
    <path d="M1097.05,68.624L1111.42,13.445" style="fill:none;stroke-width:0.75px;stroke:black;"/>
    <path d="M1111.42,13.445L976.645,2.877" style="fill:none;stroke-width:1.5px;stroke:black;"/>
    <path d="M944.705,146.361L951.088,56.167" style="fill:none;stroke-width:1.5px;stroke:black;"/>
    <path d="M1087.24,160.149L1097.05,68.624" style="fill:none;stroke-width:0.75px;stroke:black;"/>
    <path d="M1102.07,98.994L1111.42,13.445" style="fill:none;stroke-width:1.5px;stroke:black;"/>
    <path d="M775.849,41.21L617.147,54.342" style="fill:none;stroke-width:0.75px;stroke:rgb(204,38,16);"/>
    <path d="M775.849,41.21L641.106,29.71" style="fill:none;stroke-width:1.5px;stroke:black;"/>
    <path d="M773.435,129.794L775.849,41.21" style="fill:none;stroke-width:1.5px;stroke:black;"/>
    <path d="M610.955,372.928L441.225,350.756" style="fill:none;stroke-width:1.5px;stroke:black;"/>
    <path d="M441.225,350.756L434.705,241.899" style="fill:none;stroke-width:1.5px;stroke:black;"/>
    <path d="M434.705,241.899L609.334,262.183" style="fill:none;stroke-width:0.75px;stroke:black;"/>
    <path d="M609.334,262.183L610.955,372.928" style="fill:none;stroke-width:0.75px;stroke:black;"/>
    <path d="M724.133,109.84L722.72,205.683" style="fill:none;stroke-width:0.75px;stroke:black;"/>
    <path d="M683.296,164.032L625.368,240.905" style="fill:none;stroke-width:0.75px;stroke:black;"/>
    <path d="M625.368,240.905L434.705,241.899" style="fill:none;stroke-width:0.75px;stroke:rgb(204,38,16);"/>
    <path d="M625.368,240.905L609.334,262.183" style="fill:none;stroke-width:0.75px;stroke:black;"/>
    <path d="M434.705,241.899L513.824,160.562" style="fill:none;stroke-width:1.5px;stroke:black;"/>
    <path d="M513.824,160.562L683.296,164.032" style="fill:none;stroke-width:0.75px;stroke:rgb(204,38,16);"/>
    <path d="M513.824,160.562L526.092,147.95" style="fill:none;stroke-width:1.5px;stroke:black;"/>
    <path d="M576.749,95.872L748.376,77.668" style="fill:none;stroke-width:0.75px;stroke:rgb(204,38,16);"/>
    <path d="M578.022,153.262L576.749,95.872" style="fill:none;stroke-width:1.5px;stroke:black;"/>
    <path d="M576.749,95.872L724.133,109.84" style="fill:none;stroke-width:0.75px;stroke:black;"/>
    <path d="M683.126,201.44L722.72,205.683" style="fill:none;stroke-width:1.5px;stroke:black;"/>
    <path d="M724.133,109.84L748.376,77.668" style="fill:none;stroke-width:0.75px;stroke:black;"/>
    <path d="M748.376,77.668L775.849,41.21" style="fill:none;stroke-width:0.75px;stroke:black;"/>
    <path d="M641.106,29.71L617.147,54.342" style="fill:none;stroke-width:1.5px;stroke:black;"/>
    <path d="M617.147,54.342L576.749,95.872" style="fill:none;stroke-width:1.5px;stroke:black;"/>
    <path d="M682.835,265.368L683.126,201.44" style="fill:none;stroke-width:1.5px;stroke:black;"/>
    <path d="M683.126,201.44L683.296,164.032" style="fill:none;stroke-width:1.5px;stroke:black;"/>
    <path d="M683.296,164.032L578.022,153.262" style="fill:none;stroke-width:1.5px;stroke:black;"/>
    <path d="M578.022,153.262L526.092,147.95" style="fill:none;stroke-width:1.5px;stroke:black;"/>
    <path d="M610.955,372.928L682.835,265.368" style="fill:none;stroke-width:1.5px;stroke:black;"/>
    <path d="M773.435,129.794L722.72,205.683" style="fill:none;stroke-width:1.5px;stroke:black;"/>
    <path d="M275.588,58.942L641.106,29.71" style="fill:none;stroke-width:1.5px;stroke:rgb(204,38,16);"/>
    <path d="M1111.42,13.445L775.849,41.21" style="fill:none;stroke-width:1.5px;stroke:rgb(204,38,16);"/>
    <path d="M947.029,113.525L773.435,129.794" style="fill:none;stroke-width:1.5px;stroke:rgb(204,38,16);"/>
    <path d="M1047.25,259.844L609.334,262.183" style="fill:none;stroke-width:1.5px;stroke:rgb(204,38,16);"/>
    <path d="M1036.24,370.373L610.955,372.928" style="fill:none;stroke-width:1.5px;stroke:rgb(204,38,16);"/>
    <path d="M948.75,89.203L774.109,105.034" style="fill:none;stroke-width:1.5px;stroke:rgb(204,38,16);"/>
    <path d="M863.083,239.666L625.368,240.905" style="fill:none;stroke-width:1.5px;stroke:rgb(204,38,16);"/>
    <path d="M857.51,348.313L626.498,349.669" style="fill:none;stroke-width:1.5px;stroke:rgb(204,38,16);"/>
    <path d="M304.07,156.266L513.824,160.562" style="fill:none;stroke-width:1.5px;stroke:rgb(204,38,16);"/>
    <path d="M313.299,256.827L435.768,259.657" style="fill:none;stroke-width:1.5px;stroke:rgb(204,38,16);"/>
    <path d="M1097.05,68.624L724.133,109.84" style="fill:none;stroke-width:1.5px;stroke:rgb(204,38,16);"/>
    <path d="M313.299,256.827L408.582,244.924" style="fill:none;stroke-width:1.5px;stroke:rgb(204,38,16);"/>
    <path d="M641.106,29.71L976.645,2.877" style="fill:none;stroke-width:1.5px;stroke:rgb(204,38,16);"/>
    <path d="M577.348,122.871L413.951,137.684" style="fill:none;stroke-width:1.5px;stroke:rgb(204,38,16);"/>
    <path d="M610.955,372.928L183.477,375.496" style="fill:none;stroke-width:1.5px;stroke:rgb(204,38,16);"/>
    <path d="M441.225,350.756L209.051,352.119" style="fill:none;stroke-width:1.5px;stroke:rgb(204,38,16);"/>
    <path d="M434.705,241.899L4.107,244.144" style="fill:none;stroke-width:1.5px;stroke:rgb(204,38,16);"/>
    <path d="M609.334,262.183L169.093,264.534" style="fill:none;stroke-width:1.5px;stroke:rgb(204,38,16);"/>
    <path d="M683.296,164.032L1070.14,171.955" style="fill:none;stroke-width:1.5px;stroke:rgb(204,38,16);"/>
    <path d="M682.835,265.368L861.553,269.498" style="fill:none;stroke-width:1.5px;stroke:rgb(204,38,16);"/>
    <path d="M724.133,109.84L401.943,145.449" style="fill:none;stroke-width:1.5px;stroke:rgb(204,38,16);"/>
    <path d="M722.72,205.683L889.364,184.866" style="fill:none;stroke-width:1.5px;stroke:rgb(204,38,16);"/>
    <path d="M1026.83,167.694L1087.24,160.149" style="fill:none;stroke-width:1.5px;stroke:rgb(204,38,16);"/>
    <path d="M156.042,140.495L576.749,95.872" style="fill:none;stroke-width:1.5px;stroke:rgb(204,38,16);"/>
    <path d="M356.993,216.887L472.52,203.024" style="fill:none;stroke-width:1.5px;stroke:rgb(204,38,16);"/>
    <path d="M903.424,155.551L526.092,147.95" style="fill:none;stroke-width:1.5px;stroke:rgb(204,38,16);"/>
    <path d="M401.943,145.449L304.07,156.266" style="fill:none;stroke-width:1.5px;stroke:rgb(204,38,16);"/>
    <path d="M401.943,145.449L156.042,140.495" style="fill:none;stroke-width:1.5px;stroke:rgb(204,38,16);"/>
    <path d="M862.284,255.243L682.899,251.163" style="fill:none;stroke-width:1.5px;stroke:rgb(204,38,16);"/>
    <path d="M408.582,244.924L434.968,241.628" style="fill:none;stroke-width:1.5px;stroke:rgb(204,38,16);"/>
    <path d="M683.084,210.634L722.72,205.683" style="fill:none;stroke-width:1.5px;stroke:rgb(204,38,16);"/>
    <path d="M408.582,244.924L328.318,243.099" style="fill:none;stroke-width:1.5px;stroke:rgb(204,38,16);"/>
    <path d="M526.092,147.95L401.943,145.449" style="fill:none;stroke-width:1.5px;stroke:rgb(204,38,16);"/>
    <path d="M434.922,245.524L408.582,244.924" style="fill:none;stroke-width:1.5px;stroke:rgb(204,38,16);"/>
    <path d="M577.908,148.119L551.729,150.572" style="fill:none;stroke-width:1.5px;stroke:rgb(204,38,16);"/>
    <path d="M520.713,153.479L415.581,163.332" style="fill:none;stroke-width:1.5px;stroke:rgb(204,38,16);"/>
    <path d="M746.466,170.15L944.705,146.361" style="fill:none;stroke-width:1.5px;stroke:rgb(204,38,16);"/>
    <path d="M748.376,77.668L951.088,56.167" style="fill:none;stroke-width:1.5px;stroke:rgb(204,38,16);"/>
    <path d="M617.147,54.342L409.744,71.502" style="fill:none;stroke-width:1.5px;stroke:rgb(204,38,16);"/>
    <path d="M156.042,140.495L304.07,156.266" style="fill:none;stroke-width:1.5px;stroke:black;"/>
    <path d="M313.299,256.827L304.07,156.266" style="fill:none;stroke-width:1.5px;stroke:black;"/>
</svg>
