<?xml version="1.0" standalone="no"?>
<!DOCTYPE svg PUBLIC "-//W3C//DTD SVG 1.1//EN" "http://www.w3.org/Graphics/SVG/1.1/DTD/svg11.dtd">
<svg width="100%" height="100%" viewBox="0 0 396 308" version="1.1" xmlns="http://www.w3.org/2000/svg" xmlns:xlink="http://www.w3.org/1999/xlink" xml:space="preserve" style="fill-rule:evenodd;clip-rule:evenodd;stroke-linecap:round;stroke-linejoin:round;stroke-miterlimit:10;">
    <rect x="-274" y="-266" width="896" height="678" style="fill:white;fill-rule:nonzero;"/>
    <path d="M86,174L264.1,174" style="fill:none;stroke-width:5px;stroke:rgb(148,17,0);"/>
    <g>
        <path d="M278.5,174L264.1,168.6L264.1,179.4L278.5,174Z" style="fill:rgb(148,17,0);fill-rule:nonzero;"/>
        <path d="M285.62,174L261.6,183.008L261.6,164.993L285.62,174ZM266.6,175.793L271.38,174L266.6,172.208L266.6,175.793Z" style="fill:rgb(148,17,0);"/>
    </g>
    <path d="M126,214L126,35.9" style="fill:none;stroke-width:5px;stroke:rgb(1,24,147);"/>
    <g>
        <path d="M126,21.5L120.6,35.9L131.4,35.9L126,21.5Z" style="fill:rgb(1,24,147);fill-rule:nonzero;"/>
        <path d="M135.008,38.4L116.992,38.4L126,14.38L135.008,38.4ZM124.208,33.4L127.792,33.4L126,28.62L124.208,33.4Z" style="fill:rgb(1,24,147);"/>
    </g>
    <path d="M166,134L21.486,278.514" style="fill:none;stroke-width:5px;stroke:rgb(0,143,0);"/>
    <g>
        <path d="M11.303,288.697L25.304,282.333L17.667,274.696L11.303,288.697Z" style="fill:rgb(0,143,0);fill-rule:nonzero;"/>
        <path d="M29.623,283.116L6.269,293.731L16.884,270.377L29.623,283.116ZM16.338,283.662L20.985,281.55L18.45,279.015L16.338,283.662Z" style="fill:rgb(0,143,0);"/>
    </g>
    <path d="M166,214L21.486,69.486" style="fill:none;stroke-width:5px;stroke:rgb(255,147,0);"/>
    <g>
        <path d="M11.303,59.303L17.667,73.304L25.304,65.667L11.303,59.303Z" style="fill:rgb(255,147,0);fill-rule:nonzero;"/>
        <path d="M29.623,64.884L16.884,77.623L6.269,54.269L29.623,64.884ZM18.45,68.985L20.985,66.45L16.338,64.338L18.45,68.985Z" style="fill:rgb(255,147,0);"/>
    </g>
    <path d="M46,214L346.412,63.794" style="fill:none;stroke-width:5px;stroke:rgb(255,47,146);"/>
    <g>
        <path d="M359.292,57.354L343.997,58.964L348.827,68.624L359.292,57.354Z" style="fill:rgb(255,47,146);fill-rule:nonzero;"/>
        <path d="M348.204,72.969L340.148,56.855L365.66,54.17L348.204,72.969ZM347.846,61.073L349.45,64.279L352.923,60.538L347.846,61.073Z" style="fill:rgb(255,47,146);"/>
    </g>
    <path d="M126.634,173.241C127.122,173.729 127.122,174.521 126.634,175.009C126.146,175.497 125.354,175.497 124.866,175.009C124.378,174.521 124.378,173.729 124.866,173.241C125.354,172.753 126.146,172.753 126.634,173.241" style="fill:none;stroke-width:2.5px;stroke:black;"/>
    <path d="M268.813,201.574C269.351,201.861 269.925,202.005 270.355,202.005C271.539,202.005 272.937,200.964 274.049,199.279L276.775,195.082L277.17,197.557C277.636,200.606 278.461,202.005 279.752,202.005C280.541,202.005 281.689,201.395 282.837,200.355L284.594,198.777L284.271,198.095C282.98,199.171 282.084,199.709 281.51,199.709C280.972,199.709 280.505,199.35 280.147,198.633C279.824,197.952 279.429,196.625 279.25,195.584L278.604,191.962L279.86,190.204C281.546,187.873 282.514,187.048 283.626,187.048C284.2,187.048 284.63,187.335 284.809,187.873L285.312,187.73L285.85,184.681C285.419,184.43 285.096,184.322 284.774,184.322C283.339,184.322 281.904,185.613 279.68,188.913L278.353,190.886L278.138,189.164C277.708,185.613 276.739,184.322 274.623,184.322C273.691,184.322 272.902,184.609 272.579,185.075L270.499,188.052L271.108,188.411C272.184,187.192 272.902,186.689 273.583,186.689C274.767,186.689 275.556,188.16 276.165,191.675L276.56,193.899L275.125,196.122C273.583,198.525 272.364,199.673 271.359,199.673C270.821,199.673 270.427,199.53 270.355,199.35L269.961,198.346L269.243,198.454C269.243,199.709 268.956,200.642 268.813,201.574Z" style="fill:rgb(146,19,11);fill-rule:nonzero;"/>
    <path d="M38.239,291.41C38.203,291.661 38.203,291.876 38.203,292.056C38.203,293.598 39.53,294.853 41.144,294.853C44.946,294.853 48.891,290.406 51.008,283.77L56.065,267.989L55.67,267.666C54.63,268.061 53.805,268.276 53.016,268.348L51.761,273.082C51.33,274.768 50.075,277.386 48.891,279.144C47.636,280.973 45.879,282.551 45.089,282.551C44.659,282.551 44.336,281.726 44.372,280.829L44.946,273.405C45.018,272.293 45.089,270.93 45.089,269.926C45.089,268.312 44.838,267.666 44.229,267.666C43.762,267.666 43.26,267.917 41.539,269.101L38.598,271.109L38.992,271.755L40.785,270.679C40.965,270.571 41.359,270.249 41.682,270.249C42.184,270.249 42.471,270.93 42.471,272.114C42.471,272.15 42.471,272.365 42.435,272.652L41.826,281.367L41.79,282.802C41.79,284.308 42.435,285.349 43.332,285.349C44.659,285.349 47.672,282.3 50.362,278.247L48.604,284.38C46.775,290.729 44.982,293.347 42.471,293.347C41.216,293.347 40.247,292.378 40.247,291.123C40.247,290.944 40.283,290.657 40.319,290.334L39.961,290.191L38.239,291.41Z" style="fill:rgb(18,141,21);fill-rule:nonzero;"/>
    <g>
        <path d="M148.039,34.005C148.47,34.005 148.792,33.933 149.832,33.646C150.227,31.422 150.514,30.203 150.908,28.517L150.119,28.517L149.33,30.669C149.115,31.315 148.685,31.566 147.932,31.566C147.501,31.566 146.927,31.494 146.174,31.315L145.528,31.171C144.345,30.92 143.125,30.741 142.444,30.741C141.296,30.741 140.328,30.956 139.037,31.494L151.195,17.793L151.411,16.645L151.088,16.322L150.263,17.147C149.904,17.506 149.546,17.649 149.043,17.649C147.824,17.649 145.959,17.362 144.237,16.896L143.592,16.717C142.587,16.466 141.87,16.322 141.368,16.322C140.758,16.322 140.041,16.43 139.18,16.681L138.032,21.057L138.785,21.057L139.861,18.976C140.471,18.833 140.794,18.797 141.26,18.797C142.731,18.797 143.879,19.335 145.78,19.335C147.071,19.335 147.932,19.12 149.115,18.51L136.454,32.857L136.777,33.825C137.817,33 138.785,32.677 140.041,32.677C142.3,32.677 145.564,34.005 148.039,34.005Z" style="fill:rgb(5,32,144);fill-rule:nonzero;"/>
        <path d="M5.373,34.166L3.365,44.316C3.329,44.603 2.899,45.966 2.899,47.042C2.899,47.939 3.293,48.477 3.975,48.477C5.23,48.477 6.485,47.759 9.283,45.5L10.395,44.603L10.036,43.958L8.422,45.069C7.382,45.787 6.665,46.145 6.27,46.145C5.947,46.145 5.768,45.859 5.768,45.428C5.768,44.496 6.27,41.59 7.31,36.39L7.776,34.166L11.614,34.166L12.009,32.373C10.646,32.516 9.426,32.588 8.063,32.588C8.637,29.216 9.032,27.459 9.677,25.522L9.283,24.984C8.565,25.414 7.597,25.845 6.485,26.275L5.589,32.373C4.01,33.126 3.078,33.52 2.432,33.7L2.361,34.166L5.373,34.166Z" style="fill:rgb(253,146,38);fill-rule:nonzero;"/>
        <path d="M14.017,34.238L14.268,34.955L15.416,34.202C16.743,33.377 16.851,33.305 17.102,33.305C17.46,33.305 17.747,33.664 17.747,34.13C17.747,34.381 17.604,35.206 17.46,35.708L15.093,44.316C14.806,45.428 14.627,46.397 14.627,47.078C14.627,47.939 15.022,48.477 15.703,48.477C16.636,48.477 17.927,47.724 21.442,45.105L21.083,44.46L20.15,45.069C19.11,45.751 18.285,46.145 17.963,46.145C17.712,46.145 17.496,45.787 17.496,45.428C17.496,45.069 17.568,44.747 17.747,43.993L20.509,33.09C20.653,32.48 20.724,32.086 20.724,31.799C20.724,31.189 20.402,30.866 19.828,30.866C19.039,30.866 17.712,31.619 15.022,33.52L14.017,34.238ZM20.975,22.617C19.935,22.617 18.895,23.8 18.895,25.02C18.895,25.917 19.433,26.49 20.294,26.49C21.406,26.49 22.267,25.45 22.267,24.087C22.267,23.227 21.729,22.617 20.975,22.617Z" style="fill:rgb(253,146,38);fill-rule:nonzero;"/>
        <path d="M34.497,44.173L33.636,44.783C31.735,46.145 30.014,46.863 28.723,46.863C27.037,46.863 25.997,45.536 25.997,43.384C25.997,42.487 26.104,41.519 26.284,40.479C26.893,40.335 30.803,39.259 31.7,38.864C34.748,37.537 36.147,35.888 36.147,33.664C36.147,31.978 34.928,30.866 33.134,30.866C30.695,30.364 26.75,32.982 25.423,35.636C24.347,37.43 23.271,41.698 23.271,44.101C23.271,46.899 24.849,48.549 27.431,48.549C29.476,48.549 31.484,47.544 34.784,44.854L34.497,44.173ZM26.786,38.326C27.396,35.852 28.113,34.309 29.153,33.377C29.799,32.803 30.911,32.373 31.771,32.373C32.811,32.373 33.493,33.09 33.493,34.238C33.493,35.816 32.238,37.502 30.373,38.398C29.368,38.9 28.077,39.295 26.463,39.654L26.786,38.326Z" style="fill:rgb(253,146,38);fill-rule:nonzero;"/>
        <path d="M62.832,44.46L61.899,45.069C60.859,45.751 60.07,46.145 59.712,46.145C59.46,46.145 59.245,45.823 59.245,45.428C59.245,45.069 59.317,44.747 59.496,43.993L62.186,33.341C62.33,32.731 62.437,32.157 62.437,31.87C62.437,31.261 62.079,30.866 61.505,30.866C60.465,30.866 59.102,31.512 56.914,33.054C54.654,34.668 53.399,35.923 51.642,38.398L52.718,33.484C52.861,32.767 52.969,32.229 52.969,31.978C52.969,31.297 52.61,30.866 52.036,30.866C50.96,30.866 49.31,31.655 47.338,33.162C45.759,34.381 45.042,35.134 42.711,38.291L43.894,33.52C44.038,32.946 44.109,32.408 44.109,31.978C44.109,31.297 43.787,30.866 43.285,30.866C42.531,30.866 41.168,31.619 38.514,33.52L37.51,34.238L37.761,34.955C39.088,34.13 40.343,33.305 40.595,33.305C40.989,33.305 41.24,33.664 41.24,34.202C41.24,36.031 39.77,42.953 38.299,48.082L38.407,48.477L40.846,47.939L41.635,44.28C42.495,40.299 43.464,38.183 45.437,36.031C46.943,34.381 48.557,33.305 49.561,33.305C49.812,33.305 49.956,33.592 49.956,34.058C49.956,35.314 49.167,39.403 47.696,45.679L47.122,48.082L47.302,48.477L49.776,47.939L50.53,44.101C51.104,41.196 52.323,38.506 53.901,36.748C55.874,34.56 57.667,33.305 58.815,33.305C59.102,33.305 59.281,33.628 59.281,34.202C59.281,35.063 59.174,35.565 58.384,38.685C56.95,44.388 56.376,45.141 56.376,47.042C56.376,47.939 56.77,48.477 57.452,48.477C58.384,48.477 59.676,47.724 63.191,45.105L62.832,44.46Z" style="fill:rgb(253,146,38);fill-rule:nonzero;"/>
        <path d="M70.83,48.549C72.839,48.549 76.963,45.93 78.506,43.671C79.976,41.483 81.196,37.537 81.196,34.847C81.196,32.444 80.371,30.866 79.08,30.866C77.573,30.866 75.672,31.799 73.807,33.484C72.337,34.74 71.619,35.672 70.328,37.788L71.189,33.52C71.297,32.911 71.368,32.373 71.368,31.942C71.368,31.261 71.081,30.866 70.579,30.866C69.826,30.866 68.463,31.619 65.809,33.52L64.805,34.238L65.056,34.955L66.203,34.202C67.208,33.556 67.602,33.377 67.925,33.377C68.284,33.377 68.535,33.7 68.535,34.202C68.535,34.489 68.463,35.206 68.391,35.565L66.311,47.867C65.952,50.019 65.271,53.283 64.554,56.511L64.267,57.838L64.518,58.053C65.271,57.802 65.988,57.623 67.136,57.444L68.642,48.046C69.396,48.297 70.185,48.549 70.83,48.549ZM69.647,42.236C70.436,37.645 74.273,32.946 77.25,32.946C78.183,32.946 78.613,33.736 78.613,35.385C78.613,38.291 77.179,42.559 75.278,45.285C74.56,46.325 73.413,46.863 71.942,46.863C70.83,46.863 69.934,46.612 69.001,46.038L69.647,42.236Z" style="fill:rgb(253,146,38);fill-rule:nonzero;"/>
        <path d="M83.025,42.702C83.025,46.504 84.639,48.549 87.616,48.549C89.589,48.549 91.741,47.616 93.355,46.11C95.578,43.993 97.156,39.905 97.156,36.282C97.156,32.911 95.363,30.866 92.386,30.866C88.656,30.866 83.025,34.453 83.025,42.702ZM91.059,32.229C93.247,32.229 94.431,33.843 94.431,36.856C94.431,40.299 93.319,44.101 91.741,46.002C91.095,46.755 90.162,47.186 89.051,47.186C86.97,47.186 85.751,45.572 85.751,42.738C85.751,38.685 87.15,34.274 88.907,32.839C89.373,32.444 90.198,32.229 91.059,32.229Z" style="fill:rgb(253,146,38);fill-rule:nonzero;"/>
    </g>
    <path d="M254.754,59.429L253.894,60.039C251.993,61.401 250.271,62.119 248.98,62.119C247.294,62.119 246.254,60.792 246.254,58.64C246.254,57.743 246.361,56.775 246.541,55.735C247.151,55.591 251.06,54.515 251.957,54.12C255.005,52.793 256.404,51.144 256.404,48.92C256.404,47.234 255.185,46.122 253.391,46.122C250.952,45.62 247.007,48.238 245.68,50.892C244.604,52.686 243.528,56.954 243.528,59.357C243.528,62.155 245.106,63.805 247.689,63.805C249.733,63.805 251.741,62.8 255.041,60.11L254.754,59.429ZM247.043,53.582C247.653,51.108 248.37,49.565 249.41,48.633C250.056,48.059 251.168,47.629 252.028,47.629C253.069,47.629 253.75,48.346 253.75,49.494C253.75,51.072 252.495,52.758 250.63,53.654C249.625,54.156 248.334,54.551 246.72,54.91L247.043,53.582Z" style="fill:rgb(252,54,146);fill-rule:nonzero;"/>
    <path d="M258.018,58.102C257.839,59.931 257.624,61.186 257.229,62.836C258.592,63.482 259.812,63.805 261.067,63.805C262.824,63.805 264.474,63.159 266.303,61.724C268.133,60.29 268.886,58.963 268.886,57.169C268.886,55.232 267.738,54.192 265.084,53.69L263.542,53.403C261.39,53.009 260.708,52.399 260.708,50.928C260.708,49.027 262.322,47.557 264.367,47.557C265.837,47.557 267.2,48.202 267.774,49.171L267.774,51.144L268.599,51.144C268.742,49.888 268.886,48.92 269.28,47.091C267.882,46.409 266.877,46.122 265.694,46.122C263.829,46.122 261.641,47.198 259.919,48.92C258.987,49.888 258.592,50.785 258.592,52.076C258.592,54.085 259.704,55.232 262.071,55.699L264.331,56.129C265.909,56.416 266.483,57.062 266.483,58.46C266.483,60.792 264.833,62.37 262.286,62.37C261.031,62.37 259.919,61.975 258.915,61.115L258.915,58.102L258.018,58.102Z" style="fill:rgb(252,54,146);fill-rule:nonzero;"/>
    <path d="M283.089,51.574L283.914,51.574C284.201,49.243 284.452,47.916 284.775,46.983C283.914,46.445 282.659,46.122 281.332,46.122C279.718,46.086 277.099,46.804 275.055,49.063C273.118,50.785 271.719,54.766 271.719,58.532C271.719,61.975 273.226,63.805 276.095,63.805C278.032,63.805 279.753,63.087 281.726,61.473L283.519,60.003L283.233,59.285L282.695,59.644C280.112,61.366 278.749,61.975 277.494,61.975C275.485,61.975 274.445,60.541 274.445,57.707C274.445,53.834 275.701,50.103 277.458,48.74C278.211,48.167 279.072,47.88 280.184,47.88C281.798,47.88 283.089,48.561 283.089,49.422L283.089,51.574Z" style="fill:rgb(252,54,146);fill-rule:nonzero;"/>
    <path d="M295.104,56.093L294.064,60.648C293.921,61.258 293.849,61.904 293.849,62.477C293.849,63.267 294.172,63.733 294.71,63.733C295.535,63.733 297.005,62.8 299.946,60.361L299.695,59.608C298.835,60.325 297.794,61.294 297.005,61.294C296.683,61.294 296.467,60.971 296.467,60.469C296.467,60.29 296.467,60.182 296.503,60.074L299.803,46.481L299.444,46.158L298.261,46.804C296.79,46.266 296.18,46.122 295.212,46.122C294.208,46.122 293.49,46.302 292.522,46.768C290.298,47.88 289.115,48.956 288.218,50.713C286.64,53.905 285.528,58.209 285.528,61.007C285.528,62.585 286.066,63.805 286.747,63.805C288.075,63.805 290.944,61.939 295.104,56.093ZM296.826,48.561C296.037,52.471 295.356,54.336 294.136,56.201C292.092,59.214 289.904,61.294 288.756,61.294C288.326,61.294 288.11,60.828 288.11,59.859C288.11,57.564 289.115,53.367 290.37,50.498C291.231,48.525 292.056,47.88 293.777,47.88C294.602,47.88 295.248,48.023 296.826,48.561Z" style="fill:rgb(252,54,146);fill-rule:nonzero;"/>
    <path d="M310.276,37.514L309.846,37.12C307.981,38.052 306.689,38.375 304.107,38.626L303.964,39.379L305.685,39.379C306.546,39.379 306.905,39.63 306.905,40.168C306.905,40.276 306.905,40.455 306.797,41.101C306.403,43.074 303.784,56.882 303.246,58.676C302.78,60.469 302.565,61.545 302.565,62.298C302.565,63.195 302.959,63.733 303.641,63.733C304.573,63.733 305.865,62.98 309.379,60.361L309.021,59.716L308.088,60.325C307.048,61.007 306.259,61.401 305.9,61.401C305.649,61.401 305.434,61.043 305.434,60.684C305.434,60.469 305.47,60.218 305.578,59.68L310.276,37.514Z" style="fill:rgb(252,54,146);fill-rule:nonzero;"/>
    <path d="M320.929,56.093L319.888,60.648C319.745,61.258 319.673,61.904 319.673,62.477C319.673,63.267 319.996,63.733 320.534,63.733C321.359,63.733 322.829,62.8 325.771,60.361L325.52,59.608C324.659,60.325 323.619,61.294 322.829,61.294C322.507,61.294 322.291,60.971 322.291,60.469C322.291,60.29 322.291,60.182 322.327,60.074L325.627,46.481L325.268,46.158L324.085,46.804C322.614,46.266 322.005,46.122 321.036,46.122C320.032,46.122 319.315,46.302 318.346,46.768C316.122,47.88 314.939,48.956 314.042,50.713C312.464,53.905 311.352,58.209 311.352,61.007C311.352,62.585 311.89,63.805 312.572,63.805C313.899,63.805 316.768,61.939 320.929,56.093ZM322.65,48.561C321.861,52.471 321.18,54.336 319.96,56.201C317.916,59.214 315.728,61.294 314.58,61.294C314.15,61.294 313.935,60.828 313.935,59.859C313.935,57.564 314.939,53.367 316.194,50.498C317.055,48.525 317.88,47.88 319.601,47.88C320.426,47.88 321.072,48.023 322.65,48.561Z" style="fill:rgb(252,54,146);fill-rule:nonzero;"/>
</svg>
