<?xml version="1.0" standalone="no"?>
<!DOCTYPE svg PUBLIC "-//W3C//DTD SVG 1.1//EN" "http://www.w3.org/Graphics/SVG/1.1/DTD/svg11.dtd">
<svg width="100%" height="100%" viewBox="0 0 396 308" version="1.1" xmlns="http://www.w3.org/2000/svg" xmlns:xlink="http://www.w3.org/1999/xlink" xml:space="preserve" style="fill-rule:evenodd;clip-rule:evenodd;stroke-linecap:round;stroke-linejoin:round;stroke-miterlimit:10;">
    <rect x="-274" y="-266" width="896" height="678" style="fill:white;fill-rule:nonzero;"/>
    <path d="M86,174L264.1,174" style="fill:none;stroke-width:5px;stroke:rgb(148,17,0);"/>
    <g>
        <path d="M278.5,174L264.1,168.6L264.1,179.4L278.5,174Z" style="fill:rgb(148,17,0);fill-rule:nonzero;"/>
        <path d="M285.62,174L261.6,183.008L261.6,164.993L285.62,174ZM266.6,175.793L271.38,174L266.6,172.208L266.6,175.793Z" style="fill:rgb(148,17,0);"/>
    </g>
    <path d="M126,214L126,35.9" style="fill:none;stroke-width:5px;stroke:rgb(1,24,147);"/>
    <g>
        <path d="M126,21.5L120.6,35.9L131.4,35.9L126,21.5Z" style="fill:rgb(1,24,147);fill-rule:nonzero;"/>
        <path d="M135.008,38.4L116.992,38.4L126,14.38L135.008,38.4ZM124.208,33.4L127.792,33.4L126,28.62L124.208,33.4Z" style="fill:rgb(1,24,147);"/>
    </g>
    <path d="M166,134L21.486,278.514" style="fill:none;stroke-width:5px;stroke:rgb(0,143,0);"/>
    <g>
        <path d="M11.303,288.697L25.304,282.333L17.667,274.696L11.303,288.697Z" style="fill:rgb(0,143,0);fill-rule:nonzero;"/>
        <path d="M29.623,283.116L6.269,293.731L16.884,270.377L29.623,283.116ZM16.338,283.662L20.985,281.55L18.45,279.015L16.338,283.662Z" style="fill:rgb(0,143,0);"/>
    </g>
    <path d="M166,214L21.486,69.486" style="fill:none;stroke-width:5px;stroke:rgb(255,147,0);"/>
    <g>
        <path d="M11.303,59.303L17.667,73.304L25.304,65.667L11.303,59.303Z" style="fill:rgb(255,147,0);fill-rule:nonzero;"/>
        <path d="M29.623,64.884L16.884,77.623L6.269,54.269L29.623,64.884ZM18.45,68.985L20.985,66.45L16.338,64.338L18.45,68.985Z" style="fill:rgb(255,147,0);"/>
    </g>
    <path d="M46,214L346.412,63.794" style="fill:none;stroke-width:5px;stroke:rgb(255,47,146);"/>
    <g>
        <path d="M359.292,57.354L343.997,58.964L348.827,68.624L359.292,57.354Z" style="fill:rgb(255,47,146);fill-rule:nonzero;"/>
        <path d="M348.204,72.969L340.148,56.855L365.66,54.17L348.204,72.969ZM347.846,61.073L349.45,64.279L352.923,60.538L347.846,61.073Z" style="fill:rgb(255,47,146);"/>
    </g>
    <path d="M126.634,173.241C127.122,173.729 127.122,174.521 126.634,175.009C126.146,175.497 125.354,175.497 124.866,175.009C124.378,174.521 124.378,173.729 124.866,173.241C125.354,172.753 126.146,172.753 126.634,173.241" style="fill:none;stroke-width:2.5px;stroke:black;"/>
    <path d="M268.813,201.574C269.351,201.861 269.925,202.005 270.355,202.005C271.539,202.005 272.937,200.964 274.049,199.279L276.775,195.082L277.17,197.557C277.636,200.606 278.461,202.005 279.752,202.005C280.541,202.005 281.689,201.395 282.837,200.355L284.594,198.777L284.271,198.095C282.98,199.171 282.084,199.709 281.51,199.709C280.972,199.709 280.505,199.35 280.147,198.633C279.824,197.952 279.429,196.625 279.25,195.584L278.604,191.962L279.86,190.204C281.546,187.873 282.514,187.048 283.626,187.048C284.2,187.048 284.63,187.335 284.809,187.873L285.312,187.73L285.85,184.681C285.419,184.43 285.096,184.322 284.774,184.322C283.339,184.322 281.904,185.613 279.68,188.913L278.353,190.886L278.138,189.164C277.708,185.613 276.739,184.322 274.623,184.322C273.691,184.322 272.902,184.609 272.579,185.075L270.499,188.052L271.108,188.411C272.184,187.192 272.902,186.689 273.583,186.689C274.767,186.689 275.556,188.16 276.165,191.675L276.56,193.899L275.125,196.122C273.583,198.525 272.364,199.673 271.359,199.673C270.821,199.673 270.427,199.53 270.355,199.35L269.961,198.346L269.243,198.454C269.243,199.709 268.956,200.642 268.813,201.574Z" style="fill:rgb(146,19,11);fill-rule:nonzero;"/>
    <path d="M38.239,291.41C38.203,291.661 38.203,291.876 38.203,292.056C38.203,293.598 39.53,294.853 41.144,294.853C44.946,294.853 48.891,290.406 51.008,283.77L56.065,267.989L55.67,267.666C54.63,268.061 53.805,268.276 53.016,268.348L51.761,273.082C51.33,274.768 50.075,277.386 48.891,279.144C47.636,280.973 45.879,282.551 45.089,282.551C44.659,282.551 44.336,281.726 44.372,280.829L44.946,273.405C45.018,272.293 45.089,270.93 45.089,269.926C45.089,268.312 44.838,267.666 44.229,267.666C43.762,267.666 43.26,267.917 41.539,269.101L38.598,271.109L38.992,271.755L40.785,270.679C40.965,270.571 41.359,270.249 41.682,270.249C42.184,270.249 42.471,270.93 42.471,272.114C42.471,272.15 42.471,272.365 42.435,272.652L41.826,281.367L41.79,282.802C41.79,284.308 42.435,285.349 43.332,285.349C44.659,285.349 47.672,282.3 50.362,278.247L48.604,284.38C46.775,290.729 44.982,293.347 42.471,293.347C41.216,293.347 40.247,292.378 40.247,291.123C40.247,290.944 40.283,290.657 40.319,290.334L39.961,290.191L38.239,291.41Z" style="fill:rgb(18,141,21);fill-rule:nonzero;"/>
    <g>
        <path d="M148.039,34.005C148.47,34.005 148.792,33.933 149.832,33.646C150.227,31.422 150.514,30.203 150.908,28.517L150.119,28.517L149.33,30.669C149.115,31.315 148.685,31.566 147.932,31.566C147.501,31.566 146.927,31.494 146.174,31.315L145.528,31.171C144.345,30.92 143.125,30.741 142.444,30.741C141.296,30.741 140.328,30.956 139.037,31.494L151.195,17.793L151.411,16.645L151.088,16.322L150.263,17.147C149.904,17.506 149.546,17.649 149.043,17.649C147.824,17.649 145.959,17.362 144.237,16.896L143.592,16.717C142.587,16.466 141.87,16.322 141.368,16.322C140.758,16.322 140.041,16.43 139.18,16.681L138.032,21.057L138.785,21.057L139.861,18.976C140.471,18.833 140.794,18.797 141.26,18.797C142.731,18.797 143.879,19.335 145.78,19.335C147.071,19.335 147.932,19.12 149.115,18.51L136.454,32.857L136.777,33.825C137.817,33 138.785,32.677 140.041,32.677C142.3,32.677 145.564,34.005 148.039,34.005Z" style="fill:rgb(5,32,144);fill-rule:nonzero;"/>
        <path d="M39.373,44.766L37.365,54.916C37.329,55.203 36.899,56.566 36.899,57.642C36.899,58.539 37.293,59.077 37.975,59.077C39.23,59.077 40.485,58.359 43.283,56.1L44.395,55.203L44.036,54.558L42.422,55.669C41.382,56.387 40.665,56.745 40.27,56.745C39.947,56.745 39.768,56.459 39.768,56.028C39.768,55.096 40.27,52.19 41.31,46.99L41.776,44.766L45.614,44.766L46.009,42.973C44.646,43.116 43.426,43.188 42.063,43.188C42.637,39.816 43.032,38.059 43.677,36.122L43.283,35.584C42.565,36.014 41.597,36.445 40.485,36.875L39.589,42.973C38.01,43.726 37.078,44.12 36.432,44.3L36.361,44.766L39.373,44.766Z" style="fill:rgb(253,146,38);fill-rule:nonzero;"/>
        <path d="M48.017,44.838L48.268,45.555L49.416,44.802C50.743,43.977 50.851,43.905 51.102,43.905C51.46,43.905 51.747,44.264 51.747,44.73C51.747,44.981 51.604,45.806 51.46,46.308L49.093,54.916C48.806,56.028 48.627,56.997 48.627,57.678C48.627,58.539 49.022,59.077 49.703,59.077C50.636,59.077 51.927,58.324 55.442,55.705L55.083,55.06L54.15,55.669C53.11,56.351 52.285,56.745 51.963,56.745C51.712,56.745 51.496,56.387 51.496,56.028C51.496,55.669 51.568,55.347 51.747,54.593L54.509,43.69C54.653,43.08 54.724,42.686 54.724,42.399C54.724,41.789 54.402,41.466 53.828,41.466C53.039,41.466 51.712,42.219 49.022,44.12L48.017,44.838ZM54.975,33.217C53.935,33.217 52.895,34.4 52.895,35.62C52.895,36.517 53.433,37.09 54.294,37.09C55.406,37.09 56.267,36.05 56.267,34.687C56.267,33.827 55.729,33.217 54.975,33.217Z" style="fill:rgb(253,146,38);fill-rule:nonzero;"/>
        <path d="M61.682,46.165L58.096,63.919C57.701,65.784 57.056,67.039 56.41,67.039C55.908,67.039 55.262,66.824 54.509,66.358L54.222,68.402C54.581,68.582 55.047,68.653 55.585,68.653C57.02,68.653 58.454,67.111 59.746,64.206C60.463,62.592 60.965,60.798 61.969,56.243L64.695,43.69C64.839,43.044 64.911,42.578 64.911,42.363C64.911,41.789 64.588,41.466 64.014,41.466C63.225,41.466 61.898,42.219 59.208,44.12L58.203,44.838L58.454,45.555L59.602,44.802C60.929,43.977 61.037,43.905 61.288,43.905C61.647,43.905 61.934,44.264 61.934,44.73C61.934,45.053 61.682,45.985 61.682,46.165ZM64.946,33.217C63.906,33.217 62.866,34.4 62.866,35.62C62.866,36.517 63.404,37.09 64.265,37.09C65.377,37.09 66.238,36.05 66.238,34.687C66.238,33.827 65.7,33.217 64.946,33.217Z" style="fill:rgb(253,146,38);fill-rule:nonzero;"/>
        <path d="M83.992,32.858L83.561,32.464C81.696,33.396 80.405,33.719 77.823,33.97L77.679,34.723L79.401,34.723C80.262,34.723 80.62,34.974 80.62,35.584C80.62,35.871 80.584,36.194 80.548,36.445L79.544,41.968C78.468,41.646 77.5,41.466 76.603,41.466C74.128,41.466 70.757,44.049 69.107,47.169C67.995,49.249 67.278,52.657 67.278,55.669C67.278,58.001 67.816,59.149 68.856,59.149C69.824,59.149 71.151,58.539 72.371,57.57C74.308,55.992 75.491,54.593 77.894,50.971L77.069,54.235C76.675,55.813 76.495,56.961 76.495,57.893C76.495,58.646 76.818,59.077 77.428,59.077C78.038,59.077 78.899,58.646 80.118,57.75L83.023,55.598L82.665,54.916L81.086,56.028C80.584,56.387 80.01,56.638 79.688,56.638C79.401,56.638 79.185,56.315 79.185,55.813C79.185,55.526 79.221,55.203 79.472,54.163L83.992,32.858ZM70.757,56.638C70.183,56.638 69.86,56.136 69.86,55.239C69.86,50.72 71.51,45.125 73.267,43.762C73.734,43.403 74.415,43.224 75.384,43.224C76.962,43.224 78.002,43.439 79.185,44.049L78.755,46.165C77.428,52.621 72.371,56.638 70.757,56.638Z" style="fill:rgb(253,146,38);fill-rule:nonzero;"/>
    </g>
    <path d="M242.602,58.102C242.423,59.931 242.207,61.186 241.813,62.836C243.176,63.482 244.395,63.805 245.651,63.805C247.408,63.805 249.058,63.159 250.887,61.724C252.716,60.29 253.47,58.963 253.47,57.169C253.47,55.232 252.322,54.192 249.668,53.69L248.125,53.403C245.973,53.009 245.292,52.399 245.292,50.928C245.292,49.027 246.906,47.557 248.95,47.557C250.421,47.557 251.784,48.202 252.358,49.171L252.358,51.144L253.183,51.144C253.326,49.888 253.47,48.92 253.864,47.091C252.465,46.409 251.461,46.122 250.277,46.122C248.412,46.122 246.224,47.198 244.503,48.92C243.57,49.888 243.176,50.785 243.176,52.076C243.176,54.085 244.288,55.232 246.655,55.699L248.914,56.129C250.493,56.416 251.066,57.062 251.066,58.46C251.066,60.792 249.417,62.37 246.87,62.37C245.615,62.37 244.503,61.975 243.499,61.115L243.499,58.102L242.602,58.102Z" style="fill:rgb(252,54,146);fill-rule:nonzero;"/>
    <path d="M267.673,51.574L268.498,51.574C268.785,49.243 269.036,47.916 269.359,46.983C268.498,46.445 267.242,46.122 265.915,46.122C264.301,46.086 261.683,46.804 259.639,49.063C257.702,50.785 256.303,54.766 256.303,58.532C256.303,61.975 257.809,63.805 260.679,63.805C262.616,63.805 264.337,63.087 266.31,61.473L268.103,60.003L267.816,59.285L267.278,59.644C264.696,61.366 263.333,61.975 262.078,61.975C260.069,61.975 259.029,60.541 259.029,57.707C259.029,53.834 260.284,50.103 262.042,48.74C262.795,48.167 263.656,47.88 264.768,47.88C266.382,47.88 267.673,48.561 267.673,49.422L267.673,51.574Z" style="fill:rgb(252,54,146);fill-rule:nonzero;"/>
    <path d="M278.433,37.514L278.002,37.12C276.388,37.909 274.918,38.411 272.264,38.626L272.12,39.379L273.842,39.379C274.487,39.379 275.061,39.487 275.061,40.204C275.061,40.419 275.061,40.742 274.99,41.101L273.483,49.494C272.766,53.654 271.259,60.541 270.327,63.338L270.578,63.733L273.053,63.159C273.34,61.115 273.842,57.528 275.277,54.945C276.891,52.04 280.585,48.561 282.091,48.561C282.486,48.561 282.88,48.812 282.88,49.314C282.88,49.96 282.701,51.144 282.342,52.542L280.513,59.572C280.298,60.361 280.047,61.437 280.047,62.298C280.047,63.195 280.405,63.733 281.159,63.733C282.306,63.733 284.745,61.939 286.862,60.361L286.503,59.716L285.57,60.325C284.745,60.863 283.813,61.401 283.382,61.401C283.131,61.401 282.916,61.079 282.916,60.684C282.916,60.254 283.024,59.787 283.167,59.249L285.463,50.068C285.678,49.135 285.857,48.238 285.857,47.378C285.857,46.768 285.642,46.122 284.709,46.122C283.454,46.122 280.692,47.736 278.253,49.996C277.07,51.108 276.137,52.363 275.133,53.618L274.99,53.547L278.433,37.514Z" style="fill:rgb(252,54,146);fill-rule:nonzero;"/>
    <path d="M297.586,56.093L296.546,60.648C296.402,61.258 296.33,61.904 296.33,62.477C296.33,63.267 296.653,63.733 297.191,63.733C298.016,63.733 299.487,62.8 302.428,60.361L302.177,59.608C301.316,60.325 300.276,61.294 299.487,61.294C299.164,61.294 298.949,60.971 298.949,60.469C298.949,60.29 298.949,60.182 298.984,60.074L302.284,46.481L301.926,46.158L300.742,46.804C299.271,46.266 298.662,46.122 297.693,46.122C296.689,46.122 295.972,46.302 295.003,46.768C292.78,47.88 291.596,48.956 290.699,50.713C289.121,53.905 288.009,58.209 288.009,61.007C288.009,62.585 288.547,63.805 289.229,63.805C290.556,63.805 293.425,61.939 297.586,56.093ZM299.307,48.561C298.518,52.471 297.837,54.336 296.617,56.201C294.573,59.214 292.385,61.294 291.237,61.294C290.807,61.294 290.592,60.828 290.592,59.859C290.592,57.564 291.596,53.367 292.851,50.498C293.712,48.525 294.537,47.88 296.259,47.88C297.084,47.88 297.729,48.023 299.307,48.561Z" style="fill:rgb(252,54,146);fill-rule:nonzero;"/>
    <path d="M313.475,56.093L312.435,60.648C312.291,61.258 312.219,61.904 312.219,62.477C312.219,63.267 312.542,63.733 313.08,63.733C313.905,63.733 315.376,62.8 318.317,60.361L318.066,59.608C317.205,60.325 316.165,61.294 315.376,61.294C315.053,61.294 314.838,60.971 314.838,60.469C314.838,60.29 314.838,60.182 314.873,60.074L318.173,46.481L317.815,46.158L316.631,46.804C315.16,46.266 314.551,46.122 313.582,46.122C312.578,46.122 311.861,46.302 310.892,46.768C308.669,47.88 307.485,48.956 306.588,50.713C305.01,53.905 303.898,58.209 303.898,61.007C303.898,62.585 304.436,63.805 305.118,63.805C306.445,63.805 309.314,61.939 313.475,56.093ZM315.196,48.561C314.407,52.471 313.726,54.336 312.506,56.201C310.462,59.214 308.274,61.294 307.126,61.294C306.696,61.294 306.481,60.828 306.481,59.859C306.481,57.564 307.485,53.367 308.74,50.498C309.601,48.525 310.426,47.88 312.148,47.88C312.973,47.88 313.618,48.023 315.196,48.561Z" style="fill:rgb(252,54,146);fill-rule:nonzero;"/>
    <path d="M328.646,37.514L328.216,37.12C326.351,38.052 325.06,38.375 322.477,38.626L322.334,39.379L324.055,39.379C324.916,39.379 325.275,39.63 325.275,40.168C325.275,40.276 325.275,40.455 325.167,41.101C324.773,43.074 322.154,56.882 321.616,58.676C321.15,60.469 320.935,61.545 320.935,62.298C320.935,63.195 321.329,63.733 322.011,63.733C322.944,63.733 324.235,62.98 327.75,60.361L327.391,59.716L326.458,60.325C325.418,61.007 324.629,61.401 324.271,61.401C324.02,61.401 323.804,61.043 323.804,60.684C323.804,60.469 323.84,60.218 323.948,59.68L328.646,37.514Z" style="fill:rgb(252,54,146);fill-rule:nonzero;"/>
</svg>
