<?xml version="1.0" standalone="no"?>
<!DOCTYPE svg PUBLIC "-//W3C//DTD SVG 1.1//EN" "http://www.w3.org/Graphics/SVG/1.1/DTD/svg11.dtd">
<svg width="100%" height="100%" viewBox="0 0 396 308" version="1.1" xmlns="http://www.w3.org/2000/svg" xmlns:xlink="http://www.w3.org/1999/xlink" xml:space="preserve" style="fill-rule:evenodd;clip-rule:evenodd;stroke-linecap:round;stroke-linejoin:round;stroke-miterlimit:10;">
    <rect x="-274" y="-266" width="1520" height="1081" style="fill:white;fill-rule:nonzero;"/>
    <path d="M86,174L264.1,174" style="fill:none;stroke-width:5px;stroke:rgb(148,17,0);"/>
    <g>
        <path d="M278.5,174L264.1,168.6L264.1,179.4L278.5,174Z" style="fill:rgb(148,17,0);fill-rule:nonzero;"/>
        <path d="M285.62,174L261.6,183.008L261.6,164.993L285.62,174ZM266.6,175.793L271.38,174L266.6,172.208L266.6,175.793Z" style="fill:rgb(148,17,0);"/>
    </g>
    <path d="M126,214L126,35.9" style="fill:none;stroke-width:5px;stroke:rgb(1,24,147);"/>
    <g>
        <path d="M126,21.5L120.6,35.9L131.4,35.9L126,21.5Z" style="fill:rgb(1,24,147);fill-rule:nonzero;"/>
        <path d="M135.008,38.4L116.992,38.4L126,14.38L135.008,38.4ZM124.208,33.4L127.792,33.4L126,28.62L124.208,33.4Z" style="fill:rgb(1,24,147);"/>
    </g>
    <path d="M166,134L21.486,278.514" style="fill:none;stroke-width:5px;stroke:rgb(0,143,0);"/>
    <g>
        <path d="M11.303,288.697L25.304,282.333L17.667,274.696L11.303,288.697Z" style="fill:rgb(0,143,0);fill-rule:nonzero;"/>
        <path d="M29.623,283.116L6.269,293.731L16.884,270.377L29.623,283.116ZM16.338,283.662L20.985,281.55L18.45,279.015L16.338,283.662Z" style="fill:rgb(0,143,0);"/>
    </g>
    <path d="M166,214L21.486,69.486" style="fill:none;stroke-width:5px;stroke:rgb(255,147,0);"/>
    <g>
        <path d="M11.303,59.303L17.667,73.304L25.304,65.667L11.303,59.303Z" style="fill:rgb(255,147,0);fill-rule:nonzero;"/>
        <path d="M29.623,64.884L16.884,77.623L6.269,54.269L29.623,64.884ZM18.45,68.985L20.985,66.45L16.338,64.338L18.45,68.985Z" style="fill:rgb(255,147,0);"/>
    </g>
    <path d="M46,214L346.412,63.794" style="fill:none;stroke-width:5px;stroke:rgb(255,47,146);"/>
    <g>
        <path d="M359.292,57.354L343.997,58.964L348.827,68.624L359.292,57.354Z" style="fill:rgb(255,47,146);fill-rule:nonzero;"/>
        <path d="M348.204,72.969L340.148,56.855L365.66,54.17L348.204,72.969ZM347.846,61.073L349.45,64.279L352.923,60.538L347.846,61.073Z" style="fill:rgb(255,47,146);"/>
    </g>
    <path d="M126.634,173.241C127.122,173.729 127.122,174.521 126.634,175.009C126.146,175.497 125.354,175.497 124.866,175.009C124.378,174.521 124.378,173.729 124.866,173.241C125.354,172.753 126.146,172.753 126.634,173.241" style="fill:none;stroke-width:2.5px;stroke:black;"/>
    <path d="M268.813,201.574C269.351,201.861 269.925,202.005 270.355,202.005C271.539,202.005 272.937,200.964 274.049,199.279L276.775,195.082L277.17,197.557C277.636,200.606 278.461,202.005 279.752,202.005C280.541,202.005 281.689,201.395 282.837,200.355L284.594,198.777L284.271,198.095C282.98,199.171 282.084,199.709 281.51,199.709C280.972,199.709 280.505,199.35 280.147,198.633C279.824,197.952 279.429,196.625 279.25,195.584L278.604,191.962L279.86,190.204C281.546,187.873 282.514,187.048 283.626,187.048C284.2,187.048 284.63,187.335 284.809,187.873L285.312,187.73L285.85,184.681C285.419,184.43 285.096,184.322 284.774,184.322C283.339,184.322 281.904,185.613 279.68,188.913L278.353,190.886L278.138,189.164C277.708,185.613 276.739,184.322 274.623,184.322C273.691,184.322 272.902,184.609 272.579,185.075L270.499,188.052L271.108,188.411C272.184,187.192 272.902,186.689 273.583,186.689C274.767,186.689 275.556,188.16 276.165,191.675L276.56,193.899L275.125,196.122C273.583,198.525 272.364,199.673 271.359,199.673C270.821,199.673 270.427,199.53 270.355,199.35L269.961,198.346L269.243,198.454C269.243,199.709 268.956,200.642 268.813,201.574Z" style="fill:rgb(146,19,11);fill-rule:nonzero;"/>
    <path d="M38.239,291.41C38.203,291.661 38.203,291.876 38.203,292.056C38.203,293.598 39.53,294.853 41.144,294.853C44.946,294.853 48.891,290.406 51.008,283.77L56.065,267.989L55.67,267.666C54.63,268.061 53.805,268.276 53.016,268.348L51.761,273.082C51.33,274.768 50.075,277.386 48.891,279.144C47.636,280.973 45.879,282.551 45.089,282.551C44.659,282.551 44.336,281.726 44.372,280.829L44.946,273.405C45.018,272.293 45.089,270.93 45.089,269.926C45.089,268.312 44.838,267.666 44.229,267.666C43.762,267.666 43.26,267.917 41.539,269.101L38.598,271.109L38.992,271.755L40.785,270.679C40.965,270.571 41.359,270.249 41.682,270.249C42.184,270.249 42.471,270.93 42.471,272.114C42.471,272.15 42.471,272.365 42.435,272.652L41.826,281.367L41.79,282.802C41.79,284.308 42.435,285.349 43.332,285.349C44.659,285.349 47.672,282.3 50.362,278.247L48.604,284.38C46.775,290.729 44.982,293.347 42.471,293.347C41.216,293.347 40.247,292.378 40.247,291.123C40.247,290.944 40.283,290.657 40.319,290.334L39.961,290.191L38.239,291.41Z" style="fill:rgb(18,141,21);fill-rule:nonzero;"/>
    <g>
        <path d="M148.039,34.005C148.47,34.005 148.792,33.933 149.832,33.646C150.227,31.422 150.514,30.203 150.908,28.517L150.119,28.517L149.33,30.669C149.115,31.315 148.685,31.566 147.932,31.566C147.501,31.566 146.927,31.494 146.174,31.315L145.528,31.171C144.345,30.92 143.125,30.741 142.444,30.741C141.296,30.741 140.328,30.956 139.037,31.494L151.195,17.793L151.411,16.645L151.088,16.322L150.263,17.147C149.904,17.506 149.546,17.649 149.043,17.649C147.824,17.649 145.959,17.362 144.237,16.896L143.592,16.717C142.587,16.466 141.87,16.322 141.368,16.322C140.758,16.322 140.041,16.43 139.18,16.681L138.032,21.057L138.785,21.057L139.861,18.976C140.471,18.833 140.794,18.797 141.26,18.797C142.731,18.797 143.879,19.335 145.78,19.335C147.071,19.335 147.932,19.12 149.115,18.51L136.454,32.857L136.777,33.825C137.817,33 138.785,32.677 140.041,32.677C142.3,32.677 145.564,34.005 148.039,34.005Z" style="fill:rgb(5,32,144);fill-rule:nonzero;"/>
        <path d="M32.373,39.422L30.365,49.572C30.329,49.859 29.899,51.222 29.899,52.298C29.899,53.195 30.293,53.733 30.975,53.733C32.23,53.733 33.485,53.015 36.283,50.756L37.395,49.859L37.036,49.214L35.422,50.325C34.382,51.043 33.665,51.401 33.27,51.401C32.947,51.401 32.768,51.115 32.768,50.684C32.768,49.752 33.27,46.846 34.31,41.646L34.776,39.422L38.614,39.422L39.009,37.629C37.646,37.772 36.426,37.844 35.063,37.844C35.637,34.472 36.032,32.715 36.677,30.778L36.283,30.24C35.565,30.67 34.597,31.101 33.485,31.531L32.589,37.629C31.01,38.382 30.078,38.776 29.432,38.956L29.361,39.422L32.373,39.422Z" style="fill:rgb(253,146,38);fill-rule:nonzero;"/>
        <path d="M41.017,39.494L41.268,40.211L42.416,39.458C43.743,38.633 43.851,38.561 44.102,38.561C44.46,38.561 44.747,38.92 44.747,39.386C44.747,39.637 44.604,40.462 44.46,40.964L42.093,49.572C41.806,50.684 41.627,51.653 41.627,52.334C41.627,53.195 42.022,53.733 42.703,53.733C43.636,53.733 44.927,52.98 48.442,50.361L48.083,49.716L47.15,50.325C46.11,51.007 45.285,51.401 44.963,51.401C44.712,51.401 44.496,51.043 44.496,50.684C44.496,50.325 44.568,50.003 44.747,49.249L47.509,38.346C47.653,37.736 47.724,37.342 47.724,37.055C47.724,36.445 47.402,36.122 46.828,36.122C46.039,36.122 44.712,36.875 42.022,38.776L41.017,39.494ZM47.975,27.873C46.935,27.873 45.895,29.056 45.895,30.276C45.895,31.173 46.433,31.746 47.294,31.746C48.406,31.746 49.267,30.706 49.267,29.343C49.267,28.483 48.729,27.873 47.975,27.873Z" style="fill:rgb(253,146,38);fill-rule:nonzero;"/>
        <path d="M75.916,49.716L74.983,50.325C73.943,51.007 73.154,51.401 72.795,51.401C72.544,51.401 72.329,51.079 72.329,50.684C72.329,50.325 72.401,50.003 72.58,49.249L75.27,38.597C75.414,37.987 75.521,37.413 75.521,37.126C75.521,36.517 75.162,36.122 74.589,36.122C73.548,36.122 72.185,36.768 69.998,38.31C67.738,39.924 66.483,41.179 64.725,43.654L65.801,38.74C65.945,38.023 66.052,37.485 66.052,37.234C66.052,36.553 65.694,36.122 65.12,36.122C64.044,36.122 62.394,36.911 60.421,38.418C58.843,39.637 58.126,40.39 55.794,43.547L56.978,38.776C57.121,38.202 57.193,37.664 57.193,37.234C57.193,36.553 56.87,36.122 56.368,36.122C55.615,36.122 54.252,36.875 51.598,38.776L50.594,39.494L50.845,40.211C52.172,39.386 53.427,38.561 53.678,38.561C54.073,38.561 54.324,38.92 54.324,39.458C54.324,41.287 52.853,48.209 51.383,53.338L51.49,53.733L53.929,53.195L54.718,49.536C55.579,45.555 56.548,43.439 58.52,41.287C60.027,39.637 61.641,38.561 62.645,38.561C62.896,38.561 63.039,38.848 63.039,39.314C63.039,40.57 62.25,44.659 60.78,50.935L60.206,53.338L60.385,53.733L62.86,53.195L63.613,49.357C64.187,46.452 65.407,43.762 66.985,42.004C68.957,39.816 70.751,38.561 71.899,38.561C72.185,38.561 72.365,38.884 72.365,39.458C72.365,40.319 72.257,40.821 71.468,43.941C70.033,49.644 69.46,50.397 69.46,52.298C69.46,53.195 69.854,53.733 70.536,53.733C71.468,53.733 72.759,52.98 76.274,50.361L75.916,49.716Z" style="fill:rgb(253,146,38);fill-rule:nonzero;"/>
        <path d="M89.366,49.429L88.505,50.039C86.604,51.401 84.882,52.119 83.591,52.119C81.905,52.119 80.865,50.792 80.865,48.64C80.865,47.743 80.973,46.775 81.152,45.735C81.762,45.591 85.671,44.515 86.568,44.12C89.617,42.793 91.016,41.144 91.016,38.92C91.016,37.234 89.796,36.122 88.003,36.122C85.564,35.62 81.618,38.238 80.291,40.892C79.215,42.686 78.139,46.954 78.139,49.357C78.139,52.155 79.718,53.805 82.3,53.805C84.344,53.805 86.353,52.8 89.653,50.11L89.366,49.429ZM81.654,43.582C82.264,41.108 82.981,39.565 84.022,38.633C84.667,38.059 85.779,37.629 86.64,37.629C87.68,37.629 88.361,38.346 88.361,39.494C88.361,41.072 87.106,42.758 85.241,43.654C84.237,44.156 82.946,44.551 81.332,44.91L81.654,43.582Z" style="fill:rgb(253,146,38);fill-rule:nonzero;"/>
    </g>
    <path d="M261.602,58.102C261.423,59.931 261.207,61.186 260.813,62.836C262.176,63.482 263.395,63.805 264.651,63.805C266.408,63.805 268.058,63.159 269.887,61.724C271.716,60.29 272.47,58.963 272.47,57.169C272.47,55.232 271.322,54.192 268.668,53.69L267.125,53.403C264.973,53.009 264.292,52.399 264.292,50.928C264.292,49.027 265.906,47.557 267.95,47.557C269.421,47.557 270.784,48.202 271.358,49.171L271.358,51.144L272.183,51.144C272.326,49.888 272.47,48.92 272.864,47.091C271.465,46.409 270.461,46.122 269.277,46.122C267.412,46.122 265.224,47.198 263.503,48.92C262.57,49.888 262.176,50.785 262.176,52.076C262.176,54.085 263.288,55.232 265.655,55.699L267.914,56.129C269.493,56.416 270.066,57.062 270.066,58.46C270.066,60.792 268.417,62.37 265.87,62.37C264.615,62.37 263.503,61.975 262.499,61.115L262.499,58.102L261.602,58.102Z" style="fill:rgb(252,54,146);fill-rule:nonzero;"/>
    <path d="M286.673,51.574L287.498,51.574C287.785,49.243 288.036,47.916 288.359,46.983C287.498,46.445 286.242,46.122 284.915,46.122C283.301,46.086 280.683,46.804 278.639,49.063C276.702,50.785 275.303,54.766 275.303,58.532C275.303,61.975 276.809,63.805 279.679,63.805C281.616,63.805 283.337,63.087 285.31,61.473L287.103,60.003L286.816,59.285L286.278,59.644C283.696,61.366 282.333,61.975 281.078,61.975C279.069,61.975 278.029,60.541 278.029,57.707C278.029,53.834 279.284,50.103 281.042,48.74C281.795,48.167 282.656,47.88 283.768,47.88C285.382,47.88 286.673,48.561 286.673,49.422L286.673,51.574Z" style="fill:rgb(252,54,146);fill-rule:nonzero;"/>
    <path d="M298.688,56.093L297.648,60.648C297.505,61.258 297.433,61.904 297.433,62.477C297.433,63.267 297.756,63.733 298.294,63.733C299.119,63.733 300.589,62.8 303.53,60.361L303.279,59.608C302.418,60.325 301.378,61.294 300.589,61.294C300.266,61.294 300.051,60.971 300.051,60.469C300.051,60.29 300.051,60.182 300.087,60.074L303.387,46.481L303.028,46.158L301.844,46.804C300.374,46.266 299.764,46.122 298.796,46.122C297.791,46.122 297.074,46.302 296.106,46.768C293.882,47.88 292.698,48.956 291.802,50.713C290.224,53.905 289.112,58.209 289.112,61.007C289.112,62.585 289.65,63.805 290.331,63.805C291.658,63.805 294.528,61.939 298.688,56.093ZM300.41,48.561C299.621,52.471 298.939,54.336 297.72,56.201C295.675,59.214 293.487,61.294 292.34,61.294C291.909,61.294 291.694,60.828 291.694,59.859C291.694,57.564 292.698,53.367 293.954,50.498C294.815,48.525 295.639,47.88 297.361,47.88C298.186,47.88 298.832,48.023 300.41,48.561Z" style="fill:rgb(252,54,146);fill-rule:nonzero;"/>
    <path d="M313.86,37.514L313.429,37.12C311.564,38.052 310.273,38.375 307.691,38.626L307.547,39.379L309.269,39.379C310.13,39.379 310.488,39.63 310.488,40.168C310.488,40.276 310.488,40.455 310.381,41.101C309.986,43.074 307.368,56.882 306.83,58.676C306.364,60.469 306.148,61.545 306.148,62.298C306.148,63.195 306.543,63.733 307.224,63.733C308.157,63.733 309.448,62.98 312.963,60.361L312.604,59.716L311.672,60.325C310.632,61.007 309.843,61.401 309.484,61.401C309.233,61.401 309.018,61.043 309.018,60.684C309.018,60.469 309.054,60.218 309.161,59.68L313.86,37.514Z" style="fill:rgb(252,54,146);fill-rule:nonzero;"/>
    <path d="M326.557,59.429L325.696,60.039C323.795,61.401 322.073,62.119 320.782,62.119C319.096,62.119 318.056,60.792 318.056,58.64C318.056,57.743 318.164,56.775 318.343,55.735C318.953,55.591 322.862,54.515 323.759,54.12C326.808,52.793 328.207,51.144 328.207,48.92C328.207,47.234 326.987,46.122 325.194,46.122C322.755,45.62 318.809,48.238 317.482,50.892C316.406,52.686 315.33,56.954 315.33,59.357C315.33,62.155 316.908,63.805 319.491,63.805C321.535,63.805 323.544,62.8 326.844,60.11L326.557,59.429ZM318.845,53.582C319.455,51.108 320.172,49.565 321.212,48.633C321.858,48.059 322.97,47.629 323.831,47.629C324.871,47.629 325.552,48.346 325.552,49.494C325.552,51.072 324.297,52.758 322.432,53.654C321.428,54.156 320.136,54.551 318.522,54.91L318.845,53.582Z" style="fill:rgb(252,54,146);fill-rule:nonzero;"/>
</svg>
