<?xml version="1.0" standalone="no"?>
<!DOCTYPE svg PUBLIC "-//W3C//DTD SVG 1.1//EN" "http://www.w3.org/Graphics/SVG/1.1/DTD/svg11.dtd">
<svg width="100%" height="100%" viewBox="0 0 401 346" version="1.1" xmlns="http://www.w3.org/2000/svg" xmlns:xlink="http://www.w3.org/1999/xlink" xml:space="preserve" style="fill-rule:evenodd;clip-rule:evenodd;stroke-linecap:round;stroke-linejoin:round;stroke-miterlimit:10;">
    <rect x="-479" y="-524" width="1677" height="1566" style="fill:white;fill-rule:nonzero;"/>
    <path d="M99.505,306.505C98.122,307.889 95.878,307.889 94.495,306.505C93.111,305.122 93.111,302.878 94.495,301.495C95.878,300.111 98.122,300.111 99.505,301.495C100.889,302.878 100.889,305.122 99.505,306.505" style="fill:black;fill-rule:nonzero;stroke-width:1px;stroke:black;"/>
    <path d="M243.505,306.505C242.122,307.889 239.878,307.889 238.495,306.505C237.111,305.122 237.111,302.878 238.495,301.495C239.878,300.111 242.122,300.111 243.505,301.495C244.889,302.878 244.889,305.122 243.505,306.505" style="fill:black;fill-rule:nonzero;stroke-width:1px;stroke:black;"/>
    <path d="M387.506,306.505C386.122,307.889 383.878,307.889 382.494,306.505C381.111,305.122 381.111,302.878 382.494,301.495C383.878,300.111 386.122,300.111 387.506,301.495C388.889,302.878 388.889,305.122 387.506,306.505" style="fill:black;fill-rule:nonzero;stroke-width:1px;stroke:black;"/>
    <path d="M25,340.101L169,340.101L241,304.101L97,304.101L25,340.101Z" style="fill:rgb(255,251,0);fill-opacity:0.501961;fill-rule:nonzero;"/>
    <path d="M25,340.5L169,340.5L241,304.5L97,304.5L25,340.5Z" style="fill:none;stroke-width:1px;stroke:black;"/>
    <path d="M169,340L313,340L385,304L241,304L169,340Z" style="fill:rgb(255,251,0);fill-opacity:0.501961;fill-rule:nonzero;"/>
    <path d="M169,340.5L313,340.5L385,304.5L241,304.5L169,340.5Z" style="fill:none;stroke-width:1px;stroke:black;"/>
    <path d="M27.505,342.505C26.122,343.889 23.878,343.889 22.495,342.505C21.111,341.122 21.111,338.878 22.495,337.495C23.878,336.111 26.122,336.111 27.505,337.495C28.889,338.878 28.889,341.122 27.505,342.505" style="fill:black;fill-rule:nonzero;stroke-width:1px;stroke:black;"/>
    <path d="M171.505,342.505C170.122,343.889 167.878,343.889 166.495,342.505C165.111,341.122 165.111,338.878 166.495,337.495C167.878,336.111 170.122,336.111 171.505,337.495C172.889,338.878 172.889,341.122 171.505,342.505" style="fill:black;fill-rule:nonzero;stroke-width:1px;stroke:black;"/>
    <path d="M315.506,342.505C314.122,343.889 311.878,343.889 310.494,342.505C309.111,341.122 309.111,338.878 310.494,337.495C311.878,336.111 314.122,336.111 315.506,337.495C316.889,338.878 316.889,341.122 315.506,342.505" style="fill:black;fill-rule:nonzero;stroke-width:1px;stroke:black;"/>
    <path d="M74,291.8L74,154.2" style="fill:none;stroke-width:2px;stroke:black;"/>
    <path d="M69.2,154.2L78.8,154.2" style="fill:none;stroke-width:2px;stroke-linecap:butt;stroke-linejoin:miter;stroke:black;"/>
    <path d="M78.8,291.8L69.2,291.8" style="fill:none;stroke-width:2px;stroke-linecap:butt;stroke-linejoin:miter;stroke:black;"/>
    <path d="M88,297.152L87.88,299.185C89.434,299.113 89.434,299.113 89.745,299.113C89.865,299.113 90.462,299.137 91.515,299.185L91.515,298.467L90.582,298.42C90.008,298.396 89.913,298.204 89.913,297.033L89.913,292.657C89.913,289.166 88.908,287.899 86.135,287.899C85.107,287.899 84.15,288.162 83.242,288.712L81.974,289.477L81.974,291.031L82.596,291.199L82.907,290.457C83.409,289.334 83.648,289.166 84.748,289.166C86.995,289.166 87.928,290.051 88,292.227L85.633,292.657C82.381,293.255 81.018,294.379 81.018,296.459C81.018,298.324 82.142,299.4 84.031,299.4C84.461,299.4 84.867,299.328 85.035,299.209L88,297.152ZM88,296.148C87.306,297.128 85.8,298.037 84.867,298.037C83.911,298.037 83.074,297.152 83.074,296.124C83.074,295.24 83.552,294.403 84.27,293.948C84.867,293.59 86.183,293.255 88,292.992L88,296.148Z" style="fill:black;fill-rule:nonzero;"/>
    <path d="M85.839,152.145L85.624,151.954C84.572,152.361 83.783,152.552 81.894,152.839L81.894,153.508L83.233,153.508C83.664,153.508 83.831,153.771 83.831,154.489L83.831,165.655C83.831,167.137 83.807,167.783 83.64,169.456L84.022,169.6L84.979,168.739C86.485,169.6 87.8,169.982 88.948,169.982C92.582,169.982 94.399,166.252 94.399,163.049L94.399,162.857C94.088,159.414 91.913,157.717 89.785,157.717C88.183,157.717 86.604,158.649 85.839,160.49L85.839,152.145ZM89.043,159.653C91.052,159.653 92.319,161.279 92.319,163.838C92.319,166.516 90.884,168.381 88.852,168.381C87.609,168.381 85.839,167.615 85.839,167.089L85.839,161.949C85.839,161.112 87.178,159.653 89.043,159.653Z" style="fill:black;fill-rule:nonzero;"/>
    <g>
        <clipPath id="_clip1">
            <rect x="50" y="126.62" width="19.424" height="14.88"/>
        </clipPath>
        <g clip-path="url(#_clip1)">
            <g>
                <path d="M50.203,127.677L51.087,127.677C52.044,127.677 52.139,127.844 52.139,129.422L52.139,134.802C52.139,136.309 52.068,136.476 51.255,136.524L50.155,136.595L50.155,137.313C51.876,137.265 52.498,137.241 53.096,137.241C53.574,137.241 53.574,137.241 56.515,137.313L56.515,136.595L55.272,136.524C54.196,136.452 54.148,136.38 54.148,134.802L54.148,130.69C54.148,129.255 55.104,128.059 56.276,128.059C56.993,128.059 57.495,128.394 57.878,129.159L58.38,129.159L58.595,126.29C58.332,126.123 57.902,126.027 57.471,126.027C56.754,126.027 55.989,126.41 55.487,127.007L54.148,128.585L54.148,126.123L53.933,126.027C52.713,126.529 51.47,126.864 50.203,127.007L50.203,127.677Z" style="fill:black;fill-rule:nonzero;"/>
                <path d="M64.825,129.295C62.231,129.295 60.909,131.353 60.909,135.404C60.909,137.362 61.26,139.052 61.846,139.873C62.432,140.693 63.369,141.161 64.407,141.161C66.934,141.161 68.206,138.986 68.206,134.701C68.206,131.035 67.118,129.295 64.825,129.295ZM64.524,129.881C66.148,129.881 66.8,131.521 66.8,135.538C66.8,139.103 66.164,140.576 64.624,140.576C63.001,140.576 62.315,138.885 62.315,134.801C62.315,131.27 62.934,129.881 64.524,129.881Z" style="fill:black;fill-rule:nonzero;"/>
            </g>
        </g>
    </g>
    <g>
        <clipPath id="_clip2">
            <rect x="78" y="216.62" width="19" height="14.88"/>
        </clipPath>
        <g clip-path="url(#_clip2)">
            <g>
                <path d="M78.203,217.623L79.087,217.623C80.044,217.623 80.139,217.79 80.139,219.368L80.139,224.748C80.139,226.255 80.068,226.422 79.255,226.47L78.155,226.541L78.155,227.259C79.876,227.211 80.498,227.187 81.096,227.187C81.574,227.187 81.574,227.187 84.515,227.259L84.515,226.541L83.272,226.47C82.196,226.398 82.148,226.326 82.148,224.748L82.148,220.636C82.148,219.201 83.104,218.005 84.276,218.005C84.993,218.005 85.495,218.34 85.878,219.105L86.38,219.105L86.595,216.236C86.332,216.069 85.902,215.973 85.471,215.973C84.754,215.973 83.989,216.356 83.487,216.953L82.148,218.531L82.148,216.069L81.933,215.973C80.713,216.475 79.47,216.81 78.203,216.953L78.203,217.623Z" style="fill:black;fill-rule:nonzero;"/>
                <path d="M95.42,230.823L95.42,230.321L94.549,230.27C93.629,230.22 93.461,230.036 93.461,229.166L93.461,219.057L89.428,220.764L89.545,221.601L92.055,220.496L92.055,229.166C92.055,230.036 91.871,230.22 90.967,230.27L90.03,230.321L90.03,230.823C92.608,230.773 92.608,230.773 92.792,230.773C93.311,230.773 95.152,230.823 95.42,230.823Z" style="fill:black;fill-rule:nonzero;"/>
            </g>
        </g>
    </g>
    <path d="M42,291.8L42,10.2" style="fill:none;stroke-width:2px;stroke:black;"/>
    <path d="M37.7,10.2L47.3,10.2" style="fill:none;stroke-width:2px;stroke-linecap:butt;stroke-linejoin:miter;stroke:black;"/>
    <path d="M47.3,291.8L37.7,291.8" style="fill:none;stroke-width:2px;stroke-linecap:butt;stroke-linejoin:miter;stroke:black;"/>
    <g>
        <clipPath id="_clip3">
            <rect x="49.5" y="287.5" width="12" height="12"/>
        </clipPath>
        <g clip-path="url(#_clip3)">
            <path d="M56,297.152L55.88,299.185C57.434,299.113 57.434,299.113 57.745,299.113C57.865,299.113 58.462,299.137 59.515,299.185L59.515,298.467L58.582,298.42C58.008,298.396 57.913,298.204 57.913,297.033L57.913,292.657C57.913,289.166 56.908,287.899 54.135,287.899C53.107,287.899 52.15,288.162 51.242,288.712L49.974,289.477L49.974,291.031L50.596,291.199L50.907,290.457C51.409,289.334 51.648,289.166 52.748,289.166C54.995,289.166 55.928,290.051 56,292.227L53.633,292.657C50.381,293.255 49.018,294.379 49.018,296.459C49.018,298.324 50.142,299.4 52.031,299.4C52.461,299.4 52.867,299.328 53.035,299.209L56,297.152ZM56,296.148C55.306,297.128 53.8,298.037 52.867,298.037C51.911,298.037 51.074,297.152 51.074,296.124C51.074,295.24 51.552,294.403 52.27,293.948C52.867,293.59 54.183,293.255 56,292.992L56,296.148Z" style="fill:black;fill-rule:nonzero;"/>
        </g>
    </g>
    <g>
        <clipPath id="_clip4">
            <rect x="46.851" y="12.23" width="10.649" height="12.77"/>
        </clipPath>
        <g clip-path="url(#_clip4)">
            <path d="M55.793,16.677C55.793,15.577 55.913,14.597 56.128,13.736C55.363,12.684 54.334,12.23 53.259,12.23C50.294,12.23 46.851,15.481 46.851,18.757C46.851,18.877 46.874,18.972 46.874,19.092C46.874,22.32 49.146,24.591 52.35,24.591C53.593,24.591 55.387,24.137 55.626,23.778L56.128,23.013L55.889,22.654C55.004,23.133 54.239,23.348 53.378,23.348C50.724,23.348 48.979,21.292 48.979,18.135C48.979,15.577 50.174,14.142 52.326,14.142C53.378,14.142 54.526,14.621 54.956,15.218L55.123,16.677L55.793,16.677Z" style="fill:black;fill-rule:nonzero;"/>
        </g>
    </g>
    <g>
        <clipPath id="_clip5">
            <rect x="122" y="307.869" width="19.715" height="22.631"/>
        </clipPath>
        <g clip-path="url(#_clip5)">
            <g>
                <path d="M129.406,308.347C128.832,308.013 128.306,307.869 127.804,307.869C125.15,307.869 123.787,312.221 123.787,314.062L123.787,315.114L122.137,315.855L122.137,316.381L123.787,316.286L123.787,323.052C123.787,324.559 123.716,324.726 122.903,324.774L121.803,324.845L121.803,325.563C124.194,325.491 124.194,325.491 124.792,325.491C125.389,325.491 125.389,325.491 127.78,325.563L127.78,324.845L126.68,324.774C125.867,324.726 125.796,324.559 125.796,323.052L125.796,316.286L128.761,316.286L128.928,315.018L125.796,315.114L125.796,313.082C125.796,310.332 126.107,309.662 127.469,309.662C128.115,309.662 128.545,309.83 129.119,310.332L129.406,310.188L129.406,308.347Z" style="fill:black;fill-rule:nonzero;"/>
                <path d="M137.343,317.545C134.749,317.545 133.426,319.603 133.426,323.654C133.426,325.612 133.778,327.302 134.364,328.123C134.949,328.943 135.887,329.411 136.924,329.411C139.452,329.411 140.724,327.236 140.724,322.951C140.724,319.285 139.636,317.545 137.343,317.545ZM137.042,318.131C138.665,318.131 139.318,319.771 139.318,323.788C139.318,327.353 138.682,328.826 137.142,328.826C135.519,328.826 134.832,327.135 134.832,323.051C134.832,319.52 135.452,318.131 137.042,318.131Z" style="fill:black;fill-rule:nonzero;"/>
            </g>
        </g>
    </g>
    <g>
        <clipPath id="_clip6">
            <rect x="267" y="307.869" width="19" height="22.631"/>
        </clipPath>
        <g clip-path="url(#_clip6)">
            <g>
                <path d="M274.406,308.347C273.832,308.013 273.306,307.869 272.804,307.869C270.15,307.869 268.787,312.221 268.787,314.062L268.787,315.114L267.137,315.855L267.137,316.381L268.787,316.286L268.787,323.052C268.787,324.559 268.716,324.726 267.903,324.774L266.803,324.845L266.803,325.563C269.194,325.491 269.194,325.491 269.792,325.491C270.389,325.491 270.389,325.491 272.78,325.563L272.78,324.845L271.68,324.774C270.867,324.726 270.796,324.559 270.796,323.052L270.796,316.286L273.761,316.286L273.928,315.018L270.796,315.114L270.796,313.082C270.796,310.332 271.107,309.662 272.469,309.662C273.115,309.662 273.545,309.83 274.119,310.332L274.406,310.188L274.406,308.347Z" style="fill:black;fill-rule:nonzero;"/>
                <path d="M284.937,329.127L284.937,328.625L284.067,328.574C283.146,328.524 282.979,328.34 282.979,327.47L282.979,317.361L278.945,319.068L279.062,319.905L281.573,318.8L281.573,327.47C281.573,328.34 281.389,328.524 280.485,328.574L279.548,328.625L279.548,329.127C282.125,329.077 282.125,329.077 282.309,329.077C282.828,329.077 284.669,329.127 284.937,329.127Z" style="fill:black;fill-rule:nonzero;"/>
            </g>
        </g>
    </g>
    <g>
        <g>
            <path d="M46.23,317.719C47.785,317.719 49.936,316.811 50.223,316.38L50.702,315.567L50.391,315.328C48.86,316.237 48.311,316.452 47.282,316.452C45.728,316.452 44.437,315.759 43.768,314.587C43.313,313.798 43.146,313.128 43.098,311.742C43.6,311.813 44.318,311.837 45.13,311.837C47.187,311.837 49.793,311.646 50.917,311.407C50.941,311.072 50.965,310.857 50.965,310.57C50.965,307.82 49.195,306.027 46.517,306.027C45.633,306.027 44.557,306.147 43.6,306.72C41.64,307.868 40.874,309.518 40.874,312.005C40.874,316.643 44.102,317.719 46.23,317.719ZM48.837,310.857C48.263,310.929 47.043,311 45.824,311C44.796,311 43.768,310.929 43.146,310.785C43.146,309.661 43.242,309.135 43.552,308.514C44.055,307.462 45.083,306.816 46.23,306.816C47.019,306.816 47.641,307.127 48.071,307.773C48.597,308.562 48.765,309.255 48.837,310.857Z" style="fill:black;fill-rule:nonzero;"/>
            <path d="M55.784,309.295C53.19,309.295 51.867,311.353 51.867,315.404C51.867,317.362 52.219,319.052 52.805,319.873C53.39,320.693 54.328,321.161 55.365,321.161C57.893,321.161 59.165,318.986 59.165,314.701C59.165,311.035 58.077,309.295 55.784,309.295ZM55.482,309.881C57.106,309.881 57.759,311.521 57.759,315.538C57.759,319.103 57.123,320.576 55.583,320.576C53.959,320.576 53.273,318.885 53.273,314.801C53.273,311.27 53.892,309.881 55.482,309.881Z" style="fill:black;fill-rule:nonzero;"/>
        </g>
    </g>
    <g>
        <clipPath id="_clip7">
            <rect x="151" y="287.973" width="19" height="15.527"/>
        </clipPath>
        <g clip-path="url(#_clip7)">
            <g>
                <path d="M156.23,299.665C157.785,299.665 159.936,298.757 160.223,298.326L160.702,297.513L160.391,297.274C158.86,298.183 158.311,298.398 157.282,298.398C155.728,298.398 154.437,297.705 153.768,296.533C153.313,295.744 153.146,295.074 153.098,293.688C153.6,293.759 154.318,293.783 155.13,293.783C157.187,293.783 159.793,293.592 160.917,293.353C160.941,293.018 160.965,292.803 160.965,292.516C160.965,289.766 159.195,287.973 156.517,287.973C155.633,287.973 154.557,288.093 153.6,288.666C151.64,289.814 150.874,291.464 150.874,293.951C150.874,298.589 154.102,299.665 156.23,299.665ZM158.837,292.803C158.263,292.875 157.043,292.946 155.824,292.946C154.796,292.946 153.768,292.875 153.146,292.731C153.146,291.607 153.242,291.081 153.552,290.46C154.055,289.408 155.083,288.762 156.23,288.762C157.019,288.762 157.641,289.073 158.071,289.719C158.597,290.508 158.765,291.201 158.837,292.803Z" style="fill:black;fill-rule:nonzero;"/>
                <path d="M168.378,302.823L168.378,302.321L167.508,302.27C166.587,302.22 166.42,302.036 166.42,301.166L166.42,291.057L162.386,292.764L162.503,293.601L165.014,292.496L165.014,301.166C165.014,302.036 164.83,302.22 163.926,302.27L162.989,302.321L162.989,302.823C165.566,302.773 165.566,302.773 165.75,302.773C166.269,302.773 168.11,302.823 168.378,302.823Z" style="fill:black;fill-rule:nonzero;"/>
            </g>
        </g>
    </g>
    <g>
        <g>
            <clipPath id="_clip8">
                <rect x="299" y="288.62" width="19" height="14.88"/>
            </clipPath>
            <g clip-path="url(#_clip8)">
                <g>
                    <path d="M304.23,299.665C305.785,299.665 307.936,298.757 308.223,298.326L308.702,297.513L308.391,297.274C306.86,298.183 306.311,298.398 305.282,298.398C303.728,298.398 302.437,297.705 301.768,296.533C301.313,295.744 301.146,295.074 301.098,293.688C301.6,293.759 302.318,293.783 303.13,293.783C305.187,293.783 307.793,293.592 308.917,293.353C308.941,293.018 308.965,292.803 308.965,292.516C308.965,289.766 307.195,287.973 304.517,287.973C303.633,287.973 302.557,288.093 301.6,288.666C299.64,289.814 298.874,291.464 298.874,293.951C298.874,298.589 302.102,299.665 304.23,299.665ZM306.837,292.803C306.263,292.875 305.043,292.946 303.824,292.946C302.796,292.946 301.768,292.875 301.146,292.731C301.146,291.607 301.242,291.081 301.552,290.46C302.055,289.408 303.083,288.762 304.23,288.762C305.019,288.762 305.641,289.073 306.071,289.719C306.597,290.508 306.765,291.201 306.837,292.803Z" style="fill:black;fill-rule:nonzero;"/>
                    <path d="M309.65,302.388L309.65,302.823C312.78,302.823 312.78,302.773 313.382,302.773C313.985,302.773 313.985,302.823 317.215,302.823L317.215,301.4C315.29,301.484 314.52,301.417 311.424,301.484L314.47,298.254C316.093,296.53 316.596,295.609 316.596,294.354C316.596,292.429 315.29,291.241 313.164,291.241C311.959,291.241 311.139,291.575 310.319,292.412L310.035,294.689L310.52,294.689L310.738,293.919C311.005,292.948 311.608,292.529 312.729,292.529C314.169,292.529 315.089,293.433 315.089,294.856C315.089,296.111 314.386,297.35 312.495,299.358L309.65,302.388Z" style="fill:black;fill-rule:nonzero;"/>
                </g>
            </g>
        </g>
    </g>
    <g>
        <clipPath id="_clip9">
            <rect x="353" y="320.62" width="19" height="14.88"/>
        </clipPath>
        <g clip-path="url(#_clip9)">
            <g>
                <path d="M358.23,331.719C359.785,331.719 361.936,330.811 362.223,330.38L362.702,329.567L362.391,329.328C360.86,330.237 360.311,330.452 359.282,330.452C357.728,330.452 356.437,329.759 355.768,328.587C355.313,327.798 355.146,327.128 355.098,325.742C355.6,325.813 356.318,325.837 357.13,325.837C359.187,325.837 361.793,325.646 362.917,325.407C362.941,325.072 362.965,324.857 362.965,324.57C362.965,321.82 361.195,320.027 358.517,320.027C357.633,320.027 356.557,320.147 355.6,320.72C353.64,321.868 352.874,323.518 352.874,326.005C352.874,330.643 356.102,331.719 358.23,331.719ZM360.837,324.857C360.263,324.929 359.043,325 357.824,325C356.796,325 355.768,324.929 355.146,324.785C355.146,323.661 355.242,323.135 355.552,322.514C356.055,321.462 357.083,320.816 358.23,320.816C359.019,320.816 359.641,321.127 360.071,321.773C360.597,322.562 360.765,323.255 360.837,324.857Z" style="fill:black;fill-rule:nonzero;"/>
                <path d="M371.114,331.077C371.114,329.052 369.324,328.701 368.537,328.567C369.876,327.529 370.378,326.759 370.378,325.772C370.378,324.282 369.139,323.295 367.282,323.295C366.144,323.295 365.39,323.613 364.587,324.416L364.102,326.492L364.62,326.492L364.922,325.554C365.106,324.985 366.16,324.416 367.031,324.416C368.118,324.416 369.006,325.303 369.006,326.358C369.006,327.613 368.018,328.667 366.83,328.667C366.696,328.667 366.512,328.651 366.294,328.634L366.043,328.617L365.842,329.504L365.959,329.605C366.595,329.32 366.913,329.236 367.365,329.236C368.755,329.236 369.558,330.123 369.558,331.647C369.558,333.354 368.537,334.475 366.98,334.475C366.21,334.475 365.524,334.224 365.022,333.755C364.62,333.387 364.403,333.002 364.085,332.098L363.633,332.266C363.984,333.287 364.118,333.889 364.219,334.726C365.106,335.027 365.842,335.161 366.462,335.161C368.52,335.161 371.114,333.37 371.114,331.077Z" style="fill:black;fill-rule:nonzero;"/>
            </g>
        </g>
    </g>
    <g>
        <g>
            <clipPath id="_clip10">
                <rect x="101" y="324.62" width="19.37" height="14.88"/>
            </clipPath>
            <g clip-path="url(#_clip10)">
                <g>
                    <path d="M106.23,335.665C107.785,335.665 109.936,334.757 110.223,334.326L110.702,333.513L110.391,333.274C108.86,334.183 108.311,334.398 107.282,334.398C105.728,334.398 104.437,333.705 103.768,332.533C103.313,331.744 103.146,331.074 103.098,329.688C103.6,329.759 104.318,329.783 105.13,329.783C107.187,329.783 109.793,329.592 110.917,329.353C110.941,329.018 110.965,328.803 110.965,328.516C110.965,325.766 109.195,323.973 106.517,323.973C105.633,323.973 104.557,324.093 103.6,324.666C101.64,325.814 100.874,327.464 100.874,329.951C100.874,334.589 104.102,335.665 106.23,335.665ZM108.837,328.803C108.263,328.875 107.043,328.946 105.824,328.946C104.796,328.946 103.768,328.875 103.146,328.731C103.146,327.607 103.242,327.081 103.552,326.46C104.055,325.408 105.083,324.762 106.23,324.762C107.019,324.762 107.641,325.073 108.071,325.719C108.597,326.508 108.765,327.201 108.837,328.803Z" style="fill:black;fill-rule:nonzero;"/>
                    <path d="M116.068,335.743L116.068,336.998C116.068,338.003 115.884,338.237 115.064,338.27L114.026,338.321L114.026,338.823C116.252,338.773 116.252,338.773 116.654,338.773C117.056,338.773 117.056,338.773 119.282,338.823L119.282,338.321L118.478,338.27C117.658,338.22 117.474,338.003 117.474,336.998L117.474,335.743C118.462,335.743 118.813,335.76 119.282,335.81L119.282,334.622L117.474,334.672L117.491,327.107L116.152,327.609L111.415,335.358L111.415,335.743L116.068,335.743ZM116.068,334.672L112.47,334.672L116.068,328.781L116.068,334.672Z" style="fill:black;fill-rule:nonzero;"/>
                </g>
            </g>
        </g>
    </g>
    <g>
        <g>
            <path d="M250.23,335.719C251.785,335.719 253.936,334.811 254.223,334.38L254.702,333.567L254.391,333.328C252.86,334.237 252.311,334.452 251.282,334.452C249.728,334.452 248.437,333.759 247.768,332.587C247.313,331.798 247.146,331.128 247.098,329.742C247.6,329.813 248.318,329.837 249.13,329.837C251.187,329.837 253.793,329.646 254.917,329.407C254.941,329.072 254.965,328.857 254.965,328.57C254.965,325.82 253.195,324.027 250.517,324.027C249.633,324.027 248.557,324.147 247.6,324.72C245.64,325.868 244.874,327.518 244.874,330.005C244.874,334.643 248.102,335.719 250.23,335.719ZM252.837,328.857C252.263,328.929 251.043,329 249.824,329C248.796,329 247.768,328.929 247.146,328.785C247.146,327.661 247.242,327.135 247.552,326.514C248.055,325.462 249.083,324.816 250.23,324.816C251.019,324.816 251.641,325.127 252.071,325.773C252.597,326.562 252.765,327.255 252.837,328.857Z" style="fill:black;fill-rule:nonzero;"/>
            <path d="M263.064,334.592C263.064,332.701 261.709,331.362 259.8,331.362C258.997,331.362 258.395,331.412 257.508,332.199L257.508,328.701L262.612,328.717L262.612,327.295L256.637,327.278L256.637,333.437L256.972,333.538C257.759,332.751 258.21,332.517 259.031,332.517C260.637,332.517 261.642,333.655 261.642,335.462C261.642,337.32 260.57,338.408 258.746,338.408C257.842,338.408 257.005,338.107 256.771,337.672L256.001,336.299L255.599,336.534C255.984,337.488 256.185,338.023 256.42,338.76C256.888,339.011 257.558,339.161 258.277,339.161C260.42,339.161 263.064,337.337 263.064,334.592Z" style="fill:black;fill-rule:nonzero;"/>
        </g>
    </g>
    <g>
        <clipPath id="_clip11">
            <rect x="173.943" y="308.5" width="26.557" height="16"/>
        </clipPath>
        <g clip-path="url(#_clip11)">
            <g>
                <g>
                    <path d="M186.23,319.719C187.785,319.719 189.936,318.811 190.223,318.38L190.702,317.567L190.391,317.328C188.86,318.237 188.311,318.452 187.282,318.452C185.728,318.452 184.437,317.759 183.768,316.587C183.313,315.798 183.146,315.128 183.098,313.742C183.6,313.813 184.318,313.837 185.13,313.837C187.187,313.837 189.793,313.646 190.917,313.407C190.941,313.072 190.965,312.857 190.965,312.57C190.965,309.82 189.195,308.027 186.517,308.027C185.633,308.027 184.557,308.147 183.6,308.72C181.64,309.868 180.874,311.518 180.874,314.005C180.874,318.643 184.102,319.719 186.23,319.719ZM188.837,312.857C188.263,312.929 187.043,313 185.824,313C184.796,313 183.768,312.929 183.146,312.785C183.146,311.661 183.242,311.135 183.552,310.514C184.055,309.462 185.083,308.816 186.23,308.816C187.019,308.816 187.641,309.127 188.071,309.773C188.597,310.562 188.765,311.255 188.837,312.857Z" style="fill:black;fill-rule:nonzero;"/>
                    <path d="M193.574,317.287C193.926,314.257 195.416,312.6 198.428,311.696L197.725,311.295C196.118,311.83 195.432,312.165 194.579,312.901C192.855,314.358 191.917,316.4 191.917,318.693C191.917,321.454 193.256,323.161 195.416,323.161C197.591,323.161 199.215,321.437 199.215,319.161C199.215,317.236 198.06,315.981 196.286,315.981C194.997,315.981 194.462,316.634 193.574,317.287ZM195.65,316.985C196.922,316.985 197.775,318.09 197.775,319.747C197.775,321.488 196.922,322.609 195.633,322.609C194.21,322.609 193.441,321.387 193.441,319.144C193.441,318.559 193.508,318.241 193.692,317.956C194.06,317.387 194.846,316.985 195.65,316.985Z" style="fill:black;fill-rule:nonzero;"/>
                </g>
            </g>
        </g>
    </g>
    <g>
        <clipPath id="_clip12">
            <rect x="1" y="322.62" width="20" height="14.88"/>
        </clipPath>
        <g clip-path="url(#_clip12)">
            <g>
                <path d="M13.54,322.936L13.54,322.266C12.106,322.314 11.675,322.338 11.293,322.338C10.91,322.338 10.48,322.314 9.045,322.266L9.045,322.936L10.026,322.984C10.408,323.007 10.599,323.223 10.599,323.605C10.599,323.988 10.432,324.633 10.145,325.351C9.858,326.044 8.567,329.248 7.659,331.233L4.813,324.346C4.67,324.012 4.598,323.701 4.598,323.438C4.598,323.175 4.813,323.007 5.196,322.984L6.367,322.936L6.367,322.266C4.024,322.338 4.024,322.338 3.57,322.338C3.116,322.338 1.968,322.314 0.796,322.266L0.796,322.936L1.609,322.984C1.968,323.031 2.087,323.175 2.35,323.773L6.463,333.408L7.659,333.408L11.46,324.585C11.986,323.462 12.321,323.031 12.799,322.984L13.54,322.936Z" style="fill:black;fill-rule:nonzero;"/>
                <path d="M16.64,325.295C14.046,325.295 12.724,327.353 12.724,331.404C12.724,333.362 13.075,335.052 13.661,335.873C14.247,336.693 15.184,337.161 16.222,337.161C18.749,337.161 20.021,334.986 20.021,330.701C20.021,327.035 18.933,325.295 16.64,325.295ZM16.339,325.881C17.962,325.881 18.615,327.521 18.615,331.538C18.615,335.103 17.979,336.576 16.439,336.576C14.816,336.576 14.129,334.885 14.129,330.801C14.129,327.27 14.749,325.881 16.339,325.881Z" style="fill:black;fill-rule:nonzero;"/>
            </g>
        </g>
    </g>
    <g>
        <clipPath id="_clip13">
            <rect x="95" y="286.62" width="19.424" height="14.88"/>
        </clipPath>
        <g clip-path="url(#_clip13)">
            <g>
                <path d="M107.54,286.882L107.54,286.212C106.106,286.26 105.675,286.284 105.293,286.284C104.91,286.284 104.48,286.26 103.045,286.212L103.045,286.882L104.026,286.93C104.408,286.953 104.599,287.169 104.599,287.551C104.599,287.934 104.432,288.579 104.145,289.297C103.858,289.99 102.567,293.194 101.659,295.179L98.813,288.292C98.67,287.958 98.598,287.647 98.598,287.384C98.598,287.121 98.813,286.953 99.196,286.93L100.367,286.882L100.367,286.212C98.024,286.284 98.024,286.284 97.57,286.284C97.116,286.284 95.968,286.26 94.796,286.212L94.796,286.882L95.609,286.93C95.968,286.977 96.087,287.121 96.35,287.719L100.463,297.354L101.659,297.354L105.46,288.531C105.986,287.408 106.321,286.977 106.799,286.93L107.54,286.882Z" style="fill:black;fill-rule:nonzero;"/>
                <path d="M113.234,300.823L113.234,300.321L112.364,300.27C111.443,300.22 111.276,300.036 111.276,299.166L111.276,289.057L107.242,290.764L107.36,291.601L109.87,290.496L109.87,299.166C109.87,300.036 109.686,300.22 108.782,300.27L107.845,300.321L107.845,300.823C110.422,300.773 110.422,300.773 110.607,300.773C111.125,300.773 112.966,300.823 113.234,300.823Z" style="fill:black;fill-rule:nonzero;"/>
            </g>
        </g>
    </g>
    <g>
        <clipPath id="_clip14">
            <rect x="241" y="286.62" width="20" height="14.88"/>
        </clipPath>
        <g clip-path="url(#_clip14)">
            <g>
                <path d="M253.54,286.882L253.54,286.212C252.106,286.26 251.675,286.284 251.293,286.284C250.91,286.284 250.48,286.26 249.045,286.212L249.045,286.882L250.026,286.93C250.408,286.953 250.599,287.169 250.599,287.551C250.599,287.934 250.432,288.579 250.145,289.297C249.858,289.99 248.567,293.194 247.659,295.179L244.813,288.292C244.67,287.958 244.598,287.647 244.598,287.384C244.598,287.121 244.813,286.953 245.196,286.93L246.367,286.882L246.367,286.212C244.024,286.284 244.024,286.284 243.57,286.284C243.116,286.284 241.968,286.26 240.796,286.212L240.796,286.882L241.609,286.93C241.968,286.977 242.087,287.121 242.35,287.719L246.463,297.354L247.659,297.354L251.46,288.531C251.986,287.408 252.321,286.977 252.799,286.93L253.54,286.882Z" style="fill:black;fill-rule:nonzero;"/>
                <path d="M252.506,300.388L252.506,300.823C255.636,300.823 255.636,300.773 256.238,300.773C256.841,300.773 256.841,300.823 260.071,300.823L260.071,299.4C258.146,299.484 257.376,299.417 254.28,299.484L257.326,296.254C258.95,294.53 259.452,293.609 259.452,292.354C259.452,290.429 258.146,289.241 256.021,289.241C254.816,289.241 253.996,289.575 253.175,290.412L252.891,292.689L253.376,292.689L253.594,291.919C253.862,290.948 254.464,290.529 255.586,290.529C257.025,290.529 257.946,291.433 257.946,292.856C257.946,294.111 257.243,295.35 255.351,297.358L252.506,300.388Z" style="fill:black;fill-rule:nonzero;"/>
            </g>
        </g>
    </g>
    <g>
        <clipPath id="_clip15">
            <rect x="381" y="286.62" width="20" height="14.88"/>
        </clipPath>
        <g clip-path="url(#_clip15)">
            <g>
                <path d="M393.54,286.936L393.54,286.266C392.106,286.314 391.675,286.338 391.293,286.338C390.91,286.338 390.48,286.314 389.045,286.266L389.045,286.936L390.026,286.984C390.408,287.007 390.599,287.223 390.599,287.605C390.599,287.988 390.432,288.633 390.145,289.351C389.858,290.044 388.567,293.248 387.659,295.233L384.813,288.346C384.67,288.012 384.598,287.701 384.598,287.438C384.598,287.175 384.813,287.007 385.196,286.984L386.367,286.936L386.367,286.266C384.024,286.338 384.024,286.338 383.57,286.338C383.116,286.338 381.968,286.314 380.796,286.266L380.796,286.936L381.609,286.984C381.968,287.031 382.087,287.175 382.35,287.773L386.463,297.408L387.659,297.408L391.46,288.585C391.986,287.462 392.321,287.031 392.799,286.984L393.54,286.936Z" style="fill:black;fill-rule:nonzero;"/>
                <path d="M399.971,297.077C399.971,295.052 398.18,294.701 397.393,294.567C398.732,293.529 399.234,292.759 399.234,291.772C399.234,290.282 397.996,289.295 396.138,289.295C395,289.295 394.247,289.613 393.443,290.416L392.958,292.492L393.477,292.492L393.778,291.554C393.962,290.985 395.017,290.416 395.887,290.416C396.975,290.416 397.862,291.303 397.862,292.358C397.862,293.613 396.874,294.667 395.686,294.667C395.552,294.667 395.368,294.651 395.15,294.634L394.899,294.617L394.699,295.504L394.816,295.605C395.452,295.32 395.77,295.236 396.222,295.236C397.611,295.236 398.414,296.123 398.414,297.647C398.414,299.354 397.393,300.475 395.837,300.475C395.067,300.475 394.381,300.224 393.878,299.755C393.477,299.387 393.259,299.002 392.941,298.098L392.489,298.266C392.841,299.287 392.975,299.889 393.075,300.726C393.962,301.027 394.699,301.161 395.318,301.161C397.376,301.161 399.971,299.37 399.971,297.077Z" style="fill:black;fill-rule:nonzero;"/>
            </g>
        </g>
    </g>
    <g>
        <clipPath id="_clip16">
            <rect x="307.5" y="324" width="21" height="16"/>
        </clipPath>
        <g clip-path="url(#_clip16)">
            <g>
                <clipPath id="_clip17">
                    <rect x="307" y="324.62" width="21" height="14.88"/>
                </clipPath>
                <g clip-path="url(#_clip17)">
                    <g>
                        <path d="M319.54,324.882L319.54,324.212C318.106,324.26 317.675,324.284 317.293,324.284C316.91,324.284 316.48,324.26 315.045,324.212L315.045,324.882L316.026,324.93C316.408,324.953 316.599,325.169 316.599,325.551C316.599,325.934 316.432,326.579 316.145,327.297C315.858,327.99 314.567,331.194 313.659,333.179L310.813,326.292C310.67,325.958 310.598,325.647 310.598,325.384C310.598,325.121 310.813,324.953 311.196,324.93L312.367,324.882L312.367,324.212C310.024,324.284 310.024,324.284 309.57,324.284C309.116,324.284 307.968,324.26 306.796,324.212L306.796,324.882L307.609,324.93C307.968,324.977 308.087,325.121 308.35,325.719L312.463,335.354L313.659,335.354L317.46,326.531C317.986,325.408 318.321,324.977 318.799,324.93L319.54,324.882Z" style="fill:black;fill-rule:nonzero;"/>
                        <path d="M322.925,335.743L322.925,336.998C322.925,338.003 322.74,338.237 321.92,338.27L320.883,338.321L320.883,338.823C323.109,338.773 323.109,338.773 323.51,338.773C323.912,338.773 323.912,338.773 326.138,338.823L326.138,338.321L325.335,338.27C324.515,338.22 324.33,338.003 324.33,336.998L324.33,335.743C325.318,335.743 325.669,335.76 326.138,335.81L326.138,334.622L324.33,334.672L324.347,327.107L323.008,327.609L318.272,335.358L318.272,335.743L322.925,335.743ZM322.925,334.672L319.326,334.672L322.925,328.781L322.925,334.672Z" style="fill:black;fill-rule:nonzero;"/>
                    </g>
                </g>
            </g>
        </g>
    </g>
    <g>
        <clipPath id="_clip18">
            <rect x="163" y="324.62" width="20" height="14.88"/>
        </clipPath>
        <g clip-path="url(#_clip18)">
            <g>
                <path d="M175.54,324.936L175.54,324.266C174.106,324.314 173.675,324.338 173.293,324.338C172.91,324.338 172.48,324.314 171.045,324.266L171.045,324.936L172.026,324.984C172.408,325.007 172.599,325.223 172.599,325.605C172.599,325.988 172.432,326.633 172.145,327.351C171.858,328.044 170.567,331.248 169.659,333.233L166.813,326.346C166.67,326.012 166.598,325.701 166.598,325.438C166.598,325.175 166.813,325.007 167.196,324.984L168.367,324.936L168.367,324.266C166.024,324.338 166.024,324.338 165.57,324.338C165.116,324.338 163.968,324.314 162.796,324.266L162.796,324.936L163.609,324.984C163.968,325.031 164.087,325.175 164.35,325.773L168.463,335.408L169.659,335.408L173.46,326.585C173.986,325.462 174.321,325.031 174.799,324.984L175.54,324.936Z" style="fill:black;fill-rule:nonzero;"/>
                <path d="M181.921,334.592C181.921,332.701 180.565,331.362 178.657,331.362C177.853,331.362 177.251,331.412 176.364,332.199L176.364,328.701L181.469,328.717L181.469,327.295L175.493,327.278L175.493,333.437L175.828,333.538C176.615,332.751 177.067,332.517 177.887,332.517C179.494,332.517 180.498,333.655 180.498,335.462C180.498,337.32 179.427,338.408 177.602,338.408C176.699,338.408 175.862,338.107 175.627,337.672L174.857,336.299L174.456,336.534C174.841,337.488 175.042,338.023 175.276,338.76C175.745,339.011 176.414,339.161 177.134,339.161C179.276,339.161 181.921,337.337 181.921,334.592Z" style="fill:black;fill-rule:nonzero;"/>
            </g>
        </g>
    </g>
</svg>
