<?xml version="1.0" standalone="no"?>
<!DOCTYPE svg PUBLIC "-//W3C//DTD SVG 1.1//EN" "http://www.w3.org/Graphics/SVG/1.1/DTD/svg11.dtd">
<svg width="100%" height="100%" viewBox="0 0 372 345" version="1.1" xmlns="http://www.w3.org/2000/svg" xmlns:xlink="http://www.w3.org/1999/xlink" xml:space="preserve" style="fill-rule:evenodd;clip-rule:evenodd;stroke-linecap:round;stroke-linejoin:round;stroke-miterlimit:10;">
    <rect x="-66" y="-525" width="1677" height="1566" style="fill:white;fill-rule:nonzero;"/>
    <path d="M80.505,17.506C79.122,18.889 76.878,18.889 75.495,17.506C74.111,16.122 74.111,13.878 75.495,12.495C76.878,11.111 79.122,11.111 80.505,12.495C81.889,13.878 81.889,16.122 80.505,17.506" style="fill:black;fill-rule:nonzero;stroke-width:1px;stroke:black;"/>
    <path d="M224.505,17.506C223.122,18.889 220.878,18.889 219.495,17.506C218.111,16.122 218.111,13.878 219.495,12.495C220.878,11.111 223.122,11.111 224.505,12.495C225.889,13.878 225.889,16.122 224.505,17.506" style="fill:black;fill-rule:nonzero;stroke-width:1px;stroke:black;"/>
    <path d="M80.505,305.505C79.122,306.889 76.878,306.889 75.495,305.505C74.111,304.122 74.111,301.878 75.495,300.495C76.878,299.111 79.122,299.111 80.505,300.495C81.889,301.878 81.889,304.122 80.505,305.505" style="fill:black;fill-rule:nonzero;stroke-width:1px;stroke:black;"/>
    <path d="M224.505,305.505C223.122,306.889 220.878,306.889 219.495,305.505C218.111,304.122 218.111,301.878 219.495,300.495C220.878,299.111 223.122,299.111 224.505,300.495C225.889,301.878 225.889,304.122 224.505,305.505" style="fill:black;fill-rule:nonzero;stroke-width:1px;stroke:black;"/>
    <path d="M224.505,161.506C223.122,162.889 220.878,162.889 219.495,161.506C218.111,160.122 218.111,157.878 219.495,156.495C220.878,155.111 223.122,155.111 224.505,156.495C225.889,157.878 225.889,160.122 224.505,161.506" style="fill:black;fill-rule:nonzero;stroke-width:1px;stroke:black;"/>
    <rect x="78" y="15" width="144" height="288" style="fill:rgb(255,64,255);fill-opacity:0.501961;fill-rule:nonzero;"/>
    <rect x="78.5" y="15.5" width="144" height="288" style="fill:none;stroke-width:1px;stroke:black;"/>
    <rect x="222" y="159" width="144" height="144" style="fill:rgb(255,64,255);fill-opacity:0.501961;fill-rule:nonzero;"/>
    <rect x="222.5" y="159.5" width="144" height="144" style="fill:none;stroke-width:1px;stroke:black;"/>
    <path d="M6,339.101L150,339.101L222,303.101L78,303.101L6,339.101Z" style="fill:rgb(255,251,0);fill-opacity:0.501961;fill-rule:nonzero;"/>
    <path d="M6,339.5L150,339.5L222,303.5L78,303.5L6,339.5Z" style="fill:none;stroke-width:1px;stroke:black;"/>
    <path d="M150,339L294,339L366,303L222,303L150,339Z" style="fill:rgb(255,251,0);fill-opacity:0.501961;fill-rule:nonzero;"/>
    <path d="M150,339.5L294,339.5L366,303.5L222,303.5L150,339.5Z" style="fill:none;stroke-width:1px;stroke:black;"/>
    <path d="M6,51L6,339L78,303L78,15L6,51Z" style="fill:rgb(0,253,255);fill-opacity:0.501961;fill-rule:nonzero;"/>
    <path d="M6.5,51L6.5,339L78.5,303L78.5,15L6.5,51Z" style="fill:none;stroke-width:1px;stroke:black;"/>
    <path d="M150,195L150,339L222,303L222,159L150,195Z" style="fill:rgb(0,253,255);fill-opacity:0.501961;fill-rule:nonzero;"/>
    <path d="M150.5,195L150.5,339L222.5,303L222.5,159L150.5,195Z" style="fill:none;stroke-width:1px;stroke:black;"/>
    <path d="M150,195L222,159L222,15L150,51L150,195Z" style="fill:rgb(255,38,0);fill-opacity:0.501961;fill-rule:nonzero;"/>
    <path d="M150.5,195L222.5,159L222.5,15L150.5,51L150.5,195Z" style="fill:none;stroke-width:1px;stroke:black;"/>
    <path d="M294,339L366,303L366,159L294,195L294,339Z" style="fill:rgb(255,38,0);fill-opacity:0.501961;fill-rule:nonzero;"/>
    <path d="M294.5,339L366.5,303L366.5,159L294.5,195L294.5,339Z" style="fill:none;stroke-width:1px;stroke:black;"/>
    <path d="M6,51L78,15L222,15L150,51L6,51Z" style="fill:rgb(4,51,255);fill-opacity:0.74902;fill-rule:nonzero;"/>
    <path d="M6,51.5L78,15.5L222,15.5L150,51.5L6,51.5Z" style="fill:none;stroke-width:1px;stroke:black;"/>
    <path d="M150,339L222,303L222,159L150,195L150,339Z" style="fill:rgb(255,38,0);fill-opacity:0.501961;fill-rule:nonzero;"/>
    <path d="M150.5,339L222.5,303L222.5,159L150.5,195L150.5,339Z" style="fill:none;stroke-width:1px;stroke:black;"/>
    <rect x="6" y="51" width="144" height="288" style="fill:rgb(0,249,0);fill-opacity:0.501961;fill-rule:nonzero;"/>
    <rect x="6.5" y="51.5" width="144" height="288" style="fill:none;stroke-width:1px;stroke:black;"/>
    <path d="M8.505,53.506C7.122,54.889 4.878,54.889 3.495,53.506C2.111,52.122 2.111,49.878 3.495,48.495C4.878,47.111 7.122,47.111 8.505,48.495C9.889,49.878 9.889,52.122 8.505,53.506" style="fill:black;fill-rule:nonzero;stroke-width:1px;stroke:black;"/>
    <path d="M152.505,53.506C151.122,54.889 148.878,54.889 147.495,53.506C146.111,52.122 146.111,49.878 147.495,48.495C148.878,47.111 151.122,47.111 152.505,48.495C153.889,49.878 153.889,52.122 152.505,53.506" style="fill:black;fill-rule:nonzero;stroke-width:1px;stroke:black;"/>
    <path d="M8.505,341.505C7.122,342.889 4.878,342.889 3.495,341.505C2.111,340.122 2.111,337.878 3.495,336.495C4.878,335.111 7.122,335.111 8.505,336.495C9.889,337.878 9.889,340.122 8.505,341.505" style="fill:black;fill-rule:nonzero;stroke-width:1px;stroke:black;"/>
    <path d="M368.506,305.505C367.122,306.889 364.878,306.889 363.494,305.505C362.111,304.122 362.111,301.878 363.494,300.495C364.878,299.111 367.122,299.111 368.506,300.495C369.889,301.878 369.889,304.122 368.506,305.505" style="fill:black;fill-rule:nonzero;stroke-width:1px;stroke:black;"/>
    <path d="M368.506,161.506C367.122,162.889 364.878,162.889 363.494,161.506C362.111,160.122 362.111,157.878 363.494,156.495C364.878,155.111 367.122,155.111 368.506,156.495C369.889,157.878 369.889,160.122 368.506,161.506" style="fill:black;fill-rule:nonzero;stroke-width:1px;stroke:black;"/>
    <path d="M150,195L222,159L366,159L294,195L150,195Z" style="fill:rgb(4,51,255);fill-opacity:0.501961;fill-rule:nonzero;"/>
    <path d="M150,195.5L222,159.5L366,159.5L294,195.5L150,195.5Z" style="fill:none;stroke-width:1px;stroke:black;"/>
    <g>
        <clipPath id="_clip1">
            <rect x="128" y="312" width="21.944" height="24"/>
        </clipPath>
        <g clip-path="url(#_clip1)">
            <g>
                <path d="M140.324,319.126L140.324,318.457C138.89,318.505 138.459,318.528 138.077,318.528C137.694,318.528 137.264,318.505 135.829,318.457L135.829,319.126L136.81,319.174C137.192,319.198 137.383,319.413 137.383,319.796C137.383,320.178 137.216,320.824 136.929,321.541C136.642,322.235 135.351,325.439 134.442,327.423L131.597,320.537C131.454,320.202 131.382,319.891 131.382,319.628C131.382,319.365 131.597,319.198 131.98,319.174L133.151,319.126L133.151,318.457C130.808,318.528 130.808,318.528 130.354,318.528C129.899,318.528 128.752,318.505 127.58,318.457L127.58,319.126L128.393,319.174C128.752,319.222 128.871,319.365 129.134,319.963L133.247,329.599L134.442,329.599L138.244,320.776C138.77,319.652 139.105,319.222 139.583,319.174L140.324,319.126Z" style="fill:black;fill-rule:nonzero;"/>
                <path d="M145.295,318.188L145.211,319.611C146.299,319.561 146.299,319.561 146.517,319.561C146.6,319.561 147.019,319.577 147.755,319.611L147.755,319.109L147.103,319.075C146.701,319.058 146.634,318.925 146.634,318.104L146.634,315.042C146.634,312.598 145.931,311.711 143.989,311.711C143.27,311.711 142.6,311.895 141.964,312.28L141.077,312.816L141.077,313.903L141.512,314.021L141.73,313.502C142.081,312.715 142.249,312.598 143.019,312.598C144.592,312.598 145.245,313.217 145.295,314.74L143.638,315.042C141.362,315.46 140.408,316.247 140.408,317.703C140.408,319.008 141.194,319.761 142.517,319.761C142.818,319.761 143.102,319.711 143.219,319.628L145.295,318.188ZM145.295,317.485C144.81,318.171 143.755,318.807 143.102,318.807C142.433,318.807 141.847,318.188 141.847,317.468C141.847,316.849 142.182,316.263 142.684,315.945C143.102,315.694 144.023,315.46 145.295,315.276L145.295,317.485Z" style="fill:black;fill-rule:nonzero;"/>
                <path d="M146.709,331.109C146.709,329.217 145.353,327.878 143.445,327.878C142.642,327.878 142.039,327.928 141.152,328.715L141.152,325.217L146.257,325.234L146.257,323.811L140.282,323.794L140.282,329.954L140.616,330.054C141.403,329.267 141.855,329.033 142.675,329.033C144.282,329.033 145.286,330.171 145.286,331.979C145.286,333.837 144.215,334.925 142.39,334.925C141.487,334.925 140.65,334.623 140.415,334.188L139.646,332.816L139.244,333.05C139.629,334.004 139.83,334.54 140.064,335.276C140.533,335.527 141.202,335.678 141.922,335.678C144.064,335.678 146.709,333.853 146.709,331.109Z" style="fill:black;fill-rule:nonzero;"/>
            </g>
        </g>
    </g>
    <g>
        <clipPath id="_clip2">
            <rect x="124.5" y="172.5" width="21" height="29"/>
        </clipPath>
        <g clip-path="url(#_clip2)">
            <g>
                <g>
                    <path d="M136.774,184.926L136.774,184.257C135.339,184.305 134.909,184.328 134.526,184.328C134.144,184.328 133.713,184.305 132.279,184.257L132.279,184.926L133.259,184.974C133.642,184.998 133.833,185.213 133.833,185.596C133.833,185.978 133.666,186.624 133.379,187.341C133.092,188.035 131.801,191.239 130.892,193.223L128.047,186.337C127.903,186.002 127.831,185.691 127.831,185.428C127.831,185.165 128.047,184.998 128.429,184.974L129.601,184.926L129.601,184.257C127.258,184.328 127.258,184.328 126.803,184.328C126.349,184.328 125.201,184.305 124.03,184.257L124.03,184.926L124.843,184.974C125.201,185.022 125.321,185.165 125.584,185.763L129.696,195.399L130.892,195.399L134.694,186.576C135.22,185.452 135.554,185.022 136.033,184.974L136.774,184.926Z" style="fill:black;fill-rule:nonzero;"/>
                    <path d="M138.832,173.343L138.682,173.209C137.945,173.494 137.393,173.628 136.071,173.829L136.071,174.297L137.008,174.297C137.309,174.297 137.426,174.481 137.426,174.984L137.426,182.8C137.426,183.838 137.41,184.289 137.292,185.461L137.56,185.561L138.23,184.959C139.284,185.561 140.205,185.829 141.008,185.829C143.552,185.829 144.824,183.218 144.824,180.975L144.824,180.842C144.607,178.431 143.083,177.243 141.594,177.243C140.472,177.243 139.368,177.896 138.832,179.185L138.832,173.343ZM141.075,178.599C142.481,178.599 143.368,179.737 143.368,181.528C143.368,183.402 142.364,184.708 140.941,184.708C140.071,184.708 138.832,184.172 138.832,183.804L138.832,180.206C138.832,179.62 139.77,178.599 141.075,178.599Z" style="fill:black;fill-rule:nonzero;"/>
                    <path d="M143.158,196.909C143.158,195.017 141.803,193.678 139.894,193.678C139.091,193.678 138.489,193.728 137.602,194.515L137.602,191.017L142.706,191.034L142.706,189.611L136.731,189.594L136.731,195.754L137.066,195.854C137.853,195.067 138.304,194.833 139.125,194.833C140.731,194.833 141.736,195.971 141.736,197.779C141.736,199.637 140.664,200.725 138.84,200.725C137.936,200.725 137.099,200.423 136.865,199.988L136.095,198.616L135.693,198.85C136.078,199.804 136.279,200.34 136.514,201.076C136.982,201.327 137.652,201.478 138.371,201.478C140.514,201.478 143.158,199.653 143.158,196.909Z" style="fill:black;fill-rule:nonzero;"/>
                </g>
            </g>
        </g>
    </g>
    <g>
        <clipPath id="_clip3">
            <rect x="124.5" y="54" width="21" height="24"/>
        </clipPath>
        <g clip-path="url(#_clip3)">
            <g>
                <clipPath id="_clip4">
                    <rect x="124" y="54" width="21" height="24"/>
                </clipPath>
                <g clip-path="url(#_clip4)">
                    <g>
                        <path d="M136.774,61.126L136.774,60.457C135.339,60.505 134.909,60.528 134.526,60.528C134.144,60.528 133.713,60.505 132.279,60.457L132.279,61.126L133.259,61.174C133.642,61.198 133.833,61.413 133.833,61.796C133.833,62.178 133.666,62.824 133.379,63.541C133.092,64.235 131.801,67.439 130.892,69.423L128.047,62.537C127.903,62.202 127.831,61.891 127.831,61.628C127.831,61.365 128.047,61.198 128.429,61.174L129.601,61.126L129.601,60.457C127.258,60.528 127.258,60.528 126.803,60.528C126.349,60.528 125.201,60.505 124.03,60.457L124.03,61.126L124.843,61.174C125.201,61.222 125.321,61.365 125.584,61.963L129.696,71.599L130.892,71.599L134.694,62.776C135.22,61.652 135.554,61.222 136.033,61.174L136.774,61.126Z" style="fill:black;fill-rule:nonzero;"/>
                        <path d="M143,56.355C143,55.585 143.083,54.899 143.234,54.297C142.699,53.56 141.979,53.242 141.226,53.242C139.15,53.242 136.74,55.518 136.74,57.811C136.74,57.895 136.757,57.962 136.757,58.046C136.757,60.305 138.347,61.895 140.59,61.895C141.46,61.895 142.715,61.577 142.883,61.326L143.234,60.791L143.067,60.54C142.447,60.874 141.912,61.025 141.309,61.025C139.452,61.025 138.23,59.586 138.23,57.376C138.23,55.585 139.067,54.581 140.573,54.581C141.309,54.581 142.113,54.916 142.414,55.334L142.531,56.355L143,56.355Z" style="fill:black;fill-rule:nonzero;"/>
                        <path d="M143.158,73.109C143.158,71.217 141.803,69.878 139.894,69.878C139.091,69.878 138.489,69.928 137.602,70.715L137.602,67.217L142.706,67.234L142.706,65.811L136.731,65.794L136.731,71.954L137.066,72.054C137.853,71.267 138.304,71.033 139.125,71.033C140.731,71.033 141.736,72.171 141.736,73.979C141.736,75.837 140.664,76.925 138.84,76.925C137.936,76.925 137.099,76.623 136.865,76.188L136.095,74.816L135.693,75.05C136.078,76.004 136.279,76.54 136.514,77.276C136.982,77.527 137.652,77.678 138.371,77.678C140.514,77.678 143.158,75.853 143.158,73.109Z" style="fill:black;fill-rule:nonzero;"/>
                    </g>
                </g>
            </g>
        </g>
    </g>
    <g>
        <clipPath id="_clip5">
            <rect x="226.5" y="276" width="22" height="24"/>
        </clipPath>
        <g clip-path="url(#_clip5)">
            <g>
                <clipPath id="_clip6">
                    <rect x="226" y="276" width="21.944" height="24"/>
                </clipPath>
                <g clip-path="url(#_clip6)">
                    <g>
                        <path d="M238.324,283.126L238.324,282.457C236.89,282.505 236.459,282.528 236.077,282.528C235.694,282.528 235.264,282.505 233.829,282.457L233.829,283.126L234.81,283.174C235.192,283.198 235.383,283.413 235.383,283.796C235.383,284.178 235.216,284.824 234.929,285.541C234.642,286.235 233.351,289.439 232.442,291.423L229.597,284.537C229.454,284.202 229.382,283.891 229.382,283.628C229.382,283.365 229.597,283.198 229.98,283.174L231.151,283.126L231.151,282.457C228.808,282.528 228.808,282.528 228.354,282.528C227.899,282.528 226.752,282.505 225.58,282.457L225.58,283.126L226.393,283.174C226.752,283.222 226.871,283.365 227.134,283.963L231.247,293.599L232.442,293.599L236.244,284.776C236.77,283.652 237.105,283.222 237.583,283.174L238.324,283.126Z" style="fill:black;fill-rule:nonzero;"/>
                        <path d="M243.295,282.188L243.211,283.611C244.299,283.561 244.299,283.561 244.517,283.561C244.6,283.561 245.019,283.577 245.755,283.611L245.755,283.109L245.103,283.075C244.701,283.058 244.634,282.925 244.634,282.104L244.634,279.042C244.634,276.598 243.931,275.711 241.989,275.711C241.27,275.711 240.6,275.895 239.964,276.28L239.077,276.816L239.077,277.903L239.512,278.021L239.73,277.502C240.081,276.715 240.249,276.598 241.019,276.598C242.592,276.598 243.245,277.217 243.295,278.74L241.638,279.042C239.362,279.46 238.408,280.247 238.408,281.703C238.408,283.008 239.194,283.761 240.517,283.761C240.818,283.761 241.102,283.711 241.219,283.628L243.295,282.188ZM243.295,281.485C242.81,282.171 241.755,282.807 241.102,282.807C240.433,282.807 239.847,282.188 239.847,281.468C239.847,280.849 240.182,280.263 240.684,279.945C241.102,279.694 242.023,279.46 243.295,279.276L243.295,281.485Z" style="fill:black;fill-rule:nonzero;"/>
                        <path d="M237.294,298.958L237.294,299.393C240.424,299.393 240.424,299.343 241.026,299.343C241.629,299.343 241.629,299.393 244.859,299.393L244.859,297.971C242.935,298.054 242.165,297.987 239.068,298.054L242.114,294.824C243.738,293.1 244.24,292.18 244.24,290.924C244.24,288.999 242.935,287.811 240.809,287.811C239.604,287.811 238.784,288.146 237.964,288.983L237.679,291.259L238.164,291.259L238.382,290.489C238.65,289.518 239.252,289.1 240.374,289.1C241.813,289.1 242.734,290.004 242.734,291.426C242.734,292.682 242.031,293.92 240.139,295.929L237.294,298.958Z" style="fill:black;fill-rule:nonzero;"/>
                    </g>
                </g>
            </g>
        </g>
    </g>
    <g>
        <clipPath id="_clip7">
            <rect x="223.5" y="127.5" width="21" height="29"/>
        </clipPath>
        <g clip-path="url(#_clip7)">
            <g>
                <g>
                    <path d="M236.774,138.926L236.774,138.257C235.339,138.305 234.909,138.328 234.526,138.328C234.144,138.328 233.713,138.305 232.279,138.257L232.279,138.926L233.259,138.974C233.642,138.998 233.833,139.213 233.833,139.596C233.833,139.978 233.666,140.624 233.379,141.341C233.092,142.035 231.801,145.239 230.892,147.223L228.047,140.337C227.903,140.002 227.831,139.691 227.831,139.428C227.831,139.165 228.047,138.998 228.429,138.974L229.601,138.926L229.601,138.257C227.258,138.328 227.258,138.328 226.803,138.328C226.349,138.328 225.201,138.305 224.03,138.257L224.03,138.926L224.843,138.974C225.201,139.022 225.321,139.165 225.584,139.763L229.696,149.399L230.892,149.399L234.694,140.576C235.22,139.452 235.554,139.022 236.033,138.974L236.774,138.926Z" style="fill:black;fill-rule:nonzero;"/>
                    <path d="M238.832,127.343L238.682,127.209C237.945,127.494 237.393,127.628 236.071,127.829L236.071,128.297L237.008,128.297C237.309,128.297 237.426,128.481 237.426,128.984L237.426,136.8C237.426,137.838 237.41,138.289 237.292,139.461L237.56,139.561L238.23,138.959C239.284,139.561 240.205,139.829 241.008,139.829C243.552,139.829 244.824,137.218 244.824,134.975L244.824,134.842C244.607,132.431 243.083,131.243 241.594,131.243C240.472,131.243 239.368,131.896 238.832,133.185L238.832,127.343ZM241.075,132.599C242.481,132.599 243.368,133.737 243.368,135.528C243.368,137.402 242.364,138.708 240.941,138.708C240.071,138.708 238.832,138.172 238.832,137.804L238.832,134.206C238.832,133.62 239.77,132.599 241.075,132.599Z" style="fill:black;fill-rule:nonzero;"/>
                    <path d="M235.744,154.758L235.744,155.193C238.874,155.193 238.874,155.143 239.476,155.143C240.079,155.143 240.079,155.193 243.309,155.193L243.309,153.771C241.384,153.854 240.614,153.787 237.518,153.854L240.564,150.624C242.187,148.9 242.69,147.98 242.69,146.724C242.69,144.799 241.384,143.611 239.258,143.611C238.053,143.611 237.233,143.946 236.413,144.783L236.129,147.059L236.614,147.059L236.832,146.289C237.099,145.318 237.702,144.9 238.823,144.9C240.263,144.9 241.183,145.804 241.183,147.226C241.183,148.482 240.48,149.72 238.589,151.729L235.744,154.758Z" style="fill:black;fill-rule:nonzero;"/>
                </g>
            </g>
        </g>
    </g>
    <g>
        <clipPath id="_clip8">
            <rect x="226.5" y="0" width="21" height="24"/>
        </clipPath>
        <g clip-path="url(#_clip8)">
            <g>
                <clipPath id="_clip9">
                    <rect x="226" y="0" width="21" height="24"/>
                </clipPath>
                <g clip-path="url(#_clip9)">
                    <g>
                        <path d="M238.774,7.126L238.774,6.457C237.339,6.505 236.909,6.528 236.526,6.528C236.144,6.528 235.713,6.505 234.279,6.457L234.279,7.126L235.259,7.174C235.642,7.198 235.833,7.413 235.833,7.796C235.833,8.178 235.666,8.824 235.379,9.541C235.092,10.235 233.801,13.439 232.892,15.423L230.047,8.537C229.903,8.202 229.831,7.891 229.831,7.628C229.831,7.365 230.047,7.198 230.429,7.174L231.601,7.126L231.601,6.457C229.258,6.528 229.258,6.528 228.803,6.528C228.349,6.528 227.201,6.505 226.03,6.457L226.03,7.126L226.843,7.174C227.201,7.222 227.321,7.365 227.584,7.963L231.696,17.599L232.892,17.599L236.694,8.776C237.22,7.652 237.554,7.222 238.033,7.174L238.774,7.126Z" style="fill:black;fill-rule:nonzero;"/>
                        <path d="M245,2.355C245,1.585 245.083,0.899 245.234,0.297C244.699,-0.44 243.979,-0.758 243.226,-0.758C241.15,-0.758 238.74,1.518 238.74,3.811C238.74,3.895 238.757,3.962 238.757,4.046C238.757,6.305 240.347,7.895 242.59,7.895C243.46,7.895 244.715,7.577 244.883,7.326L245.234,6.791L245.067,6.54C244.447,6.874 243.912,7.025 243.309,7.025C241.452,7.025 240.23,5.586 240.23,3.376C240.23,1.585 241.067,0.581 242.573,0.581C243.309,0.581 244.113,0.916 244.414,1.334L244.531,2.355L245,2.355Z" style="fill:black;fill-rule:nonzero;"/>
                        <path d="M237.744,22.958L237.744,23.393C240.874,23.393 240.874,23.343 241.476,23.343C242.079,23.343 242.079,23.393 245.309,23.393L245.309,21.971C243.384,22.054 242.614,21.987 239.518,22.054L242.564,18.824C244.187,17.1 244.69,16.18 244.69,14.924C244.69,12.999 243.384,11.811 241.258,11.811C240.053,11.811 239.233,12.146 238.413,12.983L238.129,15.259L238.614,15.259L238.832,14.489C239.099,13.518 239.702,13.1 240.823,13.1C242.263,13.1 243.183,14.004 243.183,15.426C243.183,16.682 242.48,17.92 240.589,19.929L237.744,22.958Z" style="fill:black;fill-rule:nonzero;"/>
                    </g>
                </g>
            </g>
        </g>
    </g>
    <g>
        <clipPath id="_clip10">
            <rect x="177.75" y="289.5" width="21" height="24"/>
        </clipPath>
        <g clip-path="url(#_clip10)">
            <g>
                <clipPath id="_clip11">
                    <rect x="178" y="289" width="21" height="24"/>
                </clipPath>
                <g clip-path="url(#_clip11)">
                    <g>
                        <path d="M183.672,306.91C185.226,306.91 187.378,306.001 187.665,305.571L188.143,304.758L187.832,304.519C186.302,305.427 185.752,305.643 184.724,305.643C183.17,305.643 181.879,304.949 181.209,303.778C180.755,302.988 180.587,302.319 180.54,300.932C181.042,301.004 181.759,301.028 182.572,301.028C184.628,301.028 187.234,300.837 188.358,300.597C188.382,300.263 188.406,300.048 188.406,299.761C188.406,297.011 186.637,295.218 183.959,295.218C183.074,295.218 181.998,295.337 181.042,295.911C179.081,297.059 178.316,298.709 178.316,301.195C178.316,305.834 181.544,306.91 183.672,306.91ZM186.278,300.048C185.704,300.119 184.485,300.191 183.265,300.191C182.237,300.191 181.209,300.119 180.587,299.976C180.587,298.852 180.683,298.326 180.994,297.704C181.496,296.652 182.524,296.007 183.672,296.007C184.461,296.007 185.083,296.318 185.513,296.963C186.039,297.752 186.206,298.446 186.278,300.048Z" style="fill:black;fill-rule:nonzero;"/>
                        <path d="M194.246,295.188L194.163,296.611C195.25,296.561 195.25,296.561 195.468,296.561C195.552,296.561 195.97,296.577 196.707,296.611L196.707,296.109L196.054,296.075C195.652,296.058 195.585,295.925 195.585,295.104L195.585,292.042C195.585,289.598 194.882,288.711 192.941,288.711C192.221,288.711 191.552,288.895 190.916,289.28L190.028,289.816L190.028,290.903L190.464,291.021L190.681,290.502C191.033,289.715 191.2,289.598 191.97,289.598C193.543,289.598 194.196,290.217 194.246,291.74L192.589,292.042C190.313,292.46 189.359,293.247 189.359,294.703C189.359,296.008 190.146,296.761 191.468,296.761C191.769,296.761 192.054,296.711 192.171,296.628L194.246,295.188ZM194.246,294.485C193.761,295.171 192.706,295.807 192.054,295.807C191.384,295.807 190.798,295.188 190.798,294.468C190.798,293.849 191.133,293.263 191.635,292.945C192.054,292.694 192.974,292.46 194.246,292.276L194.246,294.485Z" style="fill:black;fill-rule:nonzero;"/>
                        <path d="M191.02,306.803C191.372,303.774 192.862,302.117 195.874,301.213L195.171,300.811C193.565,301.347 192.878,301.681 192.025,302.418C190.301,303.874 189.363,305.916 189.363,308.209C189.363,310.971 190.702,312.678 192.862,312.678C195.037,312.678 196.661,310.954 196.661,308.678C196.661,306.753 195.506,305.498 193.732,305.498C192.443,305.498 191.908,306.15 191.02,306.803ZM193.096,306.502C194.368,306.502 195.221,307.606 195.221,309.263C195.221,311.004 194.368,312.125 193.079,312.125C191.656,312.125 190.887,310.904 190.887,308.661C190.887,308.075 190.954,307.757 191.138,307.472C191.506,306.903 192.292,306.502 193.096,306.502Z" style="fill:black;fill-rule:nonzero;"/>
                    </g>
                </g>
            </g>
        </g>
    </g>
    <g>
        <clipPath id="_clip12">
            <rect x="180.5" y="139" width="19" height="29"/>
        </clipPath>
        <g clip-path="url(#_clip12)">
            <g>
                <clipPath id="_clip13">
                    <rect x="180" y="139" width="19" height="29"/>
                </clipPath>
                <g clip-path="url(#_clip13)">
                    <g>
                        <path d="M185.092,161.71C186.646,161.71 188.798,160.801 189.085,160.371L189.563,159.558L189.252,159.319C187.722,160.227 187.172,160.443 186.144,160.443C184.59,160.443 183.299,159.749 182.629,158.578C182.175,157.788 182.007,157.119 181.96,155.732C182.462,155.804 183.179,155.828 183.992,155.828C186.048,155.828 188.654,155.637 189.778,155.397C189.802,155.063 189.826,154.848 189.826,154.561C189.826,151.811 188.057,150.018 185.379,150.018C184.494,150.018 183.418,150.137 182.462,150.711C180.501,151.859 179.736,153.509 179.736,155.995C179.736,160.634 182.964,161.71 185.092,161.71ZM187.698,154.848C187.124,154.919 185.905,154.991 184.685,154.991C183.657,154.991 182.629,154.919 182.007,154.776C182.007,153.652 182.103,153.126 182.414,152.504C182.916,151.452 183.944,150.807 185.092,150.807C185.881,150.807 186.503,151.118 186.933,151.763C187.459,152.552 187.626,153.246 187.698,154.848Z" style="fill:black;fill-rule:nonzero;"/>
                        <path d="M192.754,139.343L192.603,139.209C191.867,139.494 191.315,139.628 189.992,139.829L189.992,140.297L190.93,140.297C191.231,140.297 191.348,140.481 191.348,140.984L191.348,148.8C191.348,149.838 191.331,150.289 191.214,151.461L191.482,151.561L192.151,150.959C193.206,151.561 194.126,151.829 194.93,151.829C197.474,151.829 198.746,149.218 198.746,146.975L198.746,146.842C198.528,144.431 197.005,143.243 195.516,143.243C194.394,143.243 193.29,143.896 192.754,145.185L192.754,139.343ZM194.997,144.599C196.403,144.599 197.29,145.737 197.29,147.528C197.29,149.402 196.285,150.708 194.863,150.708C193.993,150.708 192.754,150.172 192.754,149.804L192.754,146.206C192.754,145.62 193.691,144.599 194.997,144.599Z" style="fill:black;fill-rule:nonzero;"/>
                        <path d="M192.44,161.603C192.792,158.574 194.282,156.917 197.294,156.013L196.591,155.611C194.985,156.147 194.298,156.481 193.445,157.218C191.721,158.674 190.783,160.716 190.783,163.009C190.783,165.771 192.122,167.478 194.282,167.478C196.457,167.478 198.081,165.754 198.081,163.478C198.081,161.553 196.926,160.298 195.152,160.298C193.863,160.298 193.328,160.95 192.44,161.603ZM194.516,161.302C195.788,161.302 196.641,162.406 196.641,164.063C196.641,165.804 195.788,166.925 194.499,166.925C193.076,166.925 192.307,165.704 192.307,163.461C192.307,162.875 192.374,162.557 192.558,162.272C192.926,161.703 193.712,161.302 194.516,161.302Z" style="fill:black;fill-rule:nonzero;"/>
                    </g>
                </g>
            </g>
        </g>
    </g>
    <g>
        <clipPath id="_clip14">
            <rect x="180.5" y="31.5" width="19" height="24"/>
        </clipPath>
        <g clip-path="url(#_clip14)">
            <g>
                <clipPath id="_clip15">
                    <rect x="180" y="31" width="19" height="24"/>
                </clipPath>
                <g clip-path="url(#_clip15)">
                    <g>
                        <path d="M185.092,48.91C186.646,48.91 188.798,48.001 189.085,47.571L189.563,46.758L189.252,46.519C187.722,47.427 187.172,47.643 186.144,47.643C184.59,47.643 183.299,46.949 182.629,45.778C182.175,44.988 182.007,44.319 181.96,42.932C182.462,43.004 183.179,43.028 183.992,43.028C186.048,43.028 188.654,42.837 189.778,42.597C189.802,42.263 189.826,42.048 189.826,41.761C189.826,39.011 188.057,37.218 185.379,37.218C184.494,37.218 183.418,37.337 182.462,37.911C180.501,39.059 179.736,40.709 179.736,43.195C179.736,47.834 182.964,48.91 185.092,48.91ZM187.698,42.048C187.124,42.119 185.905,42.191 184.685,42.191C183.657,42.191 182.629,42.119 182.007,41.976C182.007,40.852 182.103,40.326 182.414,39.704C182.916,38.652 183.944,38.007 185.092,38.007C185.881,38.007 186.503,38.318 186.933,38.963C187.459,39.752 187.626,40.446 187.698,42.048Z" style="fill:black;fill-rule:nonzero;"/>
                        <path d="M196.922,33.355C196.922,32.585 197.005,31.899 197.156,31.297C196.62,30.56 195.901,30.242 195.147,30.242C193.072,30.242 190.662,32.518 190.662,34.811C190.662,34.895 190.679,34.962 190.679,35.046C190.679,37.305 192.269,38.895 194.511,38.895C195.382,38.895 196.637,38.577 196.804,38.326L197.156,37.791L196.988,37.54C196.369,37.874 195.834,38.025 195.231,38.025C193.373,38.025 192.151,36.586 192.151,34.376C192.151,32.585 192.988,31.581 194.495,31.581C195.231,31.581 196.034,31.916 196.336,32.334L196.453,33.355L196.922,33.355Z" style="fill:black;fill-rule:nonzero;"/>
                        <path d="M192.44,48.803C192.792,45.774 194.282,44.117 197.294,43.213L196.591,42.811C194.985,43.347 194.298,43.681 193.445,44.418C191.721,45.874 190.783,47.916 190.783,50.209C190.783,52.971 192.122,54.678 194.282,54.678C196.457,54.678 198.081,52.954 198.081,50.678C198.081,48.753 196.926,47.498 195.152,47.498C193.863,47.498 193.328,48.15 192.44,48.803ZM194.516,48.502C195.788,48.502 196.641,49.606 196.641,51.263C196.641,53.004 195.788,54.125 194.499,54.125C193.076,54.125 192.307,52.904 192.307,50.661C192.307,50.075 192.374,49.757 192.558,49.472C192.926,48.903 193.712,48.502 194.516,48.502Z" style="fill:black;fill-rule:nonzero;"/>
                    </g>
                </g>
            </g>
        </g>
    </g>
    <g>
        <g>
            <path d="M133.805,257.526L133.805,256.857C132.371,256.905 131.94,256.928 131.558,256.928C131.175,256.928 130.745,256.905 129.31,256.857L129.31,257.526L130.29,257.574C130.673,257.598 130.864,257.813 130.864,258.196C130.864,258.578 130.697,259.224 130.41,259.941C130.123,260.635 128.832,263.839 127.923,265.823L125.078,258.937C124.934,258.602 124.863,258.291 124.863,258.028C124.863,257.765 125.078,257.598 125.46,257.574L126.632,257.526L126.632,256.857C124.289,256.928 124.289,256.928 123.835,256.928C123.38,256.928 122.233,256.905 121.061,256.857L121.061,257.526L121.874,257.574C122.233,257.622 122.352,257.765 122.615,258.363L126.728,267.999L127.923,267.999L131.725,259.176C132.251,258.052 132.586,257.622 133.064,257.574L133.805,257.526Z" style="fill:black;fill-rule:nonzero;"/>
            <path d="M133.738,250.512L134.357,250.512C135.027,250.512 135.094,250.629 135.094,251.734L135.094,255.5C135.094,256.554 135.043,256.671 134.474,256.705L133.704,256.755L133.704,257.257C134.909,257.223 135.345,257.207 135.763,257.207C136.098,257.207 136.098,257.207 138.156,257.257L138.156,256.755L137.286,256.705C136.533,256.654 136.499,256.604 136.499,255.5L136.499,252.621C136.499,251.617 137.169,250.78 137.989,250.78C138.491,250.78 138.843,251.014 139.11,251.55L139.462,251.55L139.613,249.541C139.428,249.424 139.127,249.357 138.826,249.357C138.324,249.357 137.788,249.625 137.437,250.043L136.499,251.148L136.499,249.424L136.349,249.357C135.495,249.709 134.625,249.943 133.738,250.043L133.738,250.512Z" style="fill:black;fill-rule:nonzero;"/>
            <path d="M145.391,251.36C143.538,251.36 142.594,252.831 142.594,255.724C142.594,257.122 142.845,258.33 143.263,258.916C143.682,259.502 144.351,259.836 145.093,259.836C146.898,259.836 147.806,258.282 147.806,255.222C147.806,252.603 147.029,251.36 145.391,251.36ZM145.176,251.779C146.336,251.779 146.802,252.95 146.802,255.819C146.802,258.366 146.348,259.418 145.248,259.418C144.088,259.418 143.598,258.21 143.598,255.293C143.598,252.771 144.041,251.779 145.176,251.779Z" style="fill:black;fill-rule:nonzero;"/>
            <path d="M140.189,269.974C140.189,268.083 138.834,266.744 136.926,266.744C136.122,266.744 135.52,266.794 134.633,267.58L134.633,264.082L139.738,264.099L139.738,262.676L133.762,262.66L133.762,268.819L134.097,268.919C134.884,268.133 135.336,267.898 136.156,267.898C137.763,267.898 138.767,269.037 138.767,270.844C138.767,272.702 137.696,273.79 135.871,273.79C134.967,273.79 134.131,273.489 133.896,273.053L133.126,271.681L132.725,271.915C133.11,272.869 133.31,273.405 133.545,274.141C134.013,274.392 134.683,274.543 135.403,274.543C137.545,274.543 140.189,272.719 140.189,269.974Z" style="fill:black;fill-rule:nonzero;"/>
        </g>
    </g>
    <g>
        <clipPath id="_clip16">
            <rect x="122" y="105.5" width="28" height="26"/>
        </clipPath>
        <g clip-path="url(#_clip16)">
            <g>
                <g>
                    <path d="M134.805,113.526L134.805,112.857C133.371,112.905 132.94,112.928 132.558,112.928C132.175,112.928 131.745,112.905 130.31,112.857L130.31,113.526L131.29,113.574C131.673,113.598 131.864,113.813 131.864,114.196C131.864,114.578 131.697,115.224 131.41,115.941C131.123,116.635 129.832,119.839 128.923,121.823L126.078,114.937C125.934,114.602 125.863,114.291 125.863,114.028C125.863,113.765 126.078,113.598 126.46,113.574L127.632,113.526L127.632,112.857C125.289,112.928 125.289,112.928 124.835,112.928C124.38,112.928 123.233,112.905 122.061,112.857L122.061,113.526L122.874,113.574C123.233,113.622 123.352,113.765 123.615,114.363L127.728,123.999L128.923,123.999L132.725,115.176C133.251,114.052 133.586,113.622 134.064,113.574L134.805,113.526Z" style="fill:black;fill-rule:nonzero;"/>
                    <path d="M134.738,106.512L135.357,106.512C136.027,106.512 136.094,106.629 136.094,107.734L136.094,111.5C136.094,112.554 136.043,112.671 135.474,112.705L134.704,112.755L134.704,113.257C135.909,113.223 136.345,113.207 136.763,113.207C137.098,113.207 137.098,113.207 139.156,113.257L139.156,112.755L138.286,112.705C137.533,112.654 137.499,112.604 137.499,111.5L137.499,108.621C137.499,107.617 138.169,106.78 138.989,106.78C139.491,106.78 139.843,107.014 140.11,107.55L140.462,107.55L140.613,105.541C140.428,105.424 140.127,105.357 139.826,105.357C139.324,105.357 138.788,105.625 138.437,106.043L137.499,107.148L137.499,105.424L137.349,105.357C136.495,105.709 135.625,105.943 134.738,106.043L134.738,106.512Z" style="fill:black;fill-rule:nonzero;"/>
                    <path d="M148.245,115.633L148.245,115.274L147.623,115.239C146.965,115.203 146.846,115.071 146.846,114.449L146.846,107.229L143.965,108.448L144.048,109.046L145.842,108.257L145.842,114.449C145.842,115.071 145.71,115.203 145.064,115.239L144.395,115.274L144.395,115.633C146.236,115.597 146.236,115.597 146.368,115.597C146.738,115.597 148.053,115.633 148.245,115.633Z" style="fill:black;fill-rule:nonzero;"/>
                    <path d="M141.189,125.974C141.189,124.083 139.834,122.744 137.926,122.744C137.122,122.744 136.52,122.794 135.633,123.58L135.633,120.082L140.738,120.099L140.738,118.676L134.762,118.66L134.762,124.819L135.097,124.919C135.884,124.133 136.336,123.898 137.156,123.898C138.763,123.898 139.767,125.037 139.767,126.844C139.767,128.702 138.696,129.79 136.871,129.79C135.967,129.79 135.131,129.489 134.896,129.053L134.126,127.681L133.725,127.915C134.11,128.869 134.31,129.405 134.545,130.141C135.013,130.392 135.683,130.543 136.403,130.543C138.545,130.543 141.189,128.719 141.189,125.974Z" style="fill:black;fill-rule:nonzero;"/>
                </g>
            </g>
        </g>
    </g>
    <g>
        <clipPath id="_clip17">
            <rect x="224.5" y="222.5" width="29" height="26"/>
        </clipPath>
        <g clip-path="url(#_clip17)">
            <g>
                <g>
                    <path d="M236.805,231.526L236.805,230.857C235.371,230.905 234.94,230.928 234.558,230.928C234.175,230.928 233.745,230.905 232.31,230.857L232.31,231.526L233.29,231.574C233.673,231.598 233.864,231.813 233.864,232.196C233.864,232.578 233.697,233.224 233.41,233.941C233.123,234.635 231.832,237.839 230.923,239.823L228.078,232.937C227.934,232.602 227.863,232.291 227.863,232.028C227.863,231.765 228.078,231.598 228.46,231.574L229.632,231.526L229.632,230.857C227.289,230.928 227.289,230.928 226.835,230.928C226.38,230.928 225.233,230.905 224.061,230.857L224.061,231.526L224.874,231.574C225.233,231.622 225.352,231.765 225.615,232.363L229.728,241.999L230.923,241.999L234.725,233.176C235.251,232.052 235.586,231.622 236.064,231.574L236.805,231.526Z" style="fill:black;fill-rule:nonzero;"/>
                    <path d="M236.738,224.512L237.357,224.512C238.027,224.512 238.094,224.629 238.094,225.734L238.094,229.5C238.094,230.554 238.043,230.671 237.474,230.705L236.704,230.755L236.704,231.257C237.909,231.223 238.345,231.207 238.763,231.207C239.098,231.207 239.098,231.207 241.156,231.257L241.156,230.755L240.286,230.705C239.533,230.654 239.499,230.604 239.499,229.5L239.499,226.621C239.499,225.617 240.169,224.78 240.989,224.78C241.491,224.78 241.843,225.014 242.11,225.55L242.462,225.55L242.613,223.541C242.428,223.424 242.127,223.357 241.826,223.357C241.324,223.357 240.788,223.625 240.437,224.043L239.499,225.148L239.499,223.424L239.349,223.357C238.495,223.709 237.625,223.943 236.738,224.043L236.738,224.512Z" style="fill:black;fill-rule:nonzero;"/>
                    <path d="M248.391,225.36C246.538,225.36 245.594,226.831 245.594,229.724C245.594,231.122 245.845,232.33 246.263,232.916C246.682,233.502 247.351,233.836 248.093,233.836C249.898,233.836 250.806,232.282 250.806,229.222C250.806,226.603 250.029,225.36 248.391,225.36ZM248.176,225.779C249.336,225.779 249.802,226.95 249.802,229.819C249.802,232.366 249.348,233.418 248.248,233.418C247.088,233.418 246.598,232.21 246.598,229.293C246.598,226.771 247.041,225.779 248.176,225.779Z" style="fill:black;fill-rule:nonzero;"/>
                    <path d="M235.775,247.823L235.775,248.259C238.905,248.259 238.905,248.208 239.507,248.208C240.11,248.208 240.11,248.259 243.34,248.259L243.34,246.836C241.415,246.92 240.645,246.853 237.549,246.92L240.595,243.689C242.219,241.965 242.721,241.045 242.721,239.79C242.721,237.865 241.415,236.676 239.29,236.676C238.085,236.676 237.264,237.011 236.444,237.848L236.16,240.124L236.645,240.124L236.863,239.354C237.131,238.384 237.733,237.965 238.855,237.965C240.294,237.965 241.214,238.869 241.214,240.292C241.214,241.547 240.511,242.786 238.62,244.794L235.775,247.823Z" style="fill:black;fill-rule:nonzero;"/>
                </g>
            </g>
        </g>
    </g>
    <g>
        <clipPath id="_clip18">
            <rect x="222" y="73.5" width="28" height="26"/>
        </clipPath>
        <g clip-path="url(#_clip18)">
            <g>
                <g>
                    <path d="M234.805,81.526L234.805,80.857C233.371,80.905 232.94,80.928 232.558,80.928C232.175,80.928 231.745,80.905 230.31,80.857L230.31,81.526L231.29,81.574C231.673,81.598 231.864,81.813 231.864,82.196C231.864,82.578 231.697,83.224 231.41,83.941C231.123,84.635 229.832,87.839 228.923,89.823L226.078,82.937C225.934,82.602 225.863,82.291 225.863,82.028C225.863,81.765 226.078,81.598 226.46,81.574L227.632,81.526L227.632,80.857C225.289,80.928 225.289,80.928 224.835,80.928C224.38,80.928 223.233,80.905 222.061,80.857L222.061,81.526L222.874,81.574C223.233,81.622 223.352,81.765 223.615,82.363L227.728,91.999L228.923,91.999L232.725,83.176C233.251,82.052 233.586,81.622 234.064,81.574L234.805,81.526Z" style="fill:black;fill-rule:nonzero;"/>
                    <path d="M234.738,74.512L235.357,74.512C236.027,74.512 236.094,74.629 236.094,75.734L236.094,79.5C236.094,80.554 236.043,80.671 235.474,80.705L234.704,80.755L234.704,81.257C235.909,81.223 236.345,81.207 236.763,81.207C237.098,81.207 237.098,81.207 239.156,81.257L239.156,80.755L238.286,80.705C237.533,80.654 237.499,80.604 237.499,79.5L237.499,76.621C237.499,75.617 238.169,74.78 238.989,74.78C239.491,74.78 239.843,75.014 240.11,75.55L240.462,75.55L240.613,73.541C240.428,73.424 240.127,73.357 239.826,73.357C239.324,73.357 238.788,73.625 238.437,74.043L237.499,75.148L237.499,73.424L237.349,73.357C236.495,73.709 235.625,73.943 234.738,74.043L234.738,74.512Z" style="fill:black;fill-rule:nonzero;"/>
                    <path d="M248.245,83.633L248.245,83.274L247.623,83.239C246.965,83.203 246.846,83.071 246.846,82.449L246.846,75.229L243.965,76.448L244.048,77.046L245.842,76.257L245.842,82.449C245.842,83.071 245.71,83.203 245.064,83.239L244.395,83.274L244.395,83.633C246.236,83.597 246.236,83.597 246.368,83.597C246.738,83.597 248.053,83.633 248.245,83.633Z" style="fill:black;fill-rule:nonzero;"/>
                    <path d="M233.775,97.823L233.775,98.259C236.905,98.259 236.905,98.208 237.507,98.208C238.11,98.208 238.11,98.259 241.34,98.259L241.34,96.836C239.415,96.92 238.645,96.853 235.549,96.92L238.595,93.689C240.219,91.965 240.721,91.045 240.721,89.79C240.721,87.865 239.415,86.676 237.29,86.676C236.085,86.676 235.264,87.011 234.444,87.848L234.16,90.124L234.645,90.124L234.863,89.354C235.131,88.384 235.733,87.965 236.855,87.965C238.294,87.965 239.214,88.869 239.214,90.292C239.214,91.547 238.511,92.786 236.62,94.794L233.775,97.823Z" style="fill:black;fill-rule:nonzero;"/>
                </g>
            </g>
        </g>
    </g>
    <g>
        <g>
            <path d="M182.553,251.31C184.107,251.31 186.259,250.401 186.546,249.971L187.024,249.158L186.713,248.919C185.183,249.827 184.633,250.043 183.605,250.043C182.051,250.043 180.759,249.349 180.09,248.178C179.636,247.388 179.468,246.719 179.42,245.332C179.923,245.404 180.64,245.428 181.453,245.428C183.509,245.428 186.115,245.237 187.239,244.997C187.263,244.663 187.287,244.448 187.287,244.161C187.287,241.411 185.518,239.618 182.84,239.618C181.955,239.618 180.879,239.737 179.923,240.311C177.962,241.459 177.197,243.109 177.197,245.595C177.197,250.234 180.425,251.31 182.553,251.31ZM185.159,244.448C184.585,244.519 183.366,244.591 182.146,244.591C181.118,244.591 180.09,244.519 179.468,244.376C179.468,243.252 179.564,242.726 179.875,242.104C180.377,241.052 181.405,240.407 182.553,240.407C183.342,240.407 183.963,240.718 184.394,241.363C184.92,242.152 185.087,242.846 185.159,244.448Z" style="fill:black;fill-rule:nonzero;"/>
            <path d="M188.089,233.512L188.708,233.512C189.378,233.512 189.445,233.629 189.445,234.734L189.445,238.5C189.445,239.554 189.395,239.671 188.826,239.705L188.056,239.755L188.056,240.257C189.261,240.223 189.696,240.207 190.114,240.207C190.449,240.207 190.449,240.207 192.508,240.257L192.508,239.755L191.637,239.705C190.884,239.654 190.851,239.604 190.851,238.5L190.851,235.621C190.851,234.617 191.52,233.78 192.34,233.78C192.842,233.78 193.194,234.014 193.462,234.55L193.813,234.55L193.964,232.541C193.78,232.424 193.479,232.357 193.177,232.357C192.675,232.357 192.14,232.625 191.788,233.043L190.851,234.148L190.851,232.424L190.7,232.357C189.847,232.709 188.976,232.943 188.089,233.043L188.089,233.512Z" style="fill:black;fill-rule:nonzero;"/>
            <path d="M199.743,234.36C197.89,234.36 196.945,235.831 196.945,238.724C196.945,240.122 197.196,241.33 197.615,241.916C198.033,242.502 198.703,242.836 199.444,242.836C201.249,242.836 202.158,241.282 202.158,238.222C202.158,235.603 201.381,234.36 199.743,234.36ZM199.528,234.779C200.687,234.779 201.154,235.95 201.154,238.819C201.154,241.366 200.699,242.418 199.599,242.418C198.44,242.418 197.95,241.21 197.95,238.293C197.95,235.771 198.392,234.779 199.528,234.779Z" style="fill:black;fill-rule:nonzero;"/>
            <path d="M189.901,251.668C190.253,248.639 191.742,246.982 194.755,246.078L194.052,245.676C192.445,246.212 191.759,246.547 190.905,247.283C189.182,248.739 188.244,250.781 188.244,253.074C188.244,255.836 189.583,257.543 191.742,257.543C193.918,257.543 195.542,255.819 195.542,253.543C195.542,251.618 194.387,250.363 192.613,250.363C191.324,250.363 190.788,251.016 189.901,251.668ZM191.977,251.367C193.249,251.367 194.102,252.472 194.102,254.129C194.102,255.869 193.249,256.991 191.96,256.991C190.537,256.991 189.767,255.769 189.767,253.526C189.767,252.94 189.834,252.622 190.018,252.338C190.387,251.769 191.173,251.367 191.977,251.367Z" style="fill:black;fill-rule:nonzero;"/>
        </g>
    </g>
    <g>
        <g>
            <path d="M182.553,107.31C184.107,107.31 186.259,106.401 186.546,105.971L187.024,105.158L186.713,104.919C185.183,105.827 184.633,106.043 183.605,106.043C182.051,106.043 180.759,105.349 180.09,104.178C179.636,103.388 179.468,102.719 179.42,101.332C179.923,101.404 180.64,101.428 181.453,101.428C183.509,101.428 186.115,101.237 187.239,100.997C187.263,100.663 187.287,100.448 187.287,100.161C187.287,97.411 185.518,95.618 182.84,95.618C181.955,95.618 180.879,95.737 179.923,96.311C177.962,97.459 177.197,99.109 177.197,101.595C177.197,106.234 180.425,107.31 182.553,107.31ZM185.159,100.448C184.585,100.519 183.366,100.591 182.146,100.591C181.118,100.591 180.09,100.519 179.468,100.376C179.468,99.252 179.564,98.726 179.875,98.104C180.377,97.052 181.405,96.407 182.553,96.407C183.342,96.407 183.963,96.718 184.394,97.363C184.92,98.152 185.087,98.846 185.159,100.448Z" style="fill:black;fill-rule:nonzero;"/>
            <path d="M188.089,89.512L188.708,89.512C189.378,89.512 189.445,89.629 189.445,90.734L189.445,94.5C189.445,95.554 189.395,95.671 188.826,95.705L188.056,95.755L188.056,96.257C189.261,96.223 189.696,96.207 190.114,96.207C190.449,96.207 190.449,96.207 192.508,96.257L192.508,95.755L191.637,95.705C190.884,95.654 190.851,95.604 190.851,94.5L190.851,91.621C190.851,90.617 191.52,89.78 192.34,89.78C192.842,89.78 193.194,90.014 193.462,90.55L193.813,90.55L193.964,88.541C193.78,88.424 193.479,88.357 193.177,88.357C192.675,88.357 192.14,88.625 191.788,89.043L190.851,90.148L190.851,88.424L190.7,88.357C189.847,88.709 188.976,88.943 188.089,89.043L188.089,89.512Z" style="fill:black;fill-rule:nonzero;"/>
            <path d="M201.596,98.633L201.596,98.274L200.974,98.239C200.317,98.203 200.197,98.071 200.197,97.449L200.197,90.229L197.316,91.448L197.4,92.046L199.193,91.257L199.193,97.449C199.193,98.071 199.061,98.203 198.416,98.239L197.746,98.274L197.746,98.633C199.587,98.597 199.587,98.597 199.719,98.597C200.09,98.597 201.405,98.633 201.596,98.633Z" style="fill:black;fill-rule:nonzero;"/>
            <path d="M189.901,107.668C190.253,104.639 191.742,102.982 194.755,102.078L194.052,101.676C192.445,102.212 191.759,102.547 190.905,103.283C189.182,104.739 188.244,106.781 188.244,109.074C188.244,111.836 189.583,113.543 191.742,113.543C193.918,113.543 195.542,111.819 195.542,109.543C195.542,107.618 194.387,106.363 192.613,106.363C191.324,106.363 190.788,107.016 189.901,107.668ZM191.977,107.367C193.249,107.367 194.102,108.472 194.102,110.129C194.102,111.869 193.249,112.991 191.96,112.991C190.537,112.991 189.767,111.769 189.767,109.526C189.767,108.94 189.834,108.622 190.018,108.338C190.387,107.769 191.173,107.367 191.977,107.367Z" style="fill:black;fill-rule:nonzero;"/>
        </g>
    </g>
    <rect x="150" y="195" width="144" height="144" style="fill:rgb(0,249,0);fill-opacity:0.501961;fill-rule:nonzero;"/>
    <rect x="150.5" y="195.5" width="144" height="144" style="fill:none;stroke-width:1px;stroke:black;"/>
    <path d="M152.505,341.505C151.122,342.889 148.878,342.889 147.495,341.505C146.111,340.122 146.111,337.878 147.495,336.495C148.878,335.111 151.122,335.111 152.505,336.495C153.889,337.878 153.889,340.122 152.505,341.505" style="fill:black;fill-rule:nonzero;stroke-width:1px;stroke:black;"/>
    <path d="M152.505,197.506C151.122,198.889 148.878,198.889 147.495,197.506C146.111,196.122 146.111,193.878 147.495,192.495C148.878,191.111 151.122,191.111 152.505,192.495C153.889,193.878 153.889,196.122 152.505,197.506" style="fill:black;fill-rule:nonzero;stroke-width:1px;stroke:black;"/>
    <path d="M296.506,341.505C295.122,342.889 292.878,342.889 291.494,341.505C290.111,340.122 290.111,337.878 291.494,336.495C292.878,335.111 295.122,335.111 296.506,336.495C297.889,337.878 297.889,340.122 296.506,341.505" style="fill:black;fill-rule:nonzero;stroke-width:1px;stroke:black;"/>
    <path d="M296.506,197.506C295.122,198.889 292.878,198.889 291.494,197.506C290.111,196.122 290.111,193.878 291.494,192.495C292.878,191.111 295.122,191.111 296.506,192.495C297.889,193.878 297.889,196.122 296.506,197.506" style="fill:black;fill-rule:nonzero;stroke-width:1px;stroke:black;"/>
</svg>
