<?xml version="1.0" standalone="no"?>
<!DOCTYPE svg PUBLIC "-//W3C//DTD SVG 1.1//EN" "http://www.w3.org/Graphics/SVG/1.1/DTD/svg11.dtd">
<svg width="100%" height="100%" viewBox="0 0 375 399" version="1.1" xmlns="http://www.w3.org/2000/svg" xmlns:xlink="http://www.w3.org/1999/xlink" xml:space="preserve" style="fill-rule:evenodd;clip-rule:evenodd;stroke-linecap:round;stroke-linejoin:round;stroke-miterlimit:10;">
    <g>
        <g opacity="0">
            <path d="M365.928,1.85C360.369,1.85 357.535,6.261 357.535,14.941C357.535,19.138 358.288,22.76 359.544,24.518C360.799,26.275 362.807,27.279 365.031,27.279C370.447,27.279 373.173,22.617 373.173,13.435C373.173,5.58 370.842,1.85 365.928,1.85ZM365.282,3.105C368.761,3.105 370.16,6.62 370.16,15.228C370.16,22.868 368.797,26.024 365.497,26.024C362.018,26.024 360.548,22.401 360.548,13.65C360.548,6.082 361.875,3.105 365.282,3.105Z" style="fill:black;fill-rule:nonzero;"/>
        </g>
    </g>
    <g>
        <g opacity="0">
            <path d="M365.928,372.7C360.369,372.7 357.535,377.112 357.535,385.792C357.535,389.988 358.288,393.611 359.544,395.368C360.799,397.125 362.807,398.13 365.031,398.13C370.447,398.13 373.173,393.467 373.173,384.285C373.173,376.43 370.842,372.7 365.928,372.7ZM365.282,373.956C368.761,373.956 370.16,377.47 370.16,386.078C370.16,393.718 368.797,396.874 365.497,396.874C362.018,396.874 360.548,393.252 360.548,384.5C360.548,376.932 361.875,373.956 365.282,373.956Z" style="fill:black;fill-rule:nonzero;"/>
        </g>
    </g>
    <g>
        <g opacity="0">
            <path d="M9.77,372.7C4.211,372.7 1.378,377.112 1.378,385.792C1.378,389.988 2.131,393.611 3.386,395.368C4.641,397.125 6.65,398.13 8.874,398.13C14.29,398.13 17.015,393.467 17.015,384.285C17.015,376.43 14.684,372.7 9.77,372.7ZM9.125,373.956C12.604,373.956 14.003,377.47 14.003,386.078C14.003,393.718 12.64,396.874 9.34,396.874C5.861,396.874 4.39,393.252 4.39,384.5C4.39,376.932 5.717,373.956 9.125,373.956Z" style="fill:black;fill-rule:nonzero;"/>
        </g>
    </g>
    <g>
        <g opacity="0">
            <path d="M9.77,4.196C4.211,4.196 1.378,8.608 1.378,17.288C1.378,21.484 2.131,25.107 3.386,26.864C4.641,28.622 6.65,29.626 8.874,29.626C14.29,29.626 17.015,24.963 17.015,15.781C17.015,7.926 14.684,4.196 9.77,4.196ZM9.125,5.452C12.604,5.452 14.003,8.967 14.003,17.575C14.003,25.214 12.64,28.37 9.34,28.37C5.861,28.37 4.39,24.748 4.39,15.996C4.39,8.429 5.717,5.452 9.125,5.452Z" style="fill:black;fill-rule:nonzero;"/>
        </g>
    </g>
    <path d="M17.386,29.772L17.386,369.929L130.772,256.543L130.772,143.158L244.158,143.158L244.158,256.543L130.772,256.543L17.386,369.929L357.543,369.929L357.543,29.772L17.386,29.772Z" style="fill:rgb(255,64,255);fill-opacity:0.501961;fill-rule:nonzero;stroke-width:2px;stroke:black;"/>
</svg>
