<?xml version="1.0" standalone="no"?>
<!DOCTYPE svg PUBLIC "-//W3C//DTD SVG 1.1//EN" "http://www.w3.org/Graphics/SVG/1.1/DTD/svg11.dtd">
<svg width="100%" height="100%" viewBox="0 0 374 399" version="1.1" xmlns="http://www.w3.org/2000/svg" xmlns:xlink="http://www.w3.org/1999/xlink" xml:space="preserve" style="fill-rule:evenodd;clip-rule:evenodd;stroke-linecap:round;stroke-linejoin:round;stroke-miterlimit:10;">
    <path d="M16.929,29.772L16.929,369.929L130.315,256.543L130.315,143.158L243.701,143.158L243.701,256.543L130.315,256.543L16.929,369.929L357.087,369.929L357.087,29.772L16.929,29.772Z" style="fill:rgb(255,64,255);fill-opacity:0.501961;fill-rule:nonzero;stroke-width:2px;stroke:black;"/>
    <path d="M243.701,143.158L300.394,86.465" style="fill:none;stroke-width:1px;stroke:black;"/>
    <path d="M300.394,86.465L243.701,256.543" style="fill:none;stroke-width:1px;stroke:black;"/>
    <path d="M300.394,86.465L130.315,143.158" style="fill:none;stroke-width:1px;stroke:black;"/>
    <path d="M300.394,86.465L357.087,29.772" style="fill:none;stroke-width:1px;stroke:black;"/>
    <path d="M300.394,86.465C300.394,86.465 326.852,119.544 342.913,199.85C358.975,280.157 357.087,369.929 357.087,369.929" style="fill:none;stroke-width:1px;stroke:black;"/>
    <path d="M300.394,86.465C300.394,86.465 267.315,60.006 187.008,43.945C106.701,27.883 16.929,29.772 16.929,29.772" style="fill:none;stroke-width:1px;stroke:black;"/>
    <path d="M300.394,86.465C300.394,86.465 164.326,80.8 116.142,128.984C67.958,177.168 130.315,256.543 130.315,256.543" style="fill:none;stroke-width:1px;stroke:black;"/>
    <path d="M300.394,86.465C300.394,86.465 306.058,222.532 257.874,270.716C209.69,318.901 130.315,256.543 130.315,256.543" style="fill:none;stroke-width:1px;stroke:black;"/>
    <path d="M300.394,86.465C300.394,86.465 352.354,204.583 272.047,284.89C191.74,365.197 16.929,369.929 16.929,369.929" style="fill:none;stroke-width:1px;stroke:black;"/>
    <path d="M300.394,86.465C300.394,86.465 182.275,34.504 101.968,114.811C21.662,195.118 16.929,369.929 16.929,369.929" style="fill:none;stroke-width:1px;stroke:black;"/>
    <g>
        <path d="M292.025,75.212L292.025,76.144C298.733,76.144 298.733,76.037 300.024,76.037C301.315,76.037 301.315,76.144 308.237,76.144L308.237,73.096C304.113,73.275 302.463,73.132 295.827,73.275L302.355,66.353C305.834,62.658 306.91,60.686 306.91,57.996C306.91,53.871 304.113,51.325 299.557,51.325C296.975,51.325 295.218,52.042 293.46,53.835L292.85,58.713L293.891,58.713L294.357,57.063C294.931,54.983 296.222,54.086 298.625,54.086C301.71,54.086 303.682,56.023 303.682,59.072C303.682,61.762 302.176,64.416 298.123,68.72L292.025,75.212Z" style="fill:black;fill-rule:nonzero;"/>
    </g>
    <path d="M365.471,1.85C359.912,1.85 357.078,6.261 357.078,14.941C357.078,19.138 357.832,22.76 359.087,24.518C360.342,26.275 362.351,27.279 364.574,27.279C369.99,27.279 372.716,22.617 372.716,13.435C372.716,5.58 370.385,1.85 365.471,1.85ZM364.826,3.105C368.305,3.105 369.703,6.62 369.703,15.228C369.703,22.868 368.341,26.024 365.041,26.024C361.562,26.024 360.091,22.401 360.091,13.65C360.091,6.082 361.418,3.105 364.826,3.105Z" style="fill:black;fill-rule:nonzero;"/>
    <path d="M365.471,372.7C359.912,372.7 357.078,377.112 357.078,385.792C357.078,389.988 357.832,393.611 359.087,395.368C360.342,397.125 362.351,398.13 364.574,398.13C369.99,398.13 372.716,393.467 372.716,384.285C372.716,376.43 370.385,372.7 365.471,372.7ZM364.826,373.956C368.305,373.956 369.703,377.47 369.703,386.078C369.703,393.718 368.341,396.874 365.041,396.874C361.562,396.874 360.091,393.252 360.091,384.5C360.091,376.932 361.418,373.956 364.826,373.956Z" style="fill:black;fill-rule:nonzero;"/>
    <path d="M9.314,372.7C3.754,372.7 0.921,377.112 0.921,385.792C0.921,389.988 1.674,393.611 2.929,395.368C4.185,397.125 6.193,398.13 8.417,398.13C13.833,398.13 16.559,393.467 16.559,384.285C16.559,376.43 14.227,372.7 9.314,372.7ZM8.668,373.956C12.147,373.956 13.546,377.47 13.546,386.078C13.546,393.718 12.183,396.874 8.883,396.874C5.404,396.874 3.934,393.252 3.934,384.5C3.934,376.932 5.261,373.956 8.668,373.956Z" style="fill:black;fill-rule:nonzero;"/>
    <path d="M9.314,4.196C3.754,4.196 0.921,8.608 0.921,17.288C0.921,21.484 1.674,25.107 2.929,26.864C4.185,28.622 6.193,29.626 8.417,29.626C13.833,29.626 16.559,24.963 16.559,15.781C16.559,7.926 14.227,4.196 9.314,4.196ZM8.668,5.452C12.147,5.452 13.546,8.967 13.546,17.575C13.546,25.214 12.183,28.37 8.883,28.37C5.404,28.37 3.934,24.748 3.934,15.996C3.934,8.429 5.261,5.452 8.668,5.452Z" style="fill:black;fill-rule:nonzero;"/>
    <g>
        <path d="M142.504,148.102C136.945,148.102 134.111,152.514 134.111,161.194C134.111,165.39 134.864,169.013 136.12,170.77C137.375,172.528 139.383,173.532 141.607,173.532C147.023,173.532 149.749,168.869 149.749,159.687C149.749,151.833 147.418,148.102 142.504,148.102ZM141.858,149.358C145.337,149.358 146.736,152.873 146.736,161.481C146.736,169.12 145.373,172.277 142.073,172.277C138.594,172.277 137.124,168.654 137.124,159.903C137.124,152.335 138.451,149.358 141.858,149.358Z" style="fill:black;fill-rule:nonzero;"/>
        <path d="M144.134,226.077C138.575,226.077 135.741,230.488 135.741,239.168C135.741,243.364 136.495,246.987 137.75,248.744C139.005,250.502 141.014,251.506 143.238,251.506C148.653,251.506 151.379,246.843 151.379,237.662C151.379,229.807 149.048,226.077 144.134,226.077ZM143.489,227.332C146.968,227.332 148.367,230.847 148.367,239.455C148.367,247.095 147.004,250.251 143.704,250.251C140.225,250.251 138.754,246.628 138.754,237.877C138.754,230.309 140.081,227.332 143.489,227.332Z" style="fill:black;fill-rule:nonzero;"/>
    </g>
    <g>
        <path d="M229.717,148.102C224.158,148.102 221.324,152.514 221.324,161.194C221.324,165.39 222.078,169.013 223.333,170.77C224.588,172.528 226.597,173.532 228.82,173.532C234.236,173.532 236.962,168.869 236.962,159.687C236.962,151.833 234.631,148.102 229.717,148.102ZM229.072,149.358C232.551,149.358 233.949,152.873 233.949,161.481C233.949,169.12 232.587,172.277 229.287,172.277C225.808,172.277 224.337,168.654 224.337,159.903C224.337,152.335 225.664,149.358 229.072,149.358Z" style="fill:black;fill-rule:nonzero;"/>
        <path d="M231.348,226.077C225.788,226.077 222.955,230.488 222.955,239.168C222.955,243.364 223.708,246.987 224.963,248.744C226.219,250.502 228.227,251.506 230.451,251.506C235.867,251.506 238.593,246.843 238.593,237.662C238.593,229.807 236.261,226.077 231.348,226.077ZM230.702,227.332C234.181,227.332 235.58,230.847 235.58,239.455C235.58,247.095 234.217,250.251 230.917,250.251C227.438,250.251 225.968,246.628 225.968,237.877C225.968,230.309 227.295,227.332 230.702,227.332Z" style="fill:black;fill-rule:nonzero;"/>
    </g>
</svg>
