<?xml version="1.0" standalone="no"?>
<!DOCTYPE svg PUBLIC "-//W3C//DTD SVG 1.1//EN" "http://www.w3.org/Graphics/SVG/1.1/DTD/svg11.dtd">
<svg width="100%" height="100%" viewBox="0 0 454 455" version="1.1" xmlns="http://www.w3.org/2000/svg" xmlns:xlink="http://www.w3.org/1999/xlink" xml:space="preserve" style="fill-rule:evenodd;clip-rule:evenodd;stroke-linecap:round;stroke-linejoin:round;stroke-miterlimit:10;">
    <rect x="-680" y="-793" width="2236" height="1566" style="fill:white;fill-rule:nonzero;"/>
    <path d="M0.315,0.701L0.315,454.244L453.858,454.244L453.858,340.858L113.701,340.858L113.701,0.701L0.315,0.701Z" style="fill:rgb(0,84,147);fill-opacity:0.501961;fill-rule:nonzero;"/>
    <path d="M113.701,0.701L453.858,0.701L283.78,170.78L113.701,170.78L113.701,0.701Z" style="fill:rgb(255,38,0);fill-opacity:0.501961;fill-rule:nonzero;"/>
    <path d="M113.701,340.858L113.701,170.78L283.78,170.78L453.858,0.701L453.858,340.858L113.701,340.858Z" style="fill:rgb(0,143,81);fill-opacity:0.501961;fill-rule:nonzero;"/>
    <path d="M392.639,14.874L126.874,14.874" style="fill:none;stroke-width:2px;stroke:black;"/>
    <path d="M407.039,14.874L392.639,9.474L392.639,20.274L407.039,14.874Z" style="fill:black;fill-rule:nonzero;stroke-width:2px;stroke-linecap:butt;stroke-linejoin:miter;stroke:black;"/>
    <path d="M126.874,32.574L126.874,156.606" style="fill:none;stroke-width:2px;stroke:black;"/>
    <path d="M126.874,18.174L121.474,32.574L132.274,32.574L126.874,18.174Z" style="fill:black;fill-rule:nonzero;stroke-width:2px;stroke-linecap:butt;stroke-linejoin:miter;stroke:black;"/>
    <path d="M144.574,156.606L268.606,156.606" style="fill:none;stroke-width:2px;stroke:black;"/>
    <path d="M130.174,156.606L144.574,162.006L144.574,151.206L130.174,156.606Z" style="fill:black;fill-rule:nonzero;stroke-width:2px;stroke-linecap:butt;stroke-linejoin:miter;stroke:black;"/>
    <path d="M281.122,144.091L410.339,14.874" style="fill:none;stroke-width:2px;stroke:black;"/>
    <path d="M270.94,154.273L284.941,147.909L277.304,140.272L270.94,154.273Z" style="fill:black;fill-rule:nonzero;stroke-width:2px;stroke-linecap:butt;stroke-linejoin:miter;stroke:black;"/>
    <path d="M98.528,153.08L98.528,14.874" style="fill:none;stroke-width:2px;stroke:black;"/>
    <path d="M98.528,167.48L103.928,153.08L93.128,153.08L98.528,167.48Z" style="fill:black;fill-rule:nonzero;stroke-width:2px;stroke-linecap:butt;stroke-linejoin:miter;stroke:black;"/>
    <path d="M80.828,14.874L13.488,14.874" style="fill:none;stroke-width:2px;stroke:black;"/>
    <path d="M95.228,14.874L80.828,9.474L80.828,20.274L95.228,14.874Z" style="fill:black;fill-rule:nonzero;stroke-width:2px;stroke-linecap:butt;stroke-linejoin:miter;stroke:black;"/>
    <path d="M13.488,32.574L13.488,440.071" style="fill:none;stroke-width:2px;stroke:black;"/>
    <path d="M13.488,18.174L8.088,32.574L18.888,32.574L13.488,18.174Z" style="fill:black;fill-rule:nonzero;stroke-width:2px;stroke-linecap:butt;stroke-linejoin:miter;stroke:black;"/>
    <path d="M31.188,440.071L438.685,440.071" style="fill:none;stroke-width:2px;stroke:black;"/>
    <path d="M16.788,440.071L31.188,445.471L31.188,434.671L16.788,440.071Z" style="fill:black;fill-rule:nonzero;stroke-width:2px;stroke-linecap:butt;stroke-linejoin:miter;stroke:black;"/>
    <path d="M438.685,422.371L438.685,355.031" style="fill:none;stroke-width:2px;stroke:black;"/>
    <path d="M438.685,436.771L444.085,422.371L433.285,422.371L438.685,436.771Z" style="fill:black;fill-rule:nonzero;stroke-width:2px;stroke-linecap:butt;stroke-linejoin:miter;stroke:black;"/>
    <path d="M420.985,355.031L98.528,355.031" style="fill:none;stroke-width:2px;stroke:black;"/>
    <path d="M435.385,355.031L420.985,349.632L420.985,360.431L435.385,355.031Z" style="fill:black;fill-rule:nonzero;"/>
    <path d="M435.385,355.031L420.985,349.631L420.985,360.431L435.385,355.031Z" style="fill:none;stroke-width:2px;stroke-linecap:butt;stroke-linejoin:miter;stroke:black;"/>
    <path d="M98.528,337.331L98.528,170.78" style="fill:none;stroke-width:2px;stroke:black;"/>
    <path d="M98.528,351.732L103.928,337.332L93.128,337.332L98.528,351.732Z" style="fill:black;fill-rule:nonzero;"/>
    <path d="M98.528,351.731L103.928,337.331L93.128,337.331L98.528,351.731Z" style="fill:none;stroke-width:2px;stroke-linecap:butt;stroke-linejoin:miter;stroke:black;"/>
    <path d="M126.874,202.653L126.874,326.685" style="fill:none;stroke-width:2px;stroke:black;"/>
    <path d="M126.874,188.253L121.474,202.653L132.274,202.653L126.874,188.253Z" style="fill:black;fill-rule:nonzero;stroke-width:2px;stroke-linecap:butt;stroke-linejoin:miter;stroke:black;"/>
    <path d="M144.574,326.685L438.685,326.685" style="fill:none;stroke-width:2px;stroke:black;"/>
    <path d="M130.174,326.685L144.574,332.085L144.574,321.285L130.174,326.685Z" style="fill:black;fill-rule:nonzero;stroke-width:2px;stroke-linecap:butt;stroke-linejoin:miter;stroke:black;"/>
    <path d="M438.685,308.985L438.685,43.221" style="fill:none;stroke-width:2px;stroke:black;"/>
    <path d="M438.685,323.385L444.085,308.985L433.285,308.985L438.685,323.385Z" style="fill:black;fill-rule:nonzero;stroke-width:2px;stroke-linecap:butt;stroke-linejoin:miter;stroke:black;"/>
    <path d="M426.169,55.736L296.953,184.953" style="fill:none;stroke-width:2px;stroke:black;"/>
    <path d="M436.352,45.554L422.351,51.918L429.988,59.555L436.352,45.554Z" style="fill:black;fill-rule:nonzero;stroke-width:2px;stroke-linecap:butt;stroke-linejoin:miter;stroke:black;"/>
    <path d="M279.253,184.953L126.874,184.953" style="fill:none;stroke-width:2px;stroke:black;"/>
    <path d="M293.653,184.953L279.253,179.553L279.253,190.353L293.653,184.953Z" style="fill:black;fill-rule:nonzero;stroke-width:2px;stroke-linecap:butt;stroke-linejoin:miter;stroke:black;"/>
</svg>
