<?xml version="1.0" standalone="no"?>
<!DOCTYPE svg PUBLIC "-//W3C//DTD SVG 1.1//EN" "http://www.w3.org/Graphics/SVG/1.1/DTD/svg11.dtd">
<svg width="100%" height="100%" viewBox="0 0 485 859" version="1.1" xmlns="http://www.w3.org/2000/svg" xmlns:xlink="http://www.w3.org/1999/xlink" xml:space="preserve" style="fill-rule:evenodd;clip-rule:evenodd;stroke-linecap:round;stroke-linejoin:round;stroke-miterlimit:10;">
    <rect x="-642" y="-115" width="1612" height="1132" style="fill:white;fill-rule:nonzero;"/>
    <path d="M168.809,237.348C174.344,242.883 174.344,251.857 168.809,257.392C163.274,262.927 154.3,262.927 148.765,257.392C143.23,251.857 143.23,242.883 148.765,237.348C154.3,231.813 163.274,231.813 168.809,237.348" style="fill:black;fill-rule:nonzero;"/>
    <path d="M387.077,37.506C392.612,43.041 392.612,52.015 387.077,57.55C381.542,63.085 372.568,63.085 367.033,57.55C361.498,52.015 361.498,43.041 367.033,37.506C372.568,31.971 381.542,31.971 387.077,37.506" style="fill:black;fill-rule:nonzero;"/>
    <path d="M197.489,211.935L366.601,57.099" style="fill:none;stroke-width:3px;stroke:black;"/>
    <g>
        <path d="M172.708,234.625L205.998,221.228L188.981,202.642L172.708,234.625Z" style="fill:black;fill-rule:nonzero;"/>
        <path d="M208.566,221.812L169.557,237.51L188.625,200.033L208.566,221.812ZM175.858,231.74L203.43,220.645L189.336,205.251L175.858,231.74Z" style="fill:black;"/>
    </g>
    <path d="M311.959,821.285C317.494,826.82 317.494,835.794 311.959,841.329C306.424,846.864 297.45,846.864 291.915,841.329C286.38,835.794 286.38,826.82 291.915,821.285C297.45,815.75 306.424,815.75 311.959,821.285" style="fill:black;fill-rule:nonzero;"/>
    <path d="M120.62,551.994C126.155,557.529 126.155,566.503 120.62,572.038C115.085,577.573 106.111,577.573 100.577,572.038C95.041,566.503 95.041,557.529 100.577,551.994C106.111,546.459 115.085,546.459 120.62,551.994" style="fill:black;fill-rule:nonzero;"/>
    <path d="M118.542,510.146L156.642,261.381" style="fill:none;stroke-width:3px;stroke:black;"/>
    <g>
        <path d="M113.456,543.359L130.997,512.054L106.088,508.239L113.456,543.359Z" style="fill:black;fill-rule:nonzero;"/>
        <path d="M133.364,510.899L112.809,547.582L104.175,506.429L133.364,510.899ZM114.103,539.136L128.631,513.209L108,510.049L114.103,539.136Z" style="fill:black;"/>
    </g>
    <path d="M271.543,788.53L118.809,573.571" style="fill:none;stroke-width:3px;stroke:black;"/>
    <g>
        <path d="M291.004,815.92L281.814,781.232L261.272,795.828L291.004,815.92Z" style="fill:black;fill-rule:nonzero;"/>
        <path d="M293.479,819.403L258.638,795.859L282.71,778.756L293.479,819.403ZM263.905,795.797L288.53,812.438L280.918,783.709L263.905,795.797Z" style="fill:black;"/>
    </g>
    <path d="M221.499,189.952C221.499,189.952 226.011,231.312 206.105,261.543C200.414,270.188 193.491,276.76 186.506,281.738" style="fill:none;stroke-width:3px;stroke:rgb(171,57,51);"/>
    <g>
        <path d="M155.567,294.83L191.421,293.34L181.6,270.132L155.567,294.83Z" style="fill:rgb(171,57,51);fill-rule:nonzero;"/>
        <path d="M193.646,294.749L151.632,296.495L182.138,267.554L193.646,294.749ZM159.501,293.165L189.196,291.931L181.062,272.71L159.501,293.165Z" style="fill:rgb(171,57,51);"/>
    </g>
    <path d="M121.767,489.09C121.767,489.09 147.522,507.142 153.474,540.632C155.31,550.966 154.994,561.272 153.68,570.581" style="fill:none;stroke-width:3px;stroke:rgb(171,57,51);"/>
    <g>
        <path d="M144.113,602.795L165.757,574.173L141.6,566.998L144.113,602.795Z" style="fill:rgb(171,57,51);fill-rule:nonzero;"/>
        <path d="M168.259,573.351L142.896,606.89L139.952,564.944L168.259,573.351ZM145.329,598.7L163.255,574.994L143.248,569.052L145.329,598.7Z" style="fill:rgb(171,57,51);"/>
    </g>
    <g>
        <g opacity="0.5">
            <g>
                <path d="M421.535,50.746C427.114,50.746 438.572,43.473 442.856,37.196C446.941,31.119 450.328,20.16 450.328,12.687C450.328,6.012 448.036,1.628 444.45,1.628C440.265,1.628 434.985,4.219 429.804,8.901C425.719,12.388 423.727,14.979 420.14,20.857L422.531,9.001C422.83,7.307 423.029,5.813 423.029,4.617C423.029,2.724 422.232,1.628 420.837,1.628C418.745,1.628 414.959,3.721 407.587,9.001L404.797,10.994L405.494,12.986L408.683,10.894C411.472,9.101 412.568,8.602 413.465,8.602C414.461,8.602 415.159,9.499 415.159,10.894C415.159,11.691 414.959,13.684 414.76,14.68L408.982,48.853C407.985,54.831 406.092,63.897 404.1,72.864L403.303,76.55L404,77.148C406.092,76.45 408.085,75.952 411.273,75.454L415.457,49.351C417.55,50.049 419.742,50.746 421.535,50.746ZM418.247,33.211C420.439,20.458 431.099,7.407 439.369,7.407C441.959,7.407 443.155,9.599 443.155,14.182C443.155,22.252 439.169,34.108 433.889,41.68C431.896,44.569 428.708,46.063 424.623,46.063C421.535,46.063 419.044,45.366 416.454,43.772L418.247,33.211Z" style="fill:black;fill-rule:nonzero;"/>
                <path d="M484.117,70.868L484.117,68.25L480.335,68.032C476.334,67.814 475.607,67.013 475.607,63.232L475.607,20.539L474.589,20.175C469.861,22.648 464.698,24.83 458.079,27.157L458.588,30.721L459.316,30.721L468.916,26.43C469.352,26.43 469.498,27.085 469.498,28.83L469.498,63.232C469.498,67.013 468.698,67.814 464.77,68.032L460.697,68.25L460.697,70.868C471.898,70.65 471.898,70.65 472.698,70.65C474.953,70.65 482.953,70.868 484.117,70.868Z" style="fill:black;fill-rule:nonzero;"/>
            </g>
        </g>
    </g>
    <g>
        <g opacity="0.5">
            <g>
                <path d="M69.535,226.746C75.114,226.746 86.572,219.473 90.856,213.196C94.941,207.119 98.328,196.16 98.328,188.687C98.328,182.012 96.036,177.628 92.45,177.628C88.265,177.628 82.985,180.219 77.804,184.901C73.719,188.388 71.727,190.979 68.14,196.857L70.531,185.001C70.83,183.307 71.029,181.813 71.029,180.617C71.029,178.724 70.232,177.628 68.837,177.628C66.745,177.628 62.959,179.721 55.587,185.001L52.797,186.994L53.494,188.986L56.683,186.894C59.472,185.101 60.568,184.602 61.465,184.602C62.461,184.602 63.159,185.499 63.159,186.894C63.159,187.691 62.959,189.684 62.76,190.68L56.982,224.853C55.985,230.831 54.092,239.897 52.1,248.864L51.303,252.55L52,253.148C54.092,252.45 56.085,251.952 59.273,251.454L63.457,225.351C65.55,226.049 67.742,226.746 69.535,226.746ZM66.247,209.211C68.439,196.458 79.099,183.407 87.369,183.407C89.959,183.407 91.155,185.599 91.155,190.182C91.155,198.252 87.169,210.108 81.889,217.68C79.896,220.569 76.708,222.063 72.623,222.063C69.535,222.063 67.044,221.366 64.454,219.772L66.247,209.211Z" style="fill:black;fill-rule:nonzero;"/>
                <path d="M102.879,242.286L102.879,246.868C116.48,246.868 116.48,246.65 119.098,246.65C121.716,246.65 121.716,246.868 135.753,246.868C135.753,245.341 135.608,244.614 135.608,243.595C135.608,242.65 135.753,241.923 135.753,240.322C127.389,240.686 124.043,240.759 110.588,241.05L123.825,227.013C130.88,219.522 133.062,215.522 133.062,210.067C133.062,201.703 127.389,196.539 118.152,196.539C112.916,196.539 109.352,197.994 105.788,201.63L104.552,211.521L107.752,211.521L108.697,208.176C109.861,203.957 111.388,202.139 116.261,202.139C122.516,202.139 126.516,206.067 126.516,212.249C126.516,217.703 121.207,222.722 112.989,231.449L102.879,242.286Z" style="fill:black;fill-rule:nonzero;"/>
            </g>
        </g>
    </g>
    <g>
        <g opacity="0.5">
            <g>
                <path d="M19.189,561.976C24.768,561.976 36.226,554.703 40.51,548.426C44.595,542.349 47.982,531.39 47.982,523.917C47.982,517.242 45.69,512.858 42.104,512.858C37.919,512.858 32.639,515.449 27.458,520.131C23.373,523.618 21.381,526.209 17.794,532.087L20.185,520.231C20.484,518.537 20.683,517.043 20.683,515.847C20.683,513.954 19.886,512.858 18.491,512.858C16.399,512.858 12.613,514.951 5.241,520.231L2.451,522.224L3.148,524.216L6.337,522.124C9.126,520.331 10.222,519.832 11.119,519.832C12.115,519.832 12.813,520.729 12.813,522.124C12.813,522.921 12.613,524.914 12.414,525.91L6.635,560.083C5.639,566.061 3.746,575.127 1.754,584.094L0.957,587.78L1.654,588.378C3.746,587.68 5.739,587.182 8.927,586.684L13.111,560.581C15.204,561.279 17.396,561.976 19.189,561.976ZM15.901,544.441C18.093,531.688 28.753,518.637 37.023,518.637C39.613,518.637 40.809,520.829 40.809,525.412C40.809,533.482 36.823,545.338 31.543,552.91C29.55,555.799 26.362,557.293 22.277,557.293C19.189,557.293 16.698,556.596 14.108,555.002L15.901,544.441Z" style="fill:black;fill-rule:nonzero;"/>
                <path d="M84.971,565.488C84.971,556.688 77.189,555.161 73.77,554.579C79.589,550.07 81.771,546.724 81.771,542.433C81.771,535.96 76.388,531.669 68.315,531.669C63.37,531.669 60.097,533.051 56.606,536.542L54.497,545.56L57.261,545.56L58.57,541.488C59.37,539.015 63.443,536.542 67.225,536.542C71.952,536.542 75.807,540.397 75.807,544.979C75.807,550.433 71.516,554.434 66.352,554.434C65.77,554.434 64.97,554.361 64.024,554.288L62.933,554.215L62.061,558.652L62.57,559.088C65.334,557.852 66.715,557.488 68.679,557.488C74.716,557.488 78.207,561.343 78.207,567.961C78.207,575.38 73.77,579.744 67.006,579.744C63.661,579.744 61.188,579.162 59.006,577.125C57.261,575.525 56.315,573.852 54.933,569.925L52.46,570.652L55.006,581.344C58.861,582.653 62.061,583.235 64.752,583.235C73.697,583.235 84.971,575.452 84.971,565.488Z" style="fill:black;fill-rule:nonzero;"/>
            </g>
        </g>
    </g>
    <g>
        <g opacity="0.5">
            <g>
                <path d="M348.189,831.976C353.768,831.976 365.226,824.703 369.51,818.426C373.595,812.349 376.982,801.39 376.982,793.917C376.982,787.242 374.69,782.858 371.104,782.858C366.919,782.858 361.639,785.449 356.458,790.131C352.373,793.618 350.381,796.209 346.794,802.087L349.185,790.231C349.484,788.537 349.683,787.043 349.683,785.847C349.683,783.954 348.886,782.858 347.491,782.858C345.399,782.858 341.613,784.951 334.241,790.231L331.451,792.224L332.148,794.216L335.337,792.124C338.126,790.331 339.222,789.832 340.119,789.832C341.115,789.832 341.813,790.729 341.813,792.124C341.813,792.921 341.613,794.914 341.414,795.91L335.635,830.083C334.639,836.061 332.746,845.127 330.754,854.094L329.957,857.78L330.654,858.378C332.746,857.68 334.739,857.182 337.927,856.684L342.111,830.581C344.204,831.279 346.396,831.976 348.189,831.976ZM344.901,814.441C347.093,801.688 357.753,788.637 366.023,788.637C368.613,788.637 369.809,790.829 369.809,795.412C369.809,803.482 365.823,815.338 360.543,822.91C358.55,825.799 355.362,827.293 351.277,827.293C348.189,827.293 345.698,826.596 343.108,825.002L344.901,814.441Z" style="fill:black;fill-rule:nonzero;"/>
                <path d="M400.734,838.616L400.734,843.343C400.734,847.707 399.934,848.725 396.37,848.871L391.861,849.089L391.861,851.998C401.534,851.78 401.534,851.78 403.279,851.78C405.025,851.78 405.025,851.78 414.698,851.998L414.698,849.089L411.207,848.871C407.643,848.653 406.843,847.707 406.843,843.343L406.843,838.616C411.134,838.616 412.661,838.689 414.698,838.907L414.698,833.743C414.189,833.743 409.17,833.961 408.807,833.961L406.843,833.961L406.843,823.852C406.843,810.906 406.989,804.651 407.352,801.669L406.479,801.305L401.097,803.269L380.515,836.943L381.315,838.616L400.734,838.616ZM400.734,833.961L385.824,833.961L400.734,809.087L400.734,833.961Z" style="fill:black;fill-rule:nonzero;"/>
            </g>
        </g>
    </g>
    <g>
        <path d="M260.445,264.399C260.445,257.035 255.075,252.662 248.094,252.509L248.094,251.818C255.229,249.44 261.673,243.379 261.749,235.555C261.826,230.721 259.371,227.96 254.461,227.96C237.047,227.96 233.979,244.607 232.061,257.955C229.989,272.378 227.995,286.8 224.619,301.069L224.619,301.836C226.614,301.146 228.532,300.456 230.603,299.995C231.063,292.554 232.137,285.189 233.211,277.901C243.568,286.57 260.445,277.288 260.445,264.399ZM241.803,279.205C237.431,279.205 234.669,276.674 234.746,272.224C234.899,264.399 239.809,236.398 246.56,231.872C251.086,228.88 256.763,231.719 256.379,237.319C255.766,245.834 249.015,251.665 240.883,251.665C240.653,254.196 240.883,251.128 240.576,254.887C247.787,252.355 254.615,256.421 254.231,264.169C253.924,271.304 249.935,279.205 241.803,279.205Z" style="fill:rgb(171,57,51);fill-rule:nonzero;"/>
        <path d="M287.92,296.387L287.92,294.371L285.008,294.203C281.928,294.035 281.368,293.419 281.368,290.507L281.368,257.634L280.584,257.354C276.944,259.258 272.967,260.938 267.871,262.73L268.263,265.474L268.823,265.474L276.216,262.17C276.552,262.17 276.664,262.674 276.664,264.018L276.664,290.507C276.664,293.419 276.048,294.035 273.023,294.203L269.887,294.371L269.887,296.387C278.512,296.219 278.512,296.219 279.128,296.219C280.864,296.219 287.024,296.387 287.92,296.387Z" style="fill:rgb(171,57,51);fill-rule:nonzero;"/>
    </g>
    <g>
        <path d="M203.752,525.187C203.752,517.822 198.382,513.449 191.401,513.296L191.401,512.605C198.536,510.227 204.98,504.167 205.056,496.342C205.133,491.509 202.678,488.747 197.768,488.747C180.354,488.747 177.286,505.394 175.368,518.742C173.296,533.165 171.302,547.587 167.926,561.856L167.926,562.623C169.921,561.933 171.839,561.243 173.91,560.782C174.37,553.341 175.444,545.976 176.518,538.688C186.875,547.357 203.752,538.075 203.752,525.187ZM185.11,539.993C180.738,539.993 177.976,537.461 178.053,533.011C178.206,525.187 183.116,497.185 189.867,492.659C194.393,489.667 200.07,492.506 199.686,498.106C199.073,506.621 192.322,512.452 184.19,512.452C183.96,514.983 184.19,511.915 183.883,515.674C191.094,513.142 197.922,517.208 197.538,524.956C197.231,532.091 193.242,539.993 185.11,539.993Z" style="fill:rgb(171,57,51);fill-rule:nonzero;"/>
        <path d="M231.227,557.174L231.227,555.158L228.315,554.99C225.235,554.822 224.675,554.206 224.675,551.294L224.675,518.421L223.891,518.141C220.251,520.045 216.274,521.725 211.178,523.517L211.57,526.261L212.13,526.261L219.523,522.957C219.859,522.957 219.971,523.461 219.971,524.805L219.971,551.294C219.971,554.206 219.355,554.822 216.33,554.99L213.194,555.158L213.194,557.174C221.819,557.006 221.819,557.006 222.435,557.006C224.171,557.006 230.331,557.174 231.227,557.174Z" style="fill:rgb(171,57,51);fill-rule:nonzero;"/>
    </g>
    <g>
        <clipPath id="_clip1">
            <rect x="191.386" y="33.354" width="79" height="96"/>
        </clipPath>
        <g clip-path="url(#_clip1)">
            <g>
                <g>
                    <path d="M237.775,34.947L236.58,33.851C231.399,36.442 227.812,37.338 220.639,38.036L220.24,40.128L225.023,40.128C227.414,40.128 228.41,40.825 228.41,42.519C228.41,43.316 228.31,44.213 228.211,44.91L225.421,60.253C222.432,59.356 219.742,58.858 217.252,58.858C210.377,58.858 201.012,66.032 196.429,74.7C193.34,80.478 191.348,89.943 191.348,98.312C191.348,104.788 192.842,107.976 195.731,107.976C198.421,107.976 202.108,106.282 205.495,103.592C210.875,99.208 214.163,95.323 220.838,85.26L218.547,94.327C217.451,98.71 216.953,101.898 216.953,104.489C216.953,106.581 217.849,107.777 219.543,107.777C221.237,107.777 223.628,106.581 227.015,104.09L235.085,98.113L234.089,96.22L229.705,99.308C228.31,100.304 226.716,101.002 225.82,101.002C225.023,101.002 224.425,100.105 224.425,98.71C224.425,97.913 224.525,97.017 225.222,94.127L237.775,34.947ZM201.012,101.002C199.418,101.002 198.521,99.607 198.521,97.116C198.521,84.563 203.104,69.021 207.986,65.235C209.281,64.238 211.174,63.74 213.864,63.74C218.248,63.74 221.137,64.338 224.425,66.032L223.229,71.91C219.543,89.843 205.495,101.002 201.012,101.002Z" style="fill:black;fill-rule:nonzero;"/>
                    <path d="M269.771,127.998L269.771,125.38L265.989,125.162C261.988,124.944 261.261,124.143 261.261,120.362L261.261,77.669L260.243,77.305C255.515,79.778 250.352,81.96 243.733,84.287L244.242,87.851L244.97,87.851L254.57,83.56C255.006,83.56 255.152,84.215 255.152,85.96L255.152,120.362C255.152,124.143 254.352,124.944 250.424,125.162L246.351,125.38L246.351,127.998C257.552,127.78 257.552,127.78 258.352,127.78C260.607,127.78 268.607,127.998 269.771,127.998Z" style="fill:black;fill-rule:nonzero;"/>
                </g>
            </g>
        </g>
    </g>
    <g>
        <clipPath id="_clip2">
            <rect x="35.48" y="327.205" width="83" height="96"/>
        </clipPath>
        <g clip-path="url(#_clip2)">
            <g>
                <g>
                    <path d="M81.775,328.947L80.58,327.851C75.399,330.442 71.812,331.338 64.639,332.036L64.24,334.128L69.023,334.128C71.414,334.128 72.41,334.825 72.41,336.519C72.41,337.316 72.31,338.213 72.211,338.91L69.421,354.253C66.432,353.356 63.742,352.858 61.252,352.858C54.377,352.858 45.012,360.032 40.429,368.7C37.34,374.478 35.348,383.943 35.348,392.312C35.348,398.788 36.842,401.976 39.731,401.976C42.421,401.976 46.108,400.282 49.495,397.592C54.875,393.208 58.163,389.323 64.838,379.26L62.547,388.327C61.451,392.71 60.953,395.898 60.953,398.489C60.953,400.581 61.849,401.777 63.543,401.777C65.237,401.777 67.628,400.581 71.015,398.09L79.085,392.113L78.089,390.22L73.705,393.308C72.31,394.304 70.716,395.002 69.82,395.002C69.023,395.002 68.425,394.105 68.425,392.71C68.425,391.913 68.524,391.017 69.222,388.127L81.775,328.947ZM45.012,395.002C43.418,395.002 42.521,393.607 42.521,391.116C42.521,378.563 47.104,363.021 51.986,359.235C53.281,358.238 55.174,357.74 57.864,357.74C62.248,357.74 65.137,358.338 68.425,360.032L67.229,365.91C63.543,383.843 49.495,395.002 45.012,395.002Z" style="fill:black;fill-rule:nonzero;"/>
                    <path d="M84.533,417.416L84.533,421.998C98.134,421.998 98.134,421.78 100.752,421.78C103.37,421.78 103.37,421.998 117.407,421.998C117.407,420.471 117.262,419.744 117.262,418.725C117.262,417.78 117.407,417.053 117.407,415.452C109.043,415.816 105.697,415.889 92.242,416.18L105.479,402.143C112.534,394.652 114.716,390.652 114.716,385.197C114.716,376.833 109.043,371.669 99.806,371.669C94.57,371.669 91.006,373.124 87.442,376.76L86.206,386.651L89.406,386.651L90.351,383.306C91.515,379.087 93.042,377.269 97.915,377.269C104.17,377.269 108.17,381.197 108.17,387.379C108.17,392.833 102.861,397.852 94.643,406.579L84.533,417.416Z" style="fill:black;fill-rule:nonzero;"/>
                </g>
            </g>
        </g>
    </g>
    <g>
        <g>
            <path d="M270.775,619.947L269.58,618.851C264.399,621.442 260.812,622.338 253.639,623.036L253.24,625.128L258.023,625.128C260.414,625.128 261.41,625.825 261.41,627.519C261.41,628.316 261.31,629.213 261.211,629.91L258.421,645.253C255.432,644.356 252.742,643.858 250.252,643.858C243.377,643.858 234.012,651.032 229.429,659.7C226.34,665.478 224.348,674.943 224.348,683.312C224.348,689.788 225.842,692.976 228.731,692.976C231.421,692.976 235.108,691.282 238.495,688.592C243.875,684.208 247.163,680.323 253.838,670.26L251.547,679.327C250.451,683.71 249.953,686.899 249.953,689.489C249.953,691.581 250.849,692.777 252.543,692.777C254.237,692.777 256.628,691.581 260.015,689.09L268.085,683.113L267.089,681.22L262.705,684.308C261.31,685.304 259.716,686.002 258.82,686.002C258.023,686.002 257.425,685.105 257.425,683.71C257.425,682.913 257.525,682.017 258.222,679.127L270.775,619.947ZM234.012,686.002C232.418,686.002 231.521,684.607 231.521,682.116C231.521,669.563 236.104,654.021 240.986,650.235C242.281,649.238 244.174,648.74 246.864,648.74C251.248,648.74 254.137,649.338 257.425,651.032L256.229,656.91C252.543,674.843 238.495,686.002 234.012,686.002Z" style="fill:black;fill-rule:nonzero;"/>
            <path d="M305.971,696.488C305.971,687.688 298.189,686.161 294.77,685.579C300.589,681.07 302.771,677.724 302.771,673.433C302.771,666.96 297.388,662.669 289.315,662.669C284.37,662.669 281.097,664.051 277.606,667.542L275.497,676.56L278.261,676.56L279.57,672.488C280.37,670.015 284.443,667.542 288.225,667.542C292.952,667.542 296.807,671.397 296.807,675.979C296.807,681.433 292.516,685.434 287.352,685.434C286.77,685.434 285.97,685.361 285.024,685.288L283.933,685.215L283.061,689.652L283.57,690.088C286.334,688.852 287.715,688.488 289.679,688.488C295.716,688.488 299.207,692.343 299.207,698.961C299.207,706.38 294.77,710.744 288.006,710.744C284.661,710.744 282.188,710.162 280.006,708.125C278.261,706.525 277.315,704.852 275.933,700.925L273.46,701.652L276.006,712.344C279.861,713.653 283.061,714.235 285.752,714.235C294.697,714.235 305.971,706.452 305.971,696.488Z" style="fill:black;fill-rule:nonzero;"/>
        </g>
    </g>
</svg>
