<?xml version="1.0" standalone="no"?>
<!DOCTYPE svg PUBLIC "-//W3C//DTD SVG 1.1//EN" "http://www.w3.org/Graphics/SVG/1.1/DTD/svg11.dtd">
<svg width="100%" height="100%" viewBox="0 0 454 455" version="1.1" xmlns="http://www.w3.org/2000/svg" xmlns:xlink="http://www.w3.org/1999/xlink" xml:space="preserve" style="fill-rule:evenodd;clip-rule:evenodd;stroke-linecap:round;stroke-linejoin:round;stroke-miterlimit:10;">
    <rect x="-113" y="-793" width="2236" height="1566" style="fill:white;fill-rule:nonzero;"/>
    <path d="M0.386,0.701L0.386,454.244L453.929,454.244L453.929,340.858L113.772,340.858L113.772,0.701L0.386,0.701Z" style="fill:rgb(0,84,147);fill-opacity:0.501961;fill-rule:nonzero;"/>
    <path d="M113.772,0.701L453.929,0.701L283.85,170.78L113.772,170.78L113.772,0.701Z" style="fill:rgb(255,38,0);fill-opacity:0.501961;fill-rule:nonzero;"/>
    <path d="M113.772,340.858L113.772,170.78L283.85,170.78L453.929,0.701L453.929,340.858L113.772,340.858Z" style="fill:rgb(0,143,81);fill-opacity:0.501961;fill-rule:nonzero;"/>
    <path d="M411.409,14.874L145.645,14.874" style="fill:none;stroke-width:2px;stroke:black;"/>
    <path d="M131.245,14.874L145.645,20.274L145.645,9.474L131.245,14.874Z" style="fill:black;fill-rule:nonzero;stroke-width:2px;stroke-linecap:butt;stroke-linejoin:miter;stroke:black;"/>
    <path d="M127.945,14.874L127.945,138.906" style="fill:none;stroke-width:2px;stroke:black;"/>
    <path d="M127.945,153.306L133.345,138.906L122.545,138.906L127.945,153.306Z" style="fill:black;fill-rule:nonzero;stroke-width:2px;stroke-linecap:butt;stroke-linejoin:miter;stroke:black;"/>
    <path d="M127.945,156.606L251.977,156.606" style="fill:none;stroke-width:2px;stroke:black;"/>
    <path d="M266.377,156.606L251.977,151.206L251.977,162.006L266.377,156.606Z" style="fill:black;fill-rule:nonzero;stroke-width:2px;stroke-linecap:butt;stroke-linejoin:miter;stroke:black;"/>
    <path d="M269.677,156.606L398.894,27.39" style="fill:none;stroke-width:2px;stroke:black;"/>
    <path d="M409.076,17.208L395.075,23.571L402.712,31.208L409.076,17.208Z" style="fill:black;fill-rule:nonzero;stroke-width:2px;stroke-linecap:butt;stroke-linejoin:miter;stroke:black;"/>
    <path d="M99.598,170.78L99.598,32.574" style="fill:none;stroke-width:2px;stroke:black;"/>
    <path d="M99.598,18.174L94.198,32.574L104.998,32.574L99.598,18.174Z" style="fill:black;fill-rule:nonzero;stroke-width:2px;stroke-linecap:butt;stroke-linejoin:miter;stroke:black;"/>
    <path d="M99.598,14.874L32.259,14.874" style="fill:none;stroke-width:2px;stroke:black;"/>
    <path d="M17.859,14.874L32.259,20.274L32.259,9.474L17.859,14.874Z" style="fill:black;fill-rule:nonzero;stroke-width:2px;stroke-linecap:butt;stroke-linejoin:miter;stroke:black;"/>
    <path d="M14.559,14.874L14.559,422.371" style="fill:none;stroke-width:2px;stroke:black;"/>
    <path d="M14.559,436.771L19.959,422.371L9.159,422.371L14.559,436.771Z" style="fill:black;fill-rule:nonzero;stroke-width:2px;stroke-linecap:butt;stroke-linejoin:miter;stroke:black;"/>
    <path d="M14.559,440.071L422.056,440.071" style="fill:none;stroke-width:2px;stroke:black;"/>
    <path d="M436.456,440.071L422.056,434.671L422.056,445.471L436.456,440.071Z" style="fill:black;fill-rule:nonzero;stroke-width:2px;stroke-linecap:butt;stroke-linejoin:miter;stroke:black;"/>
    <path d="M439.756,440.071L439.756,372.731" style="fill:none;stroke-width:2px;stroke:black;"/>
    <path d="M439.756,358.331L434.356,372.731L445.156,372.731L439.756,358.331Z" style="fill:black;fill-rule:nonzero;stroke-width:2px;stroke-linecap:butt;stroke-linejoin:miter;stroke:black;"/>
    <path d="M439.756,355.031L117.298,355.031" style="fill:none;stroke-width:2px;stroke:black;"/>
    <path d="M102.898,355.031L117.298,360.431L117.298,349.632L102.898,355.031Z" style="fill:black;fill-rule:nonzero;"/>
    <path d="M102.898,355.031L117.298,360.431L117.298,349.631L102.898,355.031Z" style="fill:none;stroke-width:2px;stroke-linecap:butt;stroke-linejoin:miter;stroke:black;"/>
    <path d="M99.598,355.031L99.598,188.48" style="fill:none;stroke-width:2px;stroke:black;"/>
    <path d="M99.598,174.08L94.198,188.48L104.998,188.48L99.598,174.08Z" style="fill:black;fill-rule:nonzero;stroke-width:2px;stroke-linecap:butt;stroke-linejoin:miter;stroke:black;"/>
    <path d="M127.945,184.953L127.945,308.985" style="fill:none;stroke-width:2px;stroke:black;"/>
    <path d="M127.945,323.385L133.345,308.985L122.545,308.985L127.945,323.385Z" style="fill:black;fill-rule:nonzero;stroke-width:2px;stroke-linecap:butt;stroke-linejoin:miter;stroke:black;"/>
    <path d="M127.945,326.685L422.056,326.685" style="fill:none;stroke-width:2px;stroke:black;"/>
    <path d="M436.456,326.685L422.056,321.285L422.056,332.085L436.456,326.685Z" style="fill:black;fill-rule:nonzero;stroke-width:2px;stroke-linecap:butt;stroke-linejoin:miter;stroke:black;"/>
    <path d="M439.756,326.685L439.756,60.92" style="fill:none;stroke-width:2px;stroke:black;"/>
    <path d="M439.756,46.521L434.356,60.921L445.156,60.921L439.756,46.521Z" style="fill:black;fill-rule:nonzero;stroke-width:2px;stroke-linecap:butt;stroke-linejoin:miter;stroke:black;"/>
    <path d="M439.756,43.221L310.539,172.437" style="fill:none;stroke-width:2px;stroke:black;"/>
    <path d="M300.357,182.619L314.358,176.255L306.721,168.619L300.357,182.619Z" style="fill:black;fill-rule:nonzero;stroke-width:2px;stroke-linecap:butt;stroke-linejoin:miter;stroke:black;"/>
    <path d="M298.024,184.953L145.645,184.953" style="fill:none;stroke-width:2px;stroke:black;"/>
    <path d="M131.245,184.953L145.645,190.353L145.645,179.553L131.245,184.953Z" style="fill:black;fill-rule:nonzero;stroke-width:2px;stroke-linecap:butt;stroke-linejoin:miter;stroke:black;"/>
</svg>
