<?xml version="1.0" standalone="no"?>
<!DOCTYPE svg PUBLIC "-//W3C//DTD SVG 1.1//EN" "http://www.w3.org/Graphics/SVG/1.1/DTD/svg11.dtd">
<svg width="100%" height="100%" viewBox="0 0 509 542" version="1.1" xmlns="http://www.w3.org/2000/svg" xmlns:xlink="http://www.w3.org/1999/xlink" xml:space="preserve" style="fill-rule:evenodd;clip-rule:evenodd;stroke-linecap:round;stroke-linejoin:round;stroke-miterlimit:10;">
    <rect x="-654" y="-69" width="2236" height="1566" style="fill:white;fill-rule:nonzero;"/>
    <path d="M26.315,44.386L26.315,497.929L479.858,497.929L479.858,384.543L139.701,384.543L139.701,44.386L26.315,44.386Z" style="fill:rgb(0,84,147);fill-opacity:0.501961;fill-rule:nonzero;stroke-width:3px;stroke:black;"/>
    <path d="M139.701,44.386L479.858,44.386L309.78,214.465L139.701,214.465L139.701,44.386Z" style="fill:rgb(255,38,0);fill-opacity:0.501961;fill-rule:nonzero;stroke-width:3px;stroke:black;"/>
    <path d="M139.701,384.543L139.701,214.465L309.78,214.465L479.858,44.386L479.858,384.543L139.701,384.543Z" style="fill:rgb(0,143,81);fill-opacity:0.501961;fill-rule:nonzero;stroke-width:3px;stroke:black;"/>
    <path d="M253.087,129.425L139.701,44.386" style="fill:none;stroke-width:1px;stroke:black;"/>
    <path d="M253.087,129.425L479.858,44.386" style="fill:none;stroke-width:1px;stroke:black;"/>
    <path d="M253.087,129.425L309.78,214.465" style="fill:none;stroke-width:1px;stroke:black;"/>
    <path d="M253.087,129.425L139.701,214.465" style="fill:none;stroke-width:1px;stroke:black;"/>
    <path d="M83.008,441.236L26.315,497.929" style="fill:none;stroke-width:1px;stroke:black;"/>
    <path d="M83.008,441.236L26.315,44.386" style="fill:none;stroke-width:1px;stroke:black;"/>
    <path d="M83.008,441.236L139.701,44.386" style="fill:none;stroke-width:1px;stroke:black;"/>
    <path d="M83.008,441.236L139.701,214.465" style="fill:none;stroke-width:1px;stroke:black;"/>
    <path d="M83.008,441.236L139.701,384.543" style="fill:none;stroke-width:1px;stroke:black;"/>
    <path d="M83.008,441.236L479.858,384.543" style="fill:none;stroke-width:1px;stroke:black;"/>
    <path d="M83.008,441.236L479.858,497.929" style="fill:none;stroke-width:1px;stroke:black;"/>
    <path d="M366.472,271.158L309.78,214.465" style="fill:none;stroke-width:1px;stroke:black;"/>
    <path d="M366.472,271.158L479.858,44.386" style="fill:none;stroke-width:1px;stroke:black;"/>
    <path d="M366.472,271.158L479.858,384.543" style="fill:none;stroke-width:1px;stroke:black;"/>
    <path d="M366.472,271.158L139.701,214.465" style="fill:none;stroke-width:1px;stroke:black;"/>
    <path d="M366.472,271.158L139.701,384.543" style="fill:none;stroke-width:1px;stroke:black;"/>
    <path d="M253.087,129.425L309.78,44.386" style="fill:none;stroke-width:1px;stroke:black;"/>
    <path d="M253.087,129.425L394.819,129.425" style="fill:none;stroke-width:1px;stroke:black;"/>
    <path d="M253.087,129.425L224.74,214.465" style="fill:none;stroke-width:1px;stroke:black;"/>
    <path d="M253.087,129.425L139.701,129.425" style="fill:none;stroke-width:1px;stroke:black;"/>
    <path d="M139.701,129.425L83.008,441.236" style="fill:none;stroke-width:1px;stroke:black;"/>
    <path d="M83.008,44.386L83.008,441.236" style="fill:none;stroke-width:1px;stroke:black;"/>
    <path d="M26.315,271.158L83.008,441.236" style="fill:none;stroke-width:1px;stroke:black;"/>
    <path d="M83.008,441.236L253.087,497.929" style="fill:none;stroke-width:1px;stroke:black;"/>
    <path d="M479.858,441.236L83.008,441.236" style="fill:none;stroke-width:1px;stroke:black;"/>
    <path d="M83.008,441.236L309.78,384.543" style="fill:none;stroke-width:1px;stroke:black;"/>
    <path d="M309.78,384.543L366.472,271.158" style="fill:none;stroke-width:1px;stroke:black;"/>
    <path d="M366.472,271.158L479.858,214.465" style="fill:none;stroke-width:1px;stroke:black;"/>
    <path d="M366.472,271.158L394.819,129.425" style="fill:none;stroke-width:1px;stroke:black;"/>
    <path d="M366.472,271.158L139.701,299.504" style="fill:none;stroke-width:1px;stroke:black;"/>
    <path d="M139.701,299.504L83.008,441.236" style="fill:none;stroke-width:1px;stroke:black;"/>
    <path d="M224.74,214.465L366.472,271.158" style="fill:none;stroke-width:1px;stroke:black;"/>
    <g>
        <clipPath id="_clip1">
            <rect x="75.556" y="448.681" width="23" height="36"/>
        </clipPath>
        <g clip-path="url(#_clip1)">
            <path d="M76.446,482.794L76.446,484.089C85.761,484.089 85.761,483.94 87.555,483.94C89.348,483.94 89.348,484.089 98.962,484.089L98.962,479.855C93.234,480.104 90.942,479.905 81.726,480.104L90.793,470.49C95.625,465.359 97.119,462.619 97.119,458.883C97.119,453.154 93.234,449.617 86.907,449.617C83.321,449.617 80.88,450.614 78.439,453.105L77.592,459.879L79.036,459.879L79.684,457.588C80.481,454.699 82.274,453.453 85.612,453.453C89.896,453.453 92.636,456.143 92.636,460.378C92.636,464.114 90.544,467.8 84.915,473.778L76.446,482.794Z" style="fill:black;fill-rule:nonzero;"/>
        </g>
    </g>
    <g>
        <clipPath id="_clip2">
            <rect x="7.315" y="2.307" width="22" height="36"/>
        </clipPath>
        <g clip-path="url(#_clip2)">
            <path d="M18.75,2.617C11.029,2.617 7.094,8.745 7.094,20.8C7.094,26.628 8.14,31.66 9.883,34.101C11.627,36.541 14.416,37.936 17.505,37.936C25.027,37.936 28.813,31.46 28.813,18.708C28.813,7.798 25.575,2.617 18.75,2.617ZM17.854,4.361C22.686,4.361 24.629,9.243 24.629,21.198C24.629,31.809 22.736,36.193 18.153,36.193C13.321,36.193 11.278,31.161 11.278,19.007C11.278,8.496 13.121,4.361 17.854,4.361Z" style="fill:black;fill-rule:nonzero;"/>
        </g>
    </g>
    <g>
        <clipPath id="_clip3">
            <rect x="479.695" y="4.497" width="22" height="36"/>
        </clipPath>
        <g clip-path="url(#_clip3)">
            <path d="M491.75,4.617C484.029,4.617 480.094,10.745 480.094,22.8C480.094,28.628 481.14,33.66 482.883,36.101C484.627,38.541 487.416,39.936 490.505,39.936C498.027,39.936 501.813,33.46 501.813,20.708C501.813,9.798 498.575,4.617 491.75,4.617ZM490.854,6.361C495.686,6.361 497.629,11.243 497.629,23.198C497.629,33.809 495.736,38.193 491.153,38.193C486.321,38.193 484.278,33.161 484.278,21.007C484.278,10.496 486.121,6.361 490.854,6.361Z" style="fill:black;fill-rule:nonzero;"/>
        </g>
    </g>
    <g>
        <clipPath id="_clip4">
            <rect x="128.774" y="0.626" width="22" height="36"/>
        </clipPath>
        <g clip-path="url(#_clip4)">
            <path d="M140.75,1.617C133.029,1.617 129.094,7.745 129.094,19.8C129.094,25.628 130.14,30.66 131.883,33.101C133.627,35.541 136.416,36.936 139.505,36.936C147.027,36.936 150.813,30.46 150.813,17.708C150.813,6.798 147.575,1.617 140.75,1.617ZM139.854,3.361C144.686,3.361 146.629,8.243 146.629,20.198C146.629,30.809 144.736,35.193 140.153,35.193C135.321,35.193 133.278,30.161 133.278,18.007C133.278,7.496 135.121,3.361 139.854,3.361Z" style="fill:black;fill-rule:nonzero;"/>
        </g>
    </g>
    <g>
        <clipPath id="_clip5">
            <rect x="480.058" y="501.818" width="22" height="36"/>
        </clipPath>
        <g clip-path="url(#_clip5)">
            <path d="M491.75,502.617C484.029,502.617 480.094,508.745 480.094,520.8C480.094,526.628 481.14,531.66 482.883,534.101C484.627,536.541 487.416,537.936 490.505,537.936C498.027,537.936 501.813,531.46 501.813,518.708C501.813,507.798 498.575,502.617 491.75,502.617ZM490.854,504.361C495.686,504.361 497.629,509.243 497.629,521.198C497.629,531.809 495.736,536.193 491.153,536.193C486.321,536.193 484.278,531.161 484.278,519.007C484.278,508.496 486.121,504.361 490.854,504.361Z" style="fill:black;fill-rule:nonzero;"/>
        </g>
    </g>
    <g>
        <clipPath id="_clip6">
            <rect x="486.725" y="367.717" width="22" height="36"/>
        </clipPath>
        <g clip-path="url(#_clip6)">
            <path d="M498.75,368.617C491.029,368.617 487.094,374.745 487.094,386.8C487.094,392.628 488.14,397.66 489.883,400.101C491.627,402.541 494.416,403.936 497.505,403.936C505.027,403.936 508.813,397.46 508.813,384.708C508.813,373.798 505.575,368.617 498.75,368.617ZM497.854,370.361C502.686,370.361 504.629,375.243 504.629,387.198C504.629,397.809 502.736,402.193 498.153,402.193C493.321,402.193 491.278,397.161 491.278,385.007C491.278,374.496 493.121,370.361 497.854,370.361Z" style="fill:black;fill-rule:nonzero;"/>
        </g>
    </g>
    <g>
        <clipPath id="_clip7">
            <rect x="5.334" y="501.818" width="22" height="36"/>
        </clipPath>
        <g clip-path="url(#_clip7)">
            <path d="M16.75,502.617C9.029,502.617 5.094,508.745 5.094,520.8C5.094,526.628 6.14,531.66 7.883,534.101C9.627,536.541 12.416,537.936 15.505,537.936C23.027,537.936 26.813,531.46 26.813,518.708C26.813,507.798 23.575,502.617 16.75,502.617ZM15.854,504.361C20.686,504.361 22.629,509.243 22.629,521.198C22.629,531.809 20.736,536.193 16.153,536.193C11.321,536.193 9.278,531.161 9.278,519.007C9.278,508.496 11.121,504.361 15.854,504.361Z" style="fill:black;fill-rule:nonzero;"/>
        </g>
    </g>
    <g>
        <clipPath id="_clip8">
            <rect x="301.685" y="162.76" width="22" height="36"/>
        </clipPath>
        <g clip-path="url(#_clip8)">
            <path d="M313.75,163.617C306.029,163.617 302.094,169.745 302.094,181.8C302.094,187.628 303.14,192.66 304.883,195.101C306.627,197.541 309.416,198.936 312.505,198.936C320.027,198.936 323.813,192.46 323.813,179.708C323.813,168.798 320.575,163.617 313.75,163.617ZM312.854,165.361C317.686,165.361 319.629,170.243 319.629,182.198C319.629,192.809 317.736,197.193 313.153,197.193C308.321,197.193 306.278,192.161 306.278,180.007C306.278,169.496 308.121,165.361 312.854,165.361Z" style="fill:black;fill-rule:nonzero;"/>
        </g>
    </g>
    <g>
        <path d="M357.446,319.794L357.446,321.089C366.761,321.089 366.761,320.94 368.555,320.94C370.348,320.94 370.348,321.089 379.962,321.089L379.962,316.855C374.234,317.104 371.942,316.905 362.726,317.104L371.793,307.49C376.625,302.359 378.119,299.619 378.119,295.883C378.119,290.154 374.234,286.617 367.907,286.617C364.321,286.617 361.88,287.614 359.439,290.105L358.592,296.879L360.036,296.879L360.684,294.588C361.481,291.699 363.274,290.453 366.612,290.453C370.896,290.453 373.636,293.143 373.636,297.378C373.636,301.114 371.544,304.8 365.915,310.778L357.446,319.794Z" style="fill:black;fill-rule:nonzero;"/>
    </g>
    <g>
        <path d="M238.446,110.794L238.446,112.089C247.761,112.089 247.761,111.94 249.555,111.94C251.348,111.94 251.348,112.089 260.962,112.089L260.962,107.855C255.234,108.104 252.942,107.905 243.726,108.104L252.793,98.49C257.625,93.359 259.119,90.619 259.119,86.883C259.119,81.154 255.234,77.617 248.907,77.617C245.321,77.617 242.88,78.614 240.439,81.105L239.592,87.879L241.036,87.879L241.684,85.588C242.481,82.699 244.274,81.453 247.612,81.453C251.896,81.453 254.636,84.143 254.636,88.378C254.636,92.114 252.544,95.8 246.915,101.778L238.446,110.794Z" style="fill:black;fill-rule:nonzero;"/>
    </g>
    <g>
        <clipPath id="_clip9">
            <rect x="146.047" y="157.625" width="22" height="36"/>
        </clipPath>
        <g clip-path="url(#_clip9)">
            <path d="M157.75,158.617C150.029,158.617 146.094,164.745 146.094,176.8C146.094,182.628 147.14,187.66 148.883,190.101C150.627,192.541 153.416,193.936 156.505,193.936C164.027,193.936 167.813,187.46 167.813,174.708C167.813,163.798 164.575,158.617 157.75,158.617ZM156.854,160.361C161.686,160.361 163.629,165.243 163.629,177.198C163.629,187.809 161.736,192.193 157.153,192.193C152.321,192.193 150.278,187.161 150.278,175.007C150.278,164.496 152.121,160.361 156.854,160.361Z" style="fill:black;fill-rule:nonzero;"/>
        </g>
    </g>
    <g>
        <clipPath id="_clip10">
            <rect x="147.717" y="328.009" width="22" height="36"/>
        </clipPath>
        <g clip-path="url(#_clip10)">
            <path d="M159.75,328.617C152.029,328.617 148.094,334.745 148.094,346.8C148.094,352.628 149.14,357.66 150.883,360.101C152.627,362.541 155.416,363.936 158.505,363.936C166.027,363.936 169.813,357.46 169.813,344.708C169.813,333.798 166.575,328.617 159.75,328.617ZM158.854,330.361C163.686,330.361 165.629,335.243 165.629,347.198C165.629,357.809 163.736,362.193 159.153,362.193C154.321,362.193 152.278,357.161 152.278,345.007C152.278,334.496 154.121,330.361 158.854,330.361Z" style="fill:black;fill-rule:nonzero;"/>
        </g>
    </g>
    <path d="M505.472,229.089L505.472,227.595L502.881,227.446C500.141,227.296 499.643,226.748 499.643,224.158L499.643,194.07L487.638,199.151L487.987,201.641L495.459,198.354L495.459,224.158C495.459,226.748 494.911,227.296 492.221,227.446L489.431,227.595L489.431,229.089C497.103,228.94 497.103,228.94 497.651,228.94C499.195,228.94 504.675,229.089 505.472,229.089Z" style="fill:black;fill-rule:nonzero;"/>
    <g>
        <clipPath id="_clip11">
            <rect x="378.564" y="87.494" width="19" height="36"/>
        </clipPath>
        <g clip-path="url(#_clip11)">
            <path d="M397.472,122.089L397.472,120.595L394.881,120.446C392.141,120.296 391.643,119.748 391.643,117.158L391.643,87.07L379.638,92.151L379.987,94.641L387.459,91.354L387.459,117.158C387.459,119.748 386.911,120.296 384.221,120.446L381.431,120.595L381.431,122.089C389.103,121.94 389.103,121.94 389.651,121.94C391.195,121.94 396.675,122.089 397.472,122.089Z" style="fill:black;fill-rule:nonzero;"/>
        </g>
    </g>
    <path d="M318.472,37.089L318.472,35.595L315.881,35.446C313.141,35.296 312.643,34.748 312.643,32.158L312.643,2.07L300.638,7.151L300.987,9.641L308.459,6.354L308.459,32.158C308.459,34.748 307.911,35.296 305.221,35.446L302.431,35.595L302.431,37.089C310.103,36.94 310.103,36.94 310.651,36.94C312.195,36.94 317.675,37.089 318.472,37.089Z" style="fill:black;fill-rule:nonzero;"/>
    <g>
        <path d="M91.472,37.089L91.472,35.595L88.881,35.446C86.141,35.296 85.643,34.748 85.643,32.158L85.643,2.07L73.638,7.151L73.987,9.641L81.459,6.354L81.459,32.158C81.459,34.748 80.911,35.296 78.221,35.446L75.431,35.595L75.431,37.089C83.103,36.94 83.103,36.94 83.651,36.94C85.195,36.94 90.675,37.089 91.472,37.089Z" style="fill:black;fill-rule:nonzero;"/>
    </g>
    <g>
        <clipPath id="_clip12">
            <rect x="0.631" y="252.251" width="19" height="36"/>
        </clipPath>
        <g clip-path="url(#_clip12)">
            <path d="M19.472,287.089L19.472,285.595L16.881,285.446C14.141,285.296 13.643,284.748 13.643,282.158L13.643,252.07L1.638,257.151L1.987,259.641L9.459,256.354L9.459,282.158C9.459,284.748 8.911,285.296 6.221,285.446L3.431,285.595L3.431,287.089C11.103,286.94 11.103,286.94 11.651,286.94C13.195,286.94 18.675,287.089 19.472,287.089Z" style="fill:black;fill-rule:nonzero;"/>
        </g>
    </g>
    <path d="M311.472,375.089L311.472,373.595L308.881,373.446C306.141,373.296 305.643,372.748 305.643,370.158L305.643,340.07L293.638,345.151L293.987,347.641L301.459,344.354L301.459,370.158C301.459,372.748 300.911,373.296 298.221,373.446L295.431,373.595L295.431,375.089C303.103,374.94 303.103,374.94 303.651,374.94C305.195,374.94 310.675,375.089 311.472,375.089Z" style="fill:black;fill-rule:nonzero;"/>
    <path d="M166.472,288.089L166.472,286.595L163.881,286.446C161.141,286.296 160.643,285.748 160.643,283.158L160.643,253.07L148.638,258.151L148.987,260.641L156.459,257.354L156.459,283.158C156.459,285.748 155.911,286.296 153.221,286.446L150.431,286.595L150.431,288.089C158.103,287.94 158.103,287.94 158.651,287.94C160.195,287.94 165.675,288.089 166.472,288.089Z" style="fill:black;fill-rule:nonzero;"/>
    <g>
        <path d="M264.472,541.089L264.472,539.595L261.881,539.446C259.141,539.296 258.643,538.748 258.643,536.158L258.643,506.07L246.638,511.151L246.987,513.641L254.459,510.354L254.459,536.158C254.459,538.748 253.911,539.296 251.221,539.446L248.431,539.595L248.431,541.089C256.103,540.94 256.103,540.94 256.651,540.94C258.195,540.94 263.675,541.089 264.472,541.089Z" style="fill:black;fill-rule:nonzero;"/>
    </g>
    <path d="M505.472,457.089L505.472,455.595L502.881,455.446C500.141,455.296 499.643,454.748 499.643,452.158L499.643,422.069L487.638,427.151L487.987,429.641L495.459,426.354L495.459,452.158C495.459,454.748 494.911,455.296 492.221,455.446L489.431,455.595L489.431,457.089C497.103,456.94 497.103,456.94 497.651,456.94C499.195,456.94 504.675,457.089 505.472,457.089Z" style="fill:black;fill-rule:nonzero;"/>
    <g>
        <path d="M165.472,122.089L165.472,120.595L162.881,120.446C160.141,120.296 159.643,119.748 159.643,117.158L159.643,87.07L147.638,92.151L147.987,94.641L155.459,91.354L155.459,117.158C155.459,119.748 154.911,120.296 152.221,120.446L149.431,120.595L149.431,122.089C157.103,121.94 157.103,121.94 157.651,121.94C159.195,121.94 164.675,122.089 165.472,122.089Z" style="fill:black;fill-rule:nonzero;"/>
    </g>
    <g>
        <clipPath id="_clip13">
            <rect x="206.984" y="170.311" width="19" height="36"/>
        </clipPath>
        <g clip-path="url(#_clip13)">
            <path d="M225.472,205.089L225.472,203.595L222.881,203.446C220.141,203.296 219.643,202.748 219.643,200.158L219.643,170.07L207.638,175.151L207.987,177.641L215.459,174.354L215.459,200.158C215.459,202.748 214.911,203.296 212.221,203.446L209.431,203.595L209.431,205.089C217.103,204.94 217.103,204.94 217.651,204.94C219.195,204.94 224.675,205.089 225.472,205.089Z" style="fill:black;fill-rule:nonzero;"/>
        </g>
    </g>
</svg>
