<?xml version="1.0" standalone="no"?>
<!DOCTYPE svg PUBLIC "-//W3C//DTD SVG 1.1//EN" "http://www.w3.org/Graphics/SVG/1.1/DTD/svg11.dtd">
<svg width="100%" height="100%" viewBox="0 0 918 938" version="1.1" xmlns="http://www.w3.org/2000/svg" xmlns:xlink="http://www.w3.org/1999/xlink" xml:space="preserve" style="fill-rule:evenodd;clip-rule:evenodd;stroke-linejoin:round;stroke-miterlimit:10;">
    <g transform="matrix(8.33333,0,0,8.33333,0,0)">
        <path d="M54.063,29.204C52.903,29.736 51.864,30.353 50.857,31.262C49.851,32.171 48.877,33.372 48.082,34.33C47.286,35.287 46.67,36.001 46.28,36.943C45.89,37.885 45.728,39.053 45.728,40.206C45.728,41.358 45.89,42.494 46.053,43.566C46.215,44.637 46.377,45.643 46.426,46.634C46.475,47.624 46.41,48.597 46.101,49.49C45.793,50.383 45.241,51.195 44.527,51.828C43.813,52.461 42.936,52.915 42.011,53.337C41.086,53.759 40.112,54.149 39.117,54.585C38.122,55.02 37.106,55.502 36.598,55.743C36.09,55.985 36.09,55.985 36.387,56.182C36.684,56.379 37.278,56.773 38.013,57.068C38.748,57.363 39.625,57.558 40.712,57.541C41.8,57.525 43.098,57.298 44.089,57.054C45.079,56.811 45.761,56.551 46.442,56.096C47.124,55.642 47.806,54.993 48.309,54.132C48.812,53.272 49.137,52.201 49.431,51.224C49.725,50.247 49.988,49.364 50.005,48.147C50.021,46.93 49.79,45.378 49.593,44.082C49.397,42.787 49.234,41.748 49.234,40.855C49.234,39.962 49.397,39.215 49.608,38.598C49.819,37.982 50.078,37.495 50.598,37.057C51.117,36.618 51.896,36.229 52.708,35.661C53.519,35.093 54.363,34.346 55.013,33.697C55.662,33.047 56.117,32.496 56.555,31.976C56.993,31.457 57.415,30.97 57.618,30.276C57.82,29.582 57.803,28.68 57.795,28.23C57.786,27.779 57.786,27.779 57.146,28.003C56.505,28.226 55.223,28.673 54.063,29.204" style="fill:rgb(223,223,223);"/>
        <path d="M54.063,29.204C52.903,29.736 51.864,30.353 50.857,31.262C49.851,32.171 48.877,33.372 48.082,34.33C47.286,35.287 46.67,36.001 46.28,36.943C45.89,37.885 45.728,39.053 45.728,40.206C45.728,41.358 45.89,42.494 46.053,43.566C46.215,44.637 46.377,45.643 46.426,46.634C46.475,47.624 46.41,48.597 46.101,49.49C45.793,50.383 45.241,51.195 44.527,51.828C43.813,52.461 42.936,52.915 42.011,53.337C41.086,53.759 40.112,54.149 39.117,54.585C38.122,55.02 37.106,55.502 36.598,55.743C36.09,55.985 36.09,55.985 36.387,56.182C36.684,56.379 37.278,56.773 38.013,57.068C38.748,57.363 39.625,57.558 40.712,57.541C41.8,57.525 43.098,57.298 44.089,57.054C45.079,56.811 45.761,56.551 46.442,56.096C47.124,55.642 47.806,54.993 48.309,54.132C48.812,53.272 49.137,52.201 49.431,51.224C49.725,50.247 49.988,49.364 50.005,48.147C50.021,46.93 49.79,45.378 49.593,44.082C49.397,42.787 49.234,41.748 49.234,40.855C49.234,39.962 49.397,39.215 49.608,38.598C49.819,37.982 50.078,37.495 50.598,37.057C51.117,36.618 51.896,36.229 52.708,35.661C53.519,35.093 54.363,34.346 55.013,33.697C55.662,33.047 56.117,32.496 56.555,31.976C56.993,31.457 57.415,30.97 57.618,30.276C57.82,29.582 57.803,28.68 57.795,28.23C57.786,27.779 57.786,27.779 57.146,28.003C56.505,28.226 55.223,28.673 54.063,29.204Z" style="fill:none;stroke-width:0.8px;stroke:black;"/>
        <path d="M57.786,27.779L58.389,27.176C58.992,26.574 60.197,25.368 60.559,23.018C60.92,20.667 60.438,17.172 58.932,14.58C57.425,11.989 54.894,10.301 51.82,9.096C48.746,7.89 45.13,7.167 41.454,7.951C37.777,8.734 34.041,11.024 30.605,13.254C27.17,15.484 24.036,17.654 21.686,19.462C19.335,21.27 17.768,22.716 15.96,23.922C14.152,25.127 12.103,26.092 11.079,28.201C10.054,30.31 10.054,33.565 10.235,36.578C10.416,39.591 10.777,42.364 10.958,44.594C11.139,46.824 11.139,48.511 11.139,49.355L11.139,50.199" style="fill:none;stroke-width:0.4px;stroke:black;"/>
        <path d="M11.139,50.199L9.753,50.862C8.367,51.525 5.594,52.851 3.907,54.538C2.219,56.226 1.617,58.275 1.315,60.083C1.014,61.89 1.014,63.457 1.978,64.844C2.942,66.23 4.871,67.435 6.137,68.399C7.402,69.364 8.005,70.087 8.306,72.197C8.608,74.306 8.608,77.802 8.246,80.333C7.884,82.864 7.161,84.431 6.679,85.697C6.197,86.962 5.956,87.927 6.739,88.71C7.523,89.494 9.331,90.096 11.079,90.397C12.826,90.699 14.514,90.699 16.503,90.819C18.492,90.94 20.782,91.181 22.65,91.362C24.518,91.542 25.965,91.663 27.351,91.964C28.737,92.266 30.063,92.748 31.208,93.17C32.353,93.592 33.317,93.953 33.92,94.375C34.523,94.797 34.764,95.279 34.884,95.52L35.005,95.761" style="fill:none;stroke-width:0.4px;stroke:black;"/>
        <path d="M11.139,50.199L12.465,50.199C13.791,50.199 16.442,50.199 18.492,50.319C20.541,50.44 21.987,50.681 23.253,51.163C24.518,51.645 25.603,52.368 26.989,53.091C28.376,53.815 30.063,54.538 31.269,54.96C32.474,55.382 33.197,55.502 33.92,55.623C34.643,55.743 35.367,55.864 35.728,55.924L36.09,55.984" style="fill:none;stroke-width:0.4px;stroke:black;"/>
        <path d="M66.465,55.623L67.61,55.442C68.755,55.261 71.045,54.9 73.275,54.598C75.505,54.297 77.675,54.056 79.905,53.634C82.135,53.212 84.425,52.609 86.414,52.007C88.403,51.404 90.09,50.801 91.115,50.38C92.139,49.958 92.501,49.716 92.681,49.596L92.862,49.475" style="fill:none;stroke-width:0.4px;stroke:black;"/>
        <path d="M92.862,49.475L92.923,48.149C92.983,46.823 93.103,44.172 92.862,41.942C92.621,39.712 92.019,37.904 90.632,36.277C89.246,34.65 87.077,33.203 85.57,32.179C84.063,31.154 83.22,30.551 81.834,30.069C80.447,29.587 78.519,29.225 76.59,29.044C74.662,28.864 72.733,28.864 71.226,28.864C69.72,28.864 68.635,28.864 66.465,28.683C64.295,28.502 61.041,28.141 59.414,27.96L57.786,27.779" style="fill:none;stroke-width:0.4px;stroke:black;"/>
        <path d="M92.862,49.475L94.248,50.078C95.635,50.681 98.407,51.886 100.396,53.091C102.385,54.297 103.59,55.502 104.615,56.707C105.639,57.913 106.483,59.118 107.146,60.685C107.809,62.252 108.291,64.181 108.351,66.351C108.411,68.52 108.05,70.931 107.447,73.221C106.844,75.511 106.001,77.681 104.735,79.67C103.469,81.659 101.782,83.467 99.914,85.275C98.046,87.083 95.997,88.891 94.249,90.458C92.501,92.025 91.054,93.351 89.186,93.893C87.318,94.435 85.028,94.194 83.099,93.893C81.17,93.592 79.603,93.23 78.82,93.049L78.036,92.869" style="fill:none;stroke-width:0.4px;stroke:black;"/>
        <path d="M78.036,92.869L77.132,94.375C76.228,95.882 74.42,98.895 72.673,100.944C70.925,102.994 69.237,104.078 67.55,104.982C65.862,105.886 64.175,106.609 62.246,107.453C60.318,108.297 58.148,109.261 55.978,109.743C53.809,110.226 51.639,110.226 49.53,110.165C47.42,110.105 45.371,109.985 43.503,109.623C41.635,109.261 39.947,108.658 38.38,107.574C36.813,106.489 35.367,104.922 34.824,102.873C34.282,100.824 34.643,98.292 34.824,97.027L35.005,95.761" style="fill:none;stroke-width:0.4px;stroke:black;"/>
        <path d="M35.005,95.761L35.849,94.556C36.692,93.35 38.38,90.94 39.405,89.312C40.429,87.685 40.791,86.842 41.152,85.938C41.514,85.034 41.876,84.069 42.056,83.587L42.237,83.105" style="fill:none;stroke-width:0.4px;stroke:black;"/>
        <path d="M63.934,77.681L64.958,78.223C65.983,78.766 68.032,79.85 69.297,80.875C70.563,81.899 71.045,82.864 71.648,83.708C72.251,84.551 72.974,85.275 74.059,86.781C75.143,88.288 76.59,90.578 77.313,91.724L78.036,92.869" style="fill:none;stroke-width:0.4px;stroke:black;"/>
        <path d="M63.934,77.681L64.476,76.355C65.019,75.029 66.104,72.378 66.646,70.268C67.188,68.159 67.188,66.591 67.068,65.205C66.947,63.819 66.706,62.614 66.585,61.047C66.465,59.48 66.465,57.551 66.465,56.587L66.465,55.623" style="fill:none;stroke-width:0.8px;stroke-dasharray:1,3;stroke:black;"/>
        <path d="M36.09,55.984L35.728,57.19C35.367,58.395 34.643,60.806 34.764,62.915C34.885,65.025 35.849,66.832 36.934,68.279C38.019,69.725 39.224,70.81 40.068,71.955C40.911,73.1 41.393,74.306 41.695,76.174C41.996,78.042 42.117,80.574 42.177,81.839L42.237,83.105" style="fill:none;stroke-width:0.8px;stroke-dasharray:4,4;stroke:black;"/>
        <path d="M42.237,83.105L42.597,83.376C42.957,83.647 43.677,84.188 44.069,84.118C44.462,84.048 44.527,83.366 44.511,82.749C44.495,82.132 44.397,81.581 44.624,81.305C44.852,81.029 45.404,81.029 45.744,81.272C46.085,81.516 46.215,82.002 46.442,82.554C46.67,83.106 46.994,83.723 47.238,84.096C47.481,84.47 47.644,84.6 47.822,84.486C48.001,84.372 48.196,84.015 48.261,83.593C48.325,83.171 48.26,82.684 48.228,82.019C48.195,81.353 48.195,80.509 48.342,80.022C48.488,79.535 48.78,79.406 49.056,79.552C49.332,79.698 49.591,80.12 49.884,80.671C50.176,81.223 50.5,81.905 50.809,82.425C51.117,82.944 51.409,83.301 51.734,83.431C52.059,83.561 52.416,83.463 52.513,83.106C52.61,82.749 52.448,82.132 52.286,81.629C52.124,81.126 51.961,80.737 51.702,80.38C51.442,80.022 51.085,79.698 50.825,79.373C50.565,79.048 50.403,78.724 50.581,78.383C50.76,78.042 51.279,77.685 51.734,77.669C52.188,77.652 52.578,77.977 52.838,78.545C53.097,79.113 53.227,79.925 53.406,80.59C53.584,81.256 53.812,81.775 54.217,82.133C54.623,82.49 55.207,82.685 55.5,82.538C55.792,82.392 55.792,81.905 55.711,81.304C55.629,80.704 55.467,79.99 55.288,79.389C55.11,78.789 54.915,78.302 54.915,77.863C54.915,77.425 55.11,77.035 55.435,76.76C55.759,76.484 56.214,76.322 56.49,76.695C56.766,77.068 56.863,77.977 56.993,78.805C57.123,79.632 57.285,80.379 57.48,80.899C57.675,81.418 57.902,81.71 58.227,81.84C58.551,81.97 58.973,81.937 59.087,81.499C59.201,81.061 59.006,80.217 58.827,79.373C58.649,78.529 58.486,77.685 58.551,76.987C58.616,76.289 58.908,75.737 59.135,75.705C59.363,75.672 59.525,76.159 59.639,76.711C59.752,77.263 59.817,77.88 59.996,78.659C60.175,79.438 60.467,80.379 60.775,80.883C61.083,81.386 61.408,81.451 61.538,80.883C61.668,80.315 61.603,79.113 61.684,78.334C61.765,77.555 61.992,77.198 62.155,76.987C62.317,76.776 62.414,76.711 62.7,76.851C62.986,76.991 63.459,77.336 63.696,77.509L63.933,77.681" style="fill:none;stroke-width:0.8px;stroke:black;"/>
        <path d="M50.851,45.185L50.726,45.685C50.602,46.184 50.352,47.183 50.215,47.745C50.077,48.307 50.052,48.431 50.04,48.494L50.027,48.556" style="fill:none;stroke-width:0.4px;stroke:black;"/>
        <path d="M51.825,45.41L51.563,45.922C51.3,46.434 50.776,47.458 50.514,47.97L50.252,48.482" style="fill:none;stroke-width:0.4px;stroke:black;"/>
        <path d="M50.327,49.006L50.652,48.519C50.976,48.032 51.625,47.058 51.95,46.571L52.275,46.084" style="fill:none;stroke-width:0.4px;stroke:black;"/>
        <path d="M52.424,46.084L52.337,46.434C52.249,46.783 52.075,47.483 51.987,47.832L51.9,48.182" style="fill:none;stroke-width:0.4px;stroke:black;"/>
        <path d="M51.75,49.455L51.963,48.968C52.175,48.481 52.599,47.508 52.811,47.021L53.024,46.534" style="fill:none;stroke-width:0.4px;stroke:black;"/>
        <path d="M53.323,46.608L53.249,47.045C53.174,47.482 53.024,48.356 52.949,48.793L52.874,49.231" style="fill:none;stroke-width:0.4px;stroke:black;"/>
        <path d="M53.323,49.83L53.448,49.38C53.573,48.931 53.823,48.032 53.948,47.583L54.072,47.133" style="fill:none;stroke-width:0.4px;stroke:black;"/>
        <path d="M53.848,49.755L53.985,49.368C54.122,48.981 54.397,48.207 54.534,47.82L54.672,47.433" style="fill:none;stroke-width:0.4px;stroke:black;"/>
        <path d="M55.122,47.582L55.034,48.019C54.947,48.457 54.772,49.331 54.684,49.768L54.597,50.205" style="fill:none;stroke-width:0.4px;stroke:black;"/>
        <path d="M55.421,50.804L55.446,50.279C55.471,49.755 55.521,48.706 55.546,48.182L55.571,47.657" style="fill:none;stroke-width:0.4px;stroke:black;"/>
        <path d="M55.047,50.954L55.309,50.492C55.571,50.03 56.095,49.106 56.357,48.644L56.62,48.182" style="fill:none;stroke-width:0.4px;stroke:black;"/>
        <path d="M56.095,50.804L56.258,50.392C56.42,49.979 56.745,49.155 56.907,48.743L57.07,48.331" style="fill:none;stroke-width:0.4px;stroke:black;"/>
        <path d="M56.77,51.253L56.907,50.829C57.044,50.404 57.319,49.555 57.457,49.131L57.594,48.706" style="fill:none;stroke-width:0.4px;stroke:black;"/>
        <path d="M57.294,51.628L57.481,51.228C57.669,50.829 58.043,50.03 58.231,49.593C58.418,49.156 58.418,49.081 58.418,49.043L58.418,49.006" style="fill:none;stroke-width:0.4px;stroke:black;"/>
        <path d="M57.818,51.778L58.006,51.366C58.193,50.954 58.568,50.13 58.755,49.718L58.942,49.306" style="fill:none;stroke-width:0.4px;stroke:black;"/>
        <path d="M58.792,52.602L58.842,52.065C58.892,51.528 58.992,50.454 59.042,49.917L59.092,49.38" style="fill:none;stroke-width:0.4px;stroke:black;"/>
        <path d="M59.616,53.126L59.629,52.514C59.641,51.903 59.666,50.679 59.679,50.042C59.691,49.405 59.691,49.355 59.691,49.331L59.691,49.306" style="fill:none;stroke-width:0.4px;stroke:black;"/>
        <path d="M59.691,52.751L59.866,52.239C60.041,51.728 60.39,50.704 60.515,50.192C60.64,49.68 60.54,49.68 60.49,49.68L60.44,49.68" style="fill:none;stroke-width:0.4px;stroke:black;"/>
        <path d="M60.216,52.977L60.365,52.552C60.515,52.128 60.815,51.278 60.965,50.854L61.115,50.429" style="fill:none;stroke-width:0.4px;stroke:black;"/>
        <path d="M60.965,52.977L61.065,52.54C61.165,52.103 61.364,51.228 61.464,50.791L61.564,50.354" style="fill:none;stroke-width:0.4px;stroke:black;"/>
        <path d="M61.414,53.276L61.577,52.951C61.739,52.626 62.063,51.977 62.226,51.653L62.388,51.328" style="fill:none;stroke-width:0.4px;stroke:black;"/>
        <path d="M62.314,53.575L62.451,53.213C62.588,52.851 62.863,52.127 63,51.765L63.138,51.403" style="fill:none;stroke-width:0.4px;stroke:black;"/>
        <path d="M63.138,54.774L63.175,54.237C63.212,53.701 63.287,52.627 63.325,52.09L63.362,51.553" style="fill:none;stroke-width:0.4px;stroke:black;"/>
        <path d="M63.662,54.625L63.662,54.163C63.662,53.701 63.662,52.777 63.662,52.315L63.662,51.853" style="fill:none;stroke-width:0.4px;stroke:black;"/>
        <path d="M63.887,54.774L63.999,54.4C64.111,54.025 64.336,53.276 64.449,52.901L64.561,52.527" style="fill:none;stroke-width:0.4px;stroke:black;"/>
        <path d="M64.411,55.149L64.611,54.762C64.811,54.375 65.21,53.601 65.41,53.214L65.61,52.826" style="fill:none;stroke-width:0.4px;stroke:black;"/>
        <path d="M64.935,55.449L65.185,55.062C65.435,54.675 65.934,53.9 66.184,53.513L66.434,53.126" style="fill:none;stroke-width:0.4px;stroke:black;"/>
        <path d="M65.61,55.673L65.847,55.374C66.084,55.074 66.559,54.475 66.796,54.175L67.033,53.875" style="fill:none;stroke-width:0.4px;stroke:black;"/>
        <path d="M26.14,75.078L26.908,74.639C27.676,74.2 29.212,73.322 30.638,72.5C32.064,71.677 33.381,70.909 35.274,70.305C37.166,69.702 39.635,69.263 41.693,68.851C43.75,68.44 45.396,68.056 46.219,67.863L47.042,67.671" style="fill:none;stroke-width:0.4px;stroke:black;"/>
        <path d="M47.042,67.671L39.695,66.99L40.755,71.534" style="fill:black;"/>
        <path d="M47.042,67.671L39.695,66.99L40.755,71.534L47.042,67.671Z" style="fill:none;stroke-width:0.4px;stroke:black;"/>
        <path d="M26.14,75.078L33.375,73.631L31.06,69.579" style="fill:black;"/>
        <path d="M26.14,75.078L33.375,73.631L31.06,69.579L26.14,75.078Z" style="fill:none;stroke-width:0.4px;stroke:black;"/>
        <path d="M35.484,29.25L35.165,29.25L32.475,35.437C32.355,35.726 32.156,35.905 31.937,35.925L31.568,35.955L31.568,36.254C32.495,36.224 32.495,36.224 32.654,36.224C32.784,36.224 32.784,36.224 33.86,36.254L33.86,35.955L33.491,35.925C33.142,35.895 33.013,35.826 33.013,35.666L33.64,33.943L36.51,33.943L36.968,35.088C37.137,35.507 37.177,35.636 37.177,35.726C37.177,35.836 37.018,35.905 36.769,35.925L36.301,35.955L36.301,36.254C37.526,36.224 37.526,36.224 37.685,36.224C37.875,36.224 37.875,36.224 38.951,36.254L38.951,35.955L38.612,35.925C38.353,35.885 38.243,35.716 37.895,34.909L35.484,29.25ZM33.81,33.544L35.075,30.575L36.33,33.544L33.81,33.544Z" style="fill:black;fill-rule:nonzero;"/>
        <path d="M20.879,75.561C22.971,75.561 23.648,74.196 23.648,73.26C23.648,72.752 23.449,72.343 23.071,72.074C22.692,71.795 22.353,71.705 21.586,71.646C22.074,71.546 22.303,71.456 22.582,71.267C23.061,70.938 23.31,70.51 23.31,69.992C23.31,69.115 22.682,68.637 21.526,68.637L21.277,68.637C19.892,68.667 19.892,68.667 19.743,68.667C19.554,68.667 19.554,68.667 18.169,68.637L18.169,68.936L18.527,68.966C18.996,69.005 19.036,69.075 19.036,69.862L19.036,74.585C19.036,74.953 18.956,75.173 18.816,75.232L18.557,75.332L18.557,75.561C19.245,75.541 19.454,75.531 19.643,75.531C19.892,75.531 20.51,75.561 20.879,75.561ZM19.982,71.925C20.371,71.905 20.46,71.905 20.65,71.905C21.995,71.905 22.622,72.393 22.622,73.459C22.622,74.515 21.935,75.143 20.749,75.143C20.46,75.143 20.231,75.123 19.982,75.063L19.982,71.925ZM19.982,69.115C20.241,69.055 20.47,69.035 20.789,69.035C21.855,69.035 22.323,69.394 22.323,70.221C22.323,71.088 21.726,71.556 20.59,71.556C20.42,71.556 20.291,71.556 19.982,71.536L19.982,69.115Z" style="fill:black;fill-rule:nonzero;"/>
        <path d="M53.599,94.727C53.599,96.879 55.173,98.333 57.514,98.333C58.341,98.333 59.088,98.154 59.776,97.795L60.055,97.297L59.965,97.197C59.347,97.596 58.66,97.795 57.903,97.795C55.96,97.795 54.665,96.5 54.665,94.537C54.665,92.704 55.801,91.489 57.514,91.489C58.491,91.489 59.497,91.887 59.497,92.276L59.497,92.993L59.806,92.993C59.816,92.495 59.856,92.136 59.995,91.479C59.148,91.2 58.421,91.07 57.694,91.07C55.552,91.07 53.599,92.335 53.599,94.727Z" style="fill:black;fill-rule:nonzero;"/>
        <path d="M51.821,65.02C52.1,65 52.399,64.99 52.847,64.99C53.584,64.99 53.853,65.02 54.032,65.11L54.112,65.359L54.162,65.947L54.461,65.947C54.431,65.02 54.431,65.02 54.431,64.841C54.431,64.681 54.431,64.681 54.461,63.685L54.162,63.685L54.112,64.203C54.102,64.293 54.072,64.382 54.032,64.462C53.853,64.542 53.574,64.572 52.917,64.572C52.498,64.572 52.159,64.562 51.821,64.542L51.821,61.882C52.12,61.812 52.299,61.802 52.887,61.802C53.365,61.802 53.923,61.862 54.232,61.942C54.471,62.001 54.501,62.051 54.501,62.28L54.501,62.928L54.849,62.928C54.849,62.33 54.899,61.852 55.009,61.413C54.521,61.394 54.222,61.384 53.793,61.384L52.727,61.394C52.239,61.413 51.89,61.413 51.641,61.413C51.352,61.413 51.352,61.413 49.888,61.384L49.888,61.682L50.366,61.712C50.824,61.742 50.874,61.822 50.874,62.609L50.874,67.082C50.874,67.87 50.824,67.949 50.366,67.979L49.888,68.009L49.888,68.308C50.476,68.288 50.824,68.278 51.342,68.278C51.861,68.278 52.219,68.288 52.807,68.308L52.807,68.009L52.329,67.979C51.87,67.949 51.821,67.87 51.821,67.082L51.821,65.02Z" style="fill:black;fill-rule:nonzero;"/>
        <path d="M73.931,41.795C73.931,41.217 73.991,40.679 74.09,40.161L73.742,40.161C73.732,40.251 73.642,41.187 73.363,41.287C73.154,41.357 72.427,41.407 71.53,41.407C71.012,41.407 70.833,41.387 70.544,41.327L70.544,38.537C70.823,38.517 71.122,38.507 71.57,38.507C72.307,38.507 72.576,38.537 72.755,38.627L72.835,38.876L72.885,39.464L73.184,39.464C73.154,38.537 73.154,38.537 73.154,38.358C73.154,38.199 73.154,38.199 73.184,37.202L72.885,37.202L72.835,37.72C72.825,37.81 72.795,37.9 72.755,37.979C72.576,38.059 72.297,38.089 71.64,38.089C71.221,38.089 70.882,38.079 70.544,38.059L70.544,35.399C70.853,35.329 71.022,35.319 71.709,35.319C72.277,35.319 72.835,35.369 73.154,35.459C73.393,35.519 73.423,35.568 73.423,35.797L73.423,36.445L73.772,36.445C73.772,35.847 73.821,35.369 73.931,34.931C73.443,34.911 73.134,34.901 72.696,34.901C71.769,34.901 70.843,34.931 70.384,34.931C70.046,34.931 69.597,34.921 68.611,34.901L68.611,35.2L69.089,35.23C69.547,35.259 69.597,35.339 69.597,36.126L69.597,40.6C69.597,41.387 69.557,41.456 69.089,41.496L68.73,41.526L68.73,41.825C69.388,41.805 69.677,41.795 69.956,41.795C70.414,41.795 71.57,41.825 72.267,41.825C72.576,41.825 72.576,41.825 73.931,41.795Z" style="fill:black;fill-rule:nonzero;"/>
        <path d="M85.958,75.392C87.233,75.392 88.19,75.063 88.887,74.376C89.605,73.668 90.043,72.592 90.043,71.526C90.043,69.673 88.668,68.468 86.566,68.468C86.397,68.468 85.53,68.497 84.832,68.497C84.464,68.497 83.916,68.488 82.78,68.468L82.78,68.766L83.178,68.796C83.637,68.826 83.687,68.916 83.687,69.693L83.687,74.416C83.687,74.704 83.597,74.924 83.438,75.003L83.129,75.163L83.129,75.392C84.284,75.362 84.284,75.362 84.514,75.362C85.091,75.362 85.53,75.392 85.958,75.392ZM88.977,71.785C88.977,72.901 88.638,73.758 87.981,74.296C87.383,74.784 85.759,74.874 84.633,74.874L84.633,68.946C84.852,68.926 85.071,68.926 85.291,68.926C87.124,68.926 88.977,69.494 88.977,71.696L88.977,71.785Z" style="fill:black;fill-rule:nonzero;"/>
    </g>
</svg>
