<?xml version="1.0" standalone="no"?>
<!DOCTYPE svg PUBLIC "-//W3C//DTD SVG 1.1//EN" "http://www.w3.org/Graphics/SVG/1.1/DTD/svg11.dtd">
<svg width="100%" height="100%" viewBox="0 0 1078 965" version="1.1" xmlns="http://www.w3.org/2000/svg" xmlns:xlink="http://www.w3.org/1999/xlink" xml:space="preserve" style="fill-rule:evenodd;clip-rule:evenodd;stroke-linejoin:round;stroke-miterlimit:10;">
    <g transform="matrix(8.33333,0,0,8.33333,0,0)">
        <path d="M156.461,66.907L152.11,67.799C147.76,68.69 139.059,70.473 134.708,71.365L130.357,72.256" style="fill:none;stroke-width:0.4px;stroke:black;"/>
        <path d="M65.215,24.339L65.817,23.736C66.42,23.133 67.625,21.928 67.987,19.577C68.349,17.227 67.867,13.731 66.36,11.14C64.853,8.548 62.322,6.861 59.248,5.655C56.175,4.45 52.558,3.727 48.882,4.51C45.206,5.294 41.469,7.584 38.034,9.814C34.599,12.044 31.465,14.214 29.114,16.022C26.764,17.83 25.197,19.276 23.389,20.481C21.581,21.687 19.532,22.651 18.507,24.761C17.482,26.87 17.482,30.124 17.663,33.138C17.844,36.151 18.206,38.923 18.386,41.153C18.567,43.383 18.567,45.071 18.567,45.915L18.567,46.759" style="fill:none;stroke-width:0.4px;stroke:black;"/>
        <path d="M18.567,46.759L17.181,47.421C15.795,48.084 13.023,49.41 11.335,51.098C9.648,52.785 9.045,54.834 8.744,56.642C8.442,58.45 8.442,60.017 9.407,61.403C10.371,62.789 12.299,63.995 13.565,64.959C14.831,65.923 15.433,66.647 15.735,68.756C16.036,70.866 16.036,74.361 15.674,76.893C15.313,79.424 14.59,80.991 14.107,82.256C13.625,83.522 13.384,84.486 14.168,85.27C14.951,86.053 16.759,86.656 18.507,86.957C20.255,87.258 21.942,87.258 23.931,87.379C25.92,87.499 28.21,87.74 30.078,87.921C31.947,88.102 33.393,88.223 34.779,88.524C36.165,88.825 37.491,89.308 38.636,89.73C39.781,90.151 40.746,90.513 41.348,90.935C41.951,91.357 42.192,91.839 42.313,92.08L42.433,92.321" style="fill:none;stroke-width:0.4px;stroke:black;"/>
        <path d="M18.567,46.759L19.893,46.759C21.219,46.759 23.871,46.759 25.92,46.879C27.969,47 29.416,47.241 30.681,47.723C31.947,48.205 33.032,48.928 34.418,49.651C35.804,50.374 37.492,51.098 38.697,51.519C39.902,51.941 40.625,52.062 41.349,52.182C42.072,52.303 42.795,52.423 43.157,52.484L43.518,52.544" style="fill:none;stroke-width:0.4px;stroke:black;"/>
        <path d="M43.518,52.544L44.844,52.423C46.17,52.303 48.822,52.062 50.449,51.821C52.076,51.58 52.679,51.339 53.221,50.796C53.764,50.254 54.246,49.41 54.728,48.506C55.21,47.602 55.693,46.638 56.054,45.794C56.416,44.95 56.657,44.227 56.777,43.865L56.898,43.504" style="fill:none;stroke-width:0.4px;stroke:black;"/>
        <path d="M56.898,43.504L56.476,42.419C56.054,41.334 55.21,39.165 54.969,37.356C54.728,35.548 55.09,34.102 55.753,32.957C56.416,31.812 57.38,30.968 59.007,29.582C60.634,28.196 62.924,26.267 64.07,25.303L65.215,24.339" style="fill:none;stroke-width:0.4px;stroke:black;"/>
        <path d="M56.898,43.504L64.371,43.504C66.541,43.504 68.228,43.504 69.433,43.685C70.639,43.865 71.362,44.227 72.025,45.312C72.688,46.397 73.291,48.205 73.592,49.47C73.893,50.736 73.893,51.459 73.893,51.821L73.893,52.182" style="fill:none;stroke-width:0.4px;stroke:black;"/>
        <path d="M73.893,52.182L75.038,52.002C76.183,51.821 78.474,51.459 80.704,51.158C82.934,50.857 85.103,50.615 87.333,50.193C89.563,49.771 91.853,49.169 93.842,48.566C95.831,47.964 97.519,47.361 98.543,46.939C99.568,46.517 99.929,46.276 100.11,46.155L100.291,46.035" style="fill:none;stroke-width:0.4px;stroke:black;"/>
        <path d="M100.291,46.035L100.351,44.709C100.411,43.383 100.532,40.731 100.291,38.501C100.05,36.271 99.447,34.464 98.061,32.836C96.675,31.209 94.505,29.763 92.998,28.738C91.492,27.714 90.648,27.111 89.262,26.629C87.876,26.146 85.947,25.785 84.018,25.604C82.09,25.423 80.161,25.423 78.655,25.423C77.148,25.423 76.063,25.423 73.894,25.243C71.724,25.062 68.469,24.7 66.842,24.519L65.215,24.339" style="fill:none;stroke-width:0.4px;stroke:black;"/>
        <path d="M100.291,46.035L101.677,46.637C103.063,47.24 105.835,48.446 107.824,49.651C109.813,50.856 111.018,52.062 112.043,53.267C113.068,54.472 113.911,55.678 114.574,57.245C115.237,58.812 115.719,60.741 115.78,62.91C115.84,65.08 115.478,67.491 114.876,69.781C114.273,72.071 113.429,74.241 112.163,76.229C110.898,78.218 109.21,80.026 107.342,81.834C105.474,83.642 103.425,85.45 101.677,87.017C99.929,88.584 98.483,89.91 96.614,90.453C94.746,90.995 92.456,90.754 90.527,90.453C88.599,90.151 87.032,89.79 86.248,89.609L85.465,89.428" style="fill:none;stroke-width:0.4px;stroke:black;"/>
        <path d="M85.465,89.428L84.561,90.935C83.657,92.442 81.849,95.455 80.101,97.504C78.353,99.553 76.666,100.638 74.978,101.542C73.291,102.446 71.603,103.169 69.674,104.013C67.746,104.857 65.576,105.821 63.407,106.303C61.237,106.785 59.067,106.785 56.958,106.725C54.849,106.665 52.8,106.544 50.931,106.183C49.063,105.821 47.375,105.218 45.808,104.133C44.241,103.048 42.795,101.481 42.253,99.432C41.71,97.383 42.072,94.852 42.252,93.586L42.433,92.321" style="fill:none;stroke-width:0.4px;stroke:black;"/>
        <path d="M42.433,92.321L43.277,91.115C44.121,89.91 45.809,87.499 46.833,85.872C47.858,84.245 48.219,83.401 48.581,82.497C48.942,81.593 49.304,80.629 49.485,80.147L49.665,79.665" style="fill:none;stroke-width:0.4px;stroke:black;"/>
        <path d="M49.665,79.665L50.871,79.484C52.076,79.303 54.487,78.942 56.476,78.64C58.465,78.339 60.032,78.098 61.418,77.796C62.804,77.495 64.009,77.133 64.974,76.892C65.938,76.651 66.661,76.531 67.565,76.229C68.469,75.928 69.554,75.446 70.217,75.084C70.88,74.723 71.121,74.482 71.242,74.361L71.362,74.241" style="fill:none;stroke-width:0.4px;stroke:black;"/>
        <path d="M71.362,74.241L72.387,74.783C73.411,75.325 75.46,76.41 76.726,77.435C77.991,78.459 78.474,79.423 79.076,80.267C79.679,81.111 80.402,81.834 81.487,83.341C82.572,84.848 84.018,87.138 84.741,88.283L85.465,89.428" style="fill:none;stroke-width:0.4px;stroke:black;"/>
        <path d="M71.362,74.241L71.905,72.915C72.447,71.589 73.532,68.937 74.074,66.828C74.617,64.718 74.617,63.151 74.496,61.765C74.376,60.379 74.134,59.173 74.014,57.606C73.893,56.039 73.893,54.111 73.893,53.147L73.893,52.182" style="fill:none;stroke-width:0.4px;stroke:black;"/>
        <path d="M43.518,52.544L43.157,53.749C42.795,54.955 42.072,57.365 42.192,59.475C42.313,61.584 43.277,63.392 44.362,64.839C45.447,66.285 46.652,67.37 47.496,68.515C48.34,69.66 48.822,70.865 49.123,72.734C49.424,74.602 49.545,77.133 49.605,78.399L49.665,79.665" style="fill:none;stroke-width:0.4px;stroke:black;"/>
        <path d="M66.715,24.339C66.715,23.51 66.043,22.839 65.215,22.839C64.386,22.839 63.715,23.51 63.715,24.339C63.715,25.167 64.386,25.839 65.215,25.839C66.043,25.839 66.715,25.167 66.715,24.339" style="fill:black;"/>
        <path d="M66.715,24.339C66.715,23.51 66.043,22.839 65.215,22.839C64.386,22.839 63.715,23.51 63.715,24.339C63.715,25.167 64.386,25.839 65.215,25.839C66.043,25.839 66.715,25.167 66.715,24.339Z" style="fill:none;stroke-width:0.6px;stroke:black;"/>
        <path d="M58.398,43.504C58.398,42.676 57.726,42.004 56.898,42.004C56.069,42.004 55.398,42.676 55.398,43.504C55.398,44.332 56.069,45.004 56.898,45.004C57.726,45.004 58.398,44.332 58.398,43.504" style="fill:black;"/>
        <path d="M58.398,43.504C58.398,42.676 57.726,42.004 56.898,42.004C56.069,42.004 55.398,42.676 55.398,43.504C55.398,44.332 56.069,45.004 56.898,45.004C57.726,45.004 58.398,44.332 58.398,43.504Z" style="fill:none;stroke-width:0.6px;stroke:black;"/>
        <path d="M45.018,52.544C45.018,51.716 44.346,51.044 43.518,51.044C42.689,51.044 42.018,51.716 42.018,52.544C42.018,53.372 42.689,54.044 43.518,54.044C44.346,54.044 45.018,53.372 45.018,52.544" style="fill:black;"/>
        <path d="M45.018,52.544C45.018,51.716 44.346,51.044 43.518,51.044C42.689,51.044 42.018,51.716 42.018,52.544C42.018,53.372 42.689,54.044 43.518,54.044C44.346,54.044 45.018,53.372 45.018,52.544Z" style="fill:none;stroke-width:0.6px;stroke:black;"/>
        <path d="M20.067,46.758C20.067,45.93 19.396,45.258 18.567,45.258C17.739,45.258 17.067,45.93 17.067,46.758C17.067,47.586 17.739,48.258 18.567,48.258C19.396,48.258 20.067,47.586 20.067,46.758" style="fill:black;"/>
        <path d="M20.067,46.758C20.067,45.93 19.396,45.258 18.567,45.258C17.739,45.258 17.067,45.93 17.067,46.758C17.067,47.586 17.739,48.258 18.567,48.258C19.396,48.258 20.067,47.586 20.067,46.758Z" style="fill:none;stroke-width:0.6px;stroke:black;"/>
        <path d="M43.933,92.321C43.933,91.492 43.262,90.821 42.433,90.821C41.605,90.821 40.933,91.492 40.933,92.321C40.933,93.149 41.605,93.821 42.433,93.821C43.262,93.821 43.933,93.149 43.933,92.321" style="fill:black;"/>
        <path d="M43.933,92.321C43.933,91.492 43.262,90.821 42.433,90.821C41.605,90.821 40.933,91.492 40.933,92.321C40.933,93.149 41.605,93.821 42.433,93.821C43.262,93.821 43.933,93.149 43.933,92.321Z" style="fill:none;stroke-width:0.6px;stroke:black;"/>
        <path d="M51.165,79.665C51.165,78.836 50.494,78.165 49.665,78.165C48.837,78.165 48.165,78.836 48.165,79.665C48.165,80.493 48.837,81.165 49.665,81.165C50.494,81.165 51.165,80.493 51.165,79.665" style="fill:black;"/>
        <path d="M51.165,79.665C51.165,78.836 50.494,78.165 49.665,78.165C48.837,78.165 48.165,78.836 48.165,79.665C48.165,80.493 48.837,81.165 49.665,81.165C50.494,81.165 51.165,80.493 51.165,79.665Z" style="fill:none;stroke-width:0.6px;stroke:black;"/>
        <path d="M86.965,89.428C86.965,88.599 86.293,87.928 85.465,87.928C84.636,87.928 83.965,88.599 83.965,89.428C83.965,90.256 84.636,90.928 85.465,90.928C86.293,90.928 86.965,90.256 86.965,89.428" style="fill:black;"/>
        <path d="M86.965,89.428C86.965,88.599 86.293,87.928 85.465,87.928C84.636,87.928 83.965,88.599 83.965,89.428C83.965,90.256 84.636,90.928 85.465,90.928C86.293,90.928 86.965,90.256 86.965,89.428Z" style="fill:none;stroke-width:0.6px;stroke:black;"/>
        <path d="M101.791,46.035C101.791,45.206 101.119,44.535 100.291,44.535C99.462,44.535 98.791,45.206 98.791,46.035C98.791,46.863 99.462,47.535 100.291,47.535C101.119,47.535 101.791,46.863 101.791,46.035" style="fill:black;"/>
        <path d="M101.791,46.035C101.791,45.206 101.119,44.535 100.291,44.535C99.462,44.535 98.791,45.206 98.791,46.035C98.791,46.863 99.462,47.535 100.291,47.535C101.119,47.535 101.791,46.863 101.791,46.035Z" style="fill:none;stroke-width:0.6px;stroke:black;"/>
        <path d="M75.393,52.182C75.393,51.354 74.722,50.682 73.893,50.682C73.065,50.682 72.393,51.354 72.393,52.182C72.393,53.011 73.065,53.682 73.893,53.682C74.722,53.682 75.393,53.011 75.393,52.182" style="fill:black;"/>
        <path d="M75.393,52.182C75.393,51.354 74.722,50.682 73.893,50.682C73.065,50.682 72.393,51.354 72.393,52.182C72.393,53.011 73.065,53.682 73.893,53.682C74.722,53.682 75.393,53.011 75.393,52.182Z" style="fill:none;stroke-width:0.6px;stroke:black;"/>
        <path d="M72.862,74.241C72.862,73.412 72.19,72.741 71.362,72.741C70.533,72.741 69.862,73.412 69.862,74.241C69.862,75.069 70.533,75.741 71.362,75.741C72.19,75.741 72.862,75.069 72.862,74.241" style="fill:black;"/>
        <path d="M72.862,74.241C72.862,73.412 72.19,72.741 71.362,72.741C70.533,72.741 69.862,73.412 69.862,74.241C69.862,75.069 70.533,75.741 71.362,75.741C72.19,75.741 72.862,75.069 72.862,74.241Z" style="fill:none;stroke-width:0.6px;stroke:black;"/>
        <path d="M40.566,28.176L41.814,28.248C43.062,28.319 45.559,28.462 47.841,28.604C50.124,28.747 52.192,28.89 54.011,29.068C55.829,29.246 57.398,29.46 59.146,29.639C60.893,29.817 62.819,29.959 64.673,30.209C66.528,30.459 68.311,30.815 69.951,31.243C71.592,31.671 73.089,32.17 74.694,32.812C76.299,33.454 78.01,34.239 78.866,34.631L79.722,35.024" style="fill:none;stroke-width:0.4px;stroke-dasharray:4,4;stroke:black;"/>
        <path d="M40.566,28.176L39.71,29.21C38.855,30.245 37.143,32.313 35.645,34.702C34.147,37.092 32.864,39.802 32.008,42.227C31.152,44.652 30.724,46.791 30.331,48.681C29.939,50.572 29.583,52.212 29.297,54.102C29.012,55.992 28.798,58.132 28.691,60.807C28.584,63.481 28.584,66.691 28.584,68.296L28.584,69.9" style="fill:none;stroke-width:0.4px;stroke-dasharray:4,4;stroke:black;"/>
        <path d="M28.584,69.9L30.189,69.722C31.793,69.544 35.003,69.187 37.927,68.83C40.852,68.474 43.491,68.117 45.666,67.832C47.841,67.547 49.553,67.332 51.692,66.583C53.832,65.834 56.4,64.551 57.683,63.909L58.967,63.267" style="fill:none;stroke-width:0.4px;stroke-dasharray:4,4;stroke:black;"/>
        <path d="M79.722,35.024L78.795,35.808C77.868,36.593 76.014,38.162 74.373,39.624C72.733,41.086 71.307,42.441 70.023,43.832C68.739,45.223 67.598,46.649 66.599,48.004C65.601,49.359 64.745,50.643 63.996,51.82C63.247,52.997 62.605,54.066 62.07,54.887C61.535,55.707 61.107,56.277 60.608,57.632C60.109,58.988 59.538,61.127 59.253,62.197L58.967,63.267" style="fill:none;stroke-width:0.4px;stroke-dasharray:4,4;stroke:black;"/>
        <path d="M58.967,63.267L59.895,63.302C60.822,63.338 62.676,63.409 64.495,63.409C66.314,63.409 68.097,63.338 69.523,63.302C70.95,63.267 72.02,63.267 73.268,63.41C74.516,63.552 75.942,63.838 77.333,64.087C78.724,64.337 80.079,64.551 81.541,64.765C83.003,64.979 84.572,65.193 86.034,65.442C87.496,65.692 88.851,65.977 90.135,66.548C91.419,67.119 92.631,67.974 93.238,68.402L93.844,68.83" style="fill:none;stroke-width:0.4px;stroke-dasharray:4,4;stroke:black;"/>
        <path d="M93.844,68.83L93.273,69.9C92.703,70.97 91.562,73.109 89.743,75.106C87.925,77.104 85.428,78.958 83.181,80.741C80.935,82.524 78.938,84.236 76.762,85.805C74.587,87.374 72.234,88.801 69.844,90.049C67.455,91.297 65.03,92.367 63.817,92.902L62.605,93.436" style="fill:none;stroke-width:0.4px;stroke-dasharray:4,4;stroke:black;"/>
        <path d="M62.605,93.436L62.462,92.402C62.32,91.368 62.035,89.3 61.82,87.802C61.606,86.304 61.464,85.377 61.392,83.273C61.321,81.169 61.321,77.888 61.285,75.891C61.25,73.894 61.178,73.181 61.036,72.468C60.893,71.755 60.679,71.041 60.465,70.15C60.251,69.258 60.037,68.188 59.788,67.011C59.538,65.834 59.253,64.551 59.11,63.909L58.967,63.267" style="fill:none;stroke-width:0.4px;stroke-dasharray:4,4;stroke:black;"/>
        <path d="M79.722,35.024L80.079,35.844C80.435,36.664 81.148,38.304 81.719,39.517C82.29,40.729 82.718,41.514 83.217,43.011C83.716,44.509 84.287,46.72 84.822,48.396C85.357,50.072 85.856,51.213 86.391,52.426C86.926,53.639 87.496,54.922 87.96,55.957C88.423,56.991 88.78,57.775 89.244,58.774C89.707,59.772 90.278,60.985 90.742,62.055C91.205,63.124 91.562,64.052 92.061,65.157C92.56,66.263 93.202,67.546 93.523,68.188L93.844,68.83" style="fill:none;stroke-width:0.4px;stroke-dasharray:4,4;stroke:black;"/>
        <path d="M40.566,28.176L41.208,29.353C41.85,30.53 43.134,32.884 44.382,35.059C45.63,37.235 46.843,39.232 47.984,41.193C49.125,43.154 50.195,45.08 51.371,47.54C52.548,50.001 53.832,52.997 54.795,55.136C55.758,57.276 56.4,58.56 57.042,59.772C57.683,60.985 58.325,62.126 58.646,62.696L58.967,63.267" style="fill:none;stroke-width:0.4px;stroke-dasharray:4,4;stroke:black;"/>
        <path d="M40.566,28.176L39.924,27.392C39.282,26.607 37.998,25.038 36.822,23.255C35.645,21.472 34.575,19.475 33.719,18.049C32.864,16.622 32.222,15.766 31.116,14.447C30.011,13.128 28.442,11.344 27.479,10.31C26.516,9.276 26.159,8.991 25.41,8.313C24.661,7.636 23.52,6.566 22.878,5.995C22.236,5.425 22.094,5.353 22.022,5.318L21.951,5.282" style="fill:none;stroke-width:0.4px;stroke-dasharray:4,4;stroke:black;"/>
        <path d="M79.722,35.024L83.466,32.242C87.211,29.46 94.7,23.897 98.444,21.115L102.189,18.334" style="fill:none;stroke-width:0.4px;stroke-dasharray:4,4;stroke:black;"/>
        <path d="M93.844,68.83L96.055,68.438C98.266,68.046 102.688,67.261 108.394,66.477C114.1,65.692 121.089,64.908 124.584,64.515L128.079,64.123" style="fill:none;stroke-width:0.4px;stroke-dasharray:4,4;stroke:black;"/>
        <path d="M62.605,93.436L63.14,97.181C63.675,100.925 64.745,108.414 65.28,112.159L65.815,115.903" style="fill:none;stroke-width:0.4px;stroke-dasharray:4,4;stroke:black;"/>
        <path d="M28.584,69.9L24.233,70.792C19.883,71.683 11.182,73.466 6.831,74.358L2.48,75.249" style="fill:none;stroke-width:0.4px;stroke-dasharray:4,4;stroke:black;"/>
        <path d="M63.009,93.234L62.26,92.985C61.511,92.735 60.013,92.236 58.516,91.772C57.018,91.309 55.52,90.881 53.809,90.275C52.097,89.669 50.171,88.884 48.138,87.814C46.106,86.744 43.966,85.389 41.505,83.677C39.045,81.966 36.263,79.897 34.552,78.4C32.84,76.902 32.198,75.974 31.627,75.225C31.057,74.476 30.557,73.906 30.129,73.014C29.701,72.123 29.345,70.911 29.166,70.304L28.988,69.698" style="fill:none;stroke-width:0.4px;stroke-dasharray:4,4;stroke:black;"/>
        <path d="M42.255,28.561C42.255,27.575 41.455,26.775 40.469,26.775C39.483,26.775 38.683,27.575 38.683,28.561C38.683,29.547 39.483,30.347 40.469,30.347C41.455,30.347 42.255,29.547 42.255,28.561" style="fill:white;"/>
        <path d="M42.255,28.561C42.255,27.575 41.455,26.775 40.469,26.775C39.483,26.775 38.683,27.575 38.683,28.561C38.683,29.547 39.483,30.347 40.469,30.347C41.455,30.347 42.255,29.547 42.255,28.561Z" style="fill:none;stroke-width:0.4px;stroke:black;"/>
        <path d="M30.774,69.698C30.774,68.712 29.975,67.912 28.988,67.912C28.002,67.912 27.203,68.712 27.203,69.698C27.203,70.684 28.002,71.484 28.988,71.484C29.975,71.484 30.774,70.684 30.774,69.698" style="fill:white;"/>
        <path d="M30.774,69.698C30.774,68.712 29.975,67.912 28.988,67.912C28.002,67.912 27.203,68.712 27.203,69.698C27.203,70.684 28.002,71.484 28.988,71.484C29.975,71.484 30.774,70.684 30.774,69.698Z" style="fill:none;stroke-width:0.4px;stroke:black;"/>
        <path d="M64.391,93.436C64.391,92.45 63.592,91.65 62.605,91.65C61.619,91.65 60.82,92.45 60.82,93.436C60.82,94.422 61.619,95.222 62.605,95.222C63.592,95.222 64.391,94.422 64.391,93.436" style="fill:white;"/>
        <path d="M64.391,93.436C64.391,92.45 63.592,91.65 62.605,91.65C61.619,91.65 60.82,92.45 60.82,93.436C60.82,94.422 61.619,95.222 62.605,95.222C63.592,95.222 64.391,94.422 64.391,93.436Z" style="fill:none;stroke-width:0.4px;stroke:black;"/>
        <path d="M95.63,68.83C95.63,67.844 94.831,67.044 93.844,67.044C92.858,67.044 92.059,67.844 92.059,68.83C92.059,69.816 92.858,70.616 93.844,70.616C94.831,70.616 95.63,69.816 95.63,68.83" style="fill:white;"/>
        <path d="M95.63,68.83C95.63,67.844 94.831,67.044 93.844,67.044C92.858,67.044 92.059,67.844 92.059,68.83C92.059,69.816 92.858,70.616 93.844,70.616C94.831,70.616 95.63,69.816 95.63,68.83Z" style="fill:none;stroke-width:0.4px;stroke:black;"/>
        <path d="M81.508,35.023C81.508,34.037 80.709,33.238 79.723,33.238C78.736,33.238 77.937,34.037 77.937,35.023C77.937,36.01 78.736,36.809 79.723,36.809C80.709,36.809 81.508,36.01 81.508,35.023" style="fill:white;"/>
        <path d="M81.508,35.023C81.508,34.037 80.709,33.238 79.723,33.238C78.736,33.238 77.937,34.037 77.937,35.023C77.937,36.01 78.736,36.809 79.723,36.809C80.709,36.809 81.508,36.01 81.508,35.023Z" style="fill:none;stroke-width:0.4px;stroke:black;"/>
        <path d="M60.754,63.267C60.754,62.28 59.954,61.481 58.968,61.481C57.982,61.481 57.182,62.28 57.182,63.267C57.182,64.253 57.982,65.052 58.968,65.052C59.954,65.052 60.754,64.253 60.754,63.267" style="fill:white;"/>
        <path d="M60.754,63.267C60.754,62.28 59.954,61.481 58.968,61.481C57.982,61.481 57.182,62.28 57.182,63.267C57.182,64.253 57.982,65.052 58.968,65.052C59.954,65.052 60.754,64.253 60.754,63.267Z" style="fill:none;stroke-width:0.4px;stroke:black;"/>
        <path d="M60.754,63.267C60.754,62.28 59.954,61.481 58.968,61.481C57.982,61.481 57.182,62.28 57.182,63.267C57.182,64.253 57.982,65.052 58.968,65.052C59.954,65.052 60.754,64.253 60.754,63.267" style="fill:white;"/>
        <path d="M60.754,63.267C60.754,62.28 59.954,61.481 58.968,61.481C57.982,61.481 57.182,62.28 57.182,63.267C57.182,64.253 57.982,65.052 58.968,65.052C59.954,65.052 60.754,64.253 60.754,63.267Z" style="fill:none;stroke-width:0.4px;stroke:black;"/>
    </g>
</svg>
