<?xml version="1.0" standalone="no"?>
<!DOCTYPE svg PUBLIC "-//W3C//DTD SVG 1.1//EN" "http://www.w3.org/Graphics/SVG/1.1/DTD/svg11.dtd">
<svg width="100%" height="100%" viewBox="0 0 227 310" version="1.1" xmlns="http://www.w3.org/2000/svg" xmlns:xlink="http://www.w3.org/1999/xlink" xml:space="preserve" style="fill-rule:evenodd;clip-rule:evenodd;stroke-linecap:round;stroke-linejoin:round;stroke-miterlimit:10;">
    <rect x="-21.5" y="-174.5" width="1118" height="783" style="fill:white;fill-rule:nonzero;"/>
    <path d="M194.819,67.323C198.278,70.782 198.278,76.391 194.819,79.85C191.36,83.31 185.751,83.31 182.291,79.85C178.832,76.391 178.832,70.782 182.291,67.323C185.751,63.863 191.36,63.863 194.819,67.323" style="fill:none;stroke-width:4px;stroke:rgb(79,143,0);"/>
    <path d="M194.819,67.323C198.278,70.782 198.278,76.391 194.819,79.85C191.36,83.31 185.751,83.31 182.291,79.85C178.832,76.391 178.832,70.782 182.291,67.323C185.751,63.863 191.36,63.863 194.819,67.323" style="fill:none;stroke-width:2px;stroke:white;"/>
    <path d="M134.583,7.087C138.042,10.546 138.042,16.155 134.583,19.614C131.123,23.074 125.515,23.074 122.055,19.614C118.596,16.155 118.596,10.546 122.055,7.087C125.515,3.627 131.123,3.627 134.583,7.087" style="fill:none;stroke-width:4px;stroke:rgb(79,143,0);"/>
    <path d="M134.583,7.087C138.042,10.546 138.042,16.155 134.583,19.614C131.123,23.074 125.515,23.074 122.055,19.614C118.596,16.155 118.596,10.546 122.055,7.087C125.515,3.627 131.123,3.627 134.583,7.087" style="fill:none;stroke-width:2px;stroke:white;"/>
    <path d="M95.606,7.087C99.066,10.546 99.066,16.155 95.606,19.614C92.147,23.074 86.538,23.074 83.079,19.614C79.62,16.155 79.62,10.546 83.079,7.087C86.538,3.627 92.147,3.627 95.606,7.087" style="fill:none;stroke-width:4px;stroke:rgb(79,143,0);"/>
    <path d="M95.606,7.087C99.066,10.546 99.066,16.155 95.606,19.614C92.147,23.074 86.538,23.074 83.079,19.614C79.62,16.155 79.62,10.546 83.079,7.087C86.538,3.627 92.147,3.627 95.606,7.087" style="fill:none;stroke-width:2px;stroke:white;"/>
    <path d="M38.913,63.78C42.373,67.239 42.373,72.848 38.913,76.307C35.454,79.766 29.845,79.766 26.386,76.307C22.926,72.848 22.926,67.239 26.386,63.78C29.845,60.32 35.454,60.32 38.913,63.78" style="fill:none;stroke-width:4px;stroke:rgb(79,143,0);"/>
    <path d="M38.913,63.78C42.373,67.239 42.373,72.848 38.913,76.307C35.454,79.766 29.845,79.766 26.386,76.307C22.926,72.848 22.926,67.239 26.386,63.78C29.845,60.32 35.454,60.32 38.913,63.78" style="fill:none;stroke-width:2px;stroke:white;"/>
    <path d="M221.394,132.874C224.853,136.333 224.853,141.942 221.394,145.401C217.934,148.861 212.326,148.861 208.866,145.401C205.407,141.942 205.407,136.333 208.866,132.874C212.326,129.415 217.934,129.415 221.394,132.874" style="fill:none;stroke-width:4px;stroke:rgb(79,143,0);"/>
    <path d="M221.394,132.874C224.853,136.333 224.853,141.942 221.394,145.401C217.934,148.861 212.326,148.861 208.866,145.401C205.407,141.942 205.407,136.333 208.866,132.874C212.326,129.415 217.934,129.415 221.394,132.874" style="fill:none;stroke-width:2px;stroke:white;"/>
    <path d="M221.394,260.433C224.853,263.892 224.853,269.501 221.394,272.96C217.934,276.42 212.326,276.42 208.866,272.96C205.407,269.501 205.407,263.892 208.866,260.433C212.326,256.974 217.934,256.974 221.394,260.433" style="fill:none;stroke-width:4px;stroke:rgb(79,143,0);"/>
    <path d="M221.394,260.433C224.853,263.892 224.853,269.501 221.394,272.96C217.934,276.42 212.326,276.42 208.866,272.96C205.407,269.501 205.407,263.892 208.866,260.433C212.326,256.974 217.934,256.974 221.394,260.433" style="fill:none;stroke-width:2px;stroke:white;"/>
    <path d="M189.504,292.323C192.963,295.782 192.963,301.391 189.504,304.85C186.045,308.31 180.436,308.31 176.977,304.85C173.517,301.391 173.517,295.782 176.977,292.323C180.436,288.863 186.045,288.863 189.504,292.323" style="fill:none;stroke-width:4px;stroke:rgb(79,143,0);"/>
    <path d="M189.504,292.323C192.963,295.782 192.963,301.391 189.504,304.85C186.045,308.31 180.436,308.31 176.977,304.85C173.517,301.391 173.517,295.782 176.977,292.323C180.436,288.863 186.045,288.863 189.504,292.323" style="fill:none;stroke-width:2px;stroke:white;"/>
    <path d="M61.945,292.323C65.404,295.782 65.404,301.391 61.945,304.85C58.485,308.31 52.877,308.31 49.417,304.85C45.958,301.391 45.958,295.782 49.417,292.323C52.877,288.864 58.485,288.864 61.945,292.323" style="fill:none;stroke-width:4px;stroke:rgb(79,143,0);"/>
    <path d="M61.945,292.323C65.404,295.782 65.404,301.391 61.945,304.85C58.485,308.31 52.877,308.31 49.417,304.85C45.958,301.391 45.958,295.782 49.417,292.323C52.877,288.864 58.485,288.864 61.945,292.323" style="fill:none;stroke-width:2px;stroke:white;"/>
    <path d="M19.425,249.803C22.885,253.263 22.885,258.871 19.425,262.331C15.966,265.79 10.357,265.79 6.898,262.331C3.438,258.871 3.438,253.263 6.898,249.803C10.357,246.344 15.966,246.344 19.425,249.803" style="fill:none;stroke-width:4px;stroke:rgb(79,143,0);"/>
    <path d="M19.425,249.803C22.885,253.263 22.885,258.871 19.425,262.331C15.966,265.79 10.357,265.79 6.898,262.331C3.438,258.871 3.438,253.263 6.898,249.803C10.357,246.344 15.966,246.344 19.425,249.803" style="fill:none;stroke-width:2px;stroke:white;"/>
    <path d="M19.425,122.244C22.885,125.703 22.885,131.312 19.425,134.772C15.966,138.231 10.357,138.231 6.898,134.772C3.438,131.312 3.438,125.703 6.898,122.244C10.357,118.785 15.966,118.785 19.425,122.244" style="fill:none;stroke-width:4px;stroke:rgb(79,143,0);"/>
    <path d="M19.425,122.244C22.885,125.703 22.885,131.312 19.425,134.772C15.966,138.231 10.357,138.231 6.898,134.772C3.438,131.312 3.438,125.703 6.898,122.244C10.357,118.785 15.966,118.785 19.425,122.244" style="fill:none;stroke-width:2px;stroke:white;"/>
    <path d="M45.051,97.118L45.051,103.205" style="fill:none;stroke-width:4px;stroke:rgb(79,143,0);"/>
    <path d="M45.051,97.118L45.051,103.205" style="fill:none;stroke-width:2px;stroke:white;"/>
    <path d="M172.61,97.118L172.61,103.205" style="fill:none;stroke-width:4px;stroke:rgb(79,143,0);"/>
    <path d="M172.61,97.118L172.61,103.205" style="fill:none;stroke-width:2px;stroke:white;"/>
    <path d="M182.556,124.28L187.468,129.192" style="fill:none;stroke-width:4px;stroke:rgb(79,143,0);"/>
    <path d="M182.556,124.28L187.468,129.192" style="fill:none;stroke-width:2px;stroke:white;"/>
    <path d="M40.824,266.013L45.736,270.925" style="fill:none;stroke-width:4px;stroke:rgb(79,143,0);"/>
    <path d="M40.824,266.013L45.736,270.925" style="fill:none;stroke-width:2px;stroke:white;"/>
    <path d="M33.922,287.457L204,287.457L204,117.378L33.922,287.457Z" style="fill:rgb(255,251,0);fill-opacity:0.501961;fill-rule:nonzero;"/>
    <path d="M193.37,106.748L23.292,106.748L23.291,276.827L193.37,106.748Z" style="fill:rgb(142,250,0);fill-opacity:0.501961;fill-rule:nonzero;"/>
    <path d="M108.132,7.536L23.093,92.575L193.171,92.575L108.132,7.536Z" style="fill:rgb(255,147,0);fill-opacity:0.501961;fill-rule:nonzero;"/>
    <path d="M175.116,95.58C173.732,96.964 171.489,96.964 170.105,95.58C168.721,94.197 168.721,91.953 170.105,90.569C171.489,89.186 173.732,89.186 175.116,90.569C176.499,91.953 176.499,94.197 175.116,95.58" style="fill:black;fill-rule:nonzero;stroke-width:1px;stroke:black;"/>
    <path d="M175.116,109.754C173.732,111.137 171.489,111.137 170.105,109.754C168.721,108.37 168.721,106.126 170.105,104.743C171.489,103.359 173.732,103.359 175.116,104.743C176.499,106.126 176.499,108.37 175.116,109.754" style="fill:black;fill-rule:nonzero;stroke-width:1px;stroke:black;"/>
    <path d="M182.202,81.407C180.819,82.791 178.575,82.791 177.191,81.407C175.808,80.023 175.808,77.78 177.191,76.396C178.575,75.012 180.819,75.012 182.202,76.396C183.586,77.78 183.586,80.023 182.202,81.407" style="fill:black;fill-rule:nonzero;stroke-width:1px;stroke:black;"/>
    <path d="M182.202,123.927C180.819,125.311 178.575,125.311 177.191,123.927C175.808,122.543 175.808,120.3 177.191,118.916C178.575,117.532 180.819,117.532 182.202,118.916C183.586,120.3 183.586,122.543 182.202,123.927" style="fill:black;fill-rule:nonzero;stroke-width:1px;stroke:black;"/>
    <path d="M192.832,134.557C191.449,135.94 189.205,135.94 187.821,134.557C186.438,133.173 186.438,130.929 187.821,129.546C189.205,128.162 191.449,128.162 192.832,129.546C194.216,130.929 194.216,133.173 192.832,134.557" style="fill:black;fill-rule:nonzero;stroke-width:1px;stroke:black;"/>
    <path d="M207.005,141.643C205.622,143.027 203.378,143.027 201.995,141.643C200.611,140.26 200.611,138.016 201.995,136.632C203.378,135.249 205.622,135.249 207.005,136.632C208.389,138.016 208.389,140.26 207.005,141.643" style="fill:black;fill-rule:nonzero;stroke-width:1px;stroke:black;"/>
    <path d="M121.966,21.171C120.583,22.555 118.339,22.555 116.955,21.171C115.572,19.787 115.572,17.544 116.955,16.16C118.339,14.776 120.583,14.776 121.966,16.16C123.35,17.544 123.35,19.787 121.966,21.171" style="fill:black;fill-rule:nonzero;stroke-width:1px;stroke:black;"/>
    <path d="M100.707,21.171C99.323,22.555 97.079,22.555 95.696,21.171C94.312,19.787 94.312,17.544 95.696,16.16C97.079,14.776 99.323,14.776 100.707,16.16C102.09,17.544 102.09,19.787 100.707,21.171" style="fill:black;fill-rule:nonzero;stroke-width:1px;stroke:black;"/>
    <path d="M40.47,81.407C39.087,82.791 36.843,82.791 35.459,81.407C34.076,80.023 34.076,77.78 35.459,76.396C36.843,75.012 39.087,75.012 40.47,76.396C41.854,77.78 41.854,80.023 40.47,81.407" style="fill:black;fill-rule:nonzero;stroke-width:1px;stroke:black;"/>
    <path d="M47.557,95.58C46.173,96.964 43.93,96.964 42.546,95.58C41.162,94.197 41.162,91.953 42.546,90.569C43.93,89.186 46.173,89.186 47.557,90.569C48.941,91.953 48.941,94.197 47.557,95.58" style="fill:black;fill-rule:nonzero;stroke-width:1px;stroke:black;"/>
    <path d="M47.557,109.754C46.173,111.137 43.93,111.137 42.546,109.754C41.162,108.37 41.162,106.126 42.546,104.743C43.93,103.359 46.173,103.359 47.557,104.743C48.941,106.126 48.941,108.37 47.557,109.754" style="fill:black;fill-rule:nonzero;stroke-width:1px;stroke:black;"/>
    <path d="M26.297,131.013C24.913,132.397 22.67,132.397 21.286,131.013C19.902,129.63 19.902,127.386 21.286,126.002C22.67,124.619 24.913,124.619 26.297,126.002C27.681,127.386 27.681,129.63 26.297,131.013" style="fill:black;fill-rule:nonzero;stroke-width:1px;stroke:black;"/>
    <path d="M26.297,258.572C24.913,259.956 22.67,259.956 21.286,258.572C19.902,257.189 19.902,254.945 21.286,253.561C22.67,252.178 24.913,252.178 26.297,253.561C27.681,254.945 27.681,257.189 26.297,258.572" style="fill:black;fill-rule:nonzero;stroke-width:1px;stroke:black;"/>
    <path d="M40.47,265.659C39.087,267.043 36.843,267.043 35.459,265.659C34.076,264.275 34.076,262.032 35.459,260.648C36.843,259.264 39.087,259.264 40.47,260.648C41.854,262.032 41.854,264.275 40.47,265.659" style="fill:black;fill-rule:nonzero;stroke-width:1px;stroke:black;"/>
    <path d="M51.1,276.29C49.716,277.673 47.473,277.673 46.089,276.29C44.705,274.906 44.705,272.662 46.089,271.279C47.473,269.895 49.716,269.895 51.1,271.279C52.484,272.662 52.484,274.906 51.1,276.29" style="fill:black;fill-rule:nonzero;stroke-width:1px;stroke:black;"/>
    <path d="M58.187,290.463C56.803,291.847 54.56,291.847 53.176,290.463C51.792,289.08 51.792,286.836 53.176,285.452C54.56,284.069 56.803,284.069 58.187,285.452C59.571,286.836 59.571,289.08 58.187,290.463" style="fill:black;fill-rule:nonzero;stroke-width:1px;stroke:black;"/>
    <path d="M185.746,290.463C184.362,291.847 182.118,291.847 180.735,290.463C179.351,289.08 179.351,286.836 180.735,285.452C182.118,284.069 184.362,284.069 185.746,285.452C187.129,286.836 187.129,289.08 185.746,290.463" style="fill:black;fill-rule:nonzero;stroke-width:1px;stroke:black;"/>
    <path d="M207.006,269.203C205.622,270.587 203.378,270.587 201.995,269.203C200.611,267.82 200.611,265.576 201.995,264.193C203.378,262.809 205.622,262.809 207.006,264.193C208.389,265.576 208.389,267.82 207.006,269.203" style="fill:black;fill-rule:nonzero;stroke-width:1px;stroke:black;"/>
    <path d="M122.32,21.524L144.264,43.469" style="fill:none;stroke-width:2px;stroke:black;"/>
    <path d="M176.838,76.043L154.894,54.098" style="fill:none;stroke-width:2px;stroke:black;"/>
    <path d="M95.303,21.485L72.714,43.469" style="fill:none;stroke-width:2px;stroke:black;"/>
    <path d="M40.824,76.042L62.768,54.098" style="fill:none;stroke-width:2px;stroke:black;"/>
    <path d="M49.095,93.075L98.885,93.075" style="fill:none;stroke-width:2px;stroke:black;"/>
    <path d="M168.567,93.075L120.145,93.075" style="fill:none;stroke-width:2px;stroke:black;"/>
    <path d="M40.819,260.29L101.445,199.466" style="fill:none;stroke-width:2px;stroke:black;"/>
    <path d="M176.833,124.276L116.478,184.433" style="fill:none;stroke-width:2px;stroke:black;"/>
    <path d="M23.791,132.551L23.792,181.658" style="fill:none;stroke-width:2px;stroke:black;"/>
    <path d="M23.792,252.024L23.792,202.917" style="fill:none;stroke-width:2px;stroke:black;"/>
    <path d="M204.5,143.181L204.5,192.972" style="fill:none;stroke-width:2px;stroke:black;"/>
    <path d="M204.5,262.653L204.5,214.231" style="fill:none;stroke-width:2px;stroke:black;"/>
    <path d="M59.725,287.957L109.515,287.956" style="fill:none;stroke-width:2px;stroke:black;"/>
    <path d="M179.197,287.957L130.775,287.956" style="fill:none;stroke-width:2px;stroke:black;"/>
    <path d="M48.741,107.395L98.532,107.395" style="fill:none;stroke-width:2px;stroke:black;"/>
    <path d="M168.213,107.395L119.791,107.395" style="fill:none;stroke-width:2px;stroke:black;"/>
    <path d="M51.449,270.92L112.074,210.096" style="fill:none;stroke-width:2px;stroke:black;"/>
    <path d="M187.463,134.905L127.107,195.063" style="fill:none;stroke-width:2px;stroke:black;"/>
    <path d="M144.264,43.469L154.894,54.098" style="fill:none;stroke-width:2px;stroke-dasharray:2,6;stroke:rgb(255,38,0);"/>
    <path d="M72.714,43.469L62.768,54.098" style="fill:none;stroke-width:2px;stroke-dasharray:2,6;stroke:rgb(255,38,0);"/>
    <path d="M98.885,93.075L119.461,93.075" style="fill:none;stroke-width:2px;stroke-dasharray:2,6;stroke:rgb(255,38,0);"/>
    <path d="M98.532,107.395L119.791,107.395" style="fill:none;stroke-width:2px;stroke-dasharray:2,6;stroke:rgb(255,38,0);"/>
    <path d="M23.792,181.658L23.792,202.917" style="fill:none;stroke-width:2px;stroke-dasharray:2,6;stroke:rgb(255,38,0);"/>
    <path d="M101.445,199.466L116.478,184.433" style="fill:none;stroke-width:2px;stroke-dasharray:2,6;stroke:rgb(255,38,0);"/>
    <path d="M127.107,195.063L112.074,210.096" style="fill:none;stroke-width:2px;stroke-dasharray:2,6;stroke:rgb(255,38,0);"/>
    <path d="M109.515,287.956L130.091,287.957" style="fill:none;stroke-width:2px;stroke-dasharray:2,6;stroke:rgb(255,38,0);"/>
    <path d="M204.5,192.972L204.5,213.547" style="fill:none;stroke-width:2px;stroke-dasharray:2,6;stroke:rgb(255,38,0);"/>
    <path d="M174.419,89.457L177.888,82.519" style="fill:none;stroke-width:2px;stroke:rgb(4,51,255);"/>
    <path d="M102.244,18.665L115.417,18.665" style="fill:none;stroke-width:2px;stroke:rgb(4,51,255);"/>
    <path d="M39.773,82.519L43.243,89.457" style="fill:none;stroke-width:2px;stroke:rgb(4,51,255);"/>
    <path d="M26.65,125.649L42.192,110.107" style="fill:none;stroke-width:2px;stroke:rgb(4,51,255);"/>
    <path d="M174.419,110.865L177.888,117.804" style="fill:none;stroke-width:2px;stroke:rgb(4,51,255);"/>
    <path d="M193.944,133.86L200.883,137.329" style="fill:none;stroke-width:2px;stroke:rgb(4,51,255);"/>
    <path d="M186.099,285.099L201.641,269.557" style="fill:none;stroke-width:2px;stroke:rgb(4,51,255);"/>
    <path d="M53.873,284.341L50.403,277.401" style="fill:none;stroke-width:2px;stroke:rgb(4,51,255);"/>
    <path d="M34.347,261.345L27.409,257.876" style="fill:none;stroke-width:2px;stroke:rgb(4,51,255);"/>
</svg>
