<?xml version="1.0" standalone="no"?>
<!DOCTYPE svg PUBLIC "-//W3C//DTD SVG 1.1//EN" "http://www.w3.org/Graphics/SVG/1.1/DTD/svg11.dtd">
<svg width="100%" height="100%" viewBox="0 0 1244 469" version="1.1" xmlns="http://www.w3.org/2000/svg" xmlns:xlink="http://www.w3.org/1999/xlink" xml:space="preserve" style="fill-rule:evenodd;clip-rule:evenodd;stroke-miterlimit:10;">
    <path d="M1039.74,12.314L1234.94,164.113L995.911,186.196L1039.74,12.314Z" style="fill:white;fill-rule:nonzero;"/>
    <path d="M844.228,128.432L1039.74,12.314L995.911,186.196L844.228,128.432Z" style="fill:rgb(198,198,198);fill-rule:nonzero;"/>
    <path d="M844.228,128.432L995.911,186.196L975.583,395.788L834.27,301.446L844.228,128.432Z" style="fill:rgb(178,178,178);fill-rule:nonzero;"/>
    <path d="M995.911,186.196L1234.94,164.113L1204.21,359.954L975.583,395.788L995.911,186.196Z" style="fill:white;fill-rule:nonzero;"/>
    <path d="M373.849,415.69L44.338,460.933L7.814,226.798L359.72,198.537L373.849,415.69Z" style="fill:white;fill-rule:nonzero;"/>
    <path d="M359.72,198.537L7.814,226.798L53.133,154.063L331.127,136.366L359.72,198.537Z" style="fill:rgb(175,175,175);fill-rule:nonzero;"/>
    <path d="M538.124,426.39L475.478,321.474L468.845,140.594L533.537,205.196L538.124,426.39Z" style="fill:rgb(97,97,117);fill-rule:nonzero;"/>
    <path d="M812.264,386.262L538.124,426.39L533.537,205.196L823.172,180.309L812.264,386.262Z" style="fill:rgb(155,156,186);fill-rule:nonzero;"/>
    <path d="M823.172,180.309L533.537,205.196L468.845,140.594L707.056,124.601L823.172,180.309Z" style="fill:rgb(94,95,114);fill-rule:nonzero;"/>
    <path d="M1039.74,12.314L1234.94,164.113" style="fill:none;stroke-width:2px;stroke:black;"/>
    <path d="M1039.74,12.314L844.228,128.432" style="fill:none;stroke-width:2px;stroke:black;"/>
    <path d="M1039.74,12.314L995.911,186.196" style="fill:none;stroke-width:1px;stroke:black;"/>
    <path d="M844.228,128.432L995.911,186.196" style="fill:none;stroke-width:2px;stroke:black;"/>
    <path d="M995.911,186.196L1234.94,164.113" style="fill:none;stroke-width:2px;stroke:black;"/>
    <path d="M44.338,460.933L373.849,415.69" style="fill:none;stroke-width:2px;stroke:black;"/>
    <path d="M44.338,460.933L7.814,226.798" style="fill:none;stroke-width:2px;stroke:black;"/>
    <path d="M373.849,415.69L359.72,198.537" style="fill:none;stroke-width:2px;stroke:black;"/>
    <path d="M7.814,226.798L359.72,198.537" style="fill:none;stroke-width:1px;stroke:black;"/>
    <path d="M331.127,136.366L53.133,154.063" style="fill:none;stroke-width:2px;stroke:black;"/>
    <path d="M53.133,154.063L7.814,226.798" style="fill:none;stroke-width:2px;stroke:black;"/>
    <path d="M475.478,321.474L538.124,426.39" style="fill:none;stroke-width:2px;stroke:rgb(47,47,47);"/>
    <path d="M538.124,426.39L812.264,386.262" style="fill:none;stroke-width:2px;stroke:rgb(47,47,47);"/>
    <path d="M475.478,321.474L468.845,140.594" style="fill:none;stroke-width:2px;stroke:rgb(47,47,47);"/>
    <path d="M538.124,426.39L533.537,205.196" style="fill:none;stroke-width:1px;stroke:rgb(47,47,47);"/>
    <path d="M812.264,386.262L823.172,180.309" style="fill:none;stroke-width:2px;stroke:rgb(47,47,47);"/>
    <path d="M823.172,180.309L533.537,205.196" style="fill:none;stroke-width:1px;stroke:rgb(47,47,47);"/>
    <path d="M533.537,205.196L468.845,140.594" style="fill:none;stroke-width:1px;stroke:rgb(47,47,47);"/>
    <path d="M468.845,140.594L707.056,124.601" style="fill:none;stroke-width:2px;stroke:rgb(47,47,47);"/>
    <path d="M834.27,301.446L975.583,395.788" style="fill:none;stroke-width:2px;stroke:black;"/>
    <path d="M975.583,395.788L1204.21,359.954" style="fill:none;stroke-width:2px;stroke:black;"/>
    <path d="M834.27,301.446L844.228,128.432" style="fill:none;stroke-width:2px;stroke:black;"/>
    <path d="M975.583,395.788L995.911,186.196" style="fill:none;stroke-width:1px;stroke:black;"/>
    <path d="M1204.21,359.954L1234.94,164.113" style="fill:none;stroke-width:2px;stroke:black;"/>
    <path d="M359.72,198.537L331.127,136.366" style="fill:none;stroke-width:2px;stroke:black;"/>
    <path d="M707.056,124.601L823.172,180.309" style="fill:none;stroke-width:2px;stroke:rgb(47,47,47);"/>
    <path d="M367.185,313.26L474.964,307.44" style="fill:none;stroke-width:2px;stroke:rgb(255,38,0);"/>
    <path d="M817.418,288.947L835.044,287.995" style="fill:none;stroke-width:2px;stroke:rgb(255,38,0);"/>
    <path d="M44.338,460.933L975.583,395.788" style="fill:none;stroke-width:2px;stroke:rgb(255,38,0);"/>
    <path d="M834.27,301.446L816.704,302.427" style="fill:none;stroke-width:2px;stroke:rgb(255,38,0);"/>
    <path d="M475.478,321.474L368.109,327.467" style="fill:none;stroke-width:2px;stroke:rgb(255,38,0);"/>
    <path d="M844.228,128.432L723.213,132.352" style="fill:none;stroke-width:2px;stroke:rgb(204,38,16);"/>
    <path d="M468.845,140.594L53.133,154.063" style="fill:none;stroke-width:2px;stroke:rgb(204,38,16);"/>
    <path d="M995.911,186.196L533.537,205.196" style="fill:none;stroke-width:2px;stroke:rgb(204,38,16);"/>
    <path d="M533.537,205.196L7.814,226.798" style="fill:none;stroke-width:2px;stroke:rgb(204,38,16);"/>
    <path d="M858.667,119.856L707.056,124.601" style="fill:none;stroke-width:2px;stroke:rgb(204,38,16);"/>
    <path d="M965.728,174.702L823.172,180.309" style="fill:none;stroke-width:2px;stroke:rgb(204,38,16);"/>
    <path d="M520.535,192.212L359.72,198.537" style="fill:none;stroke-width:2px;stroke:rgb(204,38,16);"/>
    <path d="M707.056,124.601L331.127,136.366" style="fill:none;stroke-width:2px;stroke:rgb(204,38,16);"/>
    <path d="M373.849,415.69L525.651,405.5" style="fill:none;stroke-width:2px;stroke:rgb(255,38,0);"/>
    <path d="M812.264,386.262L947.697,377.172" style="fill:none;stroke-width:2px;stroke:rgb(255,38,0);"/>
</svg>
