<?xml version="1.0" standalone="no"?>
<!DOCTYPE svg PUBLIC "-//W3C//DTD SVG 1.1//EN" "http://www.w3.org/Graphics/SVG/1.1/DTD/svg11.dtd">
<svg width="100%" height="100%" viewBox="0 0 503 216" version="1.1" xmlns="http://www.w3.org/2000/svg" xmlns:xlink="http://www.w3.org/1999/xlink" xml:space="preserve" style="fill-rule:evenodd;clip-rule:evenodd;stroke-linecap:round;stroke-linejoin:round;stroke-miterlimit:10;">
    <g>
        <clipPath id="_clip1">
            <rect x="-20.504" y="-126.727" width="523" height="505"/>
        </clipPath>
        <g clip-path="url(#_clip1)">
            <rect x="-57.504" y="-191.727" width="559" height="783" style="fill:white;fill-rule:nonzero;"/>
            <path d="M259.119,126.337C260.177,127.398 261.382,128.462 262.296,129.519C263.209,130.577 263.839,131.133 264.601,132.683C265.362,134.233 266.384,136.871 266.866,138.821C267.348,140.77 267.516,142.546 267.492,144.383C267.469,146.22 266.98,148.024 266.724,149.844" style="fill:none;stroke-width:1px;stroke:black;"/>
            <path d="M188.252,144.347C189.311,145.408 190.516,146.472 191.43,147.529C192.343,148.587 192.973,149.143 193.735,150.693C194.496,152.243 195.518,154.881 196,156.831C196.482,158.78 196.65,160.556 196.626,162.393C196.603,164.23 196.114,166.033 195.858,167.853" style="fill:none;stroke-width:1px;stroke:black;"/>
            <path d="M329.985,108.827C331.043,109.888 332.248,110.952 333.162,112.009C334.075,113.067 334.705,113.623 335.467,115.173C336.228,116.723 337.25,119.361 337.732,121.311C338.214,123.261 338.382,125.036 338.358,126.873C338.335,128.71 337.846,130.514 337.59,132.334" style="fill:none;stroke-width:1px;stroke:black;"/>
            <path d="M319.071,107.953C319.738,107.569 320.171,107.063 321.072,106.803C321.972,106.543 323.379,106.299 324.473,106.392C325.567,106.484 326.712,106.962 327.636,107.36C328.561,107.757 329.225,108.305 330.019,108.778" style="fill:none;stroke-width:1px;stroke:black;"/>
            <path d="M380.735,56.432C377.478,57.161 373.538,57.906 370.963,58.619C368.388,59.331 366.569,60.136 365.284,60.707C364,61.278 363.686,61.716 363.253,62.045C362.82,62.375 362.793,62.449 362.686,62.682C362.578,62.916 362.633,63.19 362.607,63.444" style="fill:none;stroke-width:1px;stroke:black;"/>
            <path d="M117.386,162.357C118.445,163.417 119.65,164.481 120.563,165.539C121.477,166.596 122.107,167.153 122.869,168.703C123.63,170.253 124.652,172.891 125.134,174.84C125.616,176.79 125.784,178.566 125.76,180.403C125.736,182.24 125.248,184.043 124.992,185.863" style="fill:none;stroke-width:1px;stroke:black;"/>
            <path d="M106.473,161.482C107.139,161.099 107.573,160.592 108.473,160.332C109.374,160.072 110.78,159.828 111.874,159.921C112.968,160.014 114.114,160.491 115.038,160.889C115.962,161.287 116.627,161.835 117.421,162.307" style="fill:none;stroke-width:1px;stroke:black;"/>
            <path d="M411.446,102.502L62.815,191.423L2.165,91.515L343.71,2.595L411.446,102.502Z" style="fill:rgb(0,249,0);fill-opacity:0.478431;fill-rule:nonzero;stroke-width:1px;stroke:black;"/>
            <path d="M411.445,102.502L500.027,122.235L158.483,211.155L62.815,191.422L411.445,102.502Z" style="fill:rgb(118,214,255);fill-opacity:0.490196;fill-rule:nonzero;stroke-width:1px;stroke:black;"/>
            <path d="M106.473,161.482C105.946,162.042 105.378,162.464 104.894,163.162C104.409,163.859 103.956,164.354 103.566,165.668C103.176,166.981 102.496,168.788 102.554,171.044C102.613,173.299 103.183,176.871 103.915,179.204C104.648,181.537 105.868,183.427 106.95,185.043C108.032,186.66 109.186,187.89 110.409,188.905C111.633,189.921 113.261,190.694 114.294,191.137C115.326,191.579 115.806,191.495 116.605,191.56C117.404,191.625 118.267,191.705 119.088,191.527C119.909,191.348 120.753,191.052 121.531,190.487C122.309,189.923 123.177,188.909 123.754,188.139C124.331,187.368 124.579,186.622 124.992,185.863" style="fill:none;stroke-width:1px;stroke:black;"/>
            <path d="M122.384,139.96C111.86,150.839 91.842,155.344 77.672,150.023C63.502,144.702 60.546,131.57 71.07,120.691C81.594,109.812 101.613,105.307 115.783,110.628C129.953,115.949 132.908,129.082 122.384,139.96" style="fill:none;stroke-width:1px;stroke:black;"/>
            <path d="M124.535,116.281L124.937,124.816L130.45,122.447L124.535,116.281Z" style="fill:black;fill-rule:nonzero;stroke-width:1px;stroke-linecap:butt;stroke-linejoin:miter;stroke:black;"/>
            <path d="M102.891,174.722L101.414,183.137L107.311,182.033L102.891,174.722Z" style="fill:black;fill-rule:nonzero;stroke-width:1px;stroke-linecap:butt;stroke-linejoin:miter;stroke:black;"/>
            <path d="M103.235,151.132L106.473,161.482" style="fill:none;stroke-width:1px;stroke-dasharray:1,4;stroke:black;"/>
            <path d="M64.369,195.207C62.06,195.219 60.179,193.357 60.167,191.048C60.155,188.739 62.017,186.857 64.326,186.845C66.635,186.833 68.516,188.696 68.528,191.005C68.54,193.314 66.678,195.195 64.369,195.207" style="fill:black;fill-rule:nonzero;stroke-width:1px;stroke:black;"/>
            <path d="M411.863,105.85C409.554,105.862 407.672,103.999 407.661,101.69C407.649,99.381 409.511,97.5 411.82,97.488C414.129,97.476 416.01,99.338 416.022,101.647C416.034,103.956 414.172,105.838 411.863,105.85" style="fill:black;fill-rule:nonzero;stroke-width:1px;stroke:black;"/>
            <path d="M68.882,189.86L407.307,102.835" style="fill:none;stroke-width:2px;stroke:black;"/>
            <path d="M334.422,87.852C323.898,98.731 303.88,103.236 289.71,97.915C275.54,92.594 272.584,79.462 283.108,68.583C293.632,57.704 313.65,53.199 327.82,58.52C341.99,63.841 344.946,76.974 334.422,87.852" style="fill:none;stroke-width:1px;stroke:black;"/>
            <path d="M337.423,65.045L335.946,73.46L341.843,72.356L337.423,65.045Z" style="fill:black;fill-rule:nonzero;stroke-width:1px;stroke-linecap:butt;stroke-linejoin:miter;stroke:black;"/>
            <path d="M380.735,56.394C382.555,56.141 384.328,55.82 386.194,55.635C388.06,55.449 389.794,55.249 391.933,55.281C394.073,55.312 397.667,55.403 399.033,55.824C400.4,56.245 401.099,56.916 400.133,57.807C399.166,58.699 395.702,60.293 393.235,61.175C390.768,62.057 389.051,62.481 385.328,63.1C381.605,63.72 374.238,64.631 370.894,64.891C367.549,65.152 366.527,64.811 365.26,64.664C363.993,64.517 363.717,64.198 363.291,64.007C362.865,63.817 362.9,63.682 362.705,63.52" style="fill:none;stroke-width:1px;stroke:black;"/>
            <path d="M340.474,69.578L362.705,63.52" style="fill:none;stroke-width:1px;stroke-dasharray:1,4;stroke:black;"/>
            <path d="M319.071,107.953C318.545,108.512 317.976,108.935 317.492,109.632C317.008,110.33 316.554,110.825 316.164,112.138C315.775,113.452 315.094,115.258 315.153,117.514C315.211,119.77 315.781,123.341 316.514,125.674C317.246,128.007 318.466,129.897 319.548,131.514C320.631,133.131 321.784,134.36 323.008,135.376C324.232,136.391 325.86,137.165 326.892,137.607C327.925,138.049 328.404,137.965 329.203,138.03C330.002,138.095 330.865,138.176 331.686,137.997C332.507,137.818 333.352,137.522 334.129,136.958C334.907,136.393 335.775,135.38 336.352,134.609C336.929,133.839 337.178,133.092 337.59,132.334" style="fill:none;stroke-width:1px;stroke:black;"/>
            <path d="M315.6,120.952L314.123,129.367L320.02,128.263L315.6,120.952Z" style="fill:black;fill-rule:nonzero;stroke-width:1px;stroke-linecap:butt;stroke-linejoin:miter;stroke:black;"/>
            <path d="M356.871,146.916C350.314,150.012 339.12,152.531 331.869,152.542C324.618,152.554 324.055,150.053 330.612,146.957C337.169,143.86 348.362,141.341 355.614,141.33C362.865,141.318 363.428,143.819 356.871,146.916" style="fill:none;stroke-width:1px;stroke:black;"/>
            <path d="M346.718,141.812L338.205,142.541L340.783,147.959L346.718,141.812Z" style="fill:black;fill-rule:nonzero;stroke-width:1px;stroke-linecap:butt;stroke-linejoin:miter;stroke:black;"/>
            <path d="M334.129,136.958L336.858,144.844" style="fill:none;stroke-width:1px;stroke-dasharray:1,4;stroke:black;"/>
            <path d="M177.339,143.472C178.006,143.089 178.439,142.583 179.339,142.323C180.24,142.062 181.646,141.819 182.741,141.911C183.835,142.004 184.98,142.482 185.904,142.879C186.829,143.277 187.493,143.825 188.287,144.297" style="fill:none;stroke-width:1px;stroke:black;"/>
            <path d="M177.339,143.472C176.812,144.032 176.244,144.454 175.76,145.152C175.275,145.849 174.822,146.344 174.432,147.658C174.042,148.971 173.362,150.778 173.42,153.034C173.479,155.29 174.049,158.861 174.782,161.194C175.514,163.527 176.734,165.417 177.816,167.034C178.898,168.65 180.052,169.88 181.276,170.896C182.499,171.911 184.127,172.684 185.16,173.127C186.192,173.569 186.672,173.485 187.471,173.55C188.27,173.615 189.133,173.696 189.954,173.517C190.775,173.338 191.619,173.042 192.397,172.477C193.175,171.913 194.043,170.899 194.62,170.129C195.197,169.358 195.445,168.612 195.858,167.853" style="fill:none;stroke-width:1px;stroke:black;"/>
            <path d="M193.25,121.951C182.726,132.829 162.708,137.335 148.538,132.014C134.368,126.693 131.413,113.56 141.937,102.681C152.461,91.803 172.479,87.297 186.649,92.618C200.819,97.939 203.774,111.072 193.25,121.951" style="fill:none;stroke-width:1px;stroke:black;"/>
            <path d="M175.504,162.675L176.977,154.259L171.08,155.365L175.504,162.675Z" style="fill:black;fill-rule:nonzero;stroke-width:1px;stroke-linecap:butt;stroke-linejoin:miter;stroke:black;"/>
            <path d="M174.101,133.123L177.339,143.472" style="fill:none;stroke-width:1px;stroke-dasharray:1,4;stroke:black;"/>
            <path d="M248.205,125.463C248.872,125.079 249.305,124.573 250.206,124.313C251.106,124.053 252.513,123.809 253.607,123.902C254.701,123.994 255.846,124.472 256.77,124.869C257.695,125.267 258.359,125.815 259.153,126.288" style="fill:none;stroke-width:1px;stroke:black;"/>
            <path d="M248.205,125.462C247.679,126.022 247.11,126.444 246.626,127.142C246.142,127.839 245.688,128.334 245.298,129.648C244.909,130.961 244.228,132.768 244.287,135.024C244.345,137.28 244.915,140.851 245.648,143.184C246.38,145.517 247.6,147.407 248.682,149.024C249.765,150.641 250.918,151.87 252.142,152.886C253.366,153.901 254.994,154.675 256.026,155.117C257.059,155.559 257.538,155.475 258.337,155.54C259.136,155.605 259.999,155.686 260.82,155.507C261.641,155.328 262.486,155.032 263.263,154.467C264.041,153.903 264.909,152.89 265.486,152.119C266.063,151.348 266.312,150.602 266.724,149.843" style="fill:none;stroke-width:1px;stroke:black;"/>
            <path d="M264.117,103.941C253.593,114.819 233.574,119.325 219.404,114.004C205.234,108.683 202.279,95.55 212.803,84.672C223.327,73.793 243.345,69.287 257.515,74.609C271.685,79.93 274.641,93.062 264.117,103.941" style="fill:none;stroke-width:1px;stroke:black;"/>
            <path d="M244.968,115.113L248.205,125.462" style="fill:none;stroke-width:1px;stroke-dasharray:1,4;stroke:black;"/>
            <path d="M245.87,143.501L247.343,135.085L241.446,136.192L245.87,143.501Z" style="fill:black;fill-rule:nonzero;stroke-width:1px;stroke-linecap:butt;stroke-linejoin:miter;stroke:black;"/>
            <path d="M195.114,98.07L195.516,106.605L201.029,104.236L195.114,98.07Z" style="fill:black;fill-rule:nonzero;stroke-width:1px;stroke-linecap:butt;stroke-linejoin:miter;stroke:black;"/>
            <path d="M207.001,102.119L207.402,110.653L212.915,108.285L207.001,102.119Z" style="fill:black;fill-rule:nonzero;stroke-width:1px;stroke-linecap:butt;stroke-linejoin:miter;stroke:black;"/>
            <path d="M76.682,158.784L76.104,161.315C76.025,161.654 75.985,162.012 75.985,162.331C75.985,162.769 76.164,163.028 76.463,163.028C76.921,163.028 77.738,162.51 79.372,161.155L79.233,160.737C78.755,161.135 78.177,161.673 77.738,161.673C77.559,161.673 77.439,161.494 77.439,161.215C77.439,161.116 77.439,161.056 77.459,160.996L79.293,153.444L79.093,153.265L78.436,153.623C77.619,153.324 77.28,153.245 76.742,153.245C76.184,153.245 75.786,153.344 75.248,153.603C74.012,154.221 73.355,154.819 72.857,155.795C71.98,157.569 71.362,159.96 71.362,161.514C71.362,162.391 71.661,163.068 72.04,163.068C72.777,163.068 74.371,162.032 76.682,158.784ZM77.639,154.6C77.2,156.772 76.822,157.808 76.144,158.844C75.009,160.518 73.793,161.673 73.155,161.673C72.916,161.673 72.797,161.414 72.797,160.876C72.797,159.601 73.355,157.27 74.052,155.676C74.53,154.58 74.989,154.221 75.945,154.221C76.403,154.221 76.762,154.301 77.639,154.6Z" style="fill:black;fill-rule:nonzero;"/>
            <path d="M310.922,49.784L310.344,52.315C310.265,52.654 310.225,53.012 310.225,53.331C310.225,53.769 310.404,54.028 310.703,54.028C311.161,54.028 311.978,53.51 313.612,52.155L313.473,51.737C312.995,52.135 312.417,52.673 311.978,52.673C311.799,52.673 311.679,52.494 311.679,52.215C311.679,52.116 311.679,52.056 311.699,51.996L313.533,44.444L313.333,44.265L312.676,44.623C311.859,44.324 311.52,44.245 310.982,44.245C310.424,44.245 310.026,44.344 309.488,44.603C308.252,45.221 307.595,45.819 307.097,46.795C306.22,48.569 305.602,50.96 305.602,52.514C305.602,53.391 305.901,54.068 306.28,54.068C307.017,54.068 308.611,53.032 310.922,49.784ZM311.879,45.6C311.44,47.772 311.062,48.808 310.384,49.844C309.249,51.518 308.033,52.673 307.395,52.673C307.156,52.673 307.037,52.414 307.037,51.876C307.037,50.601 307.595,48.27 308.292,46.676C308.77,45.58 309.229,45.221 310.185,45.221C310.643,45.221 311.002,45.301 311.879,45.6Z" style="fill:black;fill-rule:nonzero;"/>
            <path d="M318.753,47.194L321.085,47.194L323.715,47.274L324.093,46.377L324.014,46.237C322.4,46.317 321.204,46.357 319.65,46.357L318.913,46.357L319.849,40.977C320.487,40.957 322.141,40.897 322.579,40.897C323.814,40.897 324.631,41.077 324.651,41.375L324.811,43.149L325.289,43.149C325.349,41.874 325.488,40.877 325.707,40.12C325.289,40.08 324.691,40.06 324.333,40.06C324.273,40.06 324.054,40.06 323.575,40.08L321.184,40.1C321.005,40.12 317.538,40.08 317.338,40.08L316.442,40.06L316.382,40.618L317.458,40.658C317.936,40.678 318.155,40.837 318.155,41.196C318.155,41.475 318.076,42.113 317.976,42.71L316.243,52.753C316.163,53.112 315.924,53.251 315.047,53.391L314.947,53.909L315.764,53.889C316.382,53.869 317.617,53.849 318.016,53.849L322.499,53.909C322.778,53.909 323.276,53.889 323.934,53.869L324.592,53.849L324.671,53.132C324.711,52.733 324.811,52.135 324.99,51.159L325.09,50.641L324.552,50.641L324.233,51.837C324.034,52.554 323.854,52.793 323.416,52.893C323.017,52.972 321.563,53.072 320.487,53.072C319.67,53.072 319.132,53.052 317.757,52.933L318.753,47.194Z" style="fill:black;fill-rule:nonzero;"/>
            <path d="M326.983,46.118L327.122,46.516L327.76,46.098C328.497,45.64 328.557,45.6 328.696,45.6C328.915,45.6 329.055,45.799 329.055,46.098C329.055,47.114 328.238,50.96 327.421,53.809L327.561,54.028C328.059,53.889 328.517,53.769 328.955,53.69C329.334,51.179 329.752,49.884 330.669,48.509C331.745,46.835 333.239,45.6 334.136,45.6C334.355,45.6 334.475,45.779 334.475,46.078C334.475,46.437 334.415,46.855 334.256,47.493L333.219,51.717C333.04,52.454 332.96,52.913 332.96,53.231C332.96,53.73 333.18,54.028 333.558,54.028C334.076,54.028 334.794,53.61 336.746,52.155L336.547,51.797L336.029,52.135C335.451,52.514 335.013,52.733 334.814,52.733C334.674,52.733 334.555,52.554 334.555,52.335C334.555,52.235 334.574,52.016 334.594,51.936L335.91,46.437C336.049,45.859 336.129,45.301 336.129,44.962C336.129,44.504 335.91,44.245 335.511,44.245C334.674,44.245 333.299,45.002 332.124,46.098C331.366,46.795 330.808,47.473 329.772,48.927L330.529,45.719C330.609,45.361 330.649,45.122 330.649,44.902C330.649,44.484 330.49,44.245 330.191,44.245C329.772,44.245 328.995,44.683 327.541,45.719L326.983,46.118Z" style="fill:black;fill-rule:nonzero;"/>
            <path d="M344.099,51.637L343.621,51.976C342.565,52.733 341.608,53.132 340.891,53.132C339.954,53.132 339.377,52.395 339.377,51.199C339.377,50.701 339.436,50.163 339.536,49.585C339.875,49.505 342.047,48.907 342.545,48.688C344.239,47.951 345.016,47.034 345.016,45.799C345.016,44.862 344.338,44.245 343.342,44.245C341.987,43.966 339.795,45.42 339.058,46.895C338.46,47.891 337.862,50.262 337.862,51.597C337.862,53.152 338.739,54.068 340.174,54.068C341.309,54.068 342.425,53.51 344.259,52.016L344.099,51.637ZM339.815,48.389C340.154,47.014 340.552,46.158 341.13,45.64C341.489,45.321 342.106,45.082 342.585,45.082C343.163,45.082 343.541,45.48 343.541,46.118C343.541,46.995 342.844,47.931 341.808,48.429C341.25,48.708 340.532,48.927 339.636,49.127L339.815,48.389Z" style="fill:black;fill-rule:nonzero;"/>
            <path d="M345.474,53.829C345.773,53.989 346.092,54.068 346.331,54.068C346.988,54.068 347.765,53.49 348.383,52.554L349.898,50.223L350.117,51.597C350.376,53.291 350.834,54.068 351.551,54.068C351.99,54.068 352.627,53.73 353.265,53.152L354.241,52.275L354.062,51.896C353.345,52.494 352.847,52.793 352.528,52.793C352.229,52.793 351.97,52.594 351.771,52.195C351.591,51.817 351.372,51.079 351.272,50.502L350.914,48.489L351.611,47.513C352.548,46.217 353.086,45.759 353.703,45.759C354.022,45.759 354.261,45.919 354.361,46.217L354.64,46.138L354.939,44.444C354.7,44.305 354.52,44.245 354.341,44.245C353.544,44.245 352.747,44.962 351.512,46.795L350.774,47.891L350.655,46.935C350.416,44.962 349.878,44.245 348.702,44.245C348.184,44.245 347.746,44.404 347.566,44.663L346.411,46.317L346.749,46.516C347.347,45.839 347.746,45.56 348.124,45.56C348.782,45.56 349.22,46.377 349.559,48.33L349.778,49.565L348.981,50.8C348.124,52.135 347.447,52.773 346.889,52.773C346.59,52.773 346.371,52.693 346.331,52.594L346.112,52.036L345.713,52.096C345.713,52.793 345.554,53.311 345.474,53.829Z" style="fill:black;fill-rule:nonzero;"/>
            <path d="M357.728,46.078L356.613,51.717C356.593,51.876 356.354,52.634 356.354,53.231C356.354,53.73 356.573,54.028 356.951,54.028C357.649,54.028 358.346,53.63 359.9,52.375L360.518,51.876L360.319,51.518L359.422,52.135C358.844,52.534 358.446,52.733 358.227,52.733C358.047,52.733 357.948,52.574 357.948,52.335C357.948,51.817 358.227,50.203 358.804,47.313L359.064,46.078L361.196,46.078L361.415,45.082C360.658,45.161 359.98,45.201 359.223,45.201C359.542,43.328 359.761,42.352 360.12,41.276L359.9,40.977C359.502,41.216 358.964,41.455 358.346,41.694L357.848,45.082C356.971,45.5 356.453,45.719 356.095,45.819L356.055,46.078L357.728,46.078Z" style="fill:black;fill-rule:nonzero;"/>
            <g>
                <path d="M346.122,134.784L345.544,137.315C345.465,137.654 345.425,138.012 345.425,138.331C345.425,138.769 345.604,139.028 345.903,139.028C346.361,139.028 347.178,138.51 348.812,137.155L348.673,136.737C348.195,137.135 347.617,137.673 347.178,137.673C346.999,137.673 346.879,137.494 346.879,137.215C346.879,137.116 346.879,137.056 346.899,136.996L348.733,129.444L348.533,129.265L347.876,129.623C347.059,129.324 346.72,129.245 346.182,129.245C345.624,129.245 345.226,129.344 344.688,129.603C343.452,130.221 342.795,130.819 342.297,131.795C341.42,133.569 340.802,135.96 340.802,137.514C340.802,138.391 341.101,139.068 341.48,139.068C342.217,139.068 343.811,138.032 346.122,134.784ZM347.079,130.6C346.64,132.772 346.262,133.808 345.584,134.844C344.449,136.518 343.233,137.673 342.595,137.673C342.356,137.673 342.237,137.414 342.237,136.876C342.237,135.601 342.795,133.27 343.492,131.676C343.97,130.58 344.429,130.221 345.385,130.221C345.843,130.221 346.202,130.301 347.079,130.6Z" style="fill:black;fill-rule:nonzero;"/>
                <path d="M355.248,125.977L357.361,125.897C358.596,125.897 359.393,126.077 359.413,126.375L359.572,128.149L360.051,128.149C360.11,126.893 360.25,125.877 360.469,125.12C360.031,125.08 359.473,125.06 359.134,125.06L358.317,125.08L355.029,125.12L354.451,125.12C353.953,125.12 353.156,125.1 352.399,125.08L351.423,125.06L351.363,125.618L352.479,125.658C352.957,125.678 353.176,125.857 353.176,126.196C353.176,126.475 353.096,127.113 352.997,127.71L351.502,136.358C351.164,138.192 351.164,138.211 350.347,138.291L349.629,138.351L349.55,138.909L350.227,138.889C351.024,138.869 351.662,138.849 352.08,138.849C352.439,138.849 353.017,138.869 353.794,138.889L354.83,138.909L354.89,138.351L353.614,138.291C353.076,138.271 352.897,138.112 352.897,137.713C352.897,137.594 352.917,137.375 352.937,137.295L353.654,132.851L355.986,132.851C356.524,132.851 357.141,132.871 358.098,132.911L358.616,132.931L358.995,132.034L358.915,131.895C357.301,131.975 356.105,132.014 354.551,132.014L353.814,132.014L354.73,126.615C354.79,126.296 354.81,126.196 354.91,125.977L355.248,125.977Z" style="fill:black;fill-rule:nonzero;"/>
                <path d="M361.787,131.118L361.926,131.516L362.564,131.098C363.301,130.64 363.361,130.6 363.5,130.6C363.72,130.6 363.859,130.799 363.859,131.098C363.859,132.114 363.042,135.96 362.225,138.809L362.365,139.028C362.863,138.889 363.321,138.769 363.759,138.69C364.138,136.179 364.556,134.884 365.473,133.509C366.549,131.835 368.043,130.6 368.94,130.6C369.159,130.6 369.279,130.779 369.279,131.078C369.279,131.437 369.219,131.855 369.06,132.493L368.024,136.717C367.844,137.454 367.765,137.913 367.765,138.231C367.765,138.73 367.984,139.028 368.362,139.028C368.88,139.028 369.598,138.61 371.55,137.155L371.351,136.797L370.833,137.135C370.255,137.514 369.817,137.733 369.618,137.733C369.478,137.733 369.359,137.554 369.359,137.335C369.359,137.235 369.379,137.016 369.398,136.936L370.714,131.437C370.853,130.859 370.933,130.301 370.933,129.962C370.933,129.504 370.714,129.245 370.315,129.245C369.478,129.245 368.103,130.002 366.928,131.098C366.17,131.795 365.613,132.473 364.576,133.927L365.334,130.719C365.413,130.361 365.453,130.122 365.453,129.902C365.453,129.484 365.294,129.245 364.995,129.245C364.576,129.245 363.799,129.683 362.345,130.719L361.787,131.118Z" style="fill:black;fill-rule:nonzero;"/>
                <path d="M378.903,136.637L378.425,136.976C377.369,137.733 376.412,138.132 375.695,138.132C374.759,138.132 374.181,137.395 374.181,136.199C374.181,135.701 374.24,135.163 374.34,134.585C374.679,134.505 376.851,133.907 377.349,133.688C379.043,132.951 379.82,132.034 379.82,130.799C379.82,129.862 379.142,129.245 378.146,129.245C376.791,128.966 374.599,130.42 373.862,131.895C373.264,132.891 372.666,135.262 372.666,136.597C372.666,138.152 373.543,139.068 374.978,139.068C376.114,139.068 377.229,138.51 379.063,137.016L378.903,136.637ZM374.619,133.389C374.958,132.014 375.356,131.158 375.934,130.64C376.293,130.321 376.911,130.082 377.389,130.082C377.967,130.082 378.345,130.48 378.345,131.118C378.345,131.995 377.648,132.931 376.612,133.429C376.054,133.708 375.336,133.927 374.44,134.127L374.619,133.389Z" style="fill:black;fill-rule:nonzero;"/>
                <path d="M380.278,138.829C380.577,138.989 380.896,139.068 381.135,139.068C381.792,139.068 382.57,138.49 383.187,137.554L384.702,135.223L384.921,136.597C385.18,138.291 385.638,139.068 386.355,139.068C386.794,139.068 387.431,138.73 388.069,138.152L389.045,137.275L388.866,136.896C388.149,137.494 387.651,137.793 387.332,137.793C387.033,137.793 386.774,137.594 386.575,137.195C386.395,136.817 386.176,136.079 386.077,135.502L385.718,133.489L386.415,132.513C387.352,131.217 387.89,130.759 388.507,130.759C388.826,130.759 389.065,130.919 389.165,131.217L389.444,131.138L389.743,129.444C389.504,129.305 389.324,129.245 389.145,129.245C388.348,129.245 387.551,129.962 386.316,131.795L385.578,132.891L385.459,131.935C385.22,129.962 384.682,129.245 383.506,129.245C382.988,129.245 382.55,129.404 382.37,129.663L381.215,131.317L381.553,131.516C382.151,130.839 382.55,130.56 382.928,130.56C383.586,130.56 384.024,131.377 384.363,133.33L384.582,134.565L383.785,135.8C382.928,137.135 382.251,137.773 381.693,137.773C381.394,137.773 381.175,137.693 381.135,137.594L380.916,137.036L380.517,137.096C380.517,137.793 380.358,138.311 380.278,138.829Z" style="fill:black;fill-rule:nonzero;"/>
                <path d="M392.533,131.078L391.417,136.717C391.397,136.876 391.158,137.634 391.158,138.231C391.158,138.73 391.377,139.028 391.755,139.028C392.453,139.028 393.15,138.63 394.704,137.375L395.322,136.876L395.123,136.518L394.226,137.135C393.648,137.534 393.25,137.733 393.031,137.733C392.851,137.733 392.752,137.574 392.752,137.335C392.752,136.817 393.031,135.203 393.609,132.313L393.868,131.078L396,131.078L396.219,130.082C395.462,130.161 394.784,130.201 394.027,130.201C394.346,128.328 394.565,127.352 394.924,126.276L394.704,125.977C394.306,126.216 393.768,126.455 393.15,126.694L392.652,130.082C391.775,130.5 391.257,130.719 390.899,130.819L390.859,131.078L392.533,131.078Z" style="fill:black;fill-rule:nonzero;"/>
            </g>
            <g>
                <path d="M215.942,66.784L215.364,69.315C215.285,69.654 215.245,70.012 215.245,70.331C215.245,70.769 215.424,71.028 215.723,71.028C216.181,71.028 216.998,70.51 218.632,69.155L218.493,68.737C218.015,69.135 217.437,69.673 216.998,69.673C216.819,69.673 216.699,69.494 216.699,69.215C216.699,69.116 216.699,69.056 216.719,68.996L218.553,61.444L218.353,61.265L217.696,61.623C216.879,61.324 216.54,61.245 216.002,61.245C215.444,61.245 215.046,61.344 214.508,61.603C213.272,62.221 212.615,62.819 212.117,63.795C211.24,65.569 210.622,67.96 210.622,69.514C210.622,70.391 210.921,71.068 211.3,71.068C212.037,71.068 213.631,70.032 215.942,66.784ZM216.899,62.6C216.46,64.772 216.082,65.808 215.404,66.844C214.269,68.518 213.053,69.673 212.415,69.673C212.176,69.673 212.057,69.414 212.057,68.876C212.057,67.601 212.615,65.27 213.312,63.676C213.79,62.58 214.249,62.221 215.205,62.221C215.663,62.221 216.022,62.301 216.899,62.6Z" style="fill:black;fill-rule:nonzero;"/>
                <path d="M220.266,65.19C220.266,69.056 222.398,71.208 226.204,71.208C228.117,71.208 229.532,70.749 231.325,69.514L231.524,68.797L231.325,68.657C229.452,69.793 228.416,70.152 226.862,70.152C223.733,70.152 222.02,68.239 222.02,64.692C222.02,61.942 223.156,57.837 227.699,57.837C229.113,57.837 230.15,58.116 231.265,58.834L231.265,60.508L231.803,60.508C231.903,59.372 232.062,58.515 232.341,57.598C230.827,57.02 229.691,56.781 228.456,56.781C224.869,56.781 220.266,59.332 220.266,65.19Z" style="fill:black;fill-rule:nonzero;"/>
                <path d="M238.06,56.463L237.821,56.243C236.785,56.761 236.068,56.941 234.633,57.08L234.553,57.499L235.51,57.499C235.988,57.499 236.187,57.638 236.187,57.937C236.187,57.997 236.187,58.096 236.127,58.455C235.908,59.551 234.454,67.223 234.155,68.219C233.896,69.215 233.776,69.813 233.776,70.231C233.776,70.73 233.995,71.028 234.374,71.028C234.892,71.028 235.609,70.61 237.562,69.155L237.363,68.797L236.845,69.135C236.267,69.514 235.828,69.733 235.629,69.733C235.49,69.733 235.37,69.534 235.37,69.335C235.37,69.215 235.39,69.076 235.45,68.777L238.06,56.463Z" style="fill:black;fill-rule:nonzero;"/>
                <path d="M238.917,67.82C238.917,69.933 239.814,71.068 241.468,71.068C242.563,71.068 243.759,70.55 244.656,69.713C245.891,68.538 246.768,66.266 246.768,64.254C246.768,62.381 245.772,61.245 244.118,61.245C242.045,61.245 238.917,63.237 238.917,67.82ZM243.38,62.002C244.596,62.002 245.253,62.899 245.253,64.572C245.253,66.485 244.636,68.597 243.759,69.654C243.4,70.072 242.882,70.311 242.265,70.311C241.109,70.311 240.431,69.414 240.431,67.84C240.431,65.589 241.208,63.138 242.185,62.341C242.444,62.122 242.902,62.002 243.38,62.002Z" style="fill:black;fill-rule:nonzero;"/>
                <path d="M254.22,64.274L254.678,64.274C254.838,62.978 254.977,62.241 255.157,61.723C254.678,61.424 253.981,61.245 253.244,61.245C252.347,61.225 250.893,61.623 249.757,62.879C248.681,63.835 247.904,66.047 247.904,68.139C247.904,70.052 248.741,71.068 250.335,71.068C251.411,71.068 252.367,70.67 253.463,69.773L254.459,68.956L254.3,68.558L254.001,68.757C252.566,69.713 251.809,70.052 251.112,70.052C249.996,70.052 249.418,69.255 249.418,67.681C249.418,65.529 250.115,63.457 251.092,62.699C251.51,62.381 251.988,62.221 252.606,62.221C253.503,62.221 254.22,62.6 254.22,63.078L254.22,64.274Z" style="fill:black;fill-rule:nonzero;"/>
                <path d="M260.278,56.463L260.039,56.243C259.002,56.761 258.285,56.941 256.85,57.08L256.771,57.499L257.727,57.499C258.205,57.499 258.405,57.638 258.405,57.977C258.405,58.136 258.385,58.316 258.365,58.455L257.408,63.795C257.129,65.29 256.811,66.665 255.774,70.829L255.954,71.028L257.289,70.69L257.747,68.219C257.926,67.262 258.405,66.366 259.082,65.688C260.457,69.673 261.095,71.028 261.593,71.028C261.852,71.028 262.33,70.769 263.207,70.152L264.123,69.514L263.964,69.135L263.107,69.614C262.828,69.773 262.689,69.813 262.529,69.813C262.33,69.813 262.191,69.693 262.011,69.355C261.314,68.079 260.875,67.003 260.098,64.552L260.377,64.274C261.593,63.058 262.509,62.56 263.506,62.56C263.665,62.56 263.884,62.6 264.223,62.679L264.562,61.424C264.203,61.305 263.844,61.245 263.605,61.245C262.29,61.245 260.636,62.779 258.146,66.266L260.278,56.463Z" style="fill:black;fill-rule:nonzero;"/>
                <path d="M135.202,85.784L134.624,88.315C134.545,88.654 134.505,89.012 134.505,89.331C134.505,89.769 134.684,90.028 134.983,90.028C135.441,90.028 136.258,89.51 137.892,88.155L137.753,87.737C137.275,88.135 136.697,88.673 136.258,88.673C136.079,88.673 135.959,88.494 135.959,88.215C135.959,88.116 135.959,88.056 135.979,87.996L137.813,80.444L137.613,80.265L136.956,80.623C136.139,80.324 135.8,80.245 135.262,80.245C134.704,80.245 134.306,80.344 133.768,80.603C132.532,81.221 131.875,81.819 131.377,82.795C130.5,84.569 129.882,86.96 129.882,88.514C129.882,89.391 130.181,90.068 130.56,90.068C131.297,90.068 132.891,89.032 135.202,85.784ZM136.159,81.6C135.72,83.772 135.342,84.808 134.664,85.844C133.529,87.518 132.313,88.673 131.675,88.673C131.436,88.673 131.317,88.414 131.317,87.876C131.317,86.601 131.875,84.27 132.572,82.676C133.05,81.58 133.509,81.221 134.465,81.221C134.923,81.221 135.282,81.301 136.159,81.6Z" style="fill:black;fill-rule:nonzero;"/>
                <path d="M140.722,76.618L141.838,76.658C142.316,76.678 142.535,76.837 142.535,77.196C142.535,77.475 142.455,78.113 142.356,78.71L140.861,87.358C140.542,89.172 140.503,89.211 139.706,89.291L138.889,89.351L138.809,89.909L139.646,89.889C140.582,89.849 140.961,89.849 141.439,89.849L143.372,89.909L143.89,89.909L143.95,89.351L142.973,89.291C142.435,89.251 142.256,89.092 142.256,88.693C142.256,88.514 142.276,88.335 142.336,87.996L144.348,76.937C144.926,76.817 145.325,76.778 145.863,76.778C147.596,76.778 148.513,77.555 148.513,79.029C148.513,80.922 146.959,82.317 144.886,82.317L144.01,82.317L143.95,82.536C146.62,86.422 147.238,87.378 148.732,89.909L150.426,89.849C150.446,89.849 150.725,89.869 151.103,89.909L151.362,89.909L151.362,89.371C150.565,89.271 150.346,89.112 149.768,88.275L146.102,82.795C147.198,82.596 147.776,82.357 148.493,81.839C149.649,81.002 150.266,79.906 150.266,78.691C150.266,76.977 148.991,76.04 146.779,76.08L140.782,76.08L140.722,76.618Z" style="fill:black;fill-rule:nonzero;"/>
                <path d="M158.436,87.637L157.958,87.976C156.902,88.733 155.945,89.132 155.228,89.132C154.291,89.132 153.714,88.395 153.714,87.199C153.714,86.701 153.773,86.163 153.873,85.585C154.212,85.505 156.384,84.907 156.882,84.688C158.576,83.951 159.353,83.034 159.353,81.799C159.353,80.862 158.675,80.245 157.679,80.245C156.324,79.966 154.132,81.42 153.395,82.895C152.797,83.891 152.199,86.262 152.199,87.597C152.199,89.152 153.076,90.068 154.511,90.068C155.646,90.068 156.762,89.51 158.595,88.016L158.436,87.637ZM154.152,84.389C154.491,83.014 154.889,82.158 155.467,81.64C155.826,81.321 156.443,81.082 156.922,81.082C157.499,81.082 157.878,81.48 157.878,82.118C157.878,82.995 157.181,83.931 156.145,84.429C155.587,84.708 154.869,84.927 153.973,85.127L154.152,84.389Z" style="fill:black;fill-rule:nonzero;"/>
                <path d="M162.939,81.48C163.358,81.48 163.677,81.46 164.195,81.4C161.983,83.792 161.146,85.445 161.146,87.438C161.146,88.972 162.063,90.068 163.338,90.068C166.088,90.068 169.136,85.147 169.136,82.198C169.136,81.062 168.618,80.245 167.901,80.245C167.642,80.245 167.403,80.324 167.243,80.484L166.247,81.42L166.466,81.799C166.646,81.679 166.825,81.62 167.004,81.62C167.542,81.62 167.861,82.078 167.861,82.875C167.861,85.824 165.928,89.072 164.175,89.072C163.198,89.072 162.581,88.235 162.581,86.94C162.581,84.848 163.358,83.034 165.31,80.603L165.111,80.245C164.713,80.424 164.454,80.484 163.896,80.484C163.338,80.484 162.501,80.444 161.923,80.384L161.684,80.364C161.564,80.344 161.465,80.344 161.445,80.344C161.206,80.344 161.026,80.384 160.807,80.484C160.528,81.022 160.309,81.739 160.05,82.835L160.488,82.835L160.827,81.998C160.967,81.66 161.365,81.44 161.843,81.44C162.501,81.44 162.182,81.48 162.939,81.48Z" style="fill:black;fill-rule:nonzero;"/>
            </g>
        </g>
    </g>
</svg>
