<?xml version="1.0" standalone="no"?>
<!DOCTYPE svg PUBLIC "-//W3C//DTD SVG 1.1//EN" "http://www.w3.org/Graphics/SVG/1.1/DTD/svg11.dtd">
<svg width="100%" height="100%" viewBox="0 0 270 238" version="1.1" xmlns="http://www.w3.org/2000/svg" xmlns:xlink="http://www.w3.org/1999/xlink" xml:space="preserve" style="fill-rule:evenodd;clip-rule:evenodd;stroke-linecap:round;stroke-linejoin:round;stroke-miterlimit:10;">
    <rect x="-16" y="-47" width="559" height="783" style="fill:white;fill-rule:nonzero;"/>
    <path d="M158.343,131.422C159.841,131.431 161.446,131.34 162.839,131.449C164.233,131.558 165.071,131.51 166.703,132.076C168.335,132.642 170.916,133.798 172.63,134.845C174.345,135.892 175.713,137.035 176.989,138.358C178.264,139.68 179.185,141.305 180.284,142.779" style="fill:none;stroke-width:1px;stroke:black;"/>
    <path d="M210.772,66.386L154.079,9.693L69.039,151.425L125.732,208.118L210.772,66.386Z" style="fill:rgb(132,251,146);fill-opacity:0.701961;fill-rule:nonzero;stroke-width:1px;stroke:black;"/>
    <path d="M149.97,138.477C150.175,137.736 150.127,137.071 150.584,136.253C151.04,135.435 151.869,134.272 152.712,133.568C153.555,132.864 154.705,132.398 155.641,132.031C156.578,131.663 157.435,131.585 158.332,131.362" style="fill:none;stroke-width:1px;stroke:black;"/>
    <path d="M210.772,66.386L125.732,208.118L12.346,179.772L97.386,38.04L210.772,66.386Z" style="fill:rgb(255,252,149);fill-opacity:0.701961;fill-rule:nonzero;stroke-width:1px;stroke:black;"/>
    <path d="M210.772,66.386L267.465,38.039L182.425,179.772L125.732,208.118L210.772,66.386Z" style="fill:rgb(254,138,135);fill-opacity:0.701961;fill-rule:nonzero;stroke-width:1px;stroke:black;"/>
    <path d="M149.97,138.477C149.99,139.245 149.883,139.945 150.029,140.782C150.176,141.618 150.202,142.289 150.849,143.497C151.496,144.704 152.283,146.467 153.911,148.029C155.539,149.592 158.457,151.729 160.619,152.872C162.781,154.015 164.977,154.5 166.884,154.888C168.79,155.276 170.475,155.338 172.059,155.199C173.643,155.06 175.344,154.464 176.389,154.053C177.434,153.641 177.716,153.244 178.33,152.728C178.943,152.212 179.613,151.662 180.071,150.958C180.529,150.253 180.921,149.448 181.076,148.5C181.232,147.552 181.136,146.221 181.004,145.267C180.872,144.314 180.524,143.608 180.284,142.779" style="fill:none;stroke-width:1px;stroke:black;"/>
    <path d="M146.14,111.988C146.313,127.123 135.254,144.407 121.44,150.592C107.625,156.778 96.287,149.523 96.114,134.388C95.942,119.253 107.001,101.969 120.815,95.783C134.629,89.598 145.968,96.853 146.14,111.988" style="fill:none;stroke-width:1px;stroke:black;"/>
    <path d="M134.014,94.299L138.884,101.319L142.299,96.386L134.014,94.299Z" style="fill:black;fill-rule:nonzero;stroke-width:1px;stroke-linecap:butt;stroke-linejoin:miter;stroke:black;"/>
    <path d="M156.56,150.583L161.43,157.603L164.845,152.67L156.56,150.583Z" style="fill:black;fill-rule:nonzero;stroke-width:1px;stroke-linecap:butt;stroke-linejoin:miter;stroke:black;"/>
    <path d="M139.717,134.504L150.029,140.782" style="fill:none;stroke-width:1px;stroke-dasharray:1,4;stroke:black;"/>
    <path d="M129.184,210.654C127.551,212.287 124.904,212.287 123.271,210.654C121.639,209.022 121.639,206.374 123.271,204.742C124.904,203.109 127.551,203.109 129.184,204.742C130.817,206.374 130.817,209.022 129.184,210.654" style="fill:black;fill-rule:nonzero;stroke-width:1px;stroke:black;"/>
    <path d="M214.108,68.748C212.475,70.381 209.828,70.381 208.195,68.748C206.562,67.115 206.562,64.468 208.195,62.835C209.828,61.202 212.475,61.202 214.108,62.835C215.741,64.468 215.741,67.115 214.108,68.748" style="fill:black;fill-rule:nonzero;stroke-width:1px;stroke:black;"/>
    <g>
        <clipPath id="_clip1">
            <rect x="157.839" y="107.906" width="18" height="18"/>
        </clipPath>
        <g clip-path="url(#_clip1)">
            <g>
                <path d="M166.301,117.237L165.727,117.644C164.46,118.552 163.312,119.03 162.452,119.03C161.328,119.03 160.634,118.146 160.634,116.711C160.634,116.113 160.706,115.468 160.826,114.774C161.232,114.679 163.838,113.961 164.436,113.698C166.469,112.813 167.401,111.714 167.401,110.231C167.401,109.107 166.588,108.366 165.393,108.366C163.767,108.031 161.136,109.777 160.252,111.546C159.534,112.742 158.817,115.587 158.817,117.189C158.817,119.054 159.869,120.154 161.591,120.154C162.954,120.154 164.293,119.485 166.493,117.691L166.301,117.237ZM161.16,113.34C161.567,111.69 162.045,110.661 162.739,110.04C163.169,109.657 163.91,109.37 164.484,109.37C165.177,109.37 165.632,109.848 165.632,110.614C165.632,111.666 164.795,112.79 163.551,113.387C162.882,113.722 162.021,113.985 160.945,114.224L161.16,113.34Z" style="fill:black;fill-rule:nonzero;"/>
                <path d="M172.327,112.881C169.621,112.881 168.242,115.028 168.242,119.252C168.242,121.294 168.609,123.057 169.22,123.912C169.831,124.768 170.808,125.256 171.89,125.256C174.526,125.256 175.853,122.987 175.853,118.519C175.853,114.696 174.718,112.881 172.327,112.881ZM172.012,113.631C173.706,113.631 174.386,115.202 174.386,119.391C174.386,123.109 173.723,124.506 172.117,124.506C170.424,124.506 169.708,122.882 169.708,118.623C169.708,114.94 170.354,113.631 172.012,113.631Z" style="fill:black;fill-rule:nonzero;"/>
            </g>
        </g>
    </g>
    <g>
        <path d="M149.301,63.237L148.727,63.644C147.46,64.552 146.312,65.03 145.452,65.03C144.328,65.03 143.634,64.146 143.634,62.711C143.634,62.113 143.706,61.468 143.826,60.774C144.232,60.679 146.838,59.961 147.436,59.698C149.469,58.813 150.401,57.714 150.401,56.231C150.401,55.107 149.588,54.366 148.393,54.366C146.767,54.031 144.136,55.777 143.252,57.546C142.534,58.742 141.817,61.587 141.817,63.189C141.817,65.054 142.869,66.154 144.591,66.154C145.954,66.154 147.293,65.485 149.493,63.691L149.301,63.237ZM144.16,59.34C144.567,57.69 145.045,56.661 145.739,56.04C146.169,55.657 146.91,55.37 147.484,55.37C148.177,55.37 148.632,55.848 148.632,56.614C148.632,57.666 147.795,58.79 146.551,59.387C145.882,59.722 145.021,59.985 143.945,60.224L144.16,59.34Z" style="fill:black;fill-rule:nonzero;"/>
        <path d="M158.032,70.96L158.032,70.331L157.125,70.279C156.165,70.226 155.99,70.034 155.99,69.127L155.99,58.881L155.746,58.793C154.611,59.387 153.372,59.91 151.783,60.469L151.905,61.324L152.08,61.324L154.384,60.294C154.489,60.294 154.524,60.452 154.524,60.87L154.524,69.127C154.524,70.034 154.332,70.226 153.389,70.279L152.412,70.331L152.412,70.96C155.1,70.907 155.1,70.907 155.292,70.907C155.833,70.907 157.753,70.96 158.032,70.96Z" style="fill:black;fill-rule:nonzero;"/>
    </g>
    <g>
        <clipPath id="_clip2">
            <rect x="63" y="100.406" width="18" height="17"/>
        </clipPath>
        <g clip-path="url(#_clip2)">
            <g>
                <path d="M71.301,109.237L70.727,109.644C69.46,110.552 68.312,111.03 67.452,111.03C66.328,111.03 65.634,110.146 65.634,108.711C65.634,108.113 65.706,107.468 65.826,106.774C66.232,106.679 68.838,105.961 69.436,105.698C71.469,104.813 72.401,103.714 72.401,102.231C72.401,101.107 71.588,100.366 70.393,100.366C68.767,100.031 66.136,101.777 65.252,103.546C64.534,104.742 63.817,107.587 63.817,109.189C63.817,111.054 64.869,112.154 66.591,112.154C67.954,112.154 69.293,111.485 71.493,109.691L71.301,109.237ZM66.16,105.34C66.567,103.69 67.045,102.661 67.739,102.04C68.169,101.657 68.91,101.37 69.484,101.37C70.177,101.37 70.632,101.848 70.632,102.614C70.632,103.666 69.795,104.79 68.551,105.387C67.882,105.722 67.021,105.985 65.945,106.224L66.16,105.34Z" style="fill:black;fill-rule:nonzero;"/>
                <path d="M73.015,115.86L73.015,116.96C76.279,116.96 76.279,116.907 76.908,116.907C77.536,116.907 77.536,116.96 80.905,116.96C80.905,116.593 80.87,116.418 80.87,116.174C80.87,115.947 80.905,115.773 80.905,115.389C78.898,115.476 78.095,115.493 74.865,115.563L78.042,112.194C79.735,110.396 80.259,109.436 80.259,108.127C80.259,106.12 78.898,104.881 76.681,104.881C75.424,104.881 74.569,105.23 73.713,106.102L73.417,108.476L74.185,108.476L74.412,107.673C74.691,106.661 75.057,106.225 76.227,106.225C77.728,106.225 78.688,107.167 78.688,108.651C78.688,109.96 77.414,111.164 75.442,113.259L73.015,115.86Z" style="fill:black;fill-rule:nonzero;"/>
            </g>
        </g>
    </g>
    <g>
        <clipPath id="_clip3">
            <rect x="68.039" y="200.39" width="18" height="18"/>
        </clipPath>
        <g clip-path="url(#_clip3)">
            <g>
                <path d="M76.301,209.237L75.727,209.644C74.46,210.552 73.312,211.03 72.452,211.03C71.328,211.03 70.634,210.146 70.634,208.711C70.634,208.113 70.706,207.468 70.826,206.774C71.232,206.679 73.838,205.961 74.436,205.698C76.469,204.813 77.401,203.714 77.401,202.231C77.401,201.107 76.588,200.366 75.393,200.366C73.767,200.031 71.136,201.777 70.252,203.546C69.534,204.742 68.817,207.587 68.817,209.189C68.817,211.054 69.869,212.154 71.591,212.154C72.954,212.154 74.293,211.485 76.493,209.691L76.301,209.237ZM71.16,205.34C71.567,203.69 72.045,202.661 72.739,202.04C73.169,201.657 73.91,201.37 74.484,201.37C75.177,201.37 75.632,201.848 75.632,202.614C75.632,203.666 74.795,204.79 73.551,205.387C72.882,205.722 72.021,205.985 70.945,206.224L71.16,205.34Z" style="fill:black;fill-rule:nonzero;"/>
                <path d="M85.8,212.997C85.8,210.885 83.933,210.519 83.112,210.379C84.509,209.297 85.032,208.494 85.032,207.464C85.032,205.91 83.741,204.881 81.803,204.881C80.616,204.881 79.831,205.212 78.993,206.05L78.487,208.215L79.15,208.215L79.464,207.237C79.656,206.644 80.634,206.05 81.541,206.05C82.676,206.05 83.601,206.975 83.601,208.075C83.601,209.384 82.571,210.344 81.332,210.344C81.192,210.344 81,210.327 80.773,210.309L80.511,210.292L80.302,211.356L80.424,211.461C81.087,211.164 81.419,211.077 81.89,211.077C83.339,211.077 84.177,212.002 84.177,213.591C84.177,215.371 83.112,216.418 81.489,216.418C80.686,216.418 80.092,216.279 79.569,215.79C79.15,215.406 78.923,215.005 78.591,214.062L77.998,214.237L78.609,216.802C79.534,217.117 80.302,217.256 80.948,217.256C83.095,217.256 85.8,215.389 85.8,212.997Z" style="fill:black;fill-rule:nonzero;"/>
            </g>
        </g>
    </g>
    <g>
        <path d="M242.164,95.642L241.781,95.642L242.283,92.964C242.666,90.908 243.335,89.999 244.435,89.999C245.153,89.999 245.798,90.358 246.157,90.931L246.396,90.836C246.516,90.453 246.755,89.712 246.946,89.234L247.066,88.875C246.683,88.708 245.942,88.564 245.392,88.564C245.129,88.564 244.746,88.636 244.555,88.732C243.981,88.995 242.02,90.453 241.47,91.027C240.944,91.553 240.657,92.271 240.394,93.633L240.036,95.522C239.055,96.001 238.577,96.192 237.979,96.407L237.86,96.933L239.797,96.933L239.581,98.272C238.864,102.935 237.979,107.382 237.453,109.032C237.023,110.443 236.306,111.184 235.445,111.184C234.895,111.184 234.632,111.017 234.201,110.491L233.867,110.587C233.771,111.136 233.436,112.284 233.317,112.499C233.532,112.619 233.89,112.691 234.154,112.691C235.134,112.691 236.425,111.949 237.358,110.826C239.055,108.817 239.534,106.522 241.542,96.933L244.029,96.933C244.124,96.479 244.292,95.929 244.435,95.594L244.34,95.427C243.646,95.594 243.67,95.642 242.164,95.642Z" style="fill:black;fill-rule:nonzero;"/>
        <path d="M247.345,110.06L247.345,111.16C250.609,111.16 250.609,111.107 251.237,111.107C251.866,111.107 251.866,111.16 255.235,111.16C255.235,110.793 255.2,110.618 255.2,110.374C255.2,110.147 255.235,109.973 255.235,109.589C253.227,109.676 252.424,109.693 249.195,109.763L252.372,106.394C254.065,104.596 254.589,103.636 254.589,102.327C254.589,100.32 253.227,99.081 251.01,99.081C249.754,99.081 248.898,99.43 248.043,100.302L247.746,102.676L248.514,102.676L248.741,101.873C249.021,100.861 249.387,100.425 250.557,100.425C252.058,100.425 253.018,101.367 253.018,102.851C253.018,104.16 251.744,105.364 249.771,107.459L247.345,110.06Z" style="fill:black;fill-rule:nonzero;"/>
    </g>
    <g>
        <path d="M9.164,135.642L8.781,135.642L9.283,132.964C9.666,130.908 10.335,129.999 11.435,129.999C12.153,129.999 12.798,130.358 13.157,130.931L13.396,130.836C13.516,130.453 13.755,129.712 13.946,129.234L14.066,128.875C13.683,128.708 12.942,128.564 12.392,128.564C12.129,128.564 11.746,128.636 11.555,128.732C10.981,128.995 9.02,130.453 8.47,131.027C7.944,131.553 7.657,132.271 7.394,133.633L7.036,135.522C6.055,136.001 5.577,136.192 4.979,136.407L4.86,136.933L6.797,136.933L6.581,138.272C5.864,142.935 4.979,147.382 4.453,149.032C4.023,150.443 3.306,151.184 2.445,151.184C1.895,151.184 1.632,151.017 1.201,150.491L0.867,150.587C0.771,151.136 0.436,152.284 0.317,152.499C0.532,152.619 0.89,152.691 1.154,152.691C2.134,152.691 3.425,151.949 4.358,150.826C6.055,148.817 6.534,146.522 8.542,136.933L11.029,136.933C11.124,136.479 11.292,135.929 11.435,135.594L11.34,135.427C10.646,135.594 10.67,135.642 9.164,135.642Z" style="fill:black;fill-rule:nonzero;"/>
        <path d="M18.656,139.081C15.951,139.081 14.572,141.228 14.572,145.452C14.572,147.494 14.938,149.257 15.549,150.112C16.16,150.968 17.138,151.456 18.22,151.456C20.856,151.456 22.182,149.187 22.182,144.719C22.182,140.896 21.048,139.081 18.656,139.081ZM18.342,139.831C20.035,139.831 20.716,141.402 20.716,145.591C20.716,149.309 20.053,150.706 18.447,150.706C16.754,150.706 16.038,149.082 16.038,144.823C16.038,141.14 16.684,139.831 18.342,139.831Z" style="fill:black;fill-rule:nonzero;"/>
    </g>
    <g>
        <path d="M130.164,8.642L129.781,8.642L130.283,5.964C130.666,3.908 131.335,2.999 132.435,2.999C133.153,2.999 133.798,3.358 134.157,3.931L134.396,3.836C134.516,3.453 134.755,2.712 134.946,2.234L135.066,1.875C134.683,1.708 133.942,1.564 133.392,1.564C133.129,1.564 132.746,1.636 132.555,1.732C131.981,1.995 130.02,3.453 129.47,4.027C128.944,4.553 128.657,5.271 128.394,6.633L128.036,8.522C127.055,9.001 126.577,9.192 125.979,9.407L125.86,9.933L127.797,9.933L127.581,11.272C126.864,15.935 125.979,20.382 125.453,22.032C125.023,23.443 124.306,24.184 123.445,24.184C122.895,24.184 122.632,24.017 122.201,23.491L121.867,23.587C121.771,24.136 121.436,25.284 121.317,25.499C121.532,25.619 121.89,25.691 122.154,25.691C123.134,25.691 124.425,24.949 125.358,23.826C127.055,21.817 127.534,19.522 129.542,9.933L132.029,9.933C132.124,9.479 132.292,8.929 132.435,8.594L132.34,8.427C131.646,8.594 131.67,8.642 130.164,8.642Z" style="fill:black;fill-rule:nonzero;"/>
        <path d="M142.362,24.16L142.362,23.531L141.454,23.479C140.494,23.426 140.32,23.234 140.32,22.327L140.32,12.081L140.075,11.993C138.941,12.587 137.701,13.11 136.113,13.669L136.235,14.524L136.41,14.524L138.714,13.494C138.818,13.494 138.853,13.652 138.853,14.07L138.853,22.327C138.853,23.234 138.661,23.426 137.719,23.479L136.741,23.531L136.741,24.16C139.429,24.107 139.429,24.107 139.621,24.107C140.162,24.107 142.083,24.16 142.362,24.16Z" style="fill:black;fill-rule:nonzero;"/>
    </g>
    <path d="M110.334,227.359L109.756,229.889C109.676,230.228 109.636,230.587 109.636,230.906C109.636,231.344 109.816,231.603 110.114,231.603C110.573,231.603 111.39,231.085 113.024,229.73L112.884,229.312C112.406,229.71 111.828,230.248 111.39,230.248C111.21,230.248 111.091,230.069 111.091,229.79C111.091,229.69 111.091,229.63 111.111,229.571L112.944,222.019L112.745,221.839L112.087,222.198C111.27,221.899 110.931,221.819 110.393,221.819C109.835,221.819 109.437,221.919 108.899,222.178C107.664,222.796 107.006,223.394 106.508,224.37C105.631,226.143 105.013,228.534 105.013,230.089C105.013,230.965 105.312,231.643 105.691,231.643C106.428,231.643 108.022,230.607 110.334,227.359ZM111.29,223.174C110.852,225.346 110.473,226.382 109.796,227.419C108.66,229.092 107.444,230.248 106.807,230.248C106.568,230.248 106.448,229.989 106.448,229.451C106.448,228.176 107.006,225.844 107.703,224.25C108.182,223.154 108.64,222.796 109.596,222.796C110.055,222.796 110.413,222.875 111.29,223.174Z" style="fill:black;fill-rule:nonzero;"/>
    <path d="M128.666,222.955C128.666,219.408 126.593,217.356 123.007,217.356C118.284,217.356 114.817,221.002 114.817,226.004C114.817,229.77 116.69,231.782 120.197,231.782C125.617,231.782 128.666,227.299 128.666,222.955ZM126.912,223.274C126.912,227.02 125.139,230.945 120.934,230.945C118.065,230.945 116.57,229.232 116.57,225.904C116.57,222.955 117.726,218.193 122.389,218.193C124.7,218.193 126.912,219.269 126.912,223.274Z" style="fill:black;fill-rule:nonzero;"/>
    <path d="M136.576,224.151C136.636,223.394 136.736,222.756 136.895,221.939C136.676,221.839 136.596,221.819 136.496,221.819C135.879,221.819 135.261,222.298 134.544,223.314C133.767,224.43 132.99,225.625 132.671,226.323L133.308,223.294C133.388,222.955 133.428,222.696 133.428,222.457C133.428,222.058 133.268,221.819 132.97,221.819C132.551,221.819 131.794,222.238 130.319,223.294L129.761,223.692L129.901,224.091L130.539,223.672C131.097,223.314 131.316,223.214 131.495,223.214C131.694,223.214 131.834,223.394 131.834,223.653C131.834,224.808 130.977,228.913 130.18,231.464L130.379,231.603C130.678,231.503 130.997,231.444 131.455,231.344L131.714,231.304L132.232,228.913C132.591,227.259 133.049,226.203 133.926,225.067C134.604,224.191 135.142,223.772 135.58,223.772C135.879,223.772 136.078,223.872 136.297,224.151L136.576,224.151Z" style="fill:black;fill-rule:nonzero;"/>
    <path d="M142.454,221.819C141.119,221.819 138.071,223.075 138.071,226.263C138.071,227.797 138.967,228.714 140.502,228.714C140.661,228.714 140.88,228.714 141.099,228.694L140.282,229.451C139.964,229.75 139.744,230.109 139.744,230.388C139.744,230.587 139.884,230.806 140.163,231.045C138.788,231.503 136.237,232.38 136.237,234.592C136.237,236.007 137.632,236.923 139.804,236.923C142.375,236.923 144.626,235.489 144.626,233.835C144.626,233.117 144.208,232.4 143.351,231.703L142.155,230.726C141.478,230.188 141.219,229.81 141.219,229.431C141.219,229.152 141.518,228.873 141.757,228.515C143.71,228.036 145.124,226.382 145.124,224.609C145.124,224.31 145.065,223.932 145.045,223.852C145.383,223.892 145.543,223.892 145.722,223.892C146.061,223.892 146.26,223.872 146.719,223.812L146.898,222.915L146.838,222.796C146.28,222.935 145.882,222.975 144.806,222.975C144.806,222.955 144.327,221.819 142.454,221.819ZM140.482,231.404L142.016,232.579C142.933,233.297 143.311,233.835 143.311,234.492C143.311,235.528 141.936,236.365 140.282,236.365C138.648,236.365 137.513,235.528 137.513,234.313C137.513,232.281 139.705,231.643 140.482,231.404ZM141.956,222.497C143.112,222.497 143.69,223.214 143.69,224.629C143.69,226.681 142.733,228.076 141.339,228.076C140.123,228.076 139.485,227.259 139.485,225.685C139.485,223.792 140.502,222.497 141.956,222.497Z" style="fill:black;fill-rule:nonzero;"/>
    <path d="M203.406,48.511L202.828,51.042C202.748,51.38 202.709,51.739 202.709,52.058C202.709,52.496 202.888,52.755 203.187,52.755C203.645,52.755 204.462,52.237 206.096,50.882L205.956,50.464C205.478,50.862 204.9,51.4 204.462,51.4C204.283,51.4 204.163,51.221 204.163,50.942C204.163,50.842 204.163,50.783 204.183,50.723L206.016,43.171L205.817,42.992L205.159,43.35C204.342,43.051 204.004,42.972 203.466,42.972C202.908,42.972 202.509,43.071 201.971,43.33C200.736,43.948 200.078,44.546 199.58,45.522C198.703,47.296 198.086,49.687 198.086,51.241C198.086,52.118 198.385,52.795 198.763,52.795C199.5,52.795 201.095,51.759 203.406,48.511ZM204.362,44.327C203.924,46.499 203.545,47.535 202.868,48.571C201.732,50.245 200.517,51.4 199.879,51.4C199.64,51.4 199.52,51.141 199.52,50.603C199.52,49.328 200.078,46.997 200.776,45.403C201.254,44.307 201.712,43.948 202.669,43.948C203.127,43.948 203.486,44.028 204.362,44.327Z" style="fill:black;fill-rule:nonzero;"/>
    <path d="M213.13,52.636C214.565,52.636 215.541,52.417 216.577,51.899C219.685,50.304 221.598,47.296 221.598,43.988C221.598,42.035 221.001,40.64 219.785,39.784C218.869,39.126 217.175,38.767 215.282,38.787L211.217,38.847L211.018,38.847C210.838,38.847 210.779,38.847 208.766,38.787L208.706,39.345L209.762,39.385C210.241,39.405 210.46,39.564 210.46,39.923C210.46,40.202 210.38,40.84 210.28,41.437L208.547,51.48C208.447,51.958 207.949,51.998 207.491,52.118L207.391,52.636L209.244,52.576L210.34,52.576C211.038,52.576 212.452,52.636 213.13,52.636ZM214.485,39.524C218.111,39.524 219.765,41.039 219.765,44.307C219.765,48.093 217.773,51.759 213.389,51.759C212.512,51.759 211.536,51.659 210.181,51.46C210.181,51.221 210.201,51.082 210.26,50.723L212.173,39.624C212.632,39.624 213.787,39.524 214.485,39.524Z" style="fill:black;fill-rule:nonzero;"/>
    <path d="M228.851,50.364L228.373,50.703C227.317,51.46 226.361,51.859 225.643,51.859C224.707,51.859 224.129,51.121 224.129,49.926C224.129,49.428 224.189,48.89 224.288,48.312C224.627,48.232 226.799,47.634 227.297,47.415C228.991,46.678 229.768,45.761 229.768,44.526C229.768,43.589 229.091,42.972 228.094,42.972C226.739,42.693 224.547,44.147 223.81,45.622C223.212,46.618 222.615,48.989 222.615,50.324C222.615,51.879 223.491,52.795 224.926,52.795C226.062,52.795 227.178,52.237 229.011,50.743L228.851,50.364ZM224.567,47.116C224.906,45.741 225.305,44.885 225.882,44.366C226.241,44.048 226.859,43.809 227.337,43.809C227.915,43.809 228.294,44.207 228.294,44.845C228.294,45.721 227.596,46.658 226.56,47.156C226.002,47.435 225.285,47.654 224.388,47.854L224.567,47.116Z" style="fill:black;fill-rule:nonzero;"/>
    <path d="M230.665,49.627C230.565,50.643 230.446,51.341 230.226,52.257C230.984,52.616 231.661,52.795 232.358,52.795C233.335,52.795 234.251,52.437 235.268,51.639C236.284,50.842 236.702,50.105 236.702,49.109C236.702,48.033 236.065,47.455 234.59,47.176L233.733,47.017C232.538,46.797 232.159,46.459 232.159,45.642C232.159,44.586 233.056,43.769 234.192,43.769C235.009,43.769 235.766,44.127 236.085,44.665L236.085,45.761L236.543,45.761C236.623,45.064 236.702,44.526 236.921,43.51C236.144,43.131 235.586,42.972 234.929,42.972C233.893,42.972 232.677,43.569 231.721,44.526C231.203,45.064 230.984,45.562 230.984,46.279C230.984,47.395 231.601,48.033 232.916,48.292L234.172,48.531C235.048,48.69 235.367,49.049 235.367,49.826C235.367,51.121 234.451,51.998 233.036,51.998C232.338,51.998 231.721,51.779 231.163,51.301L231.163,49.627L230.665,49.627Z" style="fill:black;fill-rule:nonzero;"/>
    <path d="M240.269,44.805L239.153,50.444C239.133,50.603 238.894,51.361 238.894,51.958C238.894,52.456 239.113,52.755 239.492,52.755C240.189,52.755 240.887,52.357 242.441,51.101L243.059,50.603L242.859,50.245L241.963,50.862C241.385,51.261 240.986,51.46 240.767,51.46C240.588,51.46 240.488,51.301 240.488,51.062C240.488,50.544 240.767,48.93 241.345,46.04L241.604,44.805L243.736,44.805L243.955,43.809C243.198,43.888 242.521,43.928 241.763,43.928C242.082,42.055 242.301,41.079 242.66,40.003L242.441,39.704C242.042,39.943 241.504,40.182 240.887,40.421L240.389,43.809C239.512,44.227 238.994,44.446 238.635,44.546L238.595,44.805L240.269,44.805Z" style="fill:black;fill-rule:nonzero;"/>
    <path d="M128.632,203.681L208.747,69.809" style="fill:none;stroke-width:2px;stroke:black;"/>
    <path d="M141.307,152.267L140.44,156.063C140.321,156.571 140.261,157.109 140.261,157.587C140.261,158.244 140.53,158.633 140.978,158.633C141.666,158.633 142.891,157.856 145.342,155.823L145.133,155.196C144.415,155.794 143.549,156.601 142.891,156.601C142.622,156.601 142.443,156.332 142.443,155.913C142.443,155.764 142.443,155.674 142.473,155.584L145.222,144.256L144.923,143.987L143.937,144.525C142.712,144.077 142.204,143.958 141.397,143.958C140.56,143.958 139.962,144.107 139.155,144.496C137.302,145.422 136.315,146.319 135.568,147.783C134.253,150.443 133.327,154.03 133.327,156.361C133.327,157.677 133.775,158.693 134.343,158.693C135.449,158.693 137.84,157.139 141.307,152.267ZM142.742,145.99C142.084,149.248 141.516,150.802 140.5,152.356C138.796,154.867 136.973,156.601 136.017,156.601C135.658,156.601 135.479,156.212 135.479,155.405C135.479,153.492 136.315,149.995 137.362,147.604C138.079,145.96 138.766,145.422 140.201,145.422C140.888,145.422 141.426,145.542 142.742,145.99Z" style="fill:black;fill-rule:nonzero;"/>
</svg>
