<?xml version="1.0" standalone="no"?>
<!DOCTYPE svg PUBLIC "-//W3C//DTD SVG 1.1//EN" "http://www.w3.org/Graphics/SVG/1.1/DTD/svg11.dtd">
<svg width="100%" height="100%" viewBox="0 0 504 538" version="1.1" xmlns="http://www.w3.org/2000/svg" xmlns:xlink="http://www.w3.org/1999/xlink" xml:space="preserve" style="fill-rule:evenodd;clip-rule:evenodd;stroke-linecap:round;stroke-linejoin:round;stroke-miterlimit:10;">
    <rect x="-92" y="-69" width="2236" height="1566" style="fill:white;fill-rule:nonzero;"/>
    <path d="M21.386,44.386L21.386,497.929L474.929,497.929L474.929,384.543L134.772,384.543L134.772,44.386L21.386,44.386Z" style="fill:rgb(0,84,147);fill-opacity:0.501961;fill-rule:nonzero;stroke-width:3px;stroke:black;"/>
    <path d="M134.772,44.386L474.929,44.386L304.85,214.465L134.772,214.465L134.772,44.386Z" style="fill:rgb(255,38,0);fill-opacity:0.501961;fill-rule:nonzero;stroke-width:3px;stroke:black;"/>
    <path d="M134.772,384.543L134.772,214.465L304.85,214.465L474.929,44.386L474.929,384.543L134.772,384.543Z" style="fill:rgb(0,143,81);fill-opacity:0.501961;fill-rule:nonzero;stroke-width:3px;stroke:black;"/>
    <path d="M248.158,129.425L134.772,44.386" style="fill:none;stroke-width:1px;stroke:black;"/>
    <path d="M248.158,129.425L474.929,44.386" style="fill:none;stroke-width:1px;stroke:black;"/>
    <path d="M248.158,129.425L304.85,214.465" style="fill:none;stroke-width:1px;stroke:black;"/>
    <path d="M248.158,129.425L134.772,214.465" style="fill:none;stroke-width:1px;stroke:black;"/>
    <path d="M78.079,441.236L21.386,497.929" style="fill:none;stroke-width:1px;stroke:black;"/>
    <path d="M78.079,441.236L21.386,44.386" style="fill:none;stroke-width:1px;stroke:black;"/>
    <path d="M78.079,441.236L134.772,44.386" style="fill:none;stroke-width:1px;stroke:black;"/>
    <path d="M78.079,441.236L134.772,214.465" style="fill:none;stroke-width:1px;stroke:black;"/>
    <path d="M78.079,441.236L134.772,384.543" style="fill:none;stroke-width:1px;stroke:black;"/>
    <path d="M78.079,441.236L474.929,384.543" style="fill:none;stroke-width:1px;stroke:black;"/>
    <path d="M78.079,441.236L474.929,497.929" style="fill:none;stroke-width:1px;stroke:black;"/>
    <path d="M361.543,271.158L304.85,214.465" style="fill:none;stroke-width:1px;stroke:black;"/>
    <path d="M361.543,271.158L474.929,44.386" style="fill:none;stroke-width:1px;stroke:black;"/>
    <path d="M361.543,271.158L474.929,384.543" style="fill:none;stroke-width:1px;stroke:black;"/>
    <path d="M361.543,271.158L134.772,214.465" style="fill:none;stroke-width:1px;stroke:black;"/>
    <path d="M361.543,271.158L134.772,384.543" style="fill:none;stroke-width:1px;stroke:black;"/>
    <g>
        <clipPath id="_clip1">
            <rect x="70.627" y="448.681" width="23" height="36"/>
        </clipPath>
        <g clip-path="url(#_clip1)">
            <path d="M71.446,482.794L71.446,484.089C80.761,484.089 80.761,483.94 82.555,483.94C84.348,483.94 84.348,484.089 93.962,484.089L93.962,479.855C88.234,480.104 85.942,479.905 76.726,480.104L85.793,470.49C90.625,465.359 92.119,462.619 92.119,458.883C92.119,453.154 88.234,449.617 81.907,449.617C78.321,449.617 75.88,450.614 73.439,453.105L72.592,459.879L74.036,459.879L74.684,457.588C75.481,454.699 77.274,453.453 80.612,453.453C84.896,453.453 87.636,456.143 87.636,460.378C87.636,464.114 85.544,467.8 79.915,473.778L71.446,482.794Z" style="fill:black;fill-rule:nonzero;"/>
        </g>
    </g>
    <g>
        <clipPath id="_clip2">
            <rect x="2.386" y="2.307" width="22" height="36"/>
        </clipPath>
        <g clip-path="url(#_clip2)">
            <path d="M13.75,2.617C6.029,2.617 2.094,8.745 2.094,20.8C2.094,26.628 3.14,31.66 4.883,34.101C6.627,36.541 9.416,37.936 12.505,37.936C20.027,37.936 23.813,31.46 23.813,18.708C23.813,7.798 20.575,2.617 13.75,2.617ZM12.854,4.361C17.686,4.361 19.629,9.243 19.629,21.198C19.629,31.809 17.736,36.193 13.153,36.193C8.321,36.193 6.278,31.161 6.278,19.007C6.278,8.496 8.121,4.361 12.854,4.361Z" style="fill:black;fill-rule:nonzero;"/>
        </g>
    </g>
    <g>
        <clipPath id="_clip3">
            <rect x="474.766" y="4.497" width="22" height="36"/>
        </clipPath>
        <g clip-path="url(#_clip3)">
            <path d="M486.75,4.617C479.029,4.617 475.094,10.745 475.094,22.8C475.094,28.628 476.14,33.66 477.883,36.101C479.627,38.541 482.416,39.936 485.505,39.936C493.027,39.936 496.813,33.46 496.813,20.708C496.813,9.798 493.575,4.617 486.75,4.617ZM485.854,6.361C490.686,6.361 492.629,11.243 492.629,23.198C492.629,33.809 490.736,38.193 486.153,38.193C481.321,38.193 479.278,33.161 479.278,21.007C479.278,10.496 481.121,6.361 485.854,6.361Z" style="fill:black;fill-rule:nonzero;"/>
        </g>
    </g>
    <g>
        <clipPath id="_clip4">
            <rect x="123.845" y="0.626" width="22" height="36"/>
        </clipPath>
        <g clip-path="url(#_clip4)">
            <path d="M135.75,1.617C128.029,1.617 124.094,7.745 124.094,19.8C124.094,25.628 125.14,30.66 126.883,33.101C128.627,35.541 131.416,36.936 134.505,36.936C142.027,36.936 145.813,30.46 145.813,17.708C145.813,6.798 142.575,1.617 135.75,1.617ZM134.854,3.361C139.686,3.361 141.629,8.243 141.629,20.198C141.629,30.809 139.736,35.193 135.153,35.193C130.321,35.193 128.278,30.161 128.278,18.007C128.278,7.496 130.121,3.361 134.854,3.361Z" style="fill:black;fill-rule:nonzero;"/>
        </g>
    </g>
    <g>
        <clipPath id="_clip5">
            <rect x="475.129" y="501.818" width="22" height="36"/>
        </clipPath>
        <g clip-path="url(#_clip5)">
            <path d="M486.75,502.617C479.029,502.617 475.094,508.745 475.094,520.8C475.094,526.628 476.14,531.66 477.883,534.101C479.627,536.541 482.416,537.936 485.505,537.936C493.027,537.936 496.813,531.46 496.813,518.708C496.813,507.798 493.575,502.617 486.75,502.617ZM485.854,504.361C490.686,504.361 492.629,509.243 492.629,521.198C492.629,531.809 490.736,536.193 486.153,536.193C481.321,536.193 479.278,531.161 479.278,519.007C479.278,508.496 481.121,504.361 485.854,504.361Z" style="fill:black;fill-rule:nonzero;"/>
        </g>
    </g>
    <g>
        <clipPath id="_clip6">
            <rect x="481.796" y="367.717" width="22" height="36"/>
        </clipPath>
        <g clip-path="url(#_clip6)">
            <path d="M493.75,368.617C486.029,368.617 482.094,374.745 482.094,386.8C482.094,392.628 483.14,397.66 484.883,400.101C486.627,402.541 489.416,403.936 492.505,403.936C500.027,403.936 503.813,397.46 503.813,384.708C503.813,373.798 500.575,368.617 493.75,368.617ZM492.854,370.361C497.686,370.361 499.629,375.243 499.629,387.198C499.629,397.809 497.736,402.193 493.153,402.193C488.321,402.193 486.278,397.161 486.278,385.007C486.278,374.496 488.121,370.361 492.854,370.361Z" style="fill:black;fill-rule:nonzero;"/>
        </g>
    </g>
    <g>
        <clipPath id="_clip7">
            <rect x="0.405" y="501.818" width="22" height="36"/>
        </clipPath>
        <g clip-path="url(#_clip7)">
            <path d="M11.75,502.617C4.029,502.617 0.094,508.745 0.094,520.8C0.094,526.628 1.14,531.66 2.883,534.101C4.627,536.541 7.416,537.936 10.505,537.936C18.027,537.936 21.813,531.46 21.813,518.708C21.813,507.798 18.575,502.617 11.75,502.617ZM10.854,504.361C15.686,504.361 17.629,509.243 17.629,521.198C17.629,531.809 15.736,536.193 11.153,536.193C6.321,536.193 4.278,531.161 4.278,519.007C4.278,508.496 6.121,504.361 10.854,504.361Z" style="fill:black;fill-rule:nonzero;"/>
        </g>
    </g>
    <g>
        <clipPath id="_clip8">
            <rect x="296.756" y="158.315" width="22" height="36"/>
        </clipPath>
        <g clip-path="url(#_clip8)">
            <path d="M308.75,158.617C301.029,158.617 297.094,164.745 297.094,176.8C297.094,182.628 298.14,187.66 299.883,190.101C301.627,192.541 304.416,193.936 307.505,193.936C315.027,193.936 318.813,187.46 318.813,174.708C318.813,163.798 315.575,158.617 308.75,158.617ZM307.854,160.361C312.686,160.361 314.629,165.243 314.629,177.198C314.629,187.809 312.736,192.193 308.153,192.193C303.321,192.193 301.278,187.161 301.278,175.007C301.278,164.496 303.121,160.361 307.854,160.361Z" style="fill:black;fill-rule:nonzero;"/>
        </g>
    </g>
    <g>
        <path d="M350.446,315.794L350.446,317.089C359.761,317.089 359.761,316.94 361.555,316.94C363.348,316.94 363.348,317.089 372.962,317.089L372.962,312.855C367.234,313.104 364.942,312.905 355.726,313.104L364.793,303.49C369.625,298.359 371.119,295.619 371.119,291.883C371.119,286.154 367.234,282.617 360.907,282.617C357.321,282.617 354.88,283.614 352.439,286.105L351.592,292.879L353.036,292.879L353.684,290.588C354.481,287.699 356.274,286.453 359.612,286.453C363.896,286.453 366.636,289.143 366.636,293.378C366.636,297.114 364.544,300.8 358.915,306.778L350.446,315.794Z" style="fill:black;fill-rule:nonzero;"/>
    </g>
    <g>
        <clipPath id="_clip9">
            <rect x="235.647" y="81.122" width="23" height="36"/>
        </clipPath>
        <g clip-path="url(#_clip9)">
            <path d="M236.446,114.794L236.446,116.089C245.761,116.089 245.761,115.94 247.555,115.94C249.348,115.94 249.348,116.089 258.962,116.089L258.962,111.855C253.234,112.104 250.942,111.905 241.726,112.104L250.793,102.49C255.625,97.359 257.119,94.619 257.119,90.883C257.119,85.154 253.234,81.617 246.907,81.617C243.321,81.617 240.88,82.614 238.439,85.105L237.592,91.879L239.036,91.879L239.684,89.588C240.481,86.699 242.274,85.453 245.612,85.453C249.896,85.453 252.636,88.143 252.636,92.378C252.636,96.114 250.544,99.8 244.915,105.778L236.446,114.794Z" style="fill:black;fill-rule:nonzero;"/>
        </g>
    </g>
    <g>
        <clipPath id="_clip10">
            <rect x="140.566" y="155.154" width="22" height="36"/>
        </clipPath>
        <g clip-path="url(#_clip10)">
            <path d="M152.75,155.617C145.029,155.617 141.094,161.745 141.094,173.8C141.094,179.628 142.14,184.66 143.883,187.101C145.627,189.541 148.416,190.936 151.505,190.936C159.027,190.936 162.813,184.46 162.813,171.708C162.813,160.798 159.575,155.617 152.75,155.617ZM151.854,157.361C156.686,157.361 158.629,162.243 158.629,174.198C158.629,184.809 156.736,189.193 152.153,189.193C147.321,189.193 145.278,184.161 145.278,172.007C145.278,161.496 147.121,157.361 151.854,157.361Z" style="fill:black;fill-rule:nonzero;"/>
        </g>
    </g>
    <g>
        <clipPath id="_clip11">
            <rect x="142.788" y="332.453" width="22" height="36"/>
        </clipPath>
        <g clip-path="url(#_clip11)">
            <path d="M154.75,332.617C147.029,332.617 143.094,338.745 143.094,350.8C143.094,356.628 144.14,361.66 145.883,364.101C147.627,366.541 150.416,367.936 153.505,367.936C161.027,367.936 164.813,361.46 164.813,348.708C164.813,337.798 161.575,332.617 154.75,332.617ZM153.854,334.361C158.686,334.361 160.629,339.243 160.629,351.198C160.629,361.809 158.736,366.193 154.153,366.193C149.321,366.193 147.278,361.161 147.278,349.007C147.278,338.496 149.121,334.361 153.854,334.361Z" style="fill:black;fill-rule:nonzero;"/>
        </g>
    </g>
</svg>
