<?xml version="1.0" standalone="no"?>
<!DOCTYPE svg PUBLIC "-//W3C//DTD SVG 1.1//EN" "http://www.w3.org/Graphics/SVG/1.1/DTD/svg11.dtd">
<svg width="100%" height="100%" viewBox="0 0 189 274" version="1.1" xmlns="http://www.w3.org/2000/svg" xmlns:xlink="http://www.w3.org/1999/xlink" xml:space="preserve" style="fill-rule:evenodd;clip-rule:evenodd;stroke-linecap:round;stroke-linejoin:round;stroke-miterlimit:10;">
    <rect x="-118" y="109" width="1118" height="783" style="fill:white;fill-rule:nonzero;"/>
    <path d="M9.559,264.906L179.638,264.906L179.638,94.827L9.559,264.906Z" style="fill:rgb(255,251,0);fill-opacity:0.101961;fill-rule:nonzero;"/>
    <path d="M179.638,94.827L9.56,94.827L9.559,264.906L179.638,94.827Z" style="fill:rgb(142,250,0);fill-opacity:0.501961;fill-rule:nonzero;"/>
    <path d="M94.599,9.787L9.559,94.827L179.638,94.827L94.599,9.787Z" style="fill:rgb(255,147,0);fill-opacity:0.101961;fill-rule:nonzero;"/>
    <path d="M171.309,257.819L171.309,125.987" style="fill:none;stroke-width:1px;stroke:rgb(192,192,192);"/>
    <path d="M171.309,117.987L168.309,125.987L174.309,125.987L171.309,117.987Z" style="fill:none;stroke-width:1px;stroke-linecap:butt;stroke-linejoin:miter;stroke:rgb(192,192,192);"/>
    <path d="M171.309,116.087L37.789,250.788" style="fill:none;stroke-width:1px;stroke:black;"/>
    <path d="M32.157,256.469L39.919,252.9L35.658,248.676L32.157,256.469Z" style="fill:none;stroke-width:1px;stroke-linecap:butt;stroke-linejoin:miter;stroke:black;"/>
    <path d="M30.819,257.819L161.409,257.819" style="fill:none;stroke-width:1px;stroke:rgb(192,192,192);"/>
    <path d="M169.409,257.819L161.409,254.819L161.409,260.819L169.409,257.819Z" style="fill:none;stroke-width:1px;stroke-linecap:butt;stroke-linejoin:miter;stroke:rgb(192,192,192);"/>
    <path d="M16.972,233.746L16.972,101.913" style="fill:none;stroke-width:1px;stroke:rgb(192,192,192);"/>
    <path d="M16.972,241.746L19.972,233.746L13.972,233.746L16.972,241.746Z" style="fill:none;stroke-width:1px;stroke-linecap:butt;stroke-linejoin:miter;stroke:rgb(192,192,192);"/>
    <path d="M26.546,101.913L157.136,101.913" style="fill:none;stroke-width:1px;stroke:black;"/>
    <path d="M18.546,101.913L26.546,104.913L26.546,98.913L18.546,101.913Z" style="fill:none;stroke-width:1px;stroke-linecap:butt;stroke-linejoin:miter;stroke:black;"/>
    <path d="M148.054,111.075L16.646,243.646" style="fill:none;stroke-width:2px;stroke:black;"/>
    <path d="M154.813,104.257L145.498,108.541L150.611,113.61L154.813,104.257Z" style="fill:black;fill-rule:nonzero;stroke-width:2px;stroke-linecap:butt;stroke-linejoin:miter;stroke:black;"/>
    <path d="M24.155,87.74L154.745,87.74" style="fill:none;stroke-width:1px;stroke:rgb(192,192,192);"/>
    <path d="M162.745,87.74L154.745,84.74L154.745,90.74L162.745,87.74Z" style="fill:none;stroke-width:1px;stroke-linecap:butt;stroke-linejoin:miter;stroke:rgb(192,192,192);"/>
    <path d="M165.465,87.74L101.599,23.874" style="fill:none;stroke-width:1px;stroke:rgb(192,192,192);"/>
    <path d="M95.942,18.218L99.477,25.996L103.72,21.753L95.942,18.218Z" style="fill:none;stroke-width:1px;stroke-linecap:butt;stroke-linejoin:miter;stroke:rgb(192,192,192);"/>
    <path d="M94.722,16.874L30.856,80.74" style="fill:none;stroke-width:1px;stroke:rgb(192,192,192);"/>
    <path d="M25.199,86.397L32.977,82.861L28.735,78.618L25.199,86.397Z" style="fill:none;stroke-width:1px;stroke-linecap:butt;stroke-linejoin:miter;stroke:rgb(192,192,192);"/>
    <path d="M99.61,14.798C96.842,17.566 92.355,17.566 89.588,14.798C86.82,12.031 86.82,7.544 89.588,4.777C92.355,2.009 96.842,2.009 99.61,4.777C102.377,7.544 102.377,12.031 99.61,14.798" style="fill:rgb(192,192,192);fill-rule:nonzero;stroke-width:1px;stroke:rgb(192,192,192);"/>
    <path d="M14.57,99.838C11.803,102.605 7.316,102.605 4.548,99.838C1.781,97.07 1.781,92.583 4.548,89.816C7.316,87.048 11.803,87.048 14.57,89.816C17.338,92.583 17.338,97.07 14.57,99.838" style="fill:rgb(192,192,192);fill-rule:nonzero;stroke-width:1px;stroke:rgb(192,192,192);"/>
    <path d="M184.649,99.838C181.881,102.605 177.394,102.605 174.627,99.838C171.859,97.07 171.859,92.583 174.627,89.816C177.394,87.048 181.881,87.048 184.649,89.816C187.416,92.583 187.416,97.07 184.649,99.838" style="fill:black;fill-rule:nonzero;stroke-width:1px;stroke:black;"/>
    <path d="M14.57,269.917C11.803,272.684 7.316,272.684 4.548,269.917C1.781,267.149 1.781,262.662 4.548,259.895C7.316,257.127 11.803,257.127 14.57,259.895C17.338,262.662 17.338,267.149 14.57,269.917" style="fill:black;fill-rule:nonzero;stroke-width:1px;stroke:black;"/>
    <path d="M184.649,269.917C181.881,272.684 177.394,272.684 174.627,269.917C171.859,267.149 171.859,262.662 174.627,259.895C177.394,257.127 181.881,257.127 184.649,259.895C187.416,262.662 187.416,267.149 184.649,269.917" style="fill:rgb(192,192,192);fill-rule:nonzero;stroke-width:1px;stroke:rgb(192,192,192);"/>
    <path d="M14.924,89.462L89.234,15.152" style="fill:none;stroke-width:2px;stroke:rgb(192,192,192);"/>
    <path d="M99.963,15.152L174.273,89.462" style="fill:none;stroke-width:2px;stroke:rgb(192,192,192);"/>
    <path d="M179.638,102.413L179.638,257.319" style="fill:none;stroke-width:2px;stroke:rgb(192,192,192);"/>
    <path d="M172.051,264.905L17.146,264.905" style="fill:none;stroke-width:2px;stroke:rgb(192,192,192);"/>
    <path d="M9.559,257.319L9.559,102.413" style="fill:none;stroke-width:2px;stroke:rgb(192,192,192);"/>
    <path d="M17.146,94.827L172.051,94.827" style="fill:none;stroke-width:2px;stroke:rgb(192,192,192);"/>
    <path d="M14.924,259.541L174.273,100.191" style="fill:none;stroke-width:2px;stroke:rgb(192,192,192);"/>
    <g>
        <path d="M75.85,177.371L75.42,177.676C74.469,178.357 73.608,178.716 72.963,178.716C72.12,178.716 71.6,178.052 71.6,176.976C71.6,176.528 71.654,176.044 71.743,175.524C72.048,175.452 74.003,174.914 74.451,174.717C75.975,174.053 76.675,173.228 76.675,172.116C76.675,171.273 76.065,170.717 75.168,170.717C73.949,170.466 71.976,171.775 71.313,173.103C70.775,173.999 70.237,176.133 70.237,177.335C70.237,178.734 71.026,179.559 72.317,179.559C73.339,179.559 74.344,179.056 75.993,177.711L75.85,177.371ZM71.994,174.448C72.299,173.21 72.658,172.439 73.178,171.973C73.501,171.686 74.057,171.471 74.487,171.471C75.007,171.471 75.348,171.829 75.348,172.403C75.348,173.192 74.72,174.035 73.788,174.483C73.285,174.734 72.64,174.932 71.833,175.111L71.994,174.448Z" style="fill:black;fill-rule:nonzero;"/>
        <path d="M93.699,202.46L92.695,207.535C92.677,207.679 92.462,208.36 92.462,208.898C92.462,209.347 92.659,209.616 93,209.616C93.628,209.616 94.255,209.257 95.654,208.127L96.21,207.679L96.031,207.356L95.224,207.912C94.704,208.271 94.345,208.45 94.148,208.45C93.986,208.45 93.897,208.306 93.897,208.091C93.897,207.625 94.148,206.172 94.668,203.572L94.901,202.46L96.82,202.46L97.017,201.564C96.336,201.635 95.726,201.671 95.044,201.671C95.331,199.985 95.529,199.107 95.851,198.138L95.654,197.869C95.296,198.084 94.811,198.3 94.255,198.515L93.807,201.564C93.018,201.94 92.552,202.137 92.229,202.227L92.193,202.46L93.699,202.46Z" style="fill:black;fill-rule:nonzero;"/>
        <path d="M100.407,201.922C100.783,201.922 101.016,201.904 101.465,201.85C100.478,203.178 98.703,204.684 98.703,207.195C98.703,208.665 99.331,209.651 100.281,209.651C101.429,209.651 102.361,208.665 103.688,206.101C103.527,206.89 103.473,207.338 103.473,207.751C103.473,208.88 103.993,209.651 104.8,209.651C107.203,209.651 109.947,205.186 109.947,202.568C109.947,201.546 109.481,200.81 108.835,200.81C108.602,200.81 108.387,200.882 108.243,201.026L107.347,201.868L107.544,202.209C107.705,202.102 107.867,202.048 108.028,202.048C108.512,202.048 108.799,202.46 108.799,203.178C108.799,205.778 107.06,208.755 105.536,208.755C105.015,208.755 104.639,208.037 104.639,207.051C104.639,206.208 104.8,205.025 105.015,204.254L105.948,200.954L105.822,200.81L104.495,201.205L103.975,203.877C103.76,204.989 103.509,205.706 102.989,206.675C102.272,208.02 101.59,208.755 101.052,208.755C100.425,208.755 100.012,208.055 100.012,207.015C100.012,204.881 100.747,203.142 102.523,201.133L102.343,200.81C101.985,200.972 101.752,201.026 101.249,201.026C100.747,201.026 99.994,200.99 99.474,200.936L99.259,200.918C99.151,200.9 99.062,200.9 99.044,200.9C98.828,200.9 98.667,200.936 98.47,201.026C98.219,201.51 98.021,202.155 97.788,203.142L98.183,203.142L98.488,202.388C98.613,202.084 98.972,201.886 99.402,201.886C100.012,201.886 99.707,201.922 100.407,201.922Z" style="fill:black;fill-rule:nonzero;"/>
        <path d="M110.951,202.496L111.077,202.855L111.651,202.478C112.314,202.066 112.368,202.03 112.494,202.03C112.673,202.03 112.816,202.209 112.816,202.442C112.816,202.568 112.745,202.98 112.673,203.231L111.489,207.535C111.346,208.091 111.256,208.575 111.256,208.916C111.256,209.347 111.454,209.616 111.794,209.616C112.261,209.616 112.906,209.239 114.664,207.93L114.484,207.607L114.018,207.912C113.498,208.253 113.085,208.45 112.924,208.45C112.799,208.45 112.691,208.271 112.691,208.091C112.691,207.912 112.727,207.751 112.816,207.374L114.197,201.922C114.269,201.617 114.305,201.42 114.305,201.277C114.305,200.972 114.144,200.81 113.857,200.81C113.462,200.81 112.799,201.187 111.454,202.137L110.951,202.496ZM114.43,196.686C113.91,196.686 113.39,197.277 113.39,197.887C113.39,198.335 113.659,198.622 114.09,198.622C114.646,198.622 115.076,198.102 115.076,197.421C115.076,196.99 114.807,196.686 114.43,196.686Z" style="fill:black;fill-rule:nonzero;"/>
        <path d="M115.74,202.496L115.865,202.855L116.439,202.478C117.103,202.066 117.156,202.03 117.282,202.03C117.479,202.03 117.605,202.209 117.605,202.478C117.605,203.393 116.869,206.854 116.134,209.418L116.26,209.616C116.708,209.49 117.12,209.382 117.515,209.311C117.856,207.051 118.232,205.885 119.057,204.648C120.026,203.142 121.371,202.03 122.178,202.03C122.375,202.03 122.483,202.191 122.483,202.46C122.483,202.783 122.429,203.16 122.285,203.733L121.353,207.535C121.191,208.199 121.12,208.611 121.12,208.898C121.12,209.347 121.317,209.616 121.658,209.616C122.124,209.616 122.77,209.239 124.527,207.93L124.348,207.607L123.881,207.912C123.361,208.253 122.967,208.45 122.787,208.45C122.662,208.45 122.554,208.289 122.554,208.091C122.554,208.002 122.572,207.804 122.59,207.733L123.774,202.783C123.899,202.263 123.971,201.761 123.971,201.456C123.971,201.043 123.774,200.81 123.415,200.81C122.662,200.81 121.425,201.492 120.366,202.478C119.685,203.106 119.183,203.716 118.25,205.025L118.932,202.137C119.004,201.815 119.039,201.599 119.039,201.402C119.039,201.026 118.896,200.81 118.627,200.81C118.25,200.81 117.551,201.205 116.242,202.137L115.74,202.496Z" style="fill:black;fill-rule:nonzero;"/>
        <path d="M127.881,204.684C127.881,200.021 129.62,198.12 130.66,196.901L130.319,196.435C129.297,197.349 126.338,199.734 126.338,204.684C126.338,206.603 126.787,208.414 127.647,210.028C128.275,211.23 128.849,211.929 130.319,213.31L130.66,212.933C129.835,211.911 127.881,209.723 127.881,204.684Z" style="fill:black;fill-rule:nonzero;"/>
        <path d="M137.098,207.464L136.668,207.768C135.717,208.45 134.857,208.809 134.211,208.809C133.368,208.809 132.848,208.145 132.848,207.069C132.848,206.621 132.902,206.137 132.992,205.616C133.296,205.545 135.251,205.007 135.699,204.809C137.224,204.146 137.923,203.321 137.923,202.209C137.923,201.366 137.314,200.81 136.417,200.81C135.197,200.559 133.225,201.868 132.561,203.195C132.023,204.092 131.485,206.226 131.485,207.428C131.485,208.827 132.274,209.651 133.565,209.651C134.588,209.651 135.592,209.149 137.242,207.804L137.098,207.464ZM133.243,204.54C133.547,203.303 133.906,202.532 134.426,202.066C134.749,201.779 135.305,201.564 135.735,201.564C136.255,201.564 136.596,201.922 136.596,202.496C136.596,203.285 135.968,204.128 135.036,204.576C134.534,204.827 133.888,205.025 133.081,205.204L133.243,204.54Z" style="fill:black;fill-rule:nonzero;"/>
        <path d="M139.089,196.435L138.748,196.901C139.735,198.049 141.528,200.021 141.528,204.684C141.528,209.634 139.663,211.803 138.748,212.933L139.089,213.31C140.039,212.413 143.07,209.867 143.07,204.702C143.07,199.734 140.111,197.349 139.089,196.435Z" style="fill:black;fill-rule:nonzero;"/>
    </g>
    <path d="M56.213,109.937L56.339,110.296L56.913,109.919C57.576,109.507 57.63,109.471 57.755,109.471C57.953,109.471 58.078,109.65 58.078,109.919C58.078,110.834 57.343,114.295 56.608,116.859L56.733,117.057C57.182,116.931 57.594,116.823 57.989,116.752C58.329,114.492 58.706,113.326 59.531,112.089C60.499,110.583 61.844,109.471 62.651,109.471C62.848,109.471 62.956,109.632 62.956,109.901C62.956,110.224 62.902,110.601 62.759,111.174L61.826,114.976C61.665,115.64 61.593,116.052 61.593,116.339C61.593,116.788 61.79,117.057 62.131,117.057C62.597,117.057 63.243,116.68 65,115.371L64.821,115.048L64.355,115.353C63.835,115.694 63.44,115.891 63.261,115.891C63.135,115.891 63.028,115.73 63.028,115.532C63.028,115.443 63.046,115.245 63.064,115.174L64.247,110.224C64.373,109.704 64.445,109.202 64.445,108.897C64.445,108.484 64.247,108.251 63.889,108.251C63.135,108.251 61.898,108.933 60.84,109.919C60.158,110.547 59.656,111.157 58.724,112.466L59.405,109.578C59.477,109.256 59.513,109.04 59.513,108.843C59.513,108.467 59.369,108.251 59.1,108.251C58.724,108.251 58.024,108.646 56.715,109.578L56.213,109.937Z" style="fill:black;fill-rule:nonzero;"/>
    <path d="M71.618,114.905L71.187,115.209C70.237,115.891 69.376,116.25 68.731,116.25C67.888,116.25 67.368,115.586 67.368,114.51C67.368,114.062 67.421,113.578 67.511,113.057C67.816,112.986 69.771,112.448 70.219,112.25C71.743,111.587 72.443,110.762 72.443,109.65C72.443,108.807 71.833,108.251 70.936,108.251C69.717,108 67.744,109.309 67.081,110.636C66.543,111.533 66.005,113.667 66.005,114.869C66.005,116.268 66.794,117.092 68.085,117.092C69.107,117.092 70.111,116.59 71.761,115.245L71.618,114.905ZM67.762,111.981C68.067,110.744 68.426,109.973 68.946,109.507C69.269,109.22 69.825,109.005 70.255,109.005C70.775,109.005 71.116,109.363 71.116,109.937C71.116,110.726 70.488,111.569 69.556,112.017C69.053,112.268 68.408,112.466 67.601,112.645L67.762,111.981Z" style="fill:black;fill-rule:nonzero;"/>
    <path d="M72.855,116.877C73.124,117.021 73.411,117.092 73.626,117.092C74.218,117.092 74.918,116.572 75.474,115.73L76.837,113.631L77.034,114.869C77.267,116.393 77.679,117.092 78.325,117.092C78.72,117.092 79.293,116.788 79.867,116.268L80.746,115.478L80.585,115.138C79.939,115.676 79.491,115.945 79.204,115.945C78.935,115.945 78.702,115.765 78.522,115.407C78.361,115.066 78.164,114.402 78.074,113.882L77.751,112.071L78.379,111.192C79.222,110.027 79.706,109.614 80.262,109.614C80.549,109.614 80.764,109.758 80.854,110.027L81.105,109.955L81.374,108.431C81.158,108.305 80.997,108.251 80.836,108.251C80.118,108.251 79.401,108.897 78.289,110.547L77.626,111.533L77.518,110.672C77.303,108.897 76.819,108.251 75.761,108.251C75.294,108.251 74.9,108.395 74.738,108.628L73.698,110.116L74.003,110.296C74.541,109.686 74.9,109.435 75.24,109.435C75.832,109.435 76.227,110.17 76.532,111.928L76.729,113.04L76.012,114.151C75.24,115.353 74.631,115.927 74.129,115.927C73.86,115.927 73.662,115.855 73.626,115.765L73.429,115.263L73.07,115.317C73.07,115.945 72.927,116.411 72.855,116.877Z" style="fill:black;fill-rule:nonzero;"/>
    <path d="M83.884,109.901L82.88,114.976C82.862,115.12 82.647,115.801 82.647,116.339C82.647,116.788 82.844,117.057 83.185,117.057C83.813,117.057 84.44,116.698 85.839,115.568L86.395,115.12L86.216,114.797L85.409,115.353C84.889,115.712 84.53,115.891 84.333,115.891C84.171,115.891 84.082,115.747 84.082,115.532C84.082,115.066 84.333,113.613 84.853,111.013L85.086,109.901L87.005,109.901L87.202,109.005C86.521,109.076 85.911,109.112 85.229,109.112C85.516,107.426 85.714,106.548 86.036,105.579L85.839,105.31C85.48,105.525 84.996,105.741 84.44,105.956L83.992,109.005C83.203,109.381 82.737,109.578 82.414,109.668L82.378,109.901L83.884,109.901Z" style="fill:black;fill-rule:nonzero;"/>
    <path d="M90.215,112.125C90.215,107.462 91.954,105.561 92.995,104.342L92.654,103.876C91.632,104.79 88.673,107.175 88.673,112.125C88.673,114.044 89.121,115.855 89.982,117.469C90.609,118.671 91.183,119.37 92.654,120.751L92.995,120.374C92.17,119.352 90.215,117.164 90.215,112.125Z" style="fill:black;fill-rule:nonzero;"/>
    <path d="M99.433,114.905L99.002,115.209C98.052,115.891 97.191,116.25 96.545,116.25C95.702,116.25 95.182,115.586 95.182,114.51C95.182,114.062 95.236,113.578 95.326,113.057C95.631,112.986 97.585,112.448 98.034,112.25C99.558,111.587 100.258,110.762 100.258,109.65C100.258,108.807 99.648,108.251 98.751,108.251C97.532,108 95.559,109.309 94.895,110.636C94.357,111.533 93.819,113.667 93.819,114.869C93.819,116.268 94.609,117.092 95.9,117.092C96.922,117.092 97.926,116.59 99.576,115.245L99.433,114.905ZM95.577,111.981C95.882,110.744 96.24,109.973 96.761,109.507C97.083,109.22 97.639,109.005 98.07,109.005C98.59,109.005 98.93,109.363 98.93,109.937C98.93,110.726 98.303,111.569 97.37,112.017C96.868,112.268 96.223,112.466 95.416,112.645L95.577,111.981Z" style="fill:black;fill-rule:nonzero;"/>
    <path d="M101.423,103.876L101.082,104.342C102.069,105.49 103.862,107.462 103.862,112.125C103.862,117.075 101.997,119.244 101.082,120.374L101.423,120.751C102.374,119.854 105.404,117.308 105.404,112.143C105.404,107.175 102.445,104.79 101.423,103.876Z" style="fill:black;fill-rule:nonzero;"/>
</svg>
