<?xml version="1.0" standalone="no"?>
<!DOCTYPE svg PUBLIC "-//W3C//DTD SVG 1.1//EN" "http://www.w3.org/Graphics/SVG/1.1/DTD/svg11.dtd">
<svg width="100%" height="100%" viewBox="0 0 189 274" version="1.1" xmlns="http://www.w3.org/2000/svg" xmlns:xlink="http://www.w3.org/1999/xlink" xml:space="preserve" style="fill-rule:evenodd;clip-rule:evenodd;stroke-linecap:round;stroke-linejoin:round;stroke-miterlimit:10;">
    <rect x="-394" y="108" width="1118" height="783" style="fill:white;fill-rule:nonzero;"/>
    <path d="M9.739,264.601L179.817,264.601L179.817,94.522L9.739,264.601Z" style="fill:rgb(255,251,0);fill-opacity:0.501961;fill-rule:nonzero;"/>
    <path d="M179.817,94.522L9.739,94.522L9.739,264.601L179.817,94.522Z" style="fill:rgb(142,250,0);fill-opacity:0.501961;fill-rule:nonzero;"/>
    <path d="M94.778,9.483L9.738,94.522L179.817,94.522L94.778,9.483Z" style="fill:rgb(255,147,0);fill-opacity:0.101961;fill-rule:nonzero;"/>
    <path d="M99.789,14.494C97.021,17.261 92.534,17.261 89.767,14.494C86.999,11.726 86.999,7.239 89.767,4.472C92.534,1.704 97.021,1.704 99.789,4.472C102.556,7.239 102.556,11.726 99.789,14.494" style="fill:rgb(192,192,192);fill-rule:nonzero;stroke-width:1px;stroke:rgb(192,192,192);"/>
    <path d="M14.749,99.533C11.982,102.3 7.495,102.3 4.727,99.533C1.96,96.765 1.96,92.278 4.727,89.511C7.495,86.743 11.982,86.743 14.749,89.511C17.517,92.278 17.517,96.765 14.749,99.533" style="fill:rgb(192,192,192);fill-rule:nonzero;stroke-width:1px;stroke:rgb(192,192,192);"/>
    <path d="M184.828,99.533C182.061,102.3 177.574,102.3 174.806,99.533C172.039,96.765 172.039,92.278 174.806,89.511C177.574,86.743 182.061,86.743 184.828,89.511C187.596,92.278 187.596,96.765 184.828,99.533" style="fill:rgb(192,192,192);fill-rule:nonzero;stroke-width:1px;stroke:rgb(192,192,192);"/>
    <path d="M14.749,269.612C11.982,272.379 7.495,272.379 4.727,269.612C1.96,266.844 1.96,262.357 4.727,259.59C7.495,256.822 11.982,256.822 14.749,259.59C17.517,262.357 17.517,266.844 14.749,269.612" style="fill:black;fill-rule:nonzero;stroke-width:1px;stroke:black;"/>
    <path d="M184.828,269.612C182.061,272.379 177.574,272.379 174.806,269.612C172.039,266.844 172.039,262.357 174.806,259.59C177.574,256.822 182.061,256.822 184.828,259.59C187.596,262.357 187.596,266.844 184.828,269.612" style="fill:rgb(192,192,192);fill-rule:nonzero;stroke-width:1px;stroke:rgb(192,192,192);"/>
    <path d="M15.103,89.157L89.413,14.847" style="fill:none;stroke-width:1px;stroke:rgb(192,192,192);"/>
    <path d="M100.142,14.847L174.453,89.157" style="fill:none;stroke-width:1px;stroke:rgb(192,192,192);"/>
    <path d="M179.817,102.109L179.817,257.014" style="fill:none;stroke-width:1px;stroke:rgb(192,192,192);"/>
    <path d="M94.278,264.5L17.325,264.592" style="fill:none;stroke-width:1px;stroke:black;"/>
    <path d="M9.738,257.014L9.738,102.109" style="fill:none;stroke-width:1px;stroke:rgb(192,192,192);"/>
    <path d="M17.325,94.522L172.231,94.522" style="fill:none;stroke-width:1px;stroke:rgb(192,192,192);"/>
    <path d="M15.076,259.21L94.108,179.392" style="fill:none;stroke-width:2px;stroke:black;"/>
    <path d="M186.904,179.561L172.731,179.561" style="fill:none;stroke-width:1px;stroke:rgb(192,192,192);"/>
    <path d="M16.825,179.561L2.652,179.561" style="fill:none;stroke-width:1px;stroke:rgb(192,192,192);"/>
    <path d="M94.278,101.609L94.278,87.435" style="fill:none;stroke-width:1px;stroke:rgb(192,192,192);"/>
    <path d="M99.234,184.518L89.212,174.496" style="fill:none;stroke-width:2px;stroke:black;"/>
    <path d="M60.6,53.551L50.578,43.529" style="fill:none;stroke-width:1px;stroke:rgb(192,192,192);"/>
    <path d="M136.852,41.621L126.83,51.643" style="fill:none;stroke-width:1px;stroke:rgb(192,192,192);"/>
    <path d="M94.358,179.642L174.442,99.876" style="fill:none;stroke-width:1px;stroke:black;"/>
    <g>
        <path d="M54.968,211.804L54.538,212.109C53.587,212.79 52.726,213.149 52.081,213.149C51.238,213.149 50.718,212.485 50.718,211.409C50.718,210.961 50.772,210.477 50.861,209.957C51.166,209.885 53.121,209.347 53.569,209.15C55.094,208.486 55.793,207.661 55.793,206.549C55.793,205.706 55.183,205.151 54.287,205.151C53.067,204.899 51.094,206.209 50.431,207.536C49.893,208.432 49.355,210.566 49.355,211.768C49.355,213.167 50.144,213.992 51.435,213.992C52.457,213.992 53.462,213.49 55.112,212.145L54.968,211.804ZM51.112,208.881C51.417,207.643 51.776,206.872 52.296,206.406C52.619,206.119 53.175,205.904 53.605,205.904C54.125,205.904 54.466,206.262 54.466,206.836C54.466,207.625 53.838,208.468 52.906,208.917C52.404,209.168 51.758,209.365 50.951,209.544L51.112,208.881Z" style="fill:black;fill-rule:nonzero;"/>
        <path d="M63.487,257.897C66.357,257.897 68.15,255.834 68.204,253.019C68.24,251.476 67.773,251.154 66.608,250.382L66.608,250.329C67.558,250.329 68.616,250.4 69.585,250.257C69.71,249.898 69.764,249.54 69.818,249.127C69.118,249.504 66.949,249.253 66.034,249.432C63.111,250.024 60.923,251.727 60.923,254.884C60.923,256.767 61.479,257.897 63.487,257.897ZM67.002,252.839C67.002,254.615 66.321,257.394 64.061,257.394C62.411,257.394 62.268,255.619 62.286,254.364C62.304,252.391 62.985,250.239 65.335,250.239C66.859,250.239 67.002,251.745 67.002,252.839Z" style="fill:black;fill-rule:nonzero;"/>
        <path d="M72.938,252.857C72.938,248.195 74.678,246.294 75.718,245.074L75.377,244.608C74.355,245.522 71.396,247.908 71.396,252.857C71.396,254.776 71.844,256.587 72.705,258.201C73.333,259.403 73.907,260.102 75.377,261.483L75.718,261.107C74.893,260.084 72.938,257.897 72.938,252.857Z" style="fill:black;fill-rule:nonzero;"/>
        <path d="M82.156,255.637L81.726,255.942C80.775,256.623 79.914,256.982 79.269,256.982C78.426,256.982 77.906,256.318 77.906,255.242C77.906,254.794 77.96,254.31 78.049,253.79C78.354,253.718 80.309,253.18 80.757,252.983C82.282,252.319 82.981,251.494 82.981,250.382C82.981,249.54 82.371,248.984 81.475,248.984C80.255,248.733 78.282,250.042 77.619,251.369C77.081,252.265 76.543,254.399 76.543,255.601C76.543,257 77.332,257.825 78.623,257.825C79.645,257.825 80.65,257.323 82.3,255.978L82.156,255.637ZM78.3,252.714C78.605,251.476 78.964,250.705 79.484,250.239C79.807,249.952 80.363,249.737 80.793,249.737C81.313,249.737 81.654,250.095 81.654,250.669C81.654,251.458 81.026,252.301 80.094,252.75C79.592,253.001 78.946,253.198 78.139,253.377L78.3,252.714Z" style="fill:black;fill-rule:nonzero;"/>
        <path d="M84.147,244.608L83.806,245.074C84.792,246.222 86.586,248.195 86.586,252.857C86.586,257.807 84.721,259.977 83.806,261.107L84.147,261.483C85.097,260.587 88.128,258.04 88.128,252.875C88.128,247.908 85.169,245.522 84.147,244.608Z" style="fill:black;fill-rule:nonzero;"/>
    </g>
    <path d="M137.389,152.048C138.214,152.048 139.416,150.793 139.99,150.255L139.99,150.022L139.757,150.022C139.416,150.345 138.986,150.775 138.501,150.775C137.694,150.775 137.82,148.462 137.82,147.888C138.717,146.776 139.541,145.61 140.223,144.355C140.097,144.086 139.972,143.799 139.828,143.53L139.631,143.53C139.38,144.749 138.394,146.112 137.748,147.152C137.784,145.736 138.196,143.297 136.17,143.279C133.157,143.279 130.7,147.403 130.647,150.093C130.629,151.169 130.987,152.048 132.207,152.048C133.857,152.048 135.542,150.614 136.618,149.412C136.618,150.04 136.457,152.03 137.389,152.048ZM135.309,143.924C136.869,143.924 136.636,147.744 136.618,148.82C135.847,149.735 134.395,151.259 133.121,151.259C132.171,151.259 131.974,150.506 131.992,149.699C132.009,148.139 133.354,143.924 135.309,143.924Z" style="fill:black;fill-rule:nonzero;"/>
    <path d="M143.487,146.991C143.487,142.328 145.226,140.427 146.266,139.208L145.926,138.742C144.904,139.656 141.945,142.041 141.945,146.991C141.945,148.91 142.393,150.721 143.254,152.335C143.881,153.537 144.455,154.236 145.926,155.617L146.266,155.24C145.442,154.218 143.487,152.03 143.487,146.991Z" style="fill:black;fill-rule:nonzero;"/>
    <path d="M152.705,149.771L152.274,150.076C151.324,150.757 150.463,151.116 149.817,151.116C148.974,151.116 148.454,150.452 148.454,149.376C148.454,148.928 148.508,148.444 148.598,147.924C148.903,147.852 150.857,147.314 151.306,147.117C152.83,146.453 153.53,145.628 153.53,144.516C153.53,143.673 152.92,143.117 152.023,143.117C150.804,142.866 148.831,144.175 148.167,145.503C147.629,146.399 147.091,148.533 147.091,149.735C147.091,151.134 147.88,151.959 149.172,151.959C150.194,151.959 151.198,151.456 152.848,150.111L152.705,149.771ZM148.849,146.848C149.154,145.61 149.512,144.839 150.033,144.373C150.355,144.086 150.911,143.871 151.342,143.871C151.862,143.871 152.202,144.229 152.202,144.803C152.202,145.592 151.575,146.435 150.642,146.883C150.14,147.134 149.495,147.332 148.688,147.511L148.849,146.848Z" style="fill:black;fill-rule:nonzero;"/>
    <path d="M154.695,138.742L154.354,139.208C155.341,140.356 157.134,142.328 157.134,146.991C157.134,151.941 155.269,154.111 154.354,155.24L154.695,155.617C155.646,154.72 158.676,152.174 158.676,147.009C158.676,142.041 155.717,139.656 154.695,138.742Z" style="fill:black;fill-rule:nonzero;"/>
    <path d="M172.231,264.601L94.278,264.5" style="fill:none;stroke-width:1px;stroke:rgb(192,192,192);"/>
    <path d="M94.278,271.687L94.278,257.514" style="fill:none;stroke-width:1px;stroke:black;"/>
    <path d="M24.11,253.53C24.468,254.028 24.844,254.496 25.219,254.965" style="fill:none;stroke-width:1px;stroke:black;"/>
    <path d="M28.659,262.19L27.929,253.677L22.511,256.256L28.659,262.19Z" style="fill:black;fill-rule:nonzero;stroke-width:1px;stroke-linecap:butt;stroke-linejoin:miter;stroke:black;"/>
</svg>
