<?xml version="1.0" standalone="no"?>
<!DOCTYPE svg PUBLIC "-//W3C//DTD SVG 1.1//EN" "http://www.w3.org/Graphics/SVG/1.1/DTD/svg11.dtd">
<svg width="100%" height="100%" viewBox="0 0 655 301" version="1.1" xmlns="http://www.w3.org/2000/svg" xmlns:xlink="http://www.w3.org/1999/xlink" xml:space="preserve" style="fill-rule:evenodd;clip-rule:evenodd;stroke-linecap:round;stroke-linejoin:round;stroke-miterlimit:10;">
    <rect x="-398" y="-445" width="1612" height="1132" style="fill:white;fill-rule:nonzero;"/>
    <path d="M27.197,235.315L612.519,235.315" style="fill:none;stroke-width:3px;stroke:black;"/>
    <g>
        <path d="M646.119,235.315L612.519,222.715L612.519,247.915L646.119,235.315Z" style="fill:black;fill-rule:nonzero;"/>
        <path d="M650.391,235.315L611.019,250.079L611.019,220.55L650.391,235.315ZM614.019,245.75L641.847,235.315L614.019,224.879L614.019,245.75Z" style="fill:black;"/>
    </g>
    <path d="M253.968,221.142L253.968,249.488" style="fill:none;stroke-width:3px;stroke:black;"/>
    <path d="M395.701,221.142L395.701,249.488" style="fill:none;stroke-width:3px;stroke:black;"/>
    <path d="M537.433,221.142L537.433,249.488" style="fill:none;stroke-width:3px;stroke:black;"/>
    <g>
        <clipPath id="_clip1">
            <rect x="246.307" y="263.661" width="19" height="36"/>
        </clipPath>
        <g clip-path="url(#_clip1)">
            <path d="M264.293,299.969L264.293,298.475L261.702,298.326C258.962,298.176 258.464,297.628 258.464,295.038L258.464,264.95L246.459,270.031L246.808,272.521L254.28,269.234L254.28,295.038C254.28,297.628 253.732,298.176 251.042,298.326L248.252,298.475L248.252,299.969C255.924,299.82 255.924,299.82 256.472,299.82C258.016,299.82 263.496,299.969 264.293,299.969Z" style="fill:black;fill-rule:nonzero;"/>
        </g>
    </g>
    <g>
        <clipPath id="_clip2">
            <rect x="386.874" y="263.661" width="23" height="35"/>
        </clipPath>
        <g clip-path="url(#_clip2)">
            <path d="M387.267,297.674L387.267,298.969C396.582,298.969 396.582,298.82 398.376,298.82C400.169,298.82 400.169,298.969 409.783,298.969L409.783,294.735C404.055,294.984 401.763,294.785 392.547,294.984L401.614,285.37C406.446,280.239 407.94,277.499 407.94,273.763C407.94,268.034 404.055,264.497 397.728,264.497C394.142,264.497 391.701,265.494 389.26,267.985L388.413,274.759L389.857,274.759L390.505,272.468C391.302,269.579 393.095,268.333 396.433,268.333C400.717,268.333 403.457,271.023 403.457,275.258C403.457,278.994 401.365,282.68 395.736,288.658L387.267,297.674Z" style="fill:black;fill-rule:nonzero;"/>
        </g>
    </g>
    <path d="M548.485,287.851C548.485,281.824 543.154,280.778 540.813,280.379C544.798,277.291 546.293,274.999 546.293,272.06C546.293,267.627 542.606,264.687 537.077,264.687C533.689,264.687 531.448,265.634 529.057,268.025L527.612,274.202L529.156,274.202L530.053,271.412C530.601,269.719 533.739,268.025 536.33,268.025C539.568,268.025 542.208,270.665 542.208,273.804C542.208,277.54 539.269,280.678 535.732,280.678C535.333,280.678 534.785,280.628 534.138,280.578L533.391,280.529L532.793,283.169L533.142,283.468C535.034,282.621 535.981,282.372 537.326,282.372C541.461,282.372 543.852,285.012 543.852,289.545C543.852,294.626 540.813,297.964 536.18,297.964C533.889,297.964 531.846,297.217 530.352,295.822C529.156,294.726 528.509,293.58 527.562,290.89L526.217,291.388C527.263,294.427 527.662,296.22 527.961,298.711C530.601,299.608 532.793,300.006 534.636,300.006C540.763,300.006 548.485,294.676 548.485,287.851Z" style="fill:black;fill-rule:nonzero;"/>
    <g>
        <clipPath id="_clip3">
            <rect x="100.575" y="263.661" width="23" height="37"/>
        </clipPath>
        <g clip-path="url(#_clip3)">
            <path d="M113.571,264.687C105.85,264.687 101.915,270.815 101.915,282.87C101.915,288.698 102.961,293.73 104.704,296.171C106.448,298.611 109.237,300.006 112.326,300.006C119.848,300.006 123.634,293.53 123.634,280.778C123.634,269.868 120.396,264.687 113.571,264.687ZM112.675,266.431C117.507,266.431 119.45,271.313 119.45,283.268C119.45,293.879 117.557,298.263 112.974,298.263C108.142,298.263 106.099,293.231 106.099,281.077C106.099,270.566 107.942,266.431 112.675,266.431Z" style="fill:black;fill-rule:nonzero;"/>
        </g>
    </g>
    <g>
        <clipPath id="_clip4">
            <rect x="4.52" y="110.591" width="65" height="74"/>
        </clipPath>
        <g clip-path="url(#_clip4)">
            <path d="M64.173,123.438L64.173,130.611L67.261,130.611C67.261,125.43 68.158,120.15 69.154,115.467C64.372,113.773 55.405,111.382 46.14,111.382C23.524,111.382 5.192,125.131 5.192,147.747C5.192,170.363 21.332,184.013 45.243,184.013C51.321,184.013 61.184,182.12 66.962,178.633L69.652,173.651L68.855,172.655C64.272,176.042 55.704,178.633 48.631,178.633C40.959,178.633 34.284,176.74 29.003,173.153L29.003,119.552C33.188,117.061 38.369,115.567 44.446,115.567C52.018,115.567 64.173,119.054 64.173,123.438ZM24.42,169.367C18.941,163.688 15.852,155.817 15.852,146.153C15.852,136.987 18.742,128.718 24.42,123.139L24.42,169.367Z" style="fill:black;fill-rule:nonzero;"/>
        </g>
    </g>
    <path d="M86.276,31.083C86.276,11.755 71.032,0.098 50.608,0.696C46.225,0.796 39.749,0.995 33.273,0.995L13.646,0.995C9.362,0.995 4.679,0.796 1.192,0.696L1.192,3.685L5.576,3.984C9.66,4.283 10.657,5.08 10.657,12.951L10.657,57.684C10.657,65.555 9.66,66.551 5.576,66.751L1.192,66.95L1.192,69.939C5.675,69.74 12.052,69.64 17.133,69.64L30.682,69.64C43.535,69.64 52.8,71.433 64.855,66.452C76.911,61.57 86.276,47.423 86.276,31.083ZM75.615,33.873C75.615,47.323 70.734,57.585 59.675,62.766C54.295,65.256 48.516,65.555 43.535,65.555C40.147,65.555 34.966,65.456 32.177,64.758L32.177,5.478C34.966,4.781 40.147,4.681 43.535,4.681C61.468,4.681 75.615,9.165 75.615,33.873ZM22.712,60.175C22.712,62.865 21.915,65.057 20.221,66.053L19.026,66.751C15.837,66.352 15.24,65.555 15.24,57.684L15.24,12.951C15.24,5.578 15.738,4.382 18.428,4.083C22.214,4.482 22.712,5.179 22.712,12.951L22.712,60.175Z" style="fill:black;fill-rule:nonzero;"/>
    <path d="M112.236,221.142L112.236,249.488" style="fill:none;stroke-width:3px;stroke:black;"/>
    <path d="M124.836,150.276L524.833,150.276" style="fill:none;stroke-width:3px;stroke:black;"/>
    <path d="M537.602,136.177L537.771,136.18L537.94,136.185L538.109,136.192L538.278,136.201L538.447,136.212L538.615,136.225L538.784,136.24L538.952,136.257L539.12,136.276L539.288,136.297L539.456,136.321L539.624,136.346L539.791,136.373L539.958,136.402L540.125,136.434L540.291,136.467L540.457,136.502L540.623,136.539L540.788,136.579L540.954,136.62L541.118,136.663L541.282,136.709L541.446,136.756L541.609,136.806L541.772,136.857L541.935,136.91L542.096,136.966L542.258,137.023L542.418,137.083L542.579,137.145L542.738,137.208L542.897,137.274L543.055,137.341L543.213,137.411L543.37,137.483L543.526,137.556L543.682,137.632L543.836,137.71L543.99,137.789L544.144,137.871L544.296,137.955L544.448,138.041L544.598,138.128L544.748,138.218L544.897,138.31L545.045,138.404L545.193,138.5L545.339,138.597L545.484,138.697L545.628,138.799L545.771,138.903L545.914,139.009L546.055,139.117L546.195,139.227L546.334,139.339L546.472,139.452L546.608,139.568L546.744,139.686L546.878,139.806L547.011,139.928L547.143,140.052L547.274,140.177L547.403,140.305L547.531,140.435L547.657,140.565L547.781,140.697L547.902,140.83L548.022,140.965L548.14,141.1L548.256,141.237L548.37,141.375L548.482,141.514L548.592,141.654L548.7,141.795L548.805,141.937L548.909,142.08L549.011,142.225L549.111,142.37L549.209,142.516L549.305,142.663L549.399,142.811L549.49,142.96L549.58,143.11L549.668,143.261L549.754,143.413L549.838,143.565L549.919,143.718L549.999,143.872L550.077,144.027L550.152,144.182L550.226,144.339L550.298,144.496L550.367,144.653L550.435,144.811L550.501,144.971L550.564,145.13L550.626,145.29L550.685,145.451L550.743,145.612L550.798,145.774L550.852,145.936L550.903,146.099L550.952,146.262L551,146.426L551.045,146.591L551.089,146.755L551.13,146.92L551.169,147.086L551.207,147.251L551.242,147.417L551.275,147.584L551.306,147.751L551.336,147.918L551.363,148.085L551.388,148.252L551.411,148.42L551.432,148.588L551.451,148.756L551.469,148.925L551.484,149.093L551.497,149.262L551.508,149.431L551.517,149.6L551.524,149.768L551.529,149.938L551.532,150.107L551.533,150.276L551.532,150.444L551.529,150.614L551.524,150.783L551.517,150.951L551.508,151.12L551.497,151.289L551.484,151.458L551.469,151.626L551.451,151.795L551.432,151.963L551.411,152.131L551.388,152.299L551.363,152.466L551.336,152.633L551.306,152.8L551.275,152.967L551.242,153.134L551.207,153.3L551.169,153.466L551.13,153.631L551.089,153.796L551.045,153.961L551,154.125L550.952,154.289L550.903,154.452L550.852,154.615L550.798,154.777L550.743,154.939L550.685,155.1L550.626,155.261L550.564,155.421L550.501,155.581L550.435,155.74L550.367,155.898L550.298,156.055L550.226,156.212L550.152,156.369L550.077,156.524L549.999,156.679L549.919,156.833L549.838,156.986L549.754,157.139L549.668,157.29L549.58,157.441L549.49,157.591L549.399,157.74L549.305,157.888L549.209,158.035L549.111,158.181L549.011,158.326L548.909,158.471L548.805,158.614L548.7,158.756L548.592,158.897L548.482,159.037L548.37,159.176L548.256,159.314L548.14,159.451L548.022,159.586L547.902,159.721L547.781,159.854L547.657,159.986L547.531,160.116L547.403,160.246L547.274,160.374L547.143,160.499L547.011,160.623L546.878,160.745L546.744,160.865L546.608,160.983L546.472,161.099L546.334,161.212L546.195,161.324L546.055,161.434L545.914,161.542L545.771,161.648L545.628,161.752L545.484,161.854L545.339,161.954L545.193,162.051L545.045,162.147L544.897,162.241L544.748,162.333L544.598,162.423L544.448,162.511L544.296,162.596L544.144,162.68L543.99,162.762L543.836,162.842L543.682,162.919L543.526,162.995L543.37,163.069L543.213,163.14L543.055,163.21L542.897,163.277L542.738,163.343L542.579,163.407L542.419,163.468L542.258,163.528L542.096,163.585L541.935,163.641L541.772,163.694L541.609,163.746L541.446,163.795L541.282,163.842L541.118,163.888L540.954,163.931L540.789,163.972L540.623,164.012L540.457,164.049L540.291,164.084L540.125,164.118L539.958,164.149L539.791,164.178L539.624,164.205L539.456,164.23L539.288,164.254L539.12,164.275L538.952,164.294L538.784,164.311L538.615,164.326L538.447,164.339L538.278,164.35L538.109,164.359L537.94,164.367L537.771,164.372L537.602,164.375L537.433,164.376L537.264,164.375L537.095,164.372L536.926,164.367L536.757,164.359L536.588,164.35L536.42,164.339L536.251,164.326L536.082,164.311L535.914,164.294L535.746,164.275L535.578,164.254L535.41,164.23L535.243,164.205L535.075,164.178L534.908,164.149L534.741,164.118L534.575,164.084L534.409,164.049L534.243,164.012L534.078,163.972L533.913,163.931L533.748,163.888L533.584,163.842L533.42,163.795L533.257,163.746L533.094,163.694L532.931,163.641L532.77,163.585L532.608,163.528L532.448,163.468L532.287,163.407L532.128,163.343L531.969,163.277L531.811,163.21L531.653,163.14L531.496,163.069L531.34,162.995L531.184,162.919L531.03,162.842L530.876,162.762L530.722,162.68L530.57,162.596L530.418,162.511L530.268,162.423L530.118,162.333L529.969,162.241L529.821,162.147L529.674,162.051L529.527,161.954L529.382,161.854L529.238,161.752L529.095,161.648L528.953,161.542L528.811,161.434L528.671,161.324L528.532,161.212L528.395,161.099L528.258,160.983L528.122,160.865L527.988,160.745L527.855,160.623L527.723,160.499L527.592,160.374L527.47,160.252L528.523,159.185L527.456,160.239L527.335,160.116L527.209,159.986L527.085,159.854L526.964,159.721L526.844,159.586L526.726,159.451L526.61,159.314L526.496,159.176L526.384,159.037L526.274,158.897L526.167,158.756L526.061,158.614L525.957,158.471L525.855,158.326L525.755,158.181L525.657,158.035L525.561,157.888L525.467,157.74L525.376,157.591L525.286,157.441L525.198,157.29L525.112,157.139L525.029,156.986L524.947,156.833L524.867,156.679L524.789,156.524L524.714,156.369L524.64,156.212L524.568,156.056L524.499,155.898L524.431,155.739L524.366,155.581L524.302,155.421L524.24,155.261L524.181,155.1L524.123,154.939L524.068,154.777L524.015,154.615L523.963,154.452L523.914,154.289L523.866,154.125L523.821,153.961L523.778,153.796L523.736,153.631L523.697,153.466L523.66,153.3L523.624,153.134L523.591,152.967L523.56,152.8L523.531,152.634L523.503,152.466L523.478,152.298L523.455,152.131L523.434,151.963L523.415,151.795L523.398,151.626L523.382,151.458L523.369,151.289L523.358,151.12L523.349,150.951L523.342,150.782L523.337,150.614L523.334,150.445L523.333,150.276L523.334,150.106L523.337,149.938L523.342,149.769L523.349,149.6L523.358,149.431L523.369,149.262L523.382,149.093L523.398,148.925L523.415,148.756L523.434,148.588L523.455,148.42L523.478,148.253L523.503,148.085L523.531,147.918L523.56,147.751L523.591,147.584L523.624,147.417L523.66,147.251L523.697,147.086L523.736,146.92L523.778,146.755L523.821,146.59L523.866,146.426L523.914,146.262L523.963,146.099L524.014,145.936L524.068,145.774L524.123,145.612L524.181,145.451L524.24,145.29L524.302,145.13L524.366,144.97L524.431,144.812L524.499,144.653L524.568,144.496L524.64,144.339L524.714,144.183L524.789,144.027L524.867,143.872L524.947,143.718L525.029,143.565L525.112,143.412L525.198,143.261L525.286,143.11L525.376,142.96L525.467,142.811L525.561,142.663L525.657,142.516L525.755,142.37L525.855,142.225L525.957,142.08L526.061,141.937L526.167,141.795L526.274,141.654L526.384,141.514L526.496,141.375L526.61,141.237L526.726,141.1L526.844,140.965L526.964,140.83L527.085,140.697L527.209,140.565L527.335,140.435L527.463,140.305L527.592,140.178L527.723,140.052L527.855,139.928L527.988,139.806L528.122,139.686L528.258,139.568L528.395,139.452L528.532,139.339L528.671,139.227L528.811,139.117L528.953,139.009L529.095,138.903L529.238,138.799L529.382,138.697L529.527,138.597L529.674,138.5L529.821,138.404L529.969,138.31L530.118,138.218L530.268,138.128L530.418,138.041L530.57,137.955L530.722,137.871L530.876,137.789L531.03,137.71L531.184,137.632L531.34,137.556L531.496,137.483L531.653,137.411L531.811,137.341L531.969,137.274L532.128,137.208L532.287,137.145L532.448,137.083L532.608,137.023L532.77,136.966L532.931,136.91L533.094,136.857L533.257,136.806L533.42,136.756L533.584,136.709L533.748,136.663L533.913,136.62L534.078,136.579L534.243,136.539L534.409,136.502L534.575,136.467L534.741,136.434L534.908,136.402L535.075,136.373L535.243,136.346L535.41,136.321L535.578,136.297L535.746,136.276L535.914,136.257L536.082,136.24L536.251,136.225L536.419,136.212L536.588,136.201L536.757,136.192L536.926,136.185L537.095,136.18L537.264,136.177L537.433,136.176L537.602,136.177ZM537.3,139.176L537.167,139.179L537.033,139.183L536.9,139.188L536.767,139.195L536.634,139.204L536.501,139.215L536.368,139.226L536.236,139.24L536.103,139.255L535.971,139.272L535.838,139.29L535.706,139.31L535.575,139.331L535.443,139.354L535.312,139.379L535.181,139.405L535.05,139.433L534.919,139.462L534.789,139.493L534.659,139.526L534.529,139.56L534.4,139.596L534.271,139.633L534.143,139.672L534.015,139.712L533.887,139.754L533.76,139.798L533.633,139.843L533.507,139.89L533.381,139.938L533.255,139.988L533.13,140.04L533.006,140.093L532.882,140.148L532.759,140.204L532.636,140.262L532.514,140.321L532.392,140.382L532.271,140.445L532.151,140.509L532.031,140.575L531.912,140.642L531.794,140.711L531.676,140.782L531.559,140.854L531.442,140.928L531.327,141.003L531.212,141.08L531.097,141.159L530.984,141.239L530.871,141.321L530.759,141.404L530.648,141.489L530.538,141.575L530.429,141.663L530.32,141.753L530.212,141.845L530.105,141.937L529.999,142.032L529.894,142.128L529.79,142.226L529.687,142.326L529.584,142.427L529.483,142.529L529.384,142.632L529.286,142.737L529.19,142.842L529.095,142.948L529.002,143.055L528.911,143.162L528.821,143.271L528.733,143.38L528.646,143.491L528.561,143.602L528.478,143.714L528.396,143.826L528.316,143.94L528.238,144.054L528.161,144.169L528.085,144.285L528.012,144.401L527.939,144.518L527.869,144.636L527.8,144.754L527.732,144.874L527.667,144.993L527.602,145.114L527.54,145.235L527.479,145.356L527.419,145.479L527.361,145.601L527.305,145.725L527.25,145.849L527.197,145.973L527.146,146.098L527.096,146.223L527.047,146.349L527.001,146.475L526.955,146.602L526.912,146.73L526.87,146.857L526.829,146.985L526.79,147.114L526.753,147.243L526.717,147.372L526.683,147.502L526.651,147.631L526.62,147.762L526.59,147.892L526.563,148.023L526.536,148.154L526.512,148.286L526.489,148.417L526.467,148.549L526.447,148.681L526.429,148.813L526.413,148.945L526.397,149.078L526.384,149.211L526.372,149.344L526.362,149.477L526.353,149.61L526.346,149.743L526.34,149.876L526.336,150.009L526.334,150.142L526.333,150.276L526.334,150.409L526.336,150.542L526.34,150.675L526.346,150.808L526.353,150.942L526.362,151.074L526.372,151.207L526.384,151.34L526.397,151.473L526.413,151.606L526.429,151.738L526.447,151.87L526.467,152.002L526.489,152.134L526.512,152.266L526.536,152.397L526.563,152.528L526.59,152.659L526.62,152.789L526.651,152.92L526.683,153.05L526.717,153.179L526.753,153.308L526.79,153.437L526.829,153.566L526.87,153.694L526.912,153.822L526.955,153.949L527.001,154.076L527.047,154.202L527.096,154.328L527.146,154.453L527.197,154.578L527.25,154.703L527.305,154.826L527.361,154.95L527.419,155.073L527.479,155.195L527.54,155.316L527.602,155.437L527.667,155.558L527.732,155.677L527.8,155.797L527.869,155.915L527.939,156.033L528.012,156.15L528.085,156.266L528.161,156.382L528.238,156.497L528.316,156.611L528.396,156.725L528.478,156.837L528.561,156.949L528.646,157.06L528.733,157.171L528.821,157.28L528.911,157.389L529.002,157.497L529.095,157.603L529.19,157.709L529.286,157.814L529.384,157.919L529.483,158.022L529.584,158.124L529.687,158.226L529.79,158.325L529.894,158.423L529.999,158.519L530.105,158.614L530.212,158.707L530.32,158.798L530.429,158.888L530.538,158.976L530.648,159.062L530.759,159.147L530.871,159.231L530.984,159.312L531.097,159.392L531.212,159.471L531.327,159.548L531.442,159.623L531.559,159.697L531.676,159.769L531.794,159.84L531.912,159.909L532.031,159.976L532.151,160.042L532.271,160.106L532.392,160.169L532.514,160.23L532.636,160.289L532.759,160.347L532.882,160.403L533.006,160.458L533.13,160.511L533.255,160.563L533.381,160.613L533.507,160.661L533.633,160.708L533.76,160.753L533.887,160.797L534.015,160.839L534.143,160.879L534.271,160.918L534.4,160.956L534.529,160.991L534.659,161.025L534.789,161.058L534.919,161.089L535.05,161.118L535.181,161.146L535.312,161.172L535.443,161.197L535.575,161.22L535.706,161.241L535.838,161.261L535.971,161.279L536.103,161.296L536.236,161.311L536.368,161.325L536.501,161.337L536.634,161.347L536.767,161.356L536.9,161.363L537.033,161.368L537.167,161.372L537.3,161.375L537.433,161.376L537.566,161.375L537.7,161.372L537.833,161.368L537.966,161.363L538.099,161.356L538.232,161.347L538.365,161.337L538.498,161.325L538.631,161.311L538.763,161.296L538.895,161.279L539.028,161.261L539.16,161.241L539.292,161.22L539.423,161.197L539.554,161.172L539.686,161.146L539.816,161.118L539.947,161.089L540.077,161.058L540.207,161.025L540.337,160.991L540.466,160.956L540.595,160.918L540.723,160.879L540.851,160.839L540.979,160.797L541.106,160.753L541.233,160.708L541.359,160.661L541.485,160.613L541.611,160.563L541.736,160.511L541.86,160.458L541.984,160.403L542.107,160.347L542.23,160.289L542.352,160.23L542.474,160.169L542.595,160.106L542.715,160.042L542.835,159.976L542.954,159.909L543.072,159.84L543.19,159.769L543.307,159.697L543.424,159.623L543.539,159.548L543.654,159.471L543.769,159.392L543.882,159.312L543.995,159.231L544.107,159.147L544.218,159.062L544.328,158.976L544.438,158.888L544.546,158.798L544.654,158.707L544.761,158.614L544.867,158.519L544.972,158.423L545.076,158.325L545.18,158.225L545.282,158.124L545.383,158.022L545.482,157.919L545.58,157.815L545.676,157.709L545.771,157.603L545.864,157.496L545.955,157.389L546.045,157.28L546.133,157.171L546.22,157.06L546.305,156.949L546.388,156.837L546.47,156.725L546.55,156.611L546.628,156.497L546.705,156.382L546.781,156.266L546.855,156.15L546.927,156.033L546.997,155.915L547.066,155.797L547.134,155.677L547.199,155.558L547.264,155.437L547.326,155.316L547.387,155.195L547.447,155.072L547.505,154.95L547.561,154.827L547.616,154.703L547.669,154.578L547.72,154.453L547.77,154.328L547.819,154.202L547.866,154.075L547.911,153.949L547.954,153.822L547.996,153.694L548.037,153.566L548.076,153.437L548.113,153.308L548.149,153.179L548.183,153.05L548.215,152.92L548.246,152.789L548.276,152.659L548.304,152.528L548.33,152.397L548.354,152.266L548.377,152.134L548.399,152.002L548.419,151.87L548.437,151.738L548.454,151.606L548.469,151.473L548.482,151.34L548.494,151.207L548.504,151.075L548.513,150.942L548.52,150.808L548.526,150.675L548.53,150.542L548.532,150.409L548.533,150.276L548.532,150.142L548.53,150.009L548.526,149.876L548.52,149.743L548.513,149.609L548.504,149.476L548.494,149.344L548.482,149.211L548.469,149.078L548.454,148.945L548.437,148.813L548.419,148.681L548.399,148.549L548.377,148.417L548.354,148.286L548.33,148.154L548.304,148.023L548.276,147.892L548.246,147.762L548.215,147.632L548.183,147.502L548.149,147.372L548.113,147.243L548.076,147.114L548.037,146.985L547.996,146.857L547.954,146.73L547.911,146.602L547.866,146.476L547.819,146.349L547.77,146.223L547.72,146.098L547.669,145.973L547.616,145.849L547.561,145.725L547.505,145.601L547.447,145.479L547.387,145.357L547.326,145.235L547.264,145.114L547.199,144.993L547.134,144.874L547.066,144.755L546.997,144.636L546.927,144.518L546.855,144.401L546.781,144.285L546.705,144.169L546.628,144.054L546.55,143.94L546.47,143.826L546.388,143.714L546.305,143.602L546.22,143.491L546.133,143.38L546.045,143.271L545.955,143.163L545.864,143.055L545.771,142.948L545.676,142.842L545.58,142.737L545.482,142.632L545.383,142.529L545.282,142.427L545.18,142.326L545.076,142.226L544.972,142.128L544.867,142.032L544.761,141.938L544.654,141.845L544.546,141.753L544.438,141.663L544.328,141.575L544.218,141.489L544.107,141.404L543.995,141.321L543.882,141.239L543.769,141.159L543.654,141.08L543.539,141.003L543.424,140.928L543.307,140.854L543.19,140.782L543.072,140.711L542.954,140.642L542.835,140.575L542.715,140.509L542.595,140.445L542.474,140.382L542.352,140.321L542.23,140.262L542.107,140.204L541.984,140.148L541.86,140.093L541.736,140.04L541.611,139.988L541.485,139.938L541.359,139.89L541.233,139.843L541.106,139.798L540.979,139.754L540.851,139.712L540.723,139.672L540.595,139.633L540.466,139.596L540.337,139.56L540.207,139.526L540.077,139.493L539.947,139.462L539.816,139.433L539.686,139.405L539.554,139.379L539.423,139.354L539.291,139.331L539.16,139.31L539.028,139.29L538.895,139.272L538.763,139.255L538.631,139.24L538.498,139.226L538.365,139.215L538.232,139.204L538.099,139.195L537.966,139.188L537.833,139.183L537.7,139.179L537.566,139.176L537.433,139.176L537.3,139.176Z" style="fill:black;"/>
    <path d="M112.405,136.177L112.574,136.18L112.743,136.185L112.912,136.192L113.081,136.201L113.25,136.212L113.418,136.225L113.587,136.24L113.755,136.257L113.924,136.276L114.091,136.297L114.259,136.321L114.427,136.346L114.594,136.373L114.761,136.402L114.928,136.434L115.094,136.467L115.26,136.502L115.426,136.539L115.592,136.579L115.757,136.62L115.921,136.663L116.086,136.709L116.249,136.756L116.413,136.806L116.576,136.857L116.738,136.91L116.9,136.966L117.061,137.023L117.222,137.083L117.382,137.145L117.541,137.208L117.7,137.274L117.859,137.341L118.016,137.411L118.173,137.483L118.329,137.556L118.485,137.632L118.64,137.71L118.794,137.789L118.947,137.871L119.099,137.955L119.251,138.041L119.402,138.128L119.551,138.218L119.7,138.31L119.849,138.404L119.996,138.5L120.142,138.598L120.287,138.697L120.431,138.799L120.575,138.903L120.717,139.009L120.858,139.117L120.998,139.227L121.137,139.339L121.275,139.452L121.411,139.568L121.547,139.686L121.681,139.806L121.814,139.928L121.946,140.052L122.077,140.178L122.2,140.299L121.146,141.366L122.213,140.312L122.334,140.435L122.46,140.565L122.584,140.697L122.706,140.83L122.826,140.965L122.943,141.1L123.059,141.237L123.173,141.375L123.285,141.514L123.395,141.654L123.503,141.795L123.609,141.937L123.713,142.08L123.814,142.225L123.914,142.37L124.012,142.516L124.108,142.663L124.202,142.811L124.294,142.96L124.383,143.11L124.471,143.261L124.557,143.413L124.641,143.565L124.722,143.718L124.802,143.872L124.88,144.027L124.956,144.182L125.029,144.339L125.101,144.496L125.171,144.653L125.238,144.812L125.304,144.97L125.367,145.13L125.429,145.29L125.488,145.451L125.546,145.612L125.601,145.774L125.655,145.936L125.706,146.099L125.756,146.262L125.803,146.426L125.848,146.59L125.892,146.755L125.933,146.92L125.972,147.086L126.01,147.251L126.045,147.417L126.078,147.584L126.11,147.751L126.139,147.918L126.166,148.085L126.191,148.253L126.214,148.42L126.236,148.588L126.255,148.757L126.272,148.925L126.287,149.093L126.3,149.262L126.311,149.431L126.32,149.6L126.327,149.768L126.332,149.938L126.335,150.107L126.336,150.276L126.335,150.445L126.332,150.614L126.327,150.783L126.32,150.951L126.311,151.12L126.3,151.289L126.287,151.458L126.272,151.626L126.255,151.795L126.236,151.963L126.214,152.131L126.191,152.299L126.166,152.466L126.139,152.633L126.11,152.8L126.078,152.967L126.045,153.134L126.01,153.3L125.972,153.466L125.933,153.631L125.892,153.796L125.848,153.961L125.803,154.125L125.756,154.289L125.706,154.452L125.655,154.615L125.601,154.777L125.546,154.939L125.488,155.1L125.429,155.261L125.367,155.421L125.304,155.581L125.238,155.74L125.171,155.898L125.101,156.055L125.029,156.212L124.956,156.369L124.88,156.524L124.802,156.679L124.722,156.833L124.641,156.986L124.557,157.139L124.471,157.29L124.383,157.441L124.294,157.591L124.202,157.74L124.108,157.888L124.012,158.035L123.914,158.181L123.814,158.326L123.713,158.471L123.609,158.614L123.503,158.756L123.395,158.897L123.285,159.037L123.173,159.176L123.059,159.314L122.943,159.451L122.826,159.586L122.706,159.721L122.584,159.854L122.46,159.986L122.334,160.116L122.207,160.246L122.077,160.374L121.946,160.499L121.814,160.623L121.681,160.745L121.547,160.865L121.411,160.983L121.275,161.099L121.137,161.212L120.998,161.324L120.858,161.434L120.717,161.542L120.575,161.648L120.431,161.752L120.287,161.854L120.142,161.954L119.996,162.051L119.849,162.147L119.7,162.241L119.551,162.333L119.402,162.423L119.251,162.511L119.099,162.596L118.947,162.68L118.794,162.762L118.64,162.842L118.485,162.919L118.329,162.995L118.173,163.069L118.016,163.14L117.859,163.21L117.7,163.277L117.541,163.343L117.382,163.407L117.222,163.468L117.061,163.528L116.9,163.585L116.738,163.641L116.576,163.694L116.413,163.746L116.249,163.795L116.086,163.842L115.921,163.888L115.757,163.931L115.592,163.972L115.426,164.012L115.26,164.049L115.094,164.084L114.928,164.118L114.761,164.149L114.594,164.178L114.427,164.205L114.259,164.23L114.091,164.254L113.923,164.275L113.755,164.294L113.587,164.311L113.418,164.326L113.25,164.339L113.081,164.35L112.912,164.359L112.743,164.367L112.574,164.372L112.405,164.375L112.236,164.376L112.067,164.375L111.898,164.372L111.729,164.367L111.56,164.359L111.391,164.35L111.223,164.339L111.054,164.326L110.886,164.311L110.717,164.294L110.549,164.275L110.381,164.254L110.213,164.23L110.046,164.205L109.878,164.178L109.711,164.149L109.545,164.118L109.378,164.084L109.212,164.049L109.046,164.012L108.881,163.972L108.716,163.931L108.551,163.888L108.387,163.842L108.223,163.795L108.06,163.746L107.897,163.694L107.735,163.641L107.573,163.585L107.412,163.528L107.251,163.468L107.091,163.407L106.931,163.343L106.772,163.277L106.614,163.21L106.456,163.14L106.299,163.069L106.143,162.995L105.988,162.919L105.833,162.842L105.679,162.762L105.526,162.68L105.373,162.596L105.222,162.511L105.071,162.423L104.921,162.333L104.772,162.241L104.624,162.147L104.477,162.051L104.331,161.954L104.185,161.854L104.041,161.752L103.898,161.648L103.756,161.542L103.615,161.434L103.475,161.324L103.336,161.212L103.198,161.099L103.061,160.983L102.925,160.865L102.791,160.745L102.658,160.623L102.526,160.499L102.395,160.374L102.266,160.246L102.138,160.116L102.012,159.986L101.889,159.854L101.767,159.721L101.647,159.586L101.529,159.451L101.413,159.314L101.299,159.176L101.187,159.037L101.078,158.897L100.97,158.756L100.864,158.614L100.76,158.471L100.658,158.326L100.558,158.181L100.46,158.035L100.365,157.888L100.271,157.74L100.179,157.591L100.089,157.441L100.001,157.29L99.915,157.139L99.832,156.986L99.75,156.833L99.67,156.679L99.593,156.524L99.517,156.369L99.443,156.212L99.372,156.055L99.302,155.898L99.234,155.74L99.169,155.581L99.105,155.421L99.044,155.261L98.984,155.1L98.927,154.939L98.871,154.777L98.818,154.615L98.766,154.452L98.717,154.289L98.669,154.125L98.624,153.961L98.581,153.796L98.539,153.631L98.5,153.466L98.463,153.3L98.427,153.134L98.394,152.967L98.363,152.8L98.334,152.633L98.307,152.466L98.281,152.299L98.258,152.131L98.237,151.963L98.218,151.795L98.201,151.626L98.186,151.458L98.173,151.289L98.161,151.12L98.152,150.951L98.145,150.783L98.14,150.614L98.137,150.445L98.136,150.276L98.137,150.107L98.14,149.937L98.145,149.769L98.152,149.6L98.161,149.431L98.173,149.262L98.186,149.093L98.201,148.925L98.218,148.757L98.237,148.588L98.258,148.42L98.281,148.253L98.307,148.085L98.334,147.918L98.363,147.751L98.394,147.584L98.427,147.417L98.463,147.251L98.5,147.086L98.539,146.92L98.581,146.755L98.624,146.59L98.669,146.426L98.717,146.262L98.766,146.099L98.818,145.936L98.871,145.774L98.927,145.612L98.984,145.451L99.044,145.29L99.105,145.13L99.169,144.97L99.234,144.812L99.302,144.653L99.372,144.496L99.443,144.339L99.517,144.182L99.593,144.027L99.67,143.872L99.75,143.718L99.832,143.565L99.915,143.413L100.001,143.261L100.089,143.11L100.179,142.96L100.271,142.811L100.364,142.663L100.46,142.516L100.558,142.37L100.658,142.225L100.76,142.08L100.864,141.937L100.97,141.795L101.078,141.654L101.187,141.514L101.299,141.375L101.413,141.237L101.529,141.1L101.647,140.965L101.767,140.83L101.889,140.697L102.012,140.565L102.138,140.435L102.266,140.305L102.395,140.178L102.526,140.052L102.658,139.928L102.791,139.806L102.925,139.686L103.061,139.568L103.198,139.452L103.336,139.339L103.475,139.227L103.615,139.117L103.756,139.009L103.898,138.903L104.041,138.799L104.185,138.697L104.331,138.598L104.477,138.5L104.624,138.404L104.772,138.31L104.921,138.218L105.071,138.128L105.222,138.041L105.373,137.955L105.526,137.871L105.679,137.789L105.833,137.71L105.988,137.632L106.143,137.556L106.299,137.483L106.456,137.411L106.614,137.341L106.772,137.274L106.931,137.208L107.091,137.145L107.251,137.083L107.412,137.023L107.573,136.966L107.735,136.91L107.897,136.857L108.06,136.806L108.223,136.756L108.387,136.709L108.551,136.663L108.716,136.62L108.881,136.579L109.046,136.539L109.212,136.502L109.378,136.467L109.545,136.434L109.711,136.402L109.878,136.373L110.046,136.346L110.213,136.321L110.381,136.297L110.549,136.276L110.717,136.257L110.886,136.24L111.054,136.225L111.223,136.212L111.391,136.201L111.56,136.192L111.729,136.185L111.898,136.18L112.067,136.177L112.236,136.176L112.405,136.177ZM112.103,139.176L111.97,139.179L111.836,139.183L111.703,139.188L111.57,139.195L111.437,139.204L111.304,139.215L111.171,139.226L111.039,139.24L110.906,139.255L110.774,139.272L110.642,139.29L110.51,139.31L110.378,139.331L110.246,139.354L110.115,139.379L109.984,139.405L109.853,139.433L109.722,139.462L109.592,139.493L109.462,139.526L109.333,139.56L109.203,139.596L109.075,139.633L108.946,139.672L108.818,139.712L108.69,139.754L108.563,139.798L108.436,139.843L108.31,139.89L108.184,139.938L108.059,139.988L107.934,140.04L107.809,140.093L107.685,140.148L107.562,140.204L107.439,140.262L107.317,140.321L107.195,140.382L107.074,140.445L106.954,140.509L106.834,140.575L106.715,140.642L106.597,140.711L106.479,140.782L106.362,140.854L106.245,140.928L106.13,141.003L106.015,141.08L105.901,141.159L105.787,141.239L105.674,141.321L105.563,141.404L105.452,141.489L105.341,141.575L105.232,141.663L105.123,141.753L105.015,141.845L104.908,141.938L104.802,142.032L104.697,142.128L104.593,142.226L104.49,142.326L104.387,142.427L104.286,142.529L104.187,142.632L104.089,142.737L103.993,142.842L103.898,142.948L103.805,143.055L103.714,143.162L103.624,143.271L103.536,143.381L103.45,143.491L103.365,143.602L103.281,143.714L103.2,143.826L103.119,143.94L103.041,144.054L102.964,144.169L102.889,144.285L102.815,144.401L102.743,144.518L102.672,144.636L102.603,144.755L102.536,144.874L102.47,144.993L102.406,145.114L102.343,145.235L102.282,145.356L102.223,145.479L102.165,145.601L102.108,145.725L102.054,145.849L102,145.973L101.949,146.098L101.899,146.223L101.851,146.349L101.804,146.476L101.759,146.602L101.715,146.73L101.673,146.857L101.632,146.985L101.594,147.114L101.556,147.243L101.521,147.372L101.486,147.502L101.454,147.631L101.423,147.762L101.394,147.892L101.366,148.023L101.34,148.154L101.315,148.286L101.292,148.417L101.271,148.549L101.251,148.681L101.232,148.813L101.216,148.946L101.201,149.078L101.187,149.211L101.175,149.344L101.165,149.477L101.156,149.61L101.149,149.743L101.143,149.876L101.139,150.009L101.137,150.142L101.136,150.276L101.137,150.409L101.139,150.542L101.143,150.675L101.149,150.808L101.156,150.942L101.165,151.075L101.175,151.208L101.187,151.34L101.201,151.473L101.216,151.606L101.232,151.738L101.251,151.87L101.271,152.002L101.292,152.134L101.315,152.266L101.34,152.397L101.366,152.528L101.394,152.659L101.423,152.789L101.454,152.92L101.486,153.05L101.521,153.179L101.556,153.308L101.594,153.437L101.632,153.566L101.673,153.694L101.715,153.821L101.759,153.949L101.804,154.076L101.851,154.202L101.899,154.328L101.949,154.453L102,154.578L102.054,154.703L102.108,154.826L102.165,154.95L102.223,155.072L102.282,155.195L102.343,155.316L102.406,155.437L102.47,155.558L102.536,155.677L102.603,155.797L102.672,155.915L102.743,156.033L102.815,156.15L102.889,156.266L102.964,156.382L103.041,156.497L103.119,156.611L103.2,156.725L103.281,156.837L103.365,156.949L103.45,157.06L103.536,157.171L103.624,157.28L103.714,157.389L103.805,157.496L103.898,157.603L103.993,157.709L104.089,157.815L104.187,157.919L104.286,158.022L104.387,158.124L104.49,158.226L104.593,158.325L104.697,158.423L104.802,158.519L104.908,158.614L105.015,158.707L105.123,158.798L105.232,158.888L105.341,158.976L105.452,159.062L105.563,159.147L105.674,159.231L105.787,159.312L105.901,159.392L106.015,159.471L106.13,159.548L106.245,159.623L106.362,159.697L106.479,159.769L106.597,159.84L106.715,159.909L106.834,159.976L106.954,160.042L107.074,160.106L107.196,160.169L107.317,160.23L107.439,160.289L107.562,160.347L107.685,160.403L107.809,160.458L107.934,160.511L108.059,160.563L108.184,160.613L108.31,160.661L108.436,160.708L108.563,160.753L108.69,160.797L108.818,160.839L108.946,160.879L109.075,160.918L109.203,160.956L109.333,160.991L109.462,161.025L109.592,161.058L109.722,161.089L109.853,161.118L109.984,161.146L110.115,161.172L110.246,161.197L110.378,161.22L110.51,161.241L110.642,161.261L110.774,161.279L110.906,161.296L111.039,161.311L111.171,161.325L111.304,161.337L111.437,161.347L111.57,161.356L111.703,161.363L111.837,161.368L111.97,161.372L112.103,161.375L112.236,161.376L112.37,161.375L112.503,161.372L112.636,161.368L112.769,161.363L112.902,161.356L113.035,161.347L113.168,161.337L113.301,161.325L113.434,161.311L113.566,161.296L113.699,161.279L113.831,161.261L113.963,161.241L114.095,161.22L114.226,161.197L114.358,161.172L114.489,161.146L114.62,161.118L114.75,161.089L114.88,161.058L115.01,161.025L115.14,160.991L115.269,160.956L115.398,160.918L115.526,160.879L115.654,160.839L115.782,160.797L115.909,160.753L116.036,160.708L116.163,160.661L116.289,160.613L116.414,160.563L116.539,160.511L116.663,160.458L116.787,160.403L116.91,160.347L117.033,160.289L117.155,160.23L117.277,160.169L117.398,160.106L117.518,160.042L117.638,159.976L117.757,159.909L117.876,159.84L117.994,159.769L118.111,159.697L118.227,159.623L118.343,159.548L118.458,159.471L118.572,159.392L118.685,159.312L118.798,159.231L118.91,159.147L119.021,159.062L119.131,158.976L119.241,158.888L119.349,158.798L119.457,158.707L119.564,158.614L119.67,158.519L119.775,158.423L119.879,158.325L119.983,158.225L120.085,158.124L120.186,158.022L120.286,157.919L120.383,157.815L120.48,157.709L120.574,157.603L120.667,157.496L120.759,157.389L120.848,157.28L120.936,157.171L121.023,157.06L121.108,156.949L121.191,156.837L121.273,156.725L121.353,156.611L121.432,156.497L121.509,156.382L121.584,156.266L121.658,156.15L121.73,156.033L121.8,155.915L121.869,155.797L121.937,155.677L122.003,155.558L122.067,155.437L122.129,155.316L122.191,155.195L122.25,155.073L122.308,154.95L122.364,154.826L122.419,154.703L122.472,154.578L122.524,154.453L122.574,154.328L122.622,154.202L122.669,154.076L122.714,153.949L122.758,153.821L122.8,153.694L122.84,153.566L122.879,153.437L122.916,153.308L122.952,153.179L122.986,153.05L123.019,152.92L123.05,152.789L123.079,152.659L123.107,152.528L123.133,152.397L123.158,152.266L123.181,152.134L123.202,152.002L123.222,151.87L123.24,151.738L123.257,151.606L123.272,151.473L123.285,151.34L123.297,151.208L123.308,151.075L123.316,150.942L123.324,150.808L123.329,150.675L123.333,150.542L123.335,150.409L123.336,150.276L123.335,150.142L123.333,150.009L123.329,149.876L123.324,149.743L123.316,149.609L123.308,149.477L123.297,149.344L123.285,149.211L123.272,149.078L123.257,148.946L123.24,148.813L123.222,148.681L123.202,148.549L123.181,148.417L123.158,148.286L123.133,148.154L123.107,148.023L123.079,147.892L123.05,147.762L123.019,147.632L122.986,147.502L122.952,147.372L122.916,147.243L122.879,147.114L122.84,146.985L122.8,146.857L122.758,146.73L122.714,146.602L122.669,146.476L122.622,146.349L122.574,146.223L122.524,146.098L122.472,145.973L122.419,145.849L122.364,145.725L122.308,145.601L122.25,145.479L122.191,145.356L122.129,145.235L122.067,145.114L122.003,144.993L121.937,144.874L121.869,144.755L121.8,144.636L121.73,144.518L121.658,144.401L121.584,144.285L121.509,144.169L121.432,144.054L121.353,143.94L121.273,143.826L121.191,143.714L121.108,143.602L121.023,143.491L120.936,143.38L120.848,143.271L120.759,143.162L120.667,143.055L120.574,142.948L120.48,142.842L120.383,142.737L120.286,142.632L120.186,142.529L120.085,142.427L119.983,142.326L119.879,142.226L119.775,142.128L119.67,142.032L119.564,141.938L119.457,141.845L119.349,141.753L119.241,141.663L119.131,141.575L119.021,141.489L118.91,141.404L118.798,141.321L118.685,141.239L118.572,141.159L118.458,141.08L118.343,141.003L118.227,140.928L118.111,140.854L117.994,140.782L117.876,140.711L117.757,140.642L117.638,140.575L117.518,140.509L117.398,140.445L117.277,140.382L117.155,140.321L117.033,140.262L116.91,140.204L116.787,140.148L116.663,140.093L116.539,140.04L116.414,139.988L116.289,139.938L116.163,139.89L116.036,139.843L115.909,139.798L115.782,139.754L115.654,139.712L115.526,139.672L115.398,139.633L115.269,139.596L115.14,139.56L115.01,139.526L114.88,139.493L114.75,139.462L114.62,139.433L114.489,139.405L114.358,139.379L114.226,139.354L114.095,139.331L113.963,139.31L113.831,139.29L113.699,139.272L113.566,139.255L113.434,139.24L113.301,139.226L113.168,139.215L113.035,139.204L112.902,139.195L112.769,139.188L112.636,139.183L112.503,139.179L112.37,139.176L112.236,139.176L112.103,139.176Z" style="fill:black;"/>
    <path d="M124.836,36.89L524.833,36.89" style="fill:none;stroke-width:3px;stroke:black;"/>
    <g>
        <path d="M528.524,45.799C523.603,40.879 523.603,32.901 528.524,27.98C533.444,23.06 541.422,23.06 546.343,27.98C551.263,32.901 551.263,40.879 546.343,45.799C541.422,50.72 533.444,50.72 528.524,45.799" style="fill:black;fill-rule:nonzero;"/>
        <path d="M537.602,22.791L537.771,22.794L537.94,22.799L538.109,22.806L538.278,22.815L538.447,22.826L538.615,22.839L538.784,22.854L538.952,22.871L539.12,22.89L539.288,22.912L539.456,22.935L539.624,22.96L539.791,22.987L539.958,23.016L540.125,23.048L540.291,23.081L540.457,23.116L540.623,23.154L540.788,23.193L540.954,23.234L541.118,23.278L541.282,23.323L541.446,23.37L541.609,23.42L541.772,23.471L541.935,23.525L542.096,23.58L542.258,23.638L542.419,23.697L542.579,23.759L542.738,23.822L542.897,23.888L543.055,23.955L543.213,24.025L543.37,24.097L543.526,24.17L543.682,24.246L543.836,24.324L543.99,24.404L544.144,24.485L544.296,24.569L544.448,24.655L544.598,24.743L544.748,24.832L544.897,24.924L545.045,25.018L545.192,25.114L545.339,25.212L545.484,25.312L545.628,25.413L545.771,25.517L545.914,25.623L546.055,25.731L546.195,25.841L546.334,25.953L546.472,26.067L546.608,26.183L546.744,26.3L546.878,26.42L547.011,26.542L547.143,26.666L547.274,26.792L547.403,26.92L547.531,27.049L547.657,27.18L547.781,27.312L547.902,27.445L548.022,27.579L548.14,27.714L548.256,27.851L548.37,27.989L548.482,28.128L548.592,28.268L548.7,28.409L548.805,28.551L548.909,28.695L549.011,28.839L549.111,28.984L549.209,29.13L549.305,29.278L549.399,29.425L549.49,29.574L549.58,29.724L549.668,29.875L549.754,30.027L549.838,30.179L549.919,30.332L549.999,30.486L550.077,30.641L550.152,30.797L550.226,30.953L550.298,31.11L550.367,31.267L550.435,31.426L550.501,31.585L550.564,31.744L550.626,31.904L550.685,32.065L550.743,32.226L550.798,32.388L550.852,32.55L550.903,32.713L550.952,32.877L551,33.04L551.045,33.205L551.089,33.369L551.13,33.534L551.169,33.7L551.207,33.866L551.242,34.032L551.275,34.198L551.306,34.365L551.336,34.532L551.363,34.699L551.388,34.867L551.411,35.035L551.432,35.203L551.451,35.371L551.469,35.539L551.484,35.708L551.497,35.876L551.508,36.045L551.517,36.214L551.524,36.383L551.529,36.552L551.532,36.721L551.533,36.89L551.532,37.059L551.529,37.228L551.524,37.397L551.517,37.566L551.508,37.734L551.497,37.903L551.484,38.072L551.469,38.24L551.451,38.409L551.432,38.577L551.411,38.745L551.388,38.913L551.363,39.08L551.336,39.248L551.306,39.415L551.275,39.582L551.242,39.748L551.207,39.914L551.169,40.08L551.13,40.245L551.089,40.41L551.045,40.575L551,40.739L550.952,40.903L550.903,41.066L550.852,41.229L550.798,41.391L550.743,41.553L550.685,41.715L550.626,41.875L550.564,42.035L550.501,42.195L550.435,42.354L550.367,42.512L550.298,42.67L550.226,42.827L550.152,42.983L550.077,43.138L549.999,43.293L549.919,43.447L549.838,43.6L549.754,43.753L549.668,43.904L549.58,44.055L549.49,44.205L549.399,44.354L549.305,44.502L549.209,44.649L549.111,44.795L549.011,44.941L548.909,45.085L548.805,45.228L548.7,45.37L548.592,45.511L548.482,45.651L548.37,45.79L548.256,45.928L548.14,46.065L548.022,46.2L547.902,46.335L547.781,46.468L547.657,46.6L547.531,46.731L547.403,46.86L547.274,46.988L547.143,47.114L547.011,47.237L546.878,47.359L546.744,47.479L546.608,47.597L546.472,47.713L546.334,47.827L546.195,47.939L546.055,48.048L545.914,48.156L545.771,48.262L545.628,48.366L545.484,48.468L545.339,48.568L545.192,48.666L545.045,48.761L544.897,48.855L544.748,48.947L544.598,49.037L544.448,49.125L544.296,49.211L544.144,49.294L543.99,49.376L543.836,49.456L543.682,49.533L543.526,49.609L543.37,49.683L543.213,49.754L543.055,49.824L542.897,49.892L542.738,49.957L542.579,50.021L542.419,50.082L542.258,50.142L542.096,50.199L541.935,50.255L541.772,50.308L541.609,50.36L541.446,50.409L541.282,50.457L541.118,50.502L540.954,50.545L540.788,50.587L540.623,50.626L540.457,50.663L540.291,50.699L540.125,50.732L539.958,50.763L539.791,50.792L539.624,50.819L539.456,50.845L539.288,50.868L539.12,50.889L538.952,50.908L538.784,50.925L538.615,50.94L538.447,50.954L538.278,50.965L538.109,50.974L537.94,50.981L537.771,50.986L537.602,50.989L537.433,50.99L537.264,50.989L537.095,50.986L536.926,50.981L536.757,50.974L536.588,50.965L536.419,50.953L536.251,50.94L536.082,50.925L535.914,50.908L535.746,50.889L535.578,50.868L535.41,50.845L535.242,50.819L535.075,50.792L534.908,50.763L534.741,50.732L534.575,50.699L534.409,50.663L534.243,50.626L534.078,50.587L533.913,50.545L533.748,50.502L533.584,50.457L533.42,50.409L533.257,50.36L533.094,50.308L532.931,50.255L532.77,50.199L532.608,50.142L532.448,50.082L532.287,50.021L532.128,49.957L531.969,49.892L531.811,49.824L531.653,49.754L531.496,49.683L531.34,49.609L531.184,49.533L531.03,49.456L530.876,49.376L530.722,49.294L530.57,49.21L530.418,49.125L530.268,49.037L530.118,48.947L529.969,48.855L529.821,48.761L529.674,48.666L529.527,48.568L529.382,48.468L529.238,48.366L529.095,48.262L528.953,48.156L528.811,48.048L528.671,47.939L528.532,47.827L528.395,47.713L528.258,47.597L528.122,47.479L527.988,47.359L527.855,47.237L527.723,47.114L527.592,46.988L527.47,46.867L528.523,45.799L527.456,46.853L527.335,46.731L527.209,46.6L527.085,46.468L526.964,46.335L526.844,46.2L526.726,46.065L526.61,45.928L526.496,45.79L526.384,45.651L526.274,45.511L526.167,45.37L526.061,45.228L525.957,45.085L525.855,44.941L525.755,44.795L525.657,44.649L525.561,44.502L525.467,44.354L525.376,44.205L525.286,44.055L525.198,43.904L525.112,43.753L525.029,43.6L524.947,43.447L524.867,43.293L524.789,43.138L524.714,42.983L524.64,42.827L524.568,42.67L524.499,42.512L524.431,42.354L524.366,42.195L524.302,42.035L524.24,41.875L524.181,41.714L524.123,41.553L524.068,41.391L524.014,41.229L523.963,41.066L523.914,40.903L523.866,40.739L523.821,40.575L523.778,40.41L523.736,40.245L523.697,40.08L523.66,39.914L523.624,39.748L523.591,39.581L523.56,39.415L523.531,39.248L523.503,39.08L523.478,38.913L523.455,38.745L523.434,38.577L523.415,38.409L523.398,38.24L523.382,38.072L523.369,37.903L523.358,37.735L523.349,37.566L523.342,37.397L523.337,37.228L523.334,37.059L523.333,36.89L523.334,36.721L523.337,36.552L523.342,36.383L523.349,36.214L523.358,36.045L523.369,35.876L523.382,35.708L523.398,35.539L523.415,35.371L523.434,35.203L523.455,35.035L523.478,34.867L523.503,34.699L523.531,34.532L523.56,34.365L523.591,34.198L523.624,34.032L523.66,33.865L523.697,33.7L523.736,33.534L523.778,33.369L523.821,33.205L523.866,33.04L523.914,32.877L523.963,32.713L524.014,32.551L524.068,32.388L524.123,32.226L524.181,32.065L524.24,31.904L524.302,31.744L524.366,31.585L524.431,31.426L524.499,31.267L524.568,31.11L524.64,30.953L524.714,30.797L524.789,30.641L524.867,30.486L524.947,30.332L525.029,30.179L525.112,30.027L525.198,29.875L525.286,29.724L525.376,29.574L525.467,29.426L525.561,29.277L525.657,29.13L525.755,28.984L525.855,28.839L525.957,28.695L526.061,28.551L526.167,28.409L526.274,28.268L526.384,28.128L526.496,27.989L526.61,27.851L526.726,27.715L526.844,27.579L526.964,27.445L527.085,27.311L527.209,27.18L527.335,27.049L527.463,26.92L527.592,26.792L527.723,26.666L527.855,26.542L527.988,26.42L528.122,26.301L528.258,26.183L528.395,26.067L528.532,25.953L528.671,25.841L528.811,25.731L528.953,25.623L529.095,25.517L529.238,25.413L529.382,25.312L529.527,25.212L529.674,25.114L529.821,25.018L529.969,24.924L530.118,24.832L530.268,24.743L530.418,24.655L530.57,24.569L530.722,24.485L530.876,24.403L531.03,24.324L531.184,24.246L531.34,24.17L531.496,24.097L531.653,24.025L531.811,23.955L531.969,23.888L532.128,23.822L532.287,23.759L532.448,23.697L532.608,23.638L532.77,23.58L532.931,23.525L533.094,23.471L533.257,23.42L533.42,23.37L533.584,23.323L533.748,23.278L533.913,23.234L534.078,23.193L534.243,23.154L534.409,23.116L534.575,23.081L534.741,23.048L534.908,23.016L535.075,22.987L535.242,22.96L535.41,22.935L535.578,22.912L535.746,22.89L535.914,22.871L536.082,22.854L536.251,22.839L536.419,22.826L536.588,22.815L536.757,22.806L536.926,22.799L537.095,22.794L537.264,22.791L537.433,22.79L537.602,22.791ZM537.3,25.791L537.167,25.793L537.033,25.797L536.9,25.802L536.767,25.81L536.634,25.818L536.501,25.829L536.368,25.841L536.236,25.854L536.103,25.869L535.971,25.886L535.838,25.904L535.706,25.924L535.575,25.945L535.443,25.968L535.312,25.993L535.181,26.019L535.05,26.047L534.919,26.076L534.789,26.107L534.659,26.14L534.529,26.174L534.4,26.21L534.271,26.247L534.143,26.286L534.015,26.326L533.887,26.368L533.76,26.412L533.633,26.457L533.507,26.504L533.381,26.552L533.255,26.602L533.13,26.654L533.006,26.707L532.882,26.762L532.759,26.818L532.636,26.876L532.514,26.935L532.392,26.997L532.271,27.059L532.151,27.123L532.031,27.189L531.912,27.257L531.794,27.326L531.676,27.396L531.559,27.468L531.442,27.542L531.327,27.617L531.212,27.694L531.097,27.773L530.984,27.853L530.871,27.935L530.759,28.018L530.648,28.103L530.538,28.19L530.429,28.278L530.32,28.367L530.212,28.459L530.105,28.552L529.999,28.646L529.894,28.743L529.79,28.84L529.687,28.94L529.584,29.041L529.483,29.143L529.384,29.247L529.286,29.351L529.19,29.456L529.095,29.562L529.002,29.669L528.911,29.777L528.821,29.885L528.733,29.995L528.646,30.105L528.561,30.216L528.478,30.328L528.396,30.441L528.316,30.554L528.238,30.668L528.161,30.783L528.085,30.899L528.012,31.015L527.939,31.133L527.869,31.25L527.8,31.369L527.732,31.488L527.667,31.608L527.602,31.728L527.54,31.849L527.479,31.971L527.419,32.093L527.361,32.216L527.305,32.339L527.25,32.463L527.197,32.587L527.146,32.712L527.096,32.838L527.047,32.963L527.001,33.09L526.955,33.217L526.912,33.344L526.87,33.471L526.829,33.6L526.79,33.728L526.753,33.857L526.717,33.986L526.683,34.116L526.651,34.246L526.62,34.376L526.59,34.507L526.563,34.637L526.536,34.768L526.512,34.9L526.489,35.031L526.467,35.163L526.447,35.295L526.429,35.427L526.413,35.56L526.397,35.692L526.384,35.825L526.372,35.958L526.362,36.091L526.353,36.224L526.346,36.357L526.34,36.49L526.336,36.623L526.334,36.757L526.333,36.89L526.334,37.023L526.336,37.156L526.34,37.29L526.346,37.423L526.353,37.556L526.362,37.689L526.372,37.822L526.384,37.955L526.397,38.087L526.413,38.22L526.429,38.352L526.447,38.484L526.467,38.616L526.489,38.748L526.512,38.88L526.536,39.011L526.563,39.142L526.59,39.273L526.62,39.404L526.651,39.534L526.683,39.664L526.717,39.793L526.753,39.922L526.79,40.051L526.829,40.18L526.87,40.308L526.912,40.436L526.955,40.563L527.001,40.69L527.047,40.816L527.096,40.942L527.146,41.067L527.197,41.192L527.25,41.317L527.305,41.441L527.361,41.564L527.419,41.687L527.479,41.809L527.54,41.93L527.602,42.052L527.667,42.172L527.732,42.292L527.8,42.411L527.869,42.529L527.939,42.647L528.012,42.764L528.085,42.88L528.161,42.996L528.238,43.111L528.316,43.225L528.396,43.339L528.478,43.451L528.561,43.563L528.646,43.675L528.733,43.785L528.821,43.894L528.911,44.003L529.002,44.111L529.095,44.218L529.19,44.324L529.286,44.429L529.384,44.533L529.483,44.636L529.584,44.739L529.687,44.84L529.79,44.939L529.894,45.037L529.999,45.133L530.105,45.228L530.212,45.321L530.32,45.412L530.429,45.502L530.538,45.59L530.648,45.676L530.759,45.761L530.871,45.845L530.984,45.927L531.097,46.007L531.212,46.085L531.327,46.162L531.442,46.237L531.559,46.311L531.676,46.383L531.794,46.454L531.912,46.523L532.031,46.59L532.151,46.656L532.271,46.72L532.392,46.783L532.514,46.844L532.636,46.903L532.759,46.961L532.882,47.018L533.006,47.072L533.13,47.126L533.255,47.177L533.381,47.227L533.507,47.275L533.633,47.322L533.76,47.367L533.887,47.411L534.015,47.453L534.143,47.494L534.271,47.532L534.4,47.57L534.529,47.605L534.659,47.64L534.789,47.672L534.919,47.703L535.05,47.732L535.181,47.76L535.312,47.786L535.443,47.811L535.575,47.834L535.706,47.856L535.838,47.875L535.971,47.894L536.103,47.91L536.236,47.925L536.368,47.939L536.501,47.951L536.634,47.961L536.767,47.97L536.9,47.977L537.033,47.983L537.167,47.987L537.3,47.989L537.433,47.99L537.566,47.989L537.7,47.987L537.833,47.983L537.966,47.977L538.099,47.97L538.232,47.961L538.365,47.951L538.498,47.939L538.631,47.925L538.763,47.91L538.895,47.894L539.028,47.875L539.16,47.855L539.291,47.834L539.423,47.811L539.554,47.786L539.686,47.76L539.816,47.732L539.947,47.703L540.077,47.672L540.207,47.64L540.337,47.605L540.466,47.57L540.595,47.532L540.723,47.494L540.851,47.453L540.979,47.411L541.106,47.367L541.233,47.322L541.359,47.275L541.485,47.227L541.611,47.177L541.736,47.126L541.86,47.072L541.984,47.018L542.107,46.961L542.23,46.903L542.352,46.844L542.474,46.783L542.595,46.72L542.715,46.656L542.835,46.59L542.954,46.523L543.072,46.454L543.19,46.383L543.307,46.311L543.424,46.237L543.539,46.162L543.654,46.085L543.769,46.007L543.882,45.926L543.995,45.845L544.107,45.761L544.218,45.676L544.328,45.59L544.438,45.502L544.546,45.412L544.654,45.321L544.761,45.228L544.867,45.133L544.972,45.037L545.076,44.939L545.18,44.84L545.282,44.739L545.383,44.636L545.482,44.533L545.58,44.429L545.676,44.324L545.771,44.218L545.864,44.111L545.955,44.003L546.045,43.894L546.133,43.785L546.22,43.675L546.305,43.563L546.388,43.451L546.47,43.339L546.55,43.225L546.628,43.111L546.705,42.996L546.781,42.881L546.855,42.764L546.927,42.647L546.997,42.529L547.066,42.411L547.134,42.292L547.199,42.172L547.264,42.052L547.326,41.931L547.387,41.809L547.447,41.687L547.505,41.564L547.561,41.441L547.616,41.317L547.669,41.192L547.72,41.068L547.77,40.942L547.819,40.816L547.866,40.69L547.911,40.563L547.954,40.436L547.996,40.308L548.037,40.18L548.076,40.051L548.113,39.923L548.149,39.793L548.183,39.664L548.215,39.534L548.246,39.404L548.276,39.273L548.304,39.142L548.33,39.011L548.354,38.88L548.377,38.748L548.399,38.616L548.419,38.484L548.437,38.352L548.454,38.22L548.469,38.087L548.482,37.955L548.494,37.822L548.504,37.689L548.513,37.556L548.52,37.423L548.526,37.289L548.53,37.156L548.532,37.023L548.533,36.89L548.532,36.756L548.53,36.623L548.526,36.49L548.52,36.357L548.513,36.224L548.504,36.091L548.494,35.958L548.482,35.825L548.469,35.692L548.454,35.56L548.437,35.427L548.419,35.295L548.399,35.163L548.377,35.031L548.354,34.9L548.33,34.768L548.304,34.637L548.276,34.506L548.246,34.376L548.215,34.246L548.183,34.116L548.149,33.986L548.113,33.857L548.076,33.728L548.037,33.6L547.996,33.472L547.954,33.344L547.911,33.217L547.866,33.09L547.819,32.963L547.77,32.837L547.72,32.712L547.669,32.587L547.616,32.463L547.561,32.339L547.505,32.216L547.447,32.093L547.387,31.971L547.326,31.849L547.264,31.728L547.199,31.608L547.134,31.488L547.066,31.369L546.997,31.25L546.927,31.133L546.855,31.015L546.781,30.899L546.705,30.783L546.628,30.668L546.55,30.554L546.47,30.441L546.388,30.328L546.305,30.216L546.22,30.105L546.133,29.995L546.045,29.885L545.955,29.777L545.864,29.669L545.771,29.562L545.676,29.456L545.58,29.351L545.482,29.246L545.383,29.143L545.282,29.041L545.18,28.94L545.076,28.84L544.972,28.742L544.867,28.646L544.761,28.552L544.654,28.459L544.546,28.367L544.438,28.278L544.328,28.189L544.218,28.103L544.107,28.018L543.995,27.935L543.882,27.853L543.769,27.773L543.654,27.694L543.539,27.617L543.424,27.542L543.307,27.468L543.19,27.396L543.072,27.326L542.954,27.257L542.835,27.189L542.715,27.123L542.595,27.059L542.474,26.997L542.352,26.935L542.23,26.876L542.107,26.818L541.984,26.762L541.86,26.707L541.736,26.654L541.611,26.602L541.485,26.552L541.359,26.504L541.233,26.457L541.106,26.412L540.979,26.368L540.851,26.326L540.723,26.286L540.595,26.247L540.466,26.21L540.337,26.174L540.207,26.14L540.077,26.107L539.947,26.076L539.816,26.047L539.686,26.019L539.554,25.993L539.423,25.968L539.291,25.945L539.16,25.924L539.028,25.904L538.895,25.886L538.763,25.869L538.631,25.854L538.498,25.841L538.365,25.829L538.232,25.818L538.099,25.81L537.966,25.802L537.833,25.797L537.7,25.793L537.566,25.791L537.433,25.79L537.3,25.791Z" style="fill:black;"/>
    </g>
    <g>
        <path d="M121.146,27.98C126.066,32.901 126.066,40.879 121.146,45.799C116.225,50.72 108.247,50.72 103.327,45.799C98.406,40.879 98.406,32.901 103.327,27.98C108.247,23.06 116.225,23.06 121.146,27.98" style="fill:black;fill-rule:nonzero;"/>
        <path d="M112.405,22.791L112.574,22.794L112.743,22.799L112.912,22.806L113.081,22.815L113.25,22.826L113.418,22.839L113.587,22.854L113.755,22.871L113.923,22.89L114.091,22.912L114.259,22.935L114.427,22.96L114.594,22.987L114.761,23.016L114.928,23.048L115.094,23.081L115.26,23.116L115.426,23.154L115.592,23.193L115.757,23.234L115.921,23.278L116.086,23.323L116.249,23.37L116.413,23.42L116.576,23.471L116.738,23.525L116.9,23.58L117.061,23.638L117.222,23.697L117.382,23.759L117.541,23.822L117.7,23.888L117.859,23.955L118.016,24.025L118.173,24.097L118.329,24.17L118.485,24.246L118.64,24.324L118.794,24.403L118.947,24.485L119.099,24.569L119.251,24.655L119.402,24.743L119.551,24.832L119.7,24.924L119.849,25.018L119.996,25.114L120.142,25.212L120.287,25.312L120.431,25.413L120.575,25.517L120.717,25.623L120.858,25.731L120.998,25.841L121.137,25.953L121.275,26.067L121.411,26.183L121.547,26.3L121.681,26.42L121.814,26.542L121.946,26.666L122.077,26.792L122.2,26.913L121.146,27.98L122.213,26.926L122.334,27.049L122.46,27.18L122.584,27.312L122.706,27.445L122.826,27.579L122.943,27.715L123.059,27.851L123.173,27.989L123.285,28.128L123.395,28.268L123.503,28.409L123.609,28.551L123.713,28.695L123.814,28.839L123.914,28.984L124.012,29.13L124.108,29.277L124.202,29.426L124.294,29.575L124.383,29.724L124.471,29.875L124.557,30.027L124.641,30.179L124.722,30.332L124.802,30.486L124.88,30.641L124.956,30.797L125.029,30.953L125.101,31.11L125.171,31.267L125.238,31.426L125.304,31.585L125.367,31.744L125.429,31.904L125.488,32.065L125.546,32.226L125.601,32.388L125.655,32.55L125.706,32.713L125.756,32.877L125.803,33.04L125.848,33.205L125.892,33.369L125.933,33.534L125.972,33.7L126.01,33.866L126.045,34.032L126.078,34.198L126.11,34.365L126.139,34.532L126.166,34.699L126.191,34.867L126.214,35.035L126.236,35.202L126.255,35.371L126.272,35.539L126.287,35.708L126.3,35.876L126.311,36.045L126.32,36.214L126.327,36.383L126.332,36.552L126.335,36.721L126.336,36.89L126.335,37.059L126.332,37.228L126.327,37.397L126.32,37.566L126.311,37.735L126.3,37.903L126.287,38.072L126.272,38.24L126.255,38.409L126.236,38.577L126.214,38.745L126.191,38.913L126.166,39.08L126.139,39.248L126.11,39.415L126.078,39.581L126.045,39.748L126.01,39.914L125.972,40.08L125.933,40.245L125.892,40.41L125.848,40.575L125.803,40.739L125.756,40.903L125.706,41.066L125.655,41.229L125.601,41.391L125.546,41.553L125.488,41.714L125.429,41.875L125.367,42.035L125.304,42.195L125.238,42.354L125.171,42.512L125.101,42.67L125.029,42.827L124.956,42.983L124.88,43.138L124.802,43.293L124.723,43.447L124.641,43.6L124.557,43.753L124.471,43.904L124.383,44.055L124.294,44.205L124.202,44.354L124.108,44.502L124.012,44.649L123.914,44.795L123.814,44.941L123.713,45.085L123.609,45.228L123.503,45.37L123.395,45.511L123.285,45.651L123.173,45.79L123.059,45.928L122.943,46.065L122.826,46.201L122.706,46.335L122.584,46.468L122.46,46.6L122.334,46.731L122.206,46.86L122.077,46.988L121.946,47.114L121.814,47.237L121.681,47.359L121.547,47.479L121.411,47.597L121.275,47.713L121.137,47.827L120.998,47.939L120.858,48.048L120.717,48.156L120.575,48.262L120.431,48.366L120.287,48.468L120.142,48.568L119.996,48.666L119.849,48.761L119.7,48.855L119.551,48.947L119.402,49.037L119.251,49.125L119.099,49.211L118.947,49.294L118.794,49.376L118.64,49.456L118.485,49.533L118.329,49.609L118.173,49.683L118.016,49.754L117.859,49.824L117.7,49.892L117.541,49.957L117.382,50.021L117.222,50.082L117.061,50.142L116.9,50.199L116.738,50.255L116.576,50.308L116.413,50.36L116.249,50.409L116.086,50.457L115.921,50.502L115.757,50.545L115.592,50.587L115.426,50.626L115.26,50.663L115.094,50.699L114.928,50.732L114.761,50.763L114.594,50.792L114.427,50.819L114.259,50.845L114.091,50.868L113.923,50.889L113.755,50.908L113.587,50.925L113.418,50.94L113.25,50.954L113.081,50.965L112.912,50.974L112.743,50.981L112.574,50.986L112.405,50.989L112.236,50.99L112.067,50.989L111.898,50.986L111.729,50.981L111.56,50.974L111.391,50.965L111.223,50.954L111.054,50.94L110.886,50.925L110.717,50.908L110.549,50.889L110.381,50.868L110.213,50.845L110.046,50.819L109.878,50.792L109.711,50.763L109.545,50.732L109.378,50.699L109.212,50.663L109.046,50.626L108.881,50.587L108.716,50.545L108.551,50.502L108.387,50.457L108.223,50.409L108.06,50.36L107.897,50.308L107.735,50.255L107.573,50.199L107.412,50.142L107.251,50.082L107.091,50.021L106.931,49.957L106.772,49.892L106.614,49.824L106.456,49.754L106.299,49.683L106.143,49.609L105.988,49.533L105.833,49.456L105.679,49.376L105.526,49.294L105.373,49.211L105.222,49.125L105.071,49.037L104.921,48.947L104.772,48.855L104.624,48.761L104.477,48.666L104.331,48.568L104.185,48.468L104.041,48.366L103.898,48.262L103.756,48.156L103.615,48.048L103.475,47.939L103.336,47.827L103.198,47.713L103.061,47.597L102.925,47.479L102.791,47.359L102.658,47.237L102.526,47.114L102.395,46.988L102.266,46.86L102.138,46.731L102.012,46.6L101.889,46.468L101.767,46.335L101.647,46.201L101.529,46.065L101.413,45.928L101.299,45.79L101.187,45.652L101.078,45.511L100.97,45.37L100.864,45.228L100.76,45.085L100.658,44.941L100.558,44.795L100.46,44.649L100.364,44.502L100.271,44.354L100.179,44.205L100.089,44.055L100.001,43.904L99.915,43.753L99.832,43.6L99.75,43.447L99.67,43.293L99.593,43.138L99.517,42.983L99.443,42.827L99.372,42.67L99.302,42.512L99.234,42.354L99.169,42.195L99.105,42.035L99.044,41.875L98.984,41.714L98.927,41.553L98.871,41.391L98.818,41.229L98.766,41.066L98.717,40.903L98.669,40.739L98.624,40.575L98.581,40.41L98.539,40.245L98.5,40.08L98.463,39.914L98.427,39.748L98.394,39.581L98.363,39.415L98.334,39.248L98.307,39.08L98.281,38.913L98.258,38.745L98.237,38.577L98.218,38.409L98.201,38.24L98.186,38.072L98.172,37.903L98.161,37.735L98.152,37.566L98.145,37.397L98.14,37.228L98.137,37.059L98.136,36.89L98.137,36.721L98.14,36.552L98.145,36.383L98.152,36.214L98.161,36.045L98.172,35.876L98.186,35.708L98.201,35.539L98.218,35.371L98.237,35.202L98.258,35.035L98.281,34.867L98.307,34.699L98.334,34.532L98.363,34.365L98.394,34.198L98.427,34.032L98.463,33.865L98.5,33.7L98.539,33.534L98.581,33.369L98.624,33.205L98.669,33.04L98.717,32.877L98.766,32.713L98.818,32.55L98.871,32.388L98.927,32.226L98.984,32.065L99.044,31.904L99.105,31.744L99.169,31.585L99.234,31.426L99.302,31.267L99.372,31.11L99.443,30.953L99.517,30.797L99.593,30.641L99.67,30.486L99.75,30.332L99.832,30.179L99.915,30.027L100.001,29.875L100.089,29.724L100.179,29.575L100.271,29.426L100.364,29.277L100.46,29.13L100.558,28.984L100.658,28.839L100.76,28.695L100.864,28.551L100.97,28.409L101.078,28.268L101.187,28.128L101.299,27.989L101.413,27.851L101.529,27.715L101.647,27.579L101.767,27.445L101.889,27.312L102.012,27.18L102.138,27.049L102.266,26.92L102.395,26.792L102.526,26.666L102.658,26.542L102.791,26.42L102.925,26.3L103.061,26.183L103.198,26.067L103.336,25.953L103.475,25.841L103.615,25.731L103.756,25.623L103.898,25.517L104.041,25.413L104.185,25.312L104.331,25.212L104.477,25.114L104.624,25.018L104.772,24.924L104.921,24.832L105.071,24.743L105.222,24.655L105.373,24.569L105.526,24.485L105.679,24.403L105.833,24.324L105.988,24.246L106.143,24.17L106.299,24.097L106.456,24.025L106.614,23.955L106.772,23.888L106.931,23.822L107.091,23.759L107.251,23.697L107.412,23.638L107.573,23.58L107.735,23.525L107.897,23.471L108.06,23.42L108.223,23.37L108.387,23.323L108.551,23.278L108.716,23.234L108.881,23.193L109.046,23.154L109.212,23.116L109.378,23.081L109.545,23.048L109.711,23.016L109.878,22.987L110.046,22.96L110.213,22.935L110.381,22.912L110.549,22.89L110.717,22.871L110.886,22.854L111.054,22.839L111.223,22.826L111.391,22.815L111.56,22.806L111.729,22.799L111.898,22.794L112.067,22.791L112.236,22.79L112.405,22.791ZM112.103,25.791L111.97,25.793L111.837,25.797L111.703,25.802L111.57,25.81L111.437,25.818L111.304,25.829L111.171,25.841L111.039,25.854L110.906,25.869L110.774,25.886L110.642,25.904L110.51,25.924L110.378,25.945L110.246,25.968L110.115,25.993L109.984,26.019L109.853,26.047L109.722,26.076L109.592,26.107L109.462,26.14L109.333,26.174L109.203,26.21L109.075,26.247L108.946,26.286L108.818,26.326L108.69,26.368L108.563,26.412L108.436,26.457L108.31,26.504L108.184,26.552L108.059,26.602L107.934,26.654L107.809,26.707L107.685,26.762L107.562,26.818L107.439,26.876L107.317,26.935L107.195,26.997L107.074,27.059L106.954,27.123L106.834,27.189L106.715,27.257L106.597,27.326L106.479,27.396L106.362,27.468L106.245,27.542L106.13,27.617L106.015,27.694L105.901,27.773L105.787,27.853L105.674,27.935L105.563,28.018L105.451,28.103L105.341,28.19L105.232,28.278L105.123,28.367L105.015,28.459L104.908,28.552L104.802,28.646L104.697,28.743L104.593,28.84L104.49,28.94L104.387,29.041L104.286,29.143L104.187,29.247L104.089,29.351L103.993,29.456L103.898,29.562L103.805,29.669L103.714,29.777L103.624,29.885L103.536,29.995L103.449,30.105L103.365,30.216L103.281,30.328L103.2,30.441L103.119,30.554L103.041,30.668L102.964,30.783L102.889,30.899L102.815,31.015L102.743,31.132L102.672,31.25L102.603,31.369L102.536,31.488L102.47,31.608L102.406,31.728L102.343,31.849L102.282,31.971L102.223,32.093L102.165,32.216L102.108,32.339L102.054,32.463L102,32.587L101.949,32.712L101.899,32.837L101.851,32.963L101.804,33.09L101.759,33.217L101.715,33.344L101.673,33.471L101.632,33.6L101.594,33.728L101.556,33.857L101.521,33.986L101.486,34.116L101.454,34.246L101.423,34.376L101.394,34.506L101.366,34.637L101.34,34.768L101.315,34.9L101.292,35.031L101.27,35.163L101.251,35.295L101.232,35.427L101.216,35.56L101.201,35.692L101.187,35.825L101.175,35.958L101.165,36.091L101.156,36.224L101.149,36.357L101.143,36.49L101.139,36.623L101.137,36.757L101.136,36.89L101.137,37.023L101.139,37.156L101.143,37.29L101.149,37.423L101.156,37.556L101.165,37.689L101.175,37.822L101.187,37.955L101.201,38.087L101.216,38.22L101.232,38.352L101.251,38.484L101.27,38.616L101.292,38.748L101.315,38.88L101.34,39.011L101.366,39.142L101.394,39.273L101.423,39.404L101.454,39.534L101.486,39.664L101.521,39.793L101.556,39.923L101.594,40.051L101.632,40.18L101.673,40.308L101.715,40.436L101.759,40.563L101.804,40.69L101.851,40.816L101.899,40.942L101.949,41.067L102,41.192L102.054,41.317L102.108,41.441L102.165,41.564L102.223,41.687L102.282,41.809L102.343,41.93L102.406,42.052L102.47,42.172L102.536,42.292L102.603,42.411L102.672,42.529L102.743,42.647L102.815,42.764L102.889,42.881L102.964,42.996L103.041,43.111L103.119,43.225L103.2,43.339L103.281,43.451L103.365,43.563L103.449,43.675L103.536,43.785L103.624,43.894L103.714,44.003L103.805,44.111L103.898,44.218L103.993,44.324L104.089,44.429L104.187,44.533L104.286,44.636L104.387,44.739L104.49,44.84L104.593,44.939L104.697,45.037L104.802,45.133L104.908,45.228L105.015,45.321L105.123,45.412L105.232,45.502L105.341,45.59L105.452,45.677L105.563,45.761L105.674,45.845L105.787,45.926L105.901,46.007L106.015,46.085L106.13,46.162L106.245,46.237L106.362,46.311L106.479,46.383L106.597,46.454L106.715,46.523L106.834,46.59L106.954,46.656L107.074,46.72L107.195,46.783L107.317,46.844L107.439,46.903L107.562,46.961L107.685,47.018L107.809,47.072L107.934,47.126L108.059,47.177L108.184,47.227L108.31,47.275L108.436,47.322L108.563,47.367L108.69,47.411L108.818,47.453L108.946,47.494L109.075,47.532L109.203,47.57L109.333,47.605L109.462,47.64L109.592,47.672L109.722,47.703L109.853,47.732L109.984,47.76L110.115,47.786L110.246,47.811L110.378,47.834L110.51,47.856L110.642,47.875L110.774,47.894L110.906,47.91L111.039,47.925L111.171,47.939L111.304,47.951L111.437,47.961L111.57,47.97L111.703,47.977L111.837,47.983L111.97,47.987L112.103,47.989L112.236,47.99L112.37,47.989L112.503,47.987L112.636,47.983L112.769,47.977L112.902,47.97L113.035,47.961L113.168,47.951L113.301,47.939L113.434,47.925L113.566,47.91L113.699,47.894L113.831,47.875L113.963,47.855L114.095,47.834L114.226,47.811L114.358,47.786L114.489,47.76L114.62,47.732L114.75,47.703L114.88,47.672L115.01,47.64L115.14,47.605L115.269,47.57L115.398,47.532L115.526,47.494L115.655,47.453L115.782,47.411L115.909,47.367L116.036,47.322L116.163,47.275L116.289,47.227L116.414,47.177L116.539,47.126L116.663,47.072L116.787,47.018L116.91,46.961L117.033,46.903L117.155,46.844L117.277,46.783L117.398,46.72L117.518,46.656L117.638,46.59L117.757,46.523L117.876,46.454L117.994,46.383L118.111,46.311L118.227,46.237L118.343,46.162L118.458,46.085L118.572,46.007L118.685,45.926L118.798,45.845L118.91,45.761L119.021,45.677L119.131,45.59L119.241,45.502L119.349,45.412L119.457,45.321L119.564,45.228L119.67,45.133L119.775,45.037L119.879,44.939L119.983,44.84L120.085,44.739L120.186,44.636L120.286,44.533L120.383,44.429L120.48,44.324L120.574,44.218L120.667,44.111L120.759,44.003L120.848,43.894L120.936,43.785L121.023,43.674L121.108,43.563L121.191,43.451L121.273,43.339L121.353,43.225L121.432,43.111L121.509,42.996L121.584,42.881L121.658,42.764L121.73,42.647L121.8,42.529L121.869,42.411L121.937,42.292L122.003,42.172L122.067,42.052L122.129,41.93L122.191,41.809L122.25,41.687L122.308,41.564L122.364,41.441L122.419,41.317L122.472,41.192L122.524,41.067L122.574,40.942L122.622,40.816L122.669,40.69L122.714,40.563L122.758,40.436L122.8,40.308L122.84,40.18L122.879,40.051L122.916,39.923L122.952,39.793L122.986,39.664L123.019,39.534L123.05,39.404L123.079,39.273L123.107,39.142L123.133,39.011L123.158,38.88L123.181,38.748L123.202,38.616L123.222,38.484L123.24,38.352L123.257,38.22L123.272,38.087L123.285,37.955L123.297,37.822L123.308,37.689L123.316,37.556L123.324,37.423L123.329,37.29L123.333,37.156L123.335,37.023L123.336,36.89L123.335,36.756L123.333,36.623L123.329,36.49L123.324,36.357L123.316,36.224L123.308,36.091L123.297,35.958L123.285,35.825L123.272,35.692L123.257,35.56L123.24,35.427L123.222,35.295L123.202,35.163L123.181,35.031L123.158,34.9L123.133,34.768L123.107,34.637L123.079,34.506L123.05,34.376L123.019,34.246L122.986,34.116L122.952,33.986L122.916,33.857L122.879,33.728L122.84,33.6L122.8,33.471L122.758,33.344L122.714,33.217L122.669,33.09L122.622,32.963L122.574,32.837L122.524,32.712L122.472,32.587L122.419,32.463L122.364,32.339L122.308,32.216L122.25,32.093L122.191,31.971L122.129,31.849L122.067,31.728L122.003,31.608L121.937,31.488L121.869,31.369L121.8,31.25L121.73,31.132L121.658,31.015L121.584,30.899L121.509,30.783L121.432,30.668L121.353,30.554L121.273,30.441L121.191,30.328L121.108,30.216L121.023,30.105L120.936,29.995L120.848,29.885L120.759,29.777L120.667,29.669L120.574,29.562L120.48,29.456L120.383,29.351L120.286,29.247L120.186,29.143L120.085,29.041L119.983,28.94L119.879,28.84L119.775,28.743L119.67,28.646L119.564,28.552L119.457,28.459L119.349,28.367L119.241,28.278L119.131,28.19L119.021,28.103L118.91,28.018L118.798,27.935L118.685,27.853L118.572,27.773L118.458,27.694L118.343,27.617L118.227,27.542L118.111,27.468L117.994,27.396L117.876,27.326L117.757,27.257L117.638,27.189L117.518,27.123L117.398,27.059L117.277,26.997L117.155,26.935L117.033,26.876L116.91,26.818L116.787,26.762L116.663,26.707L116.539,26.654L116.414,26.602L116.289,26.552L116.163,26.504L116.036,26.457L115.909,26.412L115.782,26.368L115.655,26.326L115.526,26.286L115.398,26.247L115.269,26.21L115.14,26.174L115.01,26.14L114.88,26.107L114.75,26.076L114.62,26.047L114.489,26.019L114.358,25.993L114.226,25.968L114.095,25.945L113.963,25.924L113.831,25.904L113.699,25.886L113.566,25.869L113.434,25.854L113.301,25.841L113.168,25.829L113.035,25.818L112.902,25.81L112.769,25.802L112.636,25.797L112.503,25.793L112.37,25.791L112.236,25.79L112.103,25.791Z" style="fill:black;"/>
    </g>
</svg>
