<?xml version="1.0" standalone="no"?>
<!DOCTYPE svg PUBLIC "-//W3C//DTD SVG 1.1//EN" "http://www.w3.org/Graphics/SVG/1.1/DTD/svg11.dtd">
<svg width="100%" height="100%" viewBox="0 0 288 270" version="1.1" xmlns="http://www.w3.org/2000/svg" xmlns:xlink="http://www.w3.org/1999/xlink" xml:space="preserve" style="fill-rule:evenodd;clip-rule:evenodd;stroke-linecap:round;stroke-linejoin:round;stroke-miterlimit:10;">
    <rect x="-44" y="-203" width="559" height="783" style="fill:white;fill-rule:nonzero;"/>
    <rect x="25.215" y="121" width="5.76" height="108" style="fill:rgb(74,127,194);fill-rule:nonzero;stroke-width:1px;stroke:black;"/>
    <rect x="47.715" y="13" width="5.76" height="216" style="fill:rgb(229,230,186);fill-rule:nonzero;stroke-width:1px;stroke:black;"/>
    <rect x="70.215" y="13" width="5.76" height="108" style="fill:rgb(177,200,49);fill-rule:nonzero;stroke-width:1px;stroke:black;"/>
    <rect x="92.715" y="13" width="5.76" height="72" style="fill:rgb(166,140,185);fill-rule:nonzero;stroke-width:1px;stroke:black;"/>
    <rect x="92.715" y="157" width="5.76" height="72" style="fill:rgb(166,140,185);fill-rule:nonzero;stroke-width:1px;stroke:black;"/>
    <rect x="162.465" y="13" width="5.76" height="216" style="fill:white;fill-rule:nonzero;stroke-width:1px;stroke:black;"/>
    <path d="M53.682,9.818C55.439,11.575 55.439,14.425 53.682,16.182C51.925,17.939 49.075,17.939 47.318,16.182C45.561,14.425 45.561,11.575 47.318,9.818C49.075,8.061 51.925,8.061 53.682,9.818" style="fill:black;fill-rule:nonzero;stroke-width:1px;stroke:black;"/>
    <path d="M76.182,9.818C77.939,11.575 77.939,14.425 76.182,16.182C74.425,17.939 71.575,17.939 69.818,16.182C68.061,14.425 68.061,11.575 69.818,9.818C71.575,8.061 74.425,8.061 76.182,9.818" style="fill:black;fill-rule:nonzero;stroke-width:1px;stroke:black;"/>
    <path d="M98.682,9.818C100.439,11.575 100.439,14.425 98.682,16.182C96.925,17.939 94.075,17.939 92.318,16.182C90.561,14.425 90.561,11.575 92.318,9.818C94.075,8.061 96.925,8.061 98.682,9.818" style="fill:black;fill-rule:nonzero;stroke-width:1px;stroke:black;"/>
    <path d="M31.182,117.818C32.939,119.575 32.939,122.425 31.182,124.182C29.425,125.939 26.575,125.939 24.818,124.182C23.061,122.425 23.061,119.575 24.818,117.818C26.575,116.061 29.425,116.061 31.182,117.818" style="fill:black;fill-rule:nonzero;stroke-width:1px;stroke:black;"/>
    <path d="M31.182,225.818C32.939,227.575 32.939,230.425 31.182,232.182C29.425,233.939 26.575,233.939 24.818,232.182C23.061,230.425 23.061,227.575 24.818,225.818C26.575,224.061 29.425,224.061 31.182,225.818" style="fill:black;fill-rule:nonzero;stroke-width:1px;stroke:black;"/>
    <path d="M53.682,225.818C55.439,227.575 55.439,230.425 53.682,232.182C51.925,233.939 49.075,233.939 47.318,232.182C45.561,230.425 45.561,227.575 47.318,225.818C49.075,224.061 51.925,224.061 53.682,225.818" style="fill:black;fill-rule:nonzero;stroke-width:1px;stroke:black;"/>
    <path d="M98.682,225.818C100.439,227.575 100.439,230.425 98.682,232.182C96.925,233.939 94.075,233.939 92.318,232.182C90.561,230.425 90.561,227.575 92.318,225.818C94.075,224.061 96.925,224.061 98.682,225.818" style="fill:black;fill-rule:nonzero;stroke-width:1px;stroke:black;"/>
    <path d="M76.182,117.818C77.939,119.575 77.939,122.425 76.182,124.182C74.425,125.939 71.575,125.939 69.818,124.182C68.061,122.425 68.061,119.575 69.818,117.818C71.575,116.061 74.425,116.061 76.182,117.818" style="fill:black;fill-rule:nonzero;stroke-width:1px;stroke:black;"/>
    <path d="M98.682,81.818C100.439,83.575 100.439,86.425 98.682,88.182C96.925,89.939 94.075,89.939 92.318,88.182C90.561,86.425 90.561,83.575 92.318,81.818C94.075,80.061 96.925,80.061 98.682,81.818" style="fill:black;fill-rule:nonzero;stroke-width:1px;stroke:black;"/>
    <path d="M168.432,9.818C170.189,11.575 170.189,14.425 168.432,16.182C166.675,17.939 163.825,17.939 162.068,16.182C160.311,14.425 160.311,11.575 162.068,9.818C163.825,8.061 166.675,8.061 168.432,9.818" style="fill:black;fill-rule:nonzero;stroke-width:1px;stroke:black;"/>
    <path d="M168.432,81.818C170.189,83.575 170.189,86.425 168.432,88.182C166.675,89.939 163.825,89.939 162.068,88.182C160.311,86.425 160.311,83.575 162.068,81.818C163.825,80.061 166.675,80.061 168.432,81.818" style="fill:black;fill-rule:nonzero;stroke-width:1px;stroke:black;"/>
    <path d="M168.432,153.818C170.189,155.575 170.189,158.425 168.432,160.182C166.675,161.939 163.825,161.939 162.068,160.182C160.311,158.425 160.311,155.575 162.068,153.818C163.825,152.061 166.675,152.061 168.432,153.818" style="fill:black;fill-rule:nonzero;stroke-width:1px;stroke:black;"/>
    <path d="M168.432,225.818C170.189,227.575 170.189,230.425 168.432,232.182C166.675,233.939 163.825,233.939 162.068,232.182C160.311,230.425 160.311,227.575 162.068,225.818C163.825,224.061 166.675,224.061 168.432,225.818" style="fill:black;fill-rule:nonzero;stroke-width:1px;stroke:black;"/>
    <path d="M168.432,117.818C170.189,119.575 170.189,122.425 168.432,124.182C166.675,125.939 163.825,125.939 162.068,124.182C160.311,122.425 160.311,119.575 162.068,117.818C163.825,116.061 166.675,116.061 168.432,117.818" style="fill:black;fill-rule:nonzero;stroke-width:1px;stroke:black;"/>
    <path d="M30.21,261.293L29.17,265.848C29.026,266.458 28.955,267.104 28.955,267.677C28.955,268.467 29.277,268.933 29.815,268.933C30.64,268.933 32.111,268 35.052,265.561L34.801,264.808C33.94,265.525 32.9,266.494 32.111,266.494C31.788,266.494 31.573,266.171 31.573,265.669C31.573,265.49 31.573,265.382 31.609,265.274L34.908,251.681L34.55,251.358L33.366,252.004C31.896,251.466 31.286,251.322 30.318,251.322C29.313,251.322 28.596,251.502 27.627,251.968C25.404,253.08 24.22,254.156 23.323,255.913C21.745,259.105 20.633,263.409 20.633,266.207C20.633,267.785 21.171,269.005 21.853,269.005C23.18,269.005 26.049,267.139 30.21,261.293ZM31.932,253.761C31.142,257.671 30.461,259.536 29.241,261.401C27.197,264.414 25.009,266.494 23.861,266.494C23.431,266.494 23.216,266.028 23.216,265.059C23.216,262.764 24.22,258.567 25.475,255.698C26.336,253.725 27.161,253.08 28.883,253.08C29.708,253.08 30.353,253.223 31.932,253.761Z" style="fill:black;fill-rule:nonzero;"/>
    <g>
        <clipPath id="_clip1">
            <rect x="42.51" y="242.5" width="15" height="27"/>
        </clipPath>
        <g clip-path="url(#_clip1)">
            <path d="M50.319,243.514L49.888,243.12C48.023,244.052 46.732,244.375 44.15,244.626L44.006,245.379L45.728,245.379C46.589,245.379 46.947,245.63 46.947,246.24C46.947,246.491 46.911,246.886 46.875,247.101L43.253,266.863C43.217,266.971 43.217,267.115 43.217,267.222C43.217,268.621 44.939,269.805 46.911,269.805C48.238,269.805 50.068,269.123 51.61,268.011C55.053,265.572 57.42,260.659 57.42,255.924C57.42,254.561 57.098,253.162 56.667,252.624C56.416,252.302 55.95,252.122 55.412,252.122C54.551,252.122 53.475,252.409 52.471,252.911C50.641,253.88 49.458,254.956 47.234,257.789L50.319,243.514ZM53.439,254.202C54.372,254.202 54.838,255.027 54.838,256.785C54.838,259.08 54.085,262.165 53.009,264.496C51.825,266.971 50.39,268.119 48.454,268.119C46.804,268.119 45.907,267.294 45.907,265.787C45.907,264.568 46.445,259.511 49.35,256.462C50.534,255.243 52.399,254.202 53.439,254.202Z" style="fill:black;fill-rule:nonzero;"/>
        </g>
    </g>
    <g>
        <clipPath id="_clip2">
            <rect x="64.5" y="251" width="14" height="19"/>
        </clipPath>
        <g clip-path="url(#_clip2)">
            <path d="M75.756,256.774L76.581,256.774C76.868,254.443 77.119,253.116 77.442,252.183C76.581,251.645 75.326,251.322 73.999,251.322C72.385,251.286 69.767,252.004 67.722,254.263C65.785,255.985 64.387,259.966 64.387,263.732C64.387,267.175 65.893,269.005 68.762,269.005C70.699,269.005 72.421,268.287 74.394,266.673L76.187,265.203L75.9,264.485L75.362,264.844C72.78,266.566 71.417,267.175 70.161,267.175C68.153,267.175 67.113,265.741 67.113,262.907C67.113,259.034 68.368,255.303 70.125,253.94C70.879,253.367 71.739,253.08 72.851,253.08C74.465,253.08 75.756,253.761 75.756,254.622L75.756,256.774Z" style="fill:black;fill-rule:nonzero;"/>
        </g>
    </g>
    <g>
        <clipPath id="_clip3">
            <rect x="87" y="242.5" width="17" height="27"/>
        </clipPath>
        <g clip-path="url(#_clip3)">
            <path d="M103.814,243.514L103.383,243.12C101.518,244.052 100.227,244.375 97.645,244.626L97.501,245.379L99.223,245.379C100.084,245.379 100.442,245.63 100.442,246.24C100.442,246.527 100.406,246.85 100.37,247.101L99.366,252.624C98.29,252.302 97.322,252.122 96.425,252.122C93.95,252.122 90.579,254.705 88.929,257.825C87.817,259.905 87.1,263.313 87.1,266.325C87.1,268.657 87.638,269.805 88.678,269.805C89.646,269.805 90.973,269.195 92.193,268.226C94.13,266.648 95.313,265.249 97.716,261.627L96.891,264.891C96.497,266.469 96.318,267.617 96.318,268.549C96.318,269.302 96.64,269.733 97.25,269.733C97.86,269.733 98.721,269.302 99.94,268.406L102.845,266.254L102.487,265.572L100.908,266.684C100.406,267.043 99.832,267.294 99.51,267.294C99.223,267.294 99.008,266.971 99.008,266.469C99.008,266.182 99.043,265.859 99.294,264.819L103.814,243.514ZM90.579,267.294C90.005,267.294 89.682,266.792 89.682,265.895C89.682,261.376 91.332,255.781 93.089,254.418C93.556,254.059 94.237,253.88 95.206,253.88C96.784,253.88 97.824,254.095 99.008,254.705L98.577,256.821C97.25,263.277 92.193,267.294 90.579,267.294Z" style="fill:black;fill-rule:nonzero;"/>
        </g>
    </g>
    <g>
        <path d="M8.923,216.36C3.364,216.36 0.53,220.771 0.53,229.451C0.53,233.648 1.283,237.27 2.539,239.028C3.794,240.785 5.803,241.789 8.026,241.789C13.442,241.789 16.168,237.127 16.168,227.945C16.168,220.09 13.837,216.36 8.923,216.36ZM8.277,217.615C11.756,217.615 13.155,221.13 13.155,229.738C13.155,237.378 11.792,240.534 8.493,240.534C5.013,240.534 3.543,236.911 3.543,228.16C3.543,220.592 4.87,217.615 8.277,217.615Z" style="fill:black;fill-rule:nonzero;"/>
    </g>
    <path d="M14.882,170.184L14.882,169.108L13.017,169C11.045,168.892 10.686,168.498 10.686,166.633L10.686,144.969L2.042,148.628L2.293,150.421L7.673,148.054L7.673,166.633C7.673,168.498 7.279,168.892 5.342,169L3.333,169.108L3.333,170.184C8.857,170.076 8.857,170.076 9.251,170.076C10.363,170.076 14.308,170.184 14.882,170.184Z" style="fill:black;fill-rule:nonzero;"/>
    <g>
        <clipPath id="_clip4">
            <rect x="0.5" y="72.5" width="17" height="26"/>
        </clipPath>
        <g clip-path="url(#_clip4)">
            <path d="M0.064,97.251L0.064,98.184C6.771,98.184 6.771,98.076 8.062,98.076C9.353,98.076 9.353,98.184 16.276,98.184L16.276,95.135C12.151,95.314 10.501,95.171 3.866,95.314L10.394,88.392C13.873,84.698 14.949,82.725 14.949,80.035C14.949,75.91 12.151,73.364 7.596,73.364C5.013,73.364 3.256,74.081 1.499,75.874L0.889,80.752L1.929,80.752L2.395,79.102C2.969,77.022 4.26,76.126 6.663,76.126C9.748,76.126 11.721,78.062 11.721,81.111C11.721,83.801 10.214,86.455 6.161,90.759L0.064,97.251Z" style="fill:black;fill-rule:nonzero;"/>
        </g>
    </g>
    <g>
        <clipPath id="_clip5">
            <rect x="0.5" y="0" width="17" height="26"/>
        </clipPath>
        <g clip-path="url(#_clip5)">
            <path d="M16.06,17.038C16.06,12.698 12.223,11.945 10.537,11.658C13.406,9.434 14.482,7.784 14.482,5.668C14.482,2.476 11.828,0.36 7.847,0.36C5.408,0.36 3.794,1.041 2.072,2.763L1.032,7.21L2.144,7.21L2.79,5.202C3.184,3.982 5.444,2.763 7.309,2.763C9.64,2.763 11.541,4.664 11.541,6.923C11.541,9.613 9.425,11.873 6.879,11.873C6.592,11.873 6.197,11.837 5.731,11.801L5.193,11.765L4.762,13.666L5.013,13.882C6.376,13.272 7.058,13.092 8.026,13.092C11.003,13.092 12.725,14.993 12.725,18.257C12.725,21.916 10.537,24.319 7.201,24.319C5.551,24.319 4.081,23.781 3.005,22.777C2.144,21.987 1.678,21.163 0.996,19.226L0.028,19.584C0.781,21.772 1.068,23.063 1.283,24.857C3.184,25.502 4.762,25.789 6.089,25.789C10.501,25.789 16.06,21.952 16.06,17.038Z" style="fill:black;fill-rule:nonzero;"/>
        </g>
    </g>
    <g>
        <clipPath id="_clip6">
            <rect x="186.75" y="177.5" width="101" height="33"/>
        </clipPath>
        <g clip-path="url(#_clip6)">
            <g>
                <path d="M196.256,209.987C193.996,209.485 193.279,207.906 193.279,205.324L193.279,199.119C193.279,196.286 192.956,194.636 190.373,193.954L190.373,193.882C192.848,193.237 193.279,191.695 193.279,189.04L193.279,182.369C193.279,179.787 193.924,178.352 196.256,177.671C192.669,177.671 190.696,178.496 190.696,182.979L190.696,189.65C190.696,191.982 190.194,193.237 187.97,193.918C190.337,194.6 190.696,195.712 190.696,198.294L190.696,204.32C190.696,209.054 192.203,209.987 196.256,209.987Z" style="fill:black;fill-rule:nonzero;"/>
                <path d="M207.518,196.393L206.478,200.948C206.334,201.558 206.262,202.204 206.262,202.777C206.262,203.567 206.585,204.033 207.123,204.033C207.948,204.033 209.419,203.1 212.36,200.661L212.109,199.908C211.248,200.625 210.208,201.594 209.419,201.594C209.096,201.594 208.881,201.271 208.881,200.769C208.881,200.59 208.881,200.482 208.916,200.374L212.216,186.781L211.858,186.458L210.674,187.104C209.203,186.566 208.594,186.422 207.625,186.422C206.621,186.422 205.904,186.602 204.935,187.068C202.712,188.18 201.528,189.256 200.631,191.013C199.053,194.205 197.941,198.509 197.941,201.307C197.941,202.885 198.479,204.105 199.161,204.105C200.488,204.105 203.357,202.239 207.518,196.393ZM209.239,188.861C208.45,192.771 207.769,194.636 206.549,196.501C204.505,199.514 202.317,201.594 201.169,201.594C200.739,201.594 200.524,201.128 200.524,200.159C200.524,197.864 201.528,193.667 202.783,190.798C203.644,188.825 204.469,188.18 206.191,188.18C207.016,188.18 207.661,188.323 209.239,188.861Z" style="fill:black;fill-rule:nonzero;"/>
                <path d="M221.004,199.298C220.035,199.621 219.39,199.836 217.489,200.374C217.238,203.1 216.341,205.432 214.261,208.875L214.763,209.269L216.233,208.588C219.139,204.822 220.501,202.562 221.506,199.801L221.004,199.298Z" style="fill:black;fill-rule:nonzero;"/>
                <path d="M236.996,177.814L236.566,177.42C234.701,178.352 233.41,178.675 230.827,178.926L230.684,179.679L232.405,179.679C233.266,179.679 233.625,179.93 233.625,180.54C233.625,180.791 233.589,181.186 233.553,181.401L229.931,201.163C229.895,201.271 229.895,201.415 229.895,201.522C229.895,202.921 231.616,204.105 233.589,204.105C234.916,204.105 236.745,203.423 238.288,202.311C241.731,199.872 244.098,194.959 244.098,190.224C244.098,188.861 243.775,187.462 243.345,186.924C243.094,186.602 242.627,186.422 242.089,186.422C241.229,186.422 240.153,186.709 239.148,187.211C237.319,188.18 236.135,189.256 233.912,192.089L236.996,177.814ZM240.117,188.502C241.049,188.502 241.516,189.327 241.516,191.085C241.516,193.38 240.762,196.465 239.686,198.796C238.503,201.271 237.068,202.419 235.131,202.419C233.481,202.419 232.585,201.594 232.585,200.087C232.585,198.868 233.123,193.811 236.028,190.762C237.212,189.543 239.077,188.502 240.117,188.502Z" style="fill:black;fill-rule:nonzero;"/>
                <path d="M252.455,199.298C251.486,199.621 250.841,199.836 248.94,200.374C248.689,203.1 247.792,205.432 245.712,208.875L246.214,209.269L247.685,208.588C250.59,204.822 251.953,202.562 252.957,199.801L252.455,199.298Z" style="fill:black;fill-rule:nonzero;"/>
                <path d="M277.373,177.814L276.943,177.42C275.078,178.352 273.787,178.675 271.204,178.926L271.061,179.679L272.782,179.679C273.643,179.679 274.002,179.93 274.002,180.54C274.002,180.827 273.966,181.15 273.93,181.401L272.926,186.924C271.85,186.602 270.882,186.422 269.985,186.422C267.51,186.422 264.139,189.005 262.489,192.125C261.377,194.205 260.659,197.613 260.659,200.625C260.659,202.957 261.197,204.105 262.238,204.105C263.206,204.105 264.533,203.495 265.753,202.526C267.689,200.948 268.873,199.549 271.276,195.927L270.451,199.191C270.057,200.769 269.877,201.917 269.877,202.849C269.877,203.602 270.2,204.033 270.81,204.033C271.42,204.033 272.28,203.602 273.5,202.706L276.405,200.554L276.046,199.872L274.468,200.984C273.966,201.343 273.392,201.594 273.069,201.594C272.782,201.594 272.567,201.271 272.567,200.769C272.567,200.482 272.603,200.159 272.854,199.119L277.373,177.814ZM264.139,201.594C263.565,201.594 263.242,201.092 263.242,200.195C263.242,195.676 264.892,190.081 266.649,188.718C267.115,188.359 267.797,188.18 268.765,188.18C270.344,188.18 271.384,188.395 272.567,189.005L272.137,191.121C270.81,197.577 265.753,201.594 264.139,201.594Z" style="fill:black;fill-rule:nonzero;"/>
                <path d="M287.811,193.918C285.587,193.237 285.085,191.982 285.085,189.65L285.085,182.979C285.085,178.496 283.112,177.671 279.525,177.671C281.857,178.352 282.502,179.787 282.502,182.369L282.502,189.04C282.502,191.695 282.933,193.237 285.408,193.882L285.408,193.954C282.825,194.636 282.502,196.286 282.502,199.119L282.502,205.324C282.502,207.906 281.785,209.485 279.525,209.987C283.578,209.987 285.085,209.054 285.085,204.32L285.085,198.294C285.085,195.712 285.443,194.6 287.811,193.918Z" style="fill:black;fill-rule:nonzero;"/>
            </g>
        </g>
    </g>
    <g>
        <clipPath id="_clip7">
            <rect x="185.75" y="123.5" width="68" height="33"/>
        </clipPath>
        <g clip-path="url(#_clip7)">
            <g>
                <path d="M195.256,155.987C192.996,155.485 192.279,153.906 192.279,151.324L192.279,145.119C192.279,142.286 191.956,140.636 189.373,139.954L189.373,139.882C191.848,139.237 192.279,137.695 192.279,135.04L192.279,128.369C192.279,125.787 192.924,124.352 195.256,123.671C191.669,123.671 189.696,124.496 189.696,128.979L189.696,135.65C189.696,137.982 189.194,139.237 186.97,139.918C189.337,140.6 189.696,141.712 189.696,144.294L189.696,150.32C189.696,155.054 191.203,155.987 195.256,155.987Z" style="fill:black;fill-rule:nonzero;"/>
                <path d="M206.518,142.393L205.478,146.948C205.334,147.558 205.262,148.204 205.262,148.777C205.262,149.567 205.585,150.033 206.123,150.033C206.948,150.033 208.419,149.1 211.36,146.661L211.109,145.908C210.248,146.625 209.208,147.594 208.419,147.594C208.096,147.594 207.881,147.271 207.881,146.769C207.881,146.59 207.881,146.482 207.916,146.374L211.216,132.781L210.858,132.458L209.674,133.104C208.203,132.566 207.594,132.422 206.625,132.422C205.621,132.422 204.904,132.602 203.935,133.068C201.712,134.18 200.528,135.256 199.631,137.013C198.053,140.205 196.941,144.509 196.941,147.307C196.941,148.885 197.479,150.105 198.161,150.105C199.488,150.105 202.357,148.239 206.518,142.393ZM208.239,134.861C207.45,138.771 206.769,140.636 205.549,142.501C203.505,145.514 201.317,147.594 200.169,147.594C199.739,147.594 199.524,147.128 199.524,146.159C199.524,143.864 200.528,139.667 201.783,136.798C202.644,134.825 203.469,134.18 205.191,134.18C206.016,134.18 206.661,134.323 208.239,134.861Z" style="fill:black;fill-rule:nonzero;"/>
                <path d="M220.004,145.298C219.035,145.621 218.39,145.836 216.489,146.374C216.238,149.1 215.341,151.432 213.261,154.875L213.763,155.269L215.233,154.588C218.139,150.822 219.501,148.562 220.506,145.801L220.004,145.298Z" style="fill:black;fill-rule:nonzero;"/>
                <path d="M235.996,123.814L235.566,123.42C233.701,124.352 232.41,124.675 229.827,124.926L229.684,125.679L231.405,125.679C232.266,125.679 232.625,125.93 232.625,126.54C232.625,126.791 232.589,127.186 232.553,127.401L228.931,147.163C228.895,147.271 228.895,147.415 228.895,147.522C228.895,148.921 230.616,150.105 232.589,150.105C233.916,150.105 235.745,149.423 237.288,148.311C240.731,145.872 243.098,140.959 243.098,136.224C243.098,134.861 242.775,133.462 242.345,132.924C242.094,132.602 241.627,132.422 241.089,132.422C240.229,132.422 239.153,132.709 238.148,133.211C236.319,134.18 235.135,135.256 232.912,138.089L235.996,123.814ZM239.117,134.502C240.049,134.502 240.516,135.327 240.516,137.085C240.516,139.38 239.762,142.465 238.686,144.796C237.503,147.271 236.068,148.419 234.131,148.419C232.481,148.419 231.585,147.594 231.585,146.087C231.585,144.868 232.123,139.811 235.028,136.762C236.212,135.543 238.077,134.502 239.117,134.502Z" style="fill:black;fill-rule:nonzero;"/>
                <path d="M254.001,139.918C251.778,139.237 251.276,137.982 251.276,135.65L251.276,128.979C251.276,124.496 249.303,123.671 245.716,123.671C248.048,124.352 248.693,125.787 248.693,128.369L248.693,135.04C248.693,137.695 249.124,139.237 251.598,139.882L251.598,139.954C249.016,140.636 248.693,142.286 248.693,145.119L248.693,151.324C248.693,153.906 247.976,155.485 245.716,155.987C249.769,155.987 251.276,155.054 251.276,150.32L251.276,144.294C251.276,141.712 251.634,140.6 254.001,139.918Z" style="fill:black;fill-rule:nonzero;"/>
            </g>
        </g>
    </g>
    <g>
        <clipPath id="_clip8">
            <rect x="184.25" y="85.5" width="67" height="33"/>
        </clipPath>
        <g clip-path="url(#_clip8)">
            <g>
                <path d="M193.256,117.987C190.996,117.485 190.279,115.906 190.279,113.324L190.279,107.119C190.279,104.286 189.956,102.636 187.373,101.954L187.373,101.882C189.848,101.237 190.279,99.695 190.279,97.04L190.279,90.369C190.279,87.787 190.924,86.352 193.256,85.671C189.669,85.671 187.696,86.496 187.696,90.979L187.696,97.65C187.696,99.982 187.194,101.237 184.97,101.918C187.337,102.6 187.696,103.712 187.696,106.294L187.696,112.32C187.696,117.054 189.203,117.987 193.256,117.987Z" style="fill:black;fill-rule:nonzero;"/>
                <path d="M203.226,85.814L202.796,85.42C200.931,86.352 199.64,86.675 197.057,86.926L196.914,87.679L198.636,87.679C199.496,87.679 199.855,87.93 199.855,88.54C199.855,88.791 199.819,89.186 199.783,89.401L196.161,109.163C196.125,109.271 196.125,109.415 196.125,109.522C196.125,110.921 197.846,112.105 199.819,112.105C201.146,112.105 202.975,111.423 204.518,110.311C207.961,107.872 210.328,102.959 210.328,98.224C210.328,96.861 210.005,95.462 209.575,94.924C209.324,94.602 208.858,94.422 208.32,94.422C207.459,94.422 206.383,94.709 205.378,95.211C203.549,96.18 202.366,97.256 200.142,100.089L203.226,85.814ZM206.347,96.502C207.279,96.502 207.746,97.327 207.746,99.085C207.746,101.38 206.992,104.465 205.916,106.796C204.733,109.271 203.298,110.419 201.361,110.419C199.712,110.419 198.815,109.594 198.815,108.087C198.815,106.868 199.353,101.811 202.258,98.762C203.442,97.543 205.307,96.502 206.347,96.502Z" style="fill:black;fill-rule:nonzero;"/>
                <path d="M218.685,107.298C217.717,107.621 217.071,107.836 215.17,108.374C214.919,111.1 214.022,113.432 211.942,116.875L212.444,117.269L213.915,116.588C216.82,112.822 218.183,110.562 219.187,107.801L218.685,107.298Z" style="fill:black;fill-rule:nonzero;"/>
                <path d="M238.516,99.874L239.34,99.874C239.627,97.543 239.878,96.216 240.201,95.283C239.34,94.745 238.085,94.422 236.758,94.422C235.144,94.386 232.526,95.104 230.481,97.363C228.545,99.085 227.146,103.066 227.146,106.832C227.146,110.275 228.652,112.105 231.521,112.105C233.458,112.105 235.18,111.387 237.153,109.773L238.946,108.303L238.659,107.585L238.121,107.944C235.539,109.666 234.176,110.275 232.92,110.275C230.912,110.275 229.872,108.841 229.872,106.007C229.872,102.134 231.127,98.403 232.884,97.04C233.638,96.467 234.498,96.18 235.61,96.18C237.224,96.18 238.516,96.861 238.516,97.722L238.516,99.874Z" style="fill:black;fill-rule:nonzero;"/>
                <path d="M250.674,101.918C248.451,101.237 247.948,99.982 247.948,97.65L247.948,90.979C247.948,86.496 245.976,85.671 242.389,85.671C244.72,86.352 245.366,87.787 245.366,90.369L245.366,97.04C245.366,99.695 245.796,101.237 248.271,101.882L248.271,101.954C245.689,102.636 245.366,104.286 245.366,107.119L245.366,113.324C245.366,115.906 244.649,117.485 242.389,117.987C246.442,117.987 247.948,117.054 247.948,112.32L247.948,106.294C247.948,103.712 248.307,102.6 250.674,101.918Z" style="fill:black;fill-rule:nonzero;"/>
            </g>
        </g>
    </g>
    <g>
        <clipPath id="_clip9">
            <rect x="185.25" y="31.5" width="100" height="33"/>
        </clipPath>
        <g clip-path="url(#_clip9)">
            <g>
                <path d="M194.256,63.987C191.996,63.485 191.279,61.906 191.279,59.324L191.279,53.119C191.279,50.286 190.956,48.636 188.373,47.954L188.373,47.882C190.848,47.237 191.279,45.695 191.279,43.04L191.279,36.369C191.279,33.787 191.924,32.352 194.256,31.671C190.669,31.671 188.696,32.496 188.696,36.979L188.696,43.65C188.696,45.982 188.194,47.237 185.97,47.918C188.337,48.6 188.696,49.712 188.696,52.294L188.696,58.32C188.696,63.054 190.203,63.987 194.256,63.987Z" style="fill:black;fill-rule:nonzero;"/>
                <path d="M204.226,31.814L203.796,31.42C201.931,32.352 200.64,32.675 198.057,32.926L197.914,33.679L199.636,33.679C200.496,33.679 200.855,33.93 200.855,34.54C200.855,34.791 200.819,35.186 200.783,35.401L197.161,55.163C197.125,55.271 197.125,55.415 197.125,55.522C197.125,56.921 198.846,58.105 200.819,58.105C202.146,58.105 203.975,57.423 205.518,56.311C208.961,53.872 211.328,48.959 211.328,44.224C211.328,42.861 211.005,41.462 210.575,40.924C210.324,40.602 209.858,40.422 209.32,40.422C208.459,40.422 207.383,40.709 206.378,41.211C204.549,42.18 203.366,43.256 201.142,46.089L204.226,31.814ZM207.347,42.502C208.279,42.502 208.746,43.327 208.746,45.085C208.746,47.38 207.992,50.465 206.916,52.796C205.733,55.271 204.298,56.419 202.361,56.419C200.712,56.419 199.815,55.594 199.815,54.087C199.815,52.868 200.353,47.811 203.258,44.762C204.442,43.543 206.307,42.502 207.347,42.502Z" style="fill:black;fill-rule:nonzero;"/>
                <path d="M219.685,53.298C218.717,53.621 218.071,53.836 216.17,54.374C215.919,57.1 215.022,59.432 212.942,62.875L213.444,63.269L214.915,62.588C217.82,58.822 219.183,56.562 220.187,53.801L219.685,53.298Z" style="fill:black;fill-rule:nonzero;"/>
                <path d="M239.516,45.874L240.34,45.874C240.627,43.543 240.878,42.216 241.201,41.283C240.34,40.745 239.085,40.422 237.758,40.422C236.144,40.386 233.526,41.104 231.481,43.363C229.545,45.085 228.146,49.066 228.146,52.832C228.146,56.275 229.652,58.105 232.521,58.105C234.458,58.105 236.18,57.387 238.153,55.773L239.946,54.303L239.659,53.585L239.121,53.944C236.539,55.666 235.176,56.275 233.92,56.275C231.912,56.275 230.872,54.841 230.872,52.007C230.872,48.134 232.127,44.403 233.884,43.04C234.638,42.467 235.498,42.18 236.61,42.18C238.224,42.18 239.516,42.861 239.516,43.722L239.516,45.874Z" style="fill:black;fill-rule:nonzero;"/>
                <path d="M249.128,53.298C248.159,53.621 247.514,53.836 245.613,54.374C245.362,57.1 244.465,59.432 242.385,62.875L242.887,63.269L244.358,62.588C247.263,58.822 248.626,56.562 249.63,53.801L249.128,53.298Z" style="fill:black;fill-rule:nonzero;"/>
                <path d="M274.046,31.814L273.616,31.42C271.751,32.352 270.46,32.675 267.877,32.926L267.734,33.679L269.455,33.679C270.316,33.679 270.675,33.93 270.675,34.54C270.675,34.827 270.639,35.15 270.603,35.401L269.599,40.924C268.523,40.602 267.554,40.422 266.658,40.422C264.183,40.422 260.811,43.005 259.162,46.125C258.05,48.205 257.332,51.613 257.332,54.625C257.332,56.957 257.87,58.105 258.911,58.105C259.879,58.105 261.206,57.495 262.425,56.526C264.362,54.948 265.546,53.549 267.949,49.927L267.124,53.191C266.729,54.769 266.55,55.917 266.55,56.849C266.55,57.602 266.873,58.033 267.483,58.033C268.092,58.033 268.953,57.602 270.173,56.706L273.078,54.554L272.719,53.872L271.141,54.984C270.639,55.343 270.065,55.594 269.742,55.594C269.455,55.594 269.24,55.271 269.24,54.769C269.24,54.482 269.276,54.159 269.527,53.119L274.046,31.814ZM260.811,55.594C260.238,55.594 259.915,55.092 259.915,54.195C259.915,49.676 261.565,44.081 263.322,42.718C263.788,42.359 264.47,42.18 265.438,42.18C267.016,42.18 268.057,42.395 269.24,43.005L268.81,45.121C267.483,51.577 262.425,55.594 260.811,55.594Z" style="fill:black;fill-rule:nonzero;"/>
                <path d="M284.484,47.918C282.26,47.237 281.758,45.982 281.758,43.65L281.758,36.979C281.758,32.496 279.785,31.671 276.198,31.671C278.53,32.352 279.175,33.787 279.175,36.369L279.175,43.04C279.175,45.695 279.606,47.237 282.08,47.882L282.08,47.954C279.498,48.636 279.175,50.286 279.175,53.119L279.175,59.324C279.175,61.906 278.458,63.485 276.198,63.987C280.251,63.987 281.758,63.054 281.758,58.32L281.758,52.294C281.758,49.712 282.116,48.6 284.484,47.918Z" style="fill:black;fill-rule:nonzero;"/>
            </g>
        </g>
    </g>
    <path d="M146.923,216.36C141.364,216.36 138.53,220.771 138.53,229.451C138.53,233.648 139.283,237.27 140.539,239.028C141.794,240.785 143.803,241.789 146.026,241.789C151.442,241.789 154.168,237.127 154.168,227.945C154.168,220.09 151.837,216.36 146.923,216.36ZM146.277,217.615C149.756,217.615 151.155,221.13 151.155,229.738C151.155,237.378 149.792,240.534 146.493,240.534C143.013,240.534 141.543,236.911 141.543,228.16C141.543,220.592 142.87,217.615 146.277,217.615Z" style="fill:black;fill-rule:nonzero;"/>
    <g>
        <clipPath id="_clip10">
            <rect x="139.25" y="144.5" width="13" height="26"/>
        </clipPath>
        <g clip-path="url(#_clip10)">
            <path d="M151.882,170.184L151.882,169.108L150.017,169C148.045,168.892 147.686,168.498 147.686,166.633L147.686,144.969L139.042,148.628L139.293,150.421L144.673,148.054L144.673,166.633C144.673,168.498 144.279,168.892 142.342,169L140.333,169.108L140.333,170.184C145.857,170.076 145.857,170.076 146.251,170.076C147.363,170.076 151.308,170.184 151.882,170.184Z" style="fill:black;fill-rule:nonzero;"/>
        </g>
    </g>
    <path d="M138.064,97.251L138.064,98.184C144.771,98.184 144.771,98.076 146.062,98.076C147.353,98.076 147.353,98.184 154.276,98.184L154.276,95.135C150.151,95.314 148.501,95.171 141.866,95.314L148.394,88.392C151.873,84.698 152.949,82.725 152.949,80.035C152.949,75.91 150.151,73.364 145.596,73.364C143.013,73.364 141.256,74.081 139.499,75.874L138.889,80.752L139.929,80.752L140.395,79.102C140.969,77.022 142.26,76.126 144.663,76.126C147.748,76.126 149.721,78.062 149.721,81.111C149.721,83.801 148.214,86.455 144.161,90.759L138.064,97.251Z" style="fill:black;fill-rule:nonzero;"/>
    <path d="M154.06,17.038C154.06,12.698 150.223,11.945 148.537,11.658C151.406,9.434 152.482,7.784 152.482,5.668C152.482,2.476 149.828,0.36 145.847,0.36C143.408,0.36 141.794,1.041 140.072,2.763L139.032,7.21L140.144,7.21L140.79,5.202C141.184,3.982 143.444,2.763 145.309,2.763C147.64,2.763 149.541,4.664 149.541,6.923C149.541,9.613 147.425,11.873 144.879,11.873C144.592,11.873 144.197,11.837 143.731,11.801L143.193,11.765L142.762,13.666L143.013,13.882C144.376,13.272 145.058,13.092 146.026,13.092C149.003,13.092 150.725,14.993 150.725,18.257C150.725,21.916 148.537,24.319 145.201,24.319C143.551,24.319 142.081,23.781 141.005,22.777C140.144,21.987 139.678,21.163 138.996,19.226L138.028,19.584C138.781,21.772 139.068,23.063 139.283,24.857C141.184,25.502 142.762,25.789 144.089,25.789C148.501,25.789 154.06,21.952 154.06,17.038Z" style="fill:black;fill-rule:nonzero;"/>
    <path d="M98.682,153.818C100.439,155.575 100.439,158.425 98.682,160.182C96.925,161.939 94.075,161.939 92.318,160.182C90.561,158.425 90.561,155.575 92.318,153.818C94.075,152.061 96.925,152.061 98.682,153.818" style="fill:black;fill-rule:nonzero;stroke-width:1px;stroke:black;"/>
</svg>
