<?xml version="1.0" standalone="no"?>
<!DOCTYPE svg PUBLIC "-//W3C//DTD SVG 1.1//EN" "http://www.w3.org/Graphics/SVG/1.1/DTD/svg11.dtd">
<svg width="100%" height="100%" viewBox="0 0 203 289" version="1.1" xmlns="http://www.w3.org/2000/svg" xmlns:xlink="http://www.w3.org/1999/xlink" xml:space="preserve" style="fill-rule:evenodd;clip-rule:evenodd;stroke-linecap:round;stroke-linejoin:round;stroke-miterlimit:10;">
    <rect x="-83" y="-316" width="806" height="1132" style="fill:white;fill-rule:nonzero;"/>
    <rect x="2.039" y="116.284" width="198.425" height="42.52" style="fill:rgb(212,251,121);fill-rule:nonzero;stroke-width:1px;stroke:black;"/>
    <rect x="2.039" y="243.843" width="198.425" height="42.52" style="fill:rgb(212,251,121);fill-rule:nonzero;stroke-width:1px;stroke:black;"/>
    <rect x="2.039" y="59.591" width="198.425" height="28.346" style="fill:rgb(212,251,121);fill-rule:nonzero;stroke-width:1px;stroke:black;"/>
    <rect x="2.039" y="2.898" width="198.425" height="28.347" style="fill:rgb(212,251,121);fill-rule:nonzero;stroke-width:1px;stroke:black;"/>
    <path d="M101.252,58.59L101.252,44.744" style="fill:none;stroke-width:1px;stroke:black;"/>
    <path d="M101.252,32.744L94.252,44.744L108.252,44.744L101.252,32.744Z" style="fill:none;stroke-width:1px;stroke-linecap:butt;stroke-linejoin:miter;stroke:black;"/>
    <path d="M101.252,115.283L101.252,101.437" style="fill:none;stroke-width:1px;stroke:black;"/>
    <path d="M101.252,89.437L94.252,101.437L108.252,101.437L101.252,89.437Z" style="fill:none;stroke-width:1px;stroke-linecap:butt;stroke-linejoin:miter;stroke:black;"/>
    <g>
        <path d="M54.484,124.831C54.5,125.007 54.628,125.151 54.804,125.151L56.404,125.151C56.58,125.151 56.724,125.007 56.724,124.831C56.724,122.687 55.124,121.167 52.916,121.167C50.708,121.167 49.332,122.783 49.108,124.703C48.948,126.047 48.948,127.839 49.108,129.183C49.332,131.103 50.708,132.719 52.916,132.719C55.108,132.719 56.724,131.135 56.724,129.215L56.724,126.527C56.724,126.351 56.58,126.207 56.404,126.207L53.284,126.207C53.108,126.207 52.964,126.351 52.964,126.527L52.964,128.047C52.964,128.223 53.108,128.367 53.284,128.367L54.372,128.367C54.468,128.367 54.532,128.431 54.532,128.527L54.532,129.215C54.532,129.935 53.876,130.463 52.916,130.463C51.94,130.463 51.444,129.887 51.364,129.183C51.204,127.839 51.204,126.047 51.364,124.703C51.444,123.999 51.94,123.423 52.916,123.423C53.828,123.423 54.42,123.999 54.484,124.831Z" style="fill:black;fill-rule:nonzero;"/>
        <path d="M60.612,121.615C60.564,121.423 60.452,121.343 60.276,121.343L58.068,121.343C57.892,121.343 57.748,121.487 57.748,121.663L57.748,132.223C57.748,132.399 57.892,132.543 58.068,132.543L59.636,132.543C59.812,132.543 59.956,132.399 59.956,132.223L59.956,125.887C59.956,125.807 60.052,125.791 60.084,125.871L60.852,128.271C60.916,128.463 61.012,128.543 61.188,128.543L62.132,128.543C62.308,128.543 62.404,128.463 62.468,128.271L63.22,125.871C63.252,125.791 63.348,125.807 63.348,125.887L63.348,132.223C63.348,132.399 63.492,132.543 63.668,132.543L65.236,132.543C65.412,132.543 65.556,132.399 65.556,132.223L65.556,121.663C65.556,121.487 65.412,121.343 65.236,121.343L63.028,121.343C62.852,121.343 62.74,121.423 62.692,121.615L61.796,124.735C61.748,124.895 61.556,124.895 61.508,124.735L60.612,121.615Z" style="fill:black;fill-rule:nonzero;"/>
        <path d="M66.004,132.543C65.828,132.543 65.684,132.687 65.684,132.863L65.684,133.807C65.684,133.983 65.828,134.127 66.004,134.127L74.916,134.127C75.092,134.127 75.236,133.983 75.236,133.807L75.236,132.863C75.236,132.687 75.092,132.543 74.916,132.543L66.004,132.543Z" style="fill:black;fill-rule:nonzero;"/>
        <path d="M79.316,130.463C78.34,130.463 77.844,129.887 77.764,129.183C77.604,127.839 77.604,126.047 77.764,124.703C77.844,123.999 78.34,123.423 79.316,123.423C80.228,123.423 80.82,123.999 80.884,124.831C80.9,125.007 81.028,125.151 81.204,125.151L82.804,125.151C82.98,125.151 83.124,125.007 83.124,124.831C83.124,122.687 81.524,121.167 79.316,121.167C77.108,121.167 75.732,122.783 75.508,124.703C75.348,126.047 75.348,127.839 75.508,129.183C75.732,131.103 77.108,132.719 79.316,132.719C81.524,132.719 83.124,131.199 83.124,129.055C83.124,128.879 82.98,128.735 82.804,128.735L81.204,128.735C81.028,128.735 80.9,128.879 80.884,129.055C80.82,129.887 80.228,130.463 79.316,130.463Z" style="fill:black;fill-rule:nonzero;"/>
        <path d="M88.036,124.367C86.084,124.367 84.932,125.663 84.724,127.343C84.644,127.983 84.644,129.103 84.724,129.743C84.932,131.423 86.084,132.719 88.052,132.719C90.004,132.719 91.156,131.423 91.364,129.743C91.444,129.103 91.444,127.983 91.364,127.343C91.156,125.663 90.004,124.367 88.036,124.367ZM88.036,130.639C87.236,130.639 86.884,130.303 86.804,129.743C86.708,129.103 86.708,127.983 86.804,127.343C86.9,126.735 87.236,126.447 88.036,126.447C88.852,126.447 89.204,126.815 89.284,127.343C89.38,127.983 89.38,129.103 89.284,129.743C89.204,130.271 88.852,130.639 88.036,130.639Z" style="fill:black;fill-rule:nonzero;"/>
        <path d="M97.22,124.799C97.172,124.847 97.092,124.879 97.028,124.879C96.964,124.879 96.884,124.847 96.82,124.783C96.452,124.447 96.068,124.383 95.652,124.383C94.852,124.383 94.564,124.863 94.292,124.863C94.116,124.863 94.068,124.783 94.004,124.703C93.94,124.623 93.876,124.543 93.684,124.543L93.204,124.543C93.028,124.543 92.884,124.687 92.884,124.863L92.884,132.223C92.884,132.399 93.028,132.543 93.204,132.543L94.484,132.543C94.66,132.543 94.804,132.399 94.804,132.223L94.804,126.783C94.804,126.479 95.06,126.223 95.364,126.223C95.668,126.223 95.924,126.479 95.924,126.783L95.924,132.223C95.924,132.399 96.068,132.543 96.244,132.543L97.444,132.543C97.62,132.543 97.764,132.399 97.764,132.223L97.764,126.783C97.764,126.479 98.02,126.223 98.324,126.223C98.628,126.223 98.884,126.479 98.884,126.783L98.884,132.223C98.884,132.399 99.028,132.543 99.204,132.543L100.484,132.543C100.66,132.543 100.804,132.399 100.804,132.223L100.804,126.943C100.804,125.551 100.052,124.383 98.692,124.383C98.084,124.383 97.636,124.463 97.22,124.799Z" style="fill:black;fill-rule:nonzero;"/>
        <path d="M105.78,126.383C106.548,126.383 106.948,126.815 106.98,127.343C107.028,127.983 107.028,129.103 106.98,129.743C106.948,130.271 106.548,130.703 105.78,130.703C104.996,130.703 104.612,130.351 104.564,129.743C104.516,129.103 104.516,127.983 104.564,127.343C104.612,126.783 104.996,126.383 105.78,126.383ZM106.02,124.367C104.836,124.367 104.708,124.911 104.244,124.911C104.084,124.911 103.94,124.767 103.844,124.655C103.78,124.591 103.716,124.543 103.62,124.543L102.82,124.543C102.644,124.543 102.5,124.687 102.5,124.863L102.5,135.423C102.5,135.599 102.644,135.743 102.82,135.743L104.26,135.743C104.436,135.743 104.58,135.599 104.58,135.423L104.58,132.863C104.58,132.511 104.82,132.431 105.06,132.527C105.284,132.623 105.54,132.719 106.02,132.719C107.7,132.719 108.932,131.423 109.06,129.743C109.108,129.103 109.108,127.983 109.06,127.343C108.932,125.663 107.7,124.367 106.02,124.367Z" style="fill:black;fill-rule:nonzero;"/>
        <path d="M114.436,124.367C112.484,124.367 111.332,125.663 111.124,127.343C111.044,127.983 111.044,129.103 111.124,129.743C111.332,131.423 112.484,132.719 114.452,132.719C116.404,132.719 117.556,131.423 117.764,129.743C117.844,129.103 117.844,127.983 117.764,127.343C117.556,125.663 116.404,124.367 114.436,124.367ZM114.436,130.639C113.636,130.639 113.284,130.303 113.204,129.743C113.108,129.103 113.108,127.983 113.204,127.343C113.3,126.735 113.636,126.447 114.436,126.447C115.252,126.447 115.604,126.815 115.684,127.343C115.78,127.983 115.78,129.103 115.684,129.743C115.604,130.271 115.252,130.639 114.436,130.639Z" style="fill:black;fill-rule:nonzero;"/>
        <path d="M119.844,129.919C119.844,131.935 121.508,132.719 123.268,132.719C125.092,132.719 126.66,131.695 126.66,130.111C126.66,127.919 124.676,127.727 123.268,127.471C122.612,127.359 121.988,127.263 121.988,126.783C121.988,126.335 122.548,126.127 123.268,126.127C123.86,126.127 124.468,126.335 124.548,126.863C124.596,127.199 124.756,127.263 124.916,127.263L126.116,127.263C126.292,127.263 126.436,127.167 126.436,126.863C126.436,125.215 124.868,124.367 123.268,124.367C121.716,124.367 120.052,125.359 120.052,126.783C120.052,128.655 121.956,129.199 123.268,129.343C124.004,129.423 124.74,129.535 124.74,130.079C124.74,130.575 124.132,130.831 123.268,130.831C122.532,130.831 121.924,130.623 121.86,129.999C121.828,129.727 121.764,129.599 121.38,129.599L120.164,129.599C119.988,129.599 119.844,129.743 119.844,129.919Z" style="fill:black;fill-rule:nonzero;"/>
        <path d="M133.508,121.439C133.508,121.311 133.396,121.183 133.252,121.183L131.524,121.183C131.38,121.183 131.268,121.311 131.268,121.439L131.268,123.167C131.268,123.311 131.38,123.423 131.524,123.423L133.252,123.423C133.396,123.423 133.508,123.311 133.508,123.167L133.508,121.439ZM131.172,126.575C131.268,126.575 131.332,126.639 131.332,126.735L131.332,130.303C131.332,130.399 131.268,130.463 131.172,130.463L129.412,130.463C129.236,130.463 129.092,130.607 129.092,130.783L129.092,132.223C129.092,132.399 129.236,132.543 129.412,132.543L135.332,132.543C135.508,132.543 135.652,132.399 135.652,132.223L135.652,130.783C135.652,130.607 135.508,130.463 135.332,130.463L133.572,130.463C133.476,130.463 133.412,130.399 133.412,130.303L133.412,124.799C133.412,124.671 133.3,124.543 133.156,124.543L129.572,124.543C129.396,124.543 129.252,124.687 129.252,124.863L129.252,126.255C129.252,126.431 129.396,126.575 129.572,126.575L131.172,126.575Z" style="fill:black;fill-rule:nonzero;"/>
        <path d="M140.916,126.671C140.916,126.575 140.98,126.511 141.076,126.511L143.796,126.511C143.972,126.511 144.116,126.367 144.116,126.191L144.116,124.911C144.116,124.735 143.972,124.591 143.796,124.591L141.076,124.591C140.98,124.591 140.916,124.527 140.916,124.431L140.916,121.983C140.916,121.807 140.772,121.663 140.596,121.663L139.156,121.663C138.98,121.663 138.836,121.807 138.836,121.983L138.836,124.431C138.836,124.527 138.772,124.591 138.676,124.591L137.108,124.591C136.932,124.591 136.788,124.735 136.788,124.911L136.788,126.191C136.788,126.367 136.932,126.511 137.108,126.511L138.676,126.511C138.772,126.511 138.836,126.575 138.836,126.671L138.836,129.855C138.836,131.519 140.212,132.719 141.876,132.719C143.54,132.719 144.916,131.487 144.916,129.823C144.916,129.647 144.772,129.503 144.596,129.503L143.156,129.503C142.98,129.503 142.836,129.647 142.836,129.823C142.836,130.351 142.404,130.639 141.876,130.639C141.348,130.639 140.916,130.351 140.916,129.823L140.916,126.671Z" style="fill:black;fill-rule:nonzero;"/>
        <path d="M148.292,129.423C148.292,129.279 148.388,129.183 148.532,129.183L152.644,129.183C152.82,129.183 152.964,129.039 152.964,128.863L152.964,127.535C152.964,125.503 151.62,124.367 149.7,124.367C147.748,124.367 146.596,125.663 146.388,127.343C146.308,127.983 146.308,129.103 146.388,129.743C146.596,131.423 147.748,132.719 149.7,132.719C151.476,132.719 152.564,131.679 152.932,130.191C152.996,129.935 152.82,129.839 152.66,129.839L151.332,129.839C151.188,129.839 151.044,129.903 150.964,130.111C150.756,130.623 150.324,130.783 149.7,130.783C148.932,130.783 148.292,130.303 148.292,129.423ZM148.308,127.263C148.308,126.655 148.788,126.255 149.7,126.255C150.388,126.255 151.06,126.575 151.06,127.263C151.06,127.359 150.996,127.407 150.9,127.407L148.468,127.407C148.372,127.407 148.308,127.359 148.308,127.263Z" style="fill:black;fill-rule:nonzero;"/>
        <path d="M28.084,146.831C28.1,147.007 28.228,147.151 28.404,147.151L30.004,147.151C30.18,147.151 30.324,147.007 30.324,146.831C30.324,144.687 28.724,143.167 26.516,143.167C24.308,143.167 22.932,144.783 22.708,146.703C22.548,148.047 22.548,149.839 22.708,151.183C22.932,153.103 24.308,154.719 26.516,154.719C28.708,154.719 30.324,153.135 30.324,151.215L30.324,148.527C30.324,148.351 30.18,148.207 30.004,148.207L26.884,148.207C26.708,148.207 26.564,148.351 26.564,148.527L26.564,150.047C26.564,150.223 26.708,150.367 26.884,150.367L27.972,150.367C28.068,150.367 28.132,150.431 28.132,150.527L28.132,151.215C28.132,151.935 27.476,152.463 26.516,152.463C25.54,152.463 25.044,151.887 24.964,151.183C24.804,149.839 24.804,148.047 24.964,146.703C25.044,145.999 25.54,145.423 26.516,145.423C27.428,145.423 28.02,145.999 28.084,146.831Z" style="fill:black;fill-rule:nonzero;"/>
        <path d="M33.892,151.423C33.892,151.279 33.988,151.183 34.132,151.183L38.244,151.183C38.42,151.183 38.564,151.039 38.564,150.863L38.564,149.535C38.564,147.503 37.22,146.367 35.3,146.367C33.348,146.367 32.196,147.663 31.988,149.343C31.908,149.983 31.908,151.103 31.988,151.743C32.196,153.423 33.348,154.719 35.3,154.719C37.076,154.719 38.164,153.679 38.532,152.191C38.596,151.935 38.42,151.839 38.26,151.839L36.932,151.839C36.788,151.839 36.644,151.903 36.564,152.111C36.356,152.623 35.924,152.783 35.3,152.783C34.532,152.783 33.892,152.303 33.892,151.423ZM33.908,149.263C33.908,148.655 34.388,148.255 35.3,148.255C35.988,148.255 36.66,148.575 36.66,149.263C36.66,149.359 36.596,149.407 36.5,149.407L34.068,149.407C33.972,149.407 33.908,149.359 33.908,149.263Z" style="fill:black;fill-rule:nonzero;"/>
        <path d="M44.036,146.367C42.084,146.367 40.932,147.663 40.724,149.343C40.644,149.983 40.644,151.103 40.724,151.743C40.932,153.423 42.084,154.719 44.052,154.719C46.004,154.719 47.156,153.423 47.364,151.743C47.444,151.103 47.444,149.983 47.364,149.343C47.156,147.663 46.004,146.367 44.036,146.367ZM44.036,152.639C43.236,152.639 42.884,152.303 42.804,151.743C42.708,151.103 42.708,149.983 42.804,149.343C42.9,148.735 43.236,148.447 44.036,148.447C44.852,148.447 45.204,148.815 45.284,149.343C45.38,149.983 45.38,151.103 45.284,151.743C45.204,152.271 44.852,152.639 44.036,152.639Z" style="fill:black;fill-rule:nonzero;"/>
        <path d="M53.22,146.799C53.172,146.847 53.092,146.879 53.028,146.879C52.964,146.879 52.884,146.847 52.82,146.783C52.452,146.447 52.068,146.383 51.652,146.383C50.852,146.383 50.564,146.863 50.292,146.863C50.116,146.863 50.068,146.783 50.004,146.703C49.94,146.623 49.876,146.543 49.684,146.543L49.204,146.543C49.028,146.543 48.884,146.687 48.884,146.863L48.884,154.223C48.884,154.399 49.028,154.543 49.204,154.543L50.484,154.543C50.66,154.543 50.804,154.399 50.804,154.223L50.804,148.783C50.804,148.479 51.06,148.223 51.364,148.223C51.668,148.223 51.924,148.479 51.924,148.783L51.924,154.223C51.924,154.399 52.068,154.543 52.244,154.543L53.444,154.543C53.62,154.543 53.764,154.399 53.764,154.223L53.764,148.783C53.764,148.479 54.02,148.223 54.324,148.223C54.628,148.223 54.884,148.479 54.884,148.783L54.884,154.223C54.884,154.399 55.028,154.543 55.204,154.543L56.484,154.543C56.66,154.543 56.804,154.399 56.804,154.223L56.804,148.943C56.804,147.551 56.052,146.383 54.692,146.383C54.084,146.383 53.636,146.463 53.22,146.799Z" style="fill:black;fill-rule:nonzero;"/>
        <path d="M60.292,151.423C60.292,151.279 60.388,151.183 60.532,151.183L64.644,151.183C64.82,151.183 64.964,151.039 64.964,150.863L64.964,149.535C64.964,147.503 63.62,146.367 61.7,146.367C59.748,146.367 58.596,147.663 58.388,149.343C58.308,149.983 58.308,151.103 58.388,151.743C58.596,153.423 59.748,154.719 61.7,154.719C63.476,154.719 64.564,153.679 64.932,152.191C64.996,151.935 64.82,151.839 64.66,151.839L63.332,151.839C63.188,151.839 63.044,151.903 62.964,152.111C62.756,152.623 62.324,152.783 61.7,152.783C60.932,152.783 60.292,152.303 60.292,151.423ZM60.308,149.263C60.308,148.655 60.788,148.255 61.7,148.255C62.388,148.255 63.06,148.575 63.06,149.263C63.06,149.359 62.996,149.407 62.9,149.407L60.468,149.407C60.372,149.407 60.308,149.359 60.308,149.263Z" style="fill:black;fill-rule:nonzero;"/>
        <path d="M70.516,148.671C70.516,148.575 70.58,148.511 70.676,148.511L73.396,148.511C73.572,148.511 73.716,148.367 73.716,148.191L73.716,146.911C73.716,146.735 73.572,146.591 73.396,146.591L70.676,146.591C70.58,146.591 70.516,146.527 70.516,146.431L70.516,143.983C70.516,143.807 70.372,143.663 70.196,143.663L68.756,143.663C68.58,143.663 68.436,143.807 68.436,143.983L68.436,146.431C68.436,146.527 68.372,146.591 68.276,146.591L66.708,146.591C66.532,146.591 66.388,146.735 66.388,146.911L66.388,148.191C66.388,148.367 66.532,148.511 66.708,148.511L68.276,148.511C68.372,148.511 68.436,148.575 68.436,148.671L68.436,151.855C68.436,153.519 69.812,154.719 71.476,154.719C73.14,154.719 74.516,153.487 74.516,151.823C74.516,151.647 74.372,151.503 74.196,151.503L72.756,151.503C72.58,151.503 72.436,151.647 72.436,151.823C72.436,152.351 72.004,152.639 71.476,152.639C70.948,152.639 70.516,152.351 70.516,151.823L70.516,148.671Z" style="fill:black;fill-rule:nonzero;"/>
        <path d="M80.804,149.167C80.804,149.343 80.948,149.487 81.124,149.487L82.564,149.487C82.74,149.487 82.884,149.343 82.884,149.167C82.884,147.487 81.684,146.367 80.004,146.367C78.82,146.367 78.628,146.911 78.132,146.911C77.956,146.911 77.86,146.815 77.764,146.719C77.668,146.639 77.556,146.543 77.364,146.543L76.564,146.543C76.388,146.543 76.244,146.687 76.244,146.863L76.244,154.223C76.244,154.399 76.388,154.543 76.564,154.543L78.004,154.543C78.18,154.543 78.324,154.399 78.324,154.223L78.324,149.311C78.324,148.623 78.932,148.351 79.604,148.351C80.292,148.351 80.804,148.639 80.804,149.167Z" style="fill:black;fill-rule:nonzero;"/>
        <path d="M89.508,143.439C89.508,143.311 89.396,143.183 89.252,143.183L87.524,143.183C87.38,143.183 87.268,143.311 87.268,143.439L87.268,145.167C87.268,145.311 87.38,145.423 87.524,145.423L89.252,145.423C89.396,145.423 89.508,145.311 89.508,145.167L89.508,143.439ZM87.172,148.575C87.268,148.575 87.332,148.639 87.332,148.735L87.332,152.303C87.332,152.399 87.268,152.463 87.172,152.463L85.412,152.463C85.236,152.463 85.092,152.607 85.092,152.783L85.092,154.223C85.092,154.399 85.236,154.543 85.412,154.543L91.332,154.543C91.508,154.543 91.652,154.399 91.652,154.223L91.652,152.783C91.652,152.607 91.508,152.463 91.332,152.463L89.572,152.463C89.476,152.463 89.412,152.399 89.412,152.303L89.412,146.799C89.412,146.671 89.3,146.543 89.156,146.543L85.572,146.543C85.396,146.543 85.252,146.687 85.252,146.863L85.252,148.255C85.252,148.431 85.396,148.575 85.572,148.575L87.172,148.575Z" style="fill:black;fill-rule:nonzero;"/>
        <path d="M96.916,152.639C96.1,152.639 95.732,152.303 95.668,151.743C95.588,151.103 95.588,149.983 95.668,149.343C95.748,148.735 96.1,148.447 96.9,148.447C97.636,148.447 98.132,148.783 98.18,149.567C98.196,149.743 98.34,149.823 98.484,149.823L99.908,149.823C100.084,149.823 100.18,149.679 100.18,149.503C100.18,147.519 98.676,146.367 96.916,146.367C94.948,146.367 93.796,147.663 93.588,149.343C93.508,149.983 93.508,151.103 93.588,151.743C93.796,153.423 94.948,154.719 96.916,154.719C98.676,154.719 100.18,153.535 100.18,151.583C100.18,151.407 100.084,151.263 99.908,151.263L98.484,151.263C98.34,151.263 98.212,151.343 98.18,151.519C98.052,152.383 97.62,152.639 96.916,152.639Z" style="fill:black;fill-rule:nonzero;"/>
        <path d="M104.612,150.223C104.612,150.127 104.676,150.063 104.772,150.063L106.212,150.063C108.052,150.063 109.572,148.559 109.572,146.703C109.572,144.863 108.052,143.343 106.212,143.343L102.692,143.343C102.516,143.343 102.372,143.487 102.372,143.663L102.372,154.223C102.372,154.399 102.516,154.543 102.692,154.543L104.292,154.543C104.468,154.543 104.612,154.399 104.612,154.223L104.612,150.223ZM106.212,145.583C106.82,145.583 107.332,146.095 107.332,146.703C107.332,147.327 106.82,147.823 106.212,147.823L104.772,147.823C104.676,147.823 104.612,147.759 104.612,147.663L104.612,145.743C104.612,145.647 104.676,145.583 104.772,145.583L106.212,145.583Z" style="fill:black;fill-rule:nonzero;"/>
        <path d="M116.004,149.167C116.004,149.343 116.148,149.487 116.324,149.487L117.764,149.487C117.94,149.487 118.084,149.343 118.084,149.167C118.084,147.487 116.884,146.367 115.204,146.367C114.02,146.367 113.828,146.911 113.332,146.911C113.156,146.911 113.06,146.815 112.964,146.719C112.868,146.639 112.756,146.543 112.564,146.543L111.764,146.543C111.588,146.543 111.444,146.687 111.444,146.863L111.444,154.223C111.444,154.399 111.588,154.543 111.764,154.543L113.204,154.543C113.38,154.543 113.524,154.399 113.524,154.223L113.524,149.311C113.524,148.623 114.132,148.351 114.804,148.351C115.492,148.351 116.004,148.639 116.004,149.167Z" style="fill:black;fill-rule:nonzero;"/>
        <path d="M124.708,143.439C124.708,143.311 124.596,143.183 124.452,143.183L122.724,143.183C122.58,143.183 122.468,143.311 122.468,143.439L122.468,145.167C122.468,145.311 122.58,145.423 122.724,145.423L124.452,145.423C124.596,145.423 124.708,145.311 124.708,145.167L124.708,143.439ZM122.372,148.575C122.468,148.575 122.532,148.639 122.532,148.735L122.532,152.303C122.532,152.399 122.468,152.463 122.372,152.463L120.612,152.463C120.436,152.463 120.292,152.607 120.292,152.783L120.292,154.223C120.292,154.399 120.436,154.543 120.612,154.543L126.532,154.543C126.708,154.543 126.852,154.399 126.852,154.223L126.852,152.783C126.852,152.607 126.708,152.463 126.532,152.463L124.772,152.463C124.676,152.463 124.612,152.399 124.612,152.303L124.612,146.799C124.612,146.671 124.5,146.543 124.356,146.543L120.772,146.543C120.596,146.543 120.452,146.687 120.452,146.863L120.452,148.255C120.452,148.431 120.596,148.575 120.772,148.575L122.372,148.575Z" style="fill:black;fill-rule:nonzero;"/>
        <path d="M132.42,146.799C132.372,146.847 132.292,146.879 132.228,146.879C132.164,146.879 132.084,146.847 132.02,146.783C131.652,146.447 131.268,146.383 130.852,146.383C130.052,146.383 129.764,146.863 129.492,146.863C129.316,146.863 129.268,146.783 129.204,146.703C129.14,146.623 129.076,146.543 128.884,146.543L128.404,146.543C128.228,146.543 128.084,146.687 128.084,146.863L128.084,154.223C128.084,154.399 128.228,154.543 128.404,154.543L129.684,154.543C129.86,154.543 130.004,154.399 130.004,154.223L130.004,148.783C130.004,148.479 130.26,148.223 130.564,148.223C130.868,148.223 131.124,148.479 131.124,148.783L131.124,154.223C131.124,154.399 131.268,154.543 131.444,154.543L132.644,154.543C132.82,154.543 132.964,154.399 132.964,154.223L132.964,148.783C132.964,148.479 133.22,148.223 133.524,148.223C133.828,148.223 134.084,148.479 134.084,148.783L134.084,154.223C134.084,154.399 134.228,154.543 134.404,154.543L135.684,154.543C135.86,154.543 136.004,154.399 136.004,154.223L136.004,148.943C136.004,147.551 135.252,146.383 133.892,146.383C133.284,146.383 132.836,146.463 132.42,146.799Z" style="fill:black;fill-rule:nonzero;"/>
        <path d="M142.308,143.439C142.308,143.311 142.196,143.183 142.052,143.183L140.324,143.183C140.18,143.183 140.068,143.311 140.068,143.439L140.068,145.167C140.068,145.311 140.18,145.423 140.324,145.423L142.052,145.423C142.196,145.423 142.308,145.311 142.308,145.167L142.308,143.439ZM139.972,148.575C140.068,148.575 140.132,148.639 140.132,148.735L140.132,152.303C140.132,152.399 140.068,152.463 139.972,152.463L138.212,152.463C138.036,152.463 137.892,152.607 137.892,152.783L137.892,154.223C137.892,154.399 138.036,154.543 138.212,154.543L144.132,154.543C144.308,154.543 144.452,154.399 144.452,154.223L144.452,152.783C144.452,152.607 144.308,152.463 144.132,152.463L142.372,152.463C142.276,152.463 142.212,152.399 142.212,152.303L142.212,146.799C142.212,146.671 142.1,146.543 141.956,146.543L138.372,146.543C138.196,146.543 138.052,146.687 138.052,146.863L138.052,148.255C138.052,148.431 138.196,148.575 138.372,148.575L139.972,148.575Z" style="fill:black;fill-rule:nonzero;"/>
        <path d="M149.716,148.671C149.716,148.575 149.78,148.511 149.876,148.511L152.596,148.511C152.772,148.511 152.916,148.367 152.916,148.191L152.916,146.911C152.916,146.735 152.772,146.591 152.596,146.591L149.876,146.591C149.78,146.591 149.716,146.527 149.716,146.431L149.716,143.983C149.716,143.807 149.572,143.663 149.396,143.663L147.956,143.663C147.78,143.663 147.636,143.807 147.636,143.983L147.636,146.431C147.636,146.527 147.572,146.591 147.476,146.591L145.908,146.591C145.732,146.591 145.588,146.735 145.588,146.911L145.588,148.191C145.588,148.367 145.732,148.511 145.908,148.511L147.476,148.511C147.572,148.511 147.636,148.575 147.636,148.671L147.636,151.855C147.636,153.519 149.012,154.719 150.676,154.719C152.34,154.719 153.716,153.487 153.716,151.823C153.716,151.647 153.572,151.503 153.396,151.503L151.956,151.503C151.78,151.503 151.636,151.647 151.636,151.823C151.636,152.351 151.204,152.639 150.676,152.639C150.148,152.639 149.716,152.351 149.716,151.823L149.716,148.671Z" style="fill:black;fill-rule:nonzero;"/>
        <path d="M159.908,143.439C159.908,143.311 159.796,143.183 159.652,143.183L157.924,143.183C157.78,143.183 157.668,143.311 157.668,143.439L157.668,145.167C157.668,145.311 157.78,145.423 157.924,145.423L159.652,145.423C159.796,145.423 159.908,145.311 159.908,145.167L159.908,143.439ZM157.572,148.575C157.668,148.575 157.732,148.639 157.732,148.735L157.732,152.303C157.732,152.399 157.668,152.463 157.572,152.463L155.812,152.463C155.636,152.463 155.492,152.607 155.492,152.783L155.492,154.223C155.492,154.399 155.636,154.543 155.812,154.543L161.732,154.543C161.908,154.543 162.052,154.399 162.052,154.223L162.052,152.783C162.052,152.607 161.908,152.463 161.732,152.463L159.972,152.463C159.876,152.463 159.812,152.399 159.812,152.303L159.812,146.799C159.812,146.671 159.7,146.543 159.556,146.543L155.972,146.543C155.796,146.543 155.652,146.687 155.652,146.863L155.652,148.255C155.652,148.431 155.796,148.575 155.972,148.575L157.572,148.575Z" style="fill:black;fill-rule:nonzero;"/>
        <path d="M167.332,151.343C167.3,151.455 167.172,151.455 167.14,151.343L165.572,146.783C165.508,146.607 165.412,146.543 165.268,146.543L163.668,146.543C163.412,146.543 163.3,146.751 163.364,146.911L166.116,154.303C166.18,154.463 166.276,154.543 166.42,154.543L168.116,154.543C168.26,154.543 168.356,154.463 168.42,154.303L171.14,146.911C171.204,146.751 171.092,146.543 170.836,146.543L169.236,146.543C169.092,146.543 168.996,146.607 168.932,146.783L167.332,151.343Z" style="fill:black;fill-rule:nonzero;"/>
        <path d="M174.692,151.423C174.692,151.279 174.788,151.183 174.932,151.183L179.044,151.183C179.22,151.183 179.364,151.039 179.364,150.863L179.364,149.535C179.364,147.503 178.02,146.367 176.1,146.367C174.148,146.367 172.996,147.663 172.788,149.343C172.708,149.983 172.708,151.103 172.788,151.743C172.996,153.423 174.148,154.719 176.1,154.719C177.876,154.719 178.964,153.679 179.332,152.191C179.396,151.935 179.22,151.839 179.06,151.839L177.732,151.839C177.588,151.839 177.444,151.903 177.364,152.111C177.156,152.623 176.724,152.783 176.1,152.783C175.332,152.783 174.692,152.303 174.692,151.423ZM174.708,149.263C174.708,148.655 175.188,148.255 176.1,148.255C176.788,148.255 177.46,148.575 177.46,149.263C177.46,149.359 177.396,149.407 177.3,149.407L174.868,149.407C174.772,149.407 174.708,149.359 174.708,149.263Z" style="fill:black;fill-rule:nonzero;"/>
    </g>
    <g>
        <path d="M50.084,252.39C50.1,252.566 50.228,252.71 50.404,252.71L52.004,252.71C52.18,252.71 52.324,252.566 52.324,252.39C52.324,250.246 50.724,248.726 48.516,248.726C46.308,248.726 44.932,250.342 44.708,252.262C44.548,253.606 44.548,255.398 44.708,256.742C44.932,258.662 46.308,260.278 48.516,260.278C50.708,260.278 52.324,258.694 52.324,256.774L52.324,254.086C52.324,253.91 52.18,253.766 52.004,253.766L48.884,253.766C48.708,253.766 48.564,253.91 48.564,254.086L48.564,255.606C48.564,255.782 48.708,255.926 48.884,255.926L49.972,255.926C50.068,255.926 50.132,255.99 50.132,256.086L50.132,256.774C50.132,257.494 49.476,258.022 48.516,258.022C47.54,258.022 47.044,257.446 46.964,256.742C46.804,255.398 46.804,253.606 46.964,252.262C47.044,251.558 47.54,250.982 48.516,250.982C49.428,250.982 50.02,251.558 50.084,252.39Z" style="fill:black;fill-rule:nonzero;"/>
        <path d="M56.212,249.174C56.164,248.982 56.052,248.902 55.876,248.902L53.668,248.902C53.492,248.902 53.348,249.046 53.348,249.222L53.348,259.782C53.348,259.958 53.492,260.102 53.668,260.102L55.236,260.102C55.412,260.102 55.556,259.958 55.556,259.782L55.556,253.446C55.556,253.366 55.652,253.35 55.684,253.43L56.452,255.83C56.516,256.022 56.612,256.102 56.788,256.102L57.732,256.102C57.908,256.102 58.004,256.022 58.068,255.83L58.82,253.43C58.852,253.35 58.948,253.366 58.948,253.446L58.948,259.782C58.948,259.958 59.092,260.102 59.268,260.102L60.836,260.102C61.012,260.102 61.156,259.958 61.156,259.782L61.156,249.222C61.156,249.046 61.012,248.902 60.836,248.902L58.628,248.902C58.452,248.902 58.34,248.982 58.292,249.174L57.396,252.294C57.348,252.454 57.156,252.454 57.108,252.294L56.212,249.174Z" style="fill:black;fill-rule:nonzero;"/>
        <path d="M61.604,260.102C61.428,260.102 61.284,260.246 61.284,260.422L61.284,261.366C61.284,261.542 61.428,261.686 61.604,261.686L70.516,261.686C70.692,261.686 70.836,261.542 70.836,261.366L70.836,260.422C70.836,260.246 70.692,260.102 70.516,260.102L61.604,260.102Z" style="fill:black;fill-rule:nonzero;"/>
        <path d="M74.852,250.982C75.828,250.982 76.324,251.558 76.404,252.262C76.564,253.606 76.564,255.398 76.404,256.742C76.324,257.446 75.828,258.022 74.852,258.022C73.876,258.022 73.38,257.446 73.3,256.742C73.14,255.398 73.14,253.606 73.3,252.262C73.38,251.558 73.876,250.982 74.852,250.982ZM74.852,248.726C72.644,248.726 71.268,250.342 71.044,252.262C70.884,253.606 70.884,255.398 71.044,256.742C71.268,258.662 72.644,260.278 74.852,260.278C77.06,260.278 78.436,258.662 78.66,256.742C78.82,255.398 78.82,253.606 78.66,252.262C78.436,250.342 77.06,248.726 74.852,248.726Z" style="fill:black;fill-rule:nonzero;"/>
        <path d="M85.204,254.726C85.204,254.902 85.348,255.046 85.524,255.046L86.964,255.046C87.14,255.046 87.284,254.902 87.284,254.726C87.284,253.046 86.084,251.926 84.404,251.926C83.22,251.926 83.028,252.47 82.532,252.47C82.356,252.47 82.26,252.374 82.164,252.278C82.068,252.198 81.956,252.102 81.764,252.102L80.964,252.102C80.788,252.102 80.644,252.246 80.644,252.422L80.644,259.782C80.644,259.958 80.788,260.102 80.964,260.102L82.404,260.102C82.58,260.102 82.724,259.958 82.724,259.782L82.724,254.87C82.724,254.182 83.332,253.91 84.004,253.91C84.692,253.91 85.204,254.198 85.204,254.726Z" style="fill:black;fill-rule:nonzero;"/>
        <path d="M93.908,248.998C93.908,248.87 93.796,248.742 93.652,248.742L91.924,248.742C91.78,248.742 91.668,248.87 91.668,248.998L91.668,250.726C91.668,250.87 91.78,250.982 91.924,250.982L93.652,250.982C93.796,250.982 93.908,250.87 93.908,250.726L93.908,248.998ZM91.572,254.134C91.668,254.134 91.732,254.198 91.732,254.294L91.732,257.862C91.732,257.958 91.668,258.022 91.572,258.022L89.812,258.022C89.636,258.022 89.492,258.166 89.492,258.342L89.492,259.782C89.492,259.958 89.636,260.102 89.812,260.102L95.732,260.102C95.908,260.102 96.052,259.958 96.052,259.782L96.052,258.342C96.052,258.166 95.908,258.022 95.732,258.022L93.972,258.022C93.876,258.022 93.812,257.958 93.812,257.862L93.812,252.358C93.812,252.23 93.7,252.102 93.556,252.102L89.972,252.102C89.796,252.102 89.652,252.246 89.652,252.422L89.652,253.814C89.652,253.99 89.796,254.134 89.972,254.134L91.572,254.134Z" style="fill:black;fill-rule:nonzero;"/>
        <path d="M99.892,256.982C99.892,256.838 99.988,256.742 100.132,256.742L104.244,256.742C104.42,256.742 104.564,256.598 104.564,256.422L104.564,255.094C104.564,253.062 103.22,251.926 101.3,251.926C99.348,251.926 98.196,253.222 97.988,254.902C97.908,255.542 97.908,256.662 97.988,257.302C98.196,258.982 99.348,260.278 101.3,260.278C103.076,260.278 104.164,259.238 104.532,257.75C104.596,257.494 104.42,257.398 104.26,257.398L102.932,257.398C102.788,257.398 102.644,257.462 102.564,257.67C102.356,258.182 101.924,258.342 101.3,258.342C100.532,258.342 99.892,257.862 99.892,256.982ZM99.908,254.822C99.908,254.214 100.388,253.814 101.3,253.814C101.988,253.814 102.66,254.134 102.66,254.822C102.66,254.918 102.596,254.966 102.5,254.966L100.068,254.966C99.972,254.966 99.908,254.918 99.908,254.822Z" style="fill:black;fill-rule:nonzero;"/>
        <path d="M108.612,252.486C108.436,252.486 108.356,252.39 108.26,252.294C108.18,252.198 108.084,252.102 107.892,252.102L107.092,252.102C106.916,252.102 106.772,252.246 106.772,252.422L106.772,259.782C106.772,259.958 106.916,260.102 107.092,260.102L108.532,260.102C108.708,260.102 108.852,259.958 108.852,259.782L108.852,254.822C108.852,254.342 109.3,253.942 110.052,253.942C110.82,253.942 111.252,254.358 111.252,254.886L111.252,259.782C111.252,259.958 111.396,260.102 111.572,260.102L113.012,260.102C113.188,260.102 113.332,259.958 113.332,259.782L113.332,254.902C113.332,253.222 112.052,251.926 110.372,251.926C109.412,251.926 109.076,252.486 108.612,252.486Z" style="fill:black;fill-rule:nonzero;"/>
        <path d="M118.916,254.23C118.916,254.134 118.98,254.07 119.076,254.07L121.796,254.07C121.972,254.07 122.116,253.926 122.116,253.75L122.116,252.47C122.116,252.294 121.972,252.15 121.796,252.15L119.076,252.15C118.98,252.15 118.916,252.086 118.916,251.99L118.916,249.542C118.916,249.366 118.772,249.222 118.596,249.222L117.156,249.222C116.98,249.222 116.836,249.366 116.836,249.542L116.836,251.99C116.836,252.086 116.772,252.15 116.676,252.15L115.108,252.15C114.932,252.15 114.788,252.294 114.788,252.47L114.788,253.75C114.788,253.926 114.932,254.07 115.108,254.07L116.676,254.07C116.772,254.07 116.836,254.134 116.836,254.23L116.836,257.414C116.836,259.078 118.212,260.278 119.876,260.278C121.54,260.278 122.916,259.046 122.916,257.382C122.916,257.206 122.772,257.062 122.596,257.062L121.156,257.062C120.98,257.062 120.836,257.206 120.836,257.382C120.836,257.91 120.404,258.198 119.876,258.198C119.348,258.198 118.916,257.91 118.916,257.382L118.916,254.23Z" style="fill:black;fill-rule:nonzero;"/>
        <path d="M128.82,256.838C128.916,256.838 128.98,256.902 128.98,256.998L128.98,257.382C128.98,258.214 128.276,258.486 127.364,258.486C126.788,258.486 126.308,258.23 126.308,257.638C126.308,257.398 126.436,256.838 127.124,256.838L128.82,256.838ZM127.668,253.75C128.372,253.75 128.9,254.07 128.9,254.726L128.9,254.982C128.9,255.078 128.836,255.142 128.74,255.142L127.108,255.142C125.268,255.142 124.356,256.534 124.356,257.638C124.356,259.318 125.508,260.278 127.364,260.278C128.548,260.278 128.996,259.67 129.284,259.67C129.492,259.67 129.508,259.862 129.604,259.99C129.668,260.07 129.732,260.102 129.828,260.102L130.628,260.102C130.804,260.102 130.948,259.958 130.948,259.782L130.948,254.822C130.948,252.966 129.684,251.926 127.748,251.926C125.828,251.926 124.66,253.078 124.66,254.342C124.66,254.518 124.804,254.662 124.98,254.662L126.132,254.662C126.42,254.662 126.564,254.63 126.564,254.358C126.564,253.846 127.332,253.75 127.668,253.75Z" style="fill:black;fill-rule:nonzero;"/>
        <path d="M136.58,258.262C135.796,258.262 135.412,257.862 135.364,257.302C135.316,256.662 135.316,255.542 135.364,254.902C135.412,254.294 135.796,253.942 136.58,253.942C137.348,253.942 137.748,254.374 137.78,254.902C137.828,255.542 137.828,256.662 137.78,257.302C137.748,257.83 137.348,258.262 136.58,258.262ZM136.82,260.278C138.5,260.278 139.732,258.982 139.86,257.302C139.908,256.662 139.908,255.542 139.86,254.902C139.732,253.222 138.5,251.926 136.82,251.926C136.34,251.926 136.084,252.022 135.86,252.118C135.62,252.214 135.38,252.134 135.38,251.782L135.38,249.062C135.38,248.886 135.236,248.742 135.06,248.742L133.62,248.742C133.444,248.742 133.3,248.886 133.3,249.062L133.3,259.782C133.3,259.958 133.444,260.102 133.62,260.102L134.42,260.102C134.516,260.102 134.58,260.054 134.644,259.99C134.74,259.878 134.884,259.734 135.044,259.734C135.508,259.734 135.636,260.278 136.82,260.278Z" style="fill:black;fill-rule:nonzero;"/>
        <path d="M144.212,250.774C144.308,250.774 144.372,250.838 144.372,250.934L144.372,257.862C144.372,257.958 144.308,258.022 144.212,258.022L142.452,258.022C142.276,258.022 142.132,258.166 142.132,258.342L142.132,259.782C142.132,259.958 142.276,260.102 142.452,260.102L148.532,260.102C148.708,260.102 148.852,259.958 148.852,259.782L148.852,258.342C148.852,258.166 148.708,258.022 148.532,258.022L146.612,258.022C146.516,258.022 146.452,257.958 146.452,257.862L146.452,248.998C146.452,248.87 146.34,248.742 146.196,248.742L142.612,248.742C142.436,248.742 142.292,248.886 142.292,249.062L142.292,250.454C142.292,250.63 142.436,250.774 142.612,250.774L144.212,250.774Z" style="fill:black;fill-rule:nonzero;"/>
        <path d="M152.692,256.982C152.692,256.838 152.788,256.742 152.932,256.742L157.044,256.742C157.22,256.742 157.364,256.598 157.364,256.422L157.364,255.094C157.364,253.062 156.02,251.926 154.1,251.926C152.148,251.926 150.996,253.222 150.788,254.902C150.708,255.542 150.708,256.662 150.788,257.302C150.996,258.982 152.148,260.278 154.1,260.278C155.876,260.278 156.964,259.238 157.332,257.75C157.396,257.494 157.22,257.398 157.06,257.398L155.732,257.398C155.588,257.398 155.444,257.462 155.364,257.67C155.156,258.182 154.724,258.342 154.1,258.342C153.332,258.342 152.692,257.862 152.692,256.982ZM152.708,254.822C152.708,254.214 153.188,253.814 154.1,253.814C154.788,253.814 155.46,254.134 155.46,254.822C155.46,254.918 155.396,254.966 155.3,254.966L152.868,254.966C152.772,254.966 152.708,254.918 152.708,254.822Z" style="fill:black;fill-rule:nonzero;"/>
        <path d="M28.084,274.39C28.1,274.566 28.228,274.71 28.404,274.71L30.004,274.71C30.18,274.71 30.324,274.566 30.324,274.39C30.324,272.246 28.724,270.726 26.516,270.726C24.308,270.726 22.932,272.342 22.708,274.262C22.548,275.606 22.548,277.398 22.708,278.742C22.932,280.662 24.308,282.278 26.516,282.278C28.708,282.278 30.324,280.694 30.324,278.774L30.324,276.086C30.324,275.91 30.18,275.766 30.004,275.766L26.884,275.766C26.708,275.766 26.564,275.91 26.564,276.086L26.564,277.606C26.564,277.782 26.708,277.926 26.884,277.926L27.972,277.926C28.068,277.926 28.132,277.99 28.132,278.086L28.132,278.774C28.132,279.494 27.476,280.022 26.516,280.022C25.54,280.022 25.044,279.446 24.964,278.742C24.804,277.398 24.804,275.606 24.964,274.262C25.044,273.558 25.54,272.982 26.516,272.982C27.428,272.982 28.02,273.558 28.084,274.39Z" style="fill:black;fill-rule:nonzero;"/>
        <path d="M33.892,278.982C33.892,278.838 33.988,278.742 34.132,278.742L38.244,278.742C38.42,278.742 38.564,278.598 38.564,278.422L38.564,277.094C38.564,275.062 37.22,273.926 35.3,273.926C33.348,273.926 32.196,275.222 31.988,276.902C31.908,277.542 31.908,278.662 31.988,279.302C32.196,280.982 33.348,282.278 35.3,282.278C37.076,282.278 38.164,281.238 38.532,279.75C38.596,279.494 38.42,279.398 38.26,279.398L36.932,279.398C36.788,279.398 36.644,279.462 36.564,279.67C36.356,280.182 35.924,280.342 35.3,280.342C34.532,280.342 33.892,279.862 33.892,278.982ZM33.908,276.822C33.908,276.214 34.388,275.814 35.3,275.814C35.988,275.814 36.66,276.134 36.66,276.822C36.66,276.918 36.596,276.966 36.5,276.966L34.068,276.966C33.972,276.966 33.908,276.918 33.908,276.822Z" style="fill:black;fill-rule:nonzero;"/>
        <path d="M44.036,273.926C42.084,273.926 40.932,275.222 40.724,276.902C40.644,277.542 40.644,278.662 40.724,279.302C40.932,280.982 42.084,282.278 44.052,282.278C46.004,282.278 47.156,280.982 47.364,279.302C47.444,278.662 47.444,277.542 47.364,276.902C47.156,275.222 46.004,273.926 44.036,273.926ZM44.036,280.198C43.236,280.198 42.884,279.862 42.804,279.302C42.708,278.662 42.708,277.542 42.804,276.902C42.9,276.294 43.236,276.006 44.036,276.006C44.852,276.006 45.204,276.374 45.284,276.902C45.38,277.542 45.38,278.662 45.284,279.302C45.204,279.83 44.852,280.198 44.036,280.198Z" style="fill:black;fill-rule:nonzero;"/>
        <path d="M53.22,274.358C53.172,274.406 53.092,274.438 53.028,274.438C52.964,274.438 52.884,274.406 52.82,274.342C52.452,274.006 52.068,273.942 51.652,273.942C50.852,273.942 50.564,274.422 50.292,274.422C50.116,274.422 50.068,274.342 50.004,274.262C49.94,274.182 49.876,274.102 49.684,274.102L49.204,274.102C49.028,274.102 48.884,274.246 48.884,274.422L48.884,281.782C48.884,281.958 49.028,282.102 49.204,282.102L50.484,282.102C50.66,282.102 50.804,281.958 50.804,281.782L50.804,276.342C50.804,276.038 51.06,275.782 51.364,275.782C51.668,275.782 51.924,276.038 51.924,276.342L51.924,281.782C51.924,281.958 52.068,282.102 52.244,282.102L53.444,282.102C53.62,282.102 53.764,281.958 53.764,281.782L53.764,276.342C53.764,276.038 54.02,275.782 54.324,275.782C54.628,275.782 54.884,276.038 54.884,276.342L54.884,281.782C54.884,281.958 55.028,282.102 55.204,282.102L56.484,282.102C56.66,282.102 56.804,281.958 56.804,281.782L56.804,276.502C56.804,275.11 56.052,273.942 54.692,273.942C54.084,273.942 53.636,274.022 53.22,274.358Z" style="fill:black;fill-rule:nonzero;"/>
        <path d="M60.292,278.982C60.292,278.838 60.388,278.742 60.532,278.742L64.644,278.742C64.82,278.742 64.964,278.598 64.964,278.422L64.964,277.094C64.964,275.062 63.62,273.926 61.7,273.926C59.748,273.926 58.596,275.222 58.388,276.902C58.308,277.542 58.308,278.662 58.388,279.302C58.596,280.982 59.748,282.278 61.7,282.278C63.476,282.278 64.564,281.238 64.932,279.75C64.996,279.494 64.82,279.398 64.66,279.398L63.332,279.398C63.188,279.398 63.044,279.462 62.964,279.67C62.756,280.182 62.324,280.342 61.7,280.342C60.932,280.342 60.292,279.862 60.292,278.982ZM60.308,276.822C60.308,276.214 60.788,275.814 61.7,275.814C62.388,275.814 63.06,276.134 63.06,276.822C63.06,276.918 62.996,276.966 62.9,276.966L60.468,276.966C60.372,276.966 60.308,276.918 60.308,276.822Z" style="fill:black;fill-rule:nonzero;"/>
        <path d="M70.516,276.23C70.516,276.134 70.58,276.07 70.676,276.07L73.396,276.07C73.572,276.07 73.716,275.926 73.716,275.75L73.716,274.47C73.716,274.294 73.572,274.15 73.396,274.15L70.676,274.15C70.58,274.15 70.516,274.086 70.516,273.99L70.516,271.542C70.516,271.366 70.372,271.222 70.196,271.222L68.756,271.222C68.58,271.222 68.436,271.366 68.436,271.542L68.436,273.99C68.436,274.086 68.372,274.15 68.276,274.15L66.708,274.15C66.532,274.15 66.388,274.294 66.388,274.47L66.388,275.75C66.388,275.926 66.532,276.07 66.708,276.07L68.276,276.07C68.372,276.07 68.436,276.134 68.436,276.23L68.436,279.414C68.436,281.078 69.812,282.278 71.476,282.278C73.14,282.278 74.516,281.046 74.516,279.382C74.516,279.206 74.372,279.062 74.196,279.062L72.756,279.062C72.58,279.062 72.436,279.206 72.436,279.382C72.436,279.91 72.004,280.198 71.476,280.198C70.948,280.198 70.516,279.91 70.516,279.382L70.516,276.23Z" style="fill:black;fill-rule:nonzero;"/>
        <path d="M80.804,276.726C80.804,276.902 80.948,277.046 81.124,277.046L82.564,277.046C82.74,277.046 82.884,276.902 82.884,276.726C82.884,275.046 81.684,273.926 80.004,273.926C78.82,273.926 78.628,274.47 78.132,274.47C77.956,274.47 77.86,274.374 77.764,274.278C77.668,274.198 77.556,274.102 77.364,274.102L76.564,274.102C76.388,274.102 76.244,274.246 76.244,274.422L76.244,281.782C76.244,281.958 76.388,282.102 76.564,282.102L78.004,282.102C78.18,282.102 78.324,281.958 78.324,281.782L78.324,276.87C78.324,276.182 78.932,275.91 79.604,275.91C80.292,275.91 80.804,276.198 80.804,276.726Z" style="fill:black;fill-rule:nonzero;"/>
        <path d="M89.508,270.998C89.508,270.87 89.396,270.742 89.252,270.742L87.524,270.742C87.38,270.742 87.268,270.87 87.268,270.998L87.268,272.726C87.268,272.87 87.38,272.982 87.524,272.982L89.252,272.982C89.396,272.982 89.508,272.87 89.508,272.726L89.508,270.998ZM87.172,276.134C87.268,276.134 87.332,276.198 87.332,276.294L87.332,279.862C87.332,279.958 87.268,280.022 87.172,280.022L85.412,280.022C85.236,280.022 85.092,280.166 85.092,280.342L85.092,281.782C85.092,281.958 85.236,282.102 85.412,282.102L91.332,282.102C91.508,282.102 91.652,281.958 91.652,281.782L91.652,280.342C91.652,280.166 91.508,280.022 91.332,280.022L89.572,280.022C89.476,280.022 89.412,279.958 89.412,279.862L89.412,274.358C89.412,274.23 89.3,274.102 89.156,274.102L85.572,274.102C85.396,274.102 85.252,274.246 85.252,274.422L85.252,275.814C85.252,275.99 85.396,276.134 85.572,276.134L87.172,276.134Z" style="fill:black;fill-rule:nonzero;"/>
        <path d="M96.916,280.198C96.1,280.198 95.732,279.862 95.668,279.302C95.588,278.662 95.588,277.542 95.668,276.902C95.748,276.294 96.1,276.006 96.9,276.006C97.636,276.006 98.132,276.342 98.18,277.126C98.196,277.302 98.34,277.382 98.484,277.382L99.908,277.382C100.084,277.382 100.18,277.238 100.18,277.062C100.18,275.078 98.676,273.926 96.916,273.926C94.948,273.926 93.796,275.222 93.588,276.902C93.508,277.542 93.508,278.662 93.588,279.302C93.796,280.982 94.948,282.278 96.916,282.278C98.676,282.278 100.18,281.094 100.18,279.142C100.18,278.966 100.084,278.822 99.908,278.822L98.484,278.822C98.34,278.822 98.212,278.902 98.18,279.078C98.052,279.942 97.62,280.198 96.916,280.198Z" style="fill:black;fill-rule:nonzero;"/>
        <path d="M104.612,277.782C104.612,277.686 104.676,277.622 104.772,277.622L106.212,277.622C108.052,277.622 109.572,276.118 109.572,274.262C109.572,272.422 108.052,270.902 106.212,270.902L102.692,270.902C102.516,270.902 102.372,271.046 102.372,271.222L102.372,281.782C102.372,281.958 102.516,282.102 102.692,282.102L104.292,282.102C104.468,282.102 104.612,281.958 104.612,281.782L104.612,277.782ZM106.212,273.142C106.82,273.142 107.332,273.654 107.332,274.262C107.332,274.886 106.82,275.382 106.212,275.382L104.772,275.382C104.676,275.382 104.612,275.318 104.612,275.222L104.612,273.302C104.612,273.206 104.676,273.142 104.772,273.142L106.212,273.142Z" style="fill:black;fill-rule:nonzero;"/>
        <path d="M116.004,276.726C116.004,276.902 116.148,277.046 116.324,277.046L117.764,277.046C117.94,277.046 118.084,276.902 118.084,276.726C118.084,275.046 116.884,273.926 115.204,273.926C114.02,273.926 113.828,274.47 113.332,274.47C113.156,274.47 113.06,274.374 112.964,274.278C112.868,274.198 112.756,274.102 112.564,274.102L111.764,274.102C111.588,274.102 111.444,274.246 111.444,274.422L111.444,281.782C111.444,281.958 111.588,282.102 111.764,282.102L113.204,282.102C113.38,282.102 113.524,281.958 113.524,281.782L113.524,276.87C113.524,276.182 114.132,275.91 114.804,275.91C115.492,275.91 116.004,276.198 116.004,276.726Z" style="fill:black;fill-rule:nonzero;"/>
        <path d="M124.708,270.998C124.708,270.87 124.596,270.742 124.452,270.742L122.724,270.742C122.58,270.742 122.468,270.87 122.468,270.998L122.468,272.726C122.468,272.87 122.58,272.982 122.724,272.982L124.452,272.982C124.596,272.982 124.708,272.87 124.708,272.726L124.708,270.998ZM122.372,276.134C122.468,276.134 122.532,276.198 122.532,276.294L122.532,279.862C122.532,279.958 122.468,280.022 122.372,280.022L120.612,280.022C120.436,280.022 120.292,280.166 120.292,280.342L120.292,281.782C120.292,281.958 120.436,282.102 120.612,282.102L126.532,282.102C126.708,282.102 126.852,281.958 126.852,281.782L126.852,280.342C126.852,280.166 126.708,280.022 126.532,280.022L124.772,280.022C124.676,280.022 124.612,279.958 124.612,279.862L124.612,274.358C124.612,274.23 124.5,274.102 124.356,274.102L120.772,274.102C120.596,274.102 120.452,274.246 120.452,274.422L120.452,275.814C120.452,275.99 120.596,276.134 120.772,276.134L122.372,276.134Z" style="fill:black;fill-rule:nonzero;"/>
        <path d="M132.42,274.358C132.372,274.406 132.292,274.438 132.228,274.438C132.164,274.438 132.084,274.406 132.02,274.342C131.652,274.006 131.268,273.942 130.852,273.942C130.052,273.942 129.764,274.422 129.492,274.422C129.316,274.422 129.268,274.342 129.204,274.262C129.14,274.182 129.076,274.102 128.884,274.102L128.404,274.102C128.228,274.102 128.084,274.246 128.084,274.422L128.084,281.782C128.084,281.958 128.228,282.102 128.404,282.102L129.684,282.102C129.86,282.102 130.004,281.958 130.004,281.782L130.004,276.342C130.004,276.038 130.26,275.782 130.564,275.782C130.868,275.782 131.124,276.038 131.124,276.342L131.124,281.782C131.124,281.958 131.268,282.102 131.444,282.102L132.644,282.102C132.82,282.102 132.964,281.958 132.964,281.782L132.964,276.342C132.964,276.038 133.22,275.782 133.524,275.782C133.828,275.782 134.084,276.038 134.084,276.342L134.084,281.782C134.084,281.958 134.228,282.102 134.404,282.102L135.684,282.102C135.86,282.102 136.004,281.958 136.004,281.782L136.004,276.502C136.004,275.11 135.252,273.942 133.892,273.942C133.284,273.942 132.836,274.022 132.42,274.358Z" style="fill:black;fill-rule:nonzero;"/>
        <path d="M142.308,270.998C142.308,270.87 142.196,270.742 142.052,270.742L140.324,270.742C140.18,270.742 140.068,270.87 140.068,270.998L140.068,272.726C140.068,272.87 140.18,272.982 140.324,272.982L142.052,272.982C142.196,272.982 142.308,272.87 142.308,272.726L142.308,270.998ZM139.972,276.134C140.068,276.134 140.132,276.198 140.132,276.294L140.132,279.862C140.132,279.958 140.068,280.022 139.972,280.022L138.212,280.022C138.036,280.022 137.892,280.166 137.892,280.342L137.892,281.782C137.892,281.958 138.036,282.102 138.212,282.102L144.132,282.102C144.308,282.102 144.452,281.958 144.452,281.782L144.452,280.342C144.452,280.166 144.308,280.022 144.132,280.022L142.372,280.022C142.276,280.022 142.212,279.958 142.212,279.862L142.212,274.358C142.212,274.23 142.1,274.102 141.956,274.102L138.372,274.102C138.196,274.102 138.052,274.246 138.052,274.422L138.052,275.814C138.052,275.99 138.196,276.134 138.372,276.134L139.972,276.134Z" style="fill:black;fill-rule:nonzero;"/>
        <path d="M149.716,276.23C149.716,276.134 149.78,276.07 149.876,276.07L152.596,276.07C152.772,276.07 152.916,275.926 152.916,275.75L152.916,274.47C152.916,274.294 152.772,274.15 152.596,274.15L149.876,274.15C149.78,274.15 149.716,274.086 149.716,273.99L149.716,271.542C149.716,271.366 149.572,271.222 149.396,271.222L147.956,271.222C147.78,271.222 147.636,271.366 147.636,271.542L147.636,273.99C147.636,274.086 147.572,274.15 147.476,274.15L145.908,274.15C145.732,274.15 145.588,274.294 145.588,274.47L145.588,275.75C145.588,275.926 145.732,276.07 145.908,276.07L147.476,276.07C147.572,276.07 147.636,276.134 147.636,276.23L147.636,279.414C147.636,281.078 149.012,282.278 150.676,282.278C152.34,282.278 153.716,281.046 153.716,279.382C153.716,279.206 153.572,279.062 153.396,279.062L151.956,279.062C151.78,279.062 151.636,279.206 151.636,279.382C151.636,279.91 151.204,280.198 150.676,280.198C150.148,280.198 149.716,279.91 149.716,279.382L149.716,276.23Z" style="fill:black;fill-rule:nonzero;"/>
        <path d="M159.908,270.998C159.908,270.87 159.796,270.742 159.652,270.742L157.924,270.742C157.78,270.742 157.668,270.87 157.668,270.998L157.668,272.726C157.668,272.87 157.78,272.982 157.924,272.982L159.652,272.982C159.796,272.982 159.908,272.87 159.908,272.726L159.908,270.998ZM157.572,276.134C157.668,276.134 157.732,276.198 157.732,276.294L157.732,279.862C157.732,279.958 157.668,280.022 157.572,280.022L155.812,280.022C155.636,280.022 155.492,280.166 155.492,280.342L155.492,281.782C155.492,281.958 155.636,282.102 155.812,282.102L161.732,282.102C161.908,282.102 162.052,281.958 162.052,281.782L162.052,280.342C162.052,280.166 161.908,280.022 161.732,280.022L159.972,280.022C159.876,280.022 159.812,279.958 159.812,279.862L159.812,274.358C159.812,274.23 159.7,274.102 159.556,274.102L155.972,274.102C155.796,274.102 155.652,274.246 155.652,274.422L155.652,275.814C155.652,275.99 155.796,276.134 155.972,276.134L157.572,276.134Z" style="fill:black;fill-rule:nonzero;"/>
        <path d="M167.332,278.902C167.3,279.014 167.172,279.014 167.14,278.902L165.572,274.342C165.508,274.166 165.412,274.102 165.268,274.102L163.668,274.102C163.412,274.102 163.3,274.31 163.364,274.47L166.116,281.862C166.18,282.022 166.276,282.102 166.42,282.102L168.116,282.102C168.26,282.102 168.356,282.022 168.42,281.862L171.14,274.47C171.204,274.31 171.092,274.102 170.836,274.102L169.236,274.102C169.092,274.102 168.996,274.166 168.932,274.342L167.332,278.902Z" style="fill:black;fill-rule:nonzero;"/>
        <path d="M174.692,278.982C174.692,278.838 174.788,278.742 174.932,278.742L179.044,278.742C179.22,278.742 179.364,278.598 179.364,278.422L179.364,277.094C179.364,275.062 178.02,273.926 176.1,273.926C174.148,273.926 172.996,275.222 172.788,276.902C172.708,277.542 172.708,278.662 172.788,279.302C172.996,280.982 174.148,282.278 176.1,282.278C177.876,282.278 178.964,281.238 179.332,279.75C179.396,279.494 179.22,279.398 179.06,279.398L177.732,279.398C177.588,279.398 177.444,279.462 177.364,279.67C177.156,280.182 176.724,280.342 176.1,280.342C175.332,280.342 174.692,279.862 174.692,278.982ZM174.708,276.822C174.708,276.214 175.188,275.814 176.1,275.814C176.788,275.814 177.46,276.134 177.46,276.822C177.46,276.918 177.396,276.966 177.3,276.966L174.868,276.966C174.772,276.966 174.708,276.918 174.708,276.822Z" style="fill:black;fill-rule:nonzero;"/>
    </g>
    <path d="M54.484,72.052C54.5,72.228 54.628,72.372 54.804,72.372L56.404,72.372C56.58,72.372 56.724,72.228 56.724,72.052C56.724,69.908 55.124,68.388 52.916,68.388C50.708,68.388 49.332,70.004 49.108,71.924C48.948,73.268 48.948,75.06 49.108,76.404C49.332,78.324 50.708,79.94 52.916,79.94C55.108,79.94 56.724,78.356 56.724,76.436L56.724,73.748C56.724,73.572 56.58,73.428 56.404,73.428L53.284,73.428C53.108,73.428 52.964,73.572 52.964,73.748L52.964,75.268C52.964,75.444 53.108,75.588 53.284,75.588L54.372,75.588C54.468,75.588 54.532,75.652 54.532,75.748L54.532,76.436C54.532,77.156 53.876,77.684 52.916,77.684C51.94,77.684 51.444,77.108 51.364,76.404C51.204,75.06 51.204,73.268 51.364,71.924C51.444,71.22 51.94,70.644 52.916,70.644C53.828,70.644 54.42,71.22 54.484,72.052Z" style="fill:black;fill-rule:nonzero;"/>
    <path d="M60.612,68.836C60.564,68.644 60.452,68.564 60.276,68.564L58.068,68.564C57.892,68.564 57.748,68.708 57.748,68.884L57.748,79.444C57.748,79.62 57.892,79.764 58.068,79.764L59.636,79.764C59.812,79.764 59.956,79.62 59.956,79.444L59.956,73.108C59.956,73.028 60.052,73.012 60.084,73.092L60.852,75.492C60.916,75.684 61.012,75.764 61.188,75.764L62.132,75.764C62.308,75.764 62.404,75.684 62.468,75.492L63.22,73.092C63.252,73.012 63.348,73.028 63.348,73.108L63.348,79.444C63.348,79.62 63.492,79.764 63.668,79.764L65.236,79.764C65.412,79.764 65.556,79.62 65.556,79.444L65.556,68.884C65.556,68.708 65.412,68.564 65.236,68.564L63.028,68.564C62.852,68.564 62.74,68.644 62.692,68.836L61.796,71.956C61.748,72.116 61.556,72.116 61.508,71.956L60.612,68.836Z" style="fill:black;fill-rule:nonzero;"/>
    <path d="M66.004,79.764C65.828,79.764 65.684,79.908 65.684,80.084L65.684,81.028C65.684,81.204 65.828,81.348 66.004,81.348L74.916,81.348C75.092,81.348 75.236,81.204 75.236,81.028L75.236,80.084C75.236,79.908 75.092,79.764 74.916,79.764L66.004,79.764Z" style="fill:black;fill-rule:nonzero;"/>
    <path d="M79.316,77.684C78.34,77.684 77.844,77.108 77.764,76.404C77.604,75.06 77.604,73.268 77.764,71.924C77.844,71.22 78.34,70.644 79.316,70.644C80.228,70.644 80.82,71.22 80.884,72.052C80.9,72.228 81.028,72.372 81.204,72.372L82.804,72.372C82.98,72.372 83.124,72.228 83.124,72.052C83.124,69.908 81.524,68.388 79.316,68.388C77.108,68.388 75.732,70.004 75.508,71.924C75.348,73.268 75.348,75.06 75.508,76.404C75.732,78.324 77.108,79.94 79.316,79.94C81.524,79.94 83.124,78.42 83.124,76.276C83.124,76.1 82.98,75.956 82.804,75.956L81.204,75.956C81.028,75.956 80.9,76.1 80.884,76.276C80.82,77.108 80.228,77.684 79.316,77.684Z" style="fill:black;fill-rule:nonzero;"/>
    <path d="M88.036,71.588C86.084,71.588 84.932,72.884 84.724,74.564C84.644,75.204 84.644,76.324 84.724,76.964C84.932,78.644 86.084,79.94 88.052,79.94C90.004,79.94 91.156,78.644 91.364,76.964C91.444,76.324 91.444,75.204 91.364,74.564C91.156,72.884 90.004,71.588 88.036,71.588ZM88.036,77.86C87.236,77.86 86.884,77.524 86.804,76.964C86.708,76.324 86.708,75.204 86.804,74.564C86.9,73.956 87.236,73.668 88.036,73.668C88.852,73.668 89.204,74.036 89.284,74.564C89.38,75.204 89.38,76.324 89.284,76.964C89.204,77.492 88.852,77.86 88.036,77.86Z" style="fill:black;fill-rule:nonzero;"/>
    <path d="M97.22,72.02C97.172,72.068 97.092,72.1 97.028,72.1C96.964,72.1 96.884,72.068 96.82,72.004C96.452,71.668 96.068,71.604 95.652,71.604C94.852,71.604 94.564,72.084 94.292,72.084C94.116,72.084 94.068,72.004 94.004,71.924C93.94,71.844 93.876,71.764 93.684,71.764L93.204,71.764C93.028,71.764 92.884,71.908 92.884,72.084L92.884,79.444C92.884,79.62 93.028,79.764 93.204,79.764L94.484,79.764C94.66,79.764 94.804,79.62 94.804,79.444L94.804,74.004C94.804,73.7 95.06,73.444 95.364,73.444C95.668,73.444 95.924,73.7 95.924,74.004L95.924,79.444C95.924,79.62 96.068,79.764 96.244,79.764L97.444,79.764C97.62,79.764 97.764,79.62 97.764,79.444L97.764,74.004C97.764,73.7 98.02,73.444 98.324,73.444C98.628,73.444 98.884,73.7 98.884,74.004L98.884,79.444C98.884,79.62 99.028,79.764 99.204,79.764L100.484,79.764C100.66,79.764 100.804,79.62 100.804,79.444L100.804,74.164C100.804,72.772 100.052,71.604 98.692,71.604C98.084,71.604 97.636,71.684 97.22,72.02Z" style="fill:black;fill-rule:nonzero;"/>
    <path d="M105.78,73.604C106.548,73.604 106.948,74.036 106.98,74.564C107.028,75.204 107.028,76.324 106.98,76.964C106.948,77.492 106.548,77.924 105.78,77.924C104.996,77.924 104.612,77.572 104.564,76.964C104.516,76.324 104.516,75.204 104.564,74.564C104.612,74.004 104.996,73.604 105.78,73.604ZM106.02,71.588C104.836,71.588 104.708,72.132 104.244,72.132C104.084,72.132 103.94,71.988 103.844,71.876C103.78,71.812 103.716,71.764 103.62,71.764L102.82,71.764C102.644,71.764 102.5,71.908 102.5,72.084L102.5,82.644C102.5,82.82 102.644,82.964 102.82,82.964L104.26,82.964C104.436,82.964 104.58,82.82 104.58,82.644L104.58,80.084C104.58,79.732 104.82,79.652 105.06,79.748C105.284,79.844 105.54,79.94 106.02,79.94C107.7,79.94 108.932,78.644 109.06,76.964C109.108,76.324 109.108,75.204 109.06,74.564C108.932,72.884 107.7,71.588 106.02,71.588Z" style="fill:black;fill-rule:nonzero;"/>
    <path d="M114.436,71.588C112.484,71.588 111.332,72.884 111.124,74.564C111.044,75.204 111.044,76.324 111.124,76.964C111.332,78.644 112.484,79.94 114.452,79.94C116.404,79.94 117.556,78.644 117.764,76.964C117.844,76.324 117.844,75.204 117.764,74.564C117.556,72.884 116.404,71.588 114.436,71.588ZM114.436,77.86C113.636,77.86 113.284,77.524 113.204,76.964C113.108,76.324 113.108,75.204 113.204,74.564C113.3,73.956 113.636,73.668 114.436,73.668C115.252,73.668 115.604,74.036 115.684,74.564C115.78,75.204 115.78,76.324 115.684,76.964C115.604,77.492 115.252,77.86 114.436,77.86Z" style="fill:black;fill-rule:nonzero;"/>
    <path d="M119.844,77.14C119.844,79.156 121.508,79.94 123.268,79.94C125.092,79.94 126.66,78.916 126.66,77.332C126.66,75.14 124.676,74.948 123.268,74.692C122.612,74.58 121.988,74.484 121.988,74.004C121.988,73.556 122.548,73.348 123.268,73.348C123.86,73.348 124.468,73.556 124.548,74.084C124.596,74.42 124.756,74.484 124.916,74.484L126.116,74.484C126.292,74.484 126.436,74.388 126.436,74.084C126.436,72.436 124.868,71.588 123.268,71.588C121.716,71.588 120.052,72.58 120.052,74.004C120.052,75.876 121.956,76.42 123.268,76.564C124.004,76.644 124.74,76.756 124.74,77.3C124.74,77.796 124.132,78.052 123.268,78.052C122.532,78.052 121.924,77.844 121.86,77.22C121.828,76.948 121.764,76.82 121.38,76.82L120.164,76.82C119.988,76.82 119.844,76.964 119.844,77.14Z" style="fill:black;fill-rule:nonzero;"/>
    <path d="M133.508,68.66C133.508,68.532 133.396,68.404 133.252,68.404L131.524,68.404C131.38,68.404 131.268,68.532 131.268,68.66L131.268,70.388C131.268,70.532 131.38,70.644 131.524,70.644L133.252,70.644C133.396,70.644 133.508,70.532 133.508,70.388L133.508,68.66ZM131.172,73.796C131.268,73.796 131.332,73.86 131.332,73.956L131.332,77.524C131.332,77.62 131.268,77.684 131.172,77.684L129.412,77.684C129.236,77.684 129.092,77.828 129.092,78.004L129.092,79.444C129.092,79.62 129.236,79.764 129.412,79.764L135.332,79.764C135.508,79.764 135.652,79.62 135.652,79.444L135.652,78.004C135.652,77.828 135.508,77.684 135.332,77.684L133.572,77.684C133.476,77.684 133.412,77.62 133.412,77.524L133.412,72.02C133.412,71.892 133.3,71.764 133.156,71.764L129.572,71.764C129.396,71.764 129.252,71.908 129.252,72.084L129.252,73.476C129.252,73.652 129.396,73.796 129.572,73.796L131.172,73.796Z" style="fill:black;fill-rule:nonzero;"/>
    <path d="M140.916,73.892C140.916,73.796 140.98,73.732 141.076,73.732L143.796,73.732C143.972,73.732 144.116,73.588 144.116,73.412L144.116,72.132C144.116,71.956 143.972,71.812 143.796,71.812L141.076,71.812C140.98,71.812 140.916,71.748 140.916,71.652L140.916,69.204C140.916,69.028 140.772,68.884 140.596,68.884L139.156,68.884C138.98,68.884 138.836,69.028 138.836,69.204L138.836,71.652C138.836,71.748 138.772,71.812 138.676,71.812L137.108,71.812C136.932,71.812 136.788,71.956 136.788,72.132L136.788,73.412C136.788,73.588 136.932,73.732 137.108,73.732L138.676,73.732C138.772,73.732 138.836,73.796 138.836,73.892L138.836,77.076C138.836,78.74 140.212,79.94 141.876,79.94C143.54,79.94 144.916,78.708 144.916,77.044C144.916,76.868 144.772,76.724 144.596,76.724L143.156,76.724C142.98,76.724 142.836,76.868 142.836,77.044C142.836,77.572 142.404,77.86 141.876,77.86C141.348,77.86 140.916,77.572 140.916,77.044L140.916,73.892Z" style="fill:black;fill-rule:nonzero;"/>
    <path d="M148.292,76.644C148.292,76.5 148.388,76.404 148.532,76.404L152.644,76.404C152.82,76.404 152.964,76.26 152.964,76.084L152.964,74.756C152.964,72.724 151.62,71.588 149.7,71.588C147.748,71.588 146.596,72.884 146.388,74.564C146.308,75.204 146.308,76.324 146.388,76.964C146.596,78.644 147.748,79.94 149.7,79.94C151.476,79.94 152.564,78.9 152.932,77.412C152.996,77.156 152.82,77.06 152.66,77.06L151.332,77.06C151.188,77.06 151.044,77.124 150.964,77.332C150.756,77.844 150.324,78.004 149.7,78.004C148.932,78.004 148.292,77.524 148.292,76.644ZM148.308,74.484C148.308,73.876 148.788,73.476 149.7,73.476C150.388,73.476 151.06,73.796 151.06,74.484C151.06,74.58 150.996,74.628 150.9,74.628L148.468,74.628C148.372,74.628 148.308,74.58 148.308,74.484Z" style="fill:black;fill-rule:nonzero;"/>
    <path d="M63.284,15.359C63.3,15.535 63.428,15.679 63.604,15.679L65.204,15.679C65.38,15.679 65.524,15.535 65.524,15.359C65.524,13.215 63.924,11.695 61.716,11.695C59.508,11.695 58.132,13.311 57.908,15.231C57.748,16.575 57.748,18.367 57.908,19.711C58.132,21.631 59.508,23.247 61.716,23.247C63.908,23.247 65.524,21.663 65.524,19.743L65.524,17.055C65.524,16.879 65.38,16.735 65.204,16.735L62.084,16.735C61.908,16.735 61.764,16.879 61.764,17.055L61.764,18.575C61.764,18.751 61.908,18.895 62.084,18.895L63.172,18.895C63.268,18.895 63.332,18.959 63.332,19.055L63.332,19.743C63.332,20.463 62.676,20.991 61.716,20.991C60.74,20.991 60.244,20.415 60.164,19.711C60.004,18.367 60.004,16.575 60.164,15.231C60.244,14.527 60.74,13.951 61.716,13.951C62.628,13.951 63.22,14.527 63.284,15.359Z" style="fill:black;fill-rule:nonzero;"/>
    <path d="M69.412,12.143C69.364,11.951 69.252,11.871 69.076,11.871L66.868,11.871C66.692,11.871 66.548,12.015 66.548,12.191L66.548,22.751C66.548,22.927 66.692,23.071 66.868,23.071L68.436,23.071C68.612,23.071 68.756,22.927 68.756,22.751L68.756,16.415C68.756,16.335 68.852,16.319 68.884,16.399L69.652,18.799C69.716,18.991 69.812,19.071 69.988,19.071L70.932,19.071C71.108,19.071 71.204,18.991 71.268,18.799L72.02,16.399C72.052,16.319 72.148,16.335 72.148,16.415L72.148,22.751C72.148,22.927 72.292,23.071 72.468,23.071L74.036,23.071C74.212,23.071 74.356,22.927 74.356,22.751L74.356,12.191C74.356,12.015 74.212,11.871 74.036,11.871L71.828,11.871C71.652,11.871 71.54,11.951 71.492,12.143L70.596,15.263C70.548,15.423 70.356,15.423 70.308,15.263L69.412,12.143Z" style="fill:black;fill-rule:nonzero;"/>
    <path d="M74.804,23.071C74.628,23.071 74.484,23.215 74.484,23.391L74.484,24.335C74.484,24.511 74.628,24.655 74.804,24.655L83.716,24.655C83.892,24.655 84.036,24.511 84.036,24.335L84.036,23.391C84.036,23.215 83.892,23.071 83.716,23.071L74.804,23.071Z" style="fill:black;fill-rule:nonzero;"/>
    <path d="M88.116,20.991C87.14,20.991 86.644,20.415 86.564,19.711C86.404,18.367 86.404,16.575 86.564,15.231C86.644,14.527 87.14,13.951 88.116,13.951C89.028,13.951 89.62,14.527 89.684,15.359C89.7,15.535 89.828,15.679 90.004,15.679L91.604,15.679C91.78,15.679 91.924,15.535 91.924,15.359C91.924,13.215 90.324,11.695 88.116,11.695C85.908,11.695 84.532,13.311 84.308,15.231C84.148,16.575 84.148,18.367 84.308,19.711C84.532,21.631 85.908,23.247 88.116,23.247C90.324,23.247 91.924,21.727 91.924,19.583C91.924,19.407 91.78,19.263 91.604,19.263L90.004,19.263C89.828,19.263 89.7,19.407 89.684,19.583C89.62,20.415 89.028,20.991 88.116,20.991Z" style="fill:black;fill-rule:nonzero;"/>
    <path d="M96.836,14.895C94.884,14.895 93.732,16.191 93.524,17.871C93.444,18.511 93.444,19.631 93.524,20.271C93.732,21.951 94.884,23.247 96.852,23.247C98.804,23.247 99.956,21.951 100.164,20.271C100.244,19.631 100.244,18.511 100.164,17.871C99.956,16.191 98.804,14.895 96.836,14.895ZM96.836,21.167C96.036,21.167 95.684,20.831 95.604,20.271C95.508,19.631 95.508,18.511 95.604,17.871C95.7,17.263 96.036,16.975 96.836,16.975C97.652,16.975 98.004,17.343 98.084,17.871C98.18,18.511 98.18,19.631 98.084,20.271C98.004,20.799 97.652,21.167 96.836,21.167Z" style="fill:black;fill-rule:nonzero;"/>
    <path d="M106.02,15.327C105.972,15.375 105.892,15.407 105.828,15.407C105.764,15.407 105.684,15.375 105.62,15.311C105.252,14.975 104.868,14.911 104.452,14.911C103.652,14.911 103.364,15.391 103.092,15.391C102.916,15.391 102.868,15.311 102.804,15.231C102.74,15.151 102.676,15.071 102.484,15.071L102.004,15.071C101.828,15.071 101.684,15.215 101.684,15.391L101.684,22.751C101.684,22.927 101.828,23.071 102.004,23.071L103.284,23.071C103.46,23.071 103.604,22.927 103.604,22.751L103.604,17.311C103.604,17.007 103.86,16.751 104.164,16.751C104.468,16.751 104.724,17.007 104.724,17.311L104.724,22.751C104.724,22.927 104.868,23.071 105.044,23.071L106.244,23.071C106.42,23.071 106.564,22.927 106.564,22.751L106.564,17.311C106.564,17.007 106.82,16.751 107.124,16.751C107.428,16.751 107.684,17.007 107.684,17.311L107.684,22.751C107.684,22.927 107.828,23.071 108.004,23.071L109.284,23.071C109.46,23.071 109.604,22.927 109.604,22.751L109.604,17.471C109.604,16.079 108.852,14.911 107.492,14.911C106.884,14.911 106.436,14.991 106.02,15.327Z" style="fill:black;fill-rule:nonzero;"/>
    <path d="M114.58,16.911C115.348,16.911 115.748,17.343 115.78,17.871C115.828,18.511 115.828,19.631 115.78,20.271C115.748,20.799 115.348,21.231 114.58,21.231C113.796,21.231 113.412,20.879 113.364,20.271C113.316,19.631 113.316,18.511 113.364,17.871C113.412,17.311 113.796,16.911 114.58,16.911ZM114.82,14.895C113.636,14.895 113.508,15.439 113.044,15.439C112.884,15.439 112.74,15.295 112.644,15.183C112.58,15.119 112.516,15.071 112.42,15.071L111.62,15.071C111.444,15.071 111.3,15.215 111.3,15.391L111.3,25.951C111.3,26.127 111.444,26.271 111.62,26.271L113.06,26.271C113.236,26.271 113.38,26.127 113.38,25.951L113.38,23.391C113.38,23.039 113.62,22.959 113.86,23.055C114.084,23.151 114.34,23.247 114.82,23.247C116.5,23.247 117.732,21.951 117.86,20.271C117.908,19.631 117.908,18.511 117.86,17.871C117.732,16.191 116.5,14.895 114.82,14.895Z" style="fill:black;fill-rule:nonzero;"/>
    <path d="M122.212,13.743C122.308,13.743 122.372,13.807 122.372,13.903L122.372,20.831C122.372,20.927 122.308,20.991 122.212,20.991L120.452,20.991C120.276,20.991 120.132,21.135 120.132,21.311L120.132,22.751C120.132,22.927 120.276,23.071 120.452,23.071L126.532,23.071C126.708,23.071 126.852,22.927 126.852,22.751L126.852,21.311C126.852,21.135 126.708,20.991 126.532,20.991L124.612,20.991C124.516,20.991 124.452,20.927 124.452,20.831L124.452,11.967C124.452,11.839 124.34,11.711 124.196,11.711L120.612,11.711C120.436,11.711 120.292,11.855 120.292,12.031L120.292,13.423C120.292,13.599 120.436,13.743 120.612,13.743L122.212,13.743Z" style="fill:black;fill-rule:nonzero;"/>
    <path d="M130.692,19.951C130.692,19.807 130.788,19.711 130.932,19.711L135.044,19.711C135.22,19.711 135.364,19.567 135.364,19.391L135.364,18.063C135.364,16.031 134.02,14.895 132.1,14.895C130.148,14.895 128.996,16.191 128.788,17.871C128.708,18.511 128.708,19.631 128.788,20.271C128.996,21.951 130.148,23.247 132.1,23.247C133.876,23.247 134.964,22.207 135.332,20.719C135.396,20.463 135.22,20.367 135.06,20.367L133.732,20.367C133.588,20.367 133.444,20.431 133.364,20.639C133.156,21.151 132.724,21.311 132.1,21.311C131.332,21.311 130.692,20.831 130.692,19.951ZM130.708,17.791C130.708,17.183 131.188,16.783 132.1,16.783C132.788,16.783 133.46,17.103 133.46,17.791C133.46,17.887 133.396,17.935 133.3,17.935L130.868,17.935C130.772,17.935 130.708,17.887 130.708,17.791Z" style="fill:black;fill-rule:nonzero;"/>
    <path d="M140.772,20.639C140.836,20.511 140.9,20.511 140.964,20.639L142.164,22.911C142.212,22.991 142.276,23.071 142.516,23.071L144.132,23.071C144.436,23.071 144.548,22.815 144.388,22.543L142.276,19.087C142.196,18.959 142.18,18.879 142.276,18.735L144.164,15.599C144.324,15.327 144.212,15.071 143.908,15.071L142.42,15.071C142.18,15.071 142.116,15.151 142.068,15.231L140.964,17.231C140.9,17.359 140.836,17.359 140.772,17.231L139.668,15.231C139.62,15.151 139.556,15.071 139.316,15.071L137.828,15.071C137.524,15.071 137.412,15.327 137.572,15.599L139.428,18.735C139.524,18.879 139.508,18.959 139.428,19.087L137.3,22.543C137.14,22.815 137.252,23.071 137.556,23.071L139.172,23.071C139.412,23.071 139.476,22.991 139.524,22.911L140.772,20.639Z" style="fill:black;fill-rule:nonzero;"/>
    <g>
        <path d="M98.343,178.617C96.943,178.617 96.439,177.525 96.369,176.783C96.313,176.209 96.313,175.397 96.369,174.823C96.439,174.081 96.943,172.989 98.343,172.989C99.491,172.989 100.149,173.759 100.149,174.599C100.149,174.753 100.289,174.823 100.416,174.823L100.737,174.823C100.892,174.823 100.975,174.697 100.975,174.543C100.975,173.283 99.911,172.163 98.343,172.163C96.663,172.163 95.627,173.353 95.515,174.823C95.473,175.383 95.473,176.223 95.515,176.783C95.627,178.253 96.663,179.443 98.343,179.443C99.911,179.443 100.975,178.323 100.975,177.063C100.975,176.909 100.849,176.783 100.695,176.783L100.401,176.783C100.276,176.783 100.136,176.839 100.136,177.021C100.136,177.749 99.575,178.617 98.343,178.617Z" style="fill:black;fill-rule:nonzero;"/>
        <path d="M105.931,172.163C104.252,172.163 103.215,173.353 103.104,174.823C103.062,175.383 103.062,176.223 103.104,176.783C103.215,178.253 104.252,179.443 105.931,179.443C107.611,179.443 108.648,178.253 108.759,176.783C108.801,176.223 108.801,175.383 108.759,174.823C108.648,173.353 107.611,172.163 105.931,172.163ZM105.931,178.617C104.532,178.617 104.027,177.525 103.958,176.783C103.901,176.209 103.901,175.397 103.958,174.823C104.027,174.081 104.532,172.989 105.931,172.989C107.331,172.989 107.836,174.081 107.905,174.823C107.961,175.397 107.961,176.209 107.905,176.783C107.836,177.525 107.331,178.617 105.931,178.617Z" style="fill:black;fill-rule:nonzero;"/>
        <path d="M113.813,172.667C113.771,172.723 113.715,172.751 113.66,172.751C113.604,172.751 113.548,172.709 113.52,172.667C113.337,172.415 113.057,172.163 112.554,172.163C111.896,172.163 111.727,172.513 111.574,172.513C111.476,172.513 111.447,172.471 111.392,172.401C111.336,172.345 111.28,172.303 111.196,172.303L111.111,172.303C110.958,172.303 110.831,172.429 110.831,172.583L110.831,179.023C110.831,179.177 110.958,179.303 111.111,179.303L111.378,179.303C111.532,179.303 111.658,179.177 111.658,179.023L111.658,173.661C111.658,173.255 112.078,172.989 112.441,172.989C112.806,172.989 113.212,173.255 113.212,173.661L113.212,179.023C113.212,179.177 113.337,179.303 113.491,179.303L113.758,179.303C113.911,179.303 114.038,179.177 114.038,179.023L114.038,173.661C114.038,173.255 114.416,172.989 114.78,172.989C115.143,172.989 115.578,173.171 115.578,173.661L115.578,179.023C115.578,179.177 115.703,179.303 115.857,179.303L116.124,179.303C116.277,179.303 116.404,179.177 116.404,179.023L116.404,173.843C116.404,172.989 115.997,172.163 115.018,172.163C114.318,172.163 113.982,172.457 113.813,172.667Z" style="fill:black;fill-rule:nonzero;"/>
        <path d="M121.233,172.989C122.605,172.989 123.026,174.081 123.11,174.823C123.179,175.397 123.179,176.209 123.11,176.783C123.026,177.525 122.592,178.617 121.233,178.617C119.988,178.617 119.581,177.525 119.512,176.783C119.456,176.209 119.456,175.397 119.512,174.823C119.581,174.081 119.988,172.989 121.233,172.989ZM121.304,172.163C120.268,172.163 120.114,172.625 119.708,172.625C119.568,172.625 119.441,172.499 119.358,172.401C119.301,172.345 119.246,172.303 119.162,172.303L118.938,172.303C118.784,172.303 118.658,172.429 118.658,172.583L118.658,181.823C118.658,181.977 118.784,182.103 118.938,182.103L119.203,182.103C119.358,182.103 119.483,181.977 119.483,181.823L119.483,179.443C119.483,179.177 119.624,179.093 119.806,179.093C120.086,179.093 120.408,179.443 121.304,179.443C122.774,179.443 123.852,178.253 123.964,176.783C124.006,176.223 124.006,175.383 123.964,174.823C123.852,173.353 122.774,172.163 121.304,172.163Z" style="fill:black;fill-rule:nonzero;"/>
        <path d="M129.032,172.163C127.352,172.163 126.316,173.353 126.204,174.823C126.162,175.383 126.162,176.223 126.204,176.783C126.316,178.253 127.352,179.443 129.032,179.443C130.712,179.443 131.748,178.253 131.86,176.783C131.902,176.223 131.902,175.383 131.86,174.823C131.748,173.353 130.712,172.163 129.032,172.163ZM129.032,178.617C127.632,178.617 127.128,177.525 127.058,176.783C127.002,176.209 127.002,175.397 127.058,174.823C127.128,174.081 127.632,172.989 129.032,172.989C130.432,172.989 130.935,174.081 131.006,174.823C131.062,175.397 131.062,176.209 131.006,176.783C130.935,177.525 130.432,178.617 129.032,178.617Z" style="fill:black;fill-rule:nonzero;"/>
        <path d="M134.029,177.021C134.029,178.603 135.331,179.443 136.731,179.443C138.355,179.443 139.42,178.449 139.42,177.273C139.42,175.733 137.837,175.355 136.662,175.145C135.975,175.019 135.108,174.865 135.108,174.095C135.108,173.507 135.752,172.947 136.731,172.947C137.712,172.947 138.328,173.549 138.328,174.263C138.328,174.417 138.454,174.543 138.608,174.543L138.873,174.543C139.027,174.543 139.153,174.417 139.153,174.263C139.153,172.933 137.991,172.163 136.731,172.163C135.457,172.163 134.267,173.003 134.267,174.095C134.267,175.383 135.43,175.803 136.662,175.985C137.515,176.111 138.593,176.391 138.593,177.273C138.593,178.029 137.879,178.631 136.731,178.631C135.695,178.631 134.855,178.043 134.855,177.021C134.855,176.867 134.73,176.741 134.575,176.741L134.31,176.741C134.156,176.741 134.029,176.867 134.029,177.021Z" style="fill:black;fill-rule:nonzero;"/>
        <path d="M145.229,169.629C145.229,169.517 145.132,169.405 145.005,169.405L144.277,169.405C144.151,169.405 144.054,169.517 144.054,169.629L144.054,170.371C144.054,170.497 144.151,170.595 144.277,170.595L145.005,170.595C145.132,170.595 145.229,170.497 145.229,170.371L145.229,169.629ZM144.165,173.143C144.249,173.143 144.305,173.199 144.305,173.283L144.305,178.323C144.305,178.407 144.249,178.463 144.165,178.463L142.275,178.463C142.121,178.463 141.995,178.589 141.995,178.743L141.995,179.023C141.995,179.177 142.121,179.303 142.275,179.303L147.12,179.303C147.273,179.303 147.4,179.177 147.4,179.023L147.4,178.743C147.4,178.589 147.273,178.463 147.12,178.463L145.285,178.463C145.201,178.463 145.145,178.407 145.145,178.323L145.145,172.583C145.145,172.429 145.019,172.303 144.865,172.303L142.415,172.303C142.261,172.303 142.135,172.429 142.135,172.583L142.135,172.863C142.135,173.017 142.261,173.143 142.415,173.143L144.165,173.143Z" style="fill:black;fill-rule:nonzero;"/>
        <path d="M151.627,173.339C151.627,173.255 151.683,173.199 151.767,173.199L154.091,173.199C154.245,173.199 154.371,173.073 154.371,172.919L154.371,172.653C154.371,172.499 154.245,172.373 154.091,172.373L151.767,172.373C151.683,172.373 151.627,172.317 151.627,172.233L151.627,170.063C151.627,169.909 151.501,169.783 151.347,169.783L151.067,169.783C150.913,169.783 150.787,169.909 150.787,170.063L150.787,172.233C150.787,172.317 150.731,172.373 150.647,172.373L149.093,172.373C148.939,172.373 148.813,172.499 148.813,172.653L148.813,172.919C148.813,173.073 148.939,173.199 149.093,173.199L150.647,173.199C150.731,173.199 150.787,173.255 150.787,173.339L150.787,177.203C150.787,178.435 151.725,179.443 152.957,179.443C154.189,179.443 155.099,178.435 155.099,177.203C155.099,177.049 154.973,176.923 154.819,176.923L154.525,176.923C154.371,176.923 154.245,177.049 154.245,177.203C154.245,177.987 153.755,178.603 152.957,178.603C152.243,178.603 151.627,178.043 151.627,177.063L151.627,173.339Z" style="fill:black;fill-rule:nonzero;"/>
        <path d="M157.829,176.279C157.829,176.195 157.885,176.139 157.969,176.139L162.407,176.139C162.561,176.139 162.687,176.013 162.687,175.859L162.687,174.963C162.687,173.423 161.455,172.163 159.887,172.163C158.207,172.163 157.129,173.353 157.017,174.823C156.975,175.383 156.975,176.223 157.017,176.783C157.129,178.253 158.207,179.443 159.887,179.443C161.343,179.443 162.435,178.561 162.603,177.343C162.631,177.147 162.505,177.063 162.365,177.063L162.085,177.063C161.959,177.063 161.819,177.119 161.763,177.301C161.553,177.959 160.965,178.617 159.887,178.617C158.445,178.617 157.829,177.623 157.829,176.279ZM157.857,175.215C157.857,173.787 158.655,172.989 159.901,172.989C161.049,172.989 161.917,173.787 161.917,175.215C161.917,175.299 161.861,175.355 161.777,175.355L157.997,175.355C157.913,175.355 157.857,175.299 157.857,175.215Z" style="fill:black;fill-rule:nonzero;"/>
        <path d="M100.401,221.909C100.318,221.909 100.261,221.951 100.205,222.007C100.121,222.105 99.996,222.231 99.855,222.231C99.449,222.231 99.295,221.769 98.259,221.769C96.789,221.769 95.711,222.959 95.599,224.429C95.557,224.989 95.557,225.829 95.599,226.389C95.711,227.859 96.789,229.049 98.259,229.049C98.904,229.049 99.491,228.699 99.771,228.699C99.967,228.699 100.08,228.825 100.08,229.049L100.08,229.329C100.08,230.169 99.463,231.023 98.413,231.023C97.434,231.023 96.957,230.407 96.776,229.889C96.719,229.735 96.649,229.609 96.411,229.609L96.187,229.609C95.977,229.609 95.893,229.735 95.935,229.931C96.201,231.191 97.294,231.849 98.413,231.849C99.898,231.849 100.905,230.687 100.905,229.329L100.905,222.189C100.905,222.035 100.779,221.909 100.625,221.909L100.401,221.909ZM98.33,222.595C99.575,222.595 99.981,223.687 100.051,224.429C100.107,225.003 100.107,225.815 100.051,226.389C99.981,227.131 99.575,228.223 98.33,228.223C96.971,228.223 96.538,227.131 96.453,226.389C96.383,225.815 96.383,225.003 96.453,224.429C96.538,223.687 96.957,222.595 98.33,222.595Z" style="fill:black;fill-rule:nonzero;"/>
        <path d="M103.929,225.885C103.929,225.801 103.985,225.745 104.069,225.745L108.508,225.745C108.661,225.745 108.788,225.619 108.788,225.465L108.788,224.569C108.788,223.029 107.556,221.769 105.988,221.769C104.307,221.769 103.229,222.959 103.117,224.429C103.075,224.989 103.075,225.829 103.117,226.389C103.229,227.859 104.307,229.049 105.988,229.049C107.443,229.049 108.535,228.167 108.703,226.949C108.732,226.753 108.605,226.669 108.465,226.669L108.185,226.669C108.059,226.669 107.919,226.725 107.863,226.907C107.654,227.565 107.065,228.223 105.988,228.223C104.545,228.223 103.929,227.229 103.929,225.885ZM103.958,224.821C103.958,223.393 104.756,222.595 106.002,222.595C107.149,222.595 108.017,223.393 108.017,224.821C108.017,224.905 107.961,224.961 107.878,224.961L104.098,224.961C104.014,224.961 103.958,224.905 103.958,224.821Z" style="fill:black;fill-rule:nonzero;"/>
        <path d="M112.063,222.231C111.896,222.231 111.812,222.105 111.727,222.007C111.672,221.951 111.616,221.909 111.532,221.909L111.307,221.909C111.154,221.909 111.027,222.035 111.027,222.189L111.027,228.629C111.027,228.783 111.154,228.909 111.307,228.909L111.574,228.909C111.727,228.909 111.854,228.783 111.854,228.629L111.854,224.135C111.854,223.267 112.624,222.595 113.631,222.595C114.64,222.595 115.41,223.029 115.41,224.205L115.41,228.629C115.41,228.783 115.536,228.909 115.69,228.909L115.956,228.909C116.11,228.909 116.236,228.783 116.236,228.629L116.236,224.205C116.236,222.609 115.2,221.769 113.73,221.769C112.694,221.769 112.47,222.231 112.063,222.231Z" style="fill:black;fill-rule:nonzero;"/>
        <path d="M119.33,225.885C119.33,225.801 119.386,225.745 119.47,225.745L123.908,225.745C124.062,225.745 124.188,225.619 124.188,225.465L124.188,224.569C124.188,223.029 122.956,221.769 121.388,221.769C119.708,221.769 118.63,222.959 118.518,224.429C118.476,224.989 118.476,225.829 118.518,226.389C118.63,227.859 119.708,229.049 121.388,229.049C122.843,229.049 123.935,228.167 124.104,226.949C124.132,226.753 124.006,226.669 123.866,226.669L123.586,226.669C123.459,226.669 123.319,226.725 123.264,226.907C123.054,227.565 122.465,228.223 121.388,228.223C119.946,228.223 119.33,227.229 119.33,225.885ZM119.358,224.821C119.358,223.393 120.156,222.595 121.402,222.595C122.55,222.595 123.417,223.393 123.417,224.821C123.417,224.905 123.361,224.961 123.278,224.961L119.498,224.961C119.414,224.961 119.358,224.905 119.358,224.821Z" style="fill:black;fill-rule:nonzero;"/>
        <path d="M131.314,224.149C131.314,224.303 131.44,224.429 131.594,224.429L131.86,224.429C132.014,224.429 132.14,224.303 132.14,224.149C132.14,222.693 131.09,221.769 129.661,221.769C128.625,221.769 128.36,222.231 127.954,222.231C127.814,222.231 127.688,222.105 127.604,222.007C127.548,221.951 127.492,221.909 127.408,221.909L127.184,221.909C127.03,221.909 126.904,222.035 126.904,222.189L126.904,228.629C126.904,228.783 127.03,228.909 127.184,228.909L127.45,228.909C127.604,228.909 127.73,228.783 127.73,228.629L127.73,224.289C127.73,223.309 128.514,222.595 129.522,222.595C130.642,222.595 131.314,223.267 131.314,224.149Z" style="fill:black;fill-rule:nonzero;"/>
        <path d="M138.439,225.535C138.523,225.535 138.58,225.591 138.58,225.675L138.58,226.515C138.58,227.649 137.852,228.265 136.563,228.265C135.682,228.265 134.912,227.789 134.912,226.795C134.912,225.969 135.611,225.535 136.396,225.535L138.439,225.535ZM136.843,222.539C137.824,222.539 138.538,223.169 138.538,224.079L138.538,224.625C138.538,224.709 138.481,224.765 138.397,224.765L136.396,224.765C134.926,224.765 134.086,225.647 134.086,226.809C134.086,227.999 134.912,229.049 136.634,229.049C137.67,229.049 138.23,228.517 138.481,228.517C138.664,228.517 138.692,228.699 138.761,228.811C138.804,228.881 138.873,228.909 138.957,228.909L139.084,228.909C139.237,228.909 139.364,228.783 139.364,228.629L139.364,224.093C139.364,222.497 138.216,221.769 136.843,221.769C135.653,221.769 134.408,222.427 134.408,223.729C134.408,223.897 134.478,224.009 134.688,224.009L134.884,224.009C135.01,224.009 135.206,224.009 135.206,223.771C135.206,223.029 136.003,222.539 136.843,222.539Z" style="fill:black;fill-rule:nonzero;"/>
        <path d="M143.927,222.945C143.927,222.861 143.983,222.805 144.067,222.805L146.391,222.805C146.545,222.805 146.671,222.679 146.671,222.525L146.671,222.259C146.671,222.105 146.545,221.979 146.391,221.979L144.067,221.979C143.983,221.979 143.927,221.923 143.927,221.839L143.927,219.669C143.927,219.515 143.801,219.389 143.647,219.389L143.367,219.389C143.213,219.389 143.087,219.515 143.087,219.669L143.087,221.839C143.087,221.923 143.031,221.979 142.948,221.979L141.394,221.979C141.239,221.979 141.114,222.105 141.114,222.259L141.114,222.525C141.114,222.679 141.239,222.805 141.394,222.805L142.948,222.805C143.031,222.805 143.087,222.861 143.087,222.945L143.087,226.809C143.087,228.041 144.025,229.049 145.257,229.049C146.489,229.049 147.4,228.041 147.4,226.809C147.4,226.655 147.273,226.529 147.12,226.529L146.825,226.529C146.671,226.529 146.545,226.655 146.545,226.809C146.545,227.593 146.055,228.209 145.257,228.209C144.543,228.209 143.927,227.649 143.927,226.669L143.927,222.945Z" style="fill:black;fill-rule:nonzero;"/>
        <path d="M152.131,221.769C150.451,221.769 149.415,222.959 149.303,224.429C149.261,224.989 149.261,225.829 149.303,226.389C149.415,227.859 150.451,229.049 152.131,229.049C153.811,229.049 154.847,227.859 154.959,226.389C155.001,225.829 155.001,224.989 154.959,224.429C154.847,222.959 153.811,221.769 152.131,221.769ZM152.131,228.223C150.731,228.223 150.227,227.131 150.157,226.389C150.101,225.815 150.101,225.003 150.157,224.429C150.227,223.687 150.731,222.595 152.131,222.595C153.531,222.595 154.035,223.687 154.105,224.429C154.161,225.003 154.161,225.815 154.105,226.389C154.035,227.131 153.531,228.223 152.131,228.223Z" style="fill:black;fill-rule:nonzero;"/>
        <path d="M162.113,224.149C162.113,224.303 162.239,224.429 162.393,224.429L162.659,224.429C162.813,224.429 162.939,224.303 162.939,224.149C162.939,222.693 161.889,221.769 160.461,221.769C159.425,221.769 159.159,222.231 158.753,222.231C158.613,222.231 158.487,222.105 158.403,222.007C158.347,221.951 158.291,221.909 158.207,221.909L157.983,221.909C157.829,221.909 157.703,222.035 157.703,222.189L157.703,228.629C157.703,228.783 157.829,228.909 157.983,228.909L158.249,228.909C158.403,228.909 158.529,228.783 158.529,228.629L158.529,224.289C158.529,223.309 159.313,222.595 160.321,222.595C161.441,222.595 162.113,223.267 162.113,224.149Z" style="fill:black;fill-rule:nonzero;"/>
    </g>
    <path d="M82.546,199.879C82.826,198.311 81.832,196.911 79.9,196.911C77.968,196.911 76.89,198.297 76.344,199.823C75.952,200.943 75.546,202.889 75.462,204.023C75.322,205.829 76.47,206.935 78.15,206.935C80.04,206.935 81.132,205.843 81.72,203.967C81.762,203.813 81.664,203.687 81.51,203.687L81.132,203.687C80.978,203.687 80.824,203.813 80.782,203.967C80.502,204.849 79.998,206.039 78.15,206.039C76.638,206.039 76.344,204.835 76.4,204.023C76.484,202.875 76.876,200.971 77.282,199.823C77.66,198.801 78.402,197.807 79.9,197.807C81.314,197.807 81.818,198.815 81.636,199.879C81.608,200.033 81.692,200.159 81.846,200.159L82.196,200.159C82.35,200.159 82.518,200.033 82.546,199.879Z" style="fill:black;fill-rule:nonzero;"/>
    <path d="M87.18,199.683C85.5,199.683 84.394,200.873 83.96,202.343C83.806,202.903 83.624,203.743 83.554,204.303C83.344,205.773 84.31,206.963 85.99,206.963C87.67,206.963 88.776,205.773 89.21,204.303C89.364,203.743 89.546,202.903 89.616,202.343C89.812,200.873 88.86,199.683 87.18,199.683ZM85.99,206.137C84.59,206.137 84.324,205.045 84.408,204.303C84.478,203.729 84.646,202.917 84.814,202.343C85.052,201.601 85.696,200.509 87.18,200.509C88.58,200.509 88.846,201.601 88.762,202.343C88.692,202.917 88.524,203.729 88.356,204.303C88.118,205.045 87.474,206.137 85.99,206.137Z" style="fill:black;fill-rule:nonzero;"/>
    <path d="M95.118,200.187C95.062,200.243 95.006,200.271 94.95,200.271C94.894,200.271 94.838,200.229 94.824,200.187C94.698,199.935 94.39,199.683 93.886,199.683C93.228,199.683 93.06,200.033 92.906,200.033C92.808,200.033 92.794,199.991 92.752,199.921C92.71,199.865 92.668,199.823 92.584,199.823L92.5,199.823C92.346,199.823 92.192,199.949 92.15,200.103L90.792,206.543C90.75,206.697 90.848,206.823 91.002,206.823L91.268,206.823C91.422,206.823 91.576,206.697 91.618,206.543L92.752,201.181C92.836,200.775 93.27,200.509 93.634,200.509C94.082,200.509 94.39,200.775 94.306,201.181L93.172,206.543C93.13,206.697 93.228,206.823 93.382,206.823L93.648,206.823C93.802,206.823 93.956,206.697 93.998,206.543L95.132,201.181C95.216,200.775 95.608,200.509 95.972,200.509C96.42,200.509 96.77,200.691 96.672,201.181L95.538,206.543C95.496,206.697 95.594,206.823 95.748,206.823L96.014,206.823C96.168,206.823 96.322,206.697 96.364,206.543L97.456,201.363C97.638,200.509 97.302,199.683 96.364,199.683C95.664,199.683 95.328,199.977 95.118,200.187Z" style="fill:black;fill-rule:nonzero;"/>
    <path d="M102.692,200.509C104.064,200.509 104.246,201.601 104.176,202.343C104.12,202.917 103.952,203.729 103.77,204.303C103.518,205.045 102.86,206.137 101.502,206.137C100.256,206.137 100.088,205.045 100.172,204.303C100.242,203.729 100.41,202.917 100.578,202.343C100.816,201.601 101.446,200.509 102.692,200.509ZM101.236,200.145C101.068,200.145 101.012,200.019 100.942,199.921C100.9,199.865 100.858,199.823 100.774,199.823L100.55,199.823C100.396,199.823 100.228,199.949 100.2,200.103L98.24,209.343C98.212,209.497 98.296,209.623 98.45,209.623L98.716,209.623C98.87,209.623 99.038,209.497 99.066,209.343L99.612,206.809C99.654,206.627 99.78,206.515 99.976,206.515C100.256,206.515 100.62,206.963 101.502,206.963C103.098,206.963 104.19,205.773 104.624,204.303C104.778,203.743 104.96,202.903 105.03,202.343C105.226,200.873 104.344,199.683 102.748,199.683C101.852,199.683 101.642,200.145 101.236,200.145Z" style="fill:black;fill-rule:nonzero;"/>
    <path d="M110.28,199.683C108.6,199.683 107.494,200.873 107.06,202.343C106.906,202.903 106.724,203.743 106.654,204.303C106.444,205.773 107.41,206.963 109.09,206.963C110.77,206.963 111.876,205.773 112.31,204.303C112.464,203.743 112.646,202.903 112.716,202.343C112.912,200.873 111.96,199.683 110.28,199.683ZM109.09,206.137C107.69,206.137 107.424,205.045 107.508,204.303C107.578,203.729 107.746,202.917 107.914,202.343C108.152,201.601 108.796,200.509 110.28,200.509C111.68,200.509 111.946,201.601 111.862,202.343C111.792,202.917 111.624,203.729 111.456,204.303C111.218,205.045 110.574,206.137 109.09,206.137Z" style="fill:black;fill-rule:nonzero;"/>
    <path d="M114.242,204.541C114.004,206.123 115.25,206.963 116.734,206.963C118.19,206.963 119.632,206.067 119.632,204.583C119.632,203.463 118.694,202.931 117.686,202.735C117.028,202.609 115.936,202.525 115.936,201.713C115.936,200.957 116.706,200.467 117.672,200.467C118.652,200.467 119.268,201.083 119.128,201.769C119.1,201.937 119.198,202.063 119.352,202.063L119.618,202.063C119.772,202.063 119.926,201.937 119.954,201.783C120.234,200.467 118.932,199.683 117.672,199.683C116.118,199.683 115.054,200.691 115.054,201.713C115.054,202.833 115.894,203.211 116.902,203.435C117.574,203.589 118.736,203.673 118.736,204.653C118.736,205.549 117.826,206.165 116.734,206.165C115.656,206.165 114.928,205.619 115.068,204.541C115.082,204.387 114.998,204.261 114.844,204.261L114.578,204.261C114.424,204.261 114.27,204.387 114.242,204.541Z" style="fill:black;fill-rule:nonzero;"/>
    <path d="M127.234,197.149C127.262,197.037 127.192,196.925 127.066,196.925L126.338,196.925C126.212,196.925 126.086,197.037 126.058,197.149L125.904,197.891C125.876,198.017 125.96,198.115 126.086,198.115L126.814,198.115C126.94,198.115 127.052,198.017 127.08,197.891L127.234,197.149ZM125.358,200.663C125.442,200.663 125.484,200.719 125.47,200.803L124.392,205.843C124.378,205.927 124.308,205.983 124.224,205.983L122.334,205.983C122.18,205.983 122.026,206.109 121.998,206.263L121.942,206.543C121.9,206.697 121.998,206.823 122.152,206.823L126.996,206.823C127.15,206.823 127.304,206.697 127.346,206.543L127.402,206.263C127.43,206.109 127.332,205.983 127.178,205.983L125.344,205.983C125.26,205.983 125.218,205.927 125.232,205.843L126.45,200.103C126.478,199.949 126.394,199.823 126.24,199.823L123.79,199.823C123.636,199.823 123.482,199.949 123.44,200.103L123.384,200.383C123.356,200.537 123.454,200.663 123.608,200.663L125.358,200.663Z" style="fill:black;fill-rule:nonzero;"/>
    <path d="M132.89,200.859C132.904,200.775 132.974,200.719 133.058,200.719L135.382,200.719C135.536,200.719 135.69,200.593 135.718,200.439L135.774,200.173C135.816,200.019 135.718,199.893 135.564,199.893L133.24,199.893C133.156,199.893 133.114,199.837 133.128,199.753L133.59,197.583C133.618,197.429 133.52,197.303 133.366,197.303L133.086,197.303C132.932,197.303 132.778,197.429 132.75,197.583L132.288,199.753C132.274,199.837 132.204,199.893 132.12,199.893L130.566,199.893C130.412,199.893 130.258,200.019 130.216,200.173L130.16,200.439C130.132,200.593 130.23,200.719 130.384,200.719L131.938,200.719C132.022,200.719 132.064,200.775 132.05,200.859L131.224,204.723C130.958,205.955 131.672,206.963 133.072,206.963C134.304,206.963 135.284,205.983 135.536,204.723C135.564,204.569 135.466,204.443 135.312,204.443L135.018,204.443C134.864,204.443 134.724,204.569 134.682,204.723C134.514,205.507 133.898,206.123 133.1,206.123C132.386,206.123 131.868,205.661 132.078,204.681L132.89,200.859Z" style="fill:black;fill-rule:nonzero;"/>
    <path d="M142.634,197.149C142.662,197.037 142.592,196.925 142.466,196.925L141.738,196.925C141.612,196.925 141.486,197.037 141.458,197.149L141.304,197.891C141.276,198.017 141.36,198.115 141.486,198.115L142.214,198.115C142.34,198.115 142.452,198.017 142.48,197.891L142.634,197.149ZM140.758,200.663C140.842,200.663 140.884,200.719 140.87,200.803L139.792,205.843C139.778,205.927 139.708,205.983 139.624,205.983L137.734,205.983C137.58,205.983 137.426,206.109 137.398,206.263L137.342,206.543C137.3,206.697 137.398,206.823 137.552,206.823L142.396,206.823C142.55,206.823 142.704,206.697 142.746,206.543L142.802,206.263C142.83,206.109 142.732,205.983 142.578,205.983L140.744,205.983C140.66,205.983 140.618,205.927 140.632,205.843L141.85,200.103C141.878,199.949 141.794,199.823 141.64,199.823L139.19,199.823C139.036,199.823 138.882,199.949 138.84,200.103L138.784,200.383C138.756,200.537 138.854,200.663 139.008,200.663L140.758,200.663Z" style="fill:black;fill-rule:nonzero;"/>
    <path d="M148.78,199.683C147.1,199.683 145.994,200.873 145.56,202.343C145.406,202.903 145.224,203.743 145.154,204.303C144.944,205.773 145.91,206.963 147.59,206.963C149.27,206.963 150.376,205.773 150.81,204.303C150.964,203.743 151.146,202.903 151.216,202.343C151.412,200.873 150.46,199.683 148.78,199.683ZM147.59,206.137C146.19,206.137 145.924,205.045 146.008,204.303C146.078,203.729 146.246,202.917 146.414,202.343C146.652,201.601 147.296,200.509 148.78,200.509C150.18,200.509 150.446,201.601 150.362,202.343C150.292,202.917 150.124,203.729 149.956,204.303C149.718,205.045 149.074,206.137 147.59,206.137Z" style="fill:black;fill-rule:nonzero;"/>
    <path d="M155.038,200.145C154.87,200.145 154.814,200.019 154.744,199.921C154.702,199.865 154.66,199.823 154.576,199.823L154.352,199.823C154.198,199.823 154.03,199.949 154.002,200.103L152.644,206.543C152.616,206.697 152.7,206.823 152.854,206.823L153.12,206.823C153.274,206.823 153.442,206.697 153.47,206.543L154.422,202.049C154.66,200.929 155.514,200.509 156.522,200.509C157.53,200.509 158.216,200.943 157.964,202.119L157.026,206.543C156.998,206.697 157.082,206.823 157.236,206.823L157.502,206.823C157.656,206.823 157.824,206.697 157.852,206.543L158.79,202.119C159.126,200.523 158.062,199.683 156.592,199.683C155.682,199.683 155.444,200.145 155.038,200.145Z" style="fill:black;fill-rule:nonzero;"/>
    <path d="M37.472,158.803L37.473,231.342" style="fill:none;stroke-width:1px;stroke:black;"/>
    <path d="M37.473,243.342L44.473,231.342L30.473,231.342L37.473,243.342Z" style="fill:none;stroke-width:1px;stroke-linecap:butt;stroke-linejoin:miter;stroke:black;"/>
    <path d="M165.032,229.942L165.032,172.053" style="fill:none;stroke-width:1px;stroke:black;"/>
    <path d="M165.032,160.053L160.532,166.053L165.032,172.053L169.532,166.053L165.032,160.053Z" style="fill:none;stroke-width:1px;stroke-linecap:butt;stroke-linejoin:miter;stroke:black;"/>
    <path d="M165.032,241.942L165.032,229.942M169.532,229.942L165.032,241.942L160.532,229.942" style="fill:none;stroke-width:1px;stroke-linecap:butt;stroke-linejoin:miter;stroke:black;"/>
    <g>
        <path d="M171.391,172.303C171.252,173.423 171.252,175.369 171.391,176.503C171.615,178.309 172.651,179.415 174.331,179.415C176.18,179.415 177.104,178.043 177.271,176.503C177.397,175.383 177.412,173.423 177.271,172.303C177.047,170.497 176.011,169.391 174.331,169.391C172.484,169.391 171.574,170.777 171.391,172.303ZM174.331,170.217C175.816,170.217 176.306,171.463 176.418,172.303C176.586,173.479 176.586,175.327 176.418,176.503C176.264,177.525 175.633,178.589 174.331,178.589C172.861,178.589 172.358,177.329 172.246,176.503C172.092,175.327 172.092,173.479 172.246,172.303C172.371,171.267 173.057,170.217 174.331,170.217Z" style="fill:black;fill-rule:nonzero;"/>
        <path d="M180.281,177.959C180.281,177.805 180.155,177.679 180.001,177.679L178.937,177.679C178.783,177.679 178.657,177.805 178.657,177.959L178.657,179.023C178.657,179.177 178.783,179.303 178.937,179.303L180.001,179.303C180.155,179.303 180.281,179.177 180.281,179.023L180.281,177.959ZM182.829,177.959C182.829,177.805 182.703,177.679 182.549,177.679L181.485,177.679C181.331,177.679 181.205,177.805 181.205,177.959L181.205,179.023C181.205,179.177 181.331,179.303 181.485,179.303L182.549,179.303C182.703,179.303 182.829,179.177 182.829,179.023L182.829,177.959ZM185.391,177.959C185.391,177.805 185.265,177.679 185.111,177.679L184.047,177.679C183.893,177.679 183.767,177.805 183.767,177.959L183.767,179.023C183.767,179.177 183.893,179.303 184.047,179.303L185.111,179.303C185.265,179.303 185.391,179.177 185.391,179.023L185.391,177.959Z" style="fill:black;fill-rule:nonzero;"/>
        <path d="M188.163,172.625C187.995,172.625 187.911,172.499 187.827,172.401C187.771,172.345 187.715,172.303 187.631,172.303L187.407,172.303C187.253,172.303 187.127,172.429 187.127,172.583L187.127,179.023C187.127,179.177 187.253,179.303 187.407,179.303L187.673,179.303C187.827,179.303 187.953,179.177 187.953,179.023L187.953,174.529C187.953,173.661 188.723,172.989 189.731,172.989C190.739,172.989 191.509,173.423 191.509,174.599L191.509,179.023C191.509,179.177 191.635,179.303 191.789,179.303L192.055,179.303C192.209,179.303 192.335,179.177 192.335,179.023L192.335,174.599C192.335,173.003 191.299,172.163 189.829,172.163C188.793,172.163 188.569,172.625 188.163,172.625Z" style="fill:black;fill-rule:nonzero;"/>
        <path d="M174.247,235.002C174.247,235.086 174.192,235.142 174.108,235.142L172.008,235.142C171.854,235.142 171.728,235.268 171.728,235.422L171.728,235.716C171.728,235.87 171.854,235.996 172.008,235.996L176.921,235.996C177.075,235.996 177.201,235.87 177.201,235.716L177.201,235.422C177.201,235.268 177.075,235.142 176.921,235.142L175.228,235.142C175.144,235.142 175.087,235.086 175.087,235.002L175.087,226.476C175.087,226.322 174.961,226.196 174.807,226.196L174.373,226.196C174.276,226.196 174.15,226.238 174.093,226.322L172.133,228.786C172.035,228.898 171.854,229.122 171.854,229.36L171.854,229.948C171.854,230.102 172.05,230.186 172.162,230.06L174.121,227.596C174.163,227.554 174.247,227.568 174.247,227.652L174.247,235.002Z" style="fill:black;fill-rule:nonzero;"/>
        <path d="M180.281,234.652C180.281,234.498 180.155,234.372 180.001,234.372L178.937,234.372C178.783,234.372 178.657,234.498 178.657,234.652L178.657,235.716C178.657,235.87 178.783,235.996 178.937,235.996L180.001,235.996C180.155,235.996 180.281,235.87 180.281,235.716L180.281,234.652ZM182.829,234.652C182.829,234.498 182.703,234.372 182.549,234.372L181.485,234.372C181.331,234.372 181.205,234.498 181.205,234.652L181.205,235.716C181.205,235.87 181.331,235.996 181.485,235.996L182.549,235.996C182.703,235.996 182.829,235.87 182.829,235.716L182.829,234.652ZM185.391,234.652C185.391,234.498 185.265,234.372 185.111,234.372L184.047,234.372C183.893,234.372 183.767,234.498 183.767,234.652L183.767,235.716C183.767,235.87 183.893,235.996 184.047,235.996L185.111,235.996C185.265,235.996 185.391,235.87 185.391,235.716L185.391,234.652Z" style="fill:black;fill-rule:nonzero;"/>
        <path d="M188.163,229.318C187.995,229.318 187.911,229.192 187.827,229.094C187.771,229.038 187.715,228.996 187.631,228.996L187.407,228.996C187.253,228.996 187.127,229.122 187.127,229.276L187.127,235.716C187.127,235.87 187.253,235.996 187.407,235.996L187.673,235.996C187.827,235.996 187.953,235.87 187.953,235.716L187.953,231.222C187.953,230.354 188.723,229.682 189.731,229.682C190.739,229.682 191.509,230.116 191.509,231.292L191.509,235.716C191.509,235.87 191.635,235.996 191.789,235.996L192.055,235.996C192.209,235.996 192.335,235.87 192.335,235.716L192.335,231.292C192.335,229.696 191.299,228.856 189.829,228.856C188.793,228.856 188.569,229.318 188.163,229.318Z" style="fill:black;fill-rule:nonzero;"/>
    </g>
</svg>
