<?xml version="1.0" standalone="no"?>
<!DOCTYPE svg PUBLIC "-//W3C//DTD SVG 1.1//EN" "http://www.w3.org/Graphics/SVG/1.1/DTD/svg11.dtd">
<svg width="100%" height="100%" viewBox="0 0 814 463" version="1.1" xmlns="http://www.w3.org/2000/svg" xmlns:xlink="http://www.w3.org/1999/xlink" xml:space="preserve" style="fill-rule:evenodd;clip-rule:evenodd;stroke-linecap:round;stroke-linejoin:round;stroke-miterlimit:10;">
    <rect x="2" y="-528" width="1612" height="1132" style="fill:white;fill-rule:nonzero;"/>
    <path d="M151.608,371.392C157.143,376.927 157.143,385.901 151.608,391.436C146.073,396.971 137.099,396.971 131.564,391.436C126.029,385.901 126.029,376.927 131.564,371.392C137.099,365.857 146.073,365.857 151.608,371.392" style="fill:black;fill-rule:nonzero;"/>
    <path d="M673.459,77.391C678.994,82.926 678.994,91.9 673.459,97.435C667.924,102.97 658.95,102.97 653.415,97.435C647.88,91.9 647.88,82.926 653.415,77.391C658.95,71.856 667.924,71.856 673.459,77.391" style="fill:black;fill-rule:nonzero;"/>
    <path d="M4.835,458.457L809.874,4.913" style="fill:none;stroke-width:3px;stroke:black;"/>
    <g>
        <path d="M109.479,337.585C113.385,337.585 121.405,332.494 124.404,328.1C127.263,323.846 129.634,316.174 129.634,310.944C129.634,306.271 128.03,303.202 125.52,303.202C122.59,303.202 118.894,305.016 115.268,308.294C112.408,310.734 111.013,312.548 108.503,316.662L110.177,308.363C110.386,307.178 110.525,306.132 110.525,305.295C110.525,303.97 109.967,303.202 108.991,303.202C107.526,303.202 104.876,304.667 99.715,308.363L97.763,309.758L98.251,311.153L100.483,309.688C102.435,308.433 103.202,308.084 103.83,308.084C104.528,308.084 105.016,308.712 105.016,309.688C105.016,310.246 104.876,311.641 104.737,312.339L100.692,336.26C99.994,340.444 98.669,346.791 97.274,353.067L96.717,355.648L97.205,356.066C98.669,355.578 100.064,355.229 102.296,354.881L105.225,336.608C106.689,337.097 108.224,337.585 109.479,337.585ZM107.178,325.31C108.712,316.383 116.174,307.247 121.963,307.247C123.776,307.247 124.613,308.782 124.613,311.99C124.613,317.639 121.823,325.938 118.127,331.238C116.732,333.261 114.5,334.307 111.641,334.307C109.479,334.307 107.736,333.819 105.922,332.703L107.178,325.31Z" style="fill:black;fill-rule:nonzero;"/>
        <path d="M153.286,351.67L153.286,349.838L150.639,349.685C147.839,349.532 147.33,348.972 147.33,346.325L147.33,316.44L146.617,316.185C143.308,317.916 139.693,319.444 135.06,321.073L135.416,323.567L135.926,323.567L142.646,320.564C142.951,320.564 143.053,321.022 143.053,322.244L143.053,346.325C143.053,348.972 142.493,349.532 139.744,349.685L136.893,349.838L136.893,351.67C144.733,351.518 144.733,351.518 145.293,351.518C146.871,351.518 152.472,351.67 153.286,351.67Z" style="fill:black;fill-rule:nonzero;"/>
    </g>
    <g>
        <path d="M685.362,150.034C689.268,150.034 697.288,144.942 700.287,140.549C703.146,136.295 705.517,128.623 705.517,123.392C705.517,118.72 703.913,115.651 701.403,115.651C698.474,115.651 694.777,117.465 691.151,120.742C688.291,123.183 686.897,124.997 684.386,129.111L686.06,120.812C686.269,119.626 686.408,118.58 686.408,117.743C686.408,116.418 685.85,115.651 684.874,115.651C683.409,115.651 680.759,117.116 675.598,120.812L673.646,122.207L674.134,123.602L676.366,122.137C678.318,120.882 679.086,120.533 679.713,120.533C680.411,120.533 680.899,121.161 680.899,122.137C680.899,122.695 680.759,124.09 680.62,124.787L676.575,148.708C675.877,152.893 674.552,159.239 673.158,165.516L672.6,168.096L673.088,168.515C674.552,168.027 675.947,167.678 678.179,167.329L681.108,149.057C682.573,149.545 684.107,150.034 685.362,150.034ZM683.061,137.759C684.595,128.832 692.057,119.696 697.846,119.696C699.659,119.696 700.496,121.231 700.496,124.439C700.496,130.088 697.706,138.387 694.01,143.687C692.615,145.71 690.384,146.756 687.524,146.756C685.362,146.756 683.619,146.268 681.805,145.152L683.061,137.759Z" style="fill:black;fill-rule:nonzero;"/>
        <path d="M708.703,160.912L708.703,164.119C718.223,164.119 718.223,163.966 720.056,163.966C721.889,163.966 721.889,164.119 731.715,164.119C731.715,163.05 731.613,162.541 731.613,161.828C731.613,161.166 731.715,160.657 731.715,159.537C725.86,159.792 723.518,159.843 714.1,160.046L723.366,150.22C728.304,144.977 729.831,142.176 729.831,138.358C729.831,132.503 725.86,128.889 719.394,128.889C715.729,128.889 713.234,129.907 710.74,132.452L709.874,139.376L712.114,139.376L712.776,137.034C713.591,134.082 714.66,132.809 718.071,132.809C722.449,132.809 725.249,135.558 725.249,139.885C725.249,143.704 721.533,147.217 715.78,153.326L708.703,160.912Z" style="fill:black;fill-rule:nonzero;"/>
    </g>
</svg>
