<?xml version="1.0" standalone="no"?>
<!DOCTYPE svg PUBLIC "-//W3C//DTD SVG 1.1//EN" "http://www.w3.org/Graphics/SVG/1.1/DTD/svg11.dtd">
<svg width="100%" height="100%" viewBox="0 0 2053 423" version="1.1" xmlns="http://www.w3.org/2000/svg" xmlns:xlink="http://www.w3.org/1999/xlink" xml:space="preserve" style="fill-rule:evenodd;clip-rule:evenodd;stroke-miterlimit:10;">
    <path d="M1035.94,13.416L1144.03,90.57L1201.03,181.444L1035.94,13.416Z" style="fill:rgb(141,141,141);fill-rule:nonzero;"/>
    <path d="M924.748,399.718L900.994,283.584L892.322,107.958L915.775,203.963L924.748,399.718Z" style="fill:rgb(158,158,158);fill-rule:nonzero;"/>
    <path d="M1201.03,181.444L1199.49,372.573L924.748,399.718L915.775,203.963L1201.03,181.444Z" style="fill:white;fill-rule:nonzero;"/>
    <path d="M1035.94,13.416L1201.03,181.444L915.775,203.963L1035.94,13.416Z" style="fill:white;fill-rule:nonzero;"/>
    <path d="M1035.94,13.416L915.775,203.963L892.322,107.958L1035.94,13.416Z" style="fill:rgb(191,191,191);fill-rule:nonzero;"/>
    <path d="M617.554,84.762L760.388,96.036L765.27,188.506L617.554,84.762Z" style="fill:rgb(87,88,106);fill-rule:nonzero;"/>
    <path d="M773.142,269.088L779.533,381.092L765.27,188.506L760.388,96.036L773.142,269.088Z" style="fill:rgb(85,85,104);fill-rule:nonzero;"/>
    <path d="M779.533,381.092L490.146,408.733L464.234,211.452L765.27,188.506L779.533,381.092Z" style="fill:rgb(156,157,187);fill-rule:nonzero;"/>
    <path d="M496.507,113.714L617.554,84.762L464.234,211.452L496.507,113.714Z" style="fill:rgb(105,106,127);fill-rule:nonzero;"/>
    <path d="M765.27,188.506L464.234,211.452L617.554,84.762L765.27,188.506Z" style="fill:rgb(137,138,165);fill-rule:nonzero;"/>
    <path d="M351.973,389.765L47.452,417.916L3.956,219.086L321.327,195.701L351.973,389.765Z" style="fill:white;fill-rule:nonzero;"/>
    <path d="M3.956,219.086L93.989,119.567L370.423,101.593L321.327,195.701L3.956,219.086Z" style="fill:rgb(184,184,184);fill-rule:nonzero;"/>
    <path d="M395.875,275.847L351.973,389.765L321.327,195.701L370.423,101.593L395.875,275.847Z" style="fill:rgb(158,158,158);fill-rule:nonzero;"/>
    <path d="M1904.59,39.55L1919.32,38.531L1939.69,49.039L1907.5,51.312L1887.6,40.727L1904.59,39.55Z" style="fill:rgb(184,184,184);fill-rule:nonzero;"/>
    <path d="M1939.69,49.039L1936.93,68.269L1926.33,142.119L1894.65,144.684L1907.5,51.312L1939.69,49.039Z" style="fill:white;fill-rule:nonzero;"/>
    <path d="M1894.65,144.684L1926.33,142.119L1936.93,68.269L2048.89,167.704L1793.63,189.403L1863.45,3.01L1904.59,39.55L1887.6,40.727L1879.66,100.082L1894.65,144.684Z" style="fill:white;fill-rule:nonzero;"/>
    <path d="M1648.27,269.932L1664.51,96.729L1793.63,189.403L1770.55,382.173L1648.27,269.932Z" style="fill:rgb(158,158,158);fill-rule:nonzero;"/>
    <path d="M1793.63,189.403L2048.89,167.704L2017.42,355.981L1770.55,382.173L1793.63,189.403Z" style="fill:white;fill-rule:nonzero;"/>
    <path d="M1879.66,100.082L1887.6,40.727L1907.5,51.312L1894.65,144.684L1879.66,100.082Z" style="fill:rgb(158,158,158);fill-rule:nonzero;"/>
    <path d="M1793.63,189.403L1664.51,96.729L1863.45,3.01L1793.63,189.403Z" style="fill:rgb(191,191,191);fill-rule:nonzero;"/>
    <path d="M1612.06,364.203L1351.48,390.866L1358.83,196.614L1628.83,174.511L1612.06,364.203Z" style="fill:rgb(156,157,187);fill-rule:nonzero;"/>
    <path d="M1281.6,102.297L1453.37,8.167L1358.83,196.614L1281.6,102.297Z" style="fill:rgb(104,105,126);fill-rule:nonzero;"/>
    <path d="M1281.6,102.297L1358.83,196.614L1351.48,390.866L1277.62,276.703L1281.6,102.297Z" style="fill:rgb(85,85,104);fill-rule:nonzero;"/>
    <path d="M1560.43,109.663L1562.63,109.499L1569.76,115.349L1553.05,116.601L1546.05,110.73L1560.43,109.663Z" style="fill:rgb(133,136,154);fill-rule:nonzero;"/>
    <path d="M1628.83,174.511L1358.83,196.614L1453.37,8.167L1560.43,109.663L1546.05,110.73L1543.91,140.335L1549.65,162.968L1566.22,161.644L1569.53,118.296L1628.83,174.511Z" style="fill:rgb(153,154,185);fill-rule:nonzero;"/>
    <path d="M1549.65,162.968L1543.91,140.335L1546.05,110.73L1553.05,116.601L1549.65,162.968Z" style="fill:rgb(114,117,132);fill-rule:nonzero;"/>
    <path d="M1569.53,118.296L1566.22,161.644L1549.65,162.968L1553.05,116.601L1569.76,115.349L1569.53,118.296Z" style="fill:rgb(205,211,236);fill-rule:nonzero;"/>
    <path d="M1035.94,13.416L1144.03,90.57" style="fill:none;stroke-width:2px;stroke:black;"/>
    <path d="M1035.94,13.416L1201.03,181.444" style="fill:none;stroke-width:2px;stroke:black;"/>
    <path d="M1035.94,13.416L892.322,107.958" style="fill:none;stroke-width:2px;stroke:black;"/>
    <path d="M1035.94,13.416L915.775,203.963" style="fill:none;stroke-width:2px;stroke:black;"/>
    <path d="M892.322,107.958L915.775,203.963" style="fill:none;stroke-width:2px;stroke:black;"/>
    <path d="M915.775,203.963L1201.03,181.444" style="fill:none;stroke-width:2px;stroke:black;"/>
    <path d="M617.554,84.762L760.388,96.036" style="fill:none;stroke-width:2px;stroke:black;"/>
    <path d="M617.554,84.762L765.27,188.506" style="fill:none;stroke-width:2px;stroke:black;"/>
    <path d="M617.554,84.762L496.507,113.714" style="fill:none;stroke-width:2px;stroke:black;"/>
    <path d="M617.554,84.762L464.234,211.452" style="fill:none;stroke-width:2px;stroke:black;"/>
    <path d="M496.507,113.714L464.234,211.452" style="fill:none;stroke-width:2px;stroke:black;"/>
    <path d="M464.234,211.452L765.27,188.506" style="fill:none;stroke-width:2px;stroke:black;"/>
    <path d="M351.973,389.765L395.875,275.847" style="fill:none;stroke-width:2px;stroke:black;"/>
    <path d="M47.452,417.916L351.973,389.765" style="fill:none;stroke-width:2px;stroke:black;"/>
    <path d="M47.452,417.916L3.956,219.086" style="fill:none;stroke-width:2px;stroke:black;"/>
    <path d="M351.973,389.765L321.327,195.701" style="fill:none;stroke-width:2px;stroke:black;"/>
    <path d="M3.956,219.086L321.327,195.701" style="fill:none;stroke-width:2px;stroke:black;"/>
    <path d="M395.875,275.847L370.423,101.593" style="fill:none;stroke-width:2px;stroke:black;"/>
    <path d="M370.423,101.593L93.989,119.567" style="fill:none;stroke-width:2px;stroke:black;"/>
    <path d="M93.989,119.567L3.956,219.086" style="fill:none;stroke-width:2px;stroke:black;"/>
    <path d="M779.533,381.092L773.142,269.088" style="fill:none;stroke-width:2px;stroke:rgb(47,47,47);"/>
    <path d="M490.146,408.733L779.533,381.092" style="fill:none;stroke-width:2px;stroke:rgb(47,47,47);"/>
    <path d="M490.146,408.733L464.234,211.452" style="fill:none;stroke-width:2px;stroke:rgb(47,47,47);"/>
    <path d="M779.533,381.092L765.27,188.506" style="fill:none;stroke-width:2px;stroke:rgb(47,47,47);"/>
    <path d="M773.142,269.088L760.388,96.036" style="fill:none;stroke-width:2px;stroke:rgb(47,47,47);"/>
    <path d="M900.994,283.584L924.748,399.718" style="fill:none;stroke-width:2px;stroke:black;"/>
    <path d="M924.748,399.718L1199.49,372.573" style="fill:none;stroke-width:2px;stroke:black;"/>
    <path d="M900.994,283.584L892.322,107.958" style="fill:none;stroke-width:2px;stroke:black;"/>
    <path d="M924.748,399.718L915.775,203.963" style="fill:none;stroke-width:2px;stroke:black;"/>
    <path d="M1199.49,372.573L1201.03,181.444" style="fill:none;stroke-width:2px;stroke:black;"/>
    <path d="M1648.27,269.932L1770.55,382.173" style="fill:none;stroke-width:2px;stroke:black;"/>
    <path d="M1770.55,382.173L2017.42,355.981" style="fill:none;stroke-width:2px;stroke:black;"/>
    <path d="M1648.27,269.932L1664.51,96.729" style="fill:none;stroke-width:2px;stroke:black;"/>
    <path d="M1770.55,382.173L1793.63,189.403" style="fill:none;stroke-width:2px;stroke:black;"/>
    <path d="M2017.42,355.981L2048.89,167.704" style="fill:none;stroke-width:2px;stroke:black;"/>
    <path d="M1664.51,96.729L1793.63,189.403" style="fill:none;stroke-width:2px;stroke:black;"/>
    <path d="M1793.63,189.403L2048.89,167.704" style="fill:none;stroke-width:2px;stroke:black;"/>
    <path d="M1863.45,3.01L1904.59,39.55" style="fill:none;stroke-width:2px;stroke:black;"/>
    <path d="M1936.93,68.269L2048.89,167.704" style="fill:none;stroke-width:2px;stroke:black;"/>
    <path d="M1863.45,3.01L1664.51,96.729" style="fill:none;stroke-width:2px;stroke:black;"/>
    <path d="M1863.45,3.01L1793.63,189.403" style="fill:none;stroke-width:2px;stroke:black;"/>
    <path d="M1907.5,51.312L1887.6,40.727" style="fill:none;stroke-width:2px;stroke:black;"/>
    <path d="M1919.32,38.531L1939.69,49.039" style="fill:none;stroke-width:2px;stroke:black;"/>
    <path d="M1939.69,49.039L1907.5,51.312" style="fill:none;stroke-width:2px;stroke:black;"/>
    <path d="M1879.66,100.082L1887.6,40.727" style="fill:none;stroke-width:2px;stroke:black;"/>
    <path d="M1894.65,144.684L1907.5,51.312" style="fill:none;stroke-width:2px;stroke:black;"/>
    <path d="M1879.66,100.082L1894.65,144.684" style="fill:none;stroke-width:2px;stroke:black;"/>
    <path d="M1894.65,144.684L1926.33,142.119" style="fill:none;stroke-width:2px;stroke:black;"/>
    <path d="M1277.62,276.703L1351.48,390.866" style="fill:none;stroke-width:2px;stroke:black;"/>
    <path d="M1351.48,390.866L1612.06,364.203" style="fill:none;stroke-width:2px;stroke:black;"/>
    <path d="M1277.62,276.703L1281.6,102.297" style="fill:none;stroke-width:2px;stroke:black;"/>
    <path d="M1351.48,390.866L1358.83,196.614" style="fill:none;stroke-width:2px;stroke:black;"/>
    <path d="M1612.06,364.203L1628.83,174.511" style="fill:none;stroke-width:2px;stroke:black;"/>
    <path d="M1281.6,102.297L1358.83,196.614" style="fill:none;stroke-width:2px;stroke:black;"/>
    <path d="M1358.83,196.614L1628.83,174.511" style="fill:none;stroke-width:2px;stroke:black;"/>
    <path d="M1453.37,8.167L1560.43,109.663" style="fill:none;stroke-width:2px;stroke:black;"/>
    <path d="M1569.53,118.296L1628.83,174.511" style="fill:none;stroke-width:2px;stroke:black;"/>
    <path d="M1453.37,8.167L1281.6,102.297" style="fill:none;stroke-width:2px;stroke:black;"/>
    <path d="M1453.37,8.167L1358.83,196.614" style="fill:none;stroke-width:2px;stroke:black;"/>
    <path d="M1553.05,116.601L1546.05,110.73" style="fill:none;stroke-width:2px;stroke:black;"/>
    <path d="M1569.76,115.349L1562.63,109.499" style="fill:none;stroke-width:2px;stroke:black;"/>
    <path d="M1569.76,115.349L1553.05,116.601" style="fill:none;stroke-width:2px;stroke:black;"/>
    <path d="M1566.22,161.644L1549.65,162.968" style="fill:none;stroke-width:2px;stroke:black;"/>
    <path d="M1543.91,140.335L1549.65,162.968" style="fill:none;stroke-width:2px;stroke:black;"/>
    <path d="M1549.65,162.968L1553.05,116.601" style="fill:none;stroke-width:2px;stroke:black;"/>
    <path d="M1543.91,140.335L1546.05,110.73" style="fill:none;stroke-width:2px;stroke:black;"/>
    <path d="M1887.6,40.727L1904.59,39.55" style="fill:none;stroke-width:2px;stroke:black;"/>
    <path d="M1904.59,39.55L1919.32,38.531" style="fill:none;stroke-width:2px;stroke:black;"/>
    <path d="M1926.33,142.119L1936.93,68.269" style="fill:none;stroke-width:2px;stroke:black;"/>
    <path d="M1936.93,68.269L1939.69,49.039" style="fill:none;stroke-width:2px;stroke:black;"/>
    <path d="M1546.05,110.73L1560.43,109.663" style="fill:none;stroke-width:2px;stroke:black;"/>
    <path d="M1560.43,109.663L1562.63,109.499" style="fill:none;stroke-width:2px;stroke:black;"/>
    <path d="M1569.76,115.349L1569.53,118.296" style="fill:none;stroke-width:2px;stroke:black;"/>
    <path d="M1569.53,118.296L1566.22,161.644" style="fill:none;stroke-width:2px;stroke:black;"/>
    <path d="M321.327,195.701L370.423,101.593" style="fill:none;stroke-width:2px;stroke:black;"/>
    <path d="M760.388,96.036L765.27,188.506" style="fill:none;stroke-width:2px;stroke:rgb(47,47,47);"/>
    <path d="M1201.03,181.444L1144.03,90.57" style="fill:none;stroke-width:2px;stroke:black;"/>
    <path d="M3.956,219.086L201.774,155.663" style="fill:none;stroke-width:2px;stroke:black;"/>
    <path d="M321.327,195.701L201.774,155.663" style="fill:none;stroke-width:2px;stroke:black;"/>
    <path d="M201.774,155.663L324.83,116.21" style="fill:none;stroke-width:2px;stroke:black;"/>
    <path d="M201.774,155.663L93.989,119.567" style="fill:none;stroke-width:2px;stroke:black;"/>
    <path d="M201.774,155.663L1035.94,13.416" style="fill:none;stroke-width:2px;stroke:rgb(255,38,0);"/>
    <path d="M324.83,116.21L370.423,101.593" style="fill:none;stroke-width:2px;stroke:black;"/>
    <path d="M395.875,275.847L472.511,274.474" style="fill:none;stroke-width:2px;stroke:rgb(255,38,0);"/>
    <path d="M773.142,269.088L900.166,266.813" style="fill:none;stroke-width:2px;stroke:rgb(255,38,0);"/>
    <path d="M47.452,417.916L924.748,399.718" style="fill:none;stroke-width:2px;stroke:rgb(255,38,0);"/>
    <path d="M900.994,283.584L774.101,285.902" style="fill:none;stroke-width:2px;stroke:rgb(255,38,0);"/>
    <path d="M474.731,291.372L389.29,292.933" style="fill:none;stroke-width:2px;stroke:rgb(255,38,0);"/>
    <path d="M892.322,107.958L761.118,109.866" style="fill:none;stroke-width:2px;stroke:rgb(204,38,16);"/>
    <path d="M324.83,116.21L93.989,119.567" style="fill:none;stroke-width:2px;stroke:rgb(204,38,16);"/>
    <path d="M496.507,113.714L324.83,116.21" style="fill:none;stroke-width:2px;stroke:rgb(204,38,16);"/>
    <path d="M915.775,203.963L464.234,211.452" style="fill:none;stroke-width:2px;stroke:rgb(204,38,16);"/>
    <path d="M464.234,211.452L3.956,219.086" style="fill:none;stroke-width:2px;stroke:rgb(204,38,16);"/>
    <path d="M913.752,93.851L760.388,96.036" style="fill:none;stroke-width:2px;stroke:rgb(204,38,16);"/>
    <path d="M911.42,186.137L765.27,188.506" style="fill:none;stroke-width:2px;stroke:rgb(204,38,16);"/>
    <path d="M470.231,193.288L321.327,195.701" style="fill:none;stroke-width:2px;stroke:rgb(204,38,16);"/>
    <path d="M558.382,98.915L370.423,101.593" style="fill:none;stroke-width:2px;stroke:rgb(204,38,16);"/>
    <path d="M1907.5,51.312L1553.05,116.601" style="fill:none;stroke-width:2px;stroke:rgb(255,38,0);"/>
    <path d="M1887.6,40.727L1546.05,110.73" style="fill:none;stroke-width:2px;stroke:rgb(255,38,0);"/>
    <path d="M1887.03,44.954L1562.63,109.499" style="fill:none;stroke-width:2px;stroke:rgb(255,38,0);"/>
    <path d="M1815.48,107.776L1568.07,137.439" style="fill:none;stroke-width:2px;stroke:rgb(255,38,0);"/>
    <path d="M1795.18,149.956L1549.65,162.968" style="fill:none;stroke-width:2px;stroke:rgb(255,38,0);"/>
    <path d="M1791.45,149.432L1566.22,161.644" style="fill:none;stroke-width:2px;stroke:rgb(255,38,0);"/>
    <path d="M1810.47,109.565L1568.01,138.161" style="fill:none;stroke-width:2px;stroke:rgb(255,38,0);"/>
    <path d="M1903.51,55.525L1569.76,115.349" style="fill:none;stroke-width:2px;stroke:rgb(255,38,0);"/>
    <path d="M1863.45,3.01L1035.94,13.416" style="fill:none;stroke-width:2px;stroke:rgb(255,38,0);"/>
    <path d="M1152.56,104.174L1281.6,102.297" style="fill:none;stroke-width:2px;stroke:rgb(255,38,0);"/>
    <path d="M1548.56,98.416L1664.51,96.729" style="fill:none;stroke-width:2px;stroke:rgb(255,38,0);"/>
    <path d="M915.775,203.963L1793.63,189.403" style="fill:none;stroke-width:2px;stroke:rgb(255,38,0);"/>
    <path d="M924.748,399.718L1770.55,382.173" style="fill:none;stroke-width:2px;stroke:rgb(255,38,0);"/>
    <path d="M1769.7,172.228L1628.83,174.511" style="fill:none;stroke-width:2px;stroke:rgb(255,38,0);"/>
    <path d="M1344.5,179.119L1201.03,181.444" style="fill:none;stroke-width:2px;stroke:rgb(255,38,0);"/>
    <path d="M1144.03,90.57L1307.25,88.244" style="fill:none;stroke-width:2px;stroke:rgb(255,38,0);"/>
    <path d="M1534.42,85.007L1694.23,82.73" style="fill:none;stroke-width:2px;stroke:rgb(255,38,0);"/>
    <path d="M1200.39,261.435L1278,260.045" style="fill:none;stroke-width:2px;stroke:rgb(255,38,0);"/>
    <path d="M1621.81,253.886L1649.82,253.384" style="fill:none;stroke-width:2px;stroke:rgb(255,38,0);"/>
    <path d="M351.973,389.765L487.294,387.02" style="fill:none;stroke-width:2px;stroke:rgb(255,38,0);"/>
    <path d="M779.533,381.092L920.354,378.235" style="fill:none;stroke-width:2px;stroke:rgb(255,38,0);"/>
    <path d="M1199.49,372.573L1337.83,369.766" style="fill:none;stroke-width:2px;stroke:rgb(255,38,0);"/>
    <path d="M1612.06,364.203L1747.97,361.446" style="fill:none;stroke-width:2px;stroke:rgb(255,38,0);"/>
    <path d="M1648.27,269.932L1620.35,270.442" style="fill:none;stroke-width:2px;stroke:rgb(255,38,0);"/>
    <path d="M1277.62,276.703L1200.25,278.117" style="fill:none;stroke-width:2px;stroke:rgb(255,38,0);"/>
    <path d="M1553.05,116.601L1408.2,143.283" style="fill:none;stroke-width:2px;stroke:rgb(255,38,0);"/>
    <path d="M1377.63,148.914L1201.03,181.444" style="fill:none;stroke-width:2px;stroke:rgb(255,38,0);"/>
    <path d="M1546.05,110.73L1439.87,132.491" style="fill:none;stroke-width:2px;stroke:rgb(255,38,0);"/>
    <path d="M1374.85,145.819L1201.03,181.444" style="fill:none;stroke-width:2px;stroke:rgb(255,38,0);"/>
    <path d="M1551.72,118.582L1418.19,142.517" style="fill:none;stroke-width:2px;stroke:rgb(255,38,0);"/>
    <path d="M1375.22,150.219L1201.03,181.444" style="fill:none;stroke-width:2px;stroke:rgb(255,38,0);"/>
    <path d="M1545.9,112.828L1451.49,131.612" style="fill:none;stroke-width:2px;stroke:rgb(255,38,0);"/>
    <path d="M1372.62,147.304L1201.03,181.444" style="fill:none;stroke-width:2px;stroke:rgb(255,38,0);"/>
    <path d="M1355.81,163.189L1201.03,181.444" style="fill:none;stroke-width:2px;stroke:rgb(255,38,0);"/>
    <path d="M1562.63,109.499L1546.16,110.727" style="fill:none;stroke-width:2px;stroke:black;"/>
    <path d="M1349.9,173.373L1201.03,181.444" style="fill:none;stroke-width:2px;stroke:rgb(255,38,0);"/>
    <path d="M1350.56,173.519L1201.03,181.444" style="fill:none;stroke-width:2px;stroke:rgb(255,38,0);"/>
    <path d="M1356.85,163.763L1201.03,182.444" style="fill:none;stroke-width:2px;stroke:rgb(255,38,0);"/>
</svg>
