<?xml version="1.0" standalone="no"?>
<!DOCTYPE svg PUBLIC "-//W3C//DTD SVG 1.1//EN" "http://www.w3.org/Graphics/SVG/1.1/DTD/svg11.dtd">
<svg width="100%" height="100%" viewBox="0 0 290 194" version="1.1" xmlns="http://www.w3.org/2000/svg" xmlns:xlink="http://www.w3.org/1999/xlink" xml:space="preserve" style="fill-rule:evenodd;clip-rule:evenodd;stroke-linejoin:round;stroke-miterlimit:10;">
    <g id="Trimado">
        <rect x="0.6" y="128.6" width="64" height="64" style="fill:rgb(212,212,212);stroke-width:1.2px;stroke:black;"/>
        <path d="M144.6,48.6L112.6,80.6L112.6,144.6L176.6,144.6L176.6,80.6L144.6,48.6Z" style="fill:rgb(212,212,212);stroke-width:1.2px;stroke:black;"/>
        <path d="M256.6,0.6L224.6,32.6L224.6,96.6L288.6,96.6L288.6,32.6L256.6,0.6Z" style="fill:rgb(212,212,212);stroke-width:1.2px;stroke:black;"/>
        <path d="M272.6,16.6L272.6,0.6L280.6,0.6L280.6,24.6L272.6,16.6Z" style="fill:rgb(212,212,212);stroke-width:1.2px;stroke:black;"/>
        <path d="M112.6,80.6L0.6,128.6" style="fill:rgb(212,212,212);stroke-width:0.4px;stroke:black;"/>
        <path d="M176.6,80.6L64.6,128.6" style="fill:rgb(212,212,212);stroke-width:0.4px;stroke:black;"/>
        <path d="M176.6,144.6L64.6,192.6" style="fill:rgb(212,212,212);stroke-width:0.4px;stroke:black;"/>
        <path d="M112.6,144.6L0.6,192.6" style="fill:rgb(212,212,212);stroke-width:0.4px;stroke:black;"/>
        <path d="M256.6,0.6L144.6,48.6" style="fill:rgb(212,212,212);stroke-width:0.4px;stroke:black;"/>
        <path d="M112.6,80.6L224.6,32.6" style="fill:rgb(212,212,212);stroke-width:0.4px;stroke:black;"/>
        <path d="M288.6,32.6L176.6,80.6" style="fill:rgb(212,212,212);stroke-width:0.4px;stroke:black;"/>
        <path d="M224.6,96.6L112.6,144.6" style="fill:rgb(212,212,212);stroke-width:0.4px;stroke:black;"/>
        <path d="M288.6,96.6L176.6,144.6" style="fill:rgb(212,212,212);stroke-width:0.4px;stroke:black;"/>
        <path d="M108.919,84.6L78.932,85.082L70.611,99.276L70.611,163.276L125.083,166.679L124.849,102.779L108.919,84.6Z" style="fill:none;stroke-width:0.8px;stroke-dasharray:4,4;stroke:rgb(0,100,0);"/>
        <path d="M144.6,48.6L64.6,128.6" style="fill:none;stroke-width:0.4px;stroke:black;"/>
        <path d="M144.6,48.6L0.6,128.6" style="fill:none;stroke-width:0.4px;stroke:black;"/>
        <path d="M231.589,50.991L231.542,38.337L213.075,23.672L210.622,32.094L206.382,22.122L179.253,52.715L179.253,116.715L233.725,120.118L233.491,56.218L231.589,50.991Z" style="fill:none;stroke-width:0.8px;stroke-dasharray:4,4;stroke:rgb(0,100,0);"/>
        <path d="M272.6,0.6L144.6,48.6" style="fill:none;stroke-width:0.4px;stroke:black;"/>
        <path d="M280.6,24.6L176.6,80.6" style="fill:none;stroke-width:0.4px;stroke:black;"/>
        <path d="M272.6,16.6L144.6,48.6" style="fill:none;stroke-width:0.4px;stroke:black;"/>
        <path d="M280.6,0.6L176.6,80.6" style="fill:none;stroke-width:0.4px;stroke:black;"/>
    </g>
</svg>
