<?xml version="1.0" standalone="no"?>
<!DOCTYPE svg PUBLIC "-//W3C//DTD SVG 1.1//EN" "http://www.w3.org/Graphics/SVG/1.1/DTD/svg11.dtd">
<svg width="100%" height="100%" viewBox="0 0 290 194" version="1.1" xmlns="http://www.w3.org/2000/svg" xmlns:xlink="http://www.w3.org/1999/xlink" xml:space="preserve" style="fill-rule:evenodd;clip-rule:evenodd;stroke-linejoin:round;stroke-miterlimit:10;">
    <g id="Trimado">
        <rect x="0.6" y="128.6" width="64" height="64" style="fill:rgb(212,212,212);stroke-width:1.2px;stroke:black;"/>
        <path d="M144.6,48.6L112.6,80.6L112.6,144.6L176.6,144.6L176.6,80.6L144.6,48.6Z" style="fill:rgb(212,212,212);stroke-width:1.2px;stroke:black;"/>
        <path d="M256.6,0.6L224.6,32.6L224.6,96.6L288.6,96.6L288.6,32.6L256.6,0.6Z" style="fill:rgb(212,212,212);stroke-width:1.2px;stroke:black;"/>
        <path d="M272.6,16.6L272.6,0.6L280.6,0.6L280.6,24.6L272.6,16.6Z" style="fill:rgb(212,212,212);stroke-width:1.2px;stroke:black;"/>
        <path d="M112.6,80.6L176.6,80.6" style="fill:rgb(212,212,212);stroke-width:1.2px;stroke-dasharray:4,4;stroke:rgb(255,0,0);"/>
        <path d="M112.6,80.6L0.6,128.6" style="fill:rgb(212,212,212);stroke-width:0.4px;stroke:black;"/>
        <path d="M176.6,80.6L64.6,128.6" style="fill:rgb(212,212,212);stroke-width:0.4px;stroke:black;"/>
        <path d="M176.6,144.6L64.6,192.6" style="fill:rgb(212,212,212);stroke-width:0.4px;stroke:black;"/>
        <path d="M112.6,144.6L0.6,192.6" style="fill:rgb(212,212,212);stroke-width:0.4px;stroke:black;"/>
        <path d="M256.6,0.6L144.6,48.6" style="fill:rgb(212,212,212);stroke-width:0.4px;stroke:black;"/>
        <path d="M112.6,80.6L224.6,32.6" style="fill:rgb(212,212,212);stroke-width:0.4px;stroke:black;"/>
        <path d="M288.6,32.6L176.6,80.6" style="fill:rgb(212,212,212);stroke-width:0.4px;stroke:black;"/>
        <path d="M224.6,96.6L112.6,144.6" style="fill:rgb(212,212,212);stroke-width:0.4px;stroke:black;"/>
        <path d="M288.6,96.6L176.6,144.6" style="fill:rgb(212,212,212);stroke-width:0.4px;stroke:black;"/>
        <path d="M214.731,18.504L182.731,50.504L182.731,114.504L246.731,114.504L246.731,50.504L214.731,18.504Z" style="fill:none;stroke-width:1.2px;stroke-dasharray:4,4;stroke:rgb(0,100,0);"/>
        <path d="M224.6,32.6L288.6,32.6" style="fill:rgb(212,212,212);stroke-width:1.2px;stroke-dasharray:4,4;stroke:rgb(255,0,0);"/>
        <rect x="56.324" y="105.117" width="64" height="64" style="fill:none;stroke-width:1.2px;stroke-dasharray:4,4;stroke:rgb(0,100,0);"/>
        <path d="M182.731,50.504L246.731,50.504" style="fill:none;stroke-width:1.2px;stroke-dasharray:4,4;stroke:rgb(0,100,0);"/>
    </g>
</svg>
