<?xml version="1.0" standalone="no"?>
<!DOCTYPE svg PUBLIC "-//W3C//DTD SVG 1.1//EN" "http://www.w3.org/Graphics/SVG/1.1/DTD/svg11.dtd">
<svg width="100%" height="100%" viewBox="0 0 2076 763" version="1.1" xmlns="http://www.w3.org/2000/svg" xmlns:xlink="http://www.w3.org/1999/xlink" xml:space="preserve" style="fill-rule:evenodd;clip-rule:evenodd;stroke-miterlimit:10;">
    <path d="M1742.05,4.163L2070.54,259.614L1668.3,296.776L1742.05,4.163Z" style="fill:white;fill-rule:nonzero;"/>
    <path d="M1413.04,199.568L1742.05,4.163L1668.3,296.776L1413.04,199.568Z" style="fill:rgb(198,198,198);fill-rule:nonzero;"/>
    <path d="M2018.83,589.18L1634.09,649.482L1668.3,296.776L2070.54,259.614L2018.83,589.18Z" style="fill:white;fill-rule:nonzero;"/>
    <path d="M1396.29,490.722L1413.04,199.568L1668.3,296.776L1634.09,649.482L1396.29,490.722Z" style="fill:rgb(178,178,178);fill-rule:nonzero;"/>
    <path d="M81.769,242.701L549.585,212.92L597.702,317.544L5.505,365.102L81.769,242.701Z" style="fill:rgb(175,175,175);fill-rule:nonzero;"/>
    <path d="M5.505,365.102L597.702,317.544L621.478,682.973L66.969,759.111L5.505,365.102Z" style="fill:white;fill-rule:nonzero;"/>
    <path d="M1125.73,112.059L1214.84,148.54L979.65,162.627L912.703,123.318L1125.73,112.059Z" style="fill:rgb(94,95,114);fill-rule:nonzero;"/>
    <path d="M1359.25,633.452L897.925,700.981L890.204,328.749L1377.61,286.869L1359.25,633.452Z" style="fill:rgb(155,156,186);fill-rule:nonzero;"/>
    <path d="M781.339,220.035L912.703,123.318L979.65,162.627L890.204,328.749L781.339,220.035Z" style="fill:rgb(108,109,130);fill-rule:nonzero;"/>
    <path d="M781.339,220.035L890.204,328.749L897.925,700.981L792.502,524.425L781.339,220.035Z" style="fill:rgb(97,97,117);fill-rule:nonzero;"/>
    <path d="M890.204,328.749L979.65,162.627L1214.84,148.54L1377.61,286.869L890.204,328.749Z" style="fill:rgb(149,150,179);fill-rule:nonzero;"/>
    <path d="M1742.05,4.163L2070.54,259.614" style="fill:none;stroke-width:1.5px;stroke:black;"/>
    <path d="M1742.05,4.163L1413.04,199.568" style="fill:none;stroke-width:1.5px;stroke:black;"/>
    <path d="M1742.05,4.163L1668.3,296.776" style="fill:none;stroke-width:0.75px;stroke:black;"/>
    <path d="M1413.04,199.568L1668.3,296.776" style="fill:none;stroke-width:1.5px;stroke:black;"/>
    <path d="M1668.3,296.776L2070.54,259.614" style="fill:none;stroke-width:1.5px;stroke:black;"/>
    <path d="M66.969,759.111L621.478,682.973" style="fill:none;stroke-width:1.5px;stroke:black;"/>
    <path d="M66.969,759.111L5.505,365.102" style="fill:none;stroke-width:1.5px;stroke:black;"/>
    <path d="M621.478,682.973L597.702,317.544" style="fill:none;stroke-width:1.5px;stroke:black;"/>
    <path d="M5.505,365.102L597.702,317.544" style="fill:none;stroke-width:0.75px;stroke:black;"/>
    <path d="M549.585,212.92L81.769,242.701" style="fill:none;stroke-width:1.5px;stroke:black;"/>
    <path d="M81.769,242.701L5.505,365.102" style="fill:none;stroke-width:1.5px;stroke:black;"/>
    <path d="M792.502,524.425L897.925,700.981" style="fill:none;stroke-width:1.5px;stroke:rgb(47,47,47);"/>
    <path d="M897.925,700.981L1359.25,633.452" style="fill:none;stroke-width:1.5px;stroke:rgb(47,47,47);"/>
    <path d="M792.502,524.425L781.339,220.035" style="fill:none;stroke-width:1.5px;stroke:rgb(47,47,47);"/>
    <path d="M897.925,700.981L890.204,328.749" style="fill:none;stroke-width:0.75px;stroke:rgb(47,47,47);"/>
    <path d="M1359.25,633.452L1377.61,286.869" style="fill:none;stroke-width:1.5px;stroke:rgb(47,47,47);"/>
    <path d="M1377.61,286.869L890.204,328.749" style="fill:none;stroke-width:1.5px;stroke:rgb(47,47,47);"/>
    <path d="M1396.29,490.722L1634.09,649.482" style="fill:none;stroke-width:1.5px;stroke:black;"/>
    <path d="M1634.09,649.482L2018.83,589.18" style="fill:none;stroke-width:1.5px;stroke:black;"/>
    <path d="M1396.29,490.722L1413.04,199.568" style="fill:none;stroke-width:1.5px;stroke:black;"/>
    <path d="M1634.09,649.482L1668.3,296.776" style="fill:none;stroke-width:0.75px;stroke:black;"/>
    <path d="M2018.83,589.18L2070.54,259.614" style="fill:none;stroke-width:1.5px;stroke:black;"/>
    <path d="M912.703,123.318L781.339,220.035" style="fill:none;stroke-width:1.5px;stroke:black;"/>
    <path d="M912.703,123.318L979.65,162.627" style="fill:none;stroke-width:0.75px;stroke:black;"/>
    <path d="M1214.84,148.54L1377.61,286.869" style="fill:none;stroke-width:1.5px;stroke:black;"/>
    <path d="M1214.84,148.54L979.65,162.627" style="fill:none;stroke-width:0.75px;stroke:black;"/>
    <path d="M1125.73,112.059L912.703,123.318" style="fill:none;stroke-width:1.5px;stroke:black;"/>
    <path d="M1214.84,148.54L1125.73,112.059" style="fill:none;stroke-width:1.5px;stroke:black;"/>
    <path d="M890.204,328.749L979.65,162.627" style="fill:none;stroke-width:0.75px;stroke:black;"/>
    <path d="M597.702,317.544L549.585,212.92" style="fill:none;stroke-width:1.5px;stroke:black;"/>
    <path d="M890.204,328.749L781.339,220.035" style="fill:none;stroke-width:1.5px;stroke:black;"/>
    <path d="M610.263,510.602L791.636,500.808" style="fill:none;stroke-width:1.5px;stroke:rgb(255,38,0);"/>
    <path d="M1367.93,469.687L1397.59,468.085" style="fill:none;stroke-width:1.5px;stroke:rgb(255,38,0);"/>
    <path d="M1587.16,618.154L1359.25,633.452" style="fill:none;stroke-width:1.5px;stroke:rgb(255,38,0);"/>
    <path d="M876.934,665.826L621.478,682.973" style="fill:none;stroke-width:1.5px;stroke:rgb(255,38,0);"/>
    <path d="M66.969,759.111L1634.09,649.482" style="fill:none;stroke-width:1.5px;stroke:rgb(255,38,0);"/>
    <path d="M1396.29,490.722L1366.73,492.372" style="fill:none;stroke-width:1.5px;stroke:rgb(255,38,0);"/>
    <path d="M792.502,524.425L611.818,534.511" style="fill:none;stroke-width:1.5px;stroke:rgb(255,38,0);"/>
    <path d="M1742.05,4.163L81.769,242.701" style="fill:none;stroke-width:1.5px;stroke:rgb(255,38,0);stroke-opacity:0.498039;"/>
    <path d="M1413.04,199.568L1279.96,203.88" style="fill:none;stroke-width:1.5px;stroke:rgb(255,38,0);stroke-opacity:0.498039;"/>
    <path d="M781.339,220.035L556.212,227.329" style="fill:none;stroke-width:1.5px;stroke:rgb(255,38,0);stroke-opacity:0.498039;"/>
    <path d="M490.453,229.46L81.769,242.701" style="fill:none;stroke-width:1.5px;stroke:rgb(255,38,0);stroke-opacity:0.498039;"/>
    <path d="M556.212,227.329L490.453,229.46" style="fill:none;stroke-width:1.5px;stroke:rgb(255,38,0);stroke-opacity:0.498039;"/>
    <path d="M597.702,317.544L868.325,306.9" style="fill:none;stroke-width:1.5px;stroke:rgb(255,38,0);"/>
    <path d="M1377.61,286.869L1617.51,277.433" style="fill:none;stroke-width:1.5px;stroke:rgb(255,38,0);"/>
    <path d="M1742.05,4.163L1214.84,148.54" style="fill:none;stroke-width:1.5px;stroke:rgb(255,38,0);"/>
    <path d="M918.89,229.586L597.702,317.544" style="fill:none;stroke-width:1.5px;stroke:rgb(255,38,0);"/>
    <path d="M1668.3,296.776L5.505,365.102" style="fill:none;stroke-width:1.5px;stroke:rgb(255,38,0);stroke-opacity:0.498039;"/>
    <path d="M5.505,365.102L1742.05,4.163" style="fill:none;stroke-width:1.5px;stroke:rgb(255,38,0);stroke-opacity:0.498039;"/>
    <path d="M549.585,212.92L801.721,205.029" style="fill:none;stroke-width:1.5px;stroke:rgb(255,38,0);stroke-opacity:0.498039;"/>
    <path d="M1264.28,190.553L1437.34,185.137" style="fill:none;stroke-width:1.5px;stroke:rgb(255,38,0);stroke-opacity:0.498039;"/>
    <path d="M549.585,212.92L866.314,157.472" style="fill:none;stroke-width:1.5px;stroke:rgb(255,38,0);stroke-opacity:0.498039;"/>
    <path d="M1125.73,112.059L1742.05,4.163" style="fill:none;stroke-width:1.5px;stroke:rgb(255,38,0);stroke-opacity:0.498039;"/>
    <path d="M1413.04,199.568L1279.96,203.88" style="fill:none;stroke-width:1.5px;stroke:rgb(204,38,16);"/>
    <path d="M490.453,229.46L81.769,242.701" style="fill:none;stroke-width:1.5px;stroke:rgb(204,38,16);"/>
    <path d="M781.339,220.035L490.453,229.46" style="fill:none;stroke-width:1.5px;stroke:rgb(204,38,16);"/>
    <path d="M1668.3,296.776L890.204,328.749" style="fill:none;stroke-width:1.5px;stroke:rgb(204,38,16);"/>
    <path d="M890.204,328.749L5.505,365.102" style="fill:none;stroke-width:1.5px;stroke:rgb(204,38,16);"/>
    <path d="M1437.34,185.137L1264.28,190.553" style="fill:none;stroke-width:1.5px;stroke:rgb(204,38,16);"/>
    <path d="M1617.51,277.433L1377.61,286.869" style="fill:none;stroke-width:1.5px;stroke:rgb(204,38,16);"/>
    <path d="M868.325,306.9L597.702,317.544" style="fill:none;stroke-width:1.5px;stroke:rgb(204,38,16);"/>
    <path d="M801.721,205.029L549.585,212.92" style="fill:none;stroke-width:1.5px;stroke:rgb(204,38,16);"/>
</svg>
