<?xml version="1.0" standalone="no"?>
<!DOCTYPE svg PUBLIC "-//W3C//DTD SVG 1.1//EN" "http://www.w3.org/Graphics/SVG/1.1/DTD/svg11.dtd">
<svg width="100%" height="100%" viewBox="0 0 384 455" version="1.1" xmlns="http://www.w3.org/2000/svg" xmlns:xlink="http://www.w3.org/1999/xlink" xml:space="preserve" style="fill-rule:evenodd;clip-rule:evenodd;stroke-linecap:round;stroke-linejoin:round;stroke-miterlimit:10;">
    <rect x="-139" y="-1119" width="2236" height="2349" style="fill:white;fill-rule:nonzero;"/>
    <path d="M16.906,114.071L16.906,340.843L186.984,425.882L357.063,340.843L357.063,114.071L186.984,29.032L16.906,114.071Z" style="fill:rgb(0,249,0);fill-opacity:0.501961;fill-rule:nonzero;"/>
    <path d="M26.928,330.821C32.463,336.356 32.463,345.33 26.928,350.865C21.393,356.4 12.419,356.4 6.884,350.865C1.349,345.33 1.349,336.356 6.884,330.821C12.419,325.286 21.393,325.286 26.928,330.821" style="fill:black;fill-rule:nonzero;stroke-width:1px;stroke:black;"/>
    <path d="M197.006,415.86C202.541,421.395 202.541,430.369 197.006,435.904C191.471,441.439 182.497,441.439 176.962,435.904C171.427,430.369 171.427,421.395 176.962,415.86C182.497,410.325 191.471,410.325 197.006,415.86" style="fill:black;fill-rule:nonzero;stroke-width:1px;stroke:black;"/>
    <path d="M367.085,330.821C372.62,336.356 372.62,345.33 367.085,350.865C361.55,356.4 352.576,356.4 347.041,350.865C341.506,345.33 341.506,336.356 347.041,330.821C352.576,325.286 361.55,325.286 367.085,330.821" style="fill:black;fill-rule:nonzero;stroke-width:1px;stroke:black;"/>
    <path d="M26.928,104.049C32.463,109.584 32.463,118.558 26.928,124.093C21.393,129.628 12.419,129.628 6.884,124.093C1.349,118.558 1.349,109.584 6.884,104.049C12.419,98.514 21.393,98.514 26.928,104.049" style="fill:black;fill-rule:nonzero;stroke-width:1px;stroke:black;"/>
    <path d="M197.006,19.01C202.541,24.545 202.541,33.519 197.006,39.054C191.471,44.589 182.497,44.589 176.962,39.054C171.427,33.519 171.427,24.545 176.962,19.01C182.497,13.475 191.471,13.475 197.006,19.01" style="fill:black;fill-rule:nonzero;stroke-width:1px;stroke:black;"/>
    <path d="M367.085,104.049C372.62,109.584 372.62,118.558 367.085,124.093C361.55,129.628 352.576,129.628 347.041,124.093C341.506,118.558 341.506,109.584 347.041,104.049C352.576,98.514 361.55,98.514 367.085,104.049" style="fill:black;fill-rule:nonzero;stroke-width:1px;stroke:black;"/>
    <path d="M30.033,107.507L153.732,45.658" style="fill:none;stroke-width:2px;stroke:black;"/>
    <path d="M170.905,37.071L150.512,39.218L156.952,52.098L170.905,37.071Z" style="fill:black;fill-rule:nonzero;stroke-width:2px;stroke-linecap:butt;stroke-linejoin:miter;stroke:black;"/>
    <path d="M16.905,326.169L16.905,151.244" style="fill:none;stroke-width:2px;stroke:black;"/>
    <path d="M16.906,132.044L9.706,151.244L24.106,151.244L16.906,132.044Z" style="fill:black;fill-rule:nonzero;stroke-width:2px;stroke-linecap:butt;stroke-linejoin:miter;stroke:black;"/>
    <path d="M173.857,419.318L50.158,357.469" style="fill:none;stroke-width:2px;stroke:black;"/>
    <path d="M32.985,348.882L46.938,363.909L53.378,351.029L32.985,348.882Z" style="fill:black;fill-rule:nonzero;stroke-width:2px;stroke-linecap:butt;stroke-linejoin:miter;stroke:black;"/>
    <path d="M343.935,347.406L220.236,409.256" style="fill:none;stroke-width:2px;stroke:black;"/>
    <path d="M203.063,417.842L223.456,415.696L217.016,402.816L203.063,417.842Z" style="fill:black;fill-rule:nonzero;stroke-width:2px;stroke-linecap:butt;stroke-linejoin:miter;stroke:black;"/>
    <path d="M357.063,128.744L357.063,303.669" style="fill:none;stroke-width:2px;stroke:black;"/>
    <path d="M357.063,322.869L364.263,303.669L349.863,303.669L357.063,322.869Z" style="fill:black;fill-rule:nonzero;stroke-width:2px;stroke-linecap:butt;stroke-linejoin:miter;stroke:black;"/>
    <path d="M200.112,35.595L323.811,97.445" style="fill:none;stroke-width:2px;stroke:black;"/>
    <path d="M340.984,106.031L327.031,91.005L320.591,103.885L340.984,106.031Z" style="fill:black;fill-rule:nonzero;stroke-width:2px;stroke-linecap:butt;stroke-linejoin:miter;stroke:black;"/>
    <g>
        <clipPath id="_clip1">
            <rect x="200.347" y="6.085" width="70.7" height="25.2"/>
        </clipPath>
        <g clip-path="url(#_clip1)">
            <g>
                <path d="M202.954,17.633C202.954,11.105 205.389,8.443 206.845,6.736L206.368,6.083C204.937,7.364 200.795,10.703 200.795,17.633C200.795,20.319 201.422,22.855 202.627,25.114C203.506,26.796 204.31,27.776 206.368,29.709L206.845,29.182C205.69,27.751 202.954,24.688 202.954,17.633Z" style="fill:black;fill-rule:nonzero;"/>
                <path d="M207.85,24.286C208.226,24.487 208.628,24.587 208.929,24.587C209.758,24.587 210.737,23.859 211.515,22.679L213.423,19.741L213.699,21.474C214.026,23.608 214.603,24.587 215.507,24.587C216.06,24.587 216.863,24.16 217.666,23.432L218.897,22.327L218.671,21.85C217.767,22.604 217.139,22.98 216.737,22.98C216.361,22.98 216.034,22.729 215.783,22.227C215.557,21.75 215.281,20.821 215.156,20.093L214.704,17.557L215.582,16.327C216.763,14.695 217.44,14.118 218.219,14.118C218.62,14.118 218.922,14.318 219.047,14.695L219.399,14.595L219.775,12.461C219.474,12.285 219.248,12.209 219.022,12.209C218.018,12.209 217.014,13.113 215.457,15.423L214.528,16.804L214.377,15.599C214.076,13.113 213.398,12.209 211.917,12.209C211.264,12.209 210.712,12.41 210.486,12.737L209.03,14.821L209.456,15.072C210.21,14.218 210.712,13.866 211.189,13.866C212.017,13.866 212.57,14.896 212.996,17.356L213.273,18.913L212.268,20.47C211.189,22.152 210.335,22.955 209.632,22.955C209.256,22.955 208.979,22.855 208.929,22.729L208.653,22.026L208.151,22.102C208.151,22.98 207.95,23.633 207.85,24.286Z" style="fill:black;fill-rule:nonzero;"/>
                <path d="M224.972,16.95C222.131,16.95 220.683,19.204 220.683,23.639C220.683,25.784 221.068,27.635 221.71,28.533C222.351,29.431 223.378,29.944 224.514,29.944C227.281,29.944 228.674,27.562 228.674,22.87C228.674,18.856 227.483,16.95 224.972,16.95ZM224.642,17.738C226.42,17.738 227.135,19.387 227.135,23.786C227.135,27.69 226.438,29.156 224.752,29.156C222.974,29.156 222.223,27.452 222.223,22.98C222.223,19.112 222.901,17.738 224.642,17.738Z" style="fill:black;fill-rule:nonzero;"/>
                <path d="M235.669,21.223C234.991,21.449 234.54,21.599 233.209,21.976C233.033,23.884 232.405,25.516 230.949,27.926L231.301,28.202L232.33,27.725C234.364,25.089 235.318,23.507 236.021,21.574L235.669,21.223Z" style="fill:black;fill-rule:nonzero;"/>
                <path d="M240.773,28.83C240.748,29.006 240.748,29.157 240.748,29.282C240.748,30.362 241.677,31.24 242.807,31.24C245.468,31.24 248.23,28.127 249.711,23.482L253.251,12.435L252.975,12.209C252.247,12.486 251.67,12.636 251.117,12.686L250.239,16.001C249.937,17.181 249.059,19.013 248.23,20.244C247.351,21.524 246.121,22.629 245.569,22.629C245.268,22.629 245.042,22.051 245.067,21.424L245.468,16.227C245.519,15.448 245.569,14.494 245.569,13.791C245.569,12.661 245.393,12.209 244.966,12.209C244.64,12.209 244.288,12.385 243.083,13.214L241.024,14.62L241.301,15.072L242.556,14.318C242.682,14.243 242.958,14.017 243.184,14.017C243.535,14.017 243.736,14.494 243.736,15.323C243.736,15.348 243.736,15.498 243.711,15.699L243.284,21.8L243.259,22.804C243.259,23.859 243.711,24.587 244.339,24.587C245.268,24.587 247.376,22.453 249.259,19.616L248.029,23.909C246.749,28.353 245.493,30.186 243.736,30.186C242.857,30.186 242.179,29.508 242.179,28.629C242.179,28.504 242.204,28.303 242.23,28.077L241.979,27.976L240.773,28.83Z" style="fill:black;fill-rule:nonzero;"/>
                <path d="M258.298,16.95C255.457,16.95 254.009,19.204 254.009,23.639C254.009,25.784 254.394,27.635 255.035,28.533C255.677,29.431 256.703,29.944 257.839,29.944C260.607,29.944 262,27.562 262,22.87C262,18.856 260.809,16.95 258.298,16.95ZM257.968,17.738C259.746,17.738 260.46,19.387 260.46,23.786C260.46,27.69 259.764,29.156 258.078,29.156C256.3,29.156 255.548,27.452 255.548,22.98C255.548,19.112 256.227,17.738 257.968,17.738Z" style="fill:black;fill-rule:nonzero;"/>
                <path d="M265.204,6.083L264.726,6.736C266.107,8.343 268.618,11.105 268.618,17.633C268.618,24.562 266.007,27.6 264.726,29.182L265.204,29.709C266.534,28.454 270.777,24.888 270.777,17.658C270.777,10.703 266.635,7.364 265.204,6.083Z" style="fill:black;fill-rule:nonzero;"/>
            </g>
        </g>
    </g>
    <g>
        <clipPath id="_clip2">
            <rect x="273" y="119.471" width="70.7" height="25.2"/>
        </clipPath>
        <g clip-path="url(#_clip2)">
            <g>
                <path d="M275.607,131.018C275.607,124.491 278.043,121.829 279.499,120.122L279.022,119.469C277.591,120.75 273.448,124.089 273.448,131.018C273.448,133.705 274.076,136.241 275.281,138.5C276.16,140.182 276.963,141.161 279.022,143.095L279.499,142.567C278.344,141.136 275.607,138.073 275.607,131.018Z" style="fill:black;fill-rule:nonzero;"/>
                <path d="M280.503,137.672C280.88,137.872 281.282,137.973 281.583,137.973C282.411,137.973 283.39,137.245 284.169,136.065L286.077,133.127L286.353,134.86C286.679,136.994 287.257,137.973 288.161,137.973C288.713,137.973 289.517,137.546 290.32,136.818L291.55,135.713L291.324,135.236C290.42,135.989 289.793,136.366 289.391,136.366C289.014,136.366 288.688,136.115 288.437,135.613C288.211,135.136 287.935,134.207 287.809,133.479L287.357,130.943L288.236,129.713C289.416,128.081 290.094,127.503 290.872,127.503C291.274,127.503 291.575,127.704 291.701,128.081L292.052,127.98L292.429,125.846C292.128,125.671 291.902,125.595 291.676,125.595C290.671,125.595 289.667,126.499 288.111,128.809L287.182,130.19L287.031,128.985C286.73,126.499 286.052,125.595 284.571,125.595C283.918,125.595 283.365,125.796 283.139,126.122L281.683,128.206L282.11,128.457C282.863,127.604 283.365,127.252 283.842,127.252C284.671,127.252 285.223,128.282 285.65,130.742L285.926,132.299L284.922,133.855C283.842,135.538 282.989,136.341 282.286,136.341C281.909,136.341 281.633,136.241 281.583,136.115L281.307,135.412L280.804,135.487C280.804,136.366 280.604,137.019 280.503,137.672Z" style="fill:black;fill-rule:nonzero;"/>
                <path d="M300.467,143.018L300.467,142.359L299.514,142.304C298.506,142.249 298.322,142.047 298.322,141.094L298.322,130.336L298.066,130.244C296.874,130.867 295.573,131.417 293.905,132.003L294.033,132.901L294.217,132.901L296.636,131.82C296.746,131.82 296.783,131.985 296.783,132.425L296.783,141.094C296.783,142.047 296.581,142.249 295.591,142.304L294.565,142.359L294.565,143.018C297.388,142.964 297.388,142.964 297.589,142.964C298.157,142.964 300.173,143.018 300.467,143.018Z" style="fill:black;fill-rule:nonzero;"/>
                <path d="M308.323,134.609C307.645,134.835 307.193,134.985 305.862,135.362C305.687,137.27 305.059,138.902 303.603,141.312L303.954,141.588L304.984,141.111C307.017,138.475 307.971,136.893 308.674,134.96L308.323,134.609Z" style="fill:black;fill-rule:nonzero;"/>
                <path d="M313.427,142.216C313.402,142.392 313.402,142.542 313.402,142.668C313.402,143.747 314.331,144.626 315.461,144.626C318.122,144.626 320.884,141.513 322.365,136.868L325.905,125.821L325.629,125.595C324.901,125.871 324.323,126.022 323.771,126.072L322.892,129.386C322.591,130.566 321.712,132.399 320.884,133.629C320.005,134.91 318.775,136.015 318.222,136.015C317.921,136.015 317.695,135.437 317.72,134.809L318.122,129.612C318.172,128.834 318.222,127.88 318.222,127.177C318.222,126.047 318.047,125.595 317.62,125.595C317.293,125.595 316.942,125.771 315.737,126.6L313.678,128.005L313.954,128.457L315.21,127.704C315.335,127.629 315.611,127.403 315.837,127.403C316.189,127.403 316.39,127.88 316.39,128.708C316.39,128.734 316.39,128.884 316.364,129.085L315.938,135.186L315.913,136.19C315.913,137.245 316.364,137.973 316.992,137.973C317.921,137.973 320.03,135.839 321.913,133.002L320.683,137.295C319.402,141.739 318.147,143.572 316.39,143.572C315.511,143.572 314.833,142.894 314.833,142.015C314.833,141.89 314.858,141.689 314.883,141.463L314.632,141.362L313.427,142.216Z" style="fill:black;fill-rule:nonzero;"/>
                <path d="M333.792,143.018L333.792,142.359L332.839,142.304C331.831,142.249 331.648,142.047 331.648,141.094L331.648,130.336L331.391,130.244C330.2,130.867 328.899,131.417 327.231,132.003L327.359,132.901L327.542,132.901L329.962,131.82C330.072,131.82 330.108,131.985 330.108,132.425L330.108,141.094C330.108,142.047 329.907,142.249 328.917,142.304L327.891,142.359L327.891,143.018C330.713,142.964 330.713,142.964 330.915,142.964C331.483,142.964 333.499,143.018 333.792,143.018Z" style="fill:black;fill-rule:nonzero;"/>
                <path d="M337.857,119.469L337.38,120.122C338.761,121.729 341.272,124.491 341.272,131.018C341.272,137.948 338.661,140.986 337.38,142.567L337.857,143.095C339.188,141.839 343.431,138.274 343.431,131.043C343.431,124.089 339.288,120.75 337.857,119.469Z" style="fill:black;fill-rule:nonzero;"/>
            </g>
        </g>
    </g>
    <g>
        <clipPath id="_clip3">
            <rect x="273" y="310.243" width="70.7" height="25.2"/>
        </clipPath>
        <g clip-path="url(#_clip3)">
            <g>
                <path d="M275.607,321.79C275.607,315.262 278.043,312.601 279.499,310.894L279.022,310.241C277.591,311.521 273.448,314.861 273.448,321.79C273.448,324.476 274.076,327.012 275.281,329.272C276.16,330.954 276.963,331.933 279.022,333.866L279.499,333.339C278.344,331.908 275.607,328.845 275.607,321.79Z" style="fill:black;fill-rule:nonzero;"/>
                <path d="M280.503,328.443C280.88,328.644 281.282,328.745 281.583,328.745C282.411,328.745 283.39,328.016 284.169,326.836L286.077,323.899L286.353,325.631C286.679,327.765 287.257,328.745 288.161,328.745C288.713,328.745 289.517,328.318 290.32,327.59L291.55,326.485L291.324,326.008C290.42,326.761 289.793,327.138 289.391,327.138C289.014,327.138 288.688,326.887 288.437,326.385C288.211,325.908 287.935,324.979 287.809,324.25L287.357,321.715L288.236,320.484C289.416,318.853 290.094,318.275 290.872,318.275C291.274,318.275 291.575,318.476 291.701,318.853L292.052,318.752L292.429,316.618C292.128,316.442 291.902,316.367 291.676,316.367C290.671,316.367 289.667,317.271 288.111,319.581L287.182,320.961L287.031,319.756C286.73,317.271 286.052,316.367 284.571,316.367C283.918,316.367 283.365,316.568 283.139,316.894L281.683,318.978L282.11,319.229C282.863,318.375 283.365,318.024 283.842,318.024C284.671,318.024 285.223,319.053 285.65,321.514L285.926,323.07L284.922,324.627C283.842,326.309 282.989,327.113 282.286,327.113C281.909,327.113 281.633,327.012 281.583,326.887L281.307,326.184L280.804,326.259C280.804,327.138 280.604,327.791 280.503,328.443Z" style="fill:black;fill-rule:nonzero;"/>
                <path d="M293.099,332.636L293.099,333.79C296.526,333.79 296.526,333.735 297.186,333.735C297.846,333.735 297.846,333.79 301.383,333.79C301.383,333.405 301.346,333.222 301.346,332.965C301.346,332.727 301.383,332.544 301.383,332.141C299.275,332.232 298.432,332.251 295.042,332.324L298.377,328.787C300.155,326.899 300.705,325.891 300.705,324.516C300.705,322.409 299.275,321.107 296.948,321.107C295.628,321.107 294.73,321.474 293.832,322.39L293.52,324.883L294.327,324.883L294.565,324.04C294.858,322.977 295.243,322.518 296.471,322.518C298.047,322.518 299.055,323.508 299.055,325.066C299.055,326.441 297.717,327.705 295.646,329.905L293.099,332.636Z" style="fill:black;fill-rule:nonzero;"/>
                <path d="M308.323,325.38C307.645,325.606 307.193,325.757 305.862,326.133C305.687,328.042 305.059,329.674 303.603,332.084L303.954,332.36L304.984,331.883C307.017,329.247 307.971,327.665 308.674,325.732L308.323,325.38Z" style="fill:black;fill-rule:nonzero;"/>
                <path d="M313.427,332.988C313.402,333.163 313.402,333.314 313.402,333.44C313.402,334.519 314.331,335.398 315.461,335.398C318.122,335.398 320.884,332.285 322.365,327.64L325.905,316.593L325.629,316.367C324.901,316.643 324.323,316.794 323.771,316.844L322.892,320.158C322.591,321.338 321.712,323.171 320.884,324.401C320.005,325.682 318.775,326.786 318.222,326.786C317.921,326.786 317.695,326.209 317.72,325.581L318.122,320.384C318.172,319.606 318.222,318.652 318.222,317.949C318.222,316.819 318.047,316.367 317.62,316.367C317.293,316.367 316.942,316.543 315.737,317.371L313.678,318.777L313.954,319.229L315.21,318.476C315.335,318.401 315.611,318.175 315.837,318.175C316.189,318.175 316.39,318.652 316.39,319.48C316.39,319.505 316.39,319.656 316.364,319.857L315.938,325.958L315.913,326.962C315.913,328.016 316.364,328.745 316.992,328.745C317.921,328.745 320.03,326.61 321.913,323.773L320.683,328.067C319.402,332.511 318.147,334.343 316.39,334.343C315.511,334.343 314.833,333.665 314.833,332.787C314.833,332.661 314.858,332.46 314.883,332.234L314.632,332.134L313.427,332.988Z" style="fill:black;fill-rule:nonzero;"/>
                <path d="M326.424,332.636L326.424,333.79C329.852,333.79 329.852,333.735 330.511,333.735C331.171,333.735 331.171,333.79 334.709,333.79C334.709,333.405 334.672,333.222 334.672,332.965C334.672,332.727 334.709,332.544 334.709,332.141C332.601,332.232 331.758,332.251 328.367,332.324L331.703,328.787C333.481,326.899 334.03,325.891 334.03,324.516C334.03,322.409 332.601,321.107 330.273,321.107C328.954,321.107 328.055,321.474 327.157,322.39L326.846,324.883L327.652,324.883L327.891,324.04C328.184,322.977 328.569,322.518 329.797,322.518C331.373,322.518 332.381,323.508 332.381,325.066C332.381,326.441 331.043,327.705 328.972,329.905L326.424,332.636Z" style="fill:black;fill-rule:nonzero;"/>
                <path d="M337.857,310.241L337.38,310.894C338.761,312.501 341.272,315.262 341.272,321.79C341.272,328.719 338.661,331.757 337.38,333.339L337.857,333.866C339.188,332.611 343.431,329.046 343.431,321.815C343.431,314.861 339.288,311.521 337.857,310.241Z" style="fill:black;fill-rule:nonzero;"/>
            </g>
        </g>
    </g>
    <g>
        <clipPath id="_clip4">
            <rect x="202.134" y="423.628" width="70.7" height="25.2"/>
        </clipPath>
        <g clip-path="url(#_clip4)">
            <g>
                <path d="M204.741,435.176C204.741,428.648 207.177,425.987 208.633,424.279L208.156,423.627C206.725,424.907 202.582,428.246 202.582,435.176C202.582,437.862 203.21,440.398 204.415,442.658C205.294,444.34 206.097,445.319 208.156,447.252L208.633,446.725C207.478,445.294 204.741,442.231 204.741,435.176Z" style="fill:black;fill-rule:nonzero;"/>
                <path d="M209.637,441.829C210.014,442.03 210.415,442.13 210.717,442.13C211.545,442.13 212.524,441.402 213.303,440.222L215.211,437.285L215.487,439.017C215.813,441.151 216.391,442.13 217.295,442.13C217.847,442.13 218.65,441.704 219.454,440.975L220.684,439.871L220.458,439.394C219.554,440.147 218.927,440.524 218.525,440.524C218.148,440.524 217.822,440.272 217.571,439.77C217.345,439.293 217.069,438.364 216.943,437.636L216.491,435.1L217.37,433.87C218.55,432.238 219.228,431.661 220.006,431.661C220.408,431.661 220.709,431.862 220.835,432.238L221.186,432.138L221.563,430.004C221.261,429.828 221.035,429.753 220.81,429.753C219.805,429.753 218.801,430.657 217.244,432.966L216.315,434.347L216.165,433.142C215.863,430.657 215.186,429.753 213.704,429.753C213.052,429.753 212.499,429.954 212.273,430.28L210.817,432.364L211.244,432.615C211.997,431.761 212.499,431.41 212.976,431.41C213.805,431.41 214.357,432.439 214.784,434.9L215.06,436.456L214.056,438.013C212.976,439.695 212.123,440.498 211.42,440.498C211.043,440.498 210.767,440.398 210.717,440.272L210.44,439.569L209.938,439.645C209.938,440.524 209.737,441.176 209.637,441.829Z" style="fill:black;fill-rule:nonzero;"/>
                <path d="M230.407,443.016C230.407,440.798 228.446,440.413 227.584,440.266C229.051,439.13 229.6,438.287 229.6,437.206C229.6,435.574 228.244,434.493 226.21,434.493C224.963,434.493 224.139,434.841 223.259,435.721L222.727,437.994L223.424,437.994L223.754,436.967C223.955,436.344 224.982,435.721 225.935,435.721C227.126,435.721 228.098,436.692 228.098,437.847C228.098,439.222 227.016,440.23 225.715,440.23C225.568,440.23 225.367,440.211 225.128,440.193L224.853,440.175L224.634,441.293L224.762,441.403C225.458,441.091 225.807,440.999 226.301,440.999C227.823,440.999 228.702,441.971 228.702,443.639C228.702,445.508 227.584,446.608 225.88,446.608C225.037,446.608 224.414,446.461 223.864,445.948C223.424,445.545 223.186,445.123 222.837,444.134L222.214,444.317L222.856,447.011C223.827,447.341 224.634,447.488 225.312,447.488C227.566,447.488 230.407,445.526 230.407,443.016Z" style="fill:black;fill-rule:nonzero;"/>
                <path d="M237.457,438.766C236.779,438.992 236.327,439.143 234.996,439.519C234.821,441.427 234.193,443.059 232.737,445.47L233.088,445.746L234.118,445.269C236.151,442.633 237.105,441.051 237.808,439.118L237.457,438.766Z" style="fill:black;fill-rule:nonzero;"/>
                <path d="M242.561,446.373C242.536,446.549 242.536,446.7 242.536,446.825C242.536,447.905 243.465,448.784 244.594,448.784C247.256,448.784 250.018,445.67 251.499,441.026L255.039,429.979L254.763,429.753C254.035,430.029 253.457,430.18 252.905,430.23L252.026,433.544C251.725,434.724 250.846,436.557 250.018,437.787C249.139,439.067 247.909,440.172 247.356,440.172C247.055,440.172 246.829,439.595 246.854,438.967L247.256,433.77C247.306,432.992 247.356,432.037 247.356,431.334C247.356,430.205 247.18,429.753 246.754,429.753C246.427,429.753 246.076,429.928 244.871,430.757L242.812,432.163L243.088,432.615L244.343,431.862C244.469,431.786 244.745,431.56 244.971,431.56C245.323,431.56 245.523,432.037 245.523,432.866C245.523,432.891 245.523,433.042 245.498,433.243L245.071,439.344L245.046,440.348C245.046,441.402 245.498,442.13 246.126,442.13C247.055,442.13 249.164,439.996 251.047,437.159L249.817,441.452C248.536,445.896 247.281,447.729 245.523,447.729C244.645,447.729 243.967,447.051 243.967,446.173C243.967,446.047 243.992,445.846 244.017,445.62L243.766,445.52L242.561,446.373Z" style="fill:black;fill-rule:nonzero;"/>
                <path d="M263.732,443.016C263.732,440.798 261.771,440.413 260.91,440.266C262.376,439.13 262.926,438.287 262.926,437.206C262.926,435.574 261.57,434.493 259.535,434.493C258.289,434.493 257.464,434.841 256.584,435.721L256.053,437.994L256.749,437.994L257.079,436.967C257.281,436.344 258.307,435.721 259.26,435.721C260.452,435.721 261.423,436.692 261.423,437.847C261.423,439.222 260.342,440.23 259.04,440.23C258.894,440.23 258.692,440.211 258.454,440.193L258.179,440.175L257.959,441.293L258.087,441.403C258.784,441.091 259.132,440.999 259.627,440.999C261.148,440.999 262.028,441.971 262.028,443.639C262.028,445.508 260.91,446.608 259.205,446.608C258.362,446.608 257.739,446.461 257.189,445.948C256.749,445.545 256.511,445.123 256.163,444.134L255.54,444.317L256.181,447.011C257.153,447.341 257.959,447.488 258.637,447.488C260.892,447.488 263.732,445.526 263.732,443.016Z" style="fill:black;fill-rule:nonzero;"/>
                <path d="M266.991,423.627L266.514,424.279C267.895,425.886 270.405,428.648 270.405,435.176C270.405,442.105 267.794,445.143 266.514,446.725L266.991,447.252C268.322,445.997 272.565,442.432 272.565,435.201C272.565,428.246 268.422,424.907 266.991,423.627Z" style="fill:black;fill-rule:nonzero;"/>
            </g>
        </g>
    </g>
    <g>
        <clipPath id="_clip5">
            <rect x="32.056" y="317.896" width="70.7" height="25.2"/>
        </clipPath>
        <g clip-path="url(#_clip5)">
            <g>
                <path d="M34.662,329.444C34.662,322.916 37.098,320.254 38.554,318.547L38.077,317.894C36.646,319.175 32.503,322.514 32.503,329.444C32.503,332.13 33.131,334.666 34.336,336.925C35.215,338.607 36.018,339.587 38.077,341.52L38.554,340.993C37.399,339.562 34.662,336.499 34.662,329.444Z" style="fill:black;fill-rule:nonzero;"/>
                <path d="M39.558,336.097C39.935,336.298 40.337,336.398 40.638,336.398C41.466,336.398 42.446,335.67 43.224,334.49L45.132,331.552L45.408,333.285C45.735,335.419 46.312,336.398 47.216,336.398C47.768,336.398 48.572,335.971 49.375,335.243L50.605,334.138L50.379,333.661C49.475,334.415 48.848,334.791 48.446,334.791C48.069,334.791 47.743,334.54 47.492,334.038C47.266,333.561 46.99,332.632 46.864,331.904L46.412,329.368L47.291,328.138C48.471,326.506 49.149,325.929 49.927,325.929C50.329,325.929 50.63,326.129 50.756,326.506L51.107,326.406L51.484,324.272C51.183,324.096 50.957,324.02 50.731,324.02C49.727,324.02 48.722,324.924 47.166,327.234L46.237,328.615L46.086,327.41C45.785,324.924 45.107,324.02 43.626,324.02C42.973,324.02 42.42,324.221 42.195,324.548L40.738,326.632L41.165,326.883C41.918,326.029 42.42,325.677 42.898,325.677C43.726,325.677 44.278,326.707 44.705,329.167L44.981,330.724L43.977,332.281C42.898,333.963 42.044,334.766 41.341,334.766C40.964,334.766 40.688,334.666 40.638,334.54L40.362,333.837L39.86,333.913C39.86,334.791 39.659,335.444 39.558,336.097Z" style="fill:black;fill-rule:nonzero;"/>
                <path d="M56.992,338.071L56.992,339.263C56.992,340.362 56.791,340.619 55.893,340.656L54.756,340.711L54.756,341.444C57.194,341.389 57.194,341.389 57.634,341.389C58.074,341.389 58.074,341.389 60.511,341.444L60.511,340.711L59.632,340.656C58.734,340.601 58.532,340.362 58.532,339.263L58.532,338.071C59.613,338.071 59.998,338.09 60.511,338.145L60.511,336.843C60.383,336.843 59.118,336.898 59.027,336.898L58.532,336.898L58.532,334.351C58.532,331.088 58.569,329.512 58.66,328.761L58.44,328.669L57.084,329.164L51.897,337.65L52.099,338.071L56.992,338.071ZM56.992,336.898L53.235,336.898L56.992,330.63L56.992,336.898Z" style="fill:black;fill-rule:nonzero;"/>
                <path d="M67.378,333.034C66.7,333.26 66.248,333.41 64.918,333.787C64.742,335.695 64.114,337.327 62.658,339.737L63.009,340.013L64.039,339.536C66.072,336.9 67.027,335.318 67.73,333.385L67.378,333.034Z" style="fill:black;fill-rule:nonzero;"/>
                <path d="M72.482,340.641C72.457,340.817 72.457,340.968 72.457,341.093C72.457,342.173 73.386,343.051 74.516,343.051C77.177,343.051 79.939,339.938 81.42,335.293L84.96,324.246L84.684,324.02C83.956,324.297 83.378,324.447 82.826,324.497L81.947,327.812C81.646,328.992 80.767,330.824 79.939,332.055C79.06,333.335 77.83,334.44 77.277,334.44C76.976,334.44 76.75,333.862 76.775,333.235L77.177,328.038C77.227,327.259 77.277,326.305 77.277,325.602C77.277,324.472 77.102,324.02 76.675,324.02C76.349,324.02 75.997,324.196 74.792,325.025L72.733,326.431L73.009,326.883L74.265,326.129C74.39,326.054 74.666,325.828 74.892,325.828C75.244,325.828 75.445,326.305 75.445,327.134C75.445,327.159 75.445,327.309 75.42,327.51L74.993,333.611L74.968,334.615C74.968,335.67 75.42,336.398 76.047,336.398C76.976,336.398 79.085,334.264 80.968,331.427L79.738,335.72C78.458,340.164 77.202,341.997 75.445,341.997C74.566,341.997 73.888,341.319 73.888,340.44C73.888,340.315 73.913,340.114 73.938,339.888L73.687,339.787L72.482,340.641Z" style="fill:black;fill-rule:nonzero;"/>
                <path d="M90.318,338.071L90.318,339.263C90.318,340.362 90.116,340.619 89.218,340.656L88.082,340.711L88.082,341.444C90.52,341.389 90.52,341.389 90.959,341.389C91.399,341.389 91.399,341.389 93.837,341.444L93.837,340.711L92.957,340.656C92.059,340.601 91.858,340.362 91.858,339.263L91.858,338.071C92.939,338.071 93.324,338.09 93.837,338.145L93.837,336.843C93.709,336.843 92.444,336.898 92.352,336.898L91.858,336.898L91.858,334.351C91.858,331.088 91.894,329.512 91.986,328.761L91.766,328.669L90.41,329.164L85.223,337.65L85.424,338.071L90.318,338.071ZM90.318,336.898L86.561,336.898L90.318,330.63L90.318,336.898Z" style="fill:black;fill-rule:nonzero;"/>
                <path d="M96.912,317.894L96.435,318.547C97.816,320.154 100.327,322.916 100.327,329.444C100.327,336.373 97.716,339.411 96.435,340.993L96.912,341.52C98.243,340.265 102.486,336.699 102.486,329.469C102.486,322.514 98.343,319.175 96.912,317.894Z" style="fill:black;fill-rule:nonzero;"/>
            </g>
        </g>
    </g>
    <g>
        <clipPath id="_clip6">
            <rect x="32.056" y="119.471" width="70.7" height="25.2"/>
        </clipPath>
        <g clip-path="url(#_clip6)">
            <g>
                <path d="M34.662,131.018C34.662,124.491 37.098,121.829 38.554,120.122L38.077,119.469C36.646,120.75 32.503,124.089 32.503,131.018C32.503,133.705 33.131,136.241 34.336,138.5C35.215,140.182 36.018,141.161 38.077,143.095L38.554,142.567C37.399,141.136 34.662,138.073 34.662,131.018Z" style="fill:black;fill-rule:nonzero;"/>
                <path d="M39.558,137.672C39.935,137.872 40.337,137.973 40.638,137.973C41.466,137.973 42.446,137.245 43.224,136.065L45.132,133.127L45.408,134.86C45.735,136.994 46.312,137.973 47.216,137.973C47.768,137.973 48.572,137.546 49.375,136.818L50.605,135.713L50.379,135.236C49.475,135.989 48.848,136.366 48.446,136.366C48.069,136.366 47.743,136.115 47.492,135.613C47.266,135.136 46.99,134.207 46.864,133.479L46.412,130.943L47.291,129.713C48.471,128.081 49.149,127.503 49.927,127.503C50.329,127.503 50.63,127.704 50.756,128.081L51.107,127.98L51.484,125.846C51.183,125.671 50.957,125.595 50.731,125.595C49.727,125.595 48.722,126.499 47.166,128.809L46.237,130.19L46.086,128.985C45.785,126.499 45.107,125.595 43.626,125.595C42.973,125.595 42.42,125.796 42.195,126.122L40.738,128.206L41.165,128.457C41.918,127.604 42.42,127.252 42.898,127.252C43.726,127.252 44.278,128.282 44.705,130.742L44.981,132.299L43.977,133.855C42.898,135.538 42.044,136.341 41.341,136.341C40.964,136.341 40.688,136.241 40.638,136.115L40.362,135.412L39.86,135.487C39.86,136.366 39.659,137.019 39.558,137.672Z" style="fill:black;fill-rule:nonzero;"/>
                <path d="M60.273,138.327C60.273,136.255 58.789,134.789 56.699,134.789C55.819,134.789 55.343,135.027 54.207,135.706L54.372,131.875C56.736,131.948 57.579,131.967 59.778,131.967L59.87,131.875C59.833,131.545 59.833,131.399 59.833,131.16C59.833,130.904 59.833,130.757 59.87,130.427L59.778,130.336C58.404,130.409 57.579,130.427 56.589,130.427C55.581,130.427 54.775,130.409 53.4,130.336L53.309,130.427C53.327,131.545 53.345,132.352 53.345,132.938C53.345,134.496 53.29,136.255 53.235,137.062L53.602,137.172C54.463,136.31 54.958,136.054 55.856,136.054C57.616,136.054 58.715,137.3 58.715,139.28C58.715,141.314 57.542,142.414 55.545,142.414C54.555,142.414 53.822,142.175 53.565,141.699L52.722,140.196L52.099,140.453C52.52,141.497 52.74,142.084 52.997,142.89C53.51,143.165 54.243,143.33 55.031,143.33C57.377,143.33 60.273,141.332 60.273,138.327Z" style="fill:black;fill-rule:nonzero;"/>
                <path d="M67.378,134.609C66.7,134.835 66.248,134.985 64.918,135.362C64.742,137.27 64.114,138.902 62.658,141.312L63.009,141.588L64.039,141.111C66.072,138.475 67.027,136.893 67.73,134.96L67.378,134.609Z" style="fill:black;fill-rule:nonzero;"/>
                <path d="M72.482,142.216C72.457,142.392 72.457,142.542 72.457,142.668C72.457,143.747 73.386,144.626 74.516,144.626C77.177,144.626 79.939,141.513 81.42,136.868L84.96,125.821L84.684,125.595C83.956,125.871 83.378,126.022 82.826,126.072L81.947,129.386C81.646,130.566 80.767,132.399 79.939,133.629C79.06,134.91 77.83,136.015 77.277,136.015C76.976,136.015 76.75,135.437 76.775,134.809L77.177,129.612C77.227,128.834 77.277,127.88 77.277,127.177C77.277,126.047 77.102,125.595 76.675,125.595C76.349,125.595 75.997,125.771 74.792,126.6L72.733,128.005L73.009,128.457L74.265,127.704C74.39,127.629 74.666,127.403 74.892,127.403C75.244,127.403 75.445,127.88 75.445,128.708C75.445,128.734 75.445,128.884 75.42,129.085L74.993,135.186L74.968,136.19C74.968,137.245 75.42,137.973 76.047,137.973C76.976,137.973 79.085,135.839 80.968,133.002L79.738,137.295C78.458,141.739 77.202,143.572 75.445,143.572C74.566,143.572 73.888,142.894 73.888,142.015C73.888,141.89 73.913,141.689 73.938,141.463L73.687,141.362L72.482,142.216Z" style="fill:black;fill-rule:nonzero;"/>
                <path d="M93.599,138.327C93.599,136.255 92.114,134.789 90.025,134.789C89.145,134.789 88.668,135.027 87.532,135.706L87.697,131.875C90.061,131.948 90.904,131.967 93.104,131.967L93.195,131.875C93.159,131.545 93.159,131.399 93.159,131.16C93.159,130.904 93.159,130.757 93.195,130.427L93.104,130.336C91.729,130.409 90.904,130.427 89.915,130.427C88.907,130.427 88.1,130.409 86.726,130.336L86.634,130.427C86.652,131.545 86.671,132.352 86.671,132.938C86.671,134.496 86.616,136.255 86.561,137.062L86.927,137.172C87.789,136.31 88.284,136.054 89.182,136.054C90.941,136.054 92.041,137.3 92.041,139.28C92.041,141.314 90.868,142.414 88.87,142.414C87.88,142.414 87.147,142.175 86.891,141.699L86.048,140.196L85.424,140.453C85.846,141.497 86.066,142.084 86.322,142.89C86.836,143.165 87.569,143.33 88.357,143.33C90.703,143.33 93.599,141.332 93.599,138.327Z" style="fill:black;fill-rule:nonzero;"/>
                <path d="M96.912,119.469L96.435,120.122C97.816,121.729 100.327,124.491 100.327,131.018C100.327,137.948 97.716,140.986 96.435,142.567L96.912,143.095C98.243,141.839 102.486,138.274 102.486,131.043C102.486,124.089 98.343,120.75 96.912,119.469Z" style="fill:black;fill-rule:nonzero;"/>
            </g>
        </g>
    </g>
</svg>
