<?xml version="1.0" standalone="no"?>
<!DOCTYPE svg PUBLIC "-//W3C//DTD SVG 1.1//EN" "http://www.w3.org/Graphics/SVG/1.1/DTD/svg11.dtd">
<svg width="100%" height="100%" viewBox="0 0 276 330" version="1.1" xmlns="http://www.w3.org/2000/svg" xmlns:xlink="http://www.w3.org/1999/xlink" xml:space="preserve" style="fill-rule:evenodd;clip-rule:evenodd;stroke-linecap:round;stroke-linejoin:round;stroke-miterlimit:10;">
    <path d="M26.235,26.794C31.77,21.259 31.77,12.285 26.235,6.75C20.7,1.215 11.726,1.215 6.191,6.75C0.656,12.285 0.656,21.259 6.191,26.794L16.213,16.772L26.235,26.794Z" style="fill:white;fill-rule:nonzero;stroke-width:2px;stroke:black;"/>
    <path d="M6.191,26.794C11.726,32.329 20.7,32.329 26.235,26.794L16.213,16.772L6.191,26.794Z" style="fill:rgb(255,38,0);fill-opacity:0.501961;fill-rule:nonzero;stroke-width:2px;stroke:black;"/>
    <path d="M26.235,219.348C20.7,213.813 11.726,213.813 6.191,219.348C3.423,222.116 2.039,225.743 2.039,229.37L16.213,229.37L26.235,219.348Z" style="fill:white;fill-rule:nonzero;stroke-width:2px;stroke:black;"/>
    <path d="M9.872,71.972L16.213,59.291L6.191,49.269C0.656,54.804 0.656,63.778 6.191,69.313C7.298,70.421 8.544,71.307 9.872,71.972L9.872,71.972Z" style="fill:rgb(255,38,0);fill-opacity:0.501961;fill-rule:nonzero;"/>
    <path d="M9.872,71.972L16.213,59.291L6.191,49.269C0.656,54.804 0.656,63.778 6.191,69.313C7.298,70.421 8.544,71.307 9.872,71.972Z" style="fill:none;stroke-width:2px;stroke:black;"/>
    <path d="M2.039,229.37C2.039,232.997 3.423,236.625 6.191,239.392C11.726,244.927 20.7,244.927 26.235,239.392C31.77,233.857 31.77,224.883 26.235,219.348L16.213,229.37L2.039,229.37Z" style="fill:rgb(255,38,0);fill-opacity:0.501961;fill-rule:nonzero;stroke-width:2px;stroke:black;"/>
    <path d="M30.386,186.85C30.386,183.223 29.002,179.596 26.235,176.828C20.7,171.293 11.726,171.293 6.191,176.828C0.656,182.363 0.656,191.337 6.191,196.872C10.618,201.3 17.245,202.186 22.553,199.531L16.213,186.85L30.386,186.85Z" style="fill:white;fill-rule:nonzero;stroke-width:2px;stroke:black;"/>
    <path d="M22.553,199.531C23.881,198.866 25.127,197.98 26.235,196.872C29.002,194.105 30.386,190.478 30.386,186.85L16.213,186.85L22.553,199.531Z" style="fill:rgb(255,38,0);fill-opacity:0.501961;fill-rule:nonzero;stroke-width:2px;stroke:black;"/>
    <path d="M9.872,131.65C8.544,132.315 7.298,133.201 6.191,134.309C0.656,139.844 0.656,148.818 6.191,154.353C11.726,159.888 20.7,159.888 26.235,154.353C29.002,151.585 30.386,147.958 30.386,144.331L16.213,144.331L9.872,131.65Z" style="fill:white;fill-rule:nonzero;stroke-width:2px;stroke:black;"/>
    <path d="M9.872,131.65L16.213,144.331L30.386,144.331C30.386,140.704 29.002,137.076 26.235,134.309C21.807,129.882 15.18,128.996 9.872,131.65L9.872,131.65Z" style="fill:rgb(255,38,0);fill-opacity:0.501961;fill-rule:nonzero;"/>
    <path d="M9.872,131.65L16.213,144.331L30.386,144.331C30.386,140.703 29.002,137.076 26.235,134.309C21.807,129.882 15.18,128.995 9.872,131.65Z" style="fill:none;stroke-width:2px;stroke:black;"/>
    <path d="M2.039,101.811C2.039,105.438 3.423,109.066 6.191,111.833C11.726,117.368 20.7,117.368 26.235,111.833C31.77,106.298 31.77,97.324 26.235,91.789C25.127,90.681 23.881,89.795 22.553,89.131L16.213,101.811L2.039,101.811Z" style="fill:white;fill-rule:nonzero;stroke-width:2px;stroke:black;"/>
    <path d="M2.039,101.811L16.213,101.811L22.553,89.131C17.245,86.476 10.618,87.362 6.191,91.789C3.423,94.557 2.039,98.184 2.039,101.811Z" style="fill:rgb(255,38,0);fill-opacity:0.501961;fill-rule:nonzero;stroke-width:2px;stroke:black;"/>
    <path d="M9.872,71.972C15.18,74.627 21.807,73.741 26.235,69.313C31.77,63.778 31.77,54.804 26.235,49.269C20.7,43.734 11.726,43.734 6.191,49.269L16.213,59.291L9.872,71.972Z" style="fill:white;fill-rule:nonzero;stroke-width:2px;stroke:black;"/>
    <rect x="44.559" y="2.598" width="141.732" height="28.346" style="fill:white;fill-rule:nonzero;stroke-width:2px;stroke:black;"/>
    <rect x="186.291" y="2.598" width="56.693" height="28.346" style="fill:rgb(255,38,0);fill-opacity:0.501961;fill-rule:nonzero;stroke-width:2px;stroke:black;"/>
    <rect x="242.984" y="2.598" width="28.346" height="28.346" style="fill:white;fill-rule:nonzero;stroke-width:2px;stroke:black;"/>
    <rect x="44.559" y="45.118" width="85.039" height="28.346" style="fill:white;fill-rule:nonzero;stroke-width:2px;stroke:black;"/>
    <rect x="129.598" y="45.118" width="70.866" height="28.346" style="fill:rgb(255,38,0);fill-opacity:0.501961;fill-rule:nonzero;stroke-width:2px;stroke:black;"/>
    <rect x="200.465" y="45.118" width="70.866" height="28.346" style="fill:white;fill-rule:nonzero;stroke-width:2px;stroke:black;"/>
    <rect x="44.559" y="87.638" width="42.52" height="28.347" style="fill:white;fill-rule:nonzero;stroke-width:2px;stroke:black;"/>
    <rect x="87.079" y="87.638" width="70.866" height="28.347" style="fill:rgb(255,38,0);fill-opacity:0.501961;fill-rule:nonzero;stroke-width:2px;stroke:black;"/>
    <rect x="157.945" y="87.638" width="113.386" height="28.347" style="fill:white;fill-rule:nonzero;stroke-width:2px;stroke:black;"/>
    <rect x="44.559" y="130.158" width="70.866" height="28.346" style="fill:rgb(255,38,0);fill-opacity:0.501961;fill-rule:nonzero;stroke-width:2px;stroke:black;"/>
    <rect x="115.425" y="130.158" width="155.905" height="28.346" style="fill:white;fill-rule:nonzero;stroke-width:2px;stroke:black;"/>
    <rect x="44.559" y="172.677" width="184.252" height="28.346" style="fill:white;fill-rule:nonzero;stroke-width:2px;stroke:black;"/>
    <rect x="228.811" y="172.677" width="42.52" height="28.346" style="fill:rgb(255,38,0);fill-opacity:0.501961;fill-rule:nonzero;stroke-width:2px;stroke:black;"/>
    <rect x="44.559" y="215.197" width="28.346" height="28.346" style="fill:rgb(255,38,0);fill-opacity:0.501961;fill-rule:nonzero;"/>
    <rect x="44.559" y="215.197" width="28.347" height="28.346" style="fill:none;stroke-width:2px;stroke:black;"/>
    <rect x="72.906" y="215.197" width="85.039" height="28.346" style="fill:white;fill-rule:nonzero;"/>
    <rect x="72.906" y="215.197" width="85.039" height="28.346" style="fill:none;stroke-width:2px;stroke:black;"/>
    <rect x="157.945" y="215.197" width="113.386" height="28.346" style="fill:rgb(255,38,0);fill-opacity:0.501961;fill-rule:nonzero;stroke-width:2px;stroke:black;"/>
    <g id="Trimado">
        <path d="M44.559,271.89L271.331,271.89" style="fill:none;stroke-width:2px;stroke:black;"/>
        <path d="M44.559,264.787L44.559,278.96" style="fill:none;stroke-width:2px;stroke:black;"/>
        <path d="M157.945,264.787L157.945,278.96" style="fill:none;stroke-width:2px;stroke:black;"/>
        <path d="M271.331,264.787L271.331,278.96" style="fill:none;stroke-width:2px;stroke:black;"/>
        <path d="M101.252,264.787L101.252,278.96" style="fill:none;stroke-width:2px;stroke:black;"/>
        <path d="M214.638,264.787L214.638,278.96" style="fill:none;stroke-width:2px;stroke:black;"/>
        <g>
            <clipPath id="_clip1">
                <path d="M53.782,272.9L65.803,284.921L46.711,304.013L34.69,291.992L53.782,272.9Z"/>
            </clipPath>
            <g clip-path="url(#_clip1)">
                <g>
                    <clipPath id="_clip2">
                        <path d="M34.838,292.202L46.859,304.223L65.951,285.131L53.93,273.11L34.838,292.202Z"/>
                    </clipPath>
                    <g clip-path="url(#_clip2)">
                        <g transform="matrix(0.707107,0.707107,-0.707107,0.707107,0,0)">
                            <path d="M240.137,155.908C234.578,155.908 231.744,160.32 231.744,168.999C231.744,173.196 232.497,176.818 233.753,178.576C235.008,180.333 237.016,181.338 239.24,181.338C244.656,181.338 247.382,176.675 247.382,167.493C247.382,159.638 245.051,155.908 240.137,155.908ZM239.491,157.163C242.97,157.163 244.369,160.678 244.369,169.286C244.369,176.926 243.006,180.082 239.706,180.082C236.227,180.082 234.757,176.46 234.757,167.708C234.757,160.14 236.084,157.163 239.491,157.163Z" style="fill:black;fill-rule:nonzero;"/>
                        </g>
                    </g>
                </g>
            </g>
        </g>
        <g>
            <clipPath id="_clip3">
                <path d="M113.241,272.9L137.99,297.649L118.898,316.74L94.149,291.992L113.241,272.9Z"/>
            </clipPath>
            <g clip-path="url(#_clip3)">
                <g>
                    <clipPath id="_clip4">
                        <path d="M94.68,292.07L119.429,316.818L138.521,297.726L113.772,272.978L94.68,292.07Z"/>
                    </clipPath>
                    <g clip-path="url(#_clip4)">
                        <g transform="matrix(0.707107,0.707107,-0.707107,0.707107,0,0)">
                            <path d="M277.204,138.93C281.185,137.638 282.907,136.813 284.844,135.164C288.323,132.187 290.152,128.062 290.152,123.256C290.152,117.194 287.247,113.5 282.512,113.5C277.921,113.5 274.478,117.087 274.478,121.893C274.478,126.018 277.168,129.03 280.898,129.03C282.118,129.03 283.517,128.636 284.162,128.098L286.673,126.018C286.386,132.043 282.476,136.455 275.985,138.033L275.985,138.32L277.204,138.93ZM282.369,114.684C283.983,114.684 285.166,115.365 285.956,116.8C286.601,117.947 287.032,119.705 287.032,121.319C287.032,124.619 285.131,126.842 282.369,126.842C279.5,126.842 277.563,124.296 277.563,120.566C277.563,116.943 279.428,114.684 282.369,114.684Z" style="fill:black;fill-rule:nonzero;"/>
                            <path d="M301.091,113.5C295.532,113.5 292.698,117.912 292.698,126.591C292.698,130.788 293.452,134.41 294.707,136.168C295.962,137.925 297.971,138.93 300.195,138.93C305.611,138.93 308.336,134.267 308.336,125.085C308.336,117.23 306.005,113.5 301.091,113.5ZM300.446,114.755C303.925,114.755 305.324,118.27 305.324,126.878C305.324,134.518 303.961,137.674 300.661,137.674C297.182,137.674 295.711,134.052 295.711,125.3C295.711,117.732 297.038,114.755 300.446,114.755Z" style="fill:black;fill-rule:nonzero;"/>
                        </g>
                    </g>
                </g>
            </g>
        </g>
        <g>
            <clipPath id="_clip5">
                <path d="M170.766,272.9L207.535,309.669L188.443,328.761L151.674,291.992L170.766,272.9Z"/>
            </clipPath>
            <g clip-path="url(#_clip5)">
                <g>
                    <clipPath id="_clip6">
                        <path d="M152.187,292.038L188.957,328.807L208.049,309.715L171.279,272.946L152.187,292.038Z"/>
                    </clipPath>
                    <g clip-path="url(#_clip6)">
                        <g transform="matrix(0.707107,0.707107,-0.707107,0.707107,0,0)">
                            <path d="M327.666,97.634L327.666,96.558L325.801,96.45C323.828,96.342 323.47,95.948 323.47,94.083L323.47,72.419L314.826,76.078L315.077,77.871L320.457,75.504L320.457,94.083C320.457,95.948 320.062,96.342 318.126,96.45L316.117,96.558L316.117,97.634C321.641,97.526 321.641,97.526 322.035,97.526C323.147,97.526 327.092,97.634 327.666,97.634Z" style="fill:black;fill-rule:nonzero;"/>
                            <path d="M336.597,85.152C335.127,85.833 334.517,86.228 333.728,86.981C332.365,88.344 331.647,89.958 331.647,91.823C331.647,95.517 334.624,98.243 338.677,98.243C343.34,98.243 347.214,94.585 347.214,90.137C347.214,87.268 345.887,85.726 341.798,83.861C345.062,81.637 346.209,80.131 346.209,77.979C346.209,74.894 343.663,72.814 339.861,72.814C335.593,72.814 332.472,75.54 332.472,79.306C332.472,81.745 333.441,83.107 336.597,85.152ZM340.758,86.945C343.017,87.95 344.38,89.707 344.38,91.644C344.38,94.657 342.121,97.024 339.215,97.024C336.167,97.024 334.194,94.872 334.194,91.536C334.194,88.918 335.234,87.268 337.888,85.654L340.758,86.945ZM338.57,82.354C336.31,81.242 335.162,79.808 335.162,78.014C335.162,75.647 336.884,74.033 339.431,74.033C342.049,74.033 343.77,75.755 343.77,78.373C343.77,80.417 342.874,81.816 340.542,83.323L338.57,82.354Z" style="fill:black;fill-rule:nonzero;"/>
                            <path d="M357.902,72.814C352.343,72.814 349.509,77.225 349.509,85.905C349.509,90.102 350.262,93.724 351.518,95.482C352.773,97.239 354.782,98.243 357.005,98.243C362.421,98.243 365.147,93.581 365.147,84.399C365.147,76.544 362.816,72.814 357.902,72.814ZM357.256,74.069C360.735,74.069 362.134,77.584 362.134,86.192C362.134,93.832 360.771,96.988 357.472,96.988C353.992,96.988 352.522,93.365 352.522,84.614C352.522,77.046 353.849,74.069 357.256,74.069Z" style="fill:black;fill-rule:nonzero;"/>
                        </g>
                    </g>
                </g>
            </g>
        </g>
        <g>
            <clipPath id="_clip7">
                <path d="M226.752,272.9L264.228,310.377L245.136,329.468L207.66,291.992L226.752,272.9Z"/>
            </clipPath>
            <g clip-path="url(#_clip7)">
                <g>
                    <clipPath id="_clip8">
                        <path d="M207.122,291.901L244.599,329.378L263.691,310.286L226.214,272.809L207.122,291.901Z"/>
                    </clipPath>
                    <g clip-path="url(#_clip8)">
                        <g transform="matrix(0.707107,0.707107,-0.707107,0.707107,0,0)">
                            <path d="M352.996,57.76L352.996,58.692C359.703,58.692 359.703,58.584 360.995,58.584C362.286,58.584 362.286,58.692 369.208,58.692L369.208,55.643C365.083,55.823 363.434,55.679 356.798,55.823L363.326,48.9C366.805,45.206 367.881,43.233 367.881,40.543C367.881,36.419 365.083,33.872 360.528,33.872C357.946,33.872 356.189,34.59 354.431,36.383L353.821,41.261L354.861,41.261L355.328,39.611C355.902,37.531 357.193,36.634 359.596,36.634C362.68,36.634 364.653,38.571 364.653,41.619C364.653,44.309 363.147,46.964 359.094,51.268L352.996,57.76Z" style="fill:black;fill-rule:nonzero;"/>
                            <path d="M384.99,36.957L372.006,58.62L375.951,58.62L388.146,34.948L388.146,33.872L371.898,33.872L371.898,41.476L372.974,41.476L373.225,39.467C373.512,37.244 373.763,36.957 375.413,36.957L384.99,36.957Z" style="fill:black;fill-rule:nonzero;"/>
                            <path d="M397.651,33.872C392.091,33.872 389.258,38.284 389.258,46.964C389.258,51.16 390.011,54.783 391.266,56.54C392.522,58.298 394.53,59.302 396.754,59.302C402.17,59.302 404.896,54.639 404.896,45.457C404.896,37.602 402.564,33.872 397.651,33.872ZM397.005,35.128C400.484,35.128 401.883,38.643 401.883,47.251C401.883,54.89 400.52,58.046 397.22,58.046C393.741,58.046 392.27,54.424 392.27,45.672C392.27,38.104 393.598,35.128 397.005,35.128Z" style="fill:black;fill-rule:nonzero;"/>
                        </g>
                    </g>
                </g>
            </g>
        </g>
    </g>
</svg>
