<?xml version="1.0" standalone="no"?>
<!DOCTYPE svg PUBLIC "-//W3C//DTD SVG 1.1//EN" "http://www.w3.org/Graphics/SVG/1.1/DTD/svg11.dtd">
<svg width="100%" height="100%" viewBox="0 0 964 565" version="1.1" xmlns="http://www.w3.org/2000/svg" xmlns:xlink="http://www.w3.org/1999/xlink" xml:space="preserve" style="fill-rule:evenodd;clip-rule:evenodd;stroke-linecap:round;stroke-linejoin:round;stroke-miterlimit:10;">
    <rect x="-513" y="-47" width="1677" height="783" style="fill:white;fill-rule:nonzero;"/>
    <path d="M456.65,301.46C467.72,312.53 467.72,330.478 456.65,341.548C445.58,352.618 427.632,352.618 416.562,341.548C405.492,330.478 405.492,312.53 416.562,301.46C427.632,290.39 445.58,290.39 456.65,301.46" style="fill:rgb(1,72,255);fill-opacity:0.501961;fill-rule:nonzero;stroke-width:2px;stroke:black;"/>
    <path d="M740.115,301.46C751.185,312.53 751.185,330.478 740.115,341.548C729.045,352.618 711.097,352.618 700.027,341.548C688.957,330.478 688.957,312.53 700.027,301.46C711.097,290.39 729.045,290.39 740.115,301.46" style="fill:rgb(1,72,255);fill-opacity:0.501961;fill-rule:nonzero;stroke-width:2px;stroke:black;"/>
    <path d="M314.918,159.728C325.988,170.798 325.988,188.746 314.918,199.816C303.848,210.886 285.9,210.886 274.83,199.816C263.76,188.746 263.76,170.798 274.83,159.728C285.9,148.658 303.848,148.658 314.918,159.728" style="fill:rgb(255,38,0);fill-opacity:0.501961;fill-rule:nonzero;"/>
    <path d="M558.295,128.95L578.339,108.906L578.339,80.559C571.084,80.559 563.83,83.327 558.295,88.862C547.225,99.932 547.225,117.88 558.295,128.95Z" style="fill:rgb(255,38,0);fill-opacity:0.501961;fill-rule:nonzero;stroke-width:2px;stroke:black;"/>
    <path d="M669.249,88.862L649.205,108.906L649.205,137.252C656.459,137.252 663.714,134.485 669.249,128.95C680.319,117.88 680.319,99.932 669.249,88.862Z" style="fill:rgb(255,38,0);fill-opacity:0.501961;fill-rule:nonzero;stroke-width:2px;stroke:black;"/>
    <path d="M810.981,88.862C805.446,83.327 798.192,80.559 790.937,80.559L790.937,108.906L810.981,88.862Z" style="fill:rgb(255,38,0);fill-opacity:0.501961;fill-rule:nonzero;"/>
    <path d="M810.981,88.862C805.446,83.327 798.191,80.559 790.937,80.559L790.937,108.905L810.981,88.862Z" style="fill:none;stroke-width:2px;stroke:black;"/>
    <path d="M598.382,159.728C609.453,170.798 609.453,188.746 598.382,199.816C587.313,210.886 569.365,210.886 558.295,199.816C547.225,188.746 547.225,170.798 558.295,159.728C569.365,148.658 587.313,148.658 598.382,159.728" style="fill:rgb(255,38,0);fill-opacity:0.501961;fill-rule:nonzero;"/>
    <path d="M669.249,159.728C680.319,170.798 680.319,188.746 669.249,199.816C658.179,210.886 640.231,210.886 629.161,199.816C618.091,188.746 618.091,170.798 629.161,159.728C640.231,148.658 658.179,148.658 669.249,159.728" style="fill:rgb(255,38,0);fill-opacity:0.501961;fill-rule:nonzero;"/>
    <path d="M810.981,159.728C822.051,170.798 822.051,188.746 810.981,199.816C799.911,210.886 781.963,210.886 770.893,199.816C759.823,188.746 759.823,170.798 770.893,159.728C781.963,148.658 799.911,148.658 810.981,159.728" style="fill:rgb(255,38,0);fill-opacity:0.501961;fill-rule:nonzero;"/>
    <path d="M456.65,372.326C467.72,383.396 467.72,401.344 456.65,412.414C445.58,423.484 427.632,423.484 416.562,412.414C405.492,401.344 405.492,383.396 416.562,372.326C427.632,361.256 445.58,361.256 456.65,372.326" style="fill:white;fill-rule:nonzero;stroke-width:2px;stroke:black;"/>
    <path d="M527.516,372.326C538.586,383.396 538.586,401.344 527.516,412.414C516.446,423.484 498.498,423.484 487.428,412.414C476.359,401.344 476.359,383.396 487.428,372.326C498.498,361.256 516.446,361.256 527.516,372.326" style="fill:white;fill-rule:nonzero;stroke-width:2px;stroke:black;"/>
    <path d="M598.382,372.326C609.453,383.396 609.453,401.344 598.382,412.414C587.313,423.484 569.365,423.484 558.295,412.414C547.225,401.344 547.225,383.396 558.295,372.326C569.365,361.256 587.313,361.256 598.382,372.326" style="fill:white;fill-rule:nonzero;stroke-width:2px;stroke:black;"/>
    <path d="M669.249,372.326C680.319,383.396 680.319,401.344 669.249,412.414C658.179,423.484 640.231,423.484 629.161,412.414C618.091,401.344 618.091,383.396 629.161,372.326C640.231,361.256 658.179,361.256 669.249,372.326" style="fill:white;fill-rule:nonzero;stroke-width:2px;stroke:black;"/>
    <path d="M740.115,372.326C751.185,383.396 751.185,401.344 740.115,412.414C729.045,423.484 711.097,423.484 700.027,412.414C688.957,401.344 688.957,383.396 700.027,372.326C711.097,361.256 729.045,361.256 740.115,372.326" style="fill:white;fill-rule:nonzero;stroke-width:2px;stroke:black;"/>
    <path d="M810.981,372.326C822.051,383.396 822.051,401.344 810.981,412.414C799.911,423.484 781.963,423.484 770.893,412.414C759.823,401.344 759.823,383.396 770.893,372.326C781.963,361.256 799.911,361.256 810.981,372.326" style="fill:white;fill-rule:nonzero;stroke-width:2px;stroke:black;"/>
    <path d="M881.847,372.326C892.917,383.396 892.917,401.344 881.847,412.414C870.777,423.484 852.829,423.484 841.759,412.414C830.689,401.344 830.689,383.396 841.759,372.326C852.829,361.256 870.777,361.256 881.847,372.326" style="fill:white;fill-rule:nonzero;stroke-width:2px;stroke:black;"/>
    <path d="M952.713,372.326C963.783,383.396 963.783,401.344 952.713,412.414C941.643,423.484 923.695,423.484 912.625,412.414C901.555,401.344 901.555,383.396 912.625,372.326C923.695,361.256 941.643,361.256 952.713,372.326" style="fill:white;fill-rule:nonzero;stroke-width:2px;stroke:black;"/>
    <path d="M244.052,443.192C255.122,454.262 255.122,472.21 244.052,483.28C232.982,494.35 215.034,494.35 203.964,483.28C192.894,472.21 192.894,454.262 203.964,443.192C215.034,432.122 232.982,432.122 244.052,443.192" style="fill:white;fill-rule:nonzero;stroke-width:2px;stroke:black;"/>
    <path d="M314.918,443.192C325.988,454.262 325.988,472.21 314.918,483.28C303.848,494.35 285.9,494.35 274.83,483.28C263.76,472.21 263.76,454.262 274.83,443.192C285.9,432.122 303.848,432.122 314.918,443.192" style="fill:white;fill-rule:nonzero;stroke-width:2px;stroke:black;"/>
    <path d="M385.784,443.192C396.854,454.262 396.854,472.21 385.784,483.28C374.714,494.35 356.766,494.35 345.696,483.28C334.626,472.21 334.626,454.262 345.696,443.192C356.766,432.122 374.714,432.122 385.784,443.192" style="fill:white;fill-rule:nonzero;stroke-width:2px;stroke:black;"/>
    <path d="M456.65,443.192C467.72,454.262 467.72,472.21 456.65,483.28C445.58,494.35 427.632,494.35 416.562,483.28C405.492,472.21 405.492,454.262 416.562,443.192C427.632,432.122 445.58,432.122 456.65,443.192" style="fill:white;fill-rule:nonzero;stroke-width:2px;stroke:black;"/>
    <path d="M527.516,443.192C538.586,454.262 538.586,472.21 527.516,483.28C516.446,494.35 498.498,494.35 487.428,483.28C476.359,472.21 476.359,454.262 487.428,443.192C498.498,432.122 516.446,432.122 527.516,443.192" style="fill:white;fill-rule:nonzero;stroke-width:2px;stroke:black;"/>
    <path d="M598.382,443.192C609.453,454.262 609.453,472.21 598.382,483.28C587.313,494.35 569.365,494.35 558.295,483.28C547.225,472.21 547.225,454.262 558.295,443.192C569.365,432.122 587.313,432.122 598.382,443.192" style="fill:white;fill-rule:nonzero;stroke-width:2px;stroke:black;"/>
    <path d="M669.249,443.192C680.319,454.262 680.319,472.21 669.249,483.28C658.179,494.35 640.231,494.35 629.161,483.28C618.091,472.21 618.091,454.262 629.161,443.192C640.231,432.122 658.179,432.122 669.249,443.192" style="fill:white;fill-rule:nonzero;stroke-width:2px;stroke:black;"/>
    <path d="M740.115,443.192C751.185,454.262 751.185,472.21 740.115,483.28C729.045,494.35 711.097,494.35 700.027,483.28C688.957,472.21 688.957,454.262 700.027,443.192C711.097,432.122 729.045,432.122 740.115,443.192" style="fill:white;fill-rule:nonzero;stroke-width:2px;stroke:black;"/>
    <path d="M810.981,443.192C822.051,454.262 822.051,472.21 810.981,483.28C799.911,494.35 781.963,494.35 770.893,483.28C759.823,472.21 759.823,454.262 770.893,443.192C781.963,432.122 799.911,432.122 810.981,443.192" style="fill:white;fill-rule:nonzero;stroke-width:2px;stroke:black;"/>
    <path d="M881.847,443.192C892.917,454.262 892.917,472.21 881.847,483.28C870.777,494.35 852.829,494.35 841.759,483.28C830.689,472.21 830.689,454.262 841.759,443.192C852.829,432.122 870.777,432.122 881.847,443.192" style="fill:white;fill-rule:nonzero;stroke-width:2px;stroke:black;"/>
    <path d="M952.713,443.192C963.783,454.262 963.783,472.21 952.713,483.28C941.643,494.35 923.695,494.35 912.625,483.28C901.555,472.21 901.555,454.262 912.625,443.192C923.695,432.122 941.643,432.122 952.713,443.192" style="fill:white;fill-rule:nonzero;stroke-width:2px;stroke:black;"/>
    <path d="M244.052,514.058C255.122,525.128 255.122,543.076 244.052,554.146C232.982,565.216 215.034,565.216 203.964,554.146C192.894,543.076 192.894,525.128 203.964,514.058C215.034,502.988 232.982,502.988 244.052,514.058" style="fill:white;fill-rule:nonzero;stroke-width:2px;stroke:black;"/>
    <path d="M314.918,514.058C325.988,525.128 325.988,543.076 314.918,554.146C303.848,565.216 285.9,565.216 274.83,554.146C263.76,543.076 263.76,525.128 274.83,514.058C285.9,502.988 303.848,502.988 314.918,514.058" style="fill:white;fill-rule:nonzero;stroke-width:2px;stroke:black;"/>
    <path d="M385.784,514.058C396.854,525.128 396.854,543.076 385.784,554.146C374.714,565.216 356.766,565.216 345.696,554.146C334.626,543.076 334.626,525.128 345.696,514.058C356.766,502.988 374.714,502.988 385.784,514.058" style="fill:white;fill-rule:nonzero;stroke-width:2px;stroke:black;"/>
    <path d="M456.65,514.058C467.72,525.128 467.72,543.076 456.65,554.146C445.58,565.216 427.632,565.216 416.562,554.146C405.492,543.076 405.492,525.128 416.562,514.058C427.632,502.988 445.58,502.988 456.65,514.058" style="fill:white;fill-rule:nonzero;stroke-width:2px;stroke:black;"/>
    <path d="M527.516,514.058C538.586,525.128 538.586,543.076 527.516,554.146C516.446,565.216 498.498,565.216 487.428,554.146C476.359,543.076 476.359,525.128 487.428,514.058C498.498,502.988 516.446,502.988 527.516,514.058" style="fill:white;fill-rule:nonzero;stroke-width:2px;stroke:black;"/>
    <path d="M598.382,514.058C609.453,525.128 609.453,543.076 598.382,554.146C587.313,565.216 569.365,565.216 558.295,554.146C547.225,543.076 547.225,525.128 558.295,514.058C569.365,502.988 587.313,502.988 598.382,514.058" style="fill:white;fill-rule:nonzero;stroke-width:2px;stroke:black;"/>
    <path d="M669.249,514.058C680.319,525.128 680.319,543.076 669.249,554.146C658.179,565.216 640.231,565.216 629.161,554.146C618.091,543.076 618.091,525.128 629.161,514.058C640.231,502.988 658.179,502.988 669.249,514.058" style="fill:white;fill-rule:nonzero;stroke-width:2px;stroke:black;"/>
    <path d="M740.115,514.058C751.185,525.128 751.185,543.076 740.115,554.146C729.045,565.216 711.097,565.216 700.027,554.146C688.957,543.076 688.957,525.128 700.027,514.058C711.097,502.988 729.045,502.988 740.115,514.058" style="fill:white;fill-rule:nonzero;stroke-width:2px;stroke:black;"/>
    <path d="M810.981,514.058C822.051,525.128 822.051,543.076 810.981,554.146C799.911,565.216 781.963,565.216 770.893,554.146C759.823,543.076 759.823,525.128 770.893,514.058C781.963,502.988 799.911,502.988 810.981,514.058" style="fill:white;fill-rule:nonzero;stroke-width:2px;stroke:black;"/>
    <path d="M881.847,514.058C892.917,525.128 892.917,543.076 881.847,554.146C870.777,565.216 852.829,565.216 841.759,554.146C830.689,543.076 830.689,525.128 841.759,514.058C852.829,502.988 870.777,502.988 881.847,514.058" style="fill:white;fill-rule:nonzero;stroke-width:2px;stroke:black;"/>
    <path d="M952.713,514.058C963.783,525.128 963.783,543.076 952.713,554.146C941.643,565.216 923.695,565.216 912.625,554.146C901.555,543.076 901.555,525.128 912.625,514.058C923.695,502.988 941.643,502.988 952.713,514.058" style="fill:white;fill-rule:nonzero;stroke-width:2px;stroke:black;"/>
    <path d="M203.964,270.682C215.034,281.752 232.982,281.752 244.052,270.682L224.008,250.638L203.964,270.682Z" style="fill:rgb(1,72,255);fill-opacity:0.501961;fill-rule:nonzero;stroke-width:2px;stroke:black;"/>
    <path d="M385.784,230.594L365.74,250.638L385.784,270.682C396.854,259.612 396.854,241.664 385.784,230.594Z" style="fill:rgb(1,72,255);fill-opacity:0.501961;fill-rule:nonzero;stroke-width:2px;stroke:black;"/>
    <path d="M487.428,230.594L507.472,250.638L516.438,277.536C520.488,276.189 524.294,273.905 527.516,270.682C538.586,259.612 538.586,241.664 527.516,230.594C516.446,219.524 498.498,219.524 487.428,230.594Z" style="fill:rgb(1,72,255);fill-opacity:0.501961;fill-rule:nonzero;stroke-width:2px;stroke:black;"/>
    <path d="M578.339,278.984L578.339,250.638L558.295,230.594C547.225,241.664 547.225,259.612 558.295,270.682C563.83,276.217 571.084,278.984 578.339,278.984Z" style="fill:rgb(1,72,255);fill-opacity:0.501961;fill-rule:nonzero;stroke-width:2px;stroke:black;"/>
    <path d="M852.837,223.74L861.803,250.638L890.15,250.638C890.15,243.383 887.382,236.129 881.847,230.594C874,222.747 862.697,220.462 852.837,223.74Z" style="fill:rgb(1,72,255);fill-opacity:0.501961;fill-rule:nonzero;stroke-width:2px;stroke:black;"/>
    <path d="M904.323,250.638L932.669,250.638L932.669,222.291C925.415,222.291 918.16,225.059 912.625,230.594C907.09,236.129 904.323,243.383 904.323,250.638Z" style="fill:rgb(1,72,255);fill-opacity:0.501961;fill-rule:nonzero;stroke-width:2px;stroke:black;"/>
    <path d="M244.052,301.46C255.122,312.53 255.122,330.478 244.052,341.548C232.982,352.618 215.034,352.618 203.964,341.548C192.894,330.478 192.894,312.53 203.964,301.46C215.034,290.39 232.982,290.39 244.052,301.46" style="fill:rgb(1,72,255);fill-opacity:0.501961;fill-rule:nonzero;stroke-width:2px;stroke:black;"/>
    <path d="M385.784,301.46C396.854,312.53 396.854,330.478 385.784,341.548C374.714,352.618 356.766,352.618 345.696,341.548C334.626,330.478 334.626,312.53 345.696,301.46C356.766,290.39 374.714,290.39 385.784,301.46" style="fill:rgb(1,72,255);fill-opacity:0.501961;fill-rule:nonzero;stroke-width:2px;stroke:black;"/>
    <path d="M527.516,301.46C538.586,312.53 538.586,330.478 527.516,341.548C516.446,352.618 498.498,352.618 487.428,341.548C476.359,330.478 476.359,312.53 487.428,301.46C498.498,290.39 516.446,290.39 527.516,301.46" style="fill:rgb(1,72,255);fill-opacity:0.501961;fill-rule:nonzero;stroke-width:2px;stroke:black;"/>
    <path d="M598.382,301.46C609.453,312.53 609.453,330.478 598.382,341.548C587.313,352.618 569.365,352.618 558.295,341.548C547.225,330.478 547.225,312.53 558.295,301.46C569.365,290.39 587.313,290.39 598.382,301.46" style="fill:rgb(1,72,255);fill-opacity:0.501961;fill-rule:nonzero;stroke-width:2px;stroke:black;"/>
    <path d="M881.847,301.46C892.917,312.53 892.917,330.478 881.847,341.548C870.777,352.618 852.829,352.618 841.759,341.548C830.689,330.478 830.689,312.53 841.759,301.46C852.829,290.39 870.777,290.39 881.847,301.46" style="fill:rgb(1,72,255);fill-opacity:0.501961;fill-rule:nonzero;stroke-width:2px;stroke:black;"/>
    <path d="M952.713,301.46C963.783,312.53 963.783,330.478 952.713,341.548C941.643,352.618 923.695,352.618 912.625,341.548C901.555,330.478 901.555,312.53 912.625,301.46C923.695,290.39 941.643,290.39 952.713,301.46" style="fill:rgb(1,72,255);fill-opacity:0.501961;fill-rule:nonzero;stroke-width:2px;stroke:black;"/>
    <path d="M274.83,128.95C280.365,134.485 287.62,137.252 294.874,137.252L294.874,108.906L274.83,128.95Z" style="fill:rgb(255,38,0);fill-opacity:0.501961;fill-rule:nonzero;stroke-width:2px;stroke:black;"/>
    <path d="M314.918,88.862C325.988,99.932 325.988,117.879 314.918,128.949C303.848,140.019 285.9,140.019 274.83,128.949C263.76,117.879 263.76,99.932 274.83,88.862C285.9,77.792 303.848,77.792 314.918,88.862" style="fill:none;stroke-width:2px;stroke:black;"/>
    <path d="M598.383,88.862C609.453,99.932 609.453,117.879 598.383,128.949C587.313,140.019 569.365,140.019 558.295,128.949C547.225,117.879 547.225,99.932 558.295,88.862C569.365,77.792 587.313,77.792 598.383,88.862" style="fill:none;stroke-width:2px;stroke:black;"/>
    <path d="M669.249,88.862C680.319,99.932 680.319,117.879 669.249,128.949C658.179,140.019 640.231,140.019 629.161,128.949C618.091,117.879 618.091,99.932 629.161,88.862C640.231,77.792 658.179,77.792 669.249,88.862" style="fill:none;stroke-width:2px;stroke:black;"/>
    <path d="M810.981,88.862C822.051,99.932 822.051,117.879 810.981,128.949C799.911,140.019 781.963,140.019 770.893,128.949C759.823,117.879 759.823,99.932 770.893,88.862C781.963,77.792 799.911,77.792 810.981,88.862" style="fill:none;stroke-width:2px;stroke:black;"/>
    <path d="M558.295,199.816L578.339,179.772L578.339,151.425C571.084,151.425 563.83,154.193 558.295,159.728C547.225,170.798 547.225,188.746 558.295,199.816Z" style="fill:white;fill-rule:nonzero;stroke-width:2px;stroke:black;"/>
    <path d="M669.249,159.728L649.205,179.772L649.205,208.118C656.459,208.118 663.714,205.351 669.249,199.816C680.319,188.746 680.319,170.798 669.249,159.728Z" style="fill:white;fill-rule:nonzero;stroke-width:2px;stroke:black;"/>
    <path d="M810.981,159.728C805.446,154.193 798.192,151.425 790.937,151.425L790.937,179.772L810.981,159.728Z" style="fill:white;fill-rule:nonzero;"/>
    <path d="M810.981,159.728C805.446,154.193 798.191,151.425 790.937,151.425L790.937,179.772L810.981,159.728Z" style="fill:none;stroke-width:2px;stroke:black;"/>
    <path d="M274.83,199.816C280.365,205.351 287.62,208.118 294.874,208.118L294.874,179.772L274.83,199.816Z" style="fill:white;fill-rule:nonzero;stroke-width:2px;stroke:black;"/>
    <path d="M314.918,159.728C325.988,170.798 325.988,188.746 314.918,199.816C303.848,210.886 285.9,210.886 274.83,199.816C263.76,188.746 263.76,170.798 274.83,159.728C285.9,148.658 303.848,148.658 314.918,159.728" style="fill:none;stroke-width:2px;stroke:black;"/>
    <path d="M598.383,159.728C609.453,170.798 609.453,188.746 598.383,199.816C587.313,210.886 569.365,210.886 558.295,199.816C547.225,188.746 547.225,170.798 558.295,159.728C569.365,148.658 587.313,148.658 598.383,159.728" style="fill:none;stroke-width:2px;stroke:black;"/>
    <path d="M669.249,159.728C680.319,170.798 680.319,188.746 669.249,199.816C658.179,210.886 640.231,210.886 629.161,199.816C618.091,188.746 618.091,170.798 629.161,159.728C640.231,148.658 658.179,148.658 669.249,159.728" style="fill:none;stroke-width:2px;stroke:black;"/>
    <path d="M810.981,159.728C822.051,170.798 822.051,188.746 810.981,199.816C799.911,210.886 781.963,210.886 770.893,199.816C759.823,188.746 759.823,170.798 770.893,159.728C781.963,148.658 799.911,148.658 810.981,159.728" style="fill:none;stroke-width:2px;stroke:black;"/>
    <path d="M244.052,230.594C255.122,241.664 255.122,259.612 244.052,270.682C232.982,281.752 215.034,281.752 203.964,270.682C192.894,259.612 192.894,241.664 203.964,230.594C215.034,219.524 232.982,219.524 244.052,230.594" style="fill:none;stroke-width:2px;stroke:black;"/>
    <path d="M385.784,230.594C396.854,241.664 396.854,259.612 385.784,270.682C374.714,281.752 356.766,281.752 345.696,270.682C334.626,259.612 334.626,241.664 345.696,230.594C356.766,219.524 374.714,219.524 385.784,230.594" style="fill:none;stroke-width:2px;stroke:black;"/>
    <path d="M527.516,230.594C538.586,241.664 538.586,259.612 527.516,270.682C516.446,281.752 498.498,281.752 487.428,270.682C476.358,259.612 476.358,241.664 487.428,230.594C498.498,219.524 516.446,219.524 527.516,230.594" style="fill:none;stroke-width:2px;stroke:black;"/>
    <path d="M598.383,230.594C609.453,241.664 609.453,259.612 598.383,270.682C587.313,281.752 569.365,281.752 558.295,270.682C547.225,259.612 547.225,241.664 558.295,230.594C569.365,219.524 587.313,219.524 598.383,230.594" style="fill:none;stroke-width:2px;stroke:black;"/>
    <path d="M881.847,230.594C892.917,241.664 892.917,259.612 881.847,270.682C870.777,281.752 852.829,281.752 841.759,270.682C830.689,259.612 830.689,241.664 841.759,230.594C852.829,219.524 870.777,219.524 881.847,230.594" style="fill:none;stroke-width:2px;stroke:black;"/>
    <path d="M952.713,230.594C963.783,241.664 963.783,259.612 952.713,270.682C941.643,281.752 923.695,281.752 912.625,270.682C901.555,259.612 901.555,241.664 912.625,230.594C923.695,219.524 941.643,219.524 952.713,230.594" style="fill:none;stroke-width:2px;stroke:black;"/>
    <path d="M203.964,341.548C215.034,352.618 232.982,352.618 244.052,341.548L224.008,321.504L203.964,341.548Z" style="fill:white;fill-rule:nonzero;stroke-width:2px;stroke:black;"/>
    <path d="M385.784,301.46L365.74,321.504L385.784,341.548C396.854,330.478 396.854,312.53 385.784,301.46Z" style="fill:white;fill-rule:nonzero;stroke-width:2px;stroke:black;"/>
    <path d="M487.428,301.46L507.472,321.504L516.438,348.402C520.488,347.055 524.294,344.771 527.516,341.548C538.586,330.478 538.586,312.53 527.516,301.46C516.446,290.39 498.498,290.39 487.428,301.46Z" style="fill:white;fill-rule:nonzero;stroke-width:2px;stroke:black;"/>
    <path d="M578.339,349.85L578.339,321.504L558.295,301.46C547.225,312.53 547.225,330.478 558.295,341.548C563.83,347.083 571.084,349.85 578.339,349.85Z" style="fill:white;fill-rule:nonzero;stroke-width:2px;stroke:black;"/>
    <path d="M852.837,294.606L861.803,321.504L890.15,321.504C890.15,314.25 887.382,306.995 881.847,301.46C874,293.613 862.697,291.328 852.837,294.606Z" style="fill:white;fill-rule:nonzero;stroke-width:2px;stroke:black;"/>
    <path d="M904.323,321.504L932.669,321.504L932.669,293.157C925.415,293.157 918.16,295.925 912.625,301.46C907.09,306.995 904.323,314.25 904.323,321.504Z" style="fill:white;fill-rule:nonzero;stroke-width:2px;stroke:black;"/>
    <path d="M203.964,412.414C215.034,423.484 232.982,423.484 244.052,412.414L224.008,392.37L203.964,412.414Z" style="fill:rgb(196,102,139);fill-rule:nonzero;stroke-width:2px;stroke:black;"/>
    <path d="M244.052,372.326C255.122,383.396 255.122,401.344 244.052,412.414C232.982,423.484 215.034,423.484 203.964,412.414C192.894,401.344 192.894,383.396 203.964,372.326C215.034,361.256 232.982,361.256 244.052,372.326" style="fill:none;stroke-width:2px;stroke:black;"/>
    <path d="M274.83,412.414C280.365,417.949 287.62,420.717 294.874,420.717L294.874,392.37L274.83,412.414Z" style="fill:rgb(196,102,139);fill-rule:nonzero;stroke-width:2px;stroke:black;"/>
    <path d="M314.918,372.326C325.988,383.396 325.988,401.344 314.918,412.414C303.848,423.484 285.9,423.484 274.83,412.414C263.76,401.344 263.76,383.396 274.83,372.326C285.9,361.256 303.848,361.256 314.918,372.326" style="fill:none;stroke-width:2px;stroke:black;"/>
    <path d="M385.784,372.326L365.74,392.37L385.784,412.414C396.854,401.344 396.854,383.396 385.784,372.326Z" style="fill:rgb(196,102,139);fill-rule:nonzero;stroke-width:2px;stroke:black;"/>
    <path d="M385.784,372.326C396.854,383.396 396.854,401.344 385.784,412.414C374.714,423.484 356.766,423.484 345.696,412.414C334.626,401.344 334.626,383.396 345.696,372.326C356.766,361.256 374.714,361.256 385.784,372.326" style="fill:none;stroke-width:2px;stroke:black;"/>
    <path d="M456.65,88.862L416.562,128.95C427.632,140.02 445.58,140.02 456.65,128.95C467.72,117.88 467.72,99.932 456.65,88.862Z" style="fill:rgb(255,38,0);fill-opacity:0.501961;fill-rule:nonzero;stroke-width:2px;stroke:black;"/>
    <path d="M456.65,88.862C467.72,99.932 467.72,117.879 456.65,128.949C445.58,140.019 427.632,140.019 416.562,128.949C405.492,117.879 405.492,99.932 416.562,88.862C427.632,77.792 445.58,77.792 456.65,88.862" style="fill:none;stroke-width:2px;stroke:black;"/>
    <path d="M527.516,88.862L487.428,128.95C498.498,140.02 516.446,140.02 527.516,128.95C538.586,117.88 538.586,99.932 527.516,88.862Z" style="fill:rgb(255,38,0);fill-opacity:0.501961;fill-rule:nonzero;stroke-width:2px;stroke:black;"/>
    <path d="M527.516,88.862C538.586,99.932 538.586,117.879 527.516,128.949C516.446,140.019 498.498,140.019 487.428,128.949C476.358,117.879 476.358,99.932 487.428,88.862C498.498,77.792 516.446,77.792 527.516,88.862" style="fill:none;stroke-width:2px;stroke:black;"/>
    <path d="M385.784,88.862C396.854,99.932 396.854,117.879 385.784,128.949C374.714,140.019 356.766,140.019 345.696,128.949C334.626,117.879 334.626,99.932 345.696,88.862C356.766,77.792 374.714,77.792 385.784,88.862" style="fill:none;stroke-width:2px;stroke:black;"/>
    <path d="M244.052,88.862C255.122,99.932 255.122,117.879 244.052,128.949C232.982,140.019 215.034,140.019 203.964,128.949C192.894,117.879 192.894,99.932 203.964,88.862C215.034,77.792 232.982,77.792 244.052,88.862" style="fill:none;stroke-width:2px;stroke:black;"/>
    <path d="M700.027,128.95L740.115,88.862C729.045,77.792 711.097,77.792 700.027,88.862C688.957,99.932 688.957,117.88 700.027,128.95Z" style="fill:rgb(255,38,0);fill-opacity:0.501961;fill-rule:nonzero;stroke-width:2px;stroke:black;"/>
    <path d="M740.115,88.862C751.185,99.932 751.185,117.879 740.115,128.949C729.045,140.019 711.097,140.019 700.027,128.949C688.957,117.879 688.957,99.932 700.027,88.862C711.097,77.792 729.045,77.792 740.115,88.862" style="fill:none;stroke-width:2px;stroke:black;"/>
    <path d="M881.847,88.862C892.917,99.932 892.917,117.879 881.847,128.949C870.777,140.019 852.829,140.019 841.759,128.949C830.689,117.879 830.689,99.932 841.759,88.862C852.829,77.792 870.777,77.792 881.847,88.862" style="fill:none;stroke-width:2px;stroke:black;"/>
    <path d="M952.713,88.862C963.783,99.932 963.783,117.879 952.713,128.949C941.643,140.019 923.695,140.019 912.625,128.949C901.555,117.879 901.555,99.932 912.625,88.862C923.695,77.792 941.643,77.792 952.713,88.862" style="fill:none;stroke-width:2px;stroke:black;"/>
    <path d="M244.052,159.728C255.122,170.798 255.122,188.746 244.052,199.816C232.982,210.886 215.034,210.886 203.964,199.816C192.894,188.746 192.894,170.798 203.964,159.728C215.034,148.658 232.982,148.658 244.052,159.728" style="fill:rgb(255,38,0);fill-opacity:0.501961;fill-rule:nonzero;stroke-width:2px;stroke:black;"/>
    <path d="M385.784,159.728C396.854,170.798 396.854,188.746 385.784,199.816C374.714,210.886 356.766,210.886 345.696,199.816C334.626,188.746 334.626,170.798 345.696,159.728C356.766,148.658 374.714,148.658 385.784,159.728" style="fill:rgb(255,38,0);fill-opacity:0.501961;fill-rule:nonzero;stroke-width:2px;stroke:black;"/>
    <path d="M881.847,159.728C892.917,170.798 892.917,188.746 881.847,199.816C870.777,210.886 852.829,210.886 841.759,199.816C830.689,188.746 830.689,170.798 841.759,159.728C852.829,148.658 870.777,148.658 881.847,159.728" style="fill:rgb(255,38,0);fill-opacity:0.501961;fill-rule:nonzero;stroke-width:2px;stroke:black;"/>
    <path d="M952.713,159.728C963.783,170.798 963.783,188.746 952.713,199.816C941.643,210.886 923.695,210.886 912.625,199.816C901.555,188.746 901.555,170.798 912.625,159.728C923.695,148.658 941.643,148.658 952.713,159.728" style="fill:rgb(255,38,0);fill-opacity:0.501961;fill-rule:nonzero;stroke-width:2px;stroke:black;"/>
    <path d="M416.562,199.816L456.65,159.728C445.58,148.658 427.632,148.658 416.562,159.728C405.492,170.798 405.492,188.746 416.562,199.816Z" style="fill:rgb(255,38,0);fill-opacity:0.501961;fill-rule:nonzero;stroke-width:2px;stroke:black;"/>
    <path d="M456.65,159.728C467.72,170.798 467.72,188.746 456.65,199.816C445.58,210.886 427.632,210.886 416.562,199.816C405.492,188.746 405.492,170.798 416.562,159.728C427.632,148.658 445.58,148.658 456.65,159.728" style="fill:none;stroke-width:2px;stroke:black;"/>
    <path d="M487.428,199.816L527.516,159.728C516.446,148.658 498.498,148.658 487.428,159.728C476.359,170.798 476.359,188.746 487.428,199.816Z" style="fill:rgb(255,38,0);fill-opacity:0.501961;fill-rule:nonzero;stroke-width:2px;stroke:black;"/>
    <path d="M527.516,159.728C538.586,170.798 538.586,188.746 527.516,199.816C516.446,210.886 498.498,210.886 487.428,199.816C476.358,188.746 476.358,170.798 487.428,159.728C498.498,148.658 516.446,148.658 527.516,159.728" style="fill:none;stroke-width:2px;stroke:black;"/>
    <path d="M740.115,159.728L700.027,199.816C711.097,210.886 729.045,210.886 740.115,199.816C751.185,188.746 751.185,170.798 740.115,159.728Z" style="fill:rgb(255,38,0);fill-opacity:0.501961;fill-rule:nonzero;stroke-width:2px;stroke:black;"/>
    <path d="M740.115,159.728C751.185,170.798 751.185,188.746 740.115,199.816C729.045,210.886 711.097,210.886 700.027,199.816C688.957,188.746 688.957,170.798 700.027,159.728C711.097,148.658 729.045,148.658 740.115,159.728" style="fill:none;stroke-width:2px;stroke:black;"/>
    <path d="M314.918,230.594C325.988,241.664 325.988,259.612 314.918,270.682C303.848,281.752 285.9,281.752 274.83,270.682C263.76,259.612 263.76,241.664 274.83,230.594C285.9,219.524 303.848,219.524 314.918,230.594" style="fill:none;stroke-width:2px;stroke:black;"/>
    <path d="M669.249,230.594C680.319,241.664 680.319,259.612 669.249,270.682C658.179,281.752 640.231,281.752 629.161,270.682C618.091,259.612 618.091,241.664 629.161,230.594C640.231,219.524 658.179,219.524 669.249,230.594" style="fill:none;stroke-width:2px;stroke:black;"/>
    <path d="M810.981,230.594C822.051,241.664 822.051,259.612 810.981,270.682C799.911,281.752 781.963,281.752 770.893,270.682C759.823,259.612 759.823,241.664 770.893,230.594C781.963,219.524 799.911,219.524 810.981,230.594" style="fill:none;stroke-width:2px;stroke:black;"/>
    <path d="M456.65,270.682L416.562,230.594C405.492,241.664 405.492,259.612 416.562,270.682C427.632,281.752 445.58,281.752 456.65,270.682Z" style="fill:rgb(1,72,255);fill-opacity:0.501961;fill-rule:nonzero;stroke-width:2px;stroke:black;"/>
    <path d="M456.65,230.594C467.72,241.664 467.72,259.612 456.65,270.682C445.58,281.752 427.632,281.752 416.562,270.682C405.492,259.612 405.492,241.664 416.562,230.594C427.632,219.524 445.58,219.524 456.65,230.594" style="fill:none;stroke-width:2px;stroke:black;"/>
    <path d="M711.105,223.74L729.037,277.536C733.086,276.189 736.892,273.905 740.115,270.682C751.185,259.612 751.185,241.664 740.115,230.594C732.268,222.747 720.964,220.462 711.105,223.74Z" style="fill:rgb(1,72,255);fill-opacity:0.501961;fill-rule:nonzero;stroke-width:2px;stroke:black;"/>
    <path d="M740.115,230.594C751.185,241.664 751.185,259.612 740.115,270.682C729.045,281.752 711.097,281.752 700.027,270.682C688.957,259.612 688.957,241.664 700.027,230.594C711.097,219.524 729.045,219.524 740.115,230.594" style="fill:none;stroke-width:2px;stroke:black;"/>
    <path d="M314.918,301.46C325.988,312.53 325.988,330.478 314.918,341.548C303.848,352.618 285.9,352.618 274.83,341.548C263.76,330.478 263.76,312.53 274.83,301.46C285.9,290.39 303.848,290.39 314.918,301.46" style="fill:rgb(1,72,255);fill-opacity:0.501961;fill-rule:nonzero;stroke-width:2px;stroke:black;"/>
    <path d="M669.249,301.46C680.319,312.53 680.319,330.478 669.249,341.548C658.179,352.618 640.231,352.618 629.161,341.548C618.091,330.478 618.091,312.53 629.161,301.46C640.231,290.39 658.179,290.39 669.249,301.46" style="fill:rgb(1,72,255);fill-opacity:0.501961;fill-rule:nonzero;stroke-width:2px;stroke:black;"/>
    <path d="M810.981,301.46C822.051,312.53 822.051,330.478 810.981,341.548C799.911,352.618 781.963,352.618 770.893,341.548C759.823,330.478 759.823,312.53 770.893,301.46C781.963,290.39 799.911,290.39 810.981,301.46" style="fill:rgb(1,72,255);fill-opacity:0.501961;fill-rule:nonzero;stroke-width:2px;stroke:black;"/>
    <path d="M456.65,341.548L416.562,301.46C405.492,312.53 405.492,330.478 416.562,341.548C427.632,352.618 445.58,352.618 456.65,341.548Z" style="fill:white;fill-rule:nonzero;stroke-width:2px;stroke:black;"/>
    <path d="M711.105,294.606L729.037,348.402C733.086,347.055 736.892,344.771 740.115,341.548C751.185,330.478 751.185,312.53 740.115,301.46C732.268,293.613 720.964,291.328 711.105,294.606Z" style="fill:white;fill-rule:nonzero;stroke-width:2px;stroke:black;"/>
    <path d="M578.339,392.37L578.339,364.024C571.084,364.024 563.83,366.791 558.295,372.326C547.225,383.396 547.225,401.344 558.295,412.414C563.83,417.949 571.084,420.717 578.339,420.717L578.339,392.37Z" style="fill:rgb(196,102,139);fill-rule:nonzero;stroke-width:2px;stroke:black;"/>
    <path d="M669.249,372.326L649.205,392.37L649.205,420.717C656.459,420.717 663.714,417.949 669.249,412.414C680.319,401.344 680.319,383.396 669.249,372.326Z" style="fill:rgb(196,102,139);fill-rule:nonzero;stroke-width:2px;stroke:black;"/>
    <path d="M456.65,412.414C467.72,401.344 467.72,383.396 456.65,372.326L436.606,392.37L416.562,372.326C405.492,383.396 405.492,401.344 416.562,412.414C427.632,423.484 445.58,423.484 456.65,412.414L456.65,412.414Z" style="fill:rgb(196,102,139);fill-rule:nonzero;stroke-width:2px;stroke:black;"/>
    <path d="M507.472,392.37L487.428,412.414C495.276,420.261 506.579,422.546 516.438,419.268C520.488,417.922 524.294,415.637 527.516,412.414C538.586,401.344 538.586,383.396 527.516,372.326C516.446,361.256 498.498,361.256 487.428,372.326L507.472,392.37Z" style="fill:rgb(196,102,139);fill-rule:nonzero;stroke-width:2px;stroke:black;"/>
    <path d="M711.105,365.472C707.056,366.819 703.25,369.103 700.027,372.326C688.957,383.396 688.957,401.344 700.027,412.414L720.071,392.37L729.037,419.268C733.086,417.922 736.892,415.637 740.115,412.414C751.185,401.344 751.185,383.396 740.115,372.326C732.268,364.479 720.964,362.194 711.105,365.472Z" style="fill:rgb(196,102,139);fill-rule:nonzero;stroke-width:2px;stroke:black;"/>
    <path d="M852.837,365.472L861.803,392.37L890.15,392.37C890.15,385.116 887.382,377.861 881.847,372.326C874,364.479 862.697,362.194 852.837,365.472Z" style="fill:rgb(196,102,139);fill-rule:nonzero;stroke-width:2px;stroke:black;"/>
    <path d="M904.323,392.37L932.669,392.37L932.669,364.024C925.415,364.024 918.16,366.791 912.625,372.326C907.09,377.861 904.323,385.116 904.323,392.37Z" style="fill:rgb(196,102,139);fill-rule:nonzero;stroke-width:2px;stroke:black;"/>
    <path d="M810.981,372.326C805.446,366.791 798.192,364.024 790.937,364.024L790.937,392.37L810.981,372.326Z" style="fill:rgb(196,102,139);fill-rule:nonzero;"/>
    <path d="M810.981,372.326C805.446,366.791 798.191,364.024 790.937,364.024L790.937,392.37L810.981,372.326Z" style="fill:none;stroke-width:2px;stroke:black;"/>
    <path d="M578.339,463.236L558.295,443.192C547.225,454.262 547.225,472.21 558.295,483.28L578.339,463.236Z" style="fill:rgb(196,102,139);fill-rule:nonzero;stroke-width:2px;stroke:black;"/>
    <path d="M456.65,483.28L436.606,463.236L416.562,483.28C427.632,494.35 445.58,494.35 456.65,483.28Z" style="fill:rgb(196,102,139);fill-rule:nonzero;stroke-width:2px;stroke:black;"/>
    <path d="M507.472,463.236L516.438,490.134C520.488,488.788 524.294,486.503 527.516,483.28C538.586,472.21 538.586,454.262 527.516,443.192L507.472,463.236Z" style="fill:rgb(196,102,139);fill-rule:nonzero;stroke-width:2px;stroke:black;"/>
    <path d="M720.071,463.236L740.115,443.192C732.268,435.345 720.964,433.061 711.105,436.339L720.071,463.236Z" style="fill:rgb(196,102,139);fill-rule:nonzero;stroke-width:2px;stroke:black;"/>
    <path d="M578.339,534.102L578.339,505.756C571.084,505.756 563.83,508.523 558.295,514.058L578.339,534.102Z" style="fill:rgb(196,102,139);fill-rule:nonzero;stroke-width:2px;stroke:black;"/>
    <path d="M669.249,514.058L649.205,534.102L649.205,562.449C656.459,562.449 663.714,559.681 669.249,554.146C680.319,543.076 680.319,525.128 669.249,514.058Z" style="fill:rgb(196,102,139);fill-rule:nonzero;stroke-width:2px;stroke:black;"/>
    <path d="M810.981,514.058C805.446,508.523 798.192,505.756 790.937,505.756L790.937,534.102L810.981,514.058Z" style="fill:rgb(196,102,139);fill-rule:nonzero;"/>
    <path d="M810.981,514.058C805.446,508.523 798.191,505.756 790.937,505.756L790.937,534.102L810.981,514.058Z" style="fill:none;stroke-width:2px;stroke:black;"/>
    <path d="M274.83,554.146C280.365,559.681 287.62,562.449 294.874,562.449L294.874,534.102L274.83,554.146Z" style="fill:rgb(196,102,139);fill-rule:nonzero;stroke-width:2px;stroke:black;"/>
    <path d="M456.65,554.146C467.72,543.076 467.72,525.128 456.65,514.058L436.606,534.102L456.65,554.146Z" style="fill:rgb(196,102,139);fill-rule:nonzero;stroke-width:2px;stroke:black;"/>
    <path d="M507.472,534.102L487.428,554.146C495.276,561.993 506.579,564.278 516.438,561L507.472,534.102Z" style="fill:rgb(196,102,139);fill-rule:nonzero;stroke-width:2px;stroke:black;"/>
    <path d="M720.071,534.102L711.105,507.205C707.056,508.551 703.25,510.836 700.027,514.058C688.957,525.128 688.957,543.076 700.027,554.146L720.071,534.102Z" style="fill:rgb(196,102,139);fill-rule:nonzero;stroke-width:2px;stroke:black;"/>
    <g>
        <clipPath id="_clip1">
            <rect x="128.488" y="83.252" width="53" height="54"/>
        </clipPath>
        <g clip-path="url(#_clip1)">
            <path d="M168.419,131.8C168.419,132.996 167.298,133.668 165.206,133.818L161.918,134.042L161.918,136.134C169.539,135.91 169.539,135.91 171.034,135.91C172.528,135.91 172.528,135.91 180.15,136.134L180.15,134.042L178.207,133.818C174.695,133.295 174.621,133.295 174.023,129.932L167.522,83.231L164.085,83.231L136.213,127.541C133.523,131.726 132.178,132.921 129.638,133.519L128.143,133.892L128.143,136.134C135.018,135.91 135.018,135.91 136.512,135.91C137.932,135.91 138.081,135.91 144.507,136.134L144.507,134.042L140.622,133.818C139.426,133.743 138.305,133.071 138.305,132.398C138.305,131.8 138.829,130.754 140.248,128.288L147.87,115.212L166.252,115.212L168.12,129.26L168.12,129.484C168.12,129.633 168.419,130.754 168.419,131.8ZM163.113,91.002L165.878,112.522L149.738,112.522L163.113,91.002Z" style="fill:rgb(255,147,138);fill-rule:nonzero;"/>
        </g>
    </g>
    <g>
        <clipPath id="_clip2">
            <rect x="141.423" y="225.984" width="41" height="53"/>
        </clipPath>
        <g clip-path="url(#_clip2)">
            <path d="M179.95,261.448C179.95,253.229 173.674,252.033 167.546,251.136C171.806,249.642 173.674,248.745 175.99,246.653C179.427,243.739 181.146,240.227 181.146,236.416C181.146,230.289 176.812,226.702 169.34,226.702C169.19,226.702 168.443,226.702 167.322,226.777L162.615,226.851C161.718,226.926 159.028,226.926 158.131,226.926C156.712,226.926 154.395,226.851 150.734,226.777L146.848,226.702L146.624,228.794L150.584,228.944C152.378,229.018 153.2,229.616 153.2,230.961C153.2,232.007 152.901,234.398 152.527,236.64L146.026,274.3C145.727,275.645 144.831,276.168 141.692,276.691L141.319,278.634L144.084,278.559C146.101,278.41 147.222,278.41 148.119,278.41C148.94,278.41 150.883,278.485 152.826,278.559L155.591,278.634L157.085,278.709C158.505,278.784 159.476,278.858 160.074,278.858C168.667,278.858 179.95,271.909 179.95,261.448ZM151.78,275.346L155.591,253.004L161.942,253.004C169.639,253.004 173.375,256.143 173.375,262.644C173.375,270.34 167.92,275.869 160.448,275.869C156.413,275.869 154.844,275.571 151.78,275.346ZM165.678,229.467C171.731,229.467 174.72,232.157 174.72,237.761C174.72,245.607 169.19,250.314 159.925,250.314L156.039,250.314L159.701,229.84C160.896,229.84 163.96,229.467 165.678,229.467Z" style="fill:rgb(133,165,255);fill-rule:nonzero;"/>
        </g>
    </g>
    <path d="M41.419,415.8C41.419,416.996 40.298,417.668 38.206,417.818L34.918,418.042L34.918,420.134C42.539,419.91 42.539,419.91 44.034,419.91C45.528,419.91 45.528,419.91 53.15,420.134L53.15,418.042L51.207,417.818C47.695,417.295 47.621,417.295 47.023,413.932L40.522,367.231L37.085,367.231L9.213,411.541C6.523,415.726 5.178,416.921 2.638,417.519L1.143,417.892L1.143,420.134C8.018,419.91 8.018,419.91 9.512,419.91C10.932,419.91 11.081,419.91 17.507,420.134L17.507,418.042L13.622,417.818C12.426,417.743 11.305,417.071 11.305,416.398C11.305,415.8 11.829,414.754 13.248,412.288L20.87,399.212L39.252,399.212L41.12,413.26L41.12,413.484C41.12,413.633 41.419,414.754 41.419,415.8ZM36.113,375.002L38.878,396.522L22.738,396.522L36.113,375.002Z" style="fill:rgb(255,147,138);fill-rule:nonzero;"/>
    <g>
        <path d="M179.95,402.448C179.95,394.229 173.674,393.033 167.546,392.136C171.806,390.642 173.674,389.745 175.99,387.653C179.427,384.739 181.146,381.227 181.146,377.416C181.146,371.289 176.812,367.702 169.34,367.702C169.19,367.702 168.443,367.702 167.322,367.777L162.615,367.851C161.718,367.926 159.028,367.926 158.131,367.926C156.712,367.926 154.395,367.851 150.734,367.777L146.848,367.702L146.624,369.794L150.584,369.944C152.378,370.018 153.2,370.616 153.2,371.961C153.2,373.007 152.901,375.398 152.527,377.64L146.026,415.3C145.727,416.645 144.831,417.168 141.692,417.691L141.319,419.634L144.084,419.559C146.101,419.41 147.222,419.41 148.119,419.41C148.94,419.41 150.883,419.485 152.826,419.559L155.591,419.634L157.085,419.709C158.505,419.784 159.476,419.858 160.074,419.858C168.667,419.858 179.95,412.909 179.95,402.448ZM151.78,416.346L155.591,394.004L161.942,394.004C169.639,394.004 173.375,397.143 173.375,403.644C173.375,411.34 167.92,416.869 160.448,416.869C156.413,416.869 154.844,416.571 151.78,416.346ZM165.678,370.467C171.731,370.467 174.72,373.157 174.72,378.761C174.72,386.607 169.19,391.314 159.925,391.314L156.039,391.314L159.701,370.84C160.896,370.84 163.96,370.467 165.678,370.467Z" style="fill:rgb(133,165,255);fill-rule:nonzero;"/>
    </g>
    <g>
        <path d="M179.95,473.448C179.95,465.229 173.674,464.033 167.546,463.136C171.806,461.642 173.674,460.745 175.99,458.653C179.427,455.739 181.146,452.227 181.146,448.416C181.146,442.289 176.812,438.702 169.34,438.702C169.19,438.702 168.443,438.702 167.322,438.777L162.615,438.851C161.718,438.926 159.028,438.926 158.131,438.926C156.712,438.926 154.395,438.851 150.734,438.777L146.848,438.702L146.624,440.794L150.584,440.944C152.378,441.018 153.2,441.616 153.2,442.961C153.2,444.007 152.901,446.398 152.527,448.64L146.026,486.3C145.727,487.645 144.831,488.168 141.692,488.691L141.319,490.634L144.084,490.559C146.101,490.41 147.222,490.41 148.119,490.41C148.94,490.41 150.883,490.485 152.826,490.559L155.591,490.634L157.085,490.709C158.505,490.784 159.476,490.858 160.074,490.858C168.667,490.858 179.95,483.909 179.95,473.448ZM151.78,487.346L155.591,465.004L161.942,465.004C169.639,465.004 173.375,468.143 173.375,474.644C173.375,482.34 167.92,487.869 160.448,487.869C156.413,487.869 154.844,487.571 151.78,487.346ZM165.678,441.467C171.731,441.467 174.72,444.157 174.72,449.761C174.72,457.607 169.19,462.314 159.925,462.314L156.039,462.314L159.701,441.84C160.896,441.84 163.96,441.467 165.678,441.467Z" style="fill:rgb(133,165,255);fill-rule:nonzero;"/>
    </g>
    <g>
        <clipPath id="_clip3">
            <rect x="141.111" y="508.826" width="41" height="53"/>
        </clipPath>
        <g clip-path="url(#_clip3)">
            <path d="M179.95,544.448C179.95,536.229 173.674,535.033 167.546,534.136C171.806,532.642 173.674,531.745 175.99,529.653C179.427,526.739 181.146,523.227 181.146,519.416C181.146,513.289 176.812,509.702 169.34,509.702C169.19,509.702 168.443,509.702 167.322,509.777L162.615,509.851C161.718,509.926 159.028,509.926 158.131,509.926C156.712,509.926 154.395,509.851 150.734,509.777L146.848,509.702L146.624,511.794L150.584,511.944C152.378,512.018 153.2,512.616 153.2,513.961C153.2,515.007 152.901,517.398 152.527,519.64L146.026,557.3C145.727,558.645 144.831,559.168 141.692,559.691L141.319,561.634L144.084,561.559C146.101,561.41 147.222,561.41 148.119,561.41C148.94,561.41 150.883,561.485 152.826,561.559L155.591,561.634L157.085,561.709C158.505,561.784 159.476,561.858 160.074,561.858C168.667,561.858 179.95,554.909 179.95,544.448ZM151.78,558.346L155.591,536.004L161.942,536.004C169.639,536.004 173.375,539.143 173.375,545.644C173.375,553.34 167.92,558.869 160.448,558.869C156.413,558.869 154.844,558.571 151.78,558.346ZM165.678,512.467C171.731,512.467 174.72,515.157 174.72,520.761C174.72,528.607 169.19,533.314 159.925,533.314L156.039,533.314L159.701,512.84C160.896,512.84 163.96,512.467 165.678,512.467Z" style="fill:rgb(133,165,255);fill-rule:nonzero;"/>
        </g>
    </g>
    <g>
        <clipPath id="_clip4">
            <rect x="1.241" y="437.583" width="53" height="54"/>
        </clipPath>
        <g clip-path="url(#_clip4)">
            <path d="M41.419,486.8C41.419,487.996 40.298,488.668 38.206,488.818L34.918,489.042L34.918,491.134C42.539,490.91 42.539,490.91 44.034,490.91C45.528,490.91 45.528,490.91 53.15,491.134L53.15,489.042L51.207,488.818C47.695,488.295 47.621,488.295 47.023,484.932L40.522,438.231L37.085,438.231L9.213,482.541C6.523,486.726 5.178,487.921 2.638,488.519L1.143,488.892L1.143,491.134C8.018,490.91 8.018,490.91 9.512,490.91C10.932,490.91 11.081,490.91 17.507,491.134L17.507,489.042L13.622,488.818C12.426,488.743 11.305,488.071 11.305,487.398C11.305,486.8 11.829,485.754 13.248,483.288L20.87,470.212L39.252,470.212L41.12,484.26L41.12,484.484C41.12,484.633 41.419,485.754 41.419,486.8ZM36.113,446.002L38.878,467.522L22.738,467.522L36.113,446.002Z" style="fill:rgb(255,147,138);fill-rule:nonzero;"/>
        </g>
    </g>
    <g>
        <clipPath id="_clip5">
            <rect x="7.16" y="508.449" width="53" height="54"/>
        </clipPath>
        <g clip-path="url(#_clip5)">
            <path d="M47.419,556.8C47.419,557.996 46.298,558.668 44.206,558.818L40.918,559.042L40.918,561.134C48.539,560.91 48.539,560.91 50.034,560.91C51.528,560.91 51.528,560.91 59.15,561.134L59.15,559.042L57.207,558.818C53.695,558.295 53.621,558.295 53.023,554.932L46.522,508.231L43.085,508.231L15.213,552.541C12.523,556.726 11.178,557.921 8.638,558.519L7.143,558.892L7.143,561.134C14.018,560.91 14.018,560.91 15.512,560.91C16.932,560.91 17.081,560.91 23.507,561.134L23.507,559.042L19.622,558.818C18.426,558.743 17.305,558.071 17.305,557.398C17.305,556.8 17.829,555.754 19.248,553.288L26.87,540.212L45.252,540.212L47.12,554.26L47.12,554.484C47.12,554.633 47.419,555.754 47.419,556.8ZM42.113,516.002L44.878,537.522L28.738,537.522L42.113,516.002Z" style="fill:rgb(255,147,138);fill-rule:nonzero;"/>
        </g>
    </g>
    <g>
        <clipPath id="_clip6">
            <rect x="76.188" y="373.782" width="43" height="46"/>
        </clipPath>
        <g clip-path="url(#_clip6)">
            <path d="M118.003,399.137L118.003,374.852L113.968,374.852L113.968,399.436C113.968,407.805 106.72,415.875 97.156,415.875C88.114,415.875 80.343,408.851 80.343,399.436L80.343,374.852L76.308,374.852L76.308,399.137C76.308,410.869 86.097,419.91 97.23,419.91C108.439,419.91 118.003,410.869 118.003,399.137Z" style="fill:black;fill-rule:nonzero;"/>
        </g>
    </g>
    <g>
        <clipPath id="_clip7">
            <rect x="76.188" y="444.648" width="43" height="46"/>
        </clipPath>
        <g clip-path="url(#_clip7)">
            <path d="M118.003,490.91L118.003,466.625C118.003,454.894 108.439,445.852 97.23,445.852C86.097,445.852 76.308,454.894 76.308,466.625L76.308,490.91L80.343,490.91L80.343,466.326C80.343,456.911 88.114,449.887 97.156,449.887C106.72,449.887 113.968,457.957 113.968,466.326L113.968,490.91L118.003,490.91Z" style="fill:black;fill-rule:nonzero;"/>
        </g>
    </g>
    <g>
        <rect x="81.837" y="539.068" width="37.66" height="4.184" style="fill:black;fill-rule:nonzero;"/>
    </g>
    <g>
        <clipPath id="_clip8">
            <rect x="81.488" y="154.118" width="100" height="54"/>
        </clipPath>
        <g clip-path="url(#_clip8)">
            <path d="M121.857,200.334L121.857,180.01L81.283,180.01L81.283,184.568L117.598,184.568L117.598,200.334L121.857,200.334Z" style="fill:rgb(255,147,138);fill-rule:nonzero;"/>
            <path d="M169.082,202.8C169.082,203.996 167.961,204.668 165.869,204.818L162.581,205.042L162.581,207.134C170.203,206.91 170.203,206.91 171.697,206.91C173.192,206.91 173.192,206.91 180.813,207.134L180.813,205.042L178.871,204.818C175.359,204.295 175.284,204.295 174.686,200.932L168.185,154.231L164.748,154.231L136.877,198.541C134.186,202.726 132.841,203.921 130.301,204.519L128.806,204.892L128.806,207.134C135.681,206.91 135.681,206.91 137.175,206.91C138.595,206.91 138.745,206.91 145.171,207.134L145.171,205.042L141.285,204.818C140.09,204.743 138.969,204.071 138.969,203.398C138.969,202.8 139.492,201.754 140.912,199.288L148.533,186.212L166.915,186.212L168.783,200.26L168.783,200.484C168.783,200.633 169.082,201.754 169.082,202.8ZM163.777,162.002L166.541,183.522L150.401,183.522L163.777,162.002Z" style="fill:rgb(255,147,138);fill-rule:nonzero;"/>
        </g>
    </g>
    <g>
        <clipPath id="_clip9">
            <rect x="94.969" y="296.85" width="88" height="53"/>
        </clipPath>
        <g clip-path="url(#_clip9)">
            <path d="M136.107,342.834L136.107,322.51L95.533,322.51L95.533,327.068L131.848,327.068L131.848,342.834L136.107,342.834Z" style="fill:rgb(133,165,255);fill-rule:nonzero;"/>
            <path d="M181.539,332.448C181.539,324.229 175.262,323.033 169.135,322.136C173.394,320.642 175.262,319.745 177.578,317.653C181.016,314.739 182.734,311.227 182.734,307.416C182.734,301.289 178.4,297.702 170.928,297.702C170.779,297.702 170.031,297.702 168.91,297.777L164.203,297.851C163.306,297.926 160.616,297.926 159.72,297.926C158.3,297.926 155.983,297.851 152.322,297.777L148.436,297.702L148.212,299.794L152.173,299.944C153.966,300.018 154.788,300.616 154.788,301.961C154.788,303.007 154.489,305.398 154.115,307.64L147.615,345.3C147.316,346.645 146.419,347.168 143.281,347.691L142.907,349.634L145.672,349.559C147.689,349.41 148.81,349.41 149.707,349.41C150.529,349.41 152.472,349.485 154.414,349.559L157.179,349.634L158.673,349.709C160.093,349.784 161.065,349.858 161.662,349.858C170.255,349.858 181.539,342.909 181.539,332.448ZM153.368,346.346L157.179,324.004L163.53,324.004C171.227,324.004 174.963,327.143 174.963,333.644C174.963,341.34 169.508,346.869 162.036,346.869C158.001,346.869 156.432,346.571 153.368,346.346ZM167.267,300.467C173.319,300.467 176.308,303.157 176.308,308.761C176.308,316.607 170.779,321.314 161.513,321.314L157.627,321.314L161.289,300.84C162.484,300.84 165.548,300.467 167.267,300.467Z" style="fill:rgb(133,165,255);fill-rule:nonzero;"/>
        </g>
    </g>
    <g>
        <clipPath id="_clip10">
            <rect x="280.701" y="1.511" width="30" height="56"/>
        </clipPath>
        <g clip-path="url(#_clip10)">
            <path d="M295.911,2.96L295.014,2.138C291.129,4.081 288.439,4.754 283.059,5.277L282.76,6.846L286.346,6.846C288.14,6.846 288.887,7.369 288.887,8.639C288.887,9.162 288.812,9.984 288.737,10.433L281.19,51.605C281.116,51.829 281.116,52.128 281.116,52.352C281.116,55.266 284.702,57.732 288.812,57.732C291.577,57.732 295.388,56.312 298.601,53.996C305.774,48.915 310.706,38.678 310.706,28.814C310.706,25.975 310.033,23.061 309.137,21.94C308.614,21.267 307.642,20.894 306.521,20.894C304.728,20.894 302.486,21.492 300.394,22.538C296.583,24.555 294.117,26.797 289.485,32.7L295.911,2.96ZM302.412,25.228C304.354,25.228 305.326,26.946 305.326,30.608C305.326,35.39 303.757,41.816 301.515,46.673C299.049,51.829 296.06,54.22 292.025,54.22C288.588,54.22 286.72,52.501 286.72,49.363C286.72,46.822 287.841,36.287 293.893,29.935C296.359,27.395 300.245,25.228 302.412,25.228Z" style="fill:black;fill-rule:nonzero;"/>
        </g>
    </g>
    <g>
        <path d="M230.351,41.167L228.184,50.656C227.885,51.927 227.736,53.272 227.736,54.467C227.736,56.111 228.408,57.083 229.529,57.083C231.247,57.083 234.311,55.14 240.438,50.059L239.915,48.489C238.122,49.984 235.955,52.001 234.311,52.001C233.639,52.001 233.19,51.329 233.19,50.283C233.19,49.909 233.19,49.685 233.265,49.461L240.139,21.141L239.392,20.468L236.926,21.813C233.863,20.693 232.592,20.394 230.575,20.394C228.483,20.394 226.988,20.767 224.971,21.739C220.338,24.055 217.872,26.297 216.004,29.958C212.716,36.609 210.4,45.575 210.4,51.404C210.4,54.691 211.521,57.232 212.94,57.232C215.705,57.232 221.683,53.346 230.351,41.167ZM233.937,25.475C232.294,33.62 230.874,37.505 228.333,41.391C224.074,47.667 219.516,52.001 217.125,52.001C216.228,52.001 215.78,51.03 215.78,49.012C215.78,44.23 217.872,35.488 220.487,29.51C222.281,25.4 223.999,24.055 227.586,24.055C229.305,24.055 230.65,24.354 233.937,25.475Z" style="fill:black;fill-rule:nonzero;"/>
        <path d="M376.006,31.752L377.725,31.752C378.322,26.895 378.846,24.13 379.518,22.187C377.725,21.066 375.109,20.394 372.345,20.394C368.982,20.319 363.527,21.813 359.268,26.521C355.233,30.108 352.319,38.402 352.319,46.248C352.319,53.421 355.457,57.232 361.435,57.232C365.47,57.232 369.057,55.737 373.167,52.375L376.903,49.311L376.305,47.817L375.184,48.564C369.804,52.151 366.965,53.421 364.349,53.421C360.165,53.421 357.998,50.432 357.998,44.529C357.998,36.459 360.613,28.688 364.275,25.848C365.844,24.653 367.637,24.055 369.954,24.055C373.316,24.055 376.006,25.475 376.006,27.268L376.006,31.752Z" style="fill:black;fill-rule:nonzero;"/>
    </g>
    <g>
        <clipPath id="_clip11">
            <rect x="422.433" y="1.511" width="36" height="56"/>
        </clipPath>
        <g clip-path="url(#_clip11)">
            <path d="M457.092,2.96L456.195,2.138C452.31,4.081 449.62,4.754 444.24,5.277L443.941,6.846L447.527,6.846C449.321,6.846 450.068,7.369 450.068,8.639C450.068,9.237 449.993,9.91 449.919,10.433L447.826,21.94C445.585,21.267 443.567,20.894 441.699,20.894C436.543,20.894 429.519,26.274 426.082,32.775C423.766,37.109 422.271,44.207 422.271,50.484C422.271,55.341 423.392,57.732 425.559,57.732C427.577,57.732 430.341,56.462 432.882,54.444C436.917,51.156 439.383,48.242 444.389,40.695L442.671,47.495C441.849,50.783 441.475,53.174 441.475,55.117C441.475,56.686 442.147,57.583 443.418,57.583C444.688,57.583 446.481,56.686 449.022,54.818L455.074,50.334L454.327,48.915L451.039,51.231C449.993,51.978 448.798,52.501 448.125,52.501C447.527,52.501 447.079,51.829 447.079,50.783C447.079,50.185 447.154,49.512 447.677,47.346L457.092,2.96ZM429.519,52.501C428.324,52.501 427.651,51.455 427.651,49.587C427.651,40.172 431.089,28.515 434.75,25.676C435.721,24.929 437.141,24.555 439.159,24.555C442.446,24.555 444.613,25.003 447.079,26.274L446.182,30.682C443.418,44.132 432.882,52.501 429.519,52.501Z" style="fill:black;fill-rule:nonzero;"/>
        </g>
    </g>
    <g>
        <path d="M517.635,48.116L515.842,49.386C511.881,52.226 508.295,53.72 505.605,53.72C502.093,53.72 499.926,50.955 499.926,46.472C499.926,44.604 500.15,42.586 500.524,40.419C501.794,40.12 509.939,37.879 511.807,37.057C518.158,34.292 521.072,30.855 521.072,26.222C521.072,22.71 518.532,20.394 514.796,20.394C509.714,19.348 501.495,24.802 498.73,30.332C496.489,34.068 494.247,42.96 494.247,47.966C494.247,53.795 497.535,57.232 502.915,57.232C507.174,57.232 511.358,55.14 518.233,49.536L517.635,48.116ZM501.57,35.936C502.84,30.78 504.334,27.567 506.501,25.624C507.846,24.429 510.163,23.532 511.956,23.532C514.123,23.532 515.543,25.027 515.543,27.418C515.543,30.705 512.927,34.217 509.042,36.085C506.95,37.132 504.26,37.954 500.897,38.701L501.57,35.936Z" style="fill:black;fill-rule:nonzero;"/>
        <path d="M577.503,23.256L576.308,23.256L577.877,14.887C579.073,8.461 581.165,5.622 584.602,5.622C586.844,5.622 588.861,6.743 589.982,8.536L590.729,8.237C591.103,7.041 591.85,4.725 592.448,3.231L592.822,2.11C591.626,1.587 589.31,1.138 587.591,1.138C586.769,1.138 585.574,1.363 584.976,1.661C583.182,2.483 577.055,7.041 575.337,8.835C573.693,10.479 572.796,12.72 571.974,16.98L570.853,22.883C567.79,24.377 566.295,24.975 564.427,25.647L564.053,27.291L570.106,27.291L569.433,31.476C567.192,46.047 564.427,59.945 562.783,65.101C561.438,69.509 559.196,71.826 556.506,71.826C554.788,71.826 553.966,71.303 552.621,69.659L551.575,69.958C551.276,71.676 550.23,75.263 549.856,75.936C550.529,76.309 551.65,76.533 552.471,76.533C555.535,76.533 559.57,74.217 562.484,70.705C567.79,64.428 569.284,57.255 575.561,27.291L583.332,27.291C583.631,25.872 584.154,24.153 584.602,23.107L584.303,22.584C582.136,23.107 582.211,23.256 577.503,23.256Z" style="fill:black;fill-rule:nonzero;"/>
    </g>
    <g>
        <path d="M651.05,14.394C646.043,14.394 634.611,19.101 634.611,31.057C634.611,36.811 637.973,40.248 643.727,40.248C644.325,40.248 645.147,40.248 645.969,40.173L642.905,43.012C641.709,44.133 640.887,45.478 640.887,46.524C640.887,47.272 641.41,48.094 642.457,48.99C637.301,50.709 627.736,53.997 627.736,62.291C627.736,67.596 632.967,71.033 641.112,71.033C650.751,71.033 659.194,65.653 659.194,59.451C659.194,56.761 657.625,54.071 654.412,51.456L649.929,47.795C647.388,45.777 646.417,44.357 646.417,42.938C646.417,41.892 647.538,40.846 648.434,39.501C655.757,37.707 661.063,31.505 661.063,24.855C661.063,23.734 660.838,22.314 660.764,22.015C662.034,22.165 662.632,22.165 663.304,22.165C664.574,22.165 665.322,22.09 667.04,21.866L667.713,18.503L667.489,18.055C665.396,18.578 663.902,18.728 659.867,18.728C659.867,18.653 658.074,14.394 651.05,14.394ZM643.652,50.335L649.406,54.744C652.843,57.434 654.263,59.451 654.263,61.917C654.263,65.803 649.107,68.941 642.905,68.941C636.778,68.941 632.519,65.803 632.519,61.245C632.519,53.623 640.738,51.232 643.652,50.335ZM649.182,16.934C653.516,16.934 655.682,19.624 655.682,24.93C655.682,32.626 652.096,37.857 646.865,37.857C642.307,37.857 639.916,34.793 639.916,28.89C639.916,21.791 643.727,16.934 649.182,16.934Z" style="fill:black;fill-rule:nonzero;"/>
        <path d="M723.636,2.96L722.739,2.138C719.376,3.782 716.313,4.828 710.783,5.277L710.484,6.846L714.071,6.846C715.416,6.846 716.612,7.07 716.612,8.565C716.612,9.013 716.612,9.685 716.462,10.433L713.324,27.918C711.829,36.585 708.691,50.932 706.748,56.761L707.271,57.583L712.427,56.387C713.025,52.128 714.071,44.656 717.06,39.275C720.422,33.223 728.119,25.975 731.257,25.975C732.079,25.975 732.901,26.498 732.901,27.544C732.901,28.889 732.527,31.355 731.78,34.269L727.969,48.915C727.521,50.559 726.998,52.8 726.998,54.594C726.998,56.462 727.745,57.583 729.314,57.583C731.706,57.583 736.787,53.846 741.195,50.559L740.448,49.214L738.505,50.484C736.787,51.605 734.844,52.726 733.947,52.726C733.424,52.726 732.976,52.053 732.976,51.231C732.976,50.334 733.2,49.363 733.499,48.242L738.281,29.113C738.729,27.17 739.103,25.302 739.103,23.509C739.103,22.239 738.655,20.894 736.712,20.894C734.097,20.894 728.343,24.256 723.262,28.964C720.796,31.28 718.853,33.895 716.761,36.511L716.462,36.361L723.636,2.96Z" style="fill:black;fill-rule:nonzero;"/>
    </g>
    <g>
        <clipPath id="_clip12">
            <rect x="784.927" y="2.511" width="18" height="55"/>
        </clipPath>
        <g clip-path="url(#_clip12)">
            <path d="M785.292,27.918L785.815,29.412L788.206,27.843C790.97,26.124 791.195,25.975 791.718,25.975C792.465,25.975 793.063,26.722 793.063,27.694C793.063,28.217 792.764,29.935 792.465,30.981L787.533,48.915C786.935,51.231 786.562,53.249 786.562,54.668C786.562,56.462 787.384,57.583 788.804,57.583C790.746,57.583 793.436,56.013 800.759,50.559L800.012,49.214L798.069,50.484C795.902,51.904 794.184,52.726 793.511,52.726C792.988,52.726 792.54,51.978 792.54,51.231C792.54,50.484 792.689,49.811 793.063,48.242L798.816,25.527C799.115,24.256 799.265,23.434 799.265,22.837C799.265,21.566 798.592,20.894 797.397,20.894C795.753,20.894 792.988,22.463 787.384,26.423L785.292,27.918ZM799.788,3.708C797.621,3.708 795.454,6.173 795.454,8.714C795.454,10.582 796.575,11.778 798.368,11.778C800.684,11.778 802.478,9.611 802.478,6.771C802.478,4.978 801.357,3.708 799.788,3.708Z" style="fill:black;fill-rule:nonzero;"/>
        </g>
    </g>
    <path d="M863.563,30.182L856.09,67.17C855.269,71.056 853.924,73.671 852.578,73.671C851.532,73.671 850.187,73.223 848.618,72.251L848.02,76.51C848.768,76.884 849.739,77.033 850.86,77.033C853.849,77.033 856.838,73.82 859.528,67.768C861.022,64.405 862.068,60.669 864.16,51.179L869.839,25.027C870.138,23.682 870.288,22.71 870.288,22.262C870.288,21.066 869.615,20.394 868.42,20.394C866.776,20.394 864.011,21.963 858.407,25.923L856.315,27.418L856.838,28.912L859.229,27.343C861.994,25.624 862.218,25.475 862.741,25.475C863.488,25.475 864.086,26.222 864.086,27.194C864.086,27.866 863.563,29.809 863.563,30.182ZM870.362,3.208C868.195,3.208 866.029,5.673 866.029,8.214C866.029,10.082 867.149,11.278 868.943,11.278C871.259,11.278 873.052,9.111 873.052,6.271C873.052,4.478 871.932,3.208 870.362,3.208Z" style="fill:black;fill-rule:nonzero;"/>
    <g>
        <clipPath id="_clip13">
            <rect x="918.496" y="1.511" width="34" height="56"/>
        </clipPath>
        <g clip-path="url(#_clip13)">
            <path d="M935.059,2.96L934.163,2.138C930.277,4.081 927.587,4.754 922.207,5.277L921.908,6.846L925.495,6.846C927.288,6.846 928.035,7.369 928.035,8.639C928.035,9.237 927.961,9.91 927.886,10.433L924.299,30.458C923.253,36.062 922.058,41.218 918.172,56.835L918.845,57.583L923.851,56.312L925.57,47.047C926.242,43.46 928.035,40.097 930.576,37.557C935.732,52.501 938.123,57.583 939.991,57.583C940.962,57.583 942.756,56.611 946.044,54.295L949.481,51.904L948.883,50.484L945.67,52.277C944.624,52.875 944.101,53.024 943.503,53.024C942.756,53.024 942.233,52.576 941.56,51.306C938.945,46.524 937.301,42.489 934.387,33.298L935.433,32.252C939.991,27.694 943.428,25.825 947.164,25.825C947.762,25.825 948.584,25.975 949.854,26.274L951.125,21.566C949.78,21.118 948.435,20.894 947.538,20.894C942.606,20.894 936.404,26.647 927.064,39.724L935.059,2.96Z" style="fill:black;fill-rule:nonzero;"/>
        </g>
    </g>
</svg>
