<?xml version="1.0" standalone="no"?>
<!DOCTYPE svg PUBLIC "-//W3C//DTD SVG 1.1//EN" "http://www.w3.org/Graphics/SVG/1.1/DTD/svg11.dtd">
<svg width="100%" height="100%" viewBox="0 0 439 682" version="1.1" xmlns="http://www.w3.org/2000/svg" xmlns:xlink="http://www.w3.org/1999/xlink" xml:space="preserve" style="fill-rule:evenodd;clip-rule:evenodd;stroke-linecap:round;stroke-linejoin:round;stroke-miterlimit:10;">
    <rect x="-72" y="-56" width="1677" height="783" style="fill:white;fill-rule:nonzero;"/>
    <path d="M154.772,57.386L41.386,170.772L154.772,284.157L268.158,624.315L381.543,624.315L381.543,284.157L154.772,57.386Z" style="fill:rgb(1,72,255);fill-opacity:0.501961;fill-rule:nonzero;"/>
    <path d="M41.386,624.315L41.386,397.543L381.543,57.386L381.543,284.157L41.386,624.315Z" style="fill:rgb(255,38,0);fill-opacity:0.501961;fill-rule:nonzero;"/>
    <g>
        <clipPath id="_clip1">
            <rect x="381.543" y="0.693" width="30" height="56"/>
        </clipPath>
        <g clip-path="url(#_clip1)">
            <path d="M396.911,1.96L396.014,1.138C392.129,3.081 389.439,3.754 384.059,4.277L383.76,5.846L387.346,5.846C389.14,5.846 389.887,6.369 389.887,7.639C389.887,8.162 389.812,8.984 389.737,9.433L382.19,50.605C382.116,50.829 382.116,51.128 382.116,51.352C382.116,54.266 385.702,56.732 389.812,56.732C392.577,56.732 396.388,55.312 399.601,52.996C406.774,47.915 411.706,37.678 411.706,27.814C411.706,24.975 411.033,22.061 410.137,20.94C409.614,20.267 408.642,19.894 407.521,19.894C405.728,19.894 403.486,20.492 401.394,21.538C397.583,23.555 395.117,25.797 390.485,31.7L396.911,1.96ZM403.412,24.228C405.354,24.228 406.326,25.946 406.326,29.608C406.326,34.39 404.757,40.816 402.515,45.673C400.049,50.829 397.06,53.22 393.025,53.22C389.588,53.22 387.72,51.501 387.72,48.363C387.72,45.822 388.841,35.287 394.893,28.935C397.359,26.395 401.245,24.228 403.412,24.228Z" style="fill:black;fill-rule:nonzero;"/>
        </g>
    </g>
    <path d="M154.772,57.386L41.386,170.772L154.772,284.158L268.158,624.315L381.543,624.315L381.543,284.158L154.772,57.386Z" style="fill:none;stroke-width:2px;stroke:black;"/>
    <path d="M41.386,624.315L41.386,397.543L381.543,57.386L381.543,284.158L41.386,624.315Z" style="fill:none;stroke-width:2px;stroke:black;"/>
    <path d="M158.351,36.167L156.184,45.656C155.885,46.927 155.736,48.272 155.736,49.467C155.736,51.111 156.408,52.083 157.529,52.083C159.247,52.083 162.311,50.14 168.438,45.059L167.915,43.489C166.122,44.984 163.955,47.001 162.311,47.001C161.639,47.001 161.19,46.329 161.19,45.283C161.19,44.909 161.19,44.685 161.265,44.461L168.139,16.141L167.392,15.468L164.926,16.813C161.863,15.693 160.592,15.394 158.575,15.394C156.483,15.394 154.988,15.767 152.971,16.739C148.338,19.055 145.872,21.297 144.004,24.958C140.716,31.609 138.4,40.575 138.4,46.404C138.4,49.691 139.521,52.232 140.94,52.232C143.705,52.232 149.683,48.346 158.351,36.167ZM161.937,20.475C160.294,28.62 158.874,32.505 156.333,36.391C152.074,42.667 147.516,47.001 145.125,47.001C144.228,47.001 143.78,46.03 143.78,44.012C143.78,39.23 145.872,30.488 148.487,24.51C150.281,20.4 151.999,19.055 155.586,19.055C157.305,19.055 158.65,19.354 161.937,20.475Z" style="fill:black;fill-rule:nonzero;"/>
    <g>
        <clipPath id="_clip2">
            <rect x="13.386" y="128.252" width="28" height="38"/>
        </clipPath>
        <g clip-path="url(#_clip2)">
            <path d="M37.006,139.752L38.725,139.752C39.322,134.895 39.846,132.13 40.518,130.187C38.725,129.066 36.109,128.394 33.345,128.394C29.982,128.319 24.527,129.813 20.268,134.521C16.233,138.108 13.319,146.402 13.319,154.248C13.319,161.421 16.457,165.232 22.435,165.232C26.47,165.232 30.057,163.737 34.167,160.375L37.903,157.311L37.305,155.817L36.184,156.564C30.804,160.151 27.965,161.421 25.349,161.421C21.165,161.421 18.998,158.432 18.998,152.529C18.998,144.459 21.613,136.688 25.275,133.848C26.844,132.653 28.637,132.055 30.954,132.055C34.316,132.055 37.006,133.475 37.006,135.268L37.006,139.752Z" style="fill:black;fill-rule:nonzero;"/>
        </g>
    </g>
    <g>
        <clipPath id="_clip3">
            <rect x="253.984" y="86.425" width="36" height="56"/>
        </clipPath>
        <g clip-path="url(#_clip3)">
            <path d="M289.092,86.96L288.195,86.138C284.31,88.081 281.62,88.754 276.24,89.277L275.941,90.846L279.527,90.846C281.321,90.846 282.068,91.369 282.068,92.639C282.068,93.237 281.993,93.91 281.919,94.433L279.826,105.94C277.585,105.267 275.567,104.894 273.699,104.894C268.543,104.894 261.519,110.274 258.082,116.775C255.766,121.109 254.271,128.207 254.271,134.484C254.271,139.341 255.392,141.732 257.559,141.732C259.577,141.732 262.341,140.462 264.882,138.444C268.917,135.156 271.383,132.242 276.389,124.695L274.671,131.495C273.849,134.783 273.475,137.174 273.475,139.117C273.475,140.686 274.147,141.583 275.418,141.583C276.688,141.583 278.481,140.686 281.022,138.818L287.074,134.334L286.327,132.915L283.039,135.231C281.993,135.978 280.798,136.501 280.125,136.501C279.527,136.501 279.079,135.829 279.079,134.783C279.079,134.185 279.154,133.512 279.677,131.346L289.092,86.96ZM261.519,136.501C260.324,136.501 259.651,135.455 259.651,133.587C259.651,124.172 263.089,112.515 266.75,109.676C267.721,108.929 269.141,108.555 271.159,108.555C274.446,108.555 276.613,109.003 279.079,110.274L278.182,114.682C275.418,128.132 264.882,136.501 261.519,136.501Z" style="fill:black;fill-rule:nonzero;"/>
        </g>
    </g>
    <path d="M164.635,256.116L162.842,257.386C158.881,260.226 155.295,261.72 152.605,261.72C149.093,261.72 146.926,258.955 146.926,254.472C146.926,252.604 147.15,250.586 147.524,248.419C148.794,248.12 156.939,245.879 158.807,245.057C165.158,242.292 168.072,238.855 168.072,234.222C168.072,230.71 165.532,228.394 161.796,228.394C156.714,227.348 148.495,232.802 145.73,238.332C143.489,242.068 141.247,250.96 141.247,255.966C141.247,261.795 144.535,265.232 149.915,265.232C154.174,265.232 158.358,263.14 165.233,257.536L164.635,256.116ZM148.57,243.936C149.84,238.78 151.334,235.567 153.501,233.624C154.846,232.429 157.163,231.532 158.956,231.532C161.123,231.532 162.543,233.027 162.543,235.418C162.543,238.705 159.927,242.217 156.042,244.085C153.95,245.132 151.26,245.954 147.897,246.701L148.57,243.936Z" style="fill:black;fill-rule:nonzero;"/>
    <path d="M422.505,273.256L421.31,273.256L422.879,264.887C424.074,258.461 426.167,255.622 429.604,255.622C431.846,255.622 433.863,256.743 434.984,258.536L435.731,258.237C436.105,257.041 436.852,254.725 437.45,253.231L437.823,252.11C436.628,251.587 434.311,251.138 432.593,251.138C431.771,251.138 430.575,251.363 429.978,251.661C428.184,252.483 422.057,257.041 420.338,258.835C418.694,260.479 417.798,262.72 416.976,266.98L415.855,272.883C412.791,274.377 411.297,274.975 409.429,275.647L409.055,277.291L415.108,277.291L414.435,281.476C412.194,296.047 409.429,309.945 407.785,315.101C406.44,319.509 404.198,321.826 401.508,321.826C399.79,321.826 398.968,321.303 397.623,319.659L396.577,319.958C396.278,321.676 395.232,325.263 394.858,325.936C395.53,326.309 396.651,326.533 397.473,326.533C400.537,326.533 404.572,324.217 407.486,320.705C412.791,314.428 414.286,307.255 420.562,277.291L428.334,277.291C428.633,275.872 429.156,274.153 429.604,273.107L429.305,272.584C427.138,273.107 427.213,273.256 422.505,273.256Z" style="fill:black;fill-rule:nonzero;"/>
    <path d="M24.05,369.394C19.043,369.394 7.611,374.101 7.611,386.057C7.611,391.811 10.973,395.248 16.727,395.248C17.325,395.248 18.147,395.248 18.969,395.173L15.905,398.012C14.709,399.133 13.887,400.478 13.887,401.524C13.887,402.272 14.41,403.094 15.457,403.99C10.301,405.709 0.736,408.997 0.736,417.291C0.736,422.596 5.967,426.033 14.112,426.033C23.751,426.033 32.194,420.653 32.194,414.451C32.194,411.761 30.625,409.071 27.412,406.456L22.929,402.795C20.388,400.777 19.417,399.357 19.417,397.938C19.417,396.892 20.538,395.846 21.434,394.501C28.757,392.707 34.063,386.505 34.063,379.855C34.063,378.734 33.838,377.314 33.764,377.015C35.034,377.165 35.632,377.165 36.304,377.165C37.574,377.165 38.322,377.09 40.04,376.866L40.713,373.503L40.489,373.055C38.396,373.578 36.902,373.728 32.867,373.728C32.867,373.653 31.074,369.394 24.05,369.394ZM16.652,405.335L22.406,409.744C25.843,412.434 27.263,414.451 27.263,416.917C27.263,420.803 22.107,423.941 15.905,423.941C9.778,423.941 5.519,420.803 5.519,416.245C5.519,408.623 13.738,406.232 16.652,405.335ZM22.182,371.934C26.516,371.934 28.682,374.624 28.682,379.93C28.682,387.626 25.096,392.857 19.865,392.857C15.307,392.857 12.916,389.793 12.916,383.89C12.916,376.791 16.727,371.934 22.182,371.934Z" style="fill:black;fill-rule:nonzero;"/>
    <path d="M221.636,369.96L220.739,369.138C217.376,370.782 214.313,371.828 208.783,372.277L208.484,373.846L212.071,373.846C213.416,373.846 214.612,374.07 214.612,375.565C214.612,376.013 214.612,376.685 214.462,377.433L211.324,394.918C209.829,403.585 206.691,417.932 204.748,423.761L205.271,424.583L210.427,423.387C211.025,419.128 212.071,411.656 215.06,406.275C218.422,400.223 226.119,392.975 229.257,392.975C230.079,392.975 230.901,393.498 230.901,394.544C230.901,395.889 230.527,398.355 229.78,401.269L225.969,415.915C225.521,417.559 224.998,419.8 224.998,421.594C224.998,423.462 225.745,424.583 227.314,424.583C229.706,424.583 234.787,420.846 239.195,417.559L238.448,416.214L236.505,417.484C234.787,418.605 232.844,419.726 231.947,419.726C231.424,419.726 230.976,419.053 230.976,418.231C230.976,417.334 231.2,416.363 231.499,415.242L236.281,396.113C236.729,394.17 237.103,392.302 237.103,390.509C237.103,389.239 236.655,387.894 234.712,387.894C232.097,387.894 226.343,391.256 221.262,395.964C218.796,398.28 216.853,400.895 214.761,403.511L214.462,403.361L221.636,369.96Z" style="fill:black;fill-rule:nonzero;"/>
    <g>
        <path d="M13.292,620.918L13.815,622.412L16.206,620.843C18.97,619.124 19.195,618.975 19.718,618.975C20.465,618.975 21.063,619.722 21.063,620.694C21.063,621.217 20.764,622.935 20.465,623.981L15.533,641.915C14.935,644.231 14.562,646.249 14.562,647.668C14.562,649.462 15.384,650.583 16.804,650.583C18.746,650.583 21.436,649.013 28.759,643.559L28.012,642.214L26.069,643.484C23.902,644.904 22.184,645.726 21.511,645.726C20.988,645.726 20.54,644.978 20.54,644.231C20.54,643.484 20.689,642.811 21.063,641.242L26.816,618.527C27.115,617.256 27.265,616.434 27.265,615.837C27.265,614.566 26.592,613.894 25.397,613.894C23.753,613.894 20.988,615.463 15.384,619.423L13.292,620.918ZM27.788,596.708C25.621,596.708 23.454,599.173 23.454,601.714C23.454,603.582 24.575,604.778 26.368,604.778C28.684,604.778 30.478,602.611 30.478,599.771C30.478,597.978 29.357,596.708 27.788,596.708Z" style="fill:black;fill-rule:nonzero;"/>
    </g>
    <path d="M243.563,633.182L236.09,670.17C235.269,674.056 233.924,676.671 232.578,676.671C231.532,676.671 230.187,676.223 228.618,675.251L228.02,679.51C228.768,679.884 229.739,680.033 230.86,680.033C233.849,680.033 236.838,676.82 239.528,670.768C241.022,667.405 242.068,663.669 244.16,654.179L249.839,628.027C250.138,626.682 250.288,625.71 250.288,625.262C250.288,624.066 249.615,623.394 248.42,623.394C246.776,623.394 244.011,624.963 238.407,628.923L236.315,630.418L236.838,631.912L239.229,630.343C241.994,628.624 242.218,628.475 242.741,628.475C243.488,628.475 244.086,629.222 244.086,630.194C244.086,630.866 243.563,632.809 243.563,633.182ZM250.362,606.208C248.196,606.208 246.029,608.673 246.029,611.214C246.029,613.082 247.149,614.278 248.943,614.278C251.259,614.278 253.052,612.111 253.052,609.271C253.052,607.478 251.932,606.208 250.362,606.208Z" style="fill:black;fill-rule:nonzero;"/>
    <g>
        <clipPath id="_clip4">
            <rect x="390.063" y="582.488" width="34" height="56"/>
        </clipPath>
        <g clip-path="url(#_clip4)">
            <path d="M407.059,582.96L406.163,582.138C402.277,584.081 399.587,584.754 394.207,585.277L393.908,586.846L397.495,586.846C399.288,586.846 400.035,587.369 400.035,588.639C400.035,589.237 399.961,589.91 399.886,590.433L396.299,610.458C395.253,616.062 394.058,621.218 390.172,636.835L390.845,637.583L395.851,636.312L397.57,627.047C398.242,623.46 400.035,620.097 402.576,617.557C407.732,632.501 410.123,637.583 411.991,637.583C412.962,637.583 414.756,636.611 418.044,634.295L421.481,631.904L420.883,630.484L417.67,632.277C416.624,632.875 416.101,633.024 415.503,633.024C414.756,633.024 414.233,632.576 413.56,631.306C410.945,626.524 409.301,622.489 406.387,613.298L407.433,612.252C411.991,607.694 415.428,605.825 419.164,605.825C419.762,605.825 420.584,605.975 421.854,606.274L423.125,601.566C421.78,601.118 420.435,600.894 419.538,600.894C414.606,600.894 408.404,606.647 399.064,619.724L407.059,582.96Z" style="fill:black;fill-rule:nonzero;"/>
        </g>
    </g>
</svg>
