<?xml version="1.0" standalone="no"?>
<!DOCTYPE svg PUBLIC "-//W3C//DTD SVG 1.1//EN" "http://www.w3.org/Graphics/SVG/1.1/DTD/svg11.dtd">
<svg width="100%" height="100%" viewBox="0 0 374 374" version="1.1" xmlns="http://www.w3.org/2000/svg" xmlns:xlink="http://www.w3.org/1999/xlink" xml:space="preserve" style="fill-rule:evenodd;clip-rule:evenodd;stroke-linecap:round;stroke-linejoin:round;stroke-miterlimit:10;">
    <path d="M129.858,130.158L16.472,130.158L16.472,356.929L356.63,356.929L356.63,16.772L129.858,16.772L129.858,130.158L243.244,130.158L243.244,243.543L129.858,243.543L129.858,130.158Z" style="fill:rgb(4,51,255);fill-opacity:0.501961;fill-rule:nonzero;"/>
    <path d="M139.88,6.75C145.415,12.285 145.415,21.259 139.88,26.794C134.345,32.329 125.371,32.329 119.836,26.794C114.301,21.259 114.301,12.285 119.836,6.75C125.371,1.215 134.345,1.215 139.88,6.75" style="fill:black;fill-rule:nonzero;stroke-width:1px;stroke:black;"/>
    <path d="M122.658,142.369C128.093,145.579 135.21,144.849 139.88,140.18C144.55,135.51 145.28,128.392 142.07,122.957L122.658,142.369ZM137.059,117.946C131.624,114.736 124.506,115.466 119.836,120.136C115.166,124.805 114.437,131.923 117.647,137.358L137.059,117.946Z" style="fill:black;fill-rule:nonzero;stroke-width:1px;stroke:black;"/>
    <path d="M26.494,120.136C32.029,125.671 32.029,134.645 26.494,140.18C20.959,145.715 11.985,145.715 6.45,140.18C0.915,134.645 0.915,125.671 6.45,120.136C11.985,114.601 20.959,114.601 26.494,120.136" style="fill:black;fill-rule:nonzero;stroke-width:1px;stroke:black;"/>
    <path d="M26.494,346.907C32.029,352.442 32.029,361.416 26.494,366.951C20.959,372.486 11.985,372.486 6.45,366.951C0.915,361.416 0.915,352.442 6.45,346.907C11.985,341.372 20.959,341.372 26.494,346.907" style="fill:black;fill-rule:nonzero;stroke-width:1px;stroke:black;"/>
    <path d="M366.652,346.907C372.187,352.442 372.187,361.416 366.652,366.951C361.117,372.486 352.143,372.486 346.608,366.951C341.073,361.416 341.073,352.442 346.608,346.907C352.143,341.372 361.117,341.372 366.652,346.907" style="fill:black;fill-rule:nonzero;stroke-width:1px;stroke:black;"/>
    <path d="M366.652,6.75C372.187,12.285 372.187,21.259 366.652,26.794C361.117,32.329 352.143,32.329 346.608,26.794C341.073,21.259 341.073,12.285 346.608,6.75C352.143,1.215 361.117,1.215 366.652,6.75" style="fill:black;fill-rule:nonzero;stroke-width:1px;stroke:black;"/>
    <path d="M139.88,233.521C145.415,239.056 145.415,248.03 139.88,253.565C134.345,259.1 125.371,259.1 119.836,253.565C114.301,248.03 114.301,239.056 119.836,233.521C125.371,227.986 134.345,227.986 139.88,233.521" style="fill:black;fill-rule:nonzero;stroke-width:1px;stroke:black;"/>
    <path d="M253.266,233.521C258.801,239.056 258.801,248.03 253.266,253.565C247.731,259.1 238.757,259.1 233.222,253.565C227.687,248.03 227.687,239.056 233.222,233.521C238.757,227.986 247.731,227.986 253.266,233.521" style="fill:black;fill-rule:nonzero;stroke-width:1px;stroke:black;"/>
    <path d="M253.266,120.136C258.801,125.671 258.801,134.645 253.266,140.18C247.731,145.715 238.757,145.715 233.222,140.18C227.687,134.645 227.687,125.671 233.222,120.136C238.757,114.601 247.731,114.601 253.266,120.136" style="fill:black;fill-rule:nonzero;stroke-width:1px;stroke:black;"/>
    <path d="M341.957,16.772L157.431,16.772" style="fill:none;stroke-width:2px;stroke:black;"/>
    <path d="M147.832,16.772L157.432,20.372L157.432,13.172L147.832,16.772Z" style="fill:black;fill-rule:nonzero;"/>
    <path d="M147.831,16.772L157.431,20.372L157.431,13.172L147.831,16.772Z" style="fill:none;stroke-width:2px;stroke-linecap:butt;stroke-linejoin:miter;stroke:black;"/>
    <path d="M129.858,31.445L129.858,102.584" style="fill:none;stroke-width:2px;stroke:black;"/>
    <path d="M129.858,112.184L133.458,102.584L126.258,102.584L129.858,112.184Z" style="fill:black;fill-rule:nonzero;stroke-width:2px;stroke-linecap:butt;stroke-linejoin:miter;stroke:black;"/>
    <path d="M115.185,130.158L44.046,130.158" style="fill:none;stroke-width:2px;stroke:black;"/>
    <path d="M34.446,130.158L44.046,133.758L44.046,126.558L34.446,130.158Z" style="fill:black;fill-rule:nonzero;stroke-width:2px;stroke-linecap:butt;stroke-linejoin:miter;stroke:black;"/>
    <path d="M144.531,130.158L215.671,130.158" style="fill:none;stroke-width:2px;stroke:black;"/>
    <path d="M225.271,130.158L215.671,126.558L215.671,133.758L225.271,130.158Z" style="fill:black;fill-rule:nonzero;stroke-width:2px;stroke-linecap:butt;stroke-linejoin:miter;stroke:black;"/>
    <path d="M243.244,144.831L243.244,215.97" style="fill:none;stroke-width:2px;stroke:black;"/>
    <path d="M243.244,225.57L246.844,215.97L239.644,215.97L243.244,225.57Z" style="fill:black;fill-rule:nonzero;stroke-width:2px;stroke-linecap:butt;stroke-linejoin:miter;stroke:black;"/>
    <path d="M228.571,243.543L157.431,243.543" style="fill:none;stroke-width:2px;stroke:black;"/>
    <path d="M147.832,243.543L157.432,247.143L157.432,239.943L147.832,243.543Z" style="fill:black;fill-rule:nonzero;"/>
    <path d="M147.831,243.543L157.431,247.143L157.431,239.943L147.831,243.543Z" style="fill:none;stroke-width:2px;stroke-linecap:butt;stroke-linejoin:miter;stroke:black;"/>
    <path d="M129.858,228.87L129.858,157.731" style="fill:none;stroke-width:2px;stroke:black;"/>
    <path d="M129.858,148.131L126.258,157.731L133.458,157.731L129.858,148.131Z" style="fill:black;fill-rule:nonzero;stroke-width:2px;stroke-linecap:butt;stroke-linejoin:miter;stroke:black;"/>
    <path d="M16.472,144.831L16.472,329.356" style="fill:none;stroke-width:2px;stroke:black;"/>
    <path d="M16.472,338.956L20.072,329.356L12.872,329.356L16.472,338.956Z" style="fill:black;fill-rule:nonzero;stroke-width:2px;stroke-linecap:butt;stroke-linejoin:miter;stroke:black;"/>
    <path d="M31.146,356.929L329.057,356.929" style="fill:none;stroke-width:2px;stroke:black;"/>
    <path d="M338.657,356.929L329.057,353.329L329.057,360.529L338.657,356.929Z" style="fill:black;fill-rule:nonzero;stroke-width:2px;stroke-linecap:butt;stroke-linejoin:miter;stroke:black;"/>
    <path d="M356.63,342.256L356.63,44.345" style="fill:none;stroke-width:2px;stroke:black;"/>
    <path d="M356.63,34.745L353.03,44.345L360.23,44.345L356.63,34.745Z" style="fill:black;fill-rule:nonzero;stroke-width:2px;stroke-linecap:butt;stroke-linejoin:miter;stroke:black;"/>
</svg>
