<?xml version="1.0" standalone="no"?>
<!DOCTYPE svg PUBLIC "-//W3C//DTD SVG 1.1//EN" "http://www.w3.org/Graphics/SVG/1.1/DTD/svg11.dtd">
<svg width="100%" height="100%" viewBox="0 0 82 82" version="1.1" xmlns="http://www.w3.org/2000/svg" xmlns:xlink="http://www.w3.org/1999/xlink" xml:space="preserve" style="fill-rule:evenodd;clip-rule:evenodd;stroke-linejoin:round;stroke-miterlimit:10;">
    <path d="M16.402,10.545L15.565,14.31L22.047,16.255L20.334,10.545L16.402,10.545Z" style="fill:rgb(64,191,124);"/>
    <path d="M3.015,70.786L63.255,70.786L63.255,10.545L3.015,10.545L78.315,33.135L40.665,78.316L18.075,3.015L3.015,70.786Z" style="fill:rgb(64,191,124);stroke-width:0.6px;stroke:black;"/>
    <path d="M4.365,70.786C4.365,70.04 3.76,69.436 3.015,69.436C2.269,69.436 1.665,70.04 1.665,70.786C1.665,71.531 2.269,72.136 3.015,72.136C3.76,72.136 4.365,71.531 4.365,70.786" style="fill:black;"/>
    <path d="M42.015,78.316C42.015,77.57 41.41,76.966 40.665,76.966C39.919,76.966 39.315,77.57 39.315,78.316C39.315,79.061 39.919,79.666 40.665,79.666C41.41,79.666 42.015,79.061 42.015,78.316" style="fill:black;"/>
    <path d="M64.605,70.786C64.605,70.04 64,69.436 63.255,69.436C62.509,69.436 61.905,70.04 61.905,70.786C61.905,71.531 62.509,72.136 63.255,72.136C64,72.136 64.605,71.531 64.605,70.786" style="fill:black;"/>
    <path d="M64.605,10.546C64.605,9.799 64,9.196 63.255,9.196C62.509,9.196 61.905,9.799 61.905,10.546C61.905,11.291 62.509,11.896 63.255,11.896C64,11.896 64.605,11.291 64.605,10.546" style="fill:black;"/>
    <path d="M79.665,33.136C79.665,32.39 79.06,31.786 78.315,31.786C77.569,31.786 76.965,32.39 76.965,33.136C76.965,33.881 77.569,34.486 78.315,34.486C79.06,34.486 79.665,33.881 79.665,33.136" style="fill:black;"/>
    <path d="M19.425,3.016C19.425,2.269 18.82,1.666 18.075,1.666C17.329,1.666 16.725,2.269 16.725,3.016C16.725,3.761 17.329,4.366 18.075,4.366C18.82,4.366 19.425,3.761 19.425,3.016" style="fill:black;"/>
    <path d="M4.365,10.546C4.365,9.799 3.76,9.196 3.015,9.196C2.269,9.196 1.665,9.799 1.665,10.546C1.665,11.291 2.269,11.896 3.015,11.896C3.76,11.896 4.365,11.291 4.365,10.546" style="fill:black;"/>
    <path d="M28.681,70.786L36.211,70.786" style="fill:none;stroke-width:0.6px;stroke:black;"/>
    <path d="M36.211,70.786L30.961,69.037L30.961,72.534L36.211,70.786Z" style="fill:black;stroke-width:0.6px;stroke:black;"/>
    <path d="M35.095,20.167L44.984,23.134" style="fill:none;stroke-width:0.6px;stroke:black;"/>
    <path d="M44.984,23.134L40.458,19.951L39.454,23.3L44.984,23.134Z" style="fill:black;stroke-width:0.6px;stroke:black;"/>
    <path d="M63.255,38.857L63.255,31.327" style="fill:none;stroke-width:0.6px;stroke:black;"/>
    <path d="M63.255,31.327L61.507,36.577L65.003,36.577L63.255,31.327Z" style="fill:black;stroke-width:0.6px;stroke:black;"/>
    <path d="M12.122,29.798L10.367,37.696" style="fill:none;stroke-width:0.6px;stroke:black;"/>
    <path d="M10.367,37.696L13.213,32.95L9.799,32.192L10.367,37.696Z" style="fill:black;stroke-width:0.6px;stroke:black;"/>
    <path d="M37.772,10.546L30.242,10.546" style="fill:none;stroke-width:0.6px;stroke:black;"/>
    <path d="M30.242,10.546L35.492,12.295L35.492,8.798L30.242,10.546Z" style="fill:black;stroke-width:0.6px;stroke:black;"/>
    <path d="M61.833,52.915L56.18,59.698" style="fill:none;stroke-width:0.6px;stroke:black;"/>
    <path d="M56.18,59.698L60.884,56.784L58.198,54.545L56.18,59.698Z" style="fill:black;stroke-width:0.6px;stroke:black;"/>
    <path d="M30.329,43.867L27.583,34.711" style="fill:none;stroke-width:0.6px;stroke:black;"/>
    <path d="M27.583,34.711L27.417,40.243L30.766,39.238L27.583,34.711Z" style="fill:black;stroke-width:0.6px;stroke:black;"/>
    <path d="M42.979,30.142L36.193,35.177L43.417,44.59L53.925,37.804L42.979,30.142Z" style="fill:rgb(64,191,124);stroke-width:0.6px;stroke:rgb(169,169,169);"/>
    <path d="M44.464,29.993C44.464,29.248 43.859,28.643 43.114,28.643C42.368,28.643 41.764,29.248 41.764,29.993C41.764,30.739 42.368,31.343 43.114,31.343C43.859,31.343 44.464,30.739 44.464,29.993" style="fill:rgb(169,169,169);"/>
    <path d="M37.543,34.925C37.543,34.179 36.939,33.575 36.193,33.575C35.448,33.575 34.843,34.179 34.843,34.925C34.843,35.67 35.448,36.275 36.193,36.275C36.939,36.275 37.543,35.67 37.543,34.925" style="fill:rgb(169,169,169);"/>
    <path d="M55.275,37.625C55.275,36.879 54.67,36.275 53.925,36.275C53.179,36.275 52.575,36.879 52.575,37.625C52.575,38.37 53.179,38.975 53.925,38.975C54.67,38.975 55.275,38.37 55.275,37.625" style="fill:rgb(169,169,169);"/>
    <path d="M45.059,44.59C45.059,43.844 44.455,43.24 43.709,43.24C42.964,43.24 42.359,43.844 42.359,44.59C42.359,45.335 42.964,45.94 43.709,45.94C44.455,45.94 45.059,45.335 45.059,44.59" style="fill:rgb(169,169,169);"/>
    <path d="M50.23,35.315L47.209,30.679L45.033,33.415L50.23,35.315Z" style="fill:rgb(171,171,171);stroke-width:0.6px;stroke:rgb(171,171,171);"/>
    <path d="M46.104,42.835L51.294,40.914L49.106,38.187L46.104,42.835Z" style="fill:rgb(171,171,171);stroke-width:0.6px;stroke:rgb(171,171,171);"/>
    <path d="M37.853,37.279L39.85,42.44L42.545,40.212L37.853,37.279Z" style="fill:rgb(171,171,171);stroke-width:0.6px;stroke:rgb(171,171,171);"/>
    <path d="M41.993,31.084L36.766,32.902L38.899,35.672L41.993,31.084Z" style="fill:rgb(171,171,171);stroke-width:0.6px;stroke:rgb(171,171,171);"/>
</svg>
