<?xml version="1.0" standalone="no"?>
<!DOCTYPE svg PUBLIC "-//W3C//DTD SVG 1.1//EN" "http://www.w3.org/Graphics/SVG/1.1/DTD/svg11.dtd">
<svg width="100%" height="100%" viewBox="0 0 82 82" version="1.1" xmlns="http://www.w3.org/2000/svg" xmlns:xlink="http://www.w3.org/1999/xlink" xml:space="preserve" style="fill-rule:evenodd;clip-rule:evenodd;stroke-linejoin:round;stroke-miterlimit:10;">
    <path d="M3.015,70.786L63.255,70.786L63.255,10.545L3.015,10.545L78.315,33.135L40.665,78.316L18.075,3.015L3.015,70.786Z" style="fill:rgb(64,191,124);stroke-width:0.6px;stroke:black;"/>
    <path d="M44.348,35.132L37.562,40.167L44.786,49.58L55.293,42.794L44.348,35.132Z" style="fill:rgb(64,191,124);stroke-width:0.6px;stroke:rgb(169,169,169);"/>
    <path d="M64.717,71.062C64.717,70.317 64.112,69.712 63.367,69.712C62.621,69.712 62.017,70.317 62.017,71.062C62.017,71.808 62.621,72.412 63.367,72.412C64.112,72.412 64.717,71.808 64.717,71.062" style="fill:black;"/>
    <path d="M79.804,33.341C79.804,32.595 79.2,31.991 78.454,31.991C77.709,31.991 77.104,32.595 77.104,33.341C77.104,34.086 77.709,34.691 78.454,34.691C79.2,34.691 79.804,34.086 79.804,33.341" style="fill:black;"/>
    <path d="M64.572,10.474C64.572,9.728 63.967,9.124 63.222,9.124C62.476,9.124 61.872,9.728 61.872,10.474C61.872,11.219 62.476,11.824 63.222,11.824C63.967,11.824 64.572,11.219 64.572,10.474" style="fill:black;"/>
    <path d="M42.143,78.459C42.143,77.714 41.539,77.109 40.793,77.109C40.048,77.109 39.443,77.714 39.443,78.459C39.443,79.205 40.048,79.809 40.793,79.809C41.539,79.809 42.143,79.205 42.143,78.459" style="fill:black;"/>
    <path d="M4.342,70.849C4.342,70.103 3.737,69.499 2.992,69.499C2.246,69.499 1.642,70.103 1.642,70.849C1.642,71.594 2.246,72.199 2.992,72.199C3.737,72.199 4.342,71.594 4.342,70.849" style="fill:black;"/>
    <path d="M4.446,10.662C4.446,9.916 3.841,9.312 3.096,9.312C2.35,9.312 1.746,9.916 1.746,10.662C1.746,11.407 2.35,12.012 3.096,12.012C3.841,12.012 4.446,11.407 4.446,10.662" style="fill:black;"/>
    <path d="M19.411,3.042C19.411,2.296 18.807,1.692 18.061,1.692C17.316,1.692 16.711,2.296 16.711,3.042C16.711,3.787 17.316,4.392 18.061,4.392C18.807,4.392 19.411,3.787 19.411,3.042" style="fill:black;"/>
    <path d="M45.832,34.984C45.832,34.238 45.227,33.634 44.482,33.634C43.736,33.634 43.132,34.238 43.132,34.984C43.132,35.729 43.736,36.334 44.482,36.334C45.227,36.334 45.832,35.729 45.832,34.984" style="fill:rgb(169,169,169);"/>
    <path d="M38.912,39.915C38.912,39.17 38.307,38.565 37.562,38.565C36.816,38.565 36.212,39.17 36.212,39.915C36.212,40.661 36.816,41.265 37.562,41.265C38.307,41.265 38.912,40.661 38.912,39.915" style="fill:rgb(169,169,169);"/>
    <path d="M56.643,42.615C56.643,41.87 56.039,41.265 55.293,41.265C54.548,41.265 53.943,41.87 53.943,42.615C53.943,43.361 54.548,43.965 55.293,43.965C56.039,43.965 56.643,43.361 56.643,42.615" style="fill:rgb(169,169,169);"/>
    <path d="M46.427,49.58C46.427,48.835 45.823,48.23 45.077,48.23C44.332,48.23 43.727,48.835 43.727,49.58C43.727,50.326 44.332,50.93 45.077,50.93C45.823,50.93 46.427,50.326 46.427,49.58" style="fill:rgb(169,169,169);"/>
</svg>
