<?xml version="1.0" standalone="no"?>
<!DOCTYPE svg PUBLIC "-//W3C//DTD SVG 1.1//EN" "http://www.w3.org/Graphics/SVG/1.1/DTD/svg11.dtd">
<svg width="100%" height="100%" viewBox="0 0 88 126" version="1.1" xmlns="http://www.w3.org/2000/svg" xmlns:xlink="http://www.w3.org/1999/xlink" xml:space="preserve" style="fill-rule:evenodd;clip-rule:evenodd;stroke-linejoin:round;stroke-miterlimit:1.41421;">
    <rect x="-363" y="-95" width="806" height="1132" style="fill:white;fill-rule:nonzero;"/>
    <g>
        <path d="M44.906,15.276C44.906,15.1 44.81,15.004 44.65,15.004C44.618,15.004 44.57,15.004 44.522,15.02L41.05,15.932C40.906,15.964 40.842,16.092 40.842,16.22C40.842,16.364 40.922,16.492 41.098,16.492L42.954,16.492C43.194,16.492 43.37,16.524 43.37,16.812L43.37,20.828C43.37,22.156 42.97,22.492 41.434,22.668C41.258,22.684 41.178,22.844 41.178,22.988C41.178,23.132 41.242,23.244 41.386,23.244L46.938,23.244C47.066,23.244 47.146,23.132 47.146,23.004C47.146,22.86 47.05,22.7 46.89,22.668C45.178,22.428 44.906,22.156 44.906,20.812L44.906,15.276Z" style="fill:rgb(169,169,169);fill-rule:nonzero;"/>
        <path d="M37.378,38.276C37.378,38.1 37.282,38.004 37.122,38.004C37.09,38.004 37.042,38.004 36.994,38.02L33.522,38.932C33.378,38.964 33.314,39.092 33.314,39.22C33.314,39.364 33.394,39.492 33.57,39.492L35.426,39.492C35.666,39.492 35.842,39.524 35.842,39.812L35.842,43.828C35.842,45.156 35.442,45.492 33.906,45.668C33.73,45.684 33.65,45.844 33.65,45.988C33.65,46.132 33.714,46.244 33.858,46.244L39.41,46.244C39.538,46.244 39.618,46.132 39.618,46.004C39.618,45.86 39.522,45.7 39.362,45.668C37.65,45.428 37.378,45.156 37.378,43.812L37.378,38.276Z" style="fill:rgb(169,169,169);fill-rule:nonzero;"/>
        <path d="M52.454,38.276C52.454,38.1 52.358,38.004 52.198,38.004C52.166,38.004 52.118,38.004 52.07,38.02L48.598,38.932C48.454,38.964 48.39,39.092 48.39,39.22C48.39,39.364 48.47,39.492 48.646,39.492L50.502,39.492C50.742,39.492 50.918,39.524 50.918,39.812L50.918,43.828C50.918,45.156 50.518,45.492 48.982,45.668C48.806,45.684 48.726,45.844 48.726,45.988C48.726,46.132 48.79,46.244 48.934,46.244L54.486,46.244C54.614,46.244 54.694,46.132 54.694,46.004C54.694,45.86 54.598,45.7 54.438,45.668C52.726,45.428 52.454,45.156 52.454,43.812L52.454,38.276Z" style="fill:black;fill-rule:nonzero;"/>
        <path d="M28.506,61.276C28.506,61.1 28.41,61.004 28.25,61.004C28.218,61.004 28.17,61.004 28.122,61.02L24.65,61.932C24.506,61.964 24.442,62.092 24.442,62.22C24.442,62.364 24.522,62.492 24.698,62.492L26.554,62.492C26.794,62.492 26.97,62.524 26.97,62.812L26.97,66.828C26.97,68.156 26.57,68.492 25.034,68.668C24.858,68.684 24.778,68.844 24.778,68.988C24.778,69.132 24.842,69.244 24.986,69.244L30.538,69.244C30.666,69.244 30.746,69.132 30.746,69.004C30.746,68.86 30.65,68.7 30.49,68.668C28.778,68.428 28.506,68.156 28.506,66.812L28.506,61.276Z" style="fill:rgb(169,169,169);fill-rule:nonzero;"/>
        <path d="M46.698,69.244C46.874,69.244 46.922,69.164 46.954,68.94L47.13,67.948C47.162,67.756 47.034,67.724 46.938,67.724L42.41,67.868C45.322,66.124 46.442,64.668 46.442,63.244C46.442,61.5 44.954,60.908 43.562,60.908C42.186,60.908 40.618,61.708 40.618,62.268C40.618,62.412 40.698,62.556 40.874,62.556C40.954,62.556 41.05,62.54 41.178,62.46C41.802,62.124 42.266,61.98 42.97,61.98C44.01,61.98 44.73,62.604 44.73,63.564C44.73,64.876 44.074,65.98 40.442,68.556C40.314,68.652 40.234,68.796 40.234,68.94C40.234,69.1 40.33,69.244 40.554,69.244L46.698,69.244Z" style="fill:black;fill-rule:nonzero;"/>
        <path d="M61.306,61.276C61.306,61.1 61.21,61.004 61.05,61.004C61.018,61.004 60.97,61.004 60.922,61.02L57.45,61.932C57.306,61.964 57.242,62.092 57.242,62.22C57.242,62.364 57.322,62.492 57.498,62.492L59.354,62.492C59.594,62.492 59.77,62.524 59.77,62.812L59.77,66.828C59.77,68.156 59.37,68.492 57.834,68.668C57.658,68.684 57.578,68.844 57.578,68.988C57.578,69.132 57.642,69.244 57.786,69.244L63.338,69.244C63.466,69.244 63.546,69.132 63.546,69.004C63.546,68.86 63.45,68.7 63.29,68.668C61.578,68.428 61.306,68.156 61.306,66.812L61.306,61.276Z" style="fill:black;fill-rule:nonzero;"/>
        <path d="M21.41,84.276C21.41,84.1 21.314,84.004 21.154,84.004C21.122,84.004 21.074,84.004 21.026,84.02L17.554,84.932C17.41,84.964 17.346,85.092 17.346,85.22C17.346,85.364 17.426,85.492 17.602,85.492L19.458,85.492C19.698,85.492 19.874,85.524 19.874,85.812L19.874,89.828C19.874,91.156 19.474,91.492 17.938,91.668C17.762,91.684 17.682,91.844 17.682,91.988C17.682,92.132 17.746,92.244 17.89,92.244L23.442,92.244C23.57,92.244 23.65,92.132 23.65,92.004C23.65,91.86 23.554,91.7 23.394,91.668C21.682,91.428 21.41,91.156 21.41,89.812L21.41,84.276Z" style="fill:rgb(169,169,169);fill-rule:nonzero;"/>
        <path d="M35.922,89.476C37.538,89.092 38.786,87.908 38.786,86.436C38.786,84.516 37.298,83.908 35.954,83.908C34.45,83.908 32.93,84.724 32.93,85.284C32.93,85.444 33.042,85.604 33.234,85.604C33.314,85.604 33.41,85.572 33.522,85.508C34.082,85.172 34.626,85.028 35.314,85.028C36.482,85.028 37.234,85.652 37.234,86.676C37.234,87.988 36.13,88.98 34.162,89.188C33.922,89.204 33.794,89.364 33.794,89.54C33.794,89.716 33.938,89.892 34.242,89.924C36.594,90.132 37.362,91.092 37.362,92.548C37.362,94.02 36.466,95.124 34.642,95.124C33.426,95.124 33.138,94.852 32.77,94.852C32.61,94.852 32.466,94.948 32.466,95.156C32.466,95.62 33.874,96.036 35.266,96.036C37.394,96.036 39.09,94.676 39.09,92.644C39.09,91.028 37.938,89.78 35.922,89.476Z" style="fill:black;fill-rule:nonzero;"/>
        <path d="M51.89,89.476C53.506,89.092 54.754,87.908 54.754,86.436C54.754,84.516 53.266,83.908 51.922,83.908C50.418,83.908 48.898,84.724 48.898,85.284C48.898,85.444 49.01,85.604 49.202,85.604C49.282,85.604 49.378,85.572 49.49,85.508C50.05,85.172 50.594,85.028 51.282,85.028C52.45,85.028 53.202,85.652 53.202,86.676C53.202,87.988 52.098,88.98 50.13,89.188C49.89,89.204 49.762,89.364 49.762,89.54C49.762,89.716 49.906,89.892 50.21,89.924C52.562,90.132 53.33,91.092 53.33,92.548C53.33,94.02 52.434,95.124 50.61,95.124C49.394,95.124 49.106,94.852 48.738,94.852C48.578,94.852 48.434,94.948 48.434,95.156C48.434,95.62 49.842,96.036 51.234,96.036C53.362,96.036 55.058,94.676 55.058,92.644C55.058,91.028 53.906,89.78 51.89,89.476Z" style="fill:black;fill-rule:nonzero;"/>
        <path d="M68.422,84.276C68.422,84.1 68.326,84.004 68.166,84.004C68.134,84.004 68.086,84.004 68.038,84.02L64.566,84.932C64.422,84.964 64.358,85.092 64.358,85.22C64.358,85.364 64.438,85.492 64.614,85.492L66.47,85.492C66.71,85.492 66.886,85.524 66.886,85.812L66.886,89.828C66.886,91.156 66.486,91.492 64.95,91.668C64.774,91.684 64.694,91.844 64.694,91.988C64.694,92.132 64.758,92.244 64.902,92.244L70.454,92.244C70.582,92.244 70.662,92.132 70.662,92.004C70.662,91.86 70.566,91.7 70.406,91.668C68.694,91.428 68.422,91.156 68.422,89.812L68.422,84.276Z" style="fill:black;fill-rule:nonzero;"/>
        <path d="M10.554,107.276C10.554,107.1 10.458,107.004 10.298,107.004C10.266,107.004 10.218,107.004 10.17,107.02L6.698,107.932C6.554,107.964 6.49,108.092 6.49,108.22C6.49,108.364 6.57,108.492 6.746,108.492L8.602,108.492C8.842,108.492 9.018,108.524 9.018,108.812L9.018,112.828C9.018,114.156 8.618,114.492 7.082,114.668C6.906,114.684 6.826,114.844 6.826,114.988C6.826,115.132 6.89,115.244 7.034,115.244L12.586,115.244C12.714,115.244 12.794,115.132 12.794,115.004C12.794,114.86 12.698,114.7 12.538,114.668C10.826,114.428 10.554,114.156 10.554,112.812L10.554,107.276Z" style="fill:rgb(169,169,169);fill-rule:nonzero;"/>
        <path d="M28.346,107.404C28.346,107.084 28.186,106.956 28.01,106.956C27.882,106.956 27.738,107.036 27.642,107.148L22.026,114.188C21.882,114.364 21.802,114.54 21.802,114.668C21.802,114.812 21.898,114.892 22.122,114.892L26.826,114.892L26.826,118.46C26.826,118.636 26.874,118.716 27.05,118.716L28.122,118.716C28.298,118.716 28.346,118.588 28.346,118.46L28.346,114.892L29.578,114.892C29.69,114.892 29.77,114.86 29.834,114.7L30.09,114.076C30.17,113.852 30.106,113.788 29.978,113.788L28.346,113.788L28.346,107.404ZM23.37,113.788L26.826,109.436L26.826,113.788L23.37,113.788Z" style="fill:black;fill-rule:nonzero;"/>
        <path d="M43.338,108.876C45.418,108.876 46.682,109.916 46.682,111.98C46.682,113.644 45.786,114.652 44.522,114.652C42.938,114.652 41.738,113.052 41.738,110.476C41.738,106.7 44.714,104.284 47.738,103.324C47.882,103.276 48.01,103.196 48.01,103.02C48.01,102.828 47.866,102.652 47.642,102.652C47.61,102.652 47.578,102.652 47.514,102.668C42.57,103.9 39.978,107.612 39.978,110.86C39.978,113.596 41.594,115.404 44.282,115.404C46.634,115.404 48.394,113.948 48.394,111.628C48.394,109.42 46.666,108.124 44.586,108.124C44.186,108.124 43.066,108.204 43.066,108.62C43.066,108.764 43.162,108.876 43.338,108.876Z" style="fill:black;fill-rule:nonzero;"/>
        <path d="M64.33,107.404C64.33,107.084 64.17,106.956 63.994,106.956C63.866,106.956 63.722,107.036 63.626,107.148L58.01,114.188C57.866,114.364 57.786,114.54 57.786,114.668C57.786,114.812 57.882,114.892 58.106,114.892L62.81,114.892L62.81,118.46C62.81,118.636 62.858,118.716 63.034,118.716L64.106,118.716C64.282,118.716 64.33,118.588 64.33,118.46L64.33,114.892L65.562,114.892C65.674,114.892 65.754,114.86 65.818,114.7L66.074,114.076C66.154,113.852 66.09,113.788 65.962,113.788L64.33,113.788L64.33,107.404ZM59.354,113.788L62.81,109.436L62.81,113.788L59.354,113.788Z" style="fill:black;fill-rule:nonzero;"/>
        <path d="M79.278,107.276C79.278,107.1 79.182,107.004 79.022,107.004C78.99,107.004 78.942,107.004 78.894,107.02L75.422,107.932C75.278,107.964 75.214,108.092 75.214,108.22C75.214,108.364 75.294,108.492 75.47,108.492L77.326,108.492C77.566,108.492 77.742,108.524 77.742,108.812L77.742,112.828C77.742,114.156 77.342,114.492 75.806,114.668C75.63,114.684 75.55,114.844 75.55,114.988C75.55,115.132 75.614,115.244 75.758,115.244L81.31,115.244C81.438,115.244 81.518,115.132 81.518,115.004C81.518,114.86 81.422,114.7 81.262,114.668C79.55,114.428 79.278,114.156 79.278,112.812L79.278,107.276Z" style="fill:black;fill-rule:nonzero;"/>
    </g>
</svg>
