<?xml version="1.0" standalone="no"?>
<!DOCTYPE svg PUBLIC "-//W3C//DTD SVG 1.1//EN" "http://www.w3.org/Graphics/SVG/1.1/DTD/svg11.dtd">
<svg width="100%" height="100%" viewBox="0 0 774 774" version="1.1" xmlns="http://www.w3.org/2000/svg" xmlns:xlink="http://www.w3.org/1999/xlink" xml:space="preserve" style="fill-rule:evenodd;clip-rule:evenodd;stroke-linecap:round;stroke-linejoin:round;stroke-miterlimit:10;">
    <rect x="-421" y="4" width="1612" height="1132" style="fill:white;fill-rule:nonzero;"/>
    <path d="M4.197,684.315L731.251,684.315" style="fill:none;stroke-width:3px;stroke:black;"/>
    <g>
        <path d="M764.851,684.315L731.251,671.715L731.251,696.915L764.851,684.315Z" style="fill:black;fill-rule:nonzero;"/>
        <path d="M769.123,684.315L729.751,699.079L729.751,669.55L769.123,684.315ZM732.751,694.75L760.579,684.315L732.751,673.879L732.751,694.75Z" style="fill:black;"/>
    </g>
    <path d="M89.236,769.354L89.236,42.3" style="fill:none;stroke-width:3px;stroke:black;"/>
    <g>
        <path d="M89.236,8.7L76.636,42.3L101.836,42.3L89.236,8.7Z" style="fill:black;fill-rule:nonzero;"/>
        <path d="M104.001,43.8L74.472,43.8L89.236,4.428L104.001,43.8ZM78.801,40.8L99.672,40.8L89.236,12.972L78.801,40.8Z" style="fill:black;"/>
    </g>
    <path d="M230.968,670.142L230.968,698.488" style="fill:none;stroke-width:3px;stroke:black;"/>
    <path d="M372.701,670.142L372.701,698.488" style="fill:none;stroke-width:3px;stroke:black;"/>
    <path d="M514.433,670.142L514.433,698.488" style="fill:none;stroke-width:3px;stroke:black;"/>
    <path d="M103.409,542.583L75.063,542.583" style="fill:none;stroke-width:3px;stroke:black;"/>
    <path d="M103.409,400.85L75.063,400.85" style="fill:none;stroke-width:3px;stroke:black;"/>
    <path d="M103.409,259.118L75.063,259.118" style="fill:none;stroke-width:3px;stroke:black;"/>
    <path d="M103.409,117.386L75.063,117.386" style="fill:none;stroke-width:3px;stroke:black;"/>
    <path d="M656.165,670.142L656.165,698.488" style="fill:none;stroke-width:3px;stroke:black;"/>
    <rect x="230.969" y="259.118" width="425.197" height="283.59" style="fill:rgb(255,38,0);fill-opacity:0.501961;fill-rule:nonzero;"/>
    <path d="M326.03,305.789C331.565,311.324 331.565,320.298 326.03,325.833C320.495,331.368 311.521,331.368 305.986,325.833C300.451,320.298 300.451,311.324 305.986,305.789C311.521,300.254 320.495,300.254 326.03,305.789" style="fill:black;fill-rule:nonzero;"/>
    <rect x="372.701" y="400.85" width="141.732" height="141.732" style="fill:rgb(4,51,255);fill-opacity:0.501961;fill-rule:nonzero;"/>
    <path d="M496.109,419.175C501.644,424.71 501.644,433.684 496.109,439.219C490.574,444.754 481.6,444.754 476.065,439.219C470.53,433.684 470.53,424.71 476.065,419.175C481.6,413.64 490.574,413.64 496.109,419.175" style="fill:black;fill-rule:nonzero;"/>
    <g>
        <path d="M711.446,661.149L711.446,663.939C716.228,663.74 720.712,663.64 724.896,663.64C728.881,663.64 733.365,663.74 738.147,663.939L738.147,661.149L735.656,660.95C731.571,660.651 730.276,659.954 728.881,657.563L711.845,626.976L733.863,601.869C736.852,598.582 737.748,597.984 740.339,597.685L743.128,597.486L743.128,594.696L731.771,594.995C730.575,594.995 729.18,594.995 720.313,594.696L720.313,597.486L723.601,597.685C726.789,597.884 728.084,598.382 728.084,599.578C728.084,600.674 727.586,601.571 725.793,603.762L709.752,623.29L699.391,603.463C698.494,601.67 697.996,600.475 697.996,599.678C697.996,598.482 699.291,597.884 702.28,597.685L705.966,597.486L705.966,594.696L701.383,594.796C697.299,594.895 694.31,594.995 692.716,594.995C691.022,594.995 688.033,594.895 683.948,594.796L679.465,594.696L679.465,597.486L682.055,597.685C686.937,598.183 688.133,598.881 690.125,602.567L704.671,629.467L680.959,657.563C679.465,659.356 677.173,660.551 674.782,660.85L671.993,661.149L671.993,663.939C676.874,663.74 680.959,663.64 684.446,663.64C688.033,663.64 692.018,663.74 696.302,663.939L696.302,661.149L693.114,660.85C689.328,660.452 687.635,659.854 687.635,658.659C687.635,657.861 688.033,656.965 688.631,656.168L706.763,633.153L718.619,655.67C719.516,657.463 720.014,658.758 720.014,659.655C720.014,660.452 719.317,660.751 716.826,660.751L715.232,660.85L711.446,661.149Z" style="fill:black;fill-rule:nonzero;"/>
    </g>
    <path d="M120.181,24.179L120.48,26.571C122.771,25.674 123.867,25.375 124.963,25.375C129.646,25.375 133.232,29.958 137.317,41.116C139.708,47.792 143.594,61.441 143.494,63.035C143.494,63.035 143.494,63.334 143.395,63.633L141.302,76.186C139.609,85.253 139.509,85.551 135.524,85.85L130.742,86.149L130.343,88.939L135.623,88.839C140.306,88.74 142.598,88.64 144.192,88.64L153.856,88.939L156.446,88.939L156.745,86.149L151.863,85.85C149.173,85.651 148.276,84.954 148.276,82.961C148.276,82.363 148.376,81.367 148.476,80.869L151.066,64.131C151.963,58.651 158.439,46.895 165.811,37.629C171.59,30.257 175.774,27.268 181.652,26.272L182.25,19.198C174.977,21.091 169.697,25.275 162.225,35.238C156.147,43.607 152.262,50.382 149.472,57.755C142,27.268 137.217,18.5 128.052,18.401C127.753,18.7 123.967,21.689 121.675,23.083L120.181,24.179Z" style="fill:black;fill-rule:nonzero;"/>
    <path d="M291,367.595L288.11,380.248C287.712,381.942 287.513,383.736 287.513,385.33C287.513,387.521 288.409,388.817 289.904,388.817C292.195,388.817 296.28,386.226 304.45,379.451L303.752,377.359C301.361,379.352 298.472,382.042 296.28,382.042C295.383,382.042 294.786,381.145 294.786,379.75C294.786,379.252 294.786,378.953 294.885,378.654L304.051,340.895L303.055,339.998L299.767,341.791C295.682,340.297 293.989,339.898 291.299,339.898C288.509,339.898 286.516,340.396 283.826,341.692C277.649,344.78 274.362,347.769 271.871,352.651C267.487,361.518 264.399,373.474 264.399,381.245C264.399,385.629 265.893,389.016 267.786,389.016C271.472,389.016 279.443,383.835 291,367.595ZM295.782,346.673C293.59,357.533 291.697,362.714 288.31,367.894C282.631,376.263 276.553,382.042 273.365,382.042C272.17,382.042 271.572,380.747 271.572,378.057C271.572,371.68 274.362,360.024 277.849,352.053C280.24,346.574 282.531,344.78 287.313,344.78C289.605,344.78 291.398,345.179 295.782,346.673Z" style="fill:black;fill-rule:nonzero;"/>
    <g>
        <clipPath id="_clip1">
            <rect x="666.543" y="361.165" width="86" height="70"/>
        </clipPath>
        <g clip-path="url(#_clip1)">
            <path d="M701.369,430.939L701.369,427.95L697.682,427.751C694.594,427.551 692.8,426.954 692.8,424.861C692.8,423.267 695.49,416.592 696.387,414.5L699.177,407.825L727.87,407.825L732.453,419.282C733.45,421.673 734.545,424.264 734.545,425.758C734.545,426.854 732.652,427.651 730.461,427.751L725.778,427.95L725.778,430.939C731.158,430.839 735.542,430.64 739.029,430.64C743.512,430.64 747.896,430.839 752.28,430.939L752.28,427.95L748.892,427.751C747.398,427.651 745.505,426.854 741.719,417.489L717.608,360.899L703.461,360.899C700.771,368.072 697.383,375.445 694.295,382.419L676.561,422.769C675.465,425.26 673.572,427.651 671.181,427.751L667.494,427.95L667.494,430.939C673.871,430.74 680.347,430.54 683.535,430.54C687.122,430.54 697.782,430.839 701.369,430.939ZM726.077,403.84L700.771,403.84L713.524,374.15L726.077,403.84ZM713.424,363.589L687.52,422.769C686.623,424.861 685.229,426.655 683.435,427.352C681.841,427.053 680.845,426.356 680.845,424.861C680.845,423.267 683.535,416.592 684.432,414.5L706.251,363.589L713.424,363.589Z" style="fill:rgb(255,147,138);fill-rule:nonzero;"/>
        </g>
    </g>
    <path d="M473.239,604.024C473.239,592.367 463.376,588.183 453.214,587.884L453.214,587.685C461.383,586.389 469.852,580.511 469.852,571.445C469.852,560.884 461.284,557.497 452.018,557.696C444.147,557.796 438.568,557.995 432.789,557.995L418.443,557.995C414.059,557.995 409.177,557.796 405.59,557.696L405.59,560.685L409.874,560.984C414.059,561.283 415.055,562.08 415.055,569.951L415.055,614.684C415.055,622.555 414.059,623.551 409.874,623.751L405.59,623.95L405.59,626.939C410.273,626.74 417.147,626.74 422.328,626.64L433.188,626.64C436.775,626.64 440.361,626.839 444.048,626.939C465.867,627.537 473.239,613.788 473.239,604.024ZM459.988,573.438C459.988,583.301 452.317,586.888 443.649,586.888C440.66,586.888 438.369,586.788 436.575,586.688L436.575,562.478C439.365,561.781 442.254,561.681 444.944,561.681C453.313,561.681 459.988,563.973 459.988,573.438ZM462.977,605.817C462.977,616.378 456.003,622.754 444.944,622.754C442.254,622.754 439.365,622.655 436.575,621.957L436.575,590.574C438.369,590.474 440.461,590.375 443.251,590.375C456.003,590.375 462.977,594.758 462.977,605.817ZM427.11,615.083C427.11,622.356 426.612,623.551 423.823,623.95C420.236,623.551 419.638,622.754 419.638,615.083L419.638,569.951C419.638,562.678 420.136,561.382 422.826,561.083C426.612,561.482 427.11,562.478 427.11,569.951L427.11,615.083Z" style="fill:rgb(134,156,255);fill-rule:nonzero;"/>
    <path d="M451.567,426.947L450.371,425.851C445.191,428.442 441.604,429.338 434.431,430.036L434.032,432.128L438.814,432.128C441.206,432.128 442.202,432.825 442.202,434.519C442.202,435.216 442.102,436.312 442.003,436.91L431.94,491.806C431.84,492.105 431.84,492.504 431.84,492.803C431.84,496.688 436.623,499.976 442.102,499.976C445.789,499.976 450.87,498.083 455.154,494.994C464.718,488.22 471.294,474.57 471.294,461.419C471.294,457.633 470.397,453.748 469.202,452.253C468.504,451.356 467.209,450.858 465.715,450.858C463.323,450.858 460.334,451.655 457.545,453.05C452.464,455.74 449.176,458.729 442.999,466.6L451.567,426.947ZM460.235,456.637C462.825,456.637 464.12,458.928 464.12,463.81C464.12,470.187 462.028,478.755 459.039,485.231C455.752,492.105 451.766,495.293 446.386,495.293C441.803,495.293 439.313,493.002 439.313,488.817C439.313,485.43 440.807,471.382 448.877,462.914C452.165,459.526 457.346,456.637 460.235,456.637Z" style="fill:black;fill-rule:nonzero;"/>
    <g>
        <clipPath id="_clip2">
            <rect x="223.307" y="712.661" width="19" height="36"/>
        </clipPath>
        <g clip-path="url(#_clip2)">
            <path d="M241.293,748.969L241.293,747.475L238.702,747.326C235.962,747.176 235.464,746.628 235.464,744.038L235.464,713.95L223.459,719.031L223.808,721.521L231.28,718.234L231.28,744.038C231.28,746.628 230.732,747.176 228.042,747.326L225.252,747.475L225.252,748.969C232.924,748.82 232.924,748.82 233.472,748.82C235.016,748.82 240.496,748.969 241.293,748.969Z" style="fill:black;fill-rule:nonzero;"/>
        </g>
    </g>
    <g>
        <clipPath id="_clip3">
            <rect x="50.394" y="522.74" width="19" height="36"/>
        </clipPath>
        <g clip-path="url(#_clip3)">
            <path d="M68.293,558.969L68.293,557.475L65.702,557.326C62.962,557.176 62.464,556.628 62.464,554.038L62.464,523.949L50.459,529.031L50.808,531.521L58.28,528.234L58.28,554.038C58.28,556.628 57.732,557.176 55.042,557.326L52.252,557.475L52.252,558.969C59.924,558.82 59.924,558.82 60.472,558.82C62.016,558.82 67.496,558.969 68.293,558.969Z" style="fill:black;fill-rule:nonzero;"/>
        </g>
    </g>
    <g>
        <clipPath id="_clip4">
            <rect x="363.874" y="712.661" width="23" height="35"/>
        </clipPath>
        <g clip-path="url(#_clip4)">
            <path d="M364.267,746.674L364.267,747.969C373.582,747.969 373.582,747.82 375.376,747.82C377.169,747.82 377.169,747.969 386.783,747.969L386.783,743.735C381.055,743.984 378.763,743.785 369.547,743.984L378.614,734.37C383.446,729.239 384.94,726.499 384.94,722.763C384.94,717.034 381.055,713.497 374.728,713.497C371.142,713.497 368.701,714.494 366.26,716.985L365.413,723.759L366.857,723.759L367.505,721.468C368.302,718.579 370.095,717.333 373.433,717.333C377.717,717.333 380.457,720.023 380.457,724.258C380.457,727.994 378.365,731.68 372.736,737.658L364.267,746.674Z" style="fill:black;fill-rule:nonzero;"/>
        </g>
    </g>
    <g>
        <clipPath id="_clip5">
            <rect x="46.394" y="381.008" width="23" height="35"/>
        </clipPath>
        <g clip-path="url(#_clip5)">
            <path d="M46.267,414.674L46.267,415.969C55.582,415.969 55.582,415.82 57.376,415.82C59.169,415.82 59.169,415.969 68.783,415.969L68.783,411.735C63.055,411.984 60.763,411.785 51.547,411.984L60.614,402.37C65.446,397.239 66.94,394.499 66.94,390.763C66.94,385.034 63.055,381.497 56.728,381.497C53.142,381.497 50.701,382.494 48.26,384.985L47.413,391.759L48.857,391.759L49.505,389.468C50.302,386.579 52.095,385.333 55.433,385.333C59.717,385.333 62.457,388.023 62.457,392.258C62.457,395.994 60.365,399.68 54.736,405.658L46.267,414.674Z" style="fill:black;fill-rule:nonzero;"/>
        </g>
    </g>
    <path d="M525.485,736.851C525.485,730.824 520.154,729.778 517.813,729.379C521.798,726.291 523.293,723.999 523.293,721.06C523.293,716.627 519.606,713.687 514.077,713.687C510.689,713.687 508.448,714.634 506.057,717.025L504.612,723.202L506.156,723.202L507.053,720.412C507.601,718.719 510.739,717.025 513.33,717.025C516.568,717.025 519.208,719.665 519.208,722.804C519.208,726.54 516.269,729.678 512.732,729.678C512.333,729.678 511.785,729.628 511.138,729.578L510.391,729.529L509.793,732.169L510.142,732.468C512.034,731.621 512.981,731.372 514.326,731.372C518.461,731.372 520.852,734.012 520.852,738.545C520.852,743.626 517.813,746.964 513.18,746.964C510.889,746.964 508.846,746.217 507.352,744.822C506.156,743.726 505.509,742.58 504.562,739.89L503.217,740.388C504.263,743.427 504.662,745.22 504.961,747.711C507.601,748.608 509.793,749.006 511.636,749.006C517.763,749.006 525.485,743.676 525.485,736.851Z" style="fill:black;fill-rule:nonzero;"/>
    <path d="M69.485,260.851C69.485,254.824 64.154,253.778 61.813,253.379C65.798,250.291 67.293,247.999 67.293,245.06C67.293,240.627 63.606,237.687 58.077,237.687C54.689,237.687 52.448,238.634 50.057,241.025L48.612,247.202L50.156,247.202L51.053,244.412C51.601,242.719 54.739,241.025 57.33,241.025C60.568,241.025 63.208,243.665 63.208,246.804C63.208,250.54 60.269,253.678 56.732,253.678C56.333,253.678 55.785,253.628 55.138,253.578L54.391,253.529L53.793,256.169L54.142,256.468C56.034,255.621 56.981,255.372 58.326,255.372C62.461,255.372 64.852,258.012 64.852,262.545C64.852,267.626 61.813,270.964 57.18,270.964C54.889,270.964 52.846,270.217 51.352,268.822C50.156,267.726 49.509,266.58 48.562,263.89L47.217,264.388C48.263,267.427 48.662,269.22 48.961,271.711C51.601,272.608 53.793,273.006 55.636,273.006C61.763,273.006 69.485,267.676 69.485,260.851Z" style="fill:black;fill-rule:nonzero;"/>
    <path d="M659.418,738.803L659.418,742.54C659.418,745.529 658.87,746.226 656.429,746.326L653.341,746.475L653.341,747.969C659.966,747.82 659.966,747.82 661.162,747.82C662.357,747.82 662.357,747.82 668.983,747.969L668.983,746.475L666.592,746.326C664.151,746.176 663.603,745.529 663.603,742.54L663.603,738.803C666.542,738.803 667.588,738.853 668.983,739.003L668.983,735.466L663.603,735.615L663.652,713.099L659.667,714.593L645.57,737.658L645.57,738.803L659.418,738.803ZM659.418,735.615L648.708,735.615L659.418,718.08L659.418,735.615Z" style="fill:black;fill-rule:nonzero;"/>
    <path d="M61.418,124.803L61.418,128.54C61.418,131.529 60.87,132.226 58.429,132.326L55.341,132.475L55.341,133.969C61.966,133.82 61.966,133.82 63.162,133.82C64.357,133.82 64.357,133.82 70.983,133.969L70.983,132.475L68.592,132.326C66.151,132.176 65.603,131.529 65.603,128.54L65.603,124.803C68.542,124.803 69.588,124.853 70.983,125.003L70.983,121.466L65.603,121.615L65.652,99.099L61.667,100.593L47.57,123.658L47.57,124.803L61.418,124.803ZM61.418,121.615L50.708,121.615L61.418,104.08L61.418,121.615Z" style="fill:black;fill-rule:nonzero;"/>
</svg>
