<?xml version="1.0" standalone="no"?>
<!DOCTYPE svg PUBLIC "-//W3C//DTD SVG 1.1//EN" "http://www.w3.org/Graphics/SVG/1.1/DTD/svg11.dtd">
<svg width="100%" height="100%" viewBox="0 0 1192 998" version="1.1" xmlns="http://www.w3.org/2000/svg" xmlns:xlink="http://www.w3.org/1999/xlink" xml:space="preserve" style="fill-rule:evenodd;clip-rule:evenodd;stroke-linecap:round;stroke-linejoin:round;stroke-miterlimit:10;">
    <rect x="-220" y="163" width="1612" height="1132" style="fill:white;fill-rule:nonzero;"/>
    <path d="M597.896,308.884C603.431,314.419 603.431,323.393 597.896,328.928C592.361,334.463 583.387,334.463 577.852,328.928C572.317,323.393 572.317,314.419 577.852,308.884C583.387,303.349 592.361,303.349 597.896,308.884" style="fill:black;fill-rule:nonzero;"/>
    <path d="M293.071,701.583L935.086,701.583" style="fill:none;stroke-width:3px;stroke:black;"/>
    <g>
        <path d="M968.686,701.583L935.086,688.983L935.086,714.183L968.686,701.583Z" style="fill:black;fill-rule:nonzero;"/>
        <path d="M972.958,701.583L933.586,716.347L933.586,686.818L972.958,701.583ZM936.586,712.018L964.414,701.583L936.586,691.147L936.586,712.018Z" style="fill:black;"/>
    </g>
    <path d="M293.071,701.583L293.071,56.733" style="fill:none;stroke-width:3px;stroke:black;"/>
    <g>
        <path d="M293.071,23.133L280.471,56.733L305.671,56.733L293.071,23.133Z" style="fill:black;fill-rule:nonzero;"/>
        <path d="M307.835,58.233L278.306,58.233L293.071,18.861L307.835,58.233ZM282.635,55.233L303.506,55.233L293.071,27.405L282.635,55.233Z" style="fill:black;"/>
    </g>
    <path d="M293.071,701.583L42.358,952.296" style="fill:none;stroke-width:3px;stroke:black;"/>
    <g>
        <path d="M18.599,976.055L51.267,961.205L33.448,943.386L18.599,976.055Z" style="fill:black;fill-rule:nonzero;"/>
        <path d="M53.859,961.675L15.578,979.075L32.978,940.795L53.859,961.675ZM21.62,973.034L48.676,960.735L33.918,945.977L21.62,973.034Z" style="fill:black;"/>
    </g>
    <path d="M587.874,333.079L587.874,900.008" style="fill:none;stroke-width:3px;stroke-dasharray:3,12;stroke:black;"/>
    <path d="M94.646,900.008L587.874,900.008" style="fill:none;stroke-width:3px;stroke-dasharray:3,12;stroke:black;"/>
    <path d="M91.811,318.905L585.039,318.905" style="fill:none;stroke-width:3px;stroke-dasharray:3,12;stroke:black;"/>
    <path d="M90.698,318.905L90.698,900.008" style="fill:none;stroke-width:3px;stroke-dasharray:3,12;stroke:black;"/>
    <path d="M790.247,119.48L790.247,700.583" style="fill:none;stroke-width:3px;stroke-dasharray:3,12;stroke:black;"/>
    <path d="M294.184,119.48L787.412,119.48" style="fill:none;stroke-width:3px;stroke-dasharray:3,12;stroke:black;"/>
    <path d="M597.969,308.957L790.247,119.48" style="fill:none;stroke-width:3px;stroke-dasharray:3,12;stroke:black;"/>
    <path d="M91.811,318.905L294.184,119.48" style="fill:none;stroke-width:3px;stroke-dasharray:3,12;stroke:black;"/>
    <path d="M587.874,900.008L790.247,700.583" style="fill:none;stroke-width:3px;stroke-dasharray:3,12;stroke:black;"/>
    <g>
        <path d="M625.188,392.962C630.768,392.962 642.225,385.689 646.509,379.412C650.594,373.335 653.981,362.376 653.981,354.903C653.981,348.228 651.69,343.844 648.103,343.844C643.919,343.844 638.638,346.435 633.458,351.117C629.373,354.604 627.38,357.195 623.794,363.073L626.185,351.217C626.484,349.523 626.683,348.029 626.683,346.833C626.683,344.94 625.886,343.844 624.491,343.844C622.399,343.844 618.613,345.937 611.24,351.217L608.451,353.21L609.148,355.202L612.336,353.11C615.126,351.317 616.222,350.818 617.118,350.818C618.115,350.818 618.812,351.715 618.812,353.11C618.812,353.907 618.613,355.9 618.414,356.896L612.635,391.069C611.639,397.047 609.746,406.113 607.753,415.08L606.956,418.766L607.654,419.364C609.746,418.666 611.738,418.168 614.926,417.67L619.111,391.567C621.203,392.265 623.395,392.962 625.188,392.962ZM621.901,375.427C624.092,362.674 634.753,349.623 643.022,349.623C645.613,349.623 646.808,351.815 646.808,356.398C646.808,364.468 642.823,376.324 637.543,383.896C635.55,386.785 632.362,388.279 628.277,388.279C625.188,388.279 622.698,387.582 620.107,385.988L621.901,375.427Z" style="fill:black;fill-rule:nonzero;"/>
        <path d="M745.249,357.294L745.249,351.416L691.548,351.416L691.548,357.294L745.249,357.294ZM745.249,378.516L745.249,372.637L691.548,372.637L691.548,378.516L745.249,378.516Z" style="fill:black;fill-rule:nonzero;"/>
        <path d="M793.708,365.364C793.708,339.461 803.372,328.9 809.15,322.125L807.257,319.535C801.578,324.616 785.139,337.867 785.139,365.364C785.139,376.025 787.63,386.087 792.412,395.054C795.9,401.729 799.088,405.615 807.257,413.286L809.15,411.194C804.567,405.515 793.708,393.36 793.708,365.364Z" style="fill:black;fill-rule:nonzero;"/>
        <path d="M829.774,392.962C835.353,392.962 846.81,385.689 851.095,379.412C855.179,373.335 858.567,362.376 858.567,354.903C858.567,348.228 856.275,343.844 852.689,343.844C848.504,343.844 843.224,346.435 838.043,351.117C833.958,354.604 831.966,357.195 828.379,363.073L830.77,351.217C831.069,349.523 831.268,348.029 831.268,346.833C831.268,344.94 830.471,343.844 829.076,343.844C826.984,343.844 823.198,345.937 815.826,351.217L813.036,353.21L813.733,355.202L816.921,353.11C819.711,351.317 820.807,350.818 821.704,350.818C822.7,350.818 823.397,351.715 823.397,353.11C823.397,353.907 823.198,355.9 822.999,356.896L817.22,391.069C816.224,397.047 814.331,406.113 812.338,415.08L811.541,418.766L812.239,419.364C814.331,418.666 816.324,418.168 819.512,417.67L823.696,391.567C825.789,392.265 827.98,392.962 829.774,392.962ZM826.486,375.427C828.678,362.674 839.338,349.623 847.607,349.623C850.198,349.623 851.393,351.815 851.393,356.398C851.393,364.468 847.408,376.324 842.128,383.896C840.135,386.785 836.947,388.279 832.862,388.279C829.774,388.279 827.283,387.582 824.693,385.988L826.486,375.427Z" style="fill:black;fill-rule:nonzero;"/>
        <path d="M862.709,412.793C863.8,413.375 864.963,413.666 865.836,413.666C868.236,413.666 871.073,411.557 873.327,408.139L878.855,399.629L879.655,404.648C880.6,410.83 882.273,413.666 884.891,413.666C886.491,413.666 888.819,412.43 891.146,410.32L894.71,407.12L894.055,405.738C891.437,407.92 889.619,409.011 888.455,409.011C887.364,409.011 886.419,408.284 885.691,406.829C885.037,405.448 884.237,402.757 883.873,400.647L882.564,393.302L885.11,389.738C888.528,385.01 890.492,383.338 892.746,383.338C893.91,383.338 894.783,383.919 895.146,385.01L896.165,384.719L897.256,378.537C896.383,378.028 895.728,377.81 895.074,377.81C892.164,377.81 889.255,380.428 884.746,387.12L882.055,391.12L881.619,387.629C880.746,380.428 878.782,377.81 874.491,377.81C872.6,377.81 871,378.392 870.345,379.337L866.127,385.374L867.364,386.101C869.545,383.629 871,382.61 872.382,382.61C874.782,382.61 876.382,385.592 877.618,392.72L878.418,397.229L875.509,401.738C872.382,406.611 869.909,408.939 867.873,408.939C866.782,408.939 865.982,408.648 865.836,408.284L865.036,406.248L863.582,406.466C863.582,409.011 863,410.902 862.709,412.793Z" style="fill:black;fill-rule:nonzero;"/>
        <path d="M923.671,379.612C920.981,380.508 919.188,381.106 913.907,382.6C913.21,390.172 910.719,396.648 904.941,406.213L906.335,407.309L910.42,405.416C918.49,394.955 922.276,388.678 925.066,381.006L923.671,379.612Z" style="fill:black;fill-rule:nonzero;"/>
        <path d="M962.239,392.962C967.819,392.962 979.276,385.689 983.56,379.412C987.645,373.335 991.032,362.376 991.032,354.903C991.032,348.228 988.741,343.844 985.154,343.844C980.97,343.844 975.689,346.435 970.509,351.117C966.424,354.604 964.431,357.195 960.844,363.073L963.236,351.217C963.534,349.523 963.734,348.029 963.734,346.833C963.734,344.94 962.937,343.844 961.542,343.844C959.45,343.844 955.664,345.937 948.291,351.217L945.501,353.21L946.199,355.202L949.387,353.11C952.177,351.317 953.273,350.818 954.169,350.818C955.166,350.818 955.863,351.715 955.863,353.11C955.863,353.907 955.664,355.9 955.464,356.896L949.686,391.069C948.69,397.047 946.797,406.113 944.804,415.08L944.007,418.766L944.704,419.364C946.797,418.666 948.789,418.168 951.977,417.67L956.162,391.567C958.254,392.265 960.446,392.962 962.239,392.962ZM958.951,375.427C961.143,362.674 971.804,349.623 980.073,349.623C982.663,349.623 983.859,351.815 983.859,356.398C983.859,364.468 979.874,376.324 974.593,383.896C972.601,386.785 969.413,388.279 965.328,388.279C962.239,388.279 959.748,387.582 957.158,385.988L958.951,375.427Z" style="fill:black;fill-rule:nonzero;"/>
        <path d="M993.911,425.957C993.838,426.467 993.838,426.903 993.838,427.267C993.838,430.394 996.529,432.939 999.802,432.939C1007.51,432.939 1015.51,423.921 1019.8,410.466L1030.06,378.465L1029.26,377.81C1027.15,378.61 1025.47,379.047 1023.88,379.192L1021.33,388.792C1020.46,392.211 1017.91,397.52 1015.51,401.084C1012.97,404.793 1009.4,407.993 1007.8,407.993C1006.93,407.993 1006.27,406.32 1006.35,404.502L1007.51,389.447C1007.66,387.192 1007.8,384.429 1007.8,382.392C1007.8,379.119 1007.29,377.81 1006.06,377.81C1005.11,377.81 1004.09,378.319 1000.6,380.719L994.638,384.792L995.438,386.101L999.074,383.919C999.438,383.701 1000.24,383.047 1000.89,383.047C1001.91,383.047 1002.49,384.429 1002.49,386.829C1002.49,386.901 1002.49,387.338 1002.42,387.92L1001.18,405.593L1001.11,408.502C1001.11,411.557 1002.42,413.666 1004.24,413.666C1006.93,413.666 1013.04,407.484 1018.49,399.265L1014.93,411.702C1011.22,424.576 1007.58,429.885 1002.49,429.885C999.947,429.885 997.983,427.921 997.983,425.376C997.983,425.012 998.056,424.43 998.129,423.776L997.402,423.485L993.911,425.957Z" style="fill:black;fill-rule:nonzero;"/>
        <path d="M1056.04,379.612C1053.35,380.508 1051.55,381.106 1046.27,382.6C1045.58,390.172 1043.09,396.648 1037.31,406.213L1038.7,407.309L1042.79,405.416C1050.86,394.955 1054.64,388.678 1057.43,381.006L1056.04,379.612Z" style="fill:black;fill-rule:nonzero;"/>
        <path d="M1094.65,392.962C1100.23,392.962 1111.69,385.689 1115.98,379.412C1120.06,373.335 1123.45,362.376 1123.45,354.903C1123.45,348.228 1121.16,343.844 1117.57,343.844C1113.38,343.844 1108.11,346.435 1102.92,351.117C1098.84,354.604 1096.85,357.195 1093.26,363.073L1095.65,351.217C1095.95,349.523 1096.15,348.029 1096.15,346.833C1096.15,344.94 1095.35,343.844 1093.96,343.844C1091.87,343.844 1088.08,345.937 1080.71,351.217L1077.92,353.21L1078.61,355.202L1081.8,353.11C1084.59,351.317 1085.69,350.818 1086.59,350.818C1087.58,350.818 1088.28,351.715 1088.28,353.11C1088.28,353.907 1088.08,355.9 1087.88,356.896L1082.1,391.069C1081.11,397.047 1079.21,406.113 1077.22,415.08L1076.42,418.766L1077.12,419.364C1079.21,418.666 1081.2,418.168 1084.39,417.67L1088.58,391.567C1090.67,392.265 1092.86,392.962 1094.65,392.962ZM1091.37,375.427C1093.56,362.674 1104.22,349.623 1112.49,349.623C1115.08,349.623 1116.27,351.815 1116.27,356.398C1116.27,364.468 1112.29,376.324 1107.01,383.896C1105.02,386.785 1101.83,388.279 1097.74,388.279C1094.65,388.279 1092.16,387.582 1089.57,385.988L1091.37,375.427Z" style="fill:black;fill-rule:nonzero;"/>
        <path d="M1150.25,413.666C1151.13,413.666 1151.78,413.521 1153.89,412.939C1154.69,408.429 1155.27,405.957 1156.07,402.538L1154.47,402.538L1152.87,406.902C1152.44,408.211 1151.56,408.72 1150.04,408.72C1149.16,408.72 1148,408.575 1146.47,408.211L1145.16,407.92C1142.76,407.411 1140.29,407.048 1138.91,407.048C1136.58,407.048 1134.62,407.484 1132,408.575L1156.65,380.792L1157.09,378.465L1156.44,377.81L1154.76,379.483C1154.04,380.21 1153.31,380.501 1152.29,380.501C1149.82,380.501 1146.04,379.919 1142.55,378.974L1141.24,378.61C1139.2,378.101 1137.75,377.81 1136.73,377.81C1135.49,377.81 1134.04,378.028 1132.29,378.537L1129.96,387.411L1131.49,387.411L1133.67,383.192C1134.91,382.901 1135.56,382.829 1136.51,382.829C1139.49,382.829 1141.82,383.919 1145.67,383.919C1148.29,383.919 1150.04,383.483 1152.44,382.247L1126.76,411.339L1127.42,413.302C1129.53,411.63 1131.49,410.975 1134.04,410.975C1138.62,410.975 1145.24,413.666 1150.25,413.666Z" style="fill:black;fill-rule:nonzero;"/>
        <path d="M1169.14,319.535L1167.24,322.125C1172.72,328.501 1182.68,339.461 1182.68,365.364C1182.68,392.862 1172.32,404.918 1167.24,411.194L1169.14,413.286C1174.42,408.305 1191.25,394.157 1191.25,365.464C1191.25,337.867 1174.82,324.616 1169.14,319.535Z" style="fill:black;fill-rule:nonzero;"/>
    </g>
    <g>
        <path d="M897.446,686.149L897.446,688.939C902.228,688.74 906.712,688.64 910.896,688.64C914.881,688.64 919.365,688.74 924.147,688.939L924.147,686.149L921.656,685.95C917.571,685.651 916.276,684.954 914.881,682.563L897.845,651.976L919.863,626.869C922.852,623.582 923.748,622.984 926.339,622.685L929.128,622.486L929.128,619.696L917.771,619.995C916.575,619.995 915.18,619.995 906.313,619.696L906.313,622.486L909.601,622.685C912.789,622.884 914.084,623.382 914.084,624.578C914.084,625.674 913.586,626.571 911.793,628.762L895.752,648.29L885.391,628.463C884.494,626.67 883.996,625.475 883.996,624.678C883.996,623.482 885.291,622.884 888.28,622.685L891.966,622.486L891.966,619.696L887.383,619.796C883.299,619.895 880.31,619.995 878.716,619.995C877.022,619.995 874.033,619.895 869.948,619.796L865.465,619.696L865.465,622.486L868.055,622.685C872.937,623.183 874.133,623.881 876.125,627.567L890.671,654.467L866.959,682.563C865.465,684.356 863.173,685.551 860.782,685.85L857.993,686.149L857.993,688.939C862.874,688.74 866.959,688.64 870.446,688.64C874.033,688.64 878.018,688.74 882.302,688.939L882.302,686.149L879.114,685.85C875.328,685.452 873.635,684.854 873.635,683.659C873.635,682.861 874.033,681.965 874.631,681.168L892.763,658.153L904.619,680.67C905.516,682.463 906.014,683.758 906.014,684.655C906.014,685.452 905.317,685.751 902.826,685.751L901.232,685.85L897.446,686.149Z" style="fill:black;fill-rule:nonzero;"/>
    </g>
    <g>
        <clipPath id="_clip1">
            <rect x="0.465" y="848.85" width="63" height="71"/>
        </clipPath>
        <g clip-path="url(#_clip1)">
            <path d="M0.181,855.179L0.48,857.571C2.771,856.674 3.867,856.375 4.963,856.375C9.646,856.375 13.232,860.958 17.317,872.116C19.708,878.792 23.594,892.441 23.494,894.035C23.494,894.035 23.494,894.334 23.395,894.633L21.302,907.186C19.609,916.253 19.509,916.551 15.524,916.85L10.742,917.149L10.343,919.939L15.623,919.839C20.306,919.74 22.598,919.64 24.192,919.64L33.856,919.939L36.446,919.939L36.745,917.149L31.863,916.85C29.173,916.651 28.276,915.954 28.276,913.961C28.276,913.363 28.376,912.367 28.476,911.869L31.066,895.131C31.963,889.651 38.439,877.895 45.811,868.629C51.59,861.257 55.774,858.268 61.652,857.272L62.25,850.198C54.977,852.091 49.697,856.275 42.225,866.238C36.147,874.607 32.262,881.382 29.472,888.755C22,858.268 17.217,849.5 8.052,849.401C7.753,849.7 3.967,852.689 1.675,854.083L0.181,855.179Z" style="fill:black;fill-rule:nonzero;"/>
        </g>
    </g>
    <g>
        <clipPath id="_clip2">
            <rect x="312.913" y="27.803" width="63" height="70"/>
        </clipPath>
        <g clip-path="url(#_clip2)">
            <path d="M313.993,97.939C323.557,97.74 329.336,97.64 338.003,97.64C345.775,97.64 357.431,97.74 363.509,97.839L370.084,97.939C370.284,93.854 371.081,88.175 372.376,81.301L369.785,81.301L369.088,83.493L365.9,92.459C361.416,93.356 357.631,93.754 353.247,93.754L325.251,93.754L375.464,30.689L375.464,28.696L359.324,28.995L356.734,28.995L323.956,28.696C323.956,33.379 323.657,37.264 322.86,44.537L325.45,44.537C325.749,42.345 326.347,39.855 327.542,35.969L328.14,33.976C333.719,32.98 337.505,32.681 346.073,32.681L364.007,32.681L313.993,95.747L313.993,97.939Z" style="fill:black;fill-rule:nonzero;"/>
        </g>
    </g>
    <path d="M280.523,670.867C280.523,653.133 270.162,642.871 252.228,642.871C228.616,642.871 211.28,661.104 211.28,686.111C211.28,704.941 220.646,715.003 238.18,715.003C265.28,715.003 280.523,692.587 280.523,670.867ZM271.756,672.461C271.756,691.192 262.889,710.819 241.867,710.819C227.52,710.819 220.048,702.251 220.048,685.612C220.048,670.867 225.826,647.056 249.14,647.056C260.697,647.056 271.756,652.436 271.756,672.461Z" style="fill:black;fill-rule:nonzero;"/>
    <path d="M293.071,701.583L544.499,375.21" style="fill:none;stroke-width:6px;stroke:black;"/>
    <g>
        <path d="M573.792,337.185L530.239,364.225L558.758,386.195L573.792,337.185Z" style="fill:black;fill-rule:nonzero;"/>
        <path d="M560.357,391.214L524.979,363.96L579.006,330.417L560.357,391.214ZM535.5,364.49L557.159,381.177L568.578,343.954L535.5,364.49Z" style="fill:black;"/>
    </g>
    <g>
        <path d="M413.42,468.075L405.549,477.64L407.642,479.732L420.594,466.282L407.642,452.732L405.549,454.825L413.42,464.389L365,464.389L365,468.075L413.42,468.075Z" style="fill:black;fill-rule:nonzero;"/>
        <path d="M387.535,533.736C393.114,533.736 404.572,526.463 408.856,520.186C412.941,514.109 416.328,503.15 416.328,495.677C416.328,489.002 414.036,484.618 410.45,484.618C406.265,484.618 400.985,487.209 395.804,491.891C391.719,495.378 389.727,497.969 386.14,503.847L388.531,491.991C388.83,490.297 389.029,488.803 389.029,487.607C389.029,485.714 388.232,484.618 386.837,484.618C384.745,484.618 380.959,486.711 373.587,491.991L370.797,493.984L371.494,495.976L374.683,493.884C377.472,492.091 378.568,491.592 379.465,491.592C380.461,491.592 381.159,492.489 381.159,493.884C381.159,494.681 380.959,496.674 380.76,497.67L374.982,531.843C373.985,537.821 372.092,546.887 370.1,555.854L369.303,559.54L370,560.138C372.092,559.44 374.085,558.942 377.273,558.444L381.457,532.341C383.55,533.039 385.742,533.736 387.535,533.736ZM384.247,516.201C386.439,503.448 397.099,490.397 405.369,490.397C407.959,490.397 409.155,492.589 409.155,497.172C409.155,505.242 405.169,517.098 399.889,524.67C397.896,527.559 394.708,529.053 390.623,529.053C387.535,529.053 385.044,528.356 382.454,526.762L384.247,516.201Z" style="fill:black;fill-rule:nonzero;"/>
    </g>
</svg>
