<?xml version="1.0" standalone="no"?>
<!DOCTYPE svg PUBLIC "-//W3C//DTD SVG 1.1//EN" "http://www.w3.org/Graphics/SVG/1.1/DTD/svg11.dtd">
<svg width="100%" height="100%" viewBox="0 0 1227 1149" version="1.1" xmlns="http://www.w3.org/2000/svg" xmlns:xlink="http://www.w3.org/1999/xlink" xml:space="preserve" style="fill-rule:evenodd;clip-rule:evenodd;stroke-linecap:round;stroke-linejoin:round;stroke-miterlimit:10;">
    <rect x="15" y="57" width="1612" height="1132" style="fill:white;fill-rule:nonzero;"/>
    <path d="M95.888,287.923C101.423,293.458 101.423,302.432 95.888,307.967C90.353,313.502 81.379,313.502 75.844,307.967C70.309,302.432 70.309,293.458 75.844,287.923C81.379,282.388 90.353,282.388 95.888,287.923" style="fill:black;fill-rule:nonzero;"/>
    <path d="M379.353,89.498C384.888,95.033 384.888,104.007 379.353,109.542C373.818,115.077 364.844,115.077 359.309,109.542C353.774,104.007 353.774,95.033 359.309,89.498C364.844,83.963 373.818,83.963 379.353,89.498" style="fill:black;fill-rule:nonzero;"/>
    <path d="M97.479,289.816L357.718,107.649" style="fill:none;stroke-width:3px;stroke:black;"/>
    <path d="M265.967,854.852C271.502,860.387 271.502,869.361 265.967,874.896C260.432,880.431 251.458,880.431 245.923,874.896C240.388,869.361 240.388,860.387 245.923,854.852C251.458,849.317 260.432,849.317 265.967,854.852" style="fill:black;fill-rule:nonzero;"/>
    <path d="M39.195,599.734C44.73,605.269 44.73,614.243 39.195,619.778C33.66,625.313 24.686,625.313 19.151,619.778C13.616,614.243 13.616,605.269 19.151,599.734C24.686,594.199 33.66,594.199 39.195,599.734" style="fill:black;fill-rule:nonzero;"/>
    <path d="M31.709,595.81L83.331,311.891" style="fill:none;stroke-width:3px;stroke:black;"/>
    <path d="M246.528,854.281L38.59,620.349" style="fill:none;stroke-width:3px;stroke:black;"/>
    <path d="M577.778,798.159C583.313,803.694 583.313,812.668 577.778,818.203C572.243,823.738 563.269,823.738 557.734,818.203C552.199,812.668 552.199,803.694 557.734,798.159C563.269,792.624 572.243,792.624 577.778,798.159" style="fill:black;fill-rule:nonzero;"/>
    <path d="M776.203,401.309C781.738,406.844 781.738,415.818 776.203,421.353C770.668,426.888 761.694,426.888 756.159,421.353C750.624,415.818 750.624,406.844 756.159,401.309C761.694,395.774 770.668,395.774 776.203,401.309" style="fill:black;fill-rule:nonzero;"/>
    <path d="M606.124,61.151C611.659,66.686 611.659,75.66 606.124,81.195C600.589,86.73 591.615,86.73 586.08,81.195C580.545,75.66 580.545,66.686 586.08,61.151C591.615,55.616 600.589,55.616 606.124,61.151" style="fill:black;fill-rule:nonzero;"/>
    <path d="M627.384,32.805C632.919,38.34 632.919,47.314 627.384,52.849C621.849,58.384 612.875,58.384 607.34,52.849C601.805,47.314 601.805,38.34 607.34,32.805C612.875,27.27 621.849,27.27 627.384,32.805" style="fill:black;fill-rule:nonzero;"/>
    <path d="M269.891,862.338L553.81,810.717" style="fill:none;stroke-width:3px;stroke:black;"/>
    <path d="M574.096,795.501L759.841,424.011" style="fill:none;stroke-width:3px;stroke:black;"/>
    <path d="M759.841,398.65L602.442,83.854" style="fill:none;stroke-width:3px;stroke:black;"/>
    <path d="M582.038,72.931L383.395,97.762" style="fill:none;stroke-width:3px;stroke:black;"/>
    <path d="M797.463,372.962C802.998,378.497 802.998,387.471 797.463,393.006C791.928,398.541 782.954,398.541 777.419,393.006C771.884,387.471 771.884,378.497 777.419,372.962C782.954,367.427 791.928,367.427 797.463,372.962" style="fill:black;fill-rule:nonzero;"/>
    <path d="M599.038,819.419C604.573,824.954 604.573,833.928 599.038,839.463C593.503,844.998 584.529,844.998 578.994,839.463C573.459,833.928 573.459,824.954 578.994,819.419C584.529,813.884 593.503,813.884 599.038,819.419" style="fill:black;fill-rule:nonzero;"/>
    <path d="M811.636,408.395C817.171,413.93 817.171,422.904 811.636,428.439C806.101,433.974 797.127,433.974 791.592,428.439C786.057,422.904 786.057,413.93 791.592,408.395C797.127,402.86 806.101,402.86 811.636,408.395" style="fill:black;fill-rule:nonzero;"/>
    <path d="M1222.66,408.395C1228.19,413.93 1228.19,422.904 1222.66,428.439C1217.12,433.974 1208.15,433.974 1202.62,428.439C1197.08,422.904 1197.08,413.93 1202.62,408.395C1208.15,402.86 1217.12,402.86 1222.66,408.395" style="fill:black;fill-rule:nonzero;"/>
    <path d="M1222.66,372.962C1228.19,378.497 1228.19,387.471 1222.66,393.006C1217.12,398.541 1208.15,398.541 1202.62,393.006C1197.08,387.471 1197.08,378.497 1202.62,372.962C1208.15,367.427 1217.12,367.427 1222.66,372.962" style="fill:black;fill-rule:nonzero;"/>
    <path d="M988.801,4.458C994.336,9.993 994.336,18.967 988.801,24.502C983.267,30.037 974.293,30.037 968.757,24.502C963.223,18.967 963.223,9.993 968.757,4.458C974.293,-1.077 983.267,-1.077 988.801,4.458" style="fill:black;fill-rule:nonzero;"/>
    <path d="M1151.79,890.285C1157.33,895.82 1157.33,904.794 1151.79,910.329C1146.26,915.864 1137.29,915.864 1131.75,910.329C1126.21,904.794 1126.21,895.82 1131.75,890.285C1137.29,884.75 1146.26,884.75 1151.79,890.285" style="fill:black;fill-rule:nonzero;"/>
    <path d="M868.329,1109.97C873.864,1115.51 873.864,1124.48 868.329,1130.01C862.794,1135.55 853.82,1135.55 848.285,1130.01C842.75,1124.48 842.75,1115.51 848.285,1109.97C853.82,1104.43 862.794,1104.43 868.329,1109.97" style="fill:black;fill-rule:nonzero;"/>
    <path d="M781.101,370.304L623.702,55.507" style="fill:none;stroke-width:3px;stroke:black;"/>
    <path d="M631.492,41.719L964.649,15.589" style="fill:none;stroke-width:3px;stroke:black;"/>
    <path d="M986.376,26.45L1205.04,371.015" style="fill:none;stroke-width:3px;stroke:black;"/>
    <path d="M1198.46,382.984L801.614,382.984" style="fill:none;stroke-width:3px;stroke:black;"/>
    <path d="M815.787,418.417L1198.46,418.417" style="fill:none;stroke-width:3px;stroke:black;"/>
    <path d="M1210.58,432.441L1143.83,886.284" style="fill:none;stroke-width:3px;stroke:black;"/>
    <path d="M1130.57,908.99L869.511,1111.31" style="fill:none;stroke-width:3px;stroke:black;"/>
    <path d="M848.673,1109.6L598.65,839.836" style="fill:none;stroke-width:3px;stroke:black;"/>
    <path d="M595.529,816.849L795.101,431.01" style="fill:none;stroke-width:3px;stroke:black;"/>
    <path d="M563.605,826.506C569.14,832.041 569.14,841.015 563.605,846.55C558.07,852.085 549.096,852.085 543.561,846.55C538.026,841.015 538.026,832.041 543.561,826.506C549.096,820.971 558.07,820.971 563.605,826.506" style="fill:black;fill-rule:nonzero;"/>
    <path d="M251.794,883.199C257.329,888.734 257.329,897.708 251.794,903.242C246.259,908.778 237.285,908.778 231.75,903.242C226.215,897.708 226.215,888.734 231.75,883.199C237.285,877.664 246.259,877.664 251.794,883.199" style="fill:black;fill-rule:nonzero;"/>
    <path d="M25.022,635.167C30.557,640.702 30.557,649.676 25.022,655.211C19.487,660.746 10.513,660.746 4.978,655.211C-0.557,649.676 -0.557,640.702 4.978,635.167C10.513,629.632 19.487,629.632 25.022,635.167" style="fill:black;fill-rule:nonzero;"/>
    <path d="M145.494,1124.14C151.029,1129.68 151.029,1138.65 145.494,1144.19C139.959,1149.72 130.986,1149.72 125.451,1144.19C119.916,1138.65 119.916,1129.68 125.451,1124.14C130.986,1118.61 139.959,1118.61 145.494,1124.14" style="fill:black;fill-rule:nonzero;"/>
    <path d="M832.896,1117.06C838.431,1122.59 838.431,1131.57 832.896,1137.1C827.361,1142.64 818.387,1142.64 812.852,1137.1C807.317,1131.57 807.317,1122.59 812.852,1117.06C818.387,1111.52 827.361,1111.52 832.896,1117.06" style="fill:black;fill-rule:nonzero;"/>
    <path d="M813.239,1116.68L563.217,846.923" style="fill:none;stroke-width:3px;stroke:black;"/>
    <path d="M539.637,839.063L255.717,890.685" style="fill:none;stroke-width:3px;stroke:black;"/>
    <path d="M232.208,882.76L24.564,655.649" style="fill:none;stroke-width:3px;stroke:black;"/>
    <path d="M18.391,658.953L132.081,1120.4" style="fill:none;stroke-width:3px;stroke:black;"/>
    <path d="M149.645,1134.02L808.702,1127.23" style="fill:none;stroke-width:3px;stroke:black;"/>
</svg>
