<?xml version="1.0" standalone="no"?>
<!DOCTYPE svg PUBLIC "-//W3C//DTD SVG 1.1//EN" "http://www.w3.org/Graphics/SVG/1.1/DTD/svg11.dtd">
<svg width="100%" height="100%" viewBox="0 0 390 859" version="1.1" xmlns="http://www.w3.org/2000/svg" xmlns:xlink="http://www.w3.org/1999/xlink" xml:space="preserve" style="fill-rule:evenodd;clip-rule:evenodd;stroke-linecap:round;stroke-linejoin:round;stroke-miterlimit:10;">
    <rect x="-60" y="-128" width="806" height="1132" style="fill:white;fill-rule:nonzero;"/>
    <path d="M73.329,237.569C78.864,243.104 78.864,252.078 73.329,257.613C67.794,263.148 58.82,263.148 53.285,257.613C47.75,252.078 47.75,243.104 53.285,237.569C58.82,232.034 67.794,232.034 73.329,237.569" style="fill:black;fill-rule:nonzero;"/>
    <path d="M291.597,37.726C297.132,43.261 297.132,52.235 291.597,57.77C286.062,63.305 277.088,63.305 271.553,57.77C266.018,52.235 266.018,43.261 271.553,37.726C277.088,32.191 286.062,32.191 291.597,37.726" style="fill:black;fill-rule:nonzero;"/>
    <path d="M73.761,238.019L271.121,57.319" style="fill:none;stroke-width:3px;stroke:black;"/>
    <path d="M216.479,821.506C222.014,827.041 222.014,836.015 216.479,841.55C210.944,847.085 201.97,847.085 196.435,841.55C190.9,836.015 190.9,827.041 196.435,821.506C201.97,815.971 210.944,815.971 216.479,821.506" style="fill:black;fill-rule:nonzero;"/>
    <path d="M25.14,552.214C30.675,557.749 30.675,566.723 25.14,572.258C19.605,577.793 10.631,577.793 5.096,572.258C-0.439,566.723 -0.439,557.749 5.096,552.214C10.631,546.679 19.605,546.679 25.14,552.214" style="fill:black;fill-rule:nonzero;"/>
    <path d="M17.264,548.225L61.161,261.601" style="fill:none;stroke-width:3px;stroke:black;"/>
    <path d="M198.246,819.972L23.329,573.792" style="fill:none;stroke-width:3px;stroke:black;"/>
    <g>
        <path d="M325.535,50.746C331.114,50.746 342.572,43.473 346.856,37.196C350.941,31.119 354.328,20.16 354.328,12.687C354.328,6.012 352.036,1.628 348.45,1.628C344.265,1.628 338.985,4.219 333.804,8.901C329.719,12.388 327.727,14.979 324.14,20.857L326.531,9.001C326.83,7.307 327.029,5.813 327.029,4.617C327.029,2.724 326.232,1.628 324.837,1.628C322.745,1.628 318.959,3.721 311.587,9.001L308.797,10.994L309.494,12.986L312.683,10.894C315.472,9.101 316.568,8.602 317.465,8.602C318.461,8.602 319.159,9.499 319.159,10.894C319.159,11.691 318.959,13.684 318.76,14.68L312.982,48.853C311.985,54.831 310.092,63.897 308.1,72.864L307.303,76.55L308,77.148C310.092,76.45 312.085,75.952 315.273,75.454L319.457,49.351C321.55,50.049 323.742,50.746 325.535,50.746ZM322.247,33.211C324.439,20.458 335.099,7.407 343.369,7.407C345.959,7.407 347.155,9.599 347.155,14.182C347.155,22.252 343.169,34.108 337.889,41.68C335.896,44.569 332.708,46.063 328.623,46.063C325.535,46.063 323.044,45.366 320.454,43.772L322.247,33.211Z" style="fill:black;fill-rule:nonzero;"/>
        <path d="M388.117,70.868L388.117,68.25L384.335,68.032C380.334,67.814 379.607,67.013 379.607,63.232L379.607,20.539L378.589,20.175C373.861,22.648 368.698,24.83 362.079,27.157L362.588,30.721L363.316,30.721L372.916,26.43C373.352,26.43 373.498,27.085 373.498,28.83L373.498,63.232C373.498,67.013 372.698,67.814 368.77,68.032L364.697,68.25L364.697,70.868C375.898,70.65 375.898,70.65 376.698,70.65C378.953,70.65 386.953,70.868 388.117,70.868Z" style="fill:black;fill-rule:nonzero;"/>
    </g>
    <g>
        <path d="M108.535,294.746C114.114,294.746 125.572,287.473 129.856,281.196C133.941,275.119 137.328,264.16 137.328,256.687C137.328,250.012 135.036,245.628 131.45,245.628C127.265,245.628 121.985,248.219 116.804,252.901C112.719,256.388 110.727,258.979 107.14,264.857L109.531,253.001C109.83,251.307 110.029,249.813 110.029,248.617C110.029,246.724 109.232,245.628 107.837,245.628C105.745,245.628 101.959,247.721 94.587,253.001L91.797,254.994L92.494,256.986L95.683,254.894C98.472,253.101 99.568,252.602 100.465,252.602C101.461,252.602 102.159,253.499 102.159,254.894C102.159,255.691 101.959,257.684 101.76,258.68L95.982,292.853C94.985,298.831 93.092,307.897 91.1,316.864L90.303,320.55L91,321.148C93.092,320.45 95.085,319.952 98.273,319.454L102.457,293.351C104.55,294.049 106.742,294.746 108.535,294.746ZM105.247,277.211C107.439,264.458 118.099,251.407 126.369,251.407C128.959,251.407 130.155,253.599 130.155,258.182C130.155,266.252 126.169,278.108 120.889,285.68C118.896,288.569 115.708,290.063 111.623,290.063C108.535,290.063 106.044,289.366 103.454,287.772L105.247,277.211Z" style="fill:black;fill-rule:nonzero;"/>
        <path d="M141.879,310.286L141.879,314.868C155.48,314.868 155.48,314.65 158.098,314.65C160.716,314.65 160.716,314.868 174.753,314.868C174.753,313.341 174.608,312.614 174.608,311.595C174.608,310.65 174.753,309.923 174.753,308.322C166.389,308.686 163.043,308.759 149.588,309.05L162.825,295.013C169.88,287.522 172.062,283.522 172.062,278.067C172.062,269.703 166.389,264.539 157.152,264.539C151.916,264.539 148.352,265.994 144.788,269.63L143.552,279.521L146.752,279.521L147.697,276.176C148.861,271.957 150.388,270.139 155.261,270.139C161.516,270.139 165.516,274.067 165.516,280.249C165.516,285.703 160.207,290.722 151.989,299.449L141.879,310.286Z" style="fill:black;fill-rule:nonzero;"/>
    </g>
    <g>
        <path d="M62.189,548.976C67.768,548.976 79.226,541.703 83.51,535.426C87.595,529.349 90.982,518.39 90.982,510.917C90.982,504.242 88.69,499.858 85.104,499.858C80.919,499.858 75.639,502.449 70.458,507.131C66.373,510.618 64.381,513.209 60.794,519.087L63.185,507.231C63.484,505.537 63.683,504.043 63.683,502.847C63.683,500.954 62.886,499.858 61.491,499.858C59.399,499.858 55.613,501.951 48.241,507.231L45.451,509.224L46.148,511.216L49.337,509.124C52.126,507.331 53.222,506.832 54.119,506.832C55.115,506.832 55.813,507.729 55.813,509.124C55.813,509.921 55.613,511.914 55.414,512.91L49.635,547.083C48.639,553.061 46.746,562.127 44.754,571.094L43.957,574.78L44.654,575.378C46.746,574.68 48.739,574.182 51.927,573.684L56.111,547.581C58.204,548.279 60.396,548.976 62.189,548.976ZM58.901,531.441C61.093,518.688 71.753,505.637 80.023,505.637C82.613,505.637 83.809,507.829 83.809,512.412C83.809,520.482 79.823,532.338 74.543,539.91C72.55,542.799 69.362,544.293 65.277,544.293C62.189,544.293 59.698,543.596 57.108,542.002L58.901,531.441Z" style="fill:black;fill-rule:nonzero;"/>
        <path d="M127.971,552.488C127.971,543.688 120.189,542.161 116.77,541.579C122.589,537.07 124.771,533.724 124.771,529.433C124.771,522.96 119.388,518.669 111.315,518.669C106.37,518.669 103.097,520.051 99.606,523.542L97.497,532.56L100.261,532.56L101.57,528.488C102.37,526.015 106.443,523.542 110.225,523.542C114.952,523.542 118.807,527.397 118.807,531.979C118.807,537.433 114.516,541.434 109.352,541.434C108.77,541.434 107.97,541.361 107.024,541.288L105.933,541.215L105.061,545.652L105.57,546.088C108.334,544.852 109.715,544.488 111.679,544.488C117.716,544.488 121.207,548.343 121.207,554.961C121.207,562.38 116.77,566.744 110.006,566.744C106.661,566.744 104.188,566.162 102.006,564.125C100.261,562.525 99.315,560.852 97.933,556.925L95.46,557.652L98.006,568.344C101.861,569.653 105.061,570.235 107.752,570.235C116.697,570.235 127.971,562.452 127.971,552.488Z" style="fill:black;fill-rule:nonzero;"/>
    </g>
    <g>
        <path d="M252.189,831.976C257.768,831.976 269.226,824.703 273.51,818.426C277.595,812.349 280.982,801.39 280.982,793.917C280.982,787.242 278.69,782.858 275.104,782.858C270.919,782.858 265.639,785.449 260.458,790.131C256.373,793.618 254.381,796.209 250.794,802.087L253.185,790.231C253.484,788.537 253.683,787.043 253.683,785.847C253.683,783.954 252.886,782.858 251.491,782.858C249.399,782.858 245.613,784.951 238.241,790.231L235.451,792.224L236.148,794.216L239.337,792.124C242.126,790.331 243.222,789.832 244.119,789.832C245.115,789.832 245.813,790.729 245.813,792.124C245.813,792.921 245.613,794.914 245.414,795.91L239.636,830.083C238.639,836.061 236.746,845.127 234.754,854.094L233.957,857.78L234.654,858.378C236.746,857.68 238.739,857.182 241.927,856.684L246.111,830.581C248.204,831.279 250.396,831.976 252.189,831.976ZM248.901,814.441C251.093,801.688 261.753,788.637 270.023,788.637C272.613,788.637 273.809,790.829 273.809,795.412C273.809,803.482 269.823,815.338 264.543,822.91C262.55,825.799 259.362,827.293 255.277,827.293C252.189,827.293 249.698,826.596 247.108,825.002L248.901,814.441Z" style="fill:black;fill-rule:nonzero;"/>
        <path d="M304.734,838.616L304.734,843.343C304.734,847.707 303.934,848.725 300.37,848.871L295.861,849.089L295.861,851.998C305.534,851.78 305.534,851.78 307.279,851.78C309.025,851.78 309.025,851.78 318.698,851.998L318.698,849.089L315.207,848.871C311.643,848.653 310.843,847.707 310.843,843.343L310.843,838.616C315.134,838.616 316.661,838.689 318.698,838.907L318.698,833.743C318.189,833.743 313.17,833.961 312.807,833.961L310.843,833.961L310.843,823.852C310.843,810.906 310.989,804.651 311.352,801.669L310.479,801.305L305.097,803.269L284.515,836.943L285.315,838.616L304.734,838.616ZM304.734,833.961L289.824,833.961L304.734,809.087L304.734,833.961Z" style="fill:black;fill-rule:nonzero;"/>
    </g>
</svg>
