<?xml version="1.0" standalone="no"?>
<!DOCTYPE svg PUBLIC "-//W3C//DTD SVG 1.1//EN" "http://www.w3.org/Graphics/SVG/1.1/DTD/svg11.dtd">
<svg width="100%" height="100%" viewBox="0 0 53 53" version="1.1" xmlns="http://www.w3.org/2000/svg" xmlns:xlink="http://www.w3.org/1999/xlink" xml:space="preserve" style="fill-rule:evenodd;clip-rule:evenodd;stroke-linejoin:round;stroke-miterlimit:10;">
    <path d="M4.522,4.522L15.405,25.528L5.029,47.292L47.798,48.051L47.292,6.8L40.206,16.67L4.522,4.522Z" style="fill:none;stroke-width:0.9px;stroke:black;"/>
    <path d="M5.872,4.522C5.872,3.777 5.269,3.172 4.522,3.172C3.777,3.172 3.172,3.777 3.172,4.522C3.172,5.268 3.777,5.872 4.522,5.872C5.269,5.872 5.872,5.268 5.872,4.522" style="fill:black;"/>
    <path d="M16.755,25.528C16.755,24.782 16.15,24.178 15.405,24.178C14.659,24.178 14.055,24.782 14.055,25.528C14.055,26.273 14.659,26.878 15.405,26.878C16.15,26.878 16.755,26.273 16.755,25.528" style="fill:black;"/>
    <path d="M6.379,47.292C6.379,46.546 5.774,45.942 5.029,45.942C4.283,45.942 3.679,46.546 3.679,47.292C3.679,48.037 4.283,48.642 5.029,48.642C5.774,48.642 6.379,48.037 6.379,47.292" style="fill:black;"/>
    <path d="M49.148,48.051C49.148,47.305 48.544,46.701 47.798,46.701C47.053,46.701 46.448,47.305 46.448,48.051C46.448,48.796 47.053,49.401 47.798,49.401C48.544,49.401 49.148,48.796 49.148,48.051" style="fill:black;"/>
    <path d="M48.642,6.8C48.642,6.055 48.037,5.45 47.292,5.45C46.546,5.45 45.942,6.055 45.942,6.8C45.942,7.546 46.546,8.15 47.292,8.15C48.037,8.15 48.642,7.546 48.642,6.8" style="fill:black;"/>
    <path d="M41.556,16.67C41.556,15.925 40.951,15.32 40.206,15.32C39.46,15.32 38.856,15.925 38.856,16.67C38.856,17.416 39.46,18.02 40.206,18.02C40.951,18.02 41.556,17.416 41.556,16.67" style="fill:black;"/>
    <path d="M20.467,32.614L20.973,40.459L31.855,43.749L37.928,36.663L28.818,25.021" style="fill:none;stroke-width:0.9px;stroke:rgb(190,190,190);"/>
    <path d="M30.168,25.021C30.168,24.276 29.563,23.671 28.818,23.671C28.072,23.671 27.468,24.276 27.468,25.021C27.468,25.767 28.072,26.371 28.818,26.371C29.563,26.371 30.168,25.767 30.168,25.021" style="fill:rgb(190,190,190);"/>
    <path d="M39.278,36.663C39.278,35.917 38.674,35.313 37.928,35.313C37.183,35.313 36.578,35.917 36.578,36.663C36.578,37.408 37.183,38.013 37.928,38.013C38.674,38.013 39.278,37.408 39.278,36.663" style="fill:rgb(190,190,190);"/>
    <path d="M33.205,43.749C33.205,43.003 32.6,42.399 31.855,42.399C31.109,42.399 30.505,43.003 30.505,43.749C30.505,44.494 31.109,45.099 31.855,45.099C32.6,45.099 33.205,44.494 33.205,43.749" style="fill:rgb(190,190,190);"/>
    <path d="M22.323,40.459C22.323,39.713 21.718,39.109 20.973,39.109C20.227,39.109 19.623,39.713 19.623,40.459C19.623,41.204 20.227,41.809 20.973,41.809C21.718,41.809 22.323,41.204 22.323,40.459" style="fill:rgb(190,190,190);"/>
    <path d="M21.817,32.614C21.817,31.868 21.212,31.264 20.467,31.264C19.721,31.264 19.117,31.868 19.117,32.614C19.117,33.359 19.721,33.964 20.467,33.964C21.212,33.964 21.817,33.359 21.817,32.614" style="fill:rgb(190,190,190);"/>
    <path d="M23.032,10.823L17.429,18.517L33.12,20.289L23.032,10.823Z" style="fill:none;stroke-width:0.9px;stroke:rgb(190,190,190);"/>
    <path d="M24.382,10.823C24.382,10.078 23.777,9.473 23.032,9.473C22.286,9.473 21.682,10.078 21.682,10.823C21.682,11.569 22.286,12.173 23.032,12.173C23.777,12.173 24.382,11.569 24.382,10.823" style="fill:rgb(190,190,190);"/>
    <path d="M18.779,18.517C18.779,17.772 18.175,17.167 17.429,17.167C16.684,17.167 16.079,17.772 16.079,18.517C16.079,19.263 16.684,19.867 17.429,19.867C18.175,19.867 18.779,19.263 18.779,18.517" style="fill:rgb(190,190,190);"/>
    <path d="M34.47,20.289C34.47,19.543 33.865,18.939 33.12,18.939C32.374,18.939 31.77,19.543 31.77,20.289C31.77,21.034 32.374,21.639 33.12,21.639C33.865,21.639 34.47,21.034 34.47,20.289" style="fill:rgb(190,190,190);"/>
    <path d="M47.292,6.8L35.634,9.425" style="fill:none;stroke-width:0.9px;stroke:black;"/>
    <path d="M36.984,9.425C36.984,8.68 36.379,8.075 35.634,8.075C34.888,8.075 34.284,8.68 34.284,9.425C34.284,10.171 34.888,10.775 35.634,10.775C36.379,10.775 36.984,10.171 36.984,9.425" style="fill:black;"/>
    <path d="M28.817,25.021L20.466,32.614" style="fill:black;fill-rule:nonzero;stroke-width:0.9px;stroke:rgb(190,190,190);"/>
</svg>
