<?xml version="1.0" standalone="no"?>
<!DOCTYPE svg PUBLIC "-//W3C//DTD SVG 1.1//EN" "http://www.w3.org/Graphics/SVG/1.1/DTD/svg11.dtd">
<svg width="100%" height="100%" viewBox="0 0 53 53" version="1.1" xmlns="http://www.w3.org/2000/svg" xmlns:xlink="http://www.w3.org/1999/xlink" xml:space="preserve" style="fill-rule:evenodd;clip-rule:evenodd;stroke-linejoin:round;stroke-miterlimit:10;">
    <path d="M4.522,4.522L15.405,25.528L5.028,47.292L47.798,48.051L31.855,43.749L20.972,40.459L20.467,32.614L28.818,25.021L33.12,20.289L17.429,18.517L23.032,10.824L4.522,4.522Z" style="fill:rgb(38,123,217);"/>
    <path d="M23.032,10.824L40.206,16.67L47.292,6.8L47.798,48.051L31.855,43.749L37.928,36.663L28.818,25.021L33.12,20.289L23.032,10.824Z" style="fill:rgb(38,123,217);"/>
    <path d="M4.522,4.522L15.404,25.528L5.028,47.292L47.797,48.051L47.291,6.8L40.205,16.67L4.522,4.522Z" style="fill:none;stroke-width:0.9px;stroke:black;"/>
    <path d="M5.872,4.522C5.872,3.777 5.268,3.172 4.522,3.172C3.776,3.172 3.172,3.777 3.172,4.522C3.172,5.268 3.776,5.872 4.522,5.872C5.268,5.872 5.872,5.268 5.872,4.522" style="fill:black;"/>
    <path d="M16.754,25.528C16.754,24.782 16.15,24.178 15.404,24.178C14.659,24.178 14.054,24.782 14.054,25.528C14.054,26.273 14.659,26.878 15.404,26.878C16.15,26.878 16.754,26.273 16.754,25.528" style="fill:black;"/>
    <path d="M6.378,47.292C6.378,46.546 5.774,45.942 5.028,45.942C4.282,45.942 3.678,46.546 3.678,47.292C3.678,48.037 4.282,48.642 5.028,48.642C5.774,48.642 6.378,48.037 6.378,47.292" style="fill:black;"/>
    <path d="M49.147,48.051C49.147,47.305 48.543,46.701 47.797,46.701C47.052,46.701 46.447,47.305 46.447,48.051C46.447,48.796 47.052,49.401 47.797,49.401C48.543,49.401 49.147,48.796 49.147,48.051" style="fill:black;"/>
    <path d="M48.641,6.8C48.641,6.055 48.037,5.45 47.291,5.45C46.546,5.45 45.941,6.055 45.941,6.8C45.941,7.546 46.546,8.15 47.291,8.15C48.037,8.15 48.641,7.546 48.641,6.8" style="fill:black;"/>
    <path d="M41.555,16.67C41.555,15.925 40.951,15.32 40.205,15.32C39.46,15.32 38.855,15.925 38.855,16.67C38.855,17.416 39.46,18.02 40.205,18.02C40.951,18.02 41.555,17.416 41.555,16.67" style="fill:black;"/>
    <path d="M20.466,32.614L20.972,40.459L31.854,43.749L37.927,36.663L28.817,25.021" style="fill:none;stroke-width:0.9px;stroke:rgb(190,190,190);"/>
    <path d="M30.167,25.021C30.167,24.276 29.563,23.671 28.817,23.671C28.072,23.671 27.467,24.276 27.467,25.021C27.467,25.767 28.072,26.371 28.817,26.371C29.563,26.371 30.167,25.767 30.167,25.021" style="fill:rgb(190,190,190);"/>
    <path d="M39.277,36.663C39.277,35.917 38.673,35.313 37.927,35.313C37.182,35.313 36.577,35.917 36.577,36.663C36.577,37.408 37.182,38.013 37.927,38.013C38.673,38.013 39.277,37.408 39.277,36.663" style="fill:rgb(190,190,190);"/>
    <path d="M33.204,43.749C33.204,43.003 32.599,42.399 31.854,42.399C31.108,42.399 30.504,43.003 30.504,43.749C30.504,44.494 31.108,45.099 31.854,45.099C32.599,45.099 33.204,44.494 33.204,43.749" style="fill:rgb(190,190,190);"/>
    <path d="M22.322,40.459C22.322,39.713 21.718,39.109 20.972,39.109C20.226,39.109 19.622,39.713 19.622,40.459C19.622,41.204 20.226,41.809 20.972,41.809C21.718,41.809 22.322,41.204 22.322,40.459" style="fill:rgb(190,190,190);"/>
    <path d="M21.816,32.614C21.816,31.868 21.211,31.264 20.466,31.264C19.72,31.264 19.116,31.868 19.116,32.614C19.116,33.359 19.72,33.964 20.466,33.964C21.211,33.964 21.816,33.359 21.816,32.614" style="fill:rgb(190,190,190);"/>
    <path d="M23.031,10.823L17.429,18.517L33.119,20.289L23.031,10.823Z" style="fill:none;stroke-width:0.9px;stroke:rgb(190,190,190);"/>
    <path d="M24.381,10.823C24.381,10.078 23.776,9.473 23.031,9.473C22.285,9.473 21.681,10.078 21.681,10.823C21.681,11.569 22.285,12.173 23.031,12.173C23.776,12.173 24.381,11.569 24.381,10.823" style="fill:black;"/>
    <path d="M18.779,18.517C18.779,17.772 18.175,17.167 17.429,17.167C16.683,17.167 16.079,17.772 16.079,18.517C16.079,19.263 16.683,19.867 17.429,19.867C18.175,19.867 18.779,19.263 18.779,18.517" style="fill:rgb(190,190,190);"/>
    <path d="M34.469,20.289C34.469,19.543 33.865,18.939 33.119,18.939C32.374,18.939 31.769,19.543 31.769,20.289C31.769,21.034 32.374,21.639 33.119,21.639C33.865,21.639 34.469,21.034 34.469,20.289" style="fill:rgb(190,190,190);"/>
    <path d="M28.817,25.021L20.466,32.614" style="fill:none;stroke-width:0.9px;stroke:rgb(190,190,190);"/>
</svg>
