<?xml version="1.0" standalone="no"?>
<!DOCTYPE svg PUBLIC "-//W3C//DTD SVG 1.1//EN" "http://www.w3.org/Graphics/SVG/1.1/DTD/svg11.dtd">
<svg width="100%" height="100%" viewBox="0 0 460 290" version="1.1" xmlns="http://www.w3.org/2000/svg" xmlns:xlink="http://www.w3.org/1999/xlink" xml:space="preserve" style="fill-rule:evenodd;clip-rule:evenodd;stroke-linecap:round;stroke-linejoin:round;stroke-miterlimit:10;">
    <rect x="-25" y="-25" width="559" height="783" style="fill:white;fill-rule:nonzero;"/>
    <path d="M3.346,286.811L3.347,3.346L145.079,145.079L3.346,286.811Z" style="fill:rgb(255,38,0);fill-opacity:0.501961;fill-rule:nonzero;"/>
    <path d="M456.89,286.811L456.89,3.346L315.158,145.079L456.89,286.811Z" style="fill:rgb(0,150,255);fill-opacity:0.501961;fill-rule:nonzero;"/>
    <path d="M315.159,145.079L145.079,145.078L3.346,3.346L456.889,3.347L315.159,145.079Z" style="fill:rgb(0,249,0);fill-opacity:0.509804;fill-rule:nonzero;"/>
    <path d="M315.157,145.079L145.078,145.079L3.346,286.811L456.891,286.811L315.157,145.079Z" style="fill:rgb(255,251,0);fill-opacity:0.501961;fill-rule:nonzero;"/>
    <path d="M135.057,155.101C129.522,149.566 129.522,140.592 135.057,135.057C140.592,129.522 149.566,129.522 155.101,135.057C160.636,140.592 160.636,149.566 155.101,155.101C149.566,160.636 140.592,160.636 135.057,155.101" style="fill:black;fill-rule:nonzero;stroke-width:1px;stroke:black;"/>
    <path d="M159.752,145.079L300.484,145.079" style="fill:none;stroke-width:2px;stroke:black;"/>
    <path d="M305.136,155.101C299.601,149.566 299.601,140.592 305.136,135.057C310.671,129.522 319.645,129.522 325.18,135.057C330.715,140.592 330.715,149.566 325.18,155.101C319.645,160.636 310.671,160.636 305.136,155.101" style="fill:black;fill-rule:nonzero;stroke-width:1px;stroke:black;"/>
    <path d="M325.533,155.455L456.89,286.811" style="fill:none;stroke-width:2px;stroke:black;"/>
    <path d="M456.89,3.346L325.533,134.703" style="fill:none;stroke-width:2px;stroke:black;"/>
    <path d="M134.703,155.454L3.346,286.811" style="fill:none;stroke-width:2px;stroke:black;"/>
    <path d="M134.703,134.703L3.346,3.346" style="fill:none;stroke-width:2px;stroke:black;"/>
    <rect x="215.945" y="102.559" width="28.346" height="28.346" style="fill:white;fill-opacity:0.74902;fill-rule:nonzero;stroke-width:1px;stroke:black;"/>
    <rect x="215.945" y="130.906" width="28.346" height="28.346" style="fill:white;fill-opacity:0.74902;fill-rule:nonzero;stroke-width:1px;stroke:black;"/>
    <rect x="244.291" y="130.906" width="28.346" height="28.346" style="fill:white;fill-opacity:0.74902;fill-rule:nonzero;stroke-width:1px;stroke:black;"/>
    <rect x="215.945" y="159.252" width="28.346" height="28.346" style="fill:white;fill-opacity:0.74902;fill-rule:nonzero;stroke-width:1px;stroke:black;"/>
    <rect x="187.599" y="130.906" width="28.346" height="28.346" style="fill:white;fill-opacity:0.74902;fill-rule:nonzero;stroke-width:1px;stroke:black;"/>
    <path d="M409.507,30.477L429.551,50.521L409.507,70.565L389.463,50.521L409.507,30.477Z" style="fill:none;stroke-width:1px;stroke:black;"/>
    <path d="M389.463,50.521L409.507,70.565L389.463,90.609L369.419,70.565L389.463,50.521Z" style="fill:none;stroke-width:1px;stroke:black;"/>
    <path d="M409.507,70.565L429.551,90.609L409.507,110.653L389.463,90.609L409.507,70.565Z" style="fill:none;stroke-width:1px;stroke:black;"/>
    <path d="M369.419,70.565L389.463,90.609L369.419,110.653L349.375,90.609L369.419,70.565Z" style="fill:none;stroke-width:1px;stroke:black;"/>
    <path d="M369.419,30.477L389.463,50.521L369.419,70.565L349.375,50.521L369.419,30.477Z" style="fill:white;fill-opacity:0.74902;fill-rule:nonzero;stroke-width:1px;stroke:black;"/>
    <path d="M409.507,179.296L429.551,199.34L409.507,219.384L389.463,199.34L409.507,179.296Z" style="fill:none;stroke-width:1px;stroke:black;"/>
    <path d="M389.463,199.34L409.507,219.384L389.463,239.428L369.419,219.384L389.463,199.34Z" style="fill:none;stroke-width:1px;stroke:black;"/>
    <path d="M409.507,219.384L429.551,239.428L409.507,259.472L389.463,239.428L409.507,219.384Z" style="fill:none;stroke-width:1px;stroke:black;"/>
    <path d="M369.419,219.384L389.463,239.428L369.419,259.472L349.375,239.428L369.419,219.384Z" style="fill:none;stroke-width:1px;stroke:black;"/>
    <path d="M369.419,179.296L389.463,199.34L369.419,219.384L349.375,199.34L369.419,179.296Z" style="fill:white;fill-opacity:0.74902;fill-rule:nonzero;stroke-width:1px;stroke:black;"/>
    <path d="M90.818,30.477L110.862,50.521L90.818,70.565L70.774,50.521L90.818,30.477Z" style="fill:none;stroke-width:1px;stroke:black;"/>
    <path d="M70.774,50.521L90.818,70.565L70.774,90.609L50.73,70.565L70.774,50.521Z" style="fill:none;stroke-width:1px;stroke:black;"/>
    <path d="M90.818,70.565L110.862,90.609L90.818,110.653L70.774,90.609L90.818,70.565Z" style="fill:white;fill-opacity:0.74902;fill-rule:nonzero;stroke-width:1px;stroke:black;"/>
    <path d="M50.73,70.565L70.774,90.609L50.73,110.653L30.686,90.609L50.73,70.565Z" style="fill:none;stroke-width:1px;stroke:black;"/>
    <path d="M50.73,30.477L70.774,50.521L50.73,70.565L30.686,50.521L50.73,30.477Z" style="fill:none;stroke-width:1px;stroke:black;"/>
    <path d="M90.818,179.296L110.862,199.34L90.818,219.384L70.774,199.34L90.818,179.296Z" style="fill:none;stroke-width:1px;stroke:black;"/>
    <path d="M70.774,199.34L90.818,219.384L70.774,239.428L50.73,219.384L70.774,199.34Z" style="fill:none;stroke-width:1px;stroke:black;"/>
    <path d="M90.818,219.384L110.862,239.428L90.818,259.472L70.774,239.428L90.818,219.384Z" style="fill:white;fill-opacity:0.74902;fill-rule:nonzero;stroke-width:1px;stroke:black;"/>
    <path d="M50.73,219.384L70.774,239.428L50.73,259.472L30.686,239.428L50.73,219.384Z" style="fill:none;stroke-width:1px;stroke:black;"/>
    <path d="M50.73,179.296L70.774,199.34L50.73,219.384L30.686,199.34L50.73,179.296Z" style="fill:none;stroke-width:1px;stroke:black;"/>
    <path d="M244.766,111.85C268.227,104.029 296.42,97.186 315.158,88.386C330.162,81.339 339.111,73.035 349.278,64.984" style="fill:none;stroke-width:1px;stroke:black;"/>
    <path d="M355.683,60.185L347.481,62.581L351.079,67.383L355.683,60.185Z" style="fill:black;fill-rule:nonzero;stroke-width:1px;stroke-linecap:butt;stroke-linejoin:miter;stroke:black;"/>
    <path d="M103.033,59.045C117.047,68.825 126.341,79.586 145.079,88.386C161.365,96.034 184.793,102.205 206.049,108.823" style="fill:none;stroke-width:1px;stroke:black;stroke-opacity:0.301961;"/>
    <path d="M213.662,111.269L206.963,105.966L205.128,111.678L213.662,111.269Z" style="fill:black;fill-opacity:0.301961;fill-rule:nonzero;stroke-width:1px;stroke-linecap:butt;stroke-linejoin:miter;stroke:black;stroke-opacity:0.301961;"/>
    <path d="M215.471,178.308C192.009,186.128 163.812,193.002 145.079,201.772C130.089,208.789 121.152,217.024 111.003,225.014" style="fill:none;stroke-width:1px;stroke:black;"/>
    <path d="M104.585,229.796L112.792,227.422L109.208,222.611L104.585,229.796Z" style="fill:black;fill-rule:nonzero;stroke-width:1px;stroke-linecap:butt;stroke-linejoin:miter;stroke:black;"/>
    <path d="M357.176,230.931C343.171,221.212 333.891,210.541 315.158,201.772C298.876,194.15 275.445,187.96 254.188,181.336" style="fill:none;stroke-width:1px;stroke:black;stroke-opacity:0.301961;"/>
    <path d="M246.575,178.889L253.273,184.193L255.109,178.481L246.575,178.889Z" style="fill:black;fill-opacity:0.301961;fill-rule:nonzero;stroke-width:1px;stroke-linecap:butt;stroke-linejoin:miter;stroke:black;stroke-opacity:0.301961;"/>
    <path d="M428.543,286.811L388.661,254.849" style="fill:none;stroke-width:1px;stroke:black;stroke-opacity:0.301961;"/>
    <path d="M382.418,249.846L386.785,257.19L390.537,252.508L382.418,249.846Z" style="fill:black;fill-opacity:0.301961;fill-rule:nonzero;stroke-width:1px;stroke-linecap:butt;stroke-linejoin:miter;stroke:black;stroke-opacity:0.301961;"/>
    <path d="M79.301,248.658L31.693,286.811" style="fill:none;stroke-width:1px;stroke:black;stroke-opacity:0.301961;"/>
    <path d="M380.958,41.314L428.543,3.346" style="fill:none;stroke-width:1px;stroke:black;stroke-opacity:0.301961;"/>
    <path d="M31.693,3.346L71.54,35.139" style="fill:none;stroke-width:1px;stroke:black;stroke-opacity:0.301961;"/>
    <path d="M77.793,40.129L73.411,32.794L69.668,37.484L77.793,40.129Z" style="fill:black;fill-opacity:0.301961;fill-rule:nonzero;stroke-width:1px;stroke-linecap:butt;stroke-linejoin:miter;stroke:black;stroke-opacity:0.301961;"/>
    <path d="M456.89,31.693L424.959,71.396" style="fill:none;stroke-width:1px;stroke:black;stroke-opacity:0.301961;"/>
    <path d="M419.946,77.63L427.297,73.276L422.621,69.515L419.946,77.63Z" style="fill:black;fill-opacity:0.301961;fill-rule:nonzero;stroke-width:1px;stroke-linecap:butt;stroke-linejoin:miter;stroke:black;stroke-opacity:0.301961;"/>
    <path d="M406.497,108.22C404.397,120.505 400.198,132.827 400.197,145.079C400.196,154.088 402.464,163.064 404.498,172.042" style="fill:none;stroke-width:1px;stroke:black;stroke-opacity:0.301961;"/>
    <path d="M406.105,179.877L407.436,171.438L401.559,172.643L406.105,179.877Z" style="fill:black;fill-opacity:0.301961;fill-rule:nonzero;stroke-width:1px;stroke-linecap:butt;stroke-linejoin:miter;stroke:black;stroke-opacity:0.301961;"/>
    <path d="M418.736,210.857L456.89,258.465" style="fill:none;stroke-width:1px;stroke:black;stroke-opacity:0.301961;"/>
    <path d="M3.346,258.465L35.309,218.582" style="fill:none;stroke-width:1px;stroke:black;stroke-opacity:0.301961;"/>
    <path d="M40.312,212.34L32.968,216.706L37.65,220.458L40.312,212.34Z" style="fill:black;fill-opacity:0.301961;fill-rule:nonzero;stroke-width:1px;stroke-linecap:butt;stroke-linejoin:miter;stroke:black;stroke-opacity:0.301961;"/>
    <path d="M53.75,181.739C55.846,169.52 60.041,157.331 60.039,145.079C60.038,136.05 57.758,126.984 55.718,117.922" style="fill:none;stroke-width:1px;stroke:black;stroke-opacity:0.301961;"/>
    <path d="M54.119,110.082L52.778,118.52L58.657,117.321L54.119,110.082Z" style="fill:black;fill-opacity:0.301961;fill-rule:nonzero;stroke-width:1px;stroke-linecap:butt;stroke-linejoin:miter;stroke:black;stroke-opacity:0.301961;"/>
    <path d="M41.482,79.11L3.346,31.693" style="fill:none;stroke-width:1px;stroke:black;stroke-opacity:0.301961;"/>
    <path d="M187.219,132.605C175.535,122.591 165.353,108.997 152.165,102.559C141.857,97.527 129.708,96.864 117.878,95.448" style="fill:none;stroke-width:1px;stroke:black;"/>
    <path d="M109.963,94.255L117.427,98.414L118.321,92.48L109.963,94.255Z" style="fill:black;fill-rule:nonzero;stroke-width:1px;stroke-linecap:butt;stroke-linejoin:miter;stroke:black;"/>
    <path d="M85.253,105.73C80.427,118.845 70.776,131.996 70.774,145.079C70.772,155.126 76.46,165.137 81.283,175.153" style="fill:none;stroke-width:1px;stroke:black;stroke-opacity:0.301961;"/>
    <path d="M84.479,182.492L84.036,173.959L78.534,176.355L84.479,182.492Z" style="fill:black;fill-opacity:0.301961;fill-rule:nonzero;stroke-width:1px;stroke-linecap:butt;stroke-linejoin:miter;stroke:black;stroke-opacity:0.301961;"/>
    <path d="M108.133,196.026C122.809,193.217 138.986,194.01 152.165,187.599C162.557,182.543 171.091,173.006 179.963,164.289" style="fill:none;stroke-width:1px;stroke:black;stroke-opacity:0.301961;"/>
    <path d="M185.826,158.845L177.922,162.09L182.005,166.487L185.826,158.845Z" style="fill:black;fill-opacity:0.301961;fill-rule:nonzero;stroke-width:1px;stroke-linecap:butt;stroke-linejoin:miter;stroke:black;stroke-opacity:0.301961;"/>
    <path d="M273.018,157.553C284.701,167.567 294.891,181.187 308.071,187.598C318.368,192.608 330.493,193.219 342.304,194.587" style="fill:none;stroke-width:1px;stroke:black;"/>
    <path d="M350.224,195.75L342.745,191.619L341.873,197.555L350.224,195.75Z" style="fill:black;fill-rule:nonzero;stroke-width:1px;stroke-linecap:butt;stroke-linejoin:miter;stroke:black;"/>
    <path d="M374.262,183.514C378.182,170.704 386.026,157.922 386.024,145.079C386.022,135.331 381.5,125.544 377.604,115.763" style="fill:none;stroke-width:1px;stroke:black;stroke-opacity:0.301961;"/>
    <path d="M374.892,108.236L374.782,116.779L380.426,114.745L374.892,108.236Z" style="fill:black;fill-opacity:0.301961;fill-rule:nonzero;stroke-width:1px;stroke-linecap:butt;stroke-linejoin:miter;stroke:black;stroke-opacity:0.301961;"/>
    <path d="M351.862,93.675C334.905,96.636 314.128,96.414 300.984,102.559C291.142,107.161 285.575,115.336 279.482,123.07" style="fill:none;stroke-width:1px;stroke:black;stroke-opacity:0.301961;"/>
    <path d="M274.236,129.117L281.745,125.039L277.212,121.108L274.236,129.117Z" style="fill:black;fill-opacity:0.301961;fill-rule:nonzero;stroke-width:1px;stroke-linecap:butt;stroke-linejoin:miter;stroke:black;stroke-opacity:0.301961;"/>
    <g>
        <path d="M235.196,150.856L234.335,151.465C232.434,152.828 230.713,153.546 229.421,153.546C227.736,153.546 226.695,152.219 226.695,150.067C226.695,149.17 226.803,148.201 226.982,147.161C227.592,147.018 231.502,145.942 232.398,145.547C235.447,144.22 236.846,142.57 236.846,140.347C236.846,138.661 235.626,137.549 233.833,137.549C231.394,137.047 227.449,139.665 226.122,142.319C225.046,144.113 223.97,148.381 223.97,150.784C223.97,153.581 225.548,155.231 228.13,155.231C230.175,155.231 232.183,154.227 235.483,151.537L235.196,150.856ZM227.485,145.009C228.094,142.534 228.812,140.992 229.852,140.06C230.497,139.486 231.609,139.055 232.47,139.055C233.51,139.055 234.192,139.773 234.192,140.92C234.192,142.499 232.936,144.184 231.071,145.081C230.067,145.583 228.776,145.978 227.162,146.336L227.485,145.009Z" style="fill:black;fill-rule:nonzero;"/>
        <path d="M224.014,177.291L223.632,177.562C222.787,178.168 222.022,178.487 221.448,178.487C220.698,178.487 220.236,177.897 220.236,176.941C220.236,176.542 220.284,176.112 220.364,175.649C220.635,175.586 222.372,175.107 222.771,174.932C224.126,174.342 224.747,173.609 224.747,172.621C224.747,171.871 224.205,171.377 223.408,171.377C222.324,171.154 220.571,172.318 219.981,173.497C219.503,174.295 219.025,176.191 219.025,177.259C219.025,178.503 219.726,179.236 220.874,179.236C221.782,179.236 222.675,178.79 224.142,177.594L224.014,177.291ZM220.587,174.693C220.858,173.593 221.177,172.908 221.639,172.493C221.926,172.238 222.42,172.047 222.803,172.047C223.265,172.047 223.568,172.366 223.568,172.876C223.568,173.577 223.01,174.326 222.181,174.725C221.735,174.948 221.161,175.123 220.443,175.283L220.587,174.693Z" style="fill:black;fill-rule:nonzero;"/>
        <path d="M226.373,181.994L227.872,181.978L229.466,181.994L229.562,181.898L229.562,181.484L229.498,181.404L228.892,181.404C228.462,181.404 228.111,181.308 227.92,181.149C227.776,181.006 227.728,180.782 227.728,180.256L227.728,169.241C227.728,168.715 227.776,168.476 227.92,168.333C228.111,168.173 228.462,168.078 228.892,168.078L229.498,168.078L229.562,167.998L229.562,167.583L229.466,167.488L227.968,167.536L226.373,167.488C226.31,167.631 226.294,167.807 226.294,168.046C226.294,168.46 226.357,169.05 226.357,169.847L226.357,179.762C226.357,180.846 226.326,181.293 226.23,181.787L226.373,181.994Z" style="fill:black;fill-rule:nonzero;"/>
        <path d="M234.455,168.078C231.985,168.078 230.725,170.038 230.725,173.896C230.725,175.761 231.06,177.371 231.618,178.152C232.176,178.933 233.069,179.38 234.057,179.38C236.464,179.38 237.675,177.307 237.675,173.226C237.675,169.735 236.639,168.078 234.455,168.078ZM234.168,168.636C235.715,168.636 236.336,170.198 236.336,174.024C236.336,177.419 235.731,178.822 234.264,178.822C232.718,178.822 232.064,177.212 232.064,173.322C232.064,169.959 232.654,168.636 234.168,168.636Z" style="fill:black;fill-rule:nonzero;"/>
        <path d="M242.123,181.994L242.266,181.787C242.171,181.293 242.139,180.846 242.139,179.762L242.139,169.847C242.139,169.05 242.203,168.46 242.203,168.046C242.203,167.807 242.187,167.631 242.123,167.488L239.03,167.488L238.935,167.583L238.935,167.998L238.999,168.078L239.604,168.078C240.035,168.078 240.385,168.173 240.577,168.333C240.72,168.476 240.768,168.715 240.768,169.241L240.768,180.256C240.768,180.782 240.72,181.006 240.577,181.149C240.385,181.308 240.035,181.404 239.604,181.404L238.999,181.404L238.935,181.484L238.935,181.898L239.03,181.994L242.123,181.994Z" style="fill:black;fill-rule:nonzero;"/>
    </g>
    <path d="M252.014,148.291L251.632,148.562C250.787,149.168 250.022,149.487 249.448,149.487C248.698,149.487 248.236,148.897 248.236,147.941C248.236,147.542 248.284,147.112 248.364,146.649C248.635,146.586 250.372,146.107 250.771,145.932C252.126,145.342 252.747,144.609 252.747,143.621C252.747,142.871 252.205,142.377 251.408,142.377C250.324,142.154 248.571,143.318 247.981,144.497C247.503,145.295 247.025,147.191 247.025,148.259C247.025,149.503 247.726,150.236 248.874,150.236C249.782,150.236 250.675,149.79 252.142,148.594L252.014,148.291ZM248.587,145.693C248.858,144.593 249.177,143.908 249.639,143.493C249.926,143.238 250.42,143.047 250.803,143.047C251.265,143.047 251.568,143.366 251.568,143.876C251.568,144.577 251.01,145.326 250.181,145.725C249.735,145.948 249.161,146.123 248.443,146.283L248.587,145.693Z" style="fill:black;fill-rule:nonzero;"/>
    <path d="M254.373,152.994L255.872,152.978L257.466,152.994L257.562,152.898L257.562,152.484L257.498,152.404L256.892,152.404C256.462,152.404 256.111,152.308 255.92,152.149C255.776,152.006 255.728,151.782 255.728,151.256L255.728,140.241C255.728,139.715 255.776,139.476 255.92,139.333C256.111,139.173 256.462,139.078 256.892,139.078L257.498,139.078L257.562,138.998L257.562,138.583L257.466,138.488L255.968,138.536L254.373,138.488C254.31,138.631 254.294,138.807 254.294,139.046C254.294,139.46 254.357,140.05 254.357,140.847L254.357,150.762C254.357,151.846 254.326,152.293 254.23,152.787L254.373,152.994Z" style="fill:black;fill-rule:nonzero;"/>
    <path d="M264.926,150.109L264.926,149.63L264.097,149.583C263.221,149.535 263.061,149.359 263.061,148.53L263.061,138.902L259.219,140.528L259.331,141.325L261.722,140.273L261.722,148.53C261.722,149.359 261.547,149.535 260.686,149.583L259.793,149.63L259.793,150.109C262.248,150.061 262.248,150.061 262.424,150.061C262.918,150.061 264.671,150.109 264.926,150.109Z" style="fill:black;fill-rule:nonzero;"/>
    <path d="M270.123,152.994L270.266,152.787C270.171,152.293 270.139,151.846 270.139,150.762L270.139,140.847C270.139,140.05 270.203,139.46 270.203,139.046C270.203,138.807 270.187,138.631 270.123,138.488L267.03,138.488L266.935,138.583L266.935,138.998L266.999,139.078L267.604,139.078C268.035,139.078 268.385,139.173 268.577,139.333C268.72,139.476 268.768,139.715 268.768,140.241L268.768,151.256C268.768,151.782 268.72,152.006 268.577,152.149C268.385,152.308 268.035,152.404 267.604,152.404L266.999,152.404L266.935,152.484L266.935,152.898L267.03,152.994L270.123,152.994Z" style="fill:black;fill-rule:nonzero;"/>
    <g>
        <g>
            <path d="M223.085,119.308C222.288,120.089 221.427,120.536 220.758,120.536C219.785,120.536 219.514,119.595 219.514,118.734C219.514,118.575 219.514,118.415 219.546,118.224C221.076,117.842 223.755,116.981 223.755,115.403C223.755,114.717 223.197,114.127 222.352,114.127C221.682,114.127 220.837,114.494 220.152,115.02C218.893,115.977 218.239,117.65 218.239,119.149C218.239,121.046 219.259,121.476 219.992,121.476C220.758,121.476 221.953,121.173 223.356,119.675L223.085,119.308ZM221.762,114.781C222.224,114.781 222.559,115.1 222.559,115.658C222.559,116.391 221.889,117.124 219.61,117.73C219.881,115.945 220.678,115.211 221.108,114.972C221.284,114.861 221.539,114.781 221.762,114.781Z" style="fill:black;fill-rule:nonzero;"/>
            <path d="M225.317,124.218L226.815,124.202L228.409,124.218L228.505,124.122L228.505,123.708L228.441,123.628L227.835,123.628C227.405,123.628 227.054,123.532 226.863,123.373C226.72,123.23 226.672,123.006 226.672,122.48L226.672,111.465C226.672,110.939 226.72,110.7 226.863,110.557C227.054,110.397 227.405,110.302 227.835,110.302L228.441,110.302L228.505,110.222L228.505,109.807L228.409,109.712L226.911,109.76L225.317,109.712C225.253,109.855 225.237,110.031 225.237,110.27C225.237,110.684 225.301,111.274 225.301,112.071L225.301,121.986C225.301,123.07 225.269,123.517 225.173,124.011L225.317,124.218Z" style="fill:black;fill-rule:nonzero;"/>
            <path d="M236.674,119.053C236.196,120.057 235.988,120.121 235.128,120.121L232.147,120.121L234.41,117.746C235.877,116.184 236.514,115.243 236.514,113.856C236.514,112.183 235.239,111.162 233.836,111.162C232.912,111.162 232.163,111.577 231.684,112.103L230.776,113.394L231.126,113.713C231.541,113.091 232.21,112.23 233.294,112.23C234.474,112.23 235.175,113.012 235.175,114.351C235.175,115.721 234.171,117.029 233.183,118.208C232.386,119.133 231.493,120.041 230.6,120.918L230.6,121.285L236.562,121.285C236.754,120.567 236.913,119.866 237.12,119.197L236.674,119.053Z" style="fill:black;fill-rule:nonzero;"/>
            <path d="M241.663,124.218L241.807,124.011C241.711,123.517 241.679,123.07 241.679,121.986L241.679,112.071C241.679,111.274 241.743,110.684 241.743,110.27C241.743,110.031 241.727,109.855 241.663,109.712L238.571,109.712L238.475,109.807L238.475,110.222L238.539,110.302L239.145,110.302C239.575,110.302 239.926,110.397 240.117,110.557C240.261,110.7 240.308,110.939 240.308,111.465L240.308,122.48C240.308,123.006 240.261,123.23 240.117,123.373C239.926,123.532 239.575,123.628 239.145,123.628L238.539,123.628L238.475,123.708L238.475,124.122L238.571,124.218L241.663,124.218Z" style="fill:black;fill-rule:nonzero;"/>
        </g>
    </g>
    <path d="M196.014,149.291L195.632,149.562C194.787,150.168 194.022,150.487 193.448,150.487C192.698,150.487 192.236,149.897 192.236,148.941C192.236,148.542 192.284,148.112 192.364,147.649C192.635,147.586 194.372,147.107 194.771,146.932C196.126,146.342 196.747,145.609 196.747,144.621C196.747,143.871 196.205,143.377 195.408,143.377C194.324,143.154 192.571,144.318 191.981,145.497C191.503,146.295 191.025,148.191 191.025,149.259C191.025,150.503 191.726,151.236 192.874,151.236C193.782,151.236 194.675,150.79 196.142,149.594L196.014,149.291ZM192.587,146.693C192.858,145.593 193.177,144.908 193.639,144.493C193.926,144.238 194.42,144.047 194.803,144.047C195.265,144.047 195.568,144.366 195.568,144.876C195.568,145.577 195.01,146.326 194.181,146.725C193.735,146.948 193.161,147.123 192.443,147.283L192.587,146.693Z" style="fill:black;fill-rule:nonzero;"/>
    <path d="M198.373,153.994L199.872,153.978L201.466,153.994L201.562,153.898L201.562,153.484L201.498,153.404L200.892,153.404C200.462,153.404 200.111,153.308 199.92,153.149C199.776,153.006 199.728,152.782 199.728,152.256L199.728,141.241C199.728,140.715 199.776,140.476 199.92,140.333C200.111,140.173 200.462,140.078 200.892,140.078L201.498,140.078L201.562,139.998L201.562,139.583L201.466,139.488L199.968,139.536L198.373,139.488C198.31,139.631 198.294,139.807 198.294,140.046C198.294,140.46 198.357,141.05 198.357,141.847L198.357,151.762C198.357,152.846 198.326,153.293 198.23,153.787L198.373,153.994Z" style="fill:black;fill-rule:nonzero;"/>
    <path d="M209.628,147.49C209.628,145.561 207.922,145.226 207.173,145.099C208.448,144.111 208.926,143.377 208.926,142.437C208.926,141.018 207.747,140.078 205.977,140.078C204.893,140.078 204.176,140.38 203.411,141.146L202.948,143.122L203.443,143.122L203.73,142.23C203.905,141.688 204.909,141.146 205.738,141.146C206.774,141.146 207.619,141.99 207.619,142.995C207.619,144.19 206.679,145.195 205.547,145.195C205.419,145.195 205.244,145.179 205.037,145.163L204.798,145.147L204.606,145.992L204.718,146.087C205.324,145.816 205.626,145.737 206.057,145.737C207.38,145.737 208.145,146.581 208.145,148.032C208.145,149.658 207.173,150.726 205.69,150.726C204.957,150.726 204.303,150.487 203.825,150.041C203.443,149.69 203.235,149.323 202.932,148.462L202.502,148.622C202.837,149.594 202.964,150.168 203.06,150.965C203.905,151.252 204.606,151.38 205.196,151.38C207.157,151.38 209.628,149.674 209.628,147.49Z" style="fill:black;fill-rule:nonzero;"/>
    <path d="M214.123,153.994L214.266,153.787C214.171,153.293 214.139,152.846 214.139,151.762L214.139,141.847C214.139,141.05 214.203,140.46 214.203,140.046C214.203,139.807 214.187,139.631 214.123,139.488L211.03,139.488L210.935,139.583L210.935,139.998L210.999,140.078L211.604,140.078C212.035,140.078 212.385,140.173 212.577,140.333C212.72,140.476 212.768,140.715 212.768,141.241L212.768,152.256C212.768,152.782 212.72,153.006 212.577,153.149C212.385,153.308 212.035,153.404 211.604,153.404L210.999,153.404L210.935,153.484L210.935,153.898L211.03,153.994L214.123,153.994Z" style="fill:black;fill-rule:nonzero;"/>
    <g>
        <clipPath id="_clip1">
            <rect x="130.405" y="210.118" width="79" height="19"/>
        </clipPath>
        <g clip-path="url(#_clip1)">
            <g>
                <path d="M136.882,222.364L136.404,222.703C135.347,223.46 134.391,223.859 133.674,223.859C132.737,223.859 132.159,223.121 132.159,221.926C132.159,221.428 132.219,220.89 132.319,220.312C132.657,220.232 134.829,219.634 135.327,219.415C137.021,218.678 137.798,217.761 137.798,216.526C137.798,215.589 137.121,214.972 136.125,214.972C134.77,214.693 132.578,216.147 131.84,217.622C131.243,218.618 130.645,220.989 130.645,222.324C130.645,223.879 131.522,224.795 132.956,224.795C134.092,224.795 135.208,224.237 137.041,222.743L136.882,222.364ZM132.598,219.116C132.936,217.741 133.335,216.885 133.913,216.366C134.271,216.048 134.889,215.809 135.367,215.809C135.945,215.809 136.324,216.207 136.324,216.845C136.324,217.721 135.626,218.658 134.59,219.156C134.032,219.435 133.315,219.654 132.418,219.854L132.598,219.116Z" style="fill:black;fill-rule:nonzero;"/>
                <path d="M139.831,228.242L141.704,228.222L143.696,228.242L143.816,228.123L143.816,227.605L143.736,227.505L142.979,227.505C142.441,227.505 142.003,227.386 141.764,227.186C141.584,227.007 141.524,226.728 141.524,226.07L141.524,212.302C141.524,211.644 141.584,211.345 141.764,211.166C142.003,210.967 142.441,210.847 142.979,210.847L143.736,210.847L143.816,210.747L143.816,210.229L143.696,210.11L141.823,210.17L139.831,210.11C139.751,210.289 139.731,210.508 139.731,210.807C139.731,211.325 139.811,212.062 139.811,213.059L139.811,225.453C139.811,226.808 139.771,227.366 139.651,227.983L139.831,228.242Z" style="fill:black;fill-rule:nonzero;"/>
                <path d="M149.933,210.847C146.845,210.847 145.271,213.298 145.271,218.12C145.271,220.451 145.689,222.464 146.386,223.44C147.084,224.417 148.2,224.975 149.435,224.975C152.444,224.975 153.958,222.384 153.958,217.283C153.958,212.919 152.663,210.847 149.933,210.847ZM149.575,211.544C151.507,211.544 152.285,213.497 152.285,218.279C152.285,222.524 151.527,224.277 149.694,224.277C147.761,224.277 146.944,222.265 146.944,217.403C146.944,213.198 147.682,211.544 149.575,211.544Z" style="fill:black;fill-rule:nonzero;"/>
                <path d="M159.518,228.242L159.697,227.983C159.577,227.366 159.538,226.808 159.538,225.453L159.538,213.059C159.538,212.062 159.617,211.325 159.617,210.807C159.617,210.508 159.597,210.289 159.518,210.11L155.652,210.11L155.532,210.229L155.532,210.747L155.612,210.847L156.369,210.847C156.907,210.847 157.346,210.967 157.585,211.166C157.764,211.345 157.824,211.644 157.824,212.302L157.824,226.07C157.824,226.728 157.764,227.007 157.585,227.186C157.346,227.386 156.907,227.505 156.369,227.505L155.612,227.505L155.532,227.605L155.532,228.123L155.652,228.242L159.518,228.242Z" style="fill:black;fill-rule:nonzero;"/>
                <path d="M163.722,222.364C163.124,222.364 162.586,222.922 162.586,223.52C162.586,224.118 163.124,224.676 163.702,224.676C164.34,224.676 164.898,224.138 164.898,223.52C164.898,222.922 164.34,222.364 163.722,222.364Z" style="fill:black;fill-rule:nonzero;"/>
                <path d="M175.678,211.026C175.678,210.807 175.498,210.628 175.279,210.628L174.881,210.628C174.661,210.628 174.482,210.807 174.482,211.026L174.482,222.265C174.482,222.364 174.363,222.384 174.323,222.304L169.56,210.967C169.441,210.688 169.361,210.628 169.142,210.628L168.106,210.628C167.887,210.628 167.707,210.807 167.707,211.026L167.707,224.177C167.707,224.397 167.887,224.576 168.106,224.576L168.504,224.576C168.723,224.576 168.903,224.397 168.903,224.177L168.903,212.84C168.903,212.74 169.022,212.72 169.062,212.8L173.825,224.237C173.944,224.516 174.024,224.576 174.243,224.576L175.279,224.576C175.498,224.576 175.678,224.397 175.678,224.177L175.678,211.026Z" style="fill:black;fill-rule:nonzero;"/>
                <path d="M179.802,220.272C179.802,220.152 179.882,220.073 180.002,220.073L186.318,220.073C186.537,220.073 186.717,219.893 186.717,219.674L186.717,218.399C186.717,216.207 184.963,214.414 182.731,214.414C180.34,214.414 178.806,216.107 178.647,218.2C178.587,218.997 178.587,220.192 178.647,220.989C178.806,223.082 180.34,224.775 182.731,224.775C184.804,224.775 186.358,223.52 186.597,221.786C186.637,221.507 186.458,221.388 186.258,221.388L185.86,221.388C185.681,221.388 185.481,221.468 185.402,221.727C185.103,222.663 184.266,223.6 182.731,223.6C180.679,223.6 179.802,222.185 179.802,220.272ZM179.842,218.758C179.842,216.725 180.978,215.589 182.751,215.589C184.385,215.589 185.621,216.725 185.621,218.758C185.621,218.877 185.541,218.957 185.421,218.957L180.041,218.957C179.922,218.957 179.842,218.877 179.842,218.758Z" style="fill:black;fill-rule:nonzero;"/>
                <path d="M193.531,220.591C193.571,220.511 193.651,220.511 193.691,220.591L196.102,224.377C196.162,224.476 196.241,224.576 196.54,224.576L197.018,224.576C197.397,224.576 197.556,224.237 197.337,223.918L194.368,219.395C194.308,219.296 194.289,219.236 194.348,219.136L196.998,215.271C197.218,214.952 197.058,214.613 196.68,214.613L196.241,214.613C195.942,214.613 195.863,214.713 195.803,214.812L193.691,218.1C193.651,218.18 193.571,218.18 193.531,218.1L191.419,214.812C191.359,214.713 191.28,214.613 190.981,214.613L190.542,214.613C190.164,214.613 190.004,214.952 190.224,215.271L192.874,219.136C192.934,219.236 192.914,219.296 192.854,219.395L189.885,223.918C189.666,224.237 189.825,224.576 190.204,224.576L190.682,224.576C190.981,224.576 191.061,224.476 191.12,224.377L193.531,220.591Z" style="fill:black;fill-rule:nonzero;"/>
                <path d="M203.853,216.088C203.853,215.968 203.933,215.888 204.052,215.888L207.36,215.888C207.579,215.888 207.759,215.709 207.759,215.49L207.759,215.111C207.759,214.892 207.579,214.713 207.36,214.713L204.052,214.713C203.933,214.713 203.853,214.633 203.853,214.513L203.853,211.425C203.853,211.206 203.674,211.026 203.454,211.026L203.056,211.026C202.837,211.026 202.657,211.206 202.657,211.425L202.657,214.513C202.657,214.633 202.578,214.713 202.458,214.713L200.246,214.713C200.027,214.713 199.848,214.892 199.848,215.111L199.848,215.49C199.848,215.709 200.027,215.888 200.246,215.888L202.458,215.888C202.578,215.888 202.657,215.968 202.657,216.088L202.657,221.587C202.657,223.341 203.992,224.775 205.746,224.775C207.499,224.775 208.795,223.341 208.795,221.587C208.795,221.368 208.615,221.189 208.396,221.189L207.978,221.189C207.759,221.189 207.579,221.368 207.579,221.587C207.579,222.703 206.882,223.58 205.746,223.58C204.73,223.58 203.853,222.783 203.853,221.388L203.853,216.088Z" style="fill:black;fill-rule:nonzero;"/>
            </g>
        </g>
    </g>
    <g>
        <path d="M264.882,208.364L264.404,208.703C263.347,209.46 262.391,209.859 261.674,209.859C260.737,209.859 260.159,209.121 260.159,207.926C260.159,207.428 260.219,206.89 260.319,206.312C260.657,206.232 262.829,205.634 263.327,205.415C265.021,204.678 265.798,203.761 265.798,202.526C265.798,201.589 265.121,200.972 264.125,200.972C262.77,200.693 260.578,202.147 259.84,203.622C259.243,204.618 258.645,206.989 258.645,208.324C258.645,209.879 259.522,210.795 260.956,210.795C262.092,210.795 263.208,210.237 265.041,208.743L264.882,208.364ZM260.598,205.116C260.936,203.741 261.335,202.885 261.913,202.366C262.271,202.048 262.889,201.809 263.367,201.809C263.945,201.809 264.324,202.207 264.324,202.845C264.324,203.721 263.626,204.658 262.59,205.156C262.032,205.435 261.315,205.654 260.418,205.854L260.598,205.116Z" style="fill:black;fill-rule:nonzero;"/>
        <path d="M267.831,214.242L269.704,214.222L271.696,214.242L271.816,214.123L271.816,213.605L271.736,213.505L270.979,213.505C270.441,213.505 270.003,213.386 269.764,213.186C269.584,213.007 269.524,212.728 269.524,212.07L269.524,198.302C269.524,197.644 269.584,197.345 269.764,197.166C270.003,196.967 270.441,196.847 270.979,196.847L271.736,196.847L271.816,196.747L271.816,196.229L271.696,196.11L269.823,196.17L267.831,196.11C267.751,196.289 267.731,196.508 267.731,196.807C267.731,197.325 267.811,198.062 267.811,199.059L267.811,211.453C267.811,212.808 267.771,213.366 267.651,213.983L267.831,214.242Z" style="fill:black;fill-rule:nonzero;"/>
        <path d="M281.022,210.636L281.022,210.038L279.986,209.978C278.89,209.918 278.69,209.699 278.69,208.663L278.69,196.628L273.888,198.66L274.028,199.657L277.017,198.341L277.017,208.663C277.017,209.699 276.797,209.918 275.721,209.978L274.606,210.038L274.606,210.636C277.674,210.576 277.674,210.576 277.893,210.576C278.511,210.576 280.703,210.636 281.022,210.636Z" style="fill:black;fill-rule:nonzero;"/>
        <path d="M287.518,214.242L287.697,213.983C287.577,213.366 287.538,212.808 287.538,211.453L287.538,199.059C287.538,198.062 287.617,197.325 287.617,196.807C287.617,196.508 287.597,196.289 287.518,196.11L283.652,196.11L283.532,196.229L283.532,196.747L283.612,196.847L284.369,196.847C284.907,196.847 285.346,196.967 285.585,197.166C285.764,197.345 285.824,197.644 285.824,198.302L285.824,212.07C285.824,212.728 285.764,213.007 285.585,213.186C285.346,213.386 284.907,213.505 284.369,213.505L283.612,213.505L283.532,213.605L283.532,214.123L283.652,214.242L287.518,214.242Z" style="fill:black;fill-rule:nonzero;"/>
        <path d="M291.722,208.364C291.124,208.364 290.586,208.922 290.586,209.52C290.586,210.118 291.124,210.676 291.702,210.676C292.34,210.676 292.898,210.138 292.898,209.52C292.898,208.922 292.34,208.364 291.722,208.364Z" style="fill:black;fill-rule:nonzero;"/>
        <path d="M303.678,197.026C303.678,196.807 303.498,196.628 303.279,196.628L302.881,196.628C302.661,196.628 302.482,196.807 302.482,197.026L302.482,208.265C302.482,208.364 302.363,208.384 302.323,208.304L297.56,196.967C297.441,196.688 297.361,196.628 297.142,196.628L296.106,196.628C295.887,196.628 295.707,196.807 295.707,197.026L295.707,210.177C295.707,210.397 295.887,210.576 296.106,210.576L296.504,210.576C296.723,210.576 296.903,210.397 296.903,210.177L296.903,198.84C296.903,198.74 297.022,198.72 297.062,198.8L301.825,210.237C301.944,210.516 302.024,210.576 302.243,210.576L303.279,210.576C303.498,210.576 303.678,210.397 303.678,210.177L303.678,197.026Z" style="fill:black;fill-rule:nonzero;"/>
        <path d="M307.802,206.272C307.802,206.152 307.882,206.073 308.002,206.073L314.318,206.073C314.537,206.073 314.717,205.893 314.717,205.674L314.717,204.399C314.717,202.207 312.963,200.414 310.731,200.414C308.34,200.414 306.806,202.107 306.647,204.2C306.587,204.997 306.587,206.192 306.647,206.989C306.806,209.082 308.34,210.775 310.731,210.775C312.804,210.775 314.358,209.52 314.597,207.786C314.637,207.507 314.458,207.388 314.258,207.388L313.86,207.388C313.681,207.388 313.481,207.468 313.402,207.727C313.103,208.663 312.266,209.6 310.731,209.6C308.679,209.6 307.802,208.185 307.802,206.272ZM307.842,204.758C307.842,202.725 308.978,201.589 310.751,201.589C312.385,201.589 313.621,202.725 313.621,204.758C313.621,204.877 313.541,204.957 313.421,204.957L308.041,204.957C307.922,204.957 307.842,204.877 307.842,204.758Z" style="fill:black;fill-rule:nonzero;"/>
        <path d="M321.531,206.591C321.571,206.511 321.651,206.511 321.691,206.591L324.102,210.377C324.162,210.476 324.241,210.576 324.54,210.576L325.018,210.576C325.397,210.576 325.556,210.237 325.337,209.918L322.368,205.395C322.308,205.296 322.289,205.236 322.348,205.136L324.998,201.271C325.218,200.952 325.058,200.613 324.68,200.613L324.241,200.613C323.942,200.613 323.863,200.713 323.803,200.812L321.691,204.1C321.651,204.18 321.571,204.18 321.531,204.1L319.419,200.812C319.359,200.713 319.28,200.613 318.981,200.613L318.542,200.613C318.164,200.613 318.004,200.952 318.224,201.271L320.874,205.136C320.934,205.236 320.914,205.296 320.854,205.395L317.885,209.918C317.666,210.237 317.825,210.576 318.204,210.576L318.682,210.576C318.981,210.576 319.061,210.476 319.12,210.377L321.531,206.591Z" style="fill:black;fill-rule:nonzero;"/>
        <path d="M331.853,202.088C331.853,201.968 331.933,201.888 332.052,201.888L335.36,201.888C335.579,201.888 335.759,201.709 335.759,201.49L335.759,201.111C335.759,200.892 335.579,200.713 335.36,200.713L332.052,200.713C331.933,200.713 331.853,200.633 331.853,200.513L331.853,197.425C331.853,197.206 331.674,197.026 331.454,197.026L331.056,197.026C330.837,197.026 330.657,197.206 330.657,197.425L330.657,200.513C330.657,200.633 330.578,200.713 330.458,200.713L328.246,200.713C328.027,200.713 327.848,200.892 327.848,201.111L327.848,201.49C327.848,201.709 328.027,201.888 328.246,201.888L330.458,201.888C330.578,201.888 330.657,201.968 330.657,202.088L330.657,207.587C330.657,209.341 331.992,210.775 333.746,210.775C335.499,210.775 336.795,209.341 336.795,207.587C336.795,207.368 336.615,207.189 336.396,207.189L335.978,207.189C335.759,207.189 335.579,207.368 335.579,207.587C335.579,208.703 334.882,209.58 333.746,209.58C332.73,209.58 331.853,208.783 331.853,207.388L331.853,202.088Z" style="fill:black;fill-rule:nonzero;"/>
    </g>
    <g>
        <clipPath id="_clip2">
            <rect x="250.878" y="54.213" width="79" height="19"/>
        </clipPath>
        <g clip-path="url(#_clip2)">
            <g>
                <path d="M257.882,66.364L257.404,66.703C256.347,67.46 255.391,67.859 254.674,67.859C253.737,67.859 253.159,67.121 253.159,65.926C253.159,65.428 253.219,64.89 253.319,64.312C253.657,64.232 255.829,63.634 256.328,63.415C258.021,62.678 258.798,61.761 258.798,60.526C258.798,59.589 258.121,58.972 257.125,58.972C255.77,58.693 253.578,60.147 252.84,61.622C252.243,62.618 251.645,64.989 251.645,66.324C251.645,67.879 252.522,68.795 253.956,68.795C255.092,68.795 256.208,68.237 258.041,66.743L257.882,66.364ZM253.598,63.116C253.936,61.741 254.335,60.885 254.913,60.366C255.271,60.048 255.889,59.809 256.367,59.809C256.945,59.809 257.324,60.207 257.324,60.845C257.324,61.721 256.626,62.658 255.59,63.156C255.032,63.435 254.315,63.654 253.418,63.854L253.598,63.116Z" style="fill:black;fill-rule:nonzero;"/>
                <path d="M260.831,72.242L262.704,72.222L264.696,72.242L264.816,72.123L264.816,71.605L264.736,71.505L263.979,71.505C263.441,71.505 263.003,71.386 262.764,71.186C262.584,71.007 262.524,70.728 262.524,70.07L262.524,56.302C262.524,55.644 262.584,55.345 262.764,55.166C263.003,54.967 263.441,54.847 263.979,54.847L264.736,54.847L264.816,54.747L264.816,54.229L264.696,54.11L262.823,54.17L260.831,54.11C260.751,54.289 260.731,54.508 260.731,54.807C260.731,55.325 260.811,56.062 260.811,57.059L260.811,69.453C260.811,70.808 260.771,71.366 260.651,71.983L260.831,72.242Z" style="fill:black;fill-rule:nonzero;"/>
                <path d="M266.012,68.118L266.012,68.636C269.738,68.636 269.738,68.576 270.455,68.576C271.172,68.576 271.172,68.636 275.018,68.636L275.018,66.942C272.727,67.042 271.81,66.962 268.124,67.042L271.75,63.196C273.683,61.144 274.281,60.048 274.281,58.553C274.281,56.262 272.727,54.847 270.196,54.847C268.761,54.847 267.785,55.246 266.809,56.242L266.47,58.952L267.048,58.952L267.307,58.035C267.626,56.879 268.343,56.381 269.678,56.381C271.392,56.381 272.487,57.457 272.487,59.151C272.487,60.645 271.651,62.12 269.399,64.511L266.012,68.118Z" style="fill:black;fill-rule:nonzero;"/>
                <path d="M280.518,72.242L280.697,71.983C280.577,71.366 280.538,70.808 280.538,69.453L280.538,57.059C280.538,56.062 280.617,55.325 280.617,54.807C280.617,54.508 280.597,54.289 280.518,54.11L276.652,54.11L276.532,54.229L276.532,54.747L276.612,54.847L277.369,54.847C277.907,54.847 278.346,54.967 278.585,55.166C278.764,55.345 278.824,55.644 278.824,56.302L278.824,70.07C278.824,70.728 278.764,71.007 278.585,71.186C278.346,71.386 277.907,71.505 277.369,71.505L276.612,71.505L276.532,71.605L276.532,72.123L276.652,72.242L280.518,72.242Z" style="fill:black;fill-rule:nonzero;"/>
                <path d="M284.722,66.364C284.124,66.364 283.586,66.922 283.586,67.52C283.586,68.118 284.124,68.676 284.702,68.676C285.34,68.676 285.898,68.138 285.898,67.52C285.898,66.922 285.34,66.364 284.722,66.364Z" style="fill:black;fill-rule:nonzero;"/>
                <path d="M296.678,55.026C296.678,54.807 296.498,54.628 296.279,54.628L295.881,54.628C295.661,54.628 295.482,54.807 295.482,55.026L295.482,66.265C295.482,66.364 295.363,66.384 295.323,66.304L290.56,54.967C290.441,54.688 290.361,54.628 290.142,54.628L289.106,54.628C288.887,54.628 288.707,54.807 288.707,55.026L288.707,68.177C288.707,68.397 288.887,68.576 289.106,68.576L289.504,68.576C289.723,68.576 289.903,68.397 289.903,68.177L289.903,56.84C289.903,56.74 290.022,56.72 290.062,56.8L294.825,68.237C294.944,68.516 295.024,68.576 295.243,68.576L296.279,68.576C296.498,68.576 296.678,68.397 296.678,68.177L296.678,55.026Z" style="fill:black;fill-rule:nonzero;"/>
                <path d="M300.802,64.272C300.802,64.152 300.882,64.073 301.002,64.073L307.318,64.073C307.537,64.073 307.717,63.893 307.717,63.674L307.717,62.399C307.717,60.207 305.963,58.414 303.731,58.414C301.34,58.414 299.806,60.107 299.647,62.2C299.587,62.997 299.587,64.192 299.647,64.989C299.806,67.082 301.34,68.775 303.731,68.775C305.804,68.775 307.358,67.52 307.597,65.786C307.637,65.507 307.458,65.388 307.258,65.388L306.86,65.388C306.681,65.388 306.481,65.468 306.402,65.727C306.103,66.663 305.266,67.6 303.731,67.6C301.679,67.6 300.802,66.185 300.802,64.272ZM300.842,62.758C300.842,60.725 301.978,59.589 303.751,59.589C305.385,59.589 306.621,60.725 306.621,62.758C306.621,62.877 306.541,62.957 306.421,62.957L301.041,62.957C300.922,62.957 300.842,62.877 300.842,62.758Z" style="fill:black;fill-rule:nonzero;"/>
                <path d="M314.531,64.591C314.571,64.511 314.651,64.511 314.691,64.591L317.102,68.377C317.162,68.476 317.241,68.576 317.54,68.576L318.018,68.576C318.397,68.576 318.556,68.237 318.337,67.918L315.368,63.395C315.308,63.296 315.289,63.236 315.348,63.136L317.998,59.271C318.218,58.952 318.058,58.613 317.68,58.613L317.241,58.613C316.942,58.613 316.863,58.713 316.803,58.812L314.691,62.1C314.651,62.18 314.571,62.18 314.531,62.1L312.419,58.812C312.359,58.713 312.28,58.613 311.981,58.613L311.542,58.613C311.164,58.613 311.004,58.952 311.224,59.271L313.874,63.136C313.934,63.236 313.914,63.296 313.854,63.395L310.885,67.918C310.666,68.237 310.825,68.576 311.204,68.576L311.682,68.576C311.981,68.576 312.061,68.476 312.12,68.377L314.531,64.591Z" style="fill:black;fill-rule:nonzero;"/>
                <path d="M324.853,60.088C324.853,59.968 324.933,59.888 325.052,59.888L328.36,59.888C328.579,59.888 328.759,59.709 328.759,59.49L328.759,59.111C328.759,58.892 328.579,58.713 328.36,58.713L325.052,58.713C324.933,58.713 324.853,58.633 324.853,58.513L324.853,55.425C324.853,55.206 324.674,55.026 324.454,55.026L324.056,55.026C323.837,55.026 323.657,55.206 323.657,55.425L323.657,58.513C323.657,58.633 323.578,58.713 323.458,58.713L321.246,58.713C321.027,58.713 320.848,58.892 320.848,59.111L320.848,59.49C320.848,59.709 321.027,59.888 321.246,59.888L323.458,59.888C323.578,59.888 323.657,59.968 323.657,60.088L323.657,65.587C323.657,67.341 324.992,68.775 326.746,68.775C328.499,68.775 329.795,67.341 329.795,65.587C329.795,65.368 329.615,65.189 329.396,65.189L328.978,65.189C328.759,65.189 328.579,65.368 328.579,65.587C328.579,66.703 327.882,67.58 326.746,67.58C325.73,67.58 324.853,66.783 324.853,65.388L324.853,60.088Z" style="fill:black;fill-rule:nonzero;"/>
            </g>
        </g>
    </g>
    <g>
        <clipPath id="_clip3">
            <rect x="122.772" y="74.213" width="79" height="19"/>
        </clipPath>
        <g clip-path="url(#_clip3)">
            <g>
                <path d="M129.882,86.364L129.404,86.703C128.347,87.46 127.391,87.859 126.674,87.859C125.737,87.859 125.159,87.121 125.159,85.926C125.159,85.428 125.219,84.89 125.319,84.312C125.657,84.232 127.829,83.634 128.327,83.415C130.021,82.678 130.798,81.761 130.798,80.526C130.798,79.589 130.121,78.972 129.125,78.972C127.77,78.693 125.578,80.147 124.84,81.622C124.243,82.618 123.645,84.989 123.645,86.324C123.645,87.879 124.522,88.795 125.956,88.795C127.092,88.795 128.208,88.237 130.041,86.743L129.882,86.364ZM125.598,83.116C125.936,81.741 126.335,80.885 126.913,80.366C127.271,80.048 127.889,79.809 128.367,79.809C128.945,79.809 129.324,80.207 129.324,80.845C129.324,81.721 128.626,82.658 127.59,83.156C127.032,83.435 126.315,83.654 125.418,83.854L125.598,83.116Z" style="fill:black;fill-rule:nonzero;"/>
                <path d="M132.831,92.242L134.704,92.222L136.696,92.242L136.816,92.123L136.816,91.605L136.736,91.505L135.979,91.505C135.441,91.505 135.003,91.386 134.764,91.186C134.584,91.007 134.524,90.728 134.524,90.07L134.524,76.302C134.524,75.644 134.584,75.345 134.764,75.166C135.003,74.967 135.441,74.847 135.979,74.847L136.736,74.847L136.816,74.747L136.816,74.229L136.696,74.11L134.823,74.17L132.831,74.11C132.751,74.289 132.731,74.508 132.731,74.807C132.731,75.325 132.811,76.062 132.811,77.059L132.811,89.453C132.811,90.808 132.771,91.366 132.651,91.983L132.831,92.242Z" style="fill:black;fill-rule:nonzero;"/>
                <path d="M146.899,84.113C146.899,81.702 144.766,81.283 143.83,81.124C145.424,79.888 146.022,78.972 146.022,77.796C146.022,76.023 144.547,74.847 142.335,74.847C140.981,74.847 140.084,75.226 139.127,76.182L138.55,78.653L139.167,78.653L139.526,77.537C139.745,76.86 141,76.182 142.037,76.182C143.332,76.182 144.388,77.238 144.388,78.493C144.388,79.988 143.212,81.243 141.797,81.243C141.638,81.243 141.419,81.223 141.16,81.203L140.861,81.183L140.622,82.24L140.761,82.359C141.519,82.02 141.897,81.921 142.435,81.921C144.089,81.921 145.045,82.977 145.045,84.79C145.045,86.823 143.83,88.158 141.977,88.158C141.06,88.158 140.243,87.859 139.645,87.301C139.167,86.862 138.908,86.404 138.53,85.328L137.992,85.527C138.41,86.743 138.569,87.46 138.689,88.456C139.745,88.815 140.622,88.975 141.359,88.975C143.81,88.975 146.899,86.842 146.899,84.113Z" style="fill:black;fill-rule:nonzero;"/>
                <path d="M152.518,92.242L152.697,91.983C152.577,91.366 152.538,90.808 152.538,89.453L152.538,77.059C152.538,76.062 152.617,75.325 152.617,74.807C152.617,74.508 152.597,74.289 152.518,74.11L148.652,74.11L148.532,74.229L148.532,74.747L148.612,74.847L149.369,74.847C149.907,74.847 150.346,74.967 150.585,75.166C150.764,75.345 150.824,75.644 150.824,76.302L150.824,90.07C150.824,90.728 150.764,91.007 150.585,91.186C150.346,91.386 149.907,91.505 149.369,91.505L148.612,91.505L148.532,91.605L148.532,92.123L148.652,92.242L152.518,92.242Z" style="fill:black;fill-rule:nonzero;"/>
                <path d="M156.722,86.364C156.124,86.364 155.586,86.922 155.586,87.52C155.586,88.118 156.124,88.676 156.702,88.676C157.34,88.676 157.898,88.138 157.898,87.52C157.898,86.922 157.34,86.364 156.722,86.364Z" style="fill:black;fill-rule:nonzero;"/>
                <path d="M168.678,75.026C168.678,74.807 168.498,74.628 168.279,74.628L167.881,74.628C167.661,74.628 167.482,74.807 167.482,75.026L167.482,86.265C167.482,86.364 167.363,86.384 167.323,86.304L162.56,74.967C162.441,74.688 162.361,74.628 162.142,74.628L161.106,74.628C160.887,74.628 160.707,74.807 160.707,75.026L160.707,88.177C160.707,88.397 160.887,88.576 161.106,88.576L161.504,88.576C161.723,88.576 161.903,88.397 161.903,88.177L161.903,76.84C161.903,76.74 162.022,76.72 162.062,76.8L166.825,88.237C166.944,88.516 167.024,88.576 167.243,88.576L168.279,88.576C168.498,88.576 168.678,88.397 168.678,88.177L168.678,75.026Z" style="fill:black;fill-rule:nonzero;"/>
                <path d="M172.802,84.272C172.802,84.152 172.882,84.073 173.002,84.073L179.318,84.073C179.537,84.073 179.717,83.893 179.717,83.674L179.717,82.399C179.717,80.207 177.963,78.414 175.731,78.414C173.34,78.414 171.806,80.107 171.647,82.2C171.587,82.997 171.587,84.192 171.647,84.989C171.806,87.082 173.34,88.775 175.731,88.775C177.804,88.775 179.358,87.52 179.597,85.786C179.637,85.507 179.458,85.388 179.258,85.388L178.86,85.388C178.681,85.388 178.481,85.468 178.402,85.727C178.103,86.663 177.266,87.6 175.731,87.6C173.679,87.6 172.802,86.185 172.802,84.272ZM172.842,82.758C172.842,80.725 173.978,79.589 175.751,79.589C177.385,79.589 178.621,80.725 178.621,82.758C178.621,82.877 178.541,82.957 178.421,82.957L173.041,82.957C172.922,82.957 172.842,82.877 172.842,82.758Z" style="fill:black;fill-rule:nonzero;"/>
                <path d="M186.531,84.591C186.571,84.511 186.651,84.511 186.691,84.591L189.102,88.377C189.162,88.476 189.241,88.576 189.54,88.576L190.018,88.576C190.397,88.576 190.556,88.237 190.337,87.918L187.368,83.395C187.308,83.296 187.289,83.236 187.348,83.136L189.998,79.271C190.218,78.952 190.058,78.613 189.68,78.613L189.241,78.613C188.942,78.613 188.863,78.713 188.803,78.812L186.691,82.1C186.651,82.18 186.571,82.18 186.531,82.1L184.419,78.812C184.359,78.713 184.28,78.613 183.981,78.613L183.542,78.613C183.164,78.613 183.004,78.952 183.224,79.271L185.874,83.136C185.934,83.236 185.914,83.296 185.854,83.395L182.885,87.918C182.666,88.237 182.825,88.576 183.204,88.576L183.682,88.576C183.981,88.576 184.061,88.476 184.12,88.377L186.531,84.591Z" style="fill:black;fill-rule:nonzero;"/>
                <path d="M196.853,80.088C196.853,79.968 196.933,79.888 197.052,79.888L200.36,79.888C200.579,79.888 200.759,79.709 200.759,79.49L200.759,79.111C200.759,78.892 200.579,78.713 200.36,78.713L197.052,78.713C196.933,78.713 196.853,78.633 196.853,78.513L196.853,75.425C196.853,75.206 196.674,75.026 196.454,75.026L196.056,75.026C195.837,75.026 195.657,75.206 195.657,75.425L195.657,78.513C195.657,78.633 195.578,78.713 195.458,78.713L193.246,78.713C193.027,78.713 192.848,78.892 192.848,79.111L192.848,79.49C192.848,79.709 193.027,79.888 193.246,79.888L195.458,79.888C195.578,79.888 195.657,79.968 195.657,80.088L195.657,85.587C195.657,87.341 196.992,88.775 198.746,88.775C200.499,88.775 201.795,87.341 201.795,85.587C201.795,85.368 201.615,85.189 201.396,85.189L200.978,85.189C200.759,85.189 200.579,85.368 200.579,85.587C200.579,86.703 199.882,87.58 198.746,87.58C197.73,87.58 196.853,86.783 196.853,85.388L196.853,80.088Z" style="fill:black;fill-rule:nonzero;"/>
            </g>
        </g>
    </g>
</svg>
