<?xml version="1.0" standalone="no"?>
<!DOCTYPE svg PUBLIC "-//W3C//DTD SVG 1.1//EN" "http://www.w3.org/Graphics/SVG/1.1/DTD/svg11.dtd">
<svg width="100%" height="100%" viewBox="0 0 224 186" version="1.1" xmlns="http://www.w3.org/2000/svg" xmlns:xlink="http://www.w3.org/1999/xlink" xml:space="preserve" style="fill-rule:evenodd;clip-rule:evenodd;stroke-linejoin:round;stroke-miterlimit:10;">
    <clipPath id="_clip1">
        <path d="M0,0L0,186L224,186L224,0L0,0ZM84.499,136.086L93.821,134.259L91.995,125L82.672,126.826L91.05,130.039L84.499,136.086Z"/>
    </clipPath>
    <g clip-path="url(#_clip1)">
        <path d="M1.415,147.865L91.995,129.85" style="fill:none;stroke-width:0.94px;stroke:rgb(112,112,112);"/>
    </g>
    <path d="M84.499,136.086L91.05,130.039L82.672,126.826" style="fill:none;stroke-width:0.94px;stroke-linejoin:miter;stroke:rgb(112,112,112);"/>
    <clipPath id="_clip2">
        <path d="M0,0L0,186L224,186L224,0L0,0ZM11.934,154.668L2.675,156.684L4.691,165.943L13.95,163.927L5.572,160.967L11.934,154.668Z"/>
    </clipPath>
    <g clip-path="url(#_clip2)">
        <path d="M95.018,141.251L4.627,161.156" style="fill:none;stroke-width:0.94px;stroke:rgb(112,112,112);"/>
    </g>
    <path d="M11.934,154.668L5.572,160.967L13.95,163.927" style="fill:none;stroke-width:0.94px;stroke-linejoin:miter;stroke:rgb(112,112,112);"/>
    <clipPath id="_clip3">
        <path d="M0,0L0,186L224,186L224,0L0,0ZM87.522,10.61L86.766,1.224L77.381,1.917L78.074,11.366L82.231,3.492L87.522,10.61Z"/>
    </clipPath>
    <g clip-path="url(#_clip3)">
        <path d="M91.995,129.85L82.168,2.547" style="fill:none;stroke-width:0.94px;stroke:rgb(112,112,112);"/>
    </g>
    <path d="M87.522,10.61L82.231,3.492L78.074,11.366" style="fill:none;stroke-width:0.94px;stroke-linejoin:miter;stroke:rgb(112,112,112);"/>
    <clipPath id="_clip4">
        <path d="M0,0L0,186L224,186L224,0L0,0ZM103.711,10.043L103.27,0.595L93.821,1.035L94.325,10.484L98.672,2.736L103.711,10.043Z"/>
    </clipPath>
    <g clip-path="url(#_clip4)">
        <path d="M104.907,129.346L98.609,1.791" style="fill:none;stroke-width:0.94px;stroke:black;"/>
    </g>
    <path d="M103.711,10.043L98.672,2.736L94.325,10.484" style="fill:none;stroke-width:0.94px;stroke-linejoin:miter;stroke:black;"/>
    <clipPath id="_clip5">
        <path d="M0,0L0,186L224,186L224,0L0,0ZM114.293,131.802L107.49,125.252L100.939,132.054L107.742,138.606L105.6,129.976L114.293,131.802Z"/>
    </clipPath>
    <g clip-path="url(#_clip5)">
        <path d="M143.205,166.321L104.907,129.346" style="fill:none;stroke-width:0.94px;stroke:black;"/>
    </g>
    <path d="M114.293,131.802L105.6,129.976L107.742,138.605" style="fill:none;stroke-width:0.94px;stroke-linejoin:miter;stroke:black;"/>
    <clipPath id="_clip6">
        <path d="M0,0L0,186L224,186L224,0L0,0ZM104.152,144.527L97.916,137.409L90.798,143.582L96.971,150.7L95.648,141.944L104.152,144.527Z"/>
    </clipPath>
    <g clip-path="url(#_clip6)">
        <path d="M129.726,181.313L95.018,141.251" style="fill:none;stroke-width:0.94px;stroke:rgb(112,112,112);"/>
    </g>
    <path d="M104.152,144.527L95.648,141.944L96.971,150.7" style="fill:none;stroke-width:0.94px;stroke-linejoin:miter;stroke:rgb(112,112,112);"/>
    <clipPath id="_clip7">
        <path d="M0,0L0,186L224,186L224,0L0,0ZM147.111,22.011L139.993,15.838L133.82,23.019L140.938,29.192L138.355,20.688L147.111,22.011Z"/>
    </clipPath>
    <g clip-path="url(#_clip7)">
        <path d="M222.447,93.127L137.662,20.058" style="fill:none;stroke-width:0.94px;stroke:rgb(112,112,112);"/>
    </g>
    <path d="M147.111,22.011L138.355,20.688L140.938,29.192" style="fill:none;stroke-width:0.94px;stroke-linejoin:miter;stroke:rgb(112,112,112);"/>
    <clipPath id="_clip8">
        <path d="M0,0L0,186L224,186L224,0L0,0ZM1.352,138.102L-3.12,146.353L5.068,150.952L9.604,142.7L1.856,147.046L1.352,138.102Z"/>
    </clipPath>
    <g clip-path="url(#_clip8)">
        <path d="M82.168,2.547L1.415,147.865" style="fill:none;stroke-width:0.94px;stroke:rgb(112,112,112);"/>
    </g>
    <path d="M1.352,138.102L1.856,147.046L9.604,142.7" style="fill:none;stroke-width:0.94px;stroke-linejoin:miter;stroke:rgb(112,112,112);"/>
    <clipPath id="_clip9">
        <path d="M0,0L0,186L224,186L224,0L0,0ZM120.529,184.588L129.852,186.1L131.363,176.777L122.041,175.266L128.781,181.187L120.529,184.588Z"/>
    </clipPath>
    <g clip-path="url(#_clip9)">
        <path d="M4.627,161.156L129.726,181.313" style="fill:none;stroke-width:0.94px;stroke:rgb(112,112,112);"/>
    </g>
    <path d="M120.529,184.588L128.781,181.187L122.041,175.266" style="fill:none;stroke-width:0.94px;stroke-linejoin:miter;stroke:rgb(112,112,112);"/>
    <clipPath id="_clip10">
        <path d="M0,0L0,186L224,186L224,0L0,0ZM136.402,159.329L138.859,168.463L147.993,165.943L145.473,156.873L142.954,165.439L136.402,159.329Z"/>
    </clipPath>
    <g clip-path="url(#_clip10)">
        <path d="M98.609,1.791L143.205,166.321" style="fill:none;stroke-width:0.94px;stroke:black;"/>
    </g>
    <path d="M136.402,159.329L142.954,165.439L145.473,156.873" style="fill:none;stroke-width:0.94px;stroke-linejoin:miter;stroke:black;"/>
    <path d="M45.073,134.456L45.073,135.08C49.561,135.08 49.561,135.008 50.425,135.008C51.289,135.008 51.289,135.08 55.921,135.08L55.921,133.04C53.161,133.16 52.057,133.064 47.617,133.16L51.985,128.528C54.313,126.056 55.033,124.736 55.033,122.936C55.033,120.176 53.161,118.472 50.113,118.472C48.385,118.472 47.209,118.952 46.033,120.152L45.625,123.416L46.321,123.416L46.633,122.312C47.017,120.92 47.881,120.32 49.489,120.32C51.553,120.32 52.873,121.616 52.873,123.656C52.873,125.456 51.865,127.232 49.153,130.112L45.073,134.456Z" style="fill:black;fill-rule:nonzero;"/>
    <path d="M138.536,92.524L138.536,91.804L137.432,91.732C136.616,91.684 136.544,91.516 136.544,90.004L136.544,75.22L136.328,75.028C135.272,75.436 134.48,75.628 132.584,75.916L132.584,76.588L133.928,76.588C134.36,76.588 134.528,76.852 134.528,77.572L134.528,81.964C133.856,81.124 132.944,80.788 131.984,80.788C129.032,80.788 125.456,84.028 125.456,86.956C125.456,88.876 126.128,90.772 127.304,91.732C128.12,92.428 129.248,92.74 130.808,92.74C131.288,92.74 131.84,92.644 131.96,92.548L134.624,90.316L134.504,92.524C135.68,92.476 136.064,92.452 136.352,92.452C136.784,92.452 138.32,92.524 138.536,92.524ZM134.528,84.052L134.528,87.148C134.528,88.708 134.48,88.948 134.168,89.5C133.496,90.628 132.32,91.372 131.192,91.372C129.08,91.372 127.568,89.332 127.568,86.476C127.568,83.86 128.864,82.324 131.024,82.324C132.92,82.324 134.528,83.668 134.528,84.052Z" style="fill:black;fill-rule:nonzero;"/>
    <g>
        <path d="M39.662,71.3L39.662,70.58L38.414,70.508C37.094,70.436 36.854,70.172 36.854,68.924L36.854,54.428L31.07,56.876L31.238,58.076L34.838,56.492L34.838,68.924C34.838,70.172 34.574,70.436 33.278,70.508L31.934,70.58L31.934,71.3C35.63,71.228 35.63,71.228 35.894,71.228C36.638,71.228 39.278,71.3 39.662,71.3Z" style="fill:black;fill-rule:nonzero;"/>
        <path d="M85.369,75.09C85.369,72.186 82.801,71.682 81.673,71.49C83.593,70.002 84.313,68.898 84.313,67.482C84.313,65.346 82.537,63.93 79.873,63.93C78.241,63.93 77.161,64.386 76.009,65.538L75.313,68.514L76.057,68.514L76.489,67.17C76.753,66.354 78.265,65.538 79.513,65.538C81.073,65.538 82.345,66.81 82.345,68.322C82.345,70.122 80.929,71.634 79.225,71.634C79.033,71.634 78.769,71.61 78.457,71.586L78.097,71.562L77.809,72.834L77.977,72.978C78.889,72.57 79.345,72.45 79.993,72.45C81.985,72.45 83.137,73.722 83.137,75.906C83.137,78.354 81.673,79.962 79.441,79.962C78.337,79.962 77.353,79.602 76.633,78.93C76.057,78.402 75.745,77.85 75.289,76.554L74.641,76.794C75.145,78.258 75.337,79.122 75.481,80.322C76.753,80.754 77.809,80.946 78.697,80.946C81.649,80.946 85.369,78.378 85.369,75.09Z" style="fill:black;fill-rule:nonzero;"/>
    </g>
    <path d="M192.807,48.217C192.807,45.505 190.863,43.585 188.127,43.585C186.975,43.585 186.111,43.657 184.839,44.785L184.839,39.769L192.159,39.793L192.159,37.753L183.591,37.729L183.591,46.561L184.071,46.705C185.199,45.577 185.847,45.241 187.023,45.241C189.327,45.241 190.767,46.873 190.767,49.465C190.767,52.129 189.231,53.689 186.615,53.689C185.319,53.689 184.119,53.257 183.783,52.633L182.679,50.665L182.103,51.001C182.655,52.369 182.943,53.137 183.279,54.193C183.951,54.553 184.911,54.769 185.943,54.769C189.015,54.769 192.807,52.153 192.807,48.217Z" style="fill:black;fill-rule:nonzero;"/>
    <path d="M99.324,164.009L99.324,165.809C99.324,167.249 99.06,167.585 97.884,167.633L96.396,167.705L96.396,168.425C99.588,168.353 99.588,168.353 100.164,168.353C100.74,168.353 100.74,168.353 103.932,168.425L103.932,167.705L102.78,167.633C101.604,167.561 101.34,167.249 101.34,165.809L101.34,164.009C102.756,164.009 103.26,164.033 103.932,164.105L103.932,162.401L101.34,162.473L101.364,151.625L99.444,152.345L92.652,163.457L92.652,164.009L99.324,164.009ZM99.324,162.473L94.164,162.473L99.324,154.025L99.324,162.473Z" style="fill:black;fill-rule:nonzero;"/>
</svg>
