<?xml version="1.0" standalone="no"?>
<!DOCTYPE svg PUBLIC "-//W3C//DTD SVG 1.1//EN" "http://www.w3.org/Graphics/SVG/1.1/DTD/svg11.dtd">
<svg width="100%" height="100%" viewBox="0 0 229 191" version="1.1" xmlns="http://www.w3.org/2000/svg" xmlns:xlink="http://www.w3.org/1999/xlink" xml:space="preserve" style="fill-rule:evenodd;clip-rule:evenodd;stroke-linejoin:round;stroke-miterlimit:10;">
    <path d="M167.268,114.063L170.543,125.779" style="fill:none;stroke-width:0.94px;stroke:rgb(128,128,128);"/>
    <clipPath id="_clip1">
        <path d="M0,0L0,191L229,191L229,0L0,0ZM215.581,104.993L224.652,102.347L222.006,93.277L212.936,95.922L221.565,98.379L215.581,104.993Z"/>
    </clipPath>
    <g clip-path="url(#_clip1)">
        <path d="M116.12,128.803L222.447,98.127" style="fill:none;stroke-width:0.94px;stroke:black;"/>
    </g>
    <path d="M215.581,104.993L221.565,98.378L212.936,95.922" style="fill:none;stroke-width:0.94px;stroke-linejoin:miter;stroke:black;"/>
    <clipPath id="_clip2">
        <path d="M0,0L0,191L229,191L229,0L0,0ZM126.009,133.275L116.939,135.795L119.458,144.928L128.529,142.346L120.025,139.889L126.009,133.275Z"/>
    </clipPath>
    <g clip-path="url(#_clip2)">
        <path d="M225.974,110.284L119.143,140.141" style="fill:none;stroke-width:0.94px;stroke:black;"/>
    </g>
    <path d="M126.009,133.275L120.025,139.889L128.529,142.346" style="fill:none;stroke-width:0.94px;stroke-linejoin:miter;stroke:black;"/>
    <path d="M50.106,143.164L53.193,155.448" style="fill:none;stroke-width:0.94px;stroke:rgb(128,128,128);"/>
    <clipPath id="_clip3">
        <path d="M0,0L0,191L229,191L229,0L0,0ZM84.499,141.086L93.821,139.259L91.995,130L82.672,131.826L91.05,135.039L84.499,141.086Z"/>
    </clipPath>
    <g clip-path="url(#_clip3)">
        <path d="M1.415,152.865L91.995,134.85" style="fill:none;stroke-width:0.94px;stroke:black;"/>
    </g>
    <path d="M84.499,141.086L91.05,135.039L82.672,131.826" style="fill:none;stroke-width:0.94px;stroke-linejoin:miter;stroke:black;"/>
    <path d="M113.789,70.852L107.616,75.45" style="fill:none;stroke-width:0.94px;stroke:rgb(128,128,128);"/>
    <clipPath id="_clip4">
        <path d="M0,0L0,191L229,191L229,0L0,0ZM11.934,159.668L2.675,161.684L4.691,170.943L13.95,168.927L5.572,165.967L11.934,159.668Z"/>
    </clipPath>
    <g clip-path="url(#_clip4)">
        <path d="M95.018,146.251L4.627,166.156" style="fill:none;stroke-width:0.94px;stroke:black;"/>
    </g>
    <path d="M11.934,159.668L5.572,165.967L13.95,168.927" style="fill:none;stroke-width:0.94px;stroke-linejoin:miter;stroke:black;"/>
    <clipPath id="_clip5">
        <path d="M0,0L0,191L229,191L229,0L0,0ZM111.018,120.488L111.395,129.937L120.844,129.496L120.466,120.11L116.057,127.858L111.018,120.488Z"/>
    </clipPath>
    <g clip-path="url(#_clip5)">
        <path d="M110.955,1.815L116.12,128.803" style="fill:none;stroke-width:0.94px;stroke:black;"/>
    </g>
    <path d="M111.018,120.488L116.057,127.858L120.466,120.11" style="fill:none;stroke-width:0.94px;stroke-linejoin:miter;stroke:black;"/>
    <path d="M97.097,77.907L87.522,76.773" style="fill:none;stroke-width:0.94px;stroke:rgb(128,128,128);"/>
    <clipPath id="_clip6">
        <path d="M0,0L0,191L229,191L229,0L0,0ZM87.522,15.61L86.766,6.224L77.381,6.917L78.074,16.366L82.231,8.492L87.522,15.61Z"/>
    </clipPath>
    <g clip-path="url(#_clip6)">
        <path d="M91.995,134.85L82.168,7.547" style="fill:none;stroke-width:0.94px;stroke:black;"/>
    </g>
    <path d="M87.522,15.61L82.231,8.492L78.074,16.366" style="fill:none;stroke-width:0.94px;stroke-linejoin:miter;stroke:black;"/>
    <clipPath id="_clip7">
        <path d="M0,0L0,191L229,191L229,0L0,0ZM109.317,14.35L108.876,4.902L99.427,5.343L99.931,14.791L104.278,7.043L109.317,14.35Z"/>
    </clipPath>
    <g clip-path="url(#_clip7)">
        <path d="M110.514,133.653L104.214,6.098" style="fill:none;stroke-width:0.94px;stroke:black;"/>
    </g>
    <path d="M109.317,14.35L104.278,7.043L99.931,14.791" style="fill:none;stroke-width:0.94px;stroke-linejoin:miter;stroke:black;"/>
    <path d="M137.032,157.274L127.647,150.219" style="fill:none;stroke-width:0.94px;stroke:rgb(128,128,128);"/>
    <clipPath id="_clip8">
        <path d="M0,0L0,191L229,191L229,0L0,0ZM95.522,127.858L96.152,137.243L105.538,136.677L104.971,127.228L100.75,135.102L95.522,127.858Z"/>
    </clipPath>
    <g clip-path="url(#_clip8)">
        <path d="M92.625,8.429L100.813,136.046" style="fill:none;stroke-width:0.94px;stroke:black;"/>
    </g>
    <path d="M95.522,127.858L100.75,135.102L104.971,127.228" style="fill:none;stroke-width:0.94px;stroke-linejoin:miter;stroke:black;"/>
    <clipPath id="_clip9">
        <path d="M0,0L0,191L229,191L229,0L0,0ZM149.63,175.856L156.496,182.344L162.984,175.541L156.181,168.99L158.386,177.683L149.63,175.856Z"/>
    </clipPath>
    <g clip-path="url(#_clip9)">
        <path d="M119.143,140.141L159.079,178.313" style="fill:none;stroke-width:0.94px;stroke:black;"/>
    </g>
    <path d="M149.63,175.856L158.386,177.683L156.181,168.99" style="fill:none;stroke-width:0.94px;stroke-linejoin:miter;stroke:black;"/>
    <path d="M117.064,152.928L110.577,164.203" style="fill:none;stroke-width:0.94px;stroke:rgb(128,128,128);"/>
    <clipPath id="_clip10">
        <path d="M0,0L0,191L229,191L229,0L0,0ZM119.899,136.11L113.096,129.559L106.545,136.362L113.348,142.913L111.207,134.283L119.899,136.11Z"/>
    </clipPath>
    <g clip-path="url(#_clip10)">
        <path d="M148.812,170.628L110.514,133.653" style="fill:none;stroke-width:0.94px;stroke:black;"/>
    </g>
    <path d="M119.899,136.11L111.207,134.283L113.348,142.913" style="fill:none;stroke-width:0.94px;stroke-linejoin:miter;stroke:black;"/>
    <clipPath id="_clip11">
        <path d="M0,0L0,191L229,191L229,0L0,0ZM104.152,149.527L97.916,142.409L90.798,148.582L96.971,155.7L95.648,146.944L104.152,149.527Z"/>
    </clipPath>
    <g clip-path="url(#_clip11)">
        <path d="M129.726,186.313L95.018,146.251" style="fill:none;stroke-width:0.94px;stroke:black;"/>
    </g>
    <path d="M104.152,149.527L95.648,146.944L96.971,155.7" style="fill:none;stroke-width:0.94px;stroke-linejoin:miter;stroke:black;"/>
    <clipPath id="_clip12">
        <path d="M0,0L0,191L229,191L229,0L0,0ZM127.71,170.88L134.261,177.683L141.064,171.132L134.576,164.329L136.402,173.085L127.71,170.88Z"/>
    </clipPath>
    <g clip-path="url(#_clip12)">
        <path d="M100.813,136.046L137.032,173.778" style="fill:none;stroke-width:0.94px;stroke:black;"/>
    </g>
    <path d="M127.71,170.88L136.402,173.085L134.576,164.329" style="fill:none;stroke-width:0.94px;stroke-linejoin:miter;stroke:black;"/>
    <clipPath id="_clip13">
        <path d="M0,0L0,191L229,191L229,0L0,0ZM120.403,3.768L113.285,-2.343L107.112,4.712L114.23,10.948L111.648,2.445L120.403,3.768Z"/>
    </clipPath>
    <g clip-path="url(#_clip13)">
        <path d="M222.447,98.127L110.955,1.815" style="fill:none;stroke-width:0.94px;stroke:black;"/>
    </g>
    <path d="M120.403,3.768L111.648,2.445L114.23,10.948" style="fill:none;stroke-width:0.94px;stroke-linejoin:miter;stroke:black;"/>
    <path d="M169.472,52.333L173.504,53.719" style="fill:none;stroke-width:0.94px;stroke:rgb(128,128,128);"/>
    <clipPath id="_clip14">
        <path d="M0,0L0,191L229,191L229,0L0,0ZM217.66,98.253L224.777,104.426L230.95,97.308L223.833,91.072L226.478,99.638L217.66,98.253Z"/>
    </clipPath>
    <g clip-path="url(#_clip14)">
        <path d="M114.104,2.256L227.171,100.268" style="fill:none;stroke-width:0.94px;stroke:black;"/>
    </g>
    <path d="M217.66,98.253L226.478,99.638L223.833,91.072" style="fill:none;stroke-width:0.94px;stroke-linejoin:miter;stroke:black;"/>
    <clipPath id="_clip15">
        <path d="M0,0L0,191L229,191L229,0L0,0ZM223.392,119.669L229.943,112.866L223.266,106.252L216.652,112.992L225.345,110.977L223.392,119.669Z"/>
    </clipPath>
    <g clip-path="url(#_clip15)">
        <path d="M159.079,178.313L225.974,110.284" style="fill:none;stroke-width:0.94px;stroke:black;"/>
    </g>
    <path d="M223.392,119.669L225.345,110.977L216.652,112.992" style="fill:none;stroke-width:0.94px;stroke-linejoin:miter;stroke:black;"/>
    <path d="M195.55,131.826L194.731,142.031" style="fill:none;stroke-width:0.94px;stroke:rgb(128,128,128);"/>
    <clipPath id="_clip16">
        <path d="M0,0L0,191L229,191L229,0L0,0ZM161.977,158.597L155.3,165.274L161.977,171.951L168.654,165.274L160.024,167.29L161.977,158.597Z"/>
    </clipPath>
    <g clip-path="url(#_clip16)">
        <path d="M227.171,100.268L159.331,167.982" style="fill:none;stroke-width:0.94px;stroke:black;"/>
    </g>
    <path d="M161.977,158.597L160.024,167.29L168.654,165.274" style="fill:none;stroke-width:0.94px;stroke-linejoin:miter;stroke:black;"/>
    <clipPath id="_clip17">
        <path d="M0,0L0,191L229,191L229,0L0,0ZM1.352,143.102L-3.12,151.353L5.068,155.952L9.604,147.7L1.856,152.046L1.352,143.102Z"/>
    </clipPath>
    <g clip-path="url(#_clip17)">
        <path d="M82.168,7.547L1.415,152.865" style="fill:none;stroke-width:0.94px;stroke:black;"/>
    </g>
    <path d="M1.352,143.102L1.856,152.046L9.604,147.7" style="fill:none;stroke-width:0.94px;stroke-linejoin:miter;stroke:black;"/>
    <path d="M43.051,83.135L41.225,81.182" style="fill:none;stroke-width:0.94px;stroke:rgb(128,128,128);"/>
    <clipPath id="_clip18">
        <path d="M0,0L0,191L229,191L229,0L0,0ZM84.751,17.877L89.286,9.626L81.034,5.027L76.499,13.279L84.31,8.996L84.751,17.877Z"/>
    </clipPath>
    <g clip-path="url(#_clip18)">
        <path d="M2.423,156.141L84.751,8.177" style="fill:none;stroke-width:0.94px;stroke:black;"/>
    </g>
    <path d="M84.751,17.877L84.31,8.996L76.499,13.279" style="fill:none;stroke-width:0.94px;stroke-linejoin:miter;stroke:black;"/>
    <clipPath id="_clip19">
        <path d="M0,0L0,191L229,191L229,0L0,0ZM120.529,189.588L129.852,191.1L131.363,181.777L122.041,180.266L128.781,186.187L120.529,189.588Z"/>
    </clipPath>
    <g clip-path="url(#_clip19)">
        <path d="M4.627,166.156L129.726,186.313" style="fill:none;stroke-width:0.94px;stroke:black;"/>
    </g>
    <path d="M120.529,189.588L128.781,186.187L122.041,180.266" style="fill:none;stroke-width:0.94px;stroke-linejoin:miter;stroke:black;"/>
    <path d="M64.027,165.778L65.287,175.919" style="fill:none;stroke-width:0.94px;stroke:rgb(128,128,128);"/>
    <clipPath id="_clip20">
        <path d="M0,0L0,191L229,191L229,0L0,0ZM142.009,163.636L144.465,172.77L153.599,170.25L151.079,161.18L148.56,169.747L142.009,163.636Z"/>
    </clipPath>
    <g clip-path="url(#_clip20)">
        <path d="M104.214,6.098L148.812,170.628" style="fill:none;stroke-width:0.94px;stroke:black;"/>
    </g>
    <path d="M142.009,163.636L148.56,169.746L151.079,161.18" style="fill:none;stroke-width:0.94px;stroke-linejoin:miter;stroke:black;"/>
    <path d="M136.339,83.765L126.135,86.977" style="fill:none;stroke-width:0.94px;stroke:rgb(128,128,128);"/>
    <clipPath id="_clip21">
        <path d="M0,0L0,191L229,191L229,0L0,0ZM99.365,15.358L96.908,6.287L87.774,8.681L90.231,17.814L92.877,9.311L99.365,15.358Z"/>
    </clipPath>
    <g clip-path="url(#_clip21)">
        <path d="M137.032,173.778L92.625,8.429" style="fill:none;stroke-width:0.94px;stroke:black;"/>
    </g>
    <path d="M99.365,15.358L92.877,9.311L90.231,17.814" style="fill:none;stroke-width:0.94px;stroke-linejoin:miter;stroke:black;"/>
    <clipPath id="_clip22">
        <path d="M0,0L0,191L229,191L229,0L0,0ZM11.556,152.739L2.171,151.29L0.785,160.613L10.045,162.061L3.368,156.266L11.556,152.739Z"/>
    </clipPath>
    <g clip-path="url(#_clip22)">
        <path d="M129.537,175.982L2.423,156.141" style="fill:none;stroke-width:0.94px;stroke:black;"/>
    </g>
    <path d="M11.556,152.739L3.368,156.266L10.045,162.061" style="fill:none;stroke-width:0.94px;stroke-linejoin:miter;stroke:black;"/>
    <clipPath id="_clip23">
        <path d="M0,0L0,191L229,191L229,0L0,0ZM120.844,9.185L118.388,0.114L109.254,2.571L111.773,11.641L114.356,3.138L120.844,9.185Z"/>
    </clipPath>
    <g clip-path="url(#_clip23)">
        <path d="M159.331,167.982L114.104,2.256" style="fill:none;stroke-width:0.94px;stroke:black;"/>
    </g>
    <path d="M120.844,9.185L114.356,3.138L111.773,11.641" style="fill:none;stroke-width:0.94px;stroke-linejoin:miter;stroke:black;"/>
    <path d="M106.734,90.694L114.482,89.686" style="fill:none;stroke-width:0.94px;stroke:rgb(128,128,128);"/>
    <clipPath id="_clip24">
        <path d="M0,0L0,191L229,191L229,0L0,0ZM122.734,168.99L125.19,178.061L134.324,175.667L131.867,166.534L129.285,175.1L122.734,168.99Z"/>
    </clipPath>
    <g clip-path="url(#_clip24)">
        <path d="M84.751,8.177L129.537,175.982" style="fill:none;stroke-width:0.94px;stroke:black;"/>
    </g>
    <path d="M122.734,168.99L129.285,175.1L131.867,166.534" style="fill:none;stroke-width:0.94px;stroke-linejoin:miter;stroke:black;"/>
</svg>
