<?xml version="1.0" standalone="no"?>
<!DOCTYPE svg PUBLIC "-//W3C//DTD SVG 1.1//EN" "http://www.w3.org/Graphics/SVG/1.1/DTD/svg11.dtd">
<svg width="100%" height="100%" viewBox="0 0 229 191" version="1.1" xmlns="http://www.w3.org/2000/svg" xmlns:xlink="http://www.w3.org/1999/xlink" xml:space="preserve" style="fill-rule:evenodd;clip-rule:evenodd;stroke-linejoin:round;stroke-miterlimit:10;">
    <clipPath id="_clip1">
        <path d="M0,0L0,191L229,191L229,0L0,0ZM215.581,104.993L224.652,102.347L222.006,93.277L212.936,95.922L221.565,98.379L215.581,104.993Z"/>
    </clipPath>
    <g clip-path="url(#_clip1)">
        <path d="M116.12,128.803L222.447,98.127" style="fill:none;stroke-width:0.94px;stroke:black;"/>
    </g>
    <path d="M215.581,104.993L221.565,98.378L212.936,95.922" style="fill:none;stroke-width:0.94px;stroke-linejoin:miter;stroke:black;"/>
    <clipPath id="_clip2">
        <path d="M0,0L0,191L229,191L229,0L0,0ZM126.009,133.275L116.939,135.795L119.458,144.928L128.529,142.346L120.025,139.889L126.009,133.275Z"/>
    </clipPath>
    <g clip-path="url(#_clip2)">
        <path d="M225.974,110.284L119.143,140.141" style="fill:none;stroke-width:0.94px;stroke:black;"/>
    </g>
    <path d="M126.009,133.275L120.025,139.889L128.529,142.346" style="fill:none;stroke-width:0.94px;stroke-linejoin:miter;stroke:black;"/>
    <path d="M50.106,143.164L53.193,155.448" style="fill:none;stroke-width:0.94px;stroke:rgb(128,128,128);"/>
    <clipPath id="_clip3">
        <path d="M0,0L0,191L229,191L229,0L0,0ZM84.499,141.086L93.821,139.259L91.995,130L82.672,131.826L91.05,135.039L84.499,141.086Z"/>
    </clipPath>
    <g clip-path="url(#_clip3)">
        <path d="M1.415,152.865L91.995,134.85" style="fill:none;stroke-width:0.94px;stroke:black;"/>
    </g>
    <path d="M84.499,141.086L91.05,135.039L82.672,131.826" style="fill:none;stroke-width:0.94px;stroke-linejoin:miter;stroke:black;"/>
    <clipPath id="_clip4">
        <path d="M0,0L0,191L229,191L229,0L0,0ZM11.934,159.668L2.675,161.684L4.691,170.943L13.95,168.927L5.572,165.967L11.934,159.668Z"/>
    </clipPath>
    <g clip-path="url(#_clip4)">
        <path d="M95.018,146.251L4.627,166.156" style="fill:none;stroke-width:0.94px;stroke:black;"/>
    </g>
    <path d="M11.934,159.668L5.572,165.967L13.95,168.927" style="fill:none;stroke-width:0.94px;stroke-linejoin:miter;stroke:black;"/>
    <clipPath id="_clip5">
        <path d="M0,0L0,191L229,191L229,0L0,0ZM111.018,120.488L111.395,129.937L120.844,129.496L120.466,120.11L116.057,127.858L111.018,120.488Z"/>
    </clipPath>
    <g clip-path="url(#_clip5)">
        <path d="M110.955,1.815L116.12,128.803" style="fill:none;stroke-width:0.94px;stroke:black;"/>
    </g>
    <path d="M111.018,120.488L116.057,127.858L120.466,120.11" style="fill:none;stroke-width:0.94px;stroke-linejoin:miter;stroke:black;"/>
    <path d="M97.097,77.907L87.522,76.773" style="fill:none;stroke-width:0.94px;stroke:rgb(128,128,128);"/>
    <clipPath id="_clip6">
        <path d="M0,0L0,191L229,191L229,0L0,0ZM87.522,15.61L86.766,6.224L77.381,6.917L78.074,16.366L82.231,8.492L87.522,15.61Z"/>
    </clipPath>
    <g clip-path="url(#_clip6)">
        <path d="M91.995,134.85L82.168,7.547" style="fill:none;stroke-width:0.94px;stroke:black;"/>
    </g>
    <path d="M87.522,15.61L82.231,8.492L78.074,16.366" style="fill:none;stroke-width:0.94px;stroke-linejoin:miter;stroke:black;"/>
    <clipPath id="_clip7">
        <path d="M0,0L0,191L229,191L229,0L0,0ZM95.522,127.858L96.152,137.243L105.538,136.677L104.971,127.228L100.75,135.102L95.522,127.858Z"/>
    </clipPath>
    <g clip-path="url(#_clip7)">
        <path d="M92.625,8.429L100.813,136.046" style="fill:none;stroke-width:0.94px;stroke:black;"/>
    </g>
    <path d="M95.522,127.858L100.75,135.102L104.971,127.228" style="fill:none;stroke-width:0.94px;stroke-linejoin:miter;stroke:black;"/>
    <clipPath id="_clip8">
        <path d="M0,0L0,191L229,191L229,0L0,0ZM149.63,175.856L156.496,182.344L162.984,175.541L156.181,168.99L158.386,177.683L149.63,175.856Z"/>
    </clipPath>
    <g clip-path="url(#_clip8)">
        <path d="M119.143,140.141L159.079,178.313" style="fill:none;stroke-width:0.94px;stroke:black;"/>
    </g>
    <path d="M149.63,175.856L158.386,177.683L156.181,168.99" style="fill:none;stroke-width:0.94px;stroke-linejoin:miter;stroke:black;"/>
    <path d="M117.064,152.928L110.577,164.203" style="fill:none;stroke-width:0.94px;stroke:rgb(128,128,128);"/>
    <clipPath id="_clip9">
        <path d="M0,0L0,191L229,191L229,0L0,0ZM104.152,149.527L97.916,142.409L90.798,148.582L96.971,155.7L95.648,146.944L104.152,149.527Z"/>
    </clipPath>
    <g clip-path="url(#_clip9)">
        <path d="M129.726,186.313L95.018,146.251" style="fill:none;stroke-width:0.94px;stroke:black;"/>
    </g>
    <path d="M104.152,149.527L95.648,146.944L96.971,155.7" style="fill:none;stroke-width:0.94px;stroke-linejoin:miter;stroke:black;"/>
    <clipPath id="_clip10">
        <path d="M0,0L0,191L229,191L229,0L0,0ZM127.71,170.88L134.261,177.683L141.064,171.132L134.576,164.329L136.402,173.085L127.71,170.88Z"/>
    </clipPath>
    <g clip-path="url(#_clip10)">
        <path d="M100.813,136.046L137.032,173.778" style="fill:none;stroke-width:0.94px;stroke:black;"/>
    </g>
    <path d="M127.71,170.88L136.402,173.085L134.576,164.329" style="fill:none;stroke-width:0.94px;stroke-linejoin:miter;stroke:black;"/>
    <clipPath id="_clip11">
        <path d="M0,0L0,191L229,191L229,0L0,0ZM120.403,3.768L113.285,-2.343L107.112,4.712L114.23,10.948L111.648,2.445L120.403,3.768Z"/>
    </clipPath>
    <g clip-path="url(#_clip11)">
        <path d="M222.447,98.127L110.955,1.815" style="fill:none;stroke-width:0.94px;stroke:black;"/>
    </g>
    <path d="M120.403,3.768L111.648,2.445L114.23,10.948" style="fill:none;stroke-width:0.94px;stroke-linejoin:miter;stroke:black;"/>
    <clipPath id="_clip12">
        <path d="M0,0L0,191L229,191L229,0L0,0ZM217.66,98.253L224.777,104.426L230.95,97.308L223.833,91.072L226.478,99.638L217.66,98.253Z"/>
    </clipPath>
    <g clip-path="url(#_clip12)">
        <path d="M114.104,2.256L227.171,100.268" style="fill:none;stroke-width:0.94px;stroke:black;"/>
    </g>
    <path d="M217.66,98.253L226.478,99.638L223.833,91.072" style="fill:none;stroke-width:0.94px;stroke-linejoin:miter;stroke:black;"/>
    <clipPath id="_clip13">
        <path d="M0,0L0,191L229,191L229,0L0,0ZM223.392,119.669L229.943,112.866L223.266,106.252L216.652,112.992L225.345,110.977L223.392,119.669Z"/>
    </clipPath>
    <g clip-path="url(#_clip13)">
        <path d="M159.079,178.313L225.974,110.284" style="fill:none;stroke-width:0.94px;stroke:black;"/>
    </g>
    <path d="M223.392,119.669L225.345,110.977L216.652,112.992" style="fill:none;stroke-width:0.94px;stroke-linejoin:miter;stroke:black;"/>
    <clipPath id="_clip14">
        <path d="M0,0L0,191L229,191L229,0L0,0ZM161.977,158.597L155.3,165.274L161.977,171.951L168.654,165.274L160.024,167.29L161.977,158.597Z"/>
    </clipPath>
    <g clip-path="url(#_clip14)">
        <path d="M227.171,100.268L159.331,167.982" style="fill:none;stroke-width:0.94px;stroke:black;"/>
    </g>
    <path d="M161.977,158.597L160.024,167.29L168.654,165.274" style="fill:none;stroke-width:0.94px;stroke-linejoin:miter;stroke:black;"/>
    <clipPath id="_clip15">
        <path d="M0,0L0,191L229,191L229,0L0,0ZM1.352,143.102L-3.12,151.353L5.068,155.952L9.604,147.7L1.856,152.046L1.352,143.102Z"/>
    </clipPath>
    <g clip-path="url(#_clip15)">
        <path d="M82.168,7.547L1.415,152.865" style="fill:none;stroke-width:0.94px;stroke:black;"/>
    </g>
    <path d="M1.352,143.102L1.856,152.046L9.604,147.7" style="fill:none;stroke-width:0.94px;stroke-linejoin:miter;stroke:black;"/>
    <path d="M43.051,83.135L41.225,81.182" style="fill:none;stroke-width:0.94px;stroke:rgb(128,128,128);"/>
    <clipPath id="_clip16">
        <path d="M0,0L0,191L229,191L229,0L0,0ZM84.751,17.877L89.286,9.626L81.034,5.027L76.499,13.279L84.31,8.996L84.751,17.877Z"/>
    </clipPath>
    <g clip-path="url(#_clip16)">
        <path d="M2.423,156.141L84.751,8.177" style="fill:none;stroke-width:0.94px;stroke:black;"/>
    </g>
    <path d="M84.751,17.877L84.31,8.996L76.499,13.279" style="fill:none;stroke-width:0.94px;stroke-linejoin:miter;stroke:black;"/>
    <clipPath id="_clip17">
        <path d="M0,0L0,191L229,191L229,0L0,0ZM120.529,189.588L129.852,191.1L131.363,181.777L122.041,180.266L128.781,186.187L120.529,189.588Z"/>
    </clipPath>
    <g clip-path="url(#_clip17)">
        <path d="M4.627,166.156L129.726,186.313" style="fill:none;stroke-width:0.94px;stroke:black;"/>
    </g>
    <path d="M120.529,189.588L128.781,186.187L122.041,180.266" style="fill:none;stroke-width:0.94px;stroke-linejoin:miter;stroke:black;"/>
    <path d="M64.027,165.778L65.287,175.919" style="fill:none;stroke-width:0.94px;stroke:rgb(128,128,128);"/>
    <clipPath id="_clip18">
        <path d="M0,0L0,191L229,191L229,0L0,0ZM99.365,15.358L96.908,6.287L87.774,8.681L90.231,17.814L92.877,9.311L99.365,15.358Z"/>
    </clipPath>
    <g clip-path="url(#_clip18)">
        <path d="M137.032,173.778L92.625,8.429" style="fill:none;stroke-width:0.94px;stroke:black;"/>
    </g>
    <path d="M99.365,15.358L92.877,9.311L90.231,17.814" style="fill:none;stroke-width:0.94px;stroke-linejoin:miter;stroke:black;"/>
    <clipPath id="_clip19">
        <path d="M0,0L0,191L229,191L229,0L0,0ZM11.556,152.739L2.171,151.29L0.785,160.613L10.045,162.061L3.368,156.266L11.556,152.739Z"/>
    </clipPath>
    <g clip-path="url(#_clip19)">
        <path d="M129.537,175.982L2.423,156.141" style="fill:none;stroke-width:0.94px;stroke:black;"/>
    </g>
    <path d="M11.556,152.739L3.368,156.266L10.045,162.061" style="fill:none;stroke-width:0.94px;stroke-linejoin:miter;stroke:black;"/>
    <clipPath id="_clip20">
        <path d="M0,0L0,191L229,191L229,0L0,0ZM120.844,9.185L118.388,0.114L109.254,2.571L111.773,11.641L114.356,3.138L120.844,9.185Z"/>
    </clipPath>
    <g clip-path="url(#_clip20)">
        <path d="M159.331,167.982L114.104,2.256" style="fill:none;stroke-width:0.94px;stroke:black;"/>
    </g>
    <path d="M120.844,9.185L114.356,3.138L111.773,11.641" style="fill:none;stroke-width:0.94px;stroke-linejoin:miter;stroke:black;"/>
    <path d="M106.734,90.694L114.482,89.686" style="fill:none;stroke-width:0.94px;stroke:rgb(128,128,128);"/>
    <clipPath id="_clip21">
        <path d="M0,0L0,191L229,191L229,0L0,0ZM122.734,168.99L125.19,178.061L134.324,175.667L131.867,166.534L129.285,175.1L122.734,168.99Z"/>
    </clipPath>
    <g clip-path="url(#_clip21)">
        <path d="M84.751,8.177L129.537,175.982" style="fill:none;stroke-width:0.94px;stroke:black;"/>
    </g>
    <path d="M31.383,60.184L31.167,59.992C30.111,60.4 29.319,60.592 27.423,60.88L27.423,61.552L28.767,61.552C29.199,61.552 29.367,61.816 29.367,62.536L29.367,73.744C29.367,75.232 29.343,75.88 29.175,77.56L29.559,77.704L30.519,76.84C32.031,77.704 33.351,78.088 34.503,78.088C38.151,78.088 39.975,74.344 39.975,71.128L39.975,70.936C39.663,67.48 37.479,65.776 35.343,65.776C33.735,65.776 32.151,66.712 31.383,68.56L31.383,60.184ZM34.599,67.72C36.615,67.72 37.887,69.352 37.887,71.92C37.887,74.608 36.447,76.48 34.407,76.48C33.159,76.48 31.383,75.712 31.383,75.184L31.383,70.024C31.383,69.184 32.727,67.72 34.599,67.72Z" style="fill:black;fill-rule:nonzero;"/>
    <path d="M86.901,154.721C86.901,153.617 87.021,152.633 87.237,151.769C86.469,150.713 85.437,150.257 84.357,150.257C81.381,150.257 77.925,153.521 77.925,156.809C77.925,156.929 77.949,157.025 77.949,157.145C77.949,160.385 80.229,162.665 83.445,162.665C84.693,162.665 86.493,162.209 86.733,161.849L87.237,161.081L86.997,160.721C86.109,161.201 85.341,161.417 84.477,161.417C81.813,161.417 80.061,159.353 80.061,156.185C80.061,153.617 81.261,152.177 83.421,152.177C84.477,152.177 85.629,152.657 86.061,153.257L86.229,154.721L86.901,154.721Z" style="fill:black;fill-rule:nonzero;"/>
    <path d="M135.016,115.919L135.016,115.199L133.912,115.127C133.096,115.079 133.024,114.911 133.024,113.399L133.024,98.615L132.808,98.423C131.752,98.831 130.96,99.023 129.064,99.311L129.064,99.983L130.408,99.983C130.84,99.983 131.008,100.247 131.008,100.967L131.008,105.359C130.336,104.519 129.424,104.183 128.464,104.183C125.512,104.183 121.936,107.423 121.936,110.351C121.936,112.271 122.608,114.167 123.784,115.127C124.6,115.823 125.728,116.135 127.288,116.135C127.768,116.135 128.32,116.039 128.44,115.943L131.104,113.711L130.984,115.919C132.16,115.871 132.544,115.847 132.832,115.847C133.264,115.847 134.8,115.919 135.016,115.919ZM131.008,107.447L131.008,110.543C131.008,112.103 130.96,112.343 130.648,112.895C129.976,114.023 128.8,114.767 127.672,114.767C125.56,114.767 124.048,112.727 124.048,109.871C124.048,107.255 125.344,105.719 127.504,105.719C129.4,105.719 131.008,107.063 131.008,107.447Z" style="fill:black;fill-rule:nonzero;"/>
    <path d="M48.824,95.236C50.384,95.236 52.544,94.324 52.832,93.892L53.312,93.076L53,92.836C51.464,93.748 50.912,93.964 49.88,93.964C48.32,93.964 47.024,93.268 46.352,92.092C45.896,91.3 45.728,90.628 45.68,89.236C46.184,89.308 46.904,89.332 47.72,89.332C49.784,89.332 52.4,89.14 53.528,88.9C53.552,88.564 53.576,88.348 53.576,88.06C53.576,85.3 51.8,83.5 49.112,83.5C48.224,83.5 47.144,83.62 46.184,84.196C44.216,85.348 43.448,87.004 43.448,89.5C43.448,94.156 46.688,95.236 48.824,95.236ZM51.44,88.348C50.864,88.42 49.64,88.492 48.416,88.492C47.384,88.492 46.352,88.42 45.728,88.276C45.728,87.148 45.824,86.62 46.136,85.996C46.64,84.94 47.672,84.292 48.824,84.292C49.616,84.292 50.24,84.604 50.672,85.252C51.2,86.044 51.368,86.74 51.44,88.348Z" style="fill:black;fill-rule:nonzero;"/>
    <path d="M121.989,47.016C121.413,46.68 120.885,46.536 120.381,46.536C117.717,46.536 116.349,50.904 116.349,52.752L116.349,53.808L114.693,54.552L114.693,55.08L116.349,54.984L116.349,61.776C116.349,63.288 116.277,63.456 115.461,63.504L114.357,63.576L114.357,64.296C116.757,64.224 116.757,64.224 117.357,64.224C117.957,64.224 117.957,64.224 120.357,64.296L120.357,63.576L119.253,63.504C118.437,63.456 118.365,63.288 118.365,61.776L118.365,54.984L121.341,54.984L121.509,53.712L118.365,53.808L118.365,51.768C118.365,49.008 118.677,48.336 120.045,48.336C120.693,48.336 121.125,48.504 121.701,49.008L121.989,48.864L121.989,47.016Z" style="fill:black;fill-rule:nonzero;"/>
    <path d="M162.237,133.209C162.237,134.985 163.341,136.209 165.117,136.401L163.221,137.865C162.981,138.225 162.861,138.537 162.861,138.897C162.861,139.569 163.293,139.953 164.445,140.289L162.357,141.417C162.021,141.609 161.685,142.497 161.685,143.241C161.685,145.425 163.821,146.937 166.869,146.937C170.493,146.937 173.349,144.657 173.349,141.729C173.349,140.001 172.197,138.801 170.517,138.801L166.677,138.801C165.429,138.801 164.853,138.513 164.853,137.865C164.853,137.313 165.549,136.905 165.957,136.497C166.197,136.521 166.341,136.545 166.533,136.545C167.997,136.545 171.429,135.417 171.429,132.369C171.429,131.889 171.357,131.577 171.165,131.073L173.373,131.073L173.973,130.089L173.877,129.801L170.469,129.897C169.581,129.177 168.717,128.889 167.541,128.889C165.741,128.889 162.237,129.969 162.237,133.209ZM166.677,129.705C168.309,129.705 169.413,131.049 169.413,133.089C169.413,134.649 168.405,135.729 166.941,135.729C165.333,135.729 164.253,134.481 164.253,132.633C164.253,130.785 165.141,129.705 166.677,129.705ZM167.805,140.481C170.517,140.481 171.453,141.033 171.453,142.593C171.453,144.657 169.557,146.193 167.037,146.193C164.949,146.193 163.509,144.969 163.509,143.193C163.509,142.113 164.133,141.129 165.093,140.721C165.477,140.529 166.149,140.481 167.805,140.481Z" style="fill:black;fill-rule:nonzero;"/>
    <path d="M139.025,71.476L140.369,71.476C140.801,71.476 140.969,71.74 140.969,72.46L140.969,84.892C140.969,86.404 140.897,86.572 140.081,86.62L139.001,86.692L139.001,87.412C140.633,87.364 141.281,87.34 141.977,87.34C142.673,87.34 143.321,87.364 144.953,87.412L144.953,86.692L143.873,86.62C143.057,86.572 142.985,86.404 142.985,84.892L142.985,79.804C142.985,78.724 144.569,77.548 146.033,77.548C147.641,77.548 148.697,78.748 148.697,80.596L148.697,87.412C150.161,87.34 150.185,87.34 150.593,87.34C150.929,87.34 150.929,87.34 152.585,87.412L152.585,86.692L151.601,86.62C150.785,86.572 150.713,86.428 150.713,84.892L150.713,80.26C150.713,77.452 148.649,76.06 146.609,76.06C145.121,76.06 143.657,76.804 142.985,78.268L142.985,70.108L142.769,69.916C141.713,70.324 140.921,70.516 139.025,70.804L139.025,71.476Z" style="fill:black;fill-rule:nonzero;"/>
</svg>
