<?xml version="1.0" standalone="no"?>
<!DOCTYPE svg PUBLIC "-//W3C//DTD SVG 1.1//EN" "http://www.w3.org/Graphics/SVG/1.1/DTD/svg11.dtd">
<svg width="100%" height="100%" viewBox="0 0 220 194" version="1.1" xmlns="http://www.w3.org/2000/svg" xmlns:xlink="http://www.w3.org/1999/xlink" xml:space="preserve" style="fill-rule:evenodd;clip-rule:evenodd;stroke-linejoin:round;stroke-miterlimit:10;">
    <clipPath id="_clip1">
        <path d="M0,0L0,194L220,194L220,0L0,0ZM163.136,143.248L166.853,134.618L158.223,130.839L154.444,139.531L161.814,134.492L163.136,143.248Z"/>
    </clipPath>
    <g clip-path="url(#_clip1)">
        <path d="M139.074,187.026L162.191,133.61" style="fill:none;stroke-width:0.94px;stroke:black;"/>
    </g>
    <path d="M163.136,143.248L161.814,134.492L154.444,139.531" style="fill:none;stroke-width:0.94px;stroke-linejoin:miter;stroke:black;"/>
    <clipPath id="_clip2">
        <path d="M0,0L0,194L220,194L220,0L0,0ZM115.012,57.518L116.524,48.196L107.201,46.684L105.689,56.007L111.611,49.33L115.012,57.518Z"/>
    </clipPath>
    <g clip-path="url(#_clip2)">
        <path d="M100.083,119.249L111.736,48.385" style="fill:none;stroke-width:0.94px;stroke:black;"/>
    </g>
    <path d="M115.012,57.518L111.611,49.33L105.689,56.007" style="fill:none;stroke-width:0.94px;stroke-linejoin:miter;stroke:black;"/>
    <clipPath id="_clip3">
        <path d="M0,0L0,194L220,194L220,0L0,0ZM153.31,15.441L145.688,9.772L140.082,17.394L147.641,23L144.428,14.748L153.31,15.441Z"/>
    </clipPath>
    <g clip-path="url(#_clip3)">
        <path d="M208.3,62.117L143.672,14.181" style="fill:none;stroke-width:0.94px;stroke:black;"/>
    </g>
    <path d="M153.31,15.441L144.428,14.748L147.641,23" style="fill:none;stroke-width:0.94px;stroke-linejoin:miter;stroke:black;"/>
    <clipPath id="_clip4">
        <path d="M0,0L0,194L220,194L220,0L0,0ZM72.305,178.9L81.627,180.16L82.887,170.775L73.502,169.515L80.431,175.247L72.305,178.9Z"/>
    </clipPath>
    <g clip-path="url(#_clip4)">
        <path d="M6.354,165.357L81.375,175.373" style="fill:none;stroke-width:0.94px;stroke:black;"/>
    </g>
    <path d="M72.305,178.9L80.431,175.247L73.502,169.515" style="fill:none;stroke-width:0.94px;stroke-linejoin:miter;stroke:black;"/>
    <clipPath id="_clip5">
        <path d="M0,0L0,194L220,194L220,0L0,0ZM18.385,82.462L12.149,89.58L19.267,95.753L25.503,88.636L17,91.281L18.385,82.462Z"/>
    </clipPath>
    <g clip-path="url(#_clip5)">
        <path d="M89.753,7.504L16.369,91.974" style="fill:none;stroke-width:0.94px;stroke:black;"/>
    </g>
    <path d="M18.385,82.462L17,91.281L25.503,88.636" style="fill:none;stroke-width:0.94px;stroke-linejoin:miter;stroke:black;"/>
    <path d="M65.502,63.404L65.502,62.684L64.254,62.612C62.934,62.54 62.694,62.276 62.694,61.028L62.694,46.532L56.91,48.98L57.078,50.18L60.678,48.596L60.678,61.028C60.678,62.276 60.414,62.54 59.118,62.612L57.774,62.684L57.774,63.404C61.47,63.332 61.47,63.332 61.734,63.332C62.478,63.332 65.118,63.404 65.502,63.404Z" style="fill:black;fill-rule:nonzero;"/>
    <path d="M36.401,166.753L36.401,167.377C40.889,167.377 40.889,167.305 41.753,167.305C42.617,167.305 42.617,167.377 47.249,167.377L47.249,165.337C44.489,165.457 43.385,165.361 38.945,165.457L43.313,160.825C45.641,158.353 46.361,157.033 46.361,155.233C46.361,152.473 44.489,150.769 41.441,150.769C39.713,150.769 38.537,151.249 37.361,152.449L36.953,155.713L37.649,155.713L37.961,154.609C38.345,153.217 39.209,152.617 40.817,152.617C42.881,152.617 44.201,153.913 44.201,155.953C44.201,157.753 43.193,159.529 40.481,162.409L36.401,166.753Z" style="fill:black;fill-rule:nonzero;"/>
    <path d="M119.294,87.926C119.294,85.022 116.726,84.518 115.598,84.326C117.518,82.838 118.238,81.734 118.238,80.318C118.238,78.182 116.462,76.766 113.798,76.766C112.166,76.766 111.086,77.222 109.934,78.374L109.238,81.35L109.982,81.35L110.414,80.006C110.678,79.19 112.19,78.374 113.438,78.374C114.998,78.374 116.27,79.646 116.27,81.158C116.27,82.958 114.854,84.47 113.15,84.47C112.958,84.47 112.694,84.446 112.382,84.422L112.022,84.398L111.734,85.67L111.902,85.814C112.814,85.406 113.27,85.286 113.918,85.286C115.91,85.286 117.062,86.558 117.062,88.742C117.062,91.19 115.598,92.798 113.366,92.798C112.262,92.798 111.278,92.438 110.558,91.766C109.982,91.238 109.67,90.686 109.214,89.39L108.566,89.63C109.07,91.094 109.262,91.958 109.406,93.158C110.678,93.59 111.734,93.782 112.622,93.782C115.574,93.782 119.294,91.214 119.294,87.926Z" style="fill:black;fill-rule:nonzero;"/>
    <path d="M157.678,167.681L157.678,169.481C157.678,170.921 157.414,171.257 156.238,171.305L154.75,171.377L154.75,172.097C157.942,172.025 157.942,172.025 158.518,172.025C159.094,172.025 159.094,172.025 162.286,172.097L162.286,171.377L161.134,171.305C159.958,171.233 159.694,170.921 159.694,169.481L159.694,167.681C161.11,167.681 161.614,167.705 162.286,167.777L162.286,166.073L159.694,166.145L159.718,155.297L157.798,156.017L151.006,167.129L151.006,167.681L157.678,167.681ZM157.678,166.145L152.518,166.145L157.678,157.697L157.678,166.145Z" style="fill:black;fill-rule:nonzero;"/>
    <path d="M189.8,31.219C189.8,28.507 187.856,26.587 185.12,26.587C183.968,26.587 183.104,26.659 181.832,27.787L181.832,22.771L189.152,22.795L189.152,20.755L180.584,20.731L180.584,29.563L181.064,29.707C182.192,28.579 182.84,28.243 184.016,28.243C186.32,28.243 187.76,29.875 187.76,32.467C187.76,35.131 186.224,36.691 183.608,36.691C182.312,36.691 181.112,36.259 180.776,35.635L179.672,33.667L179.096,34.003C179.648,35.371 179.936,36.139 180.272,37.195C180.944,37.555 181.904,37.771 182.936,37.771C186.008,37.771 189.8,35.155 189.8,31.219Z" style="fill:black;fill-rule:nonzero;"/>
</svg>
