<?xml version="1.0" standalone="no"?>
<!DOCTYPE svg PUBLIC "-//W3C//DTD SVG 1.1//EN" "http://www.w3.org/Graphics/SVG/1.1/DTD/svg11.dtd">
<svg width="100%" height="100%" viewBox="0 0 224 185" version="1.1" xmlns="http://www.w3.org/2000/svg" xmlns:xlink="http://www.w3.org/1999/xlink" xml:space="preserve" style="fill-rule:evenodd;clip-rule:evenodd;stroke-linejoin:round;stroke-miterlimit:10;">
    <clipPath id="_clip1">
        <path d="M0,0L0,185L224,185L224,0L0,0ZM84.499,135.086L93.821,133.259L91.995,124L82.672,125.826L91.05,129.039L84.499,135.086Z"/>
    </clipPath>
    <g clip-path="url(#_clip1)">
        <path d="M1.415,146.865L91.995,128.85" style="fill:none;stroke-width:0.94px;stroke:rgb(112,112,112);"/>
    </g>
    <path d="M84.499,135.086L91.05,129.039L82.672,125.826" style="fill:none;stroke-width:0.94px;stroke-linejoin:miter;stroke:rgb(112,112,112);"/>
    <clipPath id="_clip2">
        <path d="M0,0L0,185L224,185L224,0L0,0ZM11.934,153.668L2.675,155.684L4.691,164.943L13.95,162.927L5.572,159.967L11.934,153.668Z"/>
    </clipPath>
    <g clip-path="url(#_clip2)">
        <path d="M95.018,140.251L4.627,160.156" style="fill:none;stroke-width:0.94px;stroke:black;"/>
    </g>
    <path d="M11.934,153.668L5.572,159.967L13.95,162.927" style="fill:none;stroke-width:0.94px;stroke-linejoin:miter;stroke:black;"/>
    <clipPath id="_clip3">
        <path d="M0,0L0,185L224,185L224,0L0,0ZM87.522,9.61L86.766,0.224L77.381,0.917L78.074,10.366L82.231,2.492L87.522,9.61Z"/>
    </clipPath>
    <g clip-path="url(#_clip3)">
        <path d="M91.995,128.85L82.168,1.547" style="fill:none;stroke-width:0.94px;stroke:rgb(112,112,112);"/>
    </g>
    <path d="M87.522,9.61L82.231,2.492L78.074,10.366" style="fill:none;stroke-width:0.94px;stroke-linejoin:miter;stroke:rgb(112,112,112);"/>
    <clipPath id="_clip4">
        <path d="M0,0L0,185L224,185L224,0L0,0ZM104.152,143.527L97.916,136.409L90.798,142.582L96.971,149.7L95.648,140.944L104.152,143.527Z"/>
    </clipPath>
    <g clip-path="url(#_clip4)">
        <path d="M129.726,180.313L95.018,140.251" style="fill:none;stroke-width:0.94px;stroke:black;"/>
    </g>
    <path d="M104.152,143.527L95.648,140.944L96.971,149.7" style="fill:none;stroke-width:0.94px;stroke-linejoin:miter;stroke:black;"/>
    <clipPath id="_clip5">
        <path d="M0,0L0,185L224,185L224,0L0,0ZM149.882,23.405L142.764,17.232L136.591,24.412L143.709,30.586L141.127,22.082L149.882,23.405Z"/>
    </clipPath>
    <g clip-path="url(#_clip5)">
        <path d="M222.447,92.127L140.434,21.452" style="fill:none;stroke-width:0.94px;stroke:rgb(112,112,112);"/>
    </g>
    <path d="M149.882,23.405L141.127,22.082L143.709,30.586" style="fill:none;stroke-width:0.94px;stroke-linejoin:miter;stroke:rgb(112,112,112);"/>
    <clipPath id="_clip6">
        <path d="M0,0L0,185L224,185L224,0L0,0ZM1.352,137.102L-3.12,145.353L5.068,149.952L9.604,141.7L1.856,146.046L1.352,137.102Z"/>
    </clipPath>
    <g clip-path="url(#_clip6)">
        <path d="M82.168,1.547L1.415,146.865" style="fill:none;stroke-width:0.94px;stroke:rgb(112,112,112);"/>
    </g>
    <path d="M1.352,137.102L1.856,146.046L9.604,141.7" style="fill:none;stroke-width:0.94px;stroke-linejoin:miter;stroke:rgb(112,112,112);"/>
    <clipPath id="_clip7">
        <path d="M0,0L0,185L224,185L224,0L0,0ZM120.529,183.588L129.852,185.1L131.363,175.777L122.041,174.266L128.781,180.187L120.529,183.588Z"/>
    </clipPath>
    <g clip-path="url(#_clip7)">
        <path d="M4.627,160.156L129.726,180.313" style="fill:none;stroke-width:0.94px;stroke:black;"/>
    </g>
    <path d="M120.529,183.588L128.781,180.187L122.041,174.266" style="fill:none;stroke-width:0.94px;stroke-linejoin:miter;stroke:black;"/>
    <g>
        <path d="M45.073,134.456L45.073,135.08C49.561,135.08 49.561,135.008 50.425,135.008C51.289,135.008 51.289,135.08 55.921,135.08L55.921,133.04C53.161,133.16 52.057,133.064 47.617,133.16L51.985,128.528C54.313,126.056 55.033,124.736 55.033,122.936C55.033,120.176 53.161,118.472 50.113,118.472C48.385,118.472 47.209,118.952 46.033,120.152L45.625,123.416L46.321,123.416L46.633,122.312C47.017,120.92 47.881,120.32 49.489,120.32C51.553,120.32 52.873,121.616 52.873,123.656C52.873,125.456 51.865,127.232 49.153,130.112L45.073,134.456Z" style="fill:black;fill-rule:nonzero;"/>
        <path d="M73.19,151.916C73.19,150.812 73.31,149.828 73.526,148.964C72.758,147.908 71.726,147.452 70.646,147.452C67.67,147.452 64.214,150.716 64.214,154.004C64.214,154.124 64.238,154.22 64.238,154.34C64.238,157.58 66.518,159.86 69.734,159.86C70.982,159.86 72.782,159.404 73.022,159.044L73.526,158.276L73.286,157.916C72.398,158.396 71.63,158.612 70.766,158.612C68.102,158.612 66.35,156.548 66.35,153.38C66.35,150.812 67.55,149.372 69.71,149.372C70.766,149.372 71.918,149.852 72.35,150.452L72.518,151.916L73.19,151.916Z" style="fill:black;fill-rule:nonzero;"/>
    </g>
    <path d="M39.662,71.3L39.662,70.58L38.414,70.508C37.094,70.436 36.854,70.172 36.854,68.924L36.854,54.428L31.07,56.876L31.238,58.076L34.838,56.492L34.838,68.924C34.838,70.172 34.574,70.436 33.278,70.508L31.934,70.58L31.934,71.3C35.63,71.228 35.63,71.228 35.894,71.228C36.638,71.228 39.278,71.3 39.662,71.3Z" style="fill:black;fill-rule:nonzero;"/>
    <path d="M101.626,75.518C101.626,72.614 99.058,72.11 97.93,71.918C99.85,70.43 100.57,69.326 100.57,67.91C100.57,65.774 98.794,64.358 96.13,64.358C94.498,64.358 93.418,64.814 92.266,65.966L91.57,68.942L92.314,68.942L92.746,67.598C93.01,66.782 94.522,65.966 95.77,65.966C97.33,65.966 98.602,67.238 98.602,68.75C98.602,70.55 97.186,72.062 95.482,72.062C95.29,72.062 95.026,72.038 94.714,72.014L94.354,71.99L94.066,73.262L94.234,73.406C95.146,72.998 95.602,72.878 96.25,72.878C98.242,72.878 99.394,74.15 99.394,76.334C99.394,78.782 97.93,80.39 95.698,80.39C94.594,80.39 93.61,80.03 92.89,79.358C92.314,78.83 92.002,78.278 91.546,76.982L90.898,77.222C91.402,78.686 91.594,79.55 91.738,80.75C93.01,81.182 94.066,81.374 94.954,81.374C97.906,81.374 101.626,78.806 101.626,75.518Z" style="fill:black;fill-rule:nonzero;"/>
    <path d="M192.807,48.217C192.807,45.505 190.863,43.585 188.127,43.585C186.975,43.585 186.111,43.657 184.839,44.785L184.839,39.769L192.159,39.793L192.159,37.753L183.591,37.729L183.591,46.561L184.071,46.705C185.199,45.577 185.847,45.241 187.023,45.241C189.327,45.241 190.767,46.873 190.767,49.465C190.767,52.129 189.231,53.689 186.615,53.689C185.319,53.689 184.119,53.257 183.783,52.633L182.679,50.665L182.103,51.001C182.655,52.369 182.943,53.137 183.279,54.193C183.951,54.553 184.911,54.769 185.943,54.769C189.015,54.769 192.807,52.153 192.807,48.217Z" style="fill:black;fill-rule:nonzero;"/>
    <path d="M119.082,155.452L119.082,157.252C119.082,158.692 118.818,159.028 117.642,159.076L116.154,159.148L116.154,159.868C119.346,159.796 119.346,159.796 119.922,159.796C120.498,159.796 120.498,159.796 123.69,159.868L123.69,159.148L122.538,159.076C121.362,159.004 121.098,158.692 121.098,157.252L121.098,155.452C122.514,155.452 123.018,155.476 123.69,155.548L123.69,153.844L121.098,153.916L121.122,143.068L119.202,143.788L112.41,154.9L112.41,155.452L119.082,155.452ZM119.082,153.916L113.922,153.916L119.082,145.468L119.082,153.916Z" style="fill:black;fill-rule:nonzero;"/>
</svg>
