<?xml version="1.0" standalone="no"?>
<!DOCTYPE svg PUBLIC "-//W3C//DTD SVG 1.1//EN" "http://www.w3.org/Graphics/SVG/1.1/DTD/svg11.dtd">
<svg width="100%" height="100%" viewBox="0 0 228 191" version="1.1" xmlns="http://www.w3.org/2000/svg" xmlns:xlink="http://www.w3.org/1999/xlink" xml:space="preserve" style="fill-rule:evenodd;clip-rule:evenodd;stroke-linejoin:round;stroke-miterlimit:10;">
    <clipPath id="_clip1">
        <path d="M0,0L0,191L228,191L228,0L0,0ZM215.581,104.993L224.652,102.347L222.006,93.277L212.936,95.922L221.565,98.379L215.581,104.993Z"/>
    </clipPath>
    <g clip-path="url(#_clip1)">
        <path d="M116.12,128.803L222.447,98.127" style="fill:none;stroke-width:0.94px;stroke:rgb(112,112,112);"/>
    </g>
    <path d="M215.581,104.993L221.565,98.378L212.936,95.922" style="fill:none;stroke-width:0.94px;stroke-linejoin:miter;stroke:rgb(112,112,112);"/>
    <clipPath id="_clip2">
        <path d="M0,0L0,191L228,191L228,0L0,0ZM126.009,133.275L116.939,135.795L119.458,144.928L128.529,142.346L120.025,139.889L126.009,133.275Z"/>
    </clipPath>
    <g clip-path="url(#_clip2)">
        <path d="M225.974,110.284L119.143,140.141" style="fill:none;stroke-width:0.94px;stroke:black;"/>
    </g>
    <path d="M126.009,133.275L120.025,139.889L128.529,142.346" style="fill:none;stroke-width:0.94px;stroke-linejoin:miter;stroke:black;"/>
    <clipPath id="_clip3">
        <path d="M0,0L0,191L228,191L228,0L0,0ZM84.499,141.086L93.821,139.259L91.995,130L82.672,131.826L91.05,135.039L84.499,141.086Z"/>
    </clipPath>
    <g clip-path="url(#_clip3)">
        <path d="M1.415,152.865L91.995,134.85" style="fill:none;stroke-width:0.94px;stroke:rgb(112,112,112);"/>
    </g>
    <path d="M84.499,141.086L91.05,135.039L82.672,131.826" style="fill:none;stroke-width:0.94px;stroke-linejoin:miter;stroke:rgb(112,112,112);"/>
    <clipPath id="_clip4">
        <path d="M0,0L0,191L228,191L228,0L0,0ZM11.934,159.668L2.675,161.684L4.691,170.943L13.95,168.927L5.572,165.967L11.934,159.668Z"/>
    </clipPath>
    <g clip-path="url(#_clip4)">
        <path d="M95.018,146.251L4.627,166.156" style="fill:none;stroke-width:0.94px;stroke:rgb(112,112,112);"/>
    </g>
    <path d="M11.934,159.668L5.572,165.967L13.95,168.927" style="fill:none;stroke-width:0.94px;stroke-linejoin:miter;stroke:rgb(112,112,112);"/>
    <clipPath id="_clip5">
        <path d="M0,0L0,191L228,191L228,0L0,0ZM111.018,120.488L111.395,129.937L120.844,129.496L120.466,120.11L116.057,127.858L111.018,120.488Z"/>
    </clipPath>
    <g clip-path="url(#_clip5)">
        <path d="M110.955,1.815L116.12,128.803" style="fill:none;stroke-width:0.94px;stroke:rgb(112,112,112);"/>
    </g>
    <path d="M111.018,120.488L116.057,127.858L120.466,120.11" style="fill:none;stroke-width:0.94px;stroke-linejoin:miter;stroke:rgb(112,112,112);"/>
    <clipPath id="_clip6">
        <path d="M0,0L0,191L228,191L228,0L0,0ZM87.522,15.61L86.766,6.224L77.381,6.917L78.074,16.366L82.231,8.492L87.522,15.61Z"/>
    </clipPath>
    <g clip-path="url(#_clip6)">
        <path d="M91.995,134.85L82.168,7.547" style="fill:none;stroke-width:0.94px;stroke:rgb(112,112,112);"/>
    </g>
    <path d="M87.522,15.61L82.231,8.492L78.074,16.366" style="fill:none;stroke-width:0.94px;stroke-linejoin:miter;stroke:rgb(112,112,112);"/>
    <clipPath id="_clip7">
        <path d="M0,0L0,191L228,191L228,0L0,0ZM103.711,15.043L103.27,5.595L93.821,6.035L94.325,15.484L98.672,7.736L103.711,15.043Z"/>
    </clipPath>
    <g clip-path="url(#_clip7)">
        <path d="M104.907,134.346L98.609,6.791" style="fill:none;stroke-width:0.94px;stroke:rgb(112,112,112);"/>
    </g>
    <path d="M103.711,15.043L98.672,7.736L94.325,15.484" style="fill:none;stroke-width:0.94px;stroke-linejoin:miter;stroke:rgb(112,112,112);"/>
    <clipPath id="_clip8">
        <path d="M0,0L0,191L228,191L228,0L0,0ZM149.63,175.856L156.496,182.344L162.984,175.541L156.181,168.99L158.386,177.683L149.63,175.856Z"/>
    </clipPath>
    <g clip-path="url(#_clip8)">
        <path d="M119.143,140.141L159.079,178.313" style="fill:none;stroke-width:0.94px;stroke:black;"/>
    </g>
    <path d="M149.63,175.856L158.386,177.683L156.181,168.99" style="fill:none;stroke-width:0.94px;stroke-linejoin:miter;stroke:black;"/>
    <clipPath id="_clip9">
        <path d="M0,0L0,191L228,191L228,0L0,0ZM114.293,136.802L107.49,130.252L100.939,137.054L107.742,143.606L105.6,134.976L114.293,136.802Z"/>
    </clipPath>
    <g clip-path="url(#_clip9)">
        <path d="M143.205,171.321L104.907,134.346" style="fill:none;stroke-width:0.94px;stroke:rgb(112,112,112);"/>
    </g>
    <path d="M114.293,136.802L105.6,134.976L107.742,143.605" style="fill:none;stroke-width:0.94px;stroke-linejoin:miter;stroke:rgb(112,112,112);"/>
    <clipPath id="_clip10">
        <path d="M0,0L0,191L228,191L228,0L0,0ZM104.152,149.527L97.916,142.409L90.798,148.582L96.971,155.7L95.648,146.944L104.152,149.527Z"/>
    </clipPath>
    <g clip-path="url(#_clip10)">
        <path d="M129.726,186.313L95.018,146.251" style="fill:none;stroke-width:0.94px;stroke:rgb(112,112,112);"/>
    </g>
    <path d="M104.152,149.527L95.648,146.944L96.971,155.7" style="fill:none;stroke-width:0.94px;stroke-linejoin:miter;stroke:rgb(112,112,112);"/>
    <clipPath id="_clip11">
        <path d="M0,0L0,191L228,191L228,0L0,0ZM120.403,3.768L113.285,-2.343L107.112,4.712L114.23,10.948L111.648,2.445L120.403,3.768Z"/>
    </clipPath>
    <g clip-path="url(#_clip11)">
        <path d="M222.447,98.127L110.955,1.815" style="fill:none;stroke-width:0.94px;stroke:rgb(112,112,112);"/>
    </g>
    <path d="M120.403,3.768L111.648,2.445L114.23,10.948" style="fill:none;stroke-width:0.94px;stroke-linejoin:miter;stroke:rgb(112,112,112);"/>
    <clipPath id="_clip12">
        <path d="M0,0L0,191L228,191L228,0L0,0ZM223.392,119.669L229.943,112.866L223.266,106.252L216.652,112.992L225.345,110.977L223.392,119.669Z"/>
    </clipPath>
    <g clip-path="url(#_clip12)">
        <path d="M159.079,178.313L225.974,110.284" style="fill:none;stroke-width:0.94px;stroke:black;"/>
    </g>
    <path d="M223.392,119.669L225.345,110.977L216.652,112.992" style="fill:none;stroke-width:0.94px;stroke-linejoin:miter;stroke:black;"/>
    <clipPath id="_clip13">
        <path d="M0,0L0,191L228,191L228,0L0,0ZM1.352,143.102L-3.12,151.353L5.068,155.952L9.604,147.7L1.856,152.046L1.352,143.102Z"/>
    </clipPath>
    <g clip-path="url(#_clip13)">
        <path d="M82.168,7.547L1.415,152.865" style="fill:none;stroke-width:0.94px;stroke:rgb(112,112,112);"/>
    </g>
    <path d="M1.352,143.102L1.856,152.046L9.604,147.7" style="fill:none;stroke-width:0.94px;stroke-linejoin:miter;stroke:rgb(112,112,112);"/>
    <clipPath id="_clip14">
        <path d="M0,0L0,191L228,191L228,0L0,0ZM84.751,17.877L89.286,9.626L81.034,5.027L76.499,13.279L84.31,8.996L84.751,17.877Z"/>
    </clipPath>
    <g clip-path="url(#_clip14)">
        <path d="M2.423,156.141L84.751,8.177" style="fill:none;stroke-width:0.94px;stroke:rgb(112,112,112);"/>
    </g>
    <path d="M84.751,17.877L84.31,8.996L76.499,13.279" style="fill:none;stroke-width:0.94px;stroke-linejoin:miter;stroke:rgb(112,112,112);"/>
    <clipPath id="_clip15">
        <path d="M0,0L0,191L228,191L228,0L0,0ZM120.529,189.588L129.852,191.1L131.363,181.777L122.041,180.266L128.781,186.187L120.529,189.588Z"/>
    </clipPath>
    <g clip-path="url(#_clip15)">
        <path d="M4.627,166.156L129.726,186.313" style="fill:none;stroke-width:0.94px;stroke:rgb(112,112,112);"/>
    </g>
    <path d="M120.529,189.588L128.781,186.187L122.041,180.266" style="fill:none;stroke-width:0.94px;stroke-linejoin:miter;stroke:rgb(112,112,112);"/>
    <clipPath id="_clip16">
        <path d="M0,0L0,191L228,191L228,0L0,0ZM136.402,164.329L138.859,173.463L147.993,170.943L145.473,161.873L142.954,170.439L136.402,164.329Z"/>
    </clipPath>
    <g clip-path="url(#_clip16)">
        <path d="M98.609,6.791L143.205,171.321" style="fill:none;stroke-width:0.94px;stroke:rgb(112,112,112);"/>
    </g>
    <path d="M136.402,164.329L142.954,170.439L145.473,161.873" style="fill:none;stroke-width:0.94px;stroke-linejoin:miter;stroke:rgb(112,112,112);"/>
    <clipPath id="_clip17">
        <path d="M0,0L0,191L228,191L228,0L0,0ZM11.556,152.739L2.171,151.29L0.785,160.613L10.045,162.061L3.368,156.266L11.556,152.739Z"/>
    </clipPath>
    <g clip-path="url(#_clip17)">
        <path d="M129.537,175.982L2.423,156.141" style="fill:none;stroke-width:0.94px;stroke:rgb(112,112,112);"/>
    </g>
    <path d="M11.556,152.739L3.368,156.266L10.045,162.061" style="fill:none;stroke-width:0.94px;stroke-linejoin:miter;stroke:rgb(112,112,112);"/>
    <clipPath id="_clip18">
        <path d="M0,0L0,191L228,191L228,0L0,0ZM122.734,168.99L125.19,178.061L134.324,175.667L131.867,166.534L129.285,175.1L122.734,168.99Z"/>
    </clipPath>
    <g clip-path="url(#_clip18)">
        <path d="M84.751,8.177L129.537,175.982" style="fill:none;stroke-width:0.94px;stroke:rgb(112,112,112);"/>
    </g>
    <path d="M122.734,168.99L129.285,175.1L131.867,166.534" style="fill:none;stroke-width:0.94px;stroke-linejoin:miter;stroke:rgb(112,112,112);"/>
    <path d="M46.752,138.501L46.752,139.125C51.24,139.125 51.24,139.053 52.104,139.053C52.968,139.053 52.968,139.125 57.6,139.125L57.6,137.085C54.84,137.205 53.736,137.109 49.296,137.205L53.664,132.573C55.992,130.101 56.712,128.781 56.712,126.981C56.712,124.221 54.84,122.517 51.792,122.517C50.064,122.517 48.888,122.997 47.712,124.197L47.304,127.461L48,127.461L48.312,126.357C48.696,124.965 49.56,124.365 51.168,124.365C53.232,124.365 54.552,125.661 54.552,127.701C54.552,129.501 53.544,131.277 50.832,134.157L46.752,138.501Z" style="fill:black;fill-rule:nonzero;"/>
    <path d="M163.927,132.391C163.927,134.167 165.031,135.391 166.807,135.583L164.911,137.047C164.671,137.407 164.551,137.719 164.551,138.079C164.551,138.751 164.983,139.135 166.135,139.471L164.047,140.599C163.711,140.791 163.375,141.679 163.375,142.423C163.375,144.607 165.511,146.119 168.559,146.119C172.183,146.119 175.039,143.839 175.039,140.911C175.039,139.183 173.887,137.983 172.207,137.983L168.367,137.983C167.119,137.983 166.543,137.695 166.543,137.047C166.543,136.495 167.239,136.087 167.647,135.679C167.887,135.703 168.031,135.727 168.223,135.727C169.687,135.727 173.119,134.599 173.119,131.551C173.119,131.071 173.047,130.759 172.855,130.255L175.063,130.255L175.663,129.271L175.567,128.983L172.159,129.079C171.271,128.359 170.407,128.071 169.231,128.071C167.431,128.071 163.927,129.151 163.927,132.391ZM168.367,128.887C169.999,128.887 171.103,130.231 171.103,132.271C171.103,133.831 170.095,134.911 168.631,134.911C167.023,134.911 165.943,133.663 165.943,131.815C165.943,129.967 166.831,128.887 168.367,128.887ZM169.495,139.663C172.207,139.663 173.143,140.215 173.143,141.775C173.143,143.839 171.247,145.375 168.727,145.375C166.639,145.375 165.199,144.151 165.199,142.375C165.199,141.295 165.823,140.311 166.783,139.903C167.167,139.711 167.839,139.663 169.495,139.663Z" style="fill:black;fill-rule:nonzero;"/>
    <g>
        <path d="M39.662,71.3L39.662,70.58L38.414,70.508C37.094,70.436 36.854,70.172 36.854,68.924L36.854,54.428L31.07,56.876L31.238,58.076L34.838,56.492L34.838,68.924C34.838,70.172 34.574,70.436 33.278,70.508L31.934,70.58L31.934,71.3C35.63,71.228 35.63,71.228 35.894,71.228C36.638,71.228 39.278,71.3 39.662,71.3Z" style="fill:black;fill-rule:nonzero;"/>
        <path d="M85.369,75.09C85.369,72.186 82.801,71.682 81.673,71.49C83.593,70.002 84.313,68.898 84.313,67.482C84.313,65.346 82.537,63.93 79.873,63.93C78.241,63.93 77.161,64.386 76.009,65.538L75.313,68.514L76.057,68.514L76.489,67.17C76.753,66.354 78.265,65.538 79.513,65.538C81.073,65.538 82.345,66.81 82.345,68.322C82.345,70.122 80.929,71.634 79.225,71.634C79.033,71.634 78.769,71.61 78.457,71.586L78.097,71.562L77.809,72.834L77.977,72.978C78.889,72.57 79.345,72.45 79.993,72.45C81.985,72.45 83.137,73.722 83.137,75.906C83.137,78.354 81.673,79.962 79.441,79.962C78.337,79.962 77.353,79.602 76.633,78.93C76.057,78.402 75.745,77.85 75.289,76.554L74.641,76.794C75.145,78.258 75.337,79.122 75.481,80.322C76.753,80.754 77.809,80.946 78.697,80.946C81.649,80.946 85.369,78.378 85.369,75.09Z" style="fill:black;fill-rule:nonzero;"/>
    </g>
    <path d="M180.774,45.006C180.774,42.294 178.83,40.374 176.094,40.374C174.942,40.374 174.078,40.446 172.806,41.574L172.806,36.558L180.126,36.582L180.126,34.542L171.558,34.518L171.558,43.35L172.038,43.494C173.166,42.366 173.814,42.03 174.99,42.03C177.294,42.03 178.734,43.662 178.734,46.254C178.734,48.918 177.198,50.478 174.582,50.478C173.286,50.478 172.086,50.046 171.75,49.422L170.646,47.454L170.07,47.79C170.622,49.158 170.91,49.926 171.246,50.982C171.918,51.342 172.878,51.558 173.91,51.558C176.982,51.558 180.774,48.942 180.774,45.006Z" style="fill:black;fill-rule:nonzero;"/>
    <path d="M20.331,183.632L20.331,185.432C20.331,186.872 20.067,187.208 18.891,187.256L17.403,187.328L17.403,188.048C20.595,187.976 20.595,187.976 21.171,187.976C21.747,187.976 21.747,187.976 24.939,188.048L24.939,187.328L23.787,187.256C22.611,187.184 22.347,186.872 22.347,185.432L22.347,183.632C23.763,183.632 24.267,183.656 24.939,183.728L24.939,182.024L22.347,182.096L22.371,171.248L20.451,171.968L13.659,183.08L13.659,183.632L20.331,183.632ZM20.331,182.096L15.171,182.096L20.331,173.648L20.331,182.096Z" style="fill:black;fill-rule:nonzero;"/>
</svg>
