<?xml version="1.0" standalone="no"?>
<!DOCTYPE svg PUBLIC "-//W3C//DTD SVG 1.1//EN" "http://www.w3.org/Graphics/SVG/1.1/DTD/svg11.dtd">
<svg width="100%" height="100%" viewBox="0 0 224 186" version="1.1" xmlns="http://www.w3.org/2000/svg" xmlns:xlink="http://www.w3.org/1999/xlink" xml:space="preserve" style="fill-rule:evenodd;clip-rule:evenodd;stroke-linejoin:round;stroke-miterlimit:10;">
    <clipPath id="_clip1">
        <path d="M0,0L0,186L224,186L224,0L0,0ZM84.499,136.086L93.821,134.259L91.995,125L82.672,126.826L91.05,130.039L84.499,136.086Z"/>
    </clipPath>
    <g clip-path="url(#_clip1)">
        <path d="M1.415,147.865L91.995,129.85" style="fill:none;stroke-width:0.94px;stroke:rgb(112,112,112);"/>
    </g>
    <path d="M84.499,136.086L91.05,130.039L82.672,126.826" style="fill:none;stroke-width:0.94px;stroke-linejoin:miter;stroke:rgb(112,112,112);"/>
    <clipPath id="_clip2">
        <path d="M0,0L0,186L224,186L224,0L0,0ZM11.934,154.668L2.675,156.684L4.691,165.943L13.95,163.927L5.572,160.967L11.934,154.668Z"/>
    </clipPath>
    <g clip-path="url(#_clip2)">
        <path d="M95.018,141.251L4.627,161.156" style="fill:none;stroke-width:0.94px;stroke:rgb(112,112,112);"/>
    </g>
    <path d="M11.934,154.668L5.572,160.967L13.95,163.927" style="fill:none;stroke-width:0.94px;stroke-linejoin:miter;stroke:rgb(112,112,112);"/>
    <clipPath id="_clip3">
        <path d="M0,0L0,186L224,186L224,0L0,0ZM87.522,10.61L86.766,1.224L77.381,1.917L78.074,11.366L82.231,3.492L87.522,10.61Z"/>
    </clipPath>
    <g clip-path="url(#_clip3)">
        <path d="M91.995,129.85L82.168,2.547" style="fill:none;stroke-width:0.94px;stroke:rgb(112,112,112);"/>
    </g>
    <path d="M87.522,10.61L82.231,3.492L78.074,11.366" style="fill:none;stroke-width:0.94px;stroke-linejoin:miter;stroke:rgb(112,112,112);"/>
    <clipPath id="_clip4">
        <path d="M0,0L0,186L224,186L224,0L0,0ZM103.711,10.043L103.27,0.595L93.821,1.035L94.325,10.484L98.672,2.736L103.711,10.043Z"/>
    </clipPath>
    <g clip-path="url(#_clip4)">
        <path d="M104.907,129.346L98.609,1.791" style="fill:none;stroke-width:0.94px;stroke:rgb(112,112,112);"/>
    </g>
    <path d="M103.711,10.043L98.672,2.736L94.325,10.484" style="fill:none;stroke-width:0.94px;stroke-linejoin:miter;stroke:rgb(112,112,112);"/>
    <clipPath id="_clip5">
        <path d="M0,0L0,186L224,186L224,0L0,0ZM114.293,131.802L107.49,125.252L100.939,132.054L107.742,138.606L105.6,129.976L114.293,131.802Z"/>
    </clipPath>
    <g clip-path="url(#_clip5)">
        <path d="M143.205,166.321L104.907,129.346" style="fill:none;stroke-width:0.94px;stroke:rgb(112,112,112);"/>
    </g>
    <path d="M114.293,131.802L105.6,129.976L107.742,138.605" style="fill:none;stroke-width:0.94px;stroke-linejoin:miter;stroke:rgb(112,112,112);"/>
    <clipPath id="_clip6">
        <path d="M0,0L0,186L224,186L224,0L0,0ZM104.152,144.527L97.916,137.409L90.798,143.582L96.971,150.7L95.648,141.944L104.152,144.527Z"/>
    </clipPath>
    <g clip-path="url(#_clip6)">
        <path d="M129.726,181.313L95.018,141.251" style="fill:none;stroke-width:0.94px;stroke:rgb(112,112,112);"/>
    </g>
    <path d="M104.152,144.527L95.648,141.944L96.971,150.7" style="fill:none;stroke-width:0.94px;stroke-linejoin:miter;stroke:rgb(112,112,112);"/>
    <clipPath id="_clip7">
        <path d="M0,0L0,186L224,186L224,0L0,0ZM145.032,20.94L137.914,14.83L131.741,22.011L138.922,28.121L136.277,19.68L145.032,20.94Z"/>
    </clipPath>
    <g clip-path="url(#_clip7)">
        <path d="M222.447,93.127L135.584,19.05" style="fill:none;stroke-width:0.94px;stroke:rgb(112,112,112);"/>
    </g>
    <path d="M145.032,20.94L136.277,19.68L138.922,28.121" style="fill:none;stroke-width:0.94px;stroke-linejoin:miter;stroke:rgb(112,112,112);"/>
    <clipPath id="_clip8">
        <path d="M0,0L0,186L224,186L224,0L0,0ZM1.352,138.102L-3.12,146.353L5.068,150.952L9.604,142.7L1.856,147.046L1.352,138.102Z"/>
    </clipPath>
    <g clip-path="url(#_clip8)">
        <path d="M82.168,2.547L1.415,147.865" style="fill:none;stroke-width:0.94px;stroke:rgb(112,112,112);"/>
    </g>
    <path d="M1.352,138.102L1.856,147.046L9.604,142.7" style="fill:none;stroke-width:0.94px;stroke-linejoin:miter;stroke:rgb(112,112,112);"/>
    <clipPath id="_clip9">
        <path d="M0,0L0,186L224,186L224,0L0,0ZM84.751,12.877L89.286,4.626L81.034,0.027L76.499,8.279L84.31,3.996L84.751,12.877Z"/>
    </clipPath>
    <g clip-path="url(#_clip9)">
        <path d="M2.423,151.141L84.751,3.177" style="fill:none;stroke-width:0.94px;stroke:black;"/>
    </g>
    <path d="M84.751,12.877L84.31,3.996L76.499,8.279" style="fill:none;stroke-width:0.94px;stroke-linejoin:miter;stroke:black;"/>
    <clipPath id="_clip10">
        <path d="M0,0L0,186L224,186L224,0L0,0ZM120.529,184.588L129.852,186.1L131.363,176.777L122.041,175.266L128.781,181.187L120.529,184.588Z"/>
    </clipPath>
    <g clip-path="url(#_clip10)">
        <path d="M4.627,161.156L129.726,181.313" style="fill:none;stroke-width:0.94px;stroke:rgb(112,112,112);"/>
    </g>
    <path d="M120.529,184.588L128.781,181.187L122.041,175.266" style="fill:none;stroke-width:0.94px;stroke-linejoin:miter;stroke:rgb(112,112,112);"/>
    <clipPath id="_clip11">
        <path d="M0,0L0,186L224,186L224,0L0,0ZM136.402,159.329L138.859,168.463L147.993,165.943L145.473,156.873L142.954,165.439L136.402,159.329Z"/>
    </clipPath>
    <g clip-path="url(#_clip11)">
        <path d="M98.609,1.791L143.205,166.321" style="fill:none;stroke-width:0.94px;stroke:rgb(112,112,112);"/>
    </g>
    <path d="M136.402,159.329L142.954,165.439L145.473,156.873" style="fill:none;stroke-width:0.94px;stroke-linejoin:miter;stroke:rgb(112,112,112);"/>
    <clipPath id="_clip12">
        <path d="M0,0L0,186L224,186L224,0L0,0ZM11.556,147.739L2.171,146.29L0.785,155.613L10.045,157.061L3.368,151.266L11.556,147.739Z"/>
    </clipPath>
    <g clip-path="url(#_clip12)">
        <path d="M129.537,170.982L2.423,151.141" style="fill:none;stroke-width:0.94px;stroke:black;"/>
    </g>
    <path d="M11.556,147.739L3.368,151.266L10.045,157.061" style="fill:none;stroke-width:0.94px;stroke-linejoin:miter;stroke:black;"/>
    <clipPath id="_clip13">
        <path d="M0,0L0,186L224,186L224,0L0,0ZM122.734,163.99L125.19,173.061L134.324,170.667L131.867,161.534L129.285,170.1L122.734,163.99Z"/>
    </clipPath>
    <g clip-path="url(#_clip13)">
        <path d="M84.751,3.177L129.537,170.982" style="fill:none;stroke-width:0.94px;stroke:black;"/>
    </g>
    <path d="M122.734,163.99L129.285,170.1L131.867,161.534" style="fill:none;stroke-width:0.94px;stroke-linejoin:miter;stroke:black;"/>
    <path d="M45.073,134.456L45.073,135.08C49.561,135.08 49.561,135.008 50.425,135.008C51.289,135.008 51.289,135.08 55.921,135.08L55.921,133.04C53.161,133.16 52.057,133.064 47.617,133.16L51.985,128.528C54.313,126.056 55.033,124.736 55.033,122.936C55.033,120.176 53.161,118.472 50.113,118.472C48.385,118.472 47.209,118.952 46.033,120.152L45.625,123.416L46.321,123.416L46.633,122.312C47.017,120.92 47.881,120.32 49.489,120.32C51.553,120.32 52.873,121.616 52.873,123.656C52.873,125.456 51.865,127.232 49.153,130.112L45.073,134.456Z" style="fill:black;fill-rule:nonzero;"/>
    <path d="M48.87,90.18C50.43,90.18 52.59,89.268 52.878,88.836L53.358,88.02L53.046,87.78C51.51,88.692 50.958,88.908 49.926,88.908C48.366,88.908 47.07,88.212 46.398,87.036C45.942,86.244 45.774,85.572 45.726,84.18C46.23,84.252 46.95,84.276 47.766,84.276C49.83,84.276 52.446,84.084 53.574,83.844C53.598,83.508 53.622,83.292 53.622,83.004C53.622,80.244 51.846,78.444 49.158,78.444C48.27,78.444 47.19,78.564 46.23,79.14C44.262,80.292 43.494,81.948 43.494,84.444C43.494,89.1 46.734,90.18 48.87,90.18ZM51.486,83.292C50.91,83.364 49.686,83.436 48.462,83.436C47.43,83.436 46.398,83.364 45.774,83.22C45.774,82.092 45.87,81.564 46.182,80.94C46.686,79.884 47.718,79.236 48.87,79.236C49.662,79.236 50.286,79.548 50.718,80.196C51.246,80.988 51.414,81.684 51.486,83.292Z" style="fill:black;fill-rule:nonzero;"/>
    <g>
        <path d="M39.662,71.3L39.662,70.58L38.414,70.508C37.094,70.436 36.854,70.172 36.854,68.924L36.854,54.428L31.07,56.876L31.238,58.076L34.838,56.492L34.838,68.924C34.838,70.172 34.574,70.436 33.278,70.508L31.934,70.58L31.934,71.3C35.63,71.228 35.63,71.228 35.894,71.228C36.638,71.228 39.278,71.3 39.662,71.3Z" style="fill:black;fill-rule:nonzero;"/>
        <path d="M85.369,75.09C85.369,72.186 82.801,71.682 81.673,71.49C83.593,70.002 84.313,68.898 84.313,67.482C84.313,65.346 82.537,63.93 79.873,63.93C78.241,63.93 77.161,64.386 76.009,65.538L75.313,68.514L76.057,68.514L76.489,67.17C76.753,66.354 78.265,65.538 79.513,65.538C81.073,65.538 82.345,66.81 82.345,68.322C82.345,70.122 80.929,71.634 79.225,71.634C79.033,71.634 78.769,71.61 78.457,71.586L78.097,71.562L77.809,72.834L77.977,72.978C78.889,72.57 79.345,72.45 79.993,72.45C81.985,72.45 83.137,73.722 83.137,75.906C83.137,78.354 81.673,79.962 79.441,79.962C78.337,79.962 77.353,79.602 76.633,78.93C76.057,78.402 75.745,77.85 75.289,76.554L74.641,76.794C75.145,78.258 75.337,79.122 75.481,80.322C76.753,80.754 77.809,80.946 78.697,80.946C81.649,80.946 85.369,78.378 85.369,75.09Z" style="fill:black;fill-rule:nonzero;"/>
    </g>
    <path d="M192.807,48.217C192.807,45.505 190.863,43.585 188.127,43.585C186.975,43.585 186.111,43.657 184.839,44.785L184.839,39.769L192.159,39.793L192.159,37.753L183.591,37.729L183.591,46.561L184.071,46.705C185.199,45.577 185.847,45.241 187.023,45.241C189.327,45.241 190.767,46.873 190.767,49.465C190.767,52.129 189.231,53.689 186.615,53.689C185.319,53.689 184.119,53.257 183.783,52.633L182.679,50.665L182.103,51.001C182.655,52.369 182.943,53.137 183.279,54.193C183.951,54.553 184.911,54.769 185.943,54.769C189.015,54.769 192.807,52.153 192.807,48.217Z" style="fill:black;fill-rule:nonzero;"/>
    <path d="M25.165,179.229L25.165,181.029C25.165,182.469 24.901,182.805 23.725,182.853L22.237,182.925L22.237,183.645C25.429,183.573 25.429,183.573 26.005,183.573C26.581,183.573 26.581,183.573 29.773,183.645L29.773,182.925L28.621,182.853C27.445,182.781 27.181,182.469 27.181,181.029L27.181,179.229C28.597,179.229 29.101,179.253 29.773,179.325L29.773,177.621L27.181,177.693L27.205,166.845L25.285,167.565L18.493,178.677L18.493,179.229L25.165,179.229ZM25.165,177.693L20.005,177.693L25.165,169.245L25.165,177.693Z" style="fill:black;fill-rule:nonzero;"/>
</svg>
