<?xml version="1.0" standalone="no"?>
<!DOCTYPE svg PUBLIC "-//W3C//DTD SVG 1.1//EN" "http://www.w3.org/Graphics/SVG/1.1/DTD/svg11.dtd">
<svg width="100%" height="100%" viewBox="0 0 224 182" version="1.1" xmlns="http://www.w3.org/2000/svg" xmlns:xlink="http://www.w3.org/1999/xlink" xml:space="preserve" style="fill-rule:evenodd;clip-rule:evenodd;stroke-linejoin:round;stroke-miterlimit:10;">
    <clipPath id="_clip1">
        <path d="M0,0L0,182L224,182L224,0L0,0ZM84.499,135.386L93.821,133.559L91.995,124.3L82.672,126.126L91.05,129.339L84.499,135.386Z"/>
    </clipPath>
    <g clip-path="url(#_clip1)">
        <path d="M1.415,147.165L91.995,129.15" style="fill:none;stroke-width:0.94px;stroke:black;"/>
    </g>
    <path d="M84.499,135.386L91.05,129.339L82.672,126.126" style="fill:none;stroke-width:0.94px;stroke-linejoin:miter;stroke:black;"/>
    <clipPath id="_clip2">
        <path d="M0,0L0,182L224,182L224,0L0,0ZM87.522,9.91L86.766,0.524L77.381,1.217L78.074,10.666L82.231,2.792L87.522,9.91Z"/>
    </clipPath>
    <g clip-path="url(#_clip2)">
        <path d="M91.995,129.15L82.168,1.847" style="fill:none;stroke-width:0.94px;stroke:black;"/>
    </g>
    <path d="M87.522,9.91L82.231,2.792L78.074,10.666" style="fill:none;stroke-width:0.94px;stroke-linejoin:miter;stroke:black;"/>
    <clipPath id="_clip3">
        <path d="M0,0L0,182L224,182L224,0L0,0ZM140.434,145.338L142.071,136.016L132.749,134.441L131.111,143.764L137.095,137.15L140.434,145.338Z"/>
    </clipPath>
    <g clip-path="url(#_clip3)">
        <path d="M129.726,180.612L137.284,136.205" style="fill:none;stroke-width:0.94px;stroke:rgb(112,112,112);"/>
    </g>
    <path d="M140.434,145.338L137.095,137.15L131.111,143.764" style="fill:none;stroke-width:0.94px;stroke-linejoin:miter;stroke:rgb(112,112,112);"/>
    <clipPath id="_clip4">
        <path d="M0,0L0,182L224,182L224,0L0,0ZM145.032,19.547L137.914,13.374L131.741,20.555L138.859,26.728L136.277,18.225L145.032,19.547Z"/>
    </clipPath>
    <g clip-path="url(#_clip4)">
        <path d="M222.447,92.427L135.584,17.595" style="fill:none;stroke-width:0.94px;stroke:rgb(112,112,112);"/>
    </g>
    <path d="M145.032,19.547L136.277,18.225L138.859,26.728" style="fill:none;stroke-width:0.94px;stroke-linejoin:miter;stroke:rgb(112,112,112);"/>
    <clipPath id="_clip5">
        <path d="M0,0L0,182L224,182L224,0L0,0ZM1.352,137.402L-3.12,145.653L5.068,150.252L9.604,142L1.856,146.346L1.352,137.402Z"/>
    </clipPath>
    <g clip-path="url(#_clip5)">
        <path d="M82.168,1.847L1.415,147.165" style="fill:none;stroke-width:0.94px;stroke:black;"/>
    </g>
    <path d="M1.352,137.402L1.856,146.346L9.604,142" style="fill:none;stroke-width:0.94px;stroke-linejoin:miter;stroke:black;"/>
    <path d="M45.073,134.456L45.073,135.08C49.561,135.08 49.561,135.008 50.425,135.008C51.289,135.008 51.289,135.08 55.921,135.08L55.921,133.04C53.161,133.16 52.057,133.064 47.617,133.16L51.985,128.528C54.313,126.056 55.033,124.736 55.033,122.936C55.033,120.176 53.161,118.472 50.113,118.472C48.385,118.472 47.209,118.952 46.033,120.152L45.625,123.416L46.321,123.416L46.633,122.312C47.017,120.92 47.881,120.32 49.489,120.32C51.553,120.32 52.873,121.616 52.873,123.656C52.873,125.456 51.865,127.232 49.153,130.112L45.073,134.456Z" style="fill:black;fill-rule:nonzero;"/>
    <g>
        <path d="M39.662,71.3L39.662,70.58L38.414,70.508C37.094,70.436 36.854,70.172 36.854,68.924L36.854,54.428L31.07,56.876L31.238,58.076L34.838,56.492L34.838,68.924C34.838,70.172 34.574,70.436 33.278,70.508L31.934,70.58L31.934,71.3C35.63,71.228 35.63,71.228 35.894,71.228C36.638,71.228 39.278,71.3 39.662,71.3Z" style="fill:black;fill-rule:nonzero;"/>
        <path d="M51.443,65.923L51.227,65.731C50.171,66.139 49.379,66.331 47.483,66.619L47.483,67.291L48.827,67.291C49.259,67.291 49.427,67.555 49.427,68.275L49.427,79.483C49.427,80.971 49.403,81.619 49.235,83.299L49.619,83.443L50.579,82.579C52.091,83.443 53.411,83.827 54.563,83.827C58.211,83.827 60.035,80.083 60.035,76.867L60.035,76.675C59.723,73.219 57.539,71.515 55.403,71.515C53.795,71.515 52.211,72.451 51.443,74.299L51.443,65.923ZM54.659,73.459C56.675,73.459 57.947,75.091 57.947,77.659C57.947,80.347 56.507,82.219 54.467,82.219C53.219,82.219 51.443,81.451 51.443,80.923L51.443,75.763C51.443,74.923 52.787,73.459 54.659,73.459Z" style="fill:black;fill-rule:nonzero;"/>
    </g>
    <path d="M101.626,75.518C101.626,72.614 99.058,72.11 97.93,71.918C99.85,70.43 100.57,69.326 100.57,67.91C100.57,65.774 98.794,64.358 96.13,64.358C94.498,64.358 93.418,64.814 92.266,65.966L91.57,68.942L92.314,68.942L92.746,67.598C93.01,66.782 94.522,65.966 95.77,65.966C97.33,65.966 98.602,67.238 98.602,68.75C98.602,70.55 97.186,72.062 95.482,72.062C95.29,72.062 95.026,72.038 94.714,72.014L94.354,71.99L94.066,73.262L94.234,73.406C95.146,72.998 95.602,72.878 96.25,72.878C98.242,72.878 99.394,74.15 99.394,76.334C99.394,78.782 97.93,80.39 95.698,80.39C94.594,80.39 93.61,80.03 92.89,79.358C92.314,78.83 92.002,78.278 91.546,76.982L90.898,77.222C91.402,78.686 91.594,79.55 91.738,80.75C93.01,81.182 94.066,81.374 94.954,81.374C97.906,81.374 101.626,78.806 101.626,75.518Z" style="fill:black;fill-rule:nonzero;"/>
    <path d="M192.807,48.217C192.807,45.505 190.863,43.585 188.127,43.585C186.975,43.585 186.111,43.657 184.839,44.785L184.839,39.769L192.159,39.793L192.159,37.753L183.591,37.729L183.591,46.561L184.071,46.705C185.199,45.577 185.847,45.241 187.023,45.241C189.327,45.241 190.767,46.873 190.767,49.465C190.767,52.129 189.231,53.689 186.615,53.689C185.319,53.689 184.119,53.257 183.783,52.633L182.679,50.665L182.103,51.001C182.655,52.369 182.943,53.137 183.279,54.193C183.951,54.553 184.911,54.769 185.943,54.769C189.015,54.769 192.807,52.153 192.807,48.217Z" style="fill:black;fill-rule:nonzero;"/>
    <path d="M124.677,164.915L124.677,166.715C124.677,168.155 124.413,168.491 123.237,168.539L121.749,168.611L121.749,169.331C124.941,169.259 124.941,169.259 125.517,169.259C126.093,169.259 126.093,169.259 129.285,169.331L129.285,168.611L128.133,168.539C126.957,168.467 126.693,168.155 126.693,166.715L126.693,164.915C128.109,164.915 128.613,164.939 129.285,165.011L129.285,163.307L126.693,163.379L126.717,152.531L124.797,153.251L118.005,164.363L118.005,164.915L124.677,164.915ZM124.677,163.379L119.517,163.379L124.677,154.931L124.677,163.379Z" style="fill:black;fill-rule:nonzero;"/>
</svg>
