<?xml version="1.0" standalone="no"?>
<!DOCTYPE svg PUBLIC "-//W3C//DTD SVG 1.1//EN" "http://www.w3.org/Graphics/SVG/1.1/DTD/svg11.dtd">
<svg width="100%" height="100%" viewBox="0 0 1129 236" version="1.1" xmlns="http://www.w3.org/2000/svg" xmlns:xlink="http://www.w3.org/1999/xlink" xml:space="preserve" style="fill-rule:evenodd;clip-rule:evenodd;stroke-miterlimit:10;">
    <path d="M4.199,92.907L128.718,7.961L331.672,30.197L225.915,120.308L4.199,92.907Z" style="fill:rgb(206,206,206);fill-rule:nonzero;"/>
    <path d="M22.936,201.974L4.199,92.907L225.915,120.308L238.752,231.915L22.936,201.974Z" style="fill:white;fill-rule:nonzero;"/>
    <path d="M238.752,231.915L225.915,120.308L331.672,30.197L340.466,133.251L238.752,231.915Z" style="fill:rgb(168,168,168);fill-rule:nonzero;"/>
    <path d="M1123.52,46.925L1111.21,151.61L1102.46,200.363L1115.18,91.433L1123.52,46.925Z" style="fill:rgb(168,168,168);fill-rule:nonzero;"/>
    <path d="M1102.46,200.363L1042.63,193.177L1053.53,84.865L1115.18,91.433L1102.46,200.363Z" style="fill:white;fill-rule:nonzero;"/>
    <path d="M1115.18,91.433L1053.53,84.865L1047.35,108.607L863.175,88.429L903.516,4.314L1070.23,20.718L1064.95,41.011L1068.11,41.33L1123.52,46.925L1115.18,91.433Z" style="fill:rgb(206,206,206);fill-rule:nonzero;"/>
    <path d="M1053.53,84.865L1042.63,193.177L1036.34,219.136L1047.35,108.607L1053.53,84.865Z" style="fill:rgb(168,168,168);fill-rule:nonzero;"/>
    <path d="M1064.95,41.011L1070.23,20.718L1068.11,41.33L1064.95,41.011Z" style="fill:rgb(168,168,168);fill-rule:nonzero;"/>
    <path d="M857.602,197.076L863.175,88.429L1047.35,108.607L1036.34,219.136L857.602,197.076Z" style="fill:white;fill-rule:nonzero;"/>
    <path d="M495.66,28.092L517.02,6.133L703.137,25.429L495.66,28.092Z" style="fill:rgb(149,154,172);fill-rule:nonzero;"/>
    <path d="M495.66,28.092L703.137,25.429L695.868,35.568L491.323,32.551L495.66,28.092Z" style="fill:rgb(149,154,172);fill-rule:nonzero;"/>
    <path d="M491.323,32.551L695.868,35.568L703.032,36.321L723.529,38.475L490.352,33.549L491.323,32.551Z" style="fill:rgb(149,154,172);fill-rule:nonzero;"/>
    <path d="M640.088,225.485L441.317,199.519L434.797,90.662L565.007,105.786L639.329,114.419L640.088,225.485Z" style="fill:rgb(197,203,228);fill-rule:nonzero;"/>
    <path d="M639.329,114.419L565.007,105.786L648.07,102.229L639.329,114.419Z" style="fill:rgb(149,154,172);fill-rule:nonzero;"/>
    <path d="M721.985,142.339L677.473,215.888L677.827,105.634L681.107,100.814L688.917,89.337L723.529,38.475L721.985,142.339Z" style="fill:rgb(120,124,139);fill-rule:nonzero;"/>
    <path d="M648.569,212.167L640.088,225.485L639.329,114.419L648.07,102.229L648.569,212.167Z" style="fill:rgb(120,124,139);fill-rule:nonzero;"/>
    <path d="M434.797,90.662L490.352,33.549L723.529,38.475L688.917,89.337L434.797,90.662Z" style="fill:rgb(149,154,172);fill-rule:nonzero;"/>
    <path d="M703.032,36.321L695.868,35.568L703.137,25.429L703.032,36.321Z" style="fill:rgb(120,124,139);fill-rule:nonzero;"/>
    <path d="M677.827,105.634L677.473,215.888L648.569,212.167L648.07,102.229L677.827,105.634Z" style="fill:rgb(197,203,228);fill-rule:nonzero;"/>
    <path d="M677.827,105.634L648.07,102.229L681.107,100.814L677.827,105.634Z" style="fill:rgb(149,154,172);fill-rule:nonzero;"/>
    <path d="M434.797,90.662L688.917,89.337L681.107,100.814L648.07,102.229L565.007,105.786L434.797,90.662Z" style="fill:rgb(149,154,172);fill-rule:nonzero;"/>
    <path d="M238.752,231.915L340.466,133.251" style="fill:none;stroke-width:1.5px;stroke:black;"/>
    <path d="M22.936,201.974L238.752,231.915" style="fill:none;stroke-width:1.5px;stroke:black;"/>
    <path d="M128.718,7.961L4.199,92.907" style="fill:none;stroke-width:1.5px;stroke:black;"/>
    <path d="M4.199,92.907L225.915,120.308" style="fill:none;stroke-width:0.75px;stroke:black;"/>
    <path d="M225.915,120.308L331.672,30.197" style="fill:none;stroke-width:0.75px;stroke:black;"/>
    <path d="M331.672,30.197L128.718,7.961" style="fill:none;stroke-width:1.5px;stroke:black;"/>
    <path d="M22.936,201.974L4.199,92.907" style="fill:none;stroke-width:1.5px;stroke:black;"/>
    <path d="M238.752,231.915L225.915,120.308" style="fill:none;stroke-width:0.75px;stroke:black;"/>
    <path d="M340.466,133.251L331.672,30.197" style="fill:none;stroke-width:1.5px;stroke:black;"/>
    <path d="M1036.34,219.136L1042.63,193.177" style="fill:none;stroke-width:1.5px;stroke:black;"/>
    <path d="M857.602,197.076L1036.34,219.136" style="fill:none;stroke-width:1.5px;stroke:black;"/>
    <path d="M903.516,4.314L863.175,88.429" style="fill:none;stroke-width:1.5px;stroke:black;"/>
    <path d="M863.175,88.429L1047.35,108.607" style="fill:none;stroke-width:0.75px;stroke:black;"/>
    <path d="M1047.35,108.607L1053.53,84.865" style="fill:none;stroke-width:0.75px;stroke:black;"/>
    <path d="M1070.23,20.718L903.516,4.314" style="fill:none;stroke-width:1.5px;stroke:black;"/>
    <path d="M857.602,197.076L863.175,88.429" style="fill:none;stroke-width:1.5px;stroke:black;"/>
    <path d="M1036.34,219.136L1047.35,108.607" style="fill:none;stroke-width:0.75px;stroke:black;"/>
    <path d="M1068.11,41.33L1070.23,20.718" style="fill:none;stroke-width:1.5px;stroke:black;"/>
    <path d="M1042.63,193.177L1053.53,84.865" style="fill:none;stroke-width:0.75px;stroke:black;"/>
    <path d="M1064.95,41.011L1070.23,20.718" style="fill:none;stroke-width:0.75px;stroke:black;"/>
    <path d="M1102.46,200.363L1111.21,151.61" style="fill:none;stroke-width:1.5px;stroke:black;"/>
    <path d="M1111.21,151.61L1123.52,46.925" style="fill:none;stroke-width:1.5px;stroke:black;"/>
    <path d="M1115.18,91.433L1123.52,46.925" style="fill:none;stroke-width:0.75px;stroke:black;"/>
    <path d="M1102.46,200.363L1115.18,91.433" style="fill:none;stroke-width:0.75px;stroke:black;"/>
    <path d="M1042.63,193.177L1102.46,200.363" style="fill:none;stroke-width:1.5px;stroke:black;"/>
    <path d="M1053.53,84.865L1115.18,91.433" style="fill:none;stroke-width:0.75px;stroke:black;"/>
    <path d="M495.66,28.092L517.02,6.133" style="fill:none;stroke-width:1.5px;stroke:black;"/>
    <path d="M491.323,32.551L495.66,28.092" style="fill:none;stroke-width:1.5px;stroke:black;"/>
    <path d="M495.66,28.092L703.137,25.429" style="fill:none;stroke-width:0.75px;stroke:rgb(204,38,16);"/>
    <path d="M434.797,90.662L490.352,33.549" style="fill:none;stroke-width:1.5px;stroke:black;"/>
    <path d="M639.329,114.419L640.088,225.485" style="fill:none;stroke-width:0.75px;stroke:black;"/>
    <path d="M441.317,199.519L434.797,90.662" style="fill:none;stroke-width:1.5px;stroke:black;"/>
    <path d="M677.473,215.888L648.569,212.167" style="fill:none;stroke-width:1.5px;stroke:black;"/>
    <path d="M648.07,102.229L677.827,105.634" style="fill:none;stroke-width:0.75px;stroke:black;"/>
    <path d="M648.07,102.229L565.007,105.786" style="fill:none;stroke-width:0.75px;stroke:rgb(204,38,16);"/>
    <path d="M648.07,102.229L648.569,212.167" style="fill:none;stroke-width:0.75px;stroke:black;"/>
    <path d="M677.827,105.634L677.473,215.888" style="fill:none;stroke-width:0.75px;stroke:black;"/>
    <path d="M695.868,35.568L703.137,25.429" style="fill:none;stroke-width:0.75px;stroke:black;"/>
    <path d="M695.868,35.568L491.323,32.551" style="fill:none;stroke-width:0.75px;stroke:rgb(204,38,16);"/>
    <path d="M490.352,33.549L491.323,32.551" style="fill:none;stroke-width:1.5px;stroke:black;"/>
    <path d="M703.137,25.429L703.032,36.321" style="fill:none;stroke-width:1.5px;stroke:black;"/>
    <path d="M723.529,38.475L721.985,142.339" style="fill:none;stroke-width:1.5px;stroke:black;"/>
    <path d="M517.02,6.133L703.137,25.429" style="fill:none;stroke-width:1.5px;stroke:black;"/>
    <path d="M723.529,38.475L688.917,89.337" style="fill:none;stroke-width:0.75px;stroke:black;"/>
    <path d="M688.917,89.337L681.107,100.814" style="fill:none;stroke-width:0.75px;stroke:black;"/>
    <path d="M681.107,100.814L677.827,105.634" style="fill:none;stroke-width:0.75px;stroke:black;"/>
    <path d="M688.917,89.337L434.797,90.662" style="fill:none;stroke-width:0.75px;stroke:rgb(204,38,16);"/>
    <path d="M723.529,38.475L490.352,33.549" style="fill:none;stroke-width:0.75px;stroke:rgb(204,38,16);"/>
    <path d="M681.107,100.814L648.07,102.229" style="fill:none;stroke-width:0.75px;stroke:rgb(204,38,16);"/>
    <path d="M434.797,90.662L565.007,105.786" style="fill:none;stroke-width:0.75px;stroke:black;"/>
    <path d="M1064.95,41.011L1068.11,41.33" style="fill:none;stroke-width:1.5px;stroke:black;"/>
    <path d="M1068.11,41.33L1123.52,46.925" style="fill:none;stroke-width:1.5px;stroke:black;"/>
    <path d="M695.868,35.568L703.032,36.321" style="fill:none;stroke-width:1.5px;stroke:black;"/>
    <path d="M703.032,36.321L723.529,38.475" style="fill:none;stroke-width:1.5px;stroke:black;"/>
    <path d="M648.569,212.167L640.088,225.485" style="fill:none;stroke-width:1.5px;stroke:black;"/>
    <path d="M648.07,102.229L639.329,114.419" style="fill:none;stroke-width:0.75px;stroke:black;"/>
    <path d="M721.985,142.339L677.473,215.888" style="fill:none;stroke-width:1.5px;stroke:black;"/>
    <path d="M565.007,105.786L639.329,114.419" style="fill:none;stroke-width:0.75px;stroke:black;"/>
    <path d="M441.317,199.519L640.088,225.485" style="fill:none;stroke-width:1.5px;stroke:black;"/>
    <path d="M225.915,120.308L639.329,114.419" style="fill:none;stroke-width:1.5px;stroke:rgb(204,38,16);"/>
    <path d="M1053.53,84.865L681.107,100.814" style="fill:none;stroke-width:1.5px;stroke:rgb(204,38,16);"/>
    <path d="M1115.18,91.433L677.827,105.634" style="fill:none;stroke-width:1.5px;stroke:rgb(204,38,16);"/>
    <path d="M331.672,30.197L495.66,28.092" style="fill:none;stroke-width:1.5px;stroke:rgb(204,38,16);"/>
    <path d="M1064.95,41.011L695.868,35.568" style="fill:none;stroke-width:1.5px;stroke:rgb(204,38,16);"/>
    <path d="M1123.52,46.925L723.529,38.475" style="fill:none;stroke-width:1.5px;stroke:rgb(204,38,16);"/>
    <path d="M903.516,4.314L517.02,6.133" style="fill:none;stroke-width:1.5px;stroke:rgb(204,38,16);"/>
    <path d="M863.175,88.429L688.917,89.337" style="fill:none;stroke-width:1.5px;stroke:rgb(204,38,16);"/>
    <path d="M271.119,200.518L441.317,199.519" style="fill:none;stroke-width:1.5px;stroke:rgb(204,38,16);"/>
    <path d="M238.752,231.915L640.088,225.485" style="fill:none;stroke-width:1.5px;stroke:rgb(204,38,16);"/>
    <path d="M238.752,231.915L567.895,216.054" style="fill:none;stroke-width:1.5px;stroke:rgb(204,38,16);"/>
    <path d="M238.752,231.915L590.849,219.053" style="fill:none;stroke-width:1.5px;stroke:rgb(204,38,16);"/>
    <path d="M862.326,104.99L722.529,105.733" style="fill:none;stroke-width:1.5px;stroke:rgb(204,38,16);"/>
    <path d="M340.466,133.251L437.264,131.849" style="fill:none;stroke-width:1.5px;stroke:rgb(204,38,16);"/>
    <path d="M434.797,90.662L4.199,92.907" style="fill:none;stroke-width:1.5px;stroke:rgb(204,38,16);"/>
    <path d="M517.02,6.133L128.718,7.961" style="fill:none;stroke-width:1.5px;stroke:rgb(204,38,16);"/>
    <path d="M491.323,32.551L331.672,30.197" style="fill:none;stroke-width:1.5px;stroke:rgb(204,38,16);"/>
    <path d="M490.352,33.549L331.672,30.197" style="fill:none;stroke-width:1.5px;stroke:rgb(204,38,16);"/>
    <path d="M677.827,105.634L644.86,106.705" style="fill:none;stroke-width:1.5px;stroke:rgb(204,38,16);"/>
    <path d="M639.329,114.419L1047.35,108.607" style="fill:none;stroke-width:1.5px;stroke:rgb(204,38,16);"/>
    <path d="M644.86,106.705L588.633,108.53" style="fill:none;stroke-width:1.5px;stroke:rgb(204,38,16);"/>
    <path d="M677.473,215.888L934.071,206.514" style="fill:none;stroke-width:1.5px;stroke:rgb(204,38,16);"/>
    <path d="M1040.34,202.632L1102.46,200.363" style="fill:none;stroke-width:1.5px;stroke:rgb(204,38,16);"/>
    <path d="M640.088,225.485L1036.34,219.136" style="fill:none;stroke-width:1.5px;stroke:rgb(204,38,16);"/>
    <path d="M645.454,217.058L677.473,215.888" style="fill:none;stroke-width:1.5px;stroke:rgb(204,38,16);"/>
    <path d="M565.007,105.786L225.915,120.308" style="fill:none;stroke-width:1.5px;stroke:rgb(204,38,16);"/>
    <path d="M588.633,108.53L225.915,120.308" style="fill:none;stroke-width:1.5px;stroke:rgb(204,38,16);"/>
    <path d="M435.791,107.256L338.292,107.774" style="fill:none;stroke-width:1.5px;stroke:rgb(204,38,16);"/>
    <path d="M703.137,25.429L1070.23,20.718" style="fill:none;stroke-width:1.5px;stroke:rgb(204,38,16);"/>
    <path d="M722.202,127.724L861.263,125.711" style="fill:none;stroke-width:1.5px;stroke:rgb(204,38,16);"/>
    <path d="M721.985,142.339L860.241,145.632" style="fill:none;stroke-width:1.5px;stroke:rgb(204,38,16);"/>
    <path d="M722.026,139.596L860.432,141.898" style="fill:none;stroke-width:1.5px;stroke:rgb(204,38,16);"/>
    <path d="M688.256,198.07L857.602,197.076" style="fill:none;stroke-width:1.5px;stroke:rgb(204,38,16);"/>
    <path d="M680.661,210.62L886.839,200.685" style="fill:none;stroke-width:1.5px;stroke:rgb(204,38,16);"/>
    <path d="M340.466,133.251L437.486,135.562" style="fill:none;stroke-width:1.5px;stroke:rgb(204,38,16);"/>
    <path d="M340.466,133.251L437.444,134.864" style="fill:none;stroke-width:1.5px;stroke:rgb(204,38,16);"/>
</svg>
