<?xml version="1.0" standalone="no"?>
<!DOCTYPE svg PUBLIC "-//W3C//DTD SVG 1.1//EN" "http://www.w3.org/Graphics/SVG/1.1/DTD/svg11.dtd">
<svg width="100%" height="100%" viewBox="0 0 1241 1149" version="1.1" xmlns="http://www.w3.org/2000/svg" xmlns:xlink="http://www.w3.org/1999/xlink" xml:space="preserve" style="fill-rule:evenodd;clip-rule:evenodd;stroke-linecap:round;stroke-linejoin:round;stroke-miterlimit:10;">
    <rect x="0" y="0" width="1612" height="2264" style="fill:white;fill-rule:nonzero;"/>
    <path d="M95.061,287.616C100.596,293.151 100.596,302.125 95.061,307.66C89.526,313.195 80.552,313.195 75.017,307.66C69.482,302.125 69.482,293.151 75.017,287.616C80.552,282.081 89.526,282.081 95.061,287.616" style="fill:black;fill-rule:nonzero;"/>
    <path d="M378.526,89.191C384.061,94.726 384.061,103.7 378.526,109.235C372.991,114.77 364.017,114.77 358.482,109.235C352.947,103.7 352.947,94.726 358.482,89.191C364.017,83.656 372.991,83.656 378.526,89.191" style="fill:black;fill-rule:nonzero;"/>
    <path d="M96.652,289.509L356.891,107.342" style="fill:none;stroke-width:3px;stroke:black;"/>
    <path d="M265.14,854.545C270.675,860.08 270.675,869.054 265.14,874.589C259.605,880.124 250.631,880.124 245.096,874.589C239.561,869.054 239.561,860.08 245.096,854.545C250.631,849.01 259.605,849.01 265.14,854.545" style="fill:black;fill-rule:nonzero;"/>
    <path d="M38.368,599.427C43.903,604.962 43.903,613.936 38.368,619.471C32.833,625.006 23.859,625.006 18.324,619.471C12.789,613.936 12.789,604.962 18.324,599.427C23.859,593.892 32.833,593.892 38.368,599.427" style="fill:black;fill-rule:nonzero;"/>
    <path d="M30.882,595.503L82.504,311.584" style="fill:none;stroke-width:3px;stroke:black;"/>
    <path d="M245.436,854.217L59.289,655.232" style="fill:none;stroke-width:3px;stroke:black;"/>
    <path d="M576.951,797.852C582.486,803.387 582.486,812.361 576.951,817.896C571.416,823.431 562.442,823.431 556.907,817.896C551.372,812.361 551.372,803.387 556.907,797.852C562.442,792.317 571.416,792.317 576.951,797.852" style="fill:black;fill-rule:nonzero;"/>
    <path d="M782.463,401.002C787.998,406.537 787.998,415.511 782.463,421.046C776.928,426.581 767.954,426.581 762.419,421.046C756.884,415.511 756.884,406.537 762.419,401.002C767.954,395.467 776.928,395.467 782.463,401.002" style="fill:black;fill-rule:nonzero;"/>
    <path d="M591.124,39.584C596.659,45.119 596.659,54.093 591.124,59.628C585.589,65.163 576.615,65.163 571.08,59.628C565.545,54.093 565.545,45.119 571.08,39.584C576.615,34.049 585.589,34.049 591.124,39.584" style="fill:black;fill-rule:nonzero;"/>
    <path d="M626.557,32.498C632.092,38.033 632.092,47.007 626.557,52.542C621.022,58.077 612.048,58.077 606.514,52.542C600.978,47.007 600.978,38.033 606.514,32.498C612.048,26.963 621.022,26.963 626.557,32.498" style="fill:black;fill-rule:nonzero;"/>
    <path d="M269.183,862.809L524.518,830.892" style="fill:none;stroke-width:3px;stroke:black;"/>
    <path d="M573.449,795.285L765.922,423.613" style="fill:none;stroke-width:3px;stroke:black;"/>
    <path d="M779.402,370.472L609.574,83.071" style="fill:none;stroke-width:3px;stroke:black;"/>
    <path d="M567.298,52.827L382.308,95.992" style="fill:none;stroke-width:3px;stroke:black;"/>
    <path d="M796.636,372.655C802.171,378.19 802.171,387.164 796.636,392.699C791.101,398.234 782.127,398.234 776.592,392.699C771.057,387.164 771.057,378.19 776.592,372.655C782.127,367.12 791.101,367.12 796.636,372.655" style="fill:black;fill-rule:nonzero;"/>
    <path d="M817.896,401.002C823.431,406.537 823.431,415.511 817.896,421.046C812.361,426.581 803.387,426.581 797.852,421.046C792.317,415.511 792.317,406.537 797.852,401.002C803.387,395.467 812.361,395.467 817.896,401.002" style="fill:black;fill-rule:nonzero;"/>
    <path d="M1236.01,408.088C1241.54,413.623 1241.54,422.597 1236.01,428.132C1230.47,433.667 1221.5,433.667 1215.96,428.132C1210.43,422.597 1210.43,413.623 1215.96,408.088C1221.5,402.553 1230.47,402.553 1236.01,408.088" style="fill:black;fill-rule:nonzero;"/>
    <path d="M1221.83,372.655C1227.37,378.19 1227.37,387.164 1221.83,392.699C1216.3,398.234 1207.32,398.234 1201.79,392.699C1196.25,387.164 1196.25,378.19 1201.79,372.655C1207.32,367.12 1216.3,367.12 1221.83,372.655" style="fill:black;fill-rule:nonzero;"/>
    <path d="M987.975,4.151C993.51,9.686 993.51,18.66 987.975,24.195C982.44,29.73 973.466,29.73 967.931,24.195C962.396,18.66 962.396,9.686 967.931,4.151C973.466,-1.384 982.44,-1.384 987.975,4.151" style="fill:black;fill-rule:nonzero;"/>
    <path d="M1150.97,889.978C1156.5,895.513 1156.5,904.487 1150.97,910.022C1145.43,915.557 1136.46,915.557 1130.92,910.022C1125.39,904.487 1125.39,895.513 1130.92,889.978C1136.46,884.443 1145.43,884.443 1150.97,889.978" style="fill:black;fill-rule:nonzero;"/>
    <path d="M867.502,1109.66C873.037,1115.2 873.037,1124.17 867.502,1129.71C861.967,1135.24 852.993,1135.24 847.458,1129.71C841.923,1124.17 841.923,1115.2 847.458,1109.66C852.993,1104.13 861.967,1104.13 867.502,1109.66" style="fill:black;fill-rule:nonzero;"/>
    <path d="M630.666,41.411L963.823,15.281" style="fill:none;stroke-width:3px;stroke:black;"/>
    <path d="M985.549,26.143L1204.21,370.708" style="fill:none;stroke-width:3px;stroke:black;"/>
    <path d="M822.047,411.024L1176.38,411.024" style="fill:none;stroke-width:3px;stroke:black;"/>
    <path d="M1223.52,432.069L1143.41,886.041" style="fill:none;stroke-width:3px;stroke:black;"/>
    <path d="M1129.74,908.683L868.684,1111" style="fill:none;stroke-width:3px;stroke:black;"/>
    <path d="M548.605,819.112C554.14,824.647 554.14,833.621 548.605,839.156C543.07,844.691 534.096,844.691 528.561,839.156C523.026,833.621 523.026,824.647 528.561,819.112C534.096,813.577 543.07,813.577 548.605,819.112" style="fill:black;fill-rule:nonzero;"/>
    <path d="M24.195,634.86C29.73,640.395 29.73,649.369 24.195,654.904C18.66,660.439 9.686,660.439 4.151,654.904C-1.384,649.369 -1.384,640.395 4.151,634.86C9.686,629.325 18.66,629.325 24.195,634.86" style="fill:black;fill-rule:nonzero;"/>
    <path d="M144.668,1123.84C150.203,1129.37 150.203,1138.35 144.668,1143.88C139.133,1149.41 130.159,1149.41 124.624,1143.88C119.089,1138.35 119.089,1129.37 124.624,1123.84C130.159,1118.3 139.133,1118.3 144.668,1123.84" style="fill:black;fill-rule:nonzero;"/>
    <path d="M832.069,1116.75C837.604,1122.29 837.604,1131.26 832.069,1136.79C826.534,1142.33 817.56,1142.33 812.025,1136.79C806.49,1131.26 806.49,1122.29 812.025,1116.75C817.56,1111.21 826.534,1111.21 832.069,1116.75" style="fill:black;fill-rule:nonzero;"/>
    <path d="M825.931,1088.68L577.218,853.055" style="fill:none;stroke-width:3px;stroke:black;"/>
    <path d="M17.564,658.646L131.255,1120.1" style="fill:none;stroke-width:3px;stroke:black;"/>
    <path d="M148.818,1133.71L807.875,1126.92" style="fill:none;stroke-width:3px;stroke:black;"/>
    <path d="M59.628,634.86C65.163,640.395 65.163,649.369 59.628,654.904C54.093,660.439 45.119,660.439 39.584,654.904C34.049,649.369 34.049,640.395 39.584,634.86C45.119,629.325 54.093,629.325 59.628,634.86" style="fill:black;fill-rule:nonzero;"/>
    <path d="M576.951,833.285C582.486,838.82 582.486,847.794 576.951,853.329C571.416,858.864 562.442,858.864 556.907,853.329C551.372,847.794 551.372,838.82 556.907,833.285C562.442,827.75 571.416,827.75 576.951,833.285" style="fill:black;fill-rule:nonzero;"/>
    <path d="M846.242,1088.4C851.778,1093.94 851.778,1102.91 846.242,1108.45C840.708,1113.98 831.734,1113.98 826.199,1108.45C820.664,1102.91 820.664,1093.94 826.199,1088.4C831.734,1082.87 840.708,1082.87 846.242,1088.4" style="fill:black;fill-rule:nonzero;"/>
    <path d="M612.384,60.844C617.919,66.379 617.919,75.353 612.384,80.888C606.849,86.423 597.875,86.423 592.34,80.888C586.805,75.353 586.805,66.379 592.34,60.844C597.875,55.309 606.849,55.309 612.384,60.844" style="fill:black;fill-rule:nonzero;"/>
    <path d="M1200.57,401.002C1206.11,406.537 1206.11,415.511 1200.57,421.046C1195.04,426.581 1186.06,426.581 1180.53,421.046C1174.99,415.511 1174.99,406.537 1180.53,401.002C1186.06,395.467 1195.04,395.467 1200.57,401.002" style="fill:black;fill-rule:nonzero;"/>
</svg>
