<?xml version="1.0" standalone="no"?>
<!DOCTYPE svg PUBLIC "-//W3C//DTD SVG 1.1//EN" "http://www.w3.org/Graphics/SVG/1.1/DTD/svg11.dtd">
<svg width="100%" height="100%" viewBox="0 0 72 104" version="1.1" xmlns="http://www.w3.org/2000/svg" xmlns:xlink="http://www.w3.org/1999/xlink" xml:space="preserve" style="fill-rule:evenodd;clip-rule:evenodd;stroke-linecap:round;stroke-linejoin:round;stroke-miterlimit:10;">
    <rect x="-122" y="-221" width="806" height="1132" style="fill:white;fill-rule:nonzero;"/>
    <rect x="2.016" y="16.402" width="28.346" height="28.346" style="fill:rgb(0,143,0);fill-rule:nonzero;stroke-width:0.5px;stroke:black;"/>
    <rect x="40.992" y="16.402" width="28.346" height="28.346" style="fill:rgb(0,143,0);fill-rule:nonzero;stroke-width:0.5px;stroke:black;"/>
    <rect x="2.016" y="73.094" width="28.346" height="28.346" style="fill:rgb(0,143,0);fill-rule:nonzero;stroke-width:0.5px;stroke:black;"/>
    <rect x="40.992" y="73.094" width="28.346" height="28.346" style="fill:rgb(0,143,0);fill-rule:nonzero;stroke-width:0.5px;stroke:black;"/>
    <path d="M40.992,16.402L40.992,44.748L48.079,44.748L51.622,41.205L51.622,37.661L55.165,34.118L55.165,30.575L51.622,27.031L48.079,27.031L44.535,23.488L44.535,19.945L40.992,16.402Z" style="fill:rgb(255,147,0);fill-rule:nonzero;stroke-width:0.5px;stroke:black;"/>
    <path d="M2.016,73.094L2.016,101.441L9.102,101.441L16.189,97.898L16.189,94.354L23.276,87.268L16.189,80.181L9.102,80.181L5.559,76.638L2.016,73.094Z" style="fill:rgb(255,147,0);fill-rule:nonzero;stroke-width:0.5px;stroke:black;"/>
    <path d="M40.992,73.094L40.992,101.441L48.079,101.441L55.165,97.898L55.165,94.354L62.252,87.268L58.709,83.724L55.165,73.094L48.079,73.094L44.535,76.638L40.992,73.094Z" style="fill:rgb(255,147,0);fill-rule:nonzero;stroke-width:0.5px;stroke:black;"/>
    <path d="M69.339,101.441L62.252,101.441L62.252,94.354L65.795,94.354L69.339,97.898L69.339,101.441Z" style="fill:rgb(255,147,0);fill-rule:nonzero;stroke-width:0.5px;stroke:black;"/>
    <g>
        <g>
            <path d="M15.288,6.914L14.786,9.451C14.777,9.523 14.67,9.864 14.67,10.133C14.67,10.357 14.768,10.492 14.939,10.492C15.252,10.492 15.566,10.312 16.266,9.747L16.544,9.523L16.454,9.362L16.051,9.64C15.79,9.819 15.611,9.909 15.513,9.909C15.432,9.909 15.387,9.837 15.387,9.729C15.387,9.496 15.513,8.77 15.773,7.47L15.889,6.914L16.849,6.914L16.947,6.465C16.606,6.501 16.302,6.519 15.961,6.519C16.104,5.676 16.203,5.237 16.364,4.753L16.266,4.618C16.086,4.726 15.844,4.834 15.566,4.941L15.342,6.465C14.948,6.654 14.714,6.752 14.553,6.797L14.535,6.914L15.288,6.914Z" style="fill:black;fill-rule:nonzero;"/>
            <path d="M19.871,12.311L19.871,12.077L19.532,12.057C19.173,12.037 19.108,11.966 19.108,11.627L19.108,7.798L19.016,7.765C18.592,7.987 18.129,8.183 17.536,8.391L17.581,8.711L17.647,8.711L18.508,8.326C18.547,8.326 18.56,8.385 18.56,8.541L18.56,11.627C18.56,11.966 18.488,12.037 18.136,12.057L17.771,12.077L17.771,12.311C18.775,12.292 18.775,12.292 18.847,12.292C19.049,12.292 19.766,12.311 19.871,12.311Z" style="fill:black;fill-rule:nonzero;"/>
        </g>
    </g>
    <g>
        <g>
            <path d="M54.265,6.914L53.763,9.451C53.754,9.523 53.646,9.864 53.646,10.133C53.646,10.357 53.745,10.492 53.915,10.492C54.229,10.492 54.543,10.312 55.242,9.747L55.52,9.523L55.43,9.362L55.027,9.64C54.767,9.819 54.588,9.909 54.489,9.909C54.408,9.909 54.363,9.837 54.363,9.729C54.363,9.496 54.489,8.77 54.749,7.47L54.866,6.914L55.825,6.914L55.924,6.465C55.583,6.501 55.278,6.519 54.937,6.519C55.081,5.676 55.179,5.237 55.341,4.753L55.242,4.618C55.063,4.726 54.821,4.834 54.543,4.941L54.319,6.465C53.924,6.654 53.691,6.752 53.529,6.797L53.512,6.914L54.265,6.914Z" style="fill:black;fill-rule:nonzero;"/>
            <path d="M56.225,11.9L56.225,12.311C57.445,12.311 57.445,12.292 57.68,12.292C57.914,12.292 57.914,12.311 59.173,12.311C59.173,12.174 59.16,12.109 59.16,12.018C59.16,11.933 59.173,11.868 59.173,11.724C58.423,11.757 58.123,11.763 56.917,11.79L58.104,10.531C58.736,9.859 58.932,9.5 58.932,9.011C58.932,8.261 58.423,7.798 57.595,7.798C57.125,7.798 56.806,7.928 56.486,8.254L56.375,9.142L56.662,9.142L56.747,8.842C56.851,8.463 56.988,8.3 57.425,8.3C57.986,8.3 58.345,8.652 58.345,9.207C58.345,9.696 57.869,10.146 57.132,10.929L56.225,11.9Z" style="fill:black;fill-rule:nonzero;"/>
        </g>
    </g>
    <g>
        <g>
            <path d="M15.288,62.957L14.786,65.494C14.777,65.566 14.67,65.907 14.67,66.176C14.67,66.4 14.768,66.534 14.939,66.534C15.252,66.534 15.566,66.355 16.266,65.79L16.544,65.566L16.454,65.405L16.051,65.683C15.79,65.862 15.611,65.952 15.513,65.952C15.432,65.952 15.387,65.88 15.387,65.772C15.387,65.539 15.513,64.813 15.773,63.513L15.889,62.957L16.849,62.957L16.947,62.508C16.606,62.544 16.302,62.562 15.961,62.562C16.104,61.719 16.203,61.28 16.364,60.796L16.266,60.661C16.086,60.769 15.844,60.876 15.566,60.984L15.342,62.508C14.948,62.697 14.714,62.795 14.553,62.84L14.535,62.957L15.288,62.957Z" style="fill:black;fill-rule:nonzero;"/>
            <path d="M20.158,66.874C20.158,66.085 19.46,65.948 19.153,65.895C19.675,65.491 19.871,65.191 19.871,64.806C19.871,64.226 19.388,63.841 18.664,63.841C18.221,63.841 17.927,63.965 17.614,64.278L17.425,65.087L17.673,65.087L17.79,64.721C17.862,64.5 18.227,64.278 18.566,64.278C18.99,64.278 19.336,64.624 19.336,65.034C19.336,65.524 18.951,65.882 18.488,65.882C18.436,65.882 18.364,65.876 18.279,65.869L18.181,65.863L18.103,66.261L18.149,66.3C18.397,66.189 18.521,66.156 18.697,66.156C19.238,66.156 19.551,66.502 19.551,67.095C19.551,67.761 19.153,68.152 18.547,68.152C18.247,68.152 18.025,68.1 17.829,67.917C17.673,67.774 17.588,67.624 17.464,67.272L17.242,67.337L17.471,68.296C17.816,68.413 18.103,68.465 18.345,68.465C19.147,68.465 20.158,67.767 20.158,66.874Z" style="fill:black;fill-rule:nonzero;"/>
        </g>
    </g>
    <g>
        <g>
            <path d="M54.265,63.607L53.763,66.144C53.754,66.216 53.646,66.557 53.646,66.826C53.646,67.05 53.745,67.184 53.915,67.184C54.229,67.184 54.543,67.005 55.242,66.44L55.52,66.216L55.43,66.055L55.027,66.333C54.767,66.512 54.588,66.602 54.489,66.602C54.408,66.602 54.363,66.53 54.363,66.422C54.363,66.189 54.489,65.463 54.749,64.163L54.866,63.607L55.825,63.607L55.924,63.158C55.583,63.194 55.278,63.212 54.937,63.212C55.081,62.369 55.179,61.93 55.341,61.446L55.242,61.311C55.063,61.419 54.821,61.526 54.543,61.634L54.319,63.158C53.924,63.347 53.691,63.445 53.529,63.49L53.512,63.607L54.265,63.607Z" style="fill:black;fill-rule:nonzero;"/>
            <path d="M57.947,67.804L57.947,68.228C57.947,68.619 57.875,68.711 57.556,68.724L57.151,68.743L57.151,69.004C58.019,68.985 58.019,68.985 58.175,68.985C58.332,68.985 58.332,68.985 59.199,69.004L59.199,68.743L58.886,68.724C58.567,68.704 58.495,68.619 58.495,68.228L58.495,67.804C58.88,67.804 59.017,67.811 59.199,67.83L59.199,67.367C59.154,67.367 58.704,67.387 58.671,67.387L58.495,67.387L58.495,66.48C58.495,65.319 58.508,64.758 58.541,64.491L58.462,64.458L57.98,64.634L56.134,67.654L56.206,67.804L57.947,67.804ZM57.947,67.387L56.61,67.387L57.947,65.156L57.947,67.387Z" style="fill:black;fill-rule:nonzero;"/>
        </g>
    </g>
</svg>
