<?xml version="1.0" standalone="no"?>
<!DOCTYPE svg PUBLIC "-//W3C//DTD SVG 1.1//EN" "http://www.w3.org/Graphics/SVG/1.1/DTD/svg11.dtd">
<svg width="100%" height="100%" viewBox="0 0 277 308" version="1.1" xmlns="http://www.w3.org/2000/svg" xmlns:xlink="http://www.w3.org/1999/xlink" xml:space="preserve" style="fill-rule:evenodd;clip-rule:evenodd;stroke-linejoin:round;stroke-miterlimit:10;">
    <path d="M66.447,133.3L64.683,127.253" style="fill:none;stroke-width:0.47px;stroke:rgb(144,144,144);"/>
    <clipPath id="_clip1">
        <path d="M0,0L0,308L277,308L277,0L0,0ZM40.621,138.78L34.007,141.174L36.59,148.292L43.266,145.898L36.652,144.323L40.621,138.78Z"/>
    </clipPath>
    <g clip-path="url(#_clip1)">
        <path d="M94.603,122.907L36.211,144.449" style="fill:none;stroke-width:0.47px;stroke:black;"/>
    </g>
    <path d="M40.621,138.78L36.652,144.323L43.266,145.898" style="fill:none;stroke-width:0.47px;stroke-linejoin:miter;stroke:black;"/>
    <clipPath id="_clip2">
        <path d="M0,0L0,308L277,308L277,0L0,0ZM88.43,122.592L95.107,120.261L92.524,113.143L85.848,115.537L92.524,117.175L88.43,122.592Z"/>
    </clipPath>
    <g clip-path="url(#_clip2)">
        <path d="M34.322,138.213L92.965,117.049" style="fill:none;stroke-width:0.47px;stroke:black;"/>
    </g>
    <path d="M88.43,122.592L92.524,117.175L85.848,115.537" style="fill:none;stroke-width:0.47px;stroke-linejoin:miter;stroke:black;"/>
    <path d="M98.697,87.066L92.398,87.506" style="fill:none;stroke-width:0.47px;stroke:rgb(144,144,144);"/>
    <clipPath id="_clip3">
        <path d="M0,0L0,308L277,308L277,0L0,0ZM95.17,110.435L95.296,117.489L102.855,117.427L102.729,110.372L99.075,116.104L95.17,110.435Z"/>
    </clipPath>
    <g clip-path="url(#_clip3)">
        <path d="M98.32,55.193L99.075,116.545" style="fill:none;stroke-width:0.47px;stroke:black;"/>
    </g>
    <path d="M95.17,110.435L99.075,116.104L102.729,110.372" style="fill:none;stroke-width:0.47px;stroke-linejoin:miter;stroke:black;"/>
    <path d="M91.454,121.458L96.115,114.844" style="fill:none;stroke-width:0.47px;stroke:rgb(144,144,144);"/>
    <clipPath id="_clip4">
        <path d="M0,0L0,308L277,308L277,0L0,0ZM95.611,61.618L95.485,54.562L87.926,54.752L88.052,61.807L91.768,56.074L95.611,61.618Z"/>
    </clipPath>
    <g clip-path="url(#_clip4)">
        <path d="M92.965,117.049L91.768,55.634" style="fill:none;stroke-width:0.47px;stroke:black;"/>
    </g>
    <path d="M95.611,61.618L91.768,56.074L88.052,61.807" style="fill:none;stroke-width:0.47px;stroke-linejoin:miter;stroke:black;"/>
    <clipPath id="_clip5">
        <path d="M0,0L0,308L277,308L277,0L0,0ZM100.02,112.765L93.973,109.175L90.131,115.726L96.241,119.316L93.281,113.206L100.02,112.765Z"/>
    </clipPath>
    <g clip-path="url(#_clip5)">
        <path d="M99.075,116.545L92.902,112.954" style="fill:none;stroke-width:0.47px;stroke:black;"/>
    </g>
    <path d="M100.02,112.765L93.281,113.206L96.241,119.316" style="fill:none;stroke-width:0.47px;stroke-linejoin:miter;stroke:black;"/>
    <clipPath id="_clip6">
        <path d="M0,0L0,308L277,308L277,0L0,0ZM87.485,123.662L93.784,126.686L97.06,119.883L90.698,116.86L94.225,122.718L87.485,123.662Z"/>
    </clipPath>
    <g clip-path="url(#_clip6)">
        <path d="M88.052,119.82L94.603,122.907" style="fill:none;stroke-width:0.47px;stroke:black;"/>
    </g>
    <path d="M87.485,123.662L94.225,122.718L90.698,116.86" style="fill:none;stroke-width:0.47px;stroke-linejoin:miter;stroke:black;"/>
    <clipPath id="_clip7">
        <path d="M0,0L0,308L277,308L277,0L0,0ZM121.626,239.438L128.177,236.667L125.216,229.675L118.665,232.509L125.405,233.769L121.626,239.438Z"/>
    </clipPath>
    <g clip-path="url(#_clip7)">
        <path d="M68.147,258.209L125.846,233.58" style="fill:none;stroke-width:0.47px;stroke:black;"/>
    </g>
    <path d="M121.626,239.438L125.405,233.769L118.665,232.509" style="fill:none;stroke-width:0.47px;stroke-linejoin:miter;stroke:black;"/>
    <path d="M101.28,250.65L98.005,245.485" style="fill:none;stroke-width:0.47px;stroke:rgb(144,144,144);"/>
    <path d="M131.515,234.462L123.389,233.706" style="fill:none;stroke-width:0.47px;stroke:rgb(144,144,144);"/>
    <clipPath id="_clip8">
        <path d="M0,0L0,308L277,308L277,0L0,0ZM75.454,257.706L68.966,260.477L71.99,267.469L78.478,264.634L71.801,263.438L75.454,257.706Z"/>
    </clipPath>
    <g clip-path="url(#_clip8)">
        <path d="M129.121,238.493L71.36,263.627" style="fill:none;stroke-width:0.47px;stroke:black;"/>
    </g>
    <path d="M75.454,257.706L71.801,263.438L78.478,264.634" style="fill:none;stroke-width:0.47px;stroke-linejoin:miter;stroke:black;"/>
    <clipPath id="_clip9">
        <path d="M0,0L0,308L277,308L277,0L0,0ZM192.364,64.704L192.616,57.649L185.057,57.334L184.805,64.389L188.836,58.909L192.364,64.704Z"/>
    </clipPath>
    <g clip-path="url(#_clip9)">
        <path d="M186.128,120.387L188.836,58.468" style="fill:none;stroke-width:0.47px;stroke:black;"/>
    </g>
    <path d="M192.364,64.704L188.836,58.909L184.805,64.389" style="fill:none;stroke-width:0.47px;stroke-linejoin:miter;stroke:black;"/>
    <clipPath id="_clip10">
        <path d="M0,0L0,308L277,308L277,0L0,0ZM126.602,229.738L119.61,230.053L119.925,237.612L126.98,237.296L121.185,233.832L126.602,229.738Z"/>
    </clipPath>
    <g clip-path="url(#_clip10)">
        <path d="M125.846,233.58L120.744,233.832" style="fill:none;stroke-width:0.47px;stroke:black;"/>
    </g>
    <path d="M126.602,229.738L121.185,233.832L126.98,237.296" style="fill:none;stroke-width:0.47px;stroke-linejoin:miter;stroke:black;"/>
    <path d="M193.371,91.979L187.45,90.593" style="fill:none;stroke-width:0.47px;stroke:rgb(144,144,144);"/>
    <path d="M188.395,126.119L184.931,118.75" style="fill:none;stroke-width:0.47px;stroke:rgb(144,144,144);"/>
    <clipPath id="_clip11">
        <path d="M0,0L0,308L277,308L277,0L0,0ZM127.736,238.556L134.791,237.99L134.224,230.494L127.169,230.998L133.153,234.399L127.736,238.556Z"/>
    </clipPath>
    <g clip-path="url(#_clip11)">
        <path d="M129.185,234.651L133.594,234.336" style="fill:none;stroke-width:0.47px;stroke:black;"/>
    </g>
    <path d="M127.736,238.556L133.153,234.399L127.169,230.998" style="fill:none;stroke-width:0.47px;stroke-linejoin:miter;stroke:black;"/>
    <clipPath id="_clip12">
        <path d="M0,0L0,308L277,308L277,0L0,0ZM179.451,117.679L183.608,123.348L189.718,118.875L185.498,113.143L185.876,120.009L179.451,117.679Z"/>
    </clipPath>
    <g clip-path="url(#_clip12)">
        <path d="M183.608,116.986L186.128,120.387" style="fill:none;stroke-width:0.47px;stroke:black;"/>
    </g>
    <path d="M179.451,117.679L185.876,120.009L185.498,113.143" style="fill:none;stroke-width:0.47px;stroke-linejoin:miter;stroke:black;"/>
    <clipPath id="_clip13">
        <path d="M0,0L0,308L277,308L277,0L0,0ZM194.001,127.064L189.466,121.584L183.671,126.371L188.143,131.852L187.513,125.111L194.001,127.064Z"/>
    </clipPath>
    <g clip-path="url(#_clip13)">
        <path d="M189.466,127.505L187.198,124.734" style="fill:none;stroke-width:0.47px;stroke:black;"/>
    </g>
    <path d="M194.001,127.064L187.513,125.111L188.143,131.852" style="fill:none;stroke-width:0.47px;stroke-linejoin:miter;stroke:black;"/>
    <clipPath id="_clip14">
        <path d="M0,0L0,308L277,308L277,0L0,0ZM188.332,115.537L188.017,122.529L195.576,122.97L195.891,115.915L191.86,121.395L188.332,115.537Z"/>
    </clipPath>
    <g clip-path="url(#_clip14)">
        <path d="M195.072,59.728L191.86,121.836" style="fill:none;stroke-width:0.47px;stroke:black;"/>
    </g>
    <path d="M188.332,115.537L191.86,121.395L195.891,115.915" style="fill:none;stroke-width:0.47px;stroke-linejoin:miter;stroke:black;"/>
    <path d="M154.759,251.091L150.097,255.564" style="fill:none;stroke-width:0.47px;stroke:rgb(144,144,144);"/>
    <clipPath id="_clip15">
        <path d="M0,0L0,308L277,308L277,0L0,0ZM170.884,268.792L176.427,273.138L181.151,267.217L175.545,262.871L177.687,269.359L170.884,268.792Z"/>
    </clipPath>
    <g clip-path="url(#_clip15)">
        <path d="M133.594,234.336L178.065,269.611" style="fill:none;stroke-width:0.47px;stroke:black;"/>
    </g>
    <path d="M170.884,268.792L177.687,269.359L175.545,262.871" style="fill:none;stroke-width:0.47px;stroke-linejoin:miter;stroke:black;"/>
    <path d="M211.891,142.497L214.473,136.639" style="fill:none;stroke-width:0.47px;stroke:rgb(144,144,144);"/>
    <clipPath id="_clip16">
        <path d="M0,0L0,308L277,308L277,0L0,0ZM196.647,127.757L190.726,123.789L186.568,130.088L192.427,133.993L189.844,127.757L196.647,127.757Z"/>
    </clipPath>
    <g clip-path="url(#_clip16)">
        <path d="M236.646,159.063L189.466,127.505" style="fill:none;stroke-width:0.47px;stroke:black;"/>
    </g>
    <path d="M196.647,127.757L189.844,127.757L192.427,133.993" style="fill:none;stroke-width:0.47px;stroke-linejoin:miter;stroke:black;"/>
    <clipPath id="_clip17">
        <path d="M0,0L0,308L277,308L277,0L0,0ZM136.239,239.375L130.759,234.903L125.972,240.824L131.452,245.233L129.5,238.745L136.239,239.375Z"/>
    </clipPath>
    <g clip-path="url(#_clip17)">
        <path d="M173.214,274.335L129.121,238.493" style="fill:none;stroke-width:0.47px;stroke:black;"/>
    </g>
    <path d="M136.239,239.375L129.5,238.745L131.452,245.233" style="fill:none;stroke-width:0.47px;stroke-linejoin:miter;stroke:black;"/>
    <clipPath id="_clip18">
        <path d="M0,0L0,308L277,308L277,0L0,0ZM232.236,152.764L238.157,156.67L242.314,150.37L236.394,146.465L239.102,152.764L232.236,152.764Z"/>
    </clipPath>
    <g clip-path="url(#_clip18)">
        <path d="M191.86,121.836L239.48,153.016" style="fill:none;stroke-width:0.47px;stroke:black;"/>
    </g>
    <path d="M232.236,152.764L239.102,152.764L236.394,146.465" style="fill:none;stroke-width:0.47px;stroke-linejoin:miter;stroke:black;"/>
    <clipPath id="_clip19">
        <path d="M0,0L0,308L277,308L277,0L0,0ZM64.116,133.363L70.289,130.025L66.698,123.411L60.525,126.749L67.329,127.379L64.116,133.363Z"/>
    </clipPath>
    <g clip-path="url(#_clip19)">
        <path d="M36.211,144.449L67.706,127.19" style="fill:none;stroke-width:0.47px;stroke:black;"/>
    </g>
    <path d="M64.116,133.363L67.329,127.379L60.525,126.749" style="fill:none;stroke-width:0.47px;stroke-linejoin:miter;stroke:black;"/>
    <clipPath id="_clip20">
        <path d="M0,0L0,308L277,308L277,0L0,0ZM101.028,61.807L102.162,54.814L94.729,53.618L93.595,60.61L98.257,55.634L101.028,61.807Z"/>
    </clipPath>
    <g clip-path="url(#_clip20)">
        <path d="M92.461,91.727L98.32,55.193" style="fill:none;stroke-width:0.47px;stroke:black;"/>
    </g>
    <path d="M101.028,61.807L98.257,55.634L93.595,60.61" style="fill:none;stroke-width:0.47px;stroke-linejoin:miter;stroke:black;"/>
    <clipPath id="_clip21">
        <path d="M0,0L0,308L277,308L277,0L0,0ZM83.517,125.427L90.194,123.033L87.611,115.915L80.934,118.309L87.611,119.946L83.517,125.427Z"/>
    </clipPath>
    <g clip-path="url(#_clip21)">
        <path d="M67.706,127.19L88.052,119.82" style="fill:none;stroke-width:0.47px;stroke:black;"/>
    </g>
    <path d="M83.517,125.427L87.611,119.946L80.934,118.309" style="fill:none;stroke-width:0.47px;stroke-linejoin:miter;stroke:black;"/>
    <path d="M51.707,135.946L46.038,132.796" style="fill:none;stroke-width:0.47px;stroke:rgb(144,144,144);"/>
    <clipPath id="_clip22">
        <path d="M0,0L0,308L277,308L277,0L0,0ZM96.304,97.711L96.178,90.656L88.619,90.845L88.745,97.9L92.461,92.168L96.304,97.711Z"/>
    </clipPath>
    <g clip-path="url(#_clip22)">
        <path d="M92.902,112.954L92.461,91.727" style="fill:none;stroke-width:0.47px;stroke:black;"/>
    </g>
    <path d="M96.304,97.711L92.461,92.168L88.745,97.9" style="fill:none;stroke-width:0.47px;stroke-linejoin:miter;stroke:black;"/>
    <path d="M95.422,73.145L90.32,69.176" style="fill:none;stroke-width:0.47px;stroke:rgb(144,144,144);"/>
    <clipPath id="_clip23">
        <path d="M0,0L0,308L277,308L277,0L0,0ZM71.927,252.099L65.628,255.186L68.903,261.989L75.265,258.902L68.525,258.02L71.927,252.099Z"/>
    </clipPath>
    <g clip-path="url(#_clip23)">
        <path d="M100.713,242.399L68.147,258.209" style="fill:none;stroke-width:0.47px;stroke:black;"/>
    </g>
    <path d="M71.927,252.099L68.525,258.02L75.265,258.902" style="fill:none;stroke-width:0.47px;stroke-linejoin:miter;stroke:black;"/>
    <path d="M78.037,123.474L79.486,119.568" style="fill:none;stroke-width:0.47px;stroke:rgb(144,144,144);"/>
    <path d="M92.65,102.435L89.312,105.396" style="fill:none;stroke-width:0.47px;stroke:rgb(144,144,144);"/>
    <clipPath id="_clip24">
        <path d="M0,0L0,308L277,308L277,0L0,0ZM33.944,135.127L27.771,138.528L31.424,145.142L37.597,141.741L30.857,141.237L33.944,135.127Z"/>
    </clipPath>
    <g clip-path="url(#_clip24)">
        <path d="M62.163,123.852L30.479,141.426" style="fill:none;stroke-width:0.47px;stroke:black;"/>
    </g>
    <path d="M33.944,135.127L30.857,141.237L37.597,141.741" style="fill:none;stroke-width:0.47px;stroke-linejoin:miter;stroke:black;"/>
    <clipPath id="_clip25">
        <path d="M0,0L0,308L277,308L277,0L0,0ZM104.87,236.478L98.32,239.249L101.28,246.241L107.831,243.407L101.154,242.21L104.87,236.478Z"/>
    </clipPath>
    <g clip-path="url(#_clip25)">
        <path d="M120.744,233.832L100.713,242.399" style="fill:none;stroke-width:0.47px;stroke:black;"/>
    </g>
    <path d="M104.87,236.478L101.154,242.21L107.831,243.407" style="fill:none;stroke-width:0.47px;stroke-linejoin:miter;stroke:black;"/>
    <clipPath id="_clip26">
        <path d="M0,0L0,308L277,308L277,0L0,0ZM73.565,117.679L66.888,120.009L69.47,127.127L76.084,124.796L69.533,123.159L73.565,117.679Z"/>
    </clipPath>
    <g clip-path="url(#_clip26)">
        <path d="M89.627,115.915L69.092,123.285" style="fill:none;stroke-width:0.47px;stroke:black;"/>
    </g>
    <path d="M73.565,117.679L69.533,123.159L76.084,124.796" style="fill:none;stroke-width:0.47px;stroke-linejoin:miter;stroke:black;"/>
    <clipPath id="_clip27">
        <path d="M0,0L0,308L277,308L277,0L0,0ZM84.462,81.207L83.328,88.136L90.761,89.396L91.895,82.467L87.296,87.443L84.462,81.207Z"/>
    </clipPath>
    <g clip-path="url(#_clip27)">
        <path d="M93.343,51.035L87.233,87.884" style="fill:none;stroke-width:0.47px;stroke:black;"/>
    </g>
    <path d="M84.462,81.207L87.296,87.443L91.895,82.467" style="fill:none;stroke-width:0.47px;stroke-linejoin:miter;stroke:black;"/>
    <clipPath id="_clip28">
        <path d="M0,0L0,308L277,308L277,0L0,0ZM181.403,89.018L180.584,96.01L188.08,96.892L188.962,89.9L184.553,95.128L181.403,89.018Z"/>
    </clipPath>
    <g clip-path="url(#_clip28)">
        <path d="M188.836,58.468L184.49,95.569" style="fill:none;stroke-width:0.47px;stroke:black;"/>
    </g>
    <path d="M181.403,89.018L184.553,95.128L188.962,89.9" style="fill:none;stroke-width:0.47px;stroke-linejoin:miter;stroke:black;"/>
    <path d="M84.147,250.462L82.194,255.753" style="fill:none;stroke-width:0.47px;stroke:rgb(144,144,144);"/>
    <clipPath id="_clip29">
        <path d="M0,0L0,308L277,308L277,0L0,0ZM85.659,109.868L85.848,116.923L93.406,116.734L93.217,109.679L89.627,115.474L85.659,109.868Z"/>
    </clipPath>
    <g clip-path="url(#_clip29)">
        <path d="M89.06,94.561L89.627,115.915" style="fill:none;stroke-width:0.47px;stroke:black;"/>
    </g>
    <path d="M85.659,109.868L89.627,115.474L93.217,109.679" style="fill:none;stroke-width:0.47px;stroke-linejoin:miter;stroke:black;"/>
    <clipPath id="_clip30">
        <path d="M0,0L0,308L277,308L277,0L0,0ZM180.018,110.687L179.766,117.742L187.324,118.057L187.576,111.002L183.608,116.545L180.018,110.687Z"/>
    </clipPath>
    <g clip-path="url(#_clip30)">
        <path d="M184.49,95.569L183.608,116.986" style="fill:none;stroke-width:0.47px;stroke:black;"/>
    </g>
    <path d="M180.018,110.687L183.608,116.545L187.576,111.002" style="fill:none;stroke-width:0.47px;stroke-linejoin:miter;stroke:black;"/>
    <path d="M110.855,238.052L114.319,238.556" style="fill:none;stroke-width:0.47px;stroke:rgb(144,144,144);"/>
    <clipPath id="_clip31">
        <path d="M0,0L0,308L277,308L277,0L0,0ZM136.302,235.47L130.759,231.061L126.035,236.982L131.578,241.391L129.562,234.903L136.302,235.47Z"/>
    </clipPath>
    <g clip-path="url(#_clip31)">
        <path d="M144.113,246.619L129.185,234.651" style="fill:none;stroke-width:0.47px;stroke:black;"/>
    </g>
    <path d="M136.302,235.47L129.562,234.903L131.578,241.391" style="fill:none;stroke-width:0.47px;stroke-linejoin:miter;stroke:black;"/>
    <path d="M186.695,76.735L190.852,73.334" style="fill:none;stroke-width:0.47px;stroke:rgb(144,144,144);"/>
    <clipPath id="_clip32">
        <path d="M0,0L0,308L277,308L277,0L0,0ZM95.044,253.737L101.406,250.65L98.131,243.848L91.768,246.934L98.572,247.879L95.044,253.737Z"/>
    </clipPath>
    <g clip-path="url(#_clip32)">
        <path d="M66.006,263.563L98.949,247.69" style="fill:none;stroke-width:0.47px;stroke:black;"/>
    </g>
    <path d="M95.044,253.737L98.572,247.879L91.768,246.934" style="fill:none;stroke-width:0.47px;stroke-linejoin:miter;stroke:black;"/>
    <clipPath id="_clip33">
        <path d="M0,0L0,308L277,308L277,0L0,0ZM29.913,132.481L30.605,139.473L38.164,138.78L37.471,131.725L34.259,137.772L29.913,132.481Z"/>
    </clipPath>
    <g clip-path="url(#_clip33)">
        <path d="M28.086,73.712L34.322,138.213" style="fill:none;stroke-width:0.47px;stroke:black;"/>
    </g>
    <path d="M29.913,132.481L34.259,137.772L37.471,131.725" style="fill:none;stroke-width:0.47px;stroke-linejoin:miter;stroke:black;"/>
    <path d="M185.561,109.805L184.049,106.404" style="fill:none;stroke-width:0.47px;stroke:rgb(144,144,144);"/>
    <clipPath id="_clip34">
        <path d="M0,0L0,308L277,308L277,0L0,0ZM195.891,135.064L201.812,138.969L205.97,132.67L200.111,128.765L202.757,135.064L195.891,135.064Z"/>
    </clipPath>
    <g clip-path="url(#_clip34)">
        <path d="M187.198,124.734L203.135,135.316" style="fill:none;stroke-width:0.47px;stroke:black;"/>
    </g>
    <path d="M195.891,135.064L202.757,135.064L200.111,128.765" style="fill:none;stroke-width:0.47px;stroke-linejoin:miter;stroke:black;"/>
    <clipPath id="_clip35">
        <path d="M0,0L0,308L277,308L277,0L0,0ZM120.114,240.131L126.665,237.36L123.704,230.368L117.154,233.202L123.893,234.462L120.114,240.131Z"/>
    </clipPath>
    <g clip-path="url(#_clip35)">
        <path d="M104.114,242.903L124.334,234.273" style="fill:none;stroke-width:0.47px;stroke:black;"/>
    </g>
    <path d="M120.114,240.131L123.893,234.462L117.154,233.202" style="fill:none;stroke-width:0.47px;stroke-linejoin:miter;stroke:black;"/>
    <path d="M136.491,240.572L131.641,240.257" style="fill:none;stroke-width:0.47px;stroke:rgb(144,144,144);"/>
    <clipPath id="_clip36">
        <path d="M0,0L0,308L277,308L277,0L0,0ZM32.936,68.357L26.133,70.31L28.148,77.554L34.952,75.664L28.527,73.586L32.936,68.357Z"/>
    </clipPath>
    <g clip-path="url(#_clip36)">
        <path d="M91.768,55.634L28.086,73.712" style="fill:none;stroke-width:0.47px;stroke:black;"/>
    </g>
    <path d="M32.936,68.357L28.527,73.586L34.952,75.664" style="fill:none;stroke-width:0.47px;stroke-linejoin:miter;stroke:black;"/>
    <path d="M31.298,107.285L27.267,110.309" style="fill:none;stroke-width:0.47px;stroke:rgb(144,144,144);"/>
    <path d="M195.009,129.899L192.93,125.615" style="fill:none;stroke-width:0.47px;stroke:rgb(144,144,144);"/>
    <clipPath id="_clip37">
        <path d="M0,0L0,308L277,308L277,0L0,0ZM189.529,105.08L189.781,98.026L182.222,97.711L181.97,104.766L186.002,99.286L189.529,105.08Z"/>
    </clipPath>
    <g clip-path="url(#_clip37)">
        <path d="M185.057,120.45L186.002,98.845" style="fill:none;stroke-width:0.47px;stroke:black;"/>
    </g>
    <path d="M189.529,105.08L186.002,99.286L181.97,104.766" style="fill:none;stroke-width:0.47px;stroke-linejoin:miter;stroke:black;"/>
    <clipPath id="_clip38">
        <path d="M0,0L0,308L277,308L277,0L0,0ZM151.294,246.871L145.436,242.903L141.153,249.202L147.011,253.17L144.491,246.871L151.294,246.871Z"/>
    </clipPath>
    <g clip-path="url(#_clip38)">
        <path d="M178.065,269.611L144.113,246.619" style="fill:none;stroke-width:0.47px;stroke:black;"/>
    </g>
    <path d="M151.294,246.871L144.491,246.871L147.011,253.17" style="fill:none;stroke-width:0.47px;stroke-linejoin:miter;stroke:black;"/>
    <path d="M61.093,64.326L62.415,59.665" style="fill:none;stroke-width:0.47px;stroke:rgb(144,144,144);"/>
    <clipPath id="_clip39">
        <path d="M0,0L0,308L277,308L277,0L0,0ZM196.017,61.303L196.836,54.248L189.34,53.429L188.521,60.421L192.93,55.255L196.017,61.303Z"/>
    </clipPath>
    <g clip-path="url(#_clip39)">
        <path d="M188.71,92.42L192.993,54.814" style="fill:none;stroke-width:0.47px;stroke:black;"/>
    </g>
    <path d="M196.017,61.303L192.93,55.255L188.521,60.421" style="fill:none;stroke-width:0.47px;stroke-linejoin:miter;stroke:black;"/>
    <clipPath id="_clip40">
        <path d="M0,0L0,308L277,308L277,0L0,0ZM132.019,245.422L137.499,249.895L142.286,243.973L136.806,239.565L138.822,246.115L132.019,245.422Z"/>
    </clipPath>
    <g clip-path="url(#_clip40)">
        <path d="M124.334,234.273L139.2,246.367" style="fill:none;stroke-width:0.47px;stroke:black;"/>
    </g>
    <path d="M132.019,245.422L138.822,246.115L136.806,239.565" style="fill:none;stroke-width:0.47px;stroke-linejoin:miter;stroke:black;"/>
    <clipPath id="_clip41">
        <path d="M0,0L0,308L277,308L277,0L0,0ZM229.402,158.559L235.197,162.654L239.543,156.48L233.811,152.449L236.268,158.811L229.402,158.559Z"/>
    </clipPath>
    <g clip-path="url(#_clip41)">
        <path d="M203.135,135.316L236.646,159.063" style="fill:none;stroke-width:0.47px;stroke:black;"/>
    </g>
    <path d="M229.402,158.559L236.268,158.811L233.811,152.449" style="fill:none;stroke-width:0.47px;stroke-linejoin:miter;stroke:black;"/>
    <clipPath id="_clip42">
        <path d="M0,0L0,308L277,308L277,0L0,0ZM192.238,120.639L186.316,116.734L182.159,123.033L188.08,126.938L185.435,120.702L192.238,120.639Z"/>
    </clipPath>
    <g clip-path="url(#_clip42)">
        <path d="M201.119,131.032L185.057,120.45" style="fill:none;stroke-width:0.47px;stroke:black;"/>
    </g>
    <path d="M192.238,120.639L185.435,120.702L188.08,126.938" style="fill:none;stroke-width:0.47px;stroke-linejoin:miter;stroke:black;"/>
    <clipPath id="_clip43">
        <path d="M0,0L0,308L277,308L277,0L0,0ZM28.148,82.215L27.456,75.161L19.897,75.979L20.653,82.971L23.865,76.987L28.148,82.215Z"/>
    </clipPath>
    <g clip-path="url(#_clip43)">
        <path d="M30.479,141.426L23.802,76.546" style="fill:none;stroke-width:0.47px;stroke:black;"/>
    </g>
    <path d="M28.148,82.215L23.865,76.987L20.653,82.971" style="fill:none;stroke-width:0.47px;stroke-linejoin:miter;stroke:black;"/>
    <clipPath id="_clip44">
        <path d="M0,0L0,308L277,308L277,0L0,0ZM88.43,56.263L95.233,54.374L93.217,47.13L86.415,49.02L92.902,51.161L88.43,56.263Z"/>
    </clipPath>
    <g clip-path="url(#_clip44)">
        <path d="M29.031,68.988L93.343,51.035" style="fill:none;stroke-width:0.47px;stroke:black;"/>
    </g>
    <path d="M88.43,56.263L92.902,51.161L86.415,49.02" style="fill:none;stroke-width:0.47px;stroke-linejoin:miter;stroke:black;"/>
    <path d="M161.184,258.272L160.428,263.815" style="fill:none;stroke-width:0.47px;stroke:rgb(144,144,144);"/>
    <path d="M224.804,144.953L220.079,147.284" style="fill:none;stroke-width:0.47px;stroke:rgb(144,144,144);"/>
    <clipPath id="_clip45">
        <path d="M0,0L0,308L277,308L277,0L0,0ZM71.99,107.411L71.675,100.356L64.116,100.797L64.431,107.852L67.958,101.994L71.99,107.411Z"/>
    </clipPath>
    <g clip-path="url(#_clip45)">
        <path d="M69.092,123.285L67.958,101.553" style="fill:none;stroke-width:0.47px;stroke:black;"/>
    </g>
    <path d="M71.99,107.411L67.958,101.994L64.431,107.852" style="fill:none;stroke-width:0.47px;stroke-linejoin:miter;stroke:black;"/>
    <path d="M68.525,112.577L61.533,113.143" style="fill:none;stroke-width:0.47px;stroke:rgb(144,144,144);"/>
    <clipPath id="_clip46">
        <path d="M0,0L0,308L277,308L277,0L0,0ZM84.399,100.041L91.139,97.837L88.745,90.656L82.005,92.861L88.619,94.687L84.399,100.041Z"/>
    </clipPath>
    <g clip-path="url(#_clip46)">
        <path d="M67.958,101.553L89.06,94.561" style="fill:none;stroke-width:0.47px;stroke:black;"/>
    </g>
    <path d="M84.399,100.041L88.619,94.687L82.005,92.861" style="fill:none;stroke-width:0.47px;stroke-linejoin:miter;stroke:black;"/>
    <clipPath id="_clip47">
        <path d="M0,0L0,308L277,308L277,0L0,0ZM58.006,117.93L58.447,124.986L65.943,124.545L65.565,117.489L62.163,123.411L58.006,117.93Z"/>
    </clipPath>
    <g clip-path="url(#_clip47)">
        <path d="M60.84,102.12L62.163,123.852" style="fill:none;stroke-width:0.47px;stroke:black;"/>
    </g>
    <path d="M58.006,117.93L62.163,123.411L65.565,117.489" style="fill:none;stroke-width:0.47px;stroke-linejoin:miter;stroke:black;"/>
    <path d="M78.667,98.026L76.777,91.286" style="fill:none;stroke-width:0.47px;stroke:rgb(144,144,144);"/>
    <clipPath id="_clip48">
        <path d="M0,0L0,308L277,308L277,0L0,0ZM70.667,89.207L63.927,91.349L66.257,98.53L72.998,96.388L66.447,94.561L70.667,89.207Z"/>
    </clipPath>
    <g clip-path="url(#_clip48)">
        <path d="M87.233,87.884L66.006,94.687" style="fill:none;stroke-width:0.47px;stroke:black;"/>
    </g>
    <path d="M70.667,89.207L66.447,94.561L72.998,96.388" style="fill:none;stroke-width:0.47px;stroke-linejoin:miter;stroke:black;"/>
    <clipPath id="_clip49">
        <path d="M0,0L0,308L277,308L277,0L0,0ZM170.254,275.028L176.112,278.996L180.332,272.697L174.474,268.729L177.12,275.091L170.254,275.028Z"/>
    </clipPath>
    <g clip-path="url(#_clip49)">
        <path d="M142.979,252.099L177.498,275.343" style="fill:none;stroke-width:0.47px;stroke:black;"/>
    </g>
    <path d="M170.254,275.028L177.12,275.091L174.474,268.729" style="fill:none;stroke-width:0.47px;stroke-linejoin:miter;stroke:black;"/>
    <clipPath id="_clip50">
        <path d="M0,0L0,308L277,308L277,0L0,0ZM214.851,133.174L209.056,129.08L204.71,135.253L210.442,139.347L208.048,132.985L214.851,133.174Z"/>
    </clipPath>
    <g clip-path="url(#_clip50)">
        <path d="M241.685,156.921L207.67,132.733" style="fill:none;stroke-width:0.47px;stroke:black;"/>
    </g>
    <path d="M214.851,133.174L208.048,132.985L210.442,139.347" style="fill:none;stroke-width:0.47px;stroke-linejoin:miter;stroke:black;"/>
    <clipPath id="_clip51">
        <path d="M0,0L0,308L277,308L277,0L0,0ZM105.5,303.562L110.414,308.538L115.831,303.247L110.855,298.208L112.177,304.948L105.5,303.562Z"/>
    </clipPath>
    <g clip-path="url(#_clip51)">
        <path d="M71.36,263.627L112.492,305.263" style="fill:none;stroke-width:0.47px;stroke:black;"/>
    </g>
    <path d="M105.5,303.562L112.177,304.948L110.855,298.208" style="fill:none;stroke-width:0.47px;stroke-linejoin:miter;stroke:black;"/>
    <path d="M90.824,283.342L85.343,283.468" style="fill:none;stroke-width:0.47px;stroke:rgb(144,144,144);"/>
    <clipPath id="_clip52">
        <path d="M0,0L0,308L277,308L277,0L0,0ZM111.17,244.1L105.878,239.438L100.902,245.107L106.13,249.769L104.43,243.218L111.17,244.1Z"/>
    </clipPath>
    <g clip-path="url(#_clip52)">
        <path d="M118.602,255.69L104.114,242.903" style="fill:none;stroke-width:0.47px;stroke:black;"/>
    </g>
    <path d="M111.17,244.1L104.43,243.218L106.13,249.769" style="fill:none;stroke-width:0.47px;stroke-linejoin:miter;stroke:black;"/>
    <path d="M106.004,254.052L111.232,249.202" style="fill:none;stroke-width:0.47px;stroke:rgb(144,144,144);"/>
    <clipPath id="_clip53">
        <path d="M0,0L0,308L277,308L277,0L0,0ZM202.19,59.098L195.954,55.886L192.489,62.625L198.725,65.838L195.45,59.917L202.19,59.098Z"/>
    </clipPath>
    <g clip-path="url(#_clip53)">
        <path d="M247.291,86.562L195.072,59.728" style="fill:none;stroke-width:0.47px;stroke:black;"/>
    </g>
    <path d="M202.19,59.098L195.45,59.917L198.725,65.838" style="fill:none;stroke-width:0.47px;stroke-linejoin:miter;stroke:black;"/>
    <clipPath id="_clip54">
        <path d="M0,0L0,308L277,308L277,0L0,0ZM106.193,259.28L111.484,264.004L116.523,258.398L111.295,253.674L112.996,260.288L106.193,259.28Z"/>
    </clipPath>
    <g clip-path="url(#_clip54)">
        <path d="M98.949,247.69L113.311,260.603" style="fill:none;stroke-width:0.47px;stroke:black;"/>
    </g>
    <path d="M106.193,259.28L112.996,260.288L111.295,253.674" style="fill:none;stroke-width:0.47px;stroke-linejoin:miter;stroke:black;"/>
    <clipPath id="_clip55">
        <path d="M0,0L0,308L277,308L277,0L0,0ZM72.934,265.264L68.021,260.225L62.604,265.516L67.517,270.556L66.321,263.879L72.934,265.264Z"/>
    </clipPath>
    <g clip-path="url(#_clip55)">
        <path d="M106.949,305.578L66.006,263.563" style="fill:none;stroke-width:0.47px;stroke:black;"/>
    </g>
    <path d="M72.934,265.264L66.321,263.879L67.517,270.556" style="fill:none;stroke-width:0.47px;stroke-linejoin:miter;stroke:black;"/>
    <clipPath id="_clip56">
        <path d="M0,0L0,308L277,308L277,0L0,0ZM195.261,108.923L201.308,112.639L205.277,106.152L199.229,102.435L202.127,108.671L195.261,108.923Z"/>
    </clipPath>
    <g clip-path="url(#_clip56)">
        <path d="M186.002,98.845L202.505,108.923" style="fill:none;stroke-width:0.47px;stroke:black;"/>
    </g>
    <path d="M195.261,108.923L202.127,108.671L199.229,102.435" style="fill:none;stroke-width:0.47px;stroke-linejoin:miter;stroke:black;"/>
    <clipPath id="_clip57">
        <path d="M0,0L0,308L277,308L277,0L0,0ZM122.571,249.706L116.146,252.603L119.295,259.469L125.657,256.572L118.98,255.501L122.571,249.706Z"/>
    </clipPath>
    <g clip-path="url(#_clip57)">
        <path d="M139.2,246.367L118.602,255.69" style="fill:none;stroke-width:0.47px;stroke:black;"/>
    </g>
    <path d="M122.571,249.706L118.98,255.501L125.657,256.572" style="fill:none;stroke-width:0.47px;stroke-linejoin:miter;stroke:black;"/>
    <path d="M219.764,72.452L217.812,67.412" style="fill:none;stroke-width:0.47px;stroke:rgb(144,144,144);"/>
    <path d="M194.127,103.821L196.836,97.27" style="fill:none;stroke-width:0.47px;stroke:rgb(144,144,144);"/>
    <clipPath id="_clip58">
        <path d="M0,0L0,308L277,308L277,0L0,0ZM130.885,156.354L137.499,153.772L134.791,146.717L128.177,149.3L134.854,150.811L130.885,156.354Z"/>
    </clipPath>
    <g clip-path="url(#_clip58)">
        <path d="M114.256,158.748L135.295,150.622" style="fill:none;stroke-width:0.47px;stroke:black;"/>
    </g>
    <path d="M130.885,156.354L134.854,150.811L128.177,149.3" style="fill:none;stroke-width:0.47px;stroke-linejoin:miter;stroke:black;"/>
    <clipPath id="_clip59">
        <path d="M0,0L0,308L277,308L277,0L0,0ZM169.498,280.445L175.734,277.232L172.333,270.492L166.034,273.705L172.837,274.524L169.498,280.445Z"/>
    </clipPath>
    <g clip-path="url(#_clip59)">
        <path d="M112.492,305.263L173.214,274.335" style="fill:none;stroke-width:0.47px;stroke:black;"/>
    </g>
    <path d="M169.498,280.445L172.837,274.524L166.034,273.705" style="fill:none;stroke-width:0.47px;stroke-linejoin:miter;stroke:black;"/>
    <path d="M126.791,158.748L124.901,154.654" style="fill:none;stroke-width:0.47px;stroke:rgb(144,144,144);"/>
    <path d="M132.838,256.76L129.059,250.966" style="fill:none;stroke-width:0.47px;stroke:rgb(144,144,144);"/>
    <clipPath id="_clip60">
        <path d="M0,0L0,308L277,308L277,0L0,0ZM139.074,134.686L139.074,127.631L131.515,127.631L131.515,134.686L135.295,129.017L139.074,134.686Z"/>
    </clipPath>
    <g clip-path="url(#_clip60)">
        <path d="M135.295,150.622L135.295,128.576" style="fill:none;stroke-width:0.47px;stroke:black;"/>
    </g>
    <path d="M139.074,134.686L135.295,129.017L131.515,134.686" style="fill:none;stroke-width:0.47px;stroke-linejoin:miter;stroke:black;"/>
    <path d="M139.767,140.166L135.295,139.788" style="fill:none;stroke-width:0.47px;stroke:rgb(144,144,144);"/>
    <clipPath id="_clip61">
        <path d="M0,0L0,308L277,308L277,0L0,0ZM120.429,157.111L113.815,159.693L116.523,166.748L123.138,164.165L116.523,162.716L120.429,157.111Z"/>
    </clipPath>
    <g clip-path="url(#_clip61)">
        <path d="M137.121,154.717L116.083,162.905" style="fill:none;stroke-width:0.47px;stroke:black;"/>
    </g>
    <path d="M120.429,157.111L116.523,162.716L123.138,164.165" style="fill:none;stroke-width:0.47px;stroke-linejoin:miter;stroke:black;"/>
    <clipPath id="_clip62">
        <path d="M0,0L0,308L277,308L277,0L0,0ZM195.891,92.294L189.781,88.64L185.939,95.128L191.986,98.782L189.088,92.671L195.891,92.294Z"/>
    </clipPath>
    <g clip-path="url(#_clip62)">
        <path d="M205.339,102.309L188.71,92.42" style="fill:none;stroke-width:0.47px;stroke:black;"/>
    </g>
    <path d="M195.891,92.294L189.088,92.671L191.986,98.782" style="fill:none;stroke-width:0.47px;stroke-linejoin:miter;stroke:black;"/>
    <clipPath id="_clip63">
        <path d="M0,0L0,308L277,308L277,0L0,0ZM53.596,101.742L59.455,105.711L63.738,99.538L57.943,95.506L60.463,101.868L53.596,101.742Z"/>
    </clipPath>
    <g clip-path="url(#_clip63)">
        <path d="M23.802,76.546L60.84,102.12" style="fill:none;stroke-width:0.47px;stroke:black;"/>
    </g>
    <path d="M53.596,101.742L60.463,101.868L57.943,95.506" style="fill:none;stroke-width:0.47px;stroke-linejoin:miter;stroke:black;"/>
    <path d="M47.675,81.963L42.51,89.396" style="fill:none;stroke-width:0.47px;stroke:rgb(144,144,144);"/>
    <clipPath id="_clip64">
        <path d="M0,0L0,308L277,308L277,0L0,0ZM36.211,69.365L30.353,65.334L26.07,71.507L31.865,75.538L29.409,69.239L36.211,69.365Z"/>
    </clipPath>
    <g clip-path="url(#_clip64)">
        <path d="M66.006,94.687L29.031,68.988" style="fill:none;stroke-width:0.47px;stroke:black;"/>
    </g>
    <path d="M36.211,69.365L29.409,69.239L31.865,75.538" style="fill:none;stroke-width:0.47px;stroke-linejoin:miter;stroke:black;"/>
    <clipPath id="_clip65">
        <path d="M0,0L0,308L277,308L277,0L0,0ZM135.925,144.827L135.862,151.882L143.42,151.945L143.483,144.89L139.704,150.559L135.925,144.827Z"/>
    </clipPath>
    <g clip-path="url(#_clip65)">
        <path d="M139.893,128.954L139.704,151" style="fill:none;stroke-width:0.47px;stroke:black;"/>
    </g>
    <path d="M135.925,144.827L139.704,150.559L143.483,144.89" style="fill:none;stroke-width:0.47px;stroke-linejoin:miter;stroke:black;"/>
    <clipPath id="_clip66">
        <path d="M0,0L0,308L277,308L277,0L0,0ZM197.655,124.671L197.277,131.725L204.773,132.166L205.214,125.111L201.119,130.591L197.655,124.671Z"/>
    </clipPath>
    <g clip-path="url(#_clip66)">
        <path d="M202.505,108.923L201.119,131.032" style="fill:none;stroke-width:0.47px;stroke:black;"/>
    </g>
    <path d="M197.655,124.671L201.119,130.591L205.214,125.111" style="fill:none;stroke-width:0.47px;stroke-linejoin:miter;stroke:black;"/>
    <clipPath id="_clip67">
        <path d="M0,0L0,308L277,308L277,0L0,0ZM139.011,258.083L145.373,255.123L142.223,248.257L135.862,251.218L142.602,252.288L139.011,258.083Z"/>
    </clipPath>
    <g clip-path="url(#_clip67)">
        <path d="M122.445,261.548L142.979,252.099" style="fill:none;stroke-width:0.47px;stroke:black;"/>
    </g>
    <path d="M139.011,258.083L142.602,252.288L135.862,251.218" style="fill:none;stroke-width:0.47px;stroke-linejoin:miter;stroke:black;"/>
    <path d="M208.489,121.836L201.812,120.135" style="fill:none;stroke-width:0.47px;stroke:rgb(144,144,144);"/>
    <path d="M144.05,289.2L148.145,290.397" style="fill:none;stroke-width:0.47px;stroke:rgb(144,144,144);"/>
    <clipPath id="_clip68">
        <path d="M0,0L0,308L277,308L277,0L0,0ZM144.302,155.284L138.57,151.063L134.098,157.173L139.767,161.331L137.499,154.969L144.302,155.284Z"/>
    </clipPath>
    <g clip-path="url(#_clip68)">
        <path d="M152.617,166.181L137.121,154.717" style="fill:none;stroke-width:0.47px;stroke:black;"/>
    </g>
    <path d="M144.302,155.284L137.499,154.969L139.767,161.331" style="fill:none;stroke-width:0.47px;stroke-linejoin:miter;stroke:black;"/>
    <path d="M147.389,156.606L144.743,160.323" style="fill:none;stroke-width:0.47px;stroke:rgb(144,144,144);"/>
    <clipPath id="_clip69">
        <path d="M0,0L0,308L277,308L277,0L0,0ZM148.082,161.835L153.814,165.992L158.286,159.882L152.554,155.725L154.948,162.15L148.082,161.835Z"/>
    </clipPath>
    <g clip-path="url(#_clip69)">
        <path d="M139.704,151L155.325,162.402" style="fill:none;stroke-width:0.47px;stroke:black;"/>
    </g>
    <path d="M148.082,161.835L154.948,162.15L152.554,155.725" style="fill:none;stroke-width:0.47px;stroke-linejoin:miter;stroke:black;"/>
    <clipPath id="_clip70">
        <path d="M0,0L0,308L277,308L277,0L0,0ZM238.346,81.963L244.645,85.176L248.047,78.436L241.748,75.223L245.149,81.207L238.346,81.963Z"/>
    </clipPath>
    <g clip-path="url(#_clip70)">
        <path d="M192.993,54.814L245.527,81.396" style="fill:none;stroke-width:0.47px;stroke:black;"/>
    </g>
    <path d="M238.346,81.963L245.149,81.207L241.748,75.223" style="fill:none;stroke-width:0.47px;stroke-linejoin:miter;stroke:black;"/>
    <clipPath id="_clip71">
        <path d="M0,0L0,308L277,308L277,0L0,0ZM250.314,93.05L251.133,86.058L243.638,85.176L242.755,92.168L247.228,87.002L250.314,93.05Z"/>
    </clipPath>
    <g clip-path="url(#_clip71)">
        <path d="M239.48,153.016L247.291,86.562" style="fill:none;stroke-width:0.47px;stroke:black;"/>
    </g>
    <path d="M250.314,93.05L247.228,87.002L242.755,92.168" style="fill:none;stroke-width:0.47px;stroke-linejoin:miter;stroke:black;"/>
    <clipPath id="_clip72">
        <path d="M0,0L0,308L277,308L277,0L0,0ZM212.583,116.986L213.087,109.931L205.591,109.364L205.025,116.419L209.245,111.065L212.583,116.986Z"/>
    </clipPath>
    <g clip-path="url(#_clip72)">
        <path d="M207.67,132.733L209.308,110.624" style="fill:none;stroke-width:0.47px;stroke:black;"/>
    </g>
    <path d="M212.583,116.986L209.245,111.065L205.025,116.419" style="fill:none;stroke-width:0.47px;stroke-linejoin:miter;stroke:black;"/>
    <path d="M245.527,124.923L243.196,121.206" style="fill:none;stroke-width:0.47px;stroke:rgb(144,144,144);"/>
    <clipPath id="_clip73">
        <path d="M0,0L0,308L277,308L277,0L0,0ZM119.988,300.539L113.752,303.751L117.216,310.491L123.452,307.279L116.712,306.523L119.988,300.539Z"/>
    </clipPath>
    <g clip-path="url(#_clip73)">
        <path d="M177.498,275.343L116.335,306.712" style="fill:none;stroke-width:0.47px;stroke:black;"/>
    </g>
    <path d="M119.988,300.539L116.712,306.523L123.452,307.279" style="fill:none;stroke-width:0.47px;stroke-linejoin:miter;stroke:black;"/>
    <clipPath id="_clip74">
        <path d="M0,0L0,308L277,308L277,0L0,0ZM238.661,150.37L237.779,157.362L245.275,158.307L246.157,151.252L241.748,156.48L238.661,150.37Z"/>
    </clipPath>
    <g clip-path="url(#_clip74)">
        <path d="M249.747,89.963L241.685,156.921" style="fill:none;stroke-width:0.47px;stroke:black;"/>
    </g>
    <path d="M238.661,150.37L241.748,156.48L246.157,151.252" style="fill:none;stroke-width:0.47px;stroke-linejoin:miter;stroke:black;"/>
    <clipPath id="_clip75">
        <path d="M0,0L0,308L277,308L277,0L0,0ZM110.288,152.701L110.477,159.756L118.036,159.567L117.846,152.512L114.256,158.307L110.288,152.701Z"/>
    </clipPath>
    <g clip-path="url(#_clip75)">
        <path d="M113.626,136.324L114.256,158.748" style="fill:none;stroke-width:0.47px;stroke:black;"/>
    </g>
    <path d="M110.288,152.701L114.256,158.307L117.846,152.512" style="fill:none;stroke-width:0.47px;stroke-linejoin:miter;stroke:black;"/>
    <clipPath id="_clip76">
        <path d="M0,0L0,308L277,308L277,0L0,0ZM118.098,130.718L111.421,133.048L114.004,140.166L120.618,137.836L114.067,136.198L118.098,130.718Z"/>
    </clipPath>
    <g clip-path="url(#_clip76)">
        <path d="M135.295,128.576L113.626,136.324" style="fill:none;stroke-width:0.47px;stroke:black;"/>
    </g>
    <path d="M118.098,130.718L114.067,136.198L120.618,137.836" style="fill:none;stroke-width:0.47px;stroke-linejoin:miter;stroke:black;"/>
    <path d="M113.941,147.725L112.996,150.182" style="fill:none;stroke-width:0.47px;stroke:rgb(144,144,144);"/>
    <clipPath id="_clip77">
        <path d="M0,0L0,308L277,308L277,0L0,0ZM104.052,298.964L103.044,305.956L110.539,307.027L111.547,300.035L107.012,305.137L104.052,298.964Z"/>
    </clipPath>
    <g clip-path="url(#_clip77)">
        <path d="M113.311,260.603L106.949,305.578" style="fill:none;stroke-width:0.47px;stroke:black;"/>
    </g>
    <path d="M104.052,298.964L107.012,305.137L111.547,300.035" style="fill:none;stroke-width:0.47px;stroke-linejoin:miter;stroke:black;"/>
    <path d="M126.476,130.907L124.649,132.418" style="fill:none;stroke-width:0.47px;stroke:rgb(144,144,144);"/>
    <path d="M119.421,283.72L110.225,282.713" style="fill:none;stroke-width:0.47px;stroke:rgb(144,144,144);"/>
    <clipPath id="_clip78">
        <path d="M0,0L0,308L277,308L277,0L0,0ZM124.02,174.18L129.562,178.59L134.287,172.669L128.744,168.26L130.822,174.811L124.02,174.18Z"/>
    </clipPath>
    <g clip-path="url(#_clip78)">
        <path d="M116.083,162.905L131.2,175.062" style="fill:none;stroke-width:0.47px;stroke:black;"/>
    </g>
    <path d="M124.02,174.18L130.822,174.811L128.744,168.26" style="fill:none;stroke-width:0.47px;stroke-linejoin:miter;stroke:black;"/>
    <clipPath id="_clip79">
        <path d="M0,0L0,308L277,308L277,0L0,0ZM43.014,194.4L49.25,191.062L45.723,184.385L39.487,187.723L46.29,188.416L43.014,194.4Z"/>
    </clipPath>
    <g clip-path="url(#_clip79)">
        <path d="M12.653,206.305L46.668,188.227" style="fill:none;stroke-width:0.47px;stroke:black;"/>
    </g>
    <path d="M43.014,194.4L46.29,188.416L39.487,187.723" style="fill:none;stroke-width:0.47px;stroke-linejoin:miter;stroke:black;"/>
    <clipPath id="_clip80">
        <path d="M0,0L0,308L277,308L277,0L0,0ZM125.342,268.099L126.287,261.107L118.791,260.099L117.846,267.091L122.382,261.989L125.342,268.099Z"/>
    </clipPath>
    <g clip-path="url(#_clip80)">
        <path d="M116.335,306.712L122.445,261.548" style="fill:none;stroke-width:0.47px;stroke:black;"/>
    </g>
    <path d="M125.342,268.099L122.382,261.989L117.846,267.091" style="fill:none;stroke-width:0.47px;stroke-linejoin:miter;stroke:black;"/>
    <path d="M32.999,206.054L29.282,197.487" style="fill:none;stroke-width:0.47px;stroke:rgb(144,144,144);"/>
    <clipPath id="_clip81">
        <path d="M0,0L0,308L277,308L277,0L0,0ZM147.074,129.206L141.216,125.238L136.932,131.536L142.79,135.505L140.271,129.206L147.074,129.206Z"/>
    </clipPath>
    <g clip-path="url(#_clip81)">
        <path d="M155.955,139.851L139.893,128.954" style="fill:none;stroke-width:0.47px;stroke:black;"/>
    </g>
    <path d="M147.074,129.206L140.271,129.206L142.79,135.505" style="fill:none;stroke-width:0.47px;stroke-linejoin:miter;stroke:black;"/>
    <path d="M123.516,168.889L120.744,167.189" style="fill:none;stroke-width:0.47px;stroke:rgb(144,144,144);"/>
    <clipPath id="_clip82">
        <path d="M0,0L0,308L277,308L277,0L0,0ZM116.587,144.701L116.398,137.646L108.839,137.836L109.028,144.89L112.681,139.158L116.587,144.701Z"/>
    </clipPath>
    <g clip-path="url(#_clip82)">
        <path d="M113.311,161.268L112.681,138.717" style="fill:none;stroke-width:0.47px;stroke:black;"/>
    </g>
    <path d="M116.587,144.701L112.681,139.158L109.028,144.89" style="fill:none;stroke-width:0.47px;stroke-linejoin:miter;stroke:black;"/>
    <clipPath id="_clip83">
        <path d="M0,0L0,308L277,308L277,0L0,0ZM19.897,208.573L13.661,211.786L17.125,218.526L23.361,215.25L16.621,214.557L19.897,208.573Z"/>
    </clipPath>
    <g clip-path="url(#_clip83)">
        <path d="M50.51,196.983L16.243,214.746" style="fill:none;stroke-width:0.47px;stroke:black;"/>
    </g>
    <path d="M19.897,208.573L16.621,214.557L23.361,215.25" style="fill:none;stroke-width:0.47px;stroke-linejoin:miter;stroke:black;"/>
    <clipPath id="_clip84">
        <path d="M0,0L0,308L277,308L277,0L0,0ZM132.712,132.607L139.389,130.277L136.87,123.159L130.193,125.489L136.806,127.19L132.712,132.607Z"/>
    </clipPath>
    <g clip-path="url(#_clip84)">
        <path d="M115.453,134.812L137.247,127.064" style="fill:none;stroke-width:0.47px;stroke:black;"/>
    </g>
    <path d="M132.712,132.607L136.806,127.19L130.193,125.489" style="fill:none;stroke-width:0.47px;stroke-linejoin:miter;stroke:black;"/>
    <clipPath id="_clip85">
        <path d="M0,0L0,308L277,308L277,0L0,0ZM148.334,171.976L154.884,169.268L151.987,162.275L145.436,165.047L152.176,166.37L148.334,171.976Z"/>
    </clipPath>
    <g clip-path="url(#_clip85)">
        <path d="M131.2,175.062L152.617,166.181" style="fill:none;stroke-width:0.47px;stroke:black;"/>
    </g>
    <path d="M148.334,171.976L152.176,166.37L145.436,165.047" style="fill:none;stroke-width:0.47px;stroke-linejoin:miter;stroke:black;"/>
    <path d="M147.767,134.308L145.121,132.418" style="fill:none;stroke-width:0.47px;stroke:rgb(144,144,144);"/>
    <clipPath id="_clip86">
        <path d="M0,0L0,308L277,308L277,0L0,0ZM159.546,146.024L159.735,138.969L152.176,138.78L151.987,145.835L155.955,140.292L159.546,146.024Z"/>
    </clipPath>
    <g clip-path="url(#_clip86)">
        <path d="M155.325,162.402L155.955,139.851" style="fill:none;stroke-width:0.47px;stroke:black;"/>
    </g>
    <path d="M159.546,146.024L155.955,140.292L151.987,145.835" style="fill:none;stroke-width:0.47px;stroke-linejoin:miter;stroke:black;"/>
    <clipPath id="_clip87">
        <path d="M0,0L0,308L277,308L277,0L0,0ZM208.993,96.136L202.694,99.348L206.221,106.088L212.457,102.813L205.718,102.12L208.993,96.136Z"/>
    </clipPath>
    <g clip-path="url(#_clip87)">
        <path d="M245.527,81.396L205.339,102.309" style="fill:none;stroke-width:0.47px;stroke:black;"/>
    </g>
    <path d="M208.993,96.136L205.718,102.12L212.457,102.813" style="fill:none;stroke-width:0.47px;stroke-linejoin:miter;stroke:black;"/>
    <clipPath id="_clip88">
        <path d="M0,0L0,308L277,308L277,0L0,0ZM120.429,162.087L114.886,157.677L110.162,163.598L115.705,168.008L113.689,161.52L120.429,162.087Z"/>
    </clipPath>
    <g clip-path="url(#_clip88)">
        <path d="M128.429,173.425L113.311,161.268" style="fill:none;stroke-width:0.47px;stroke:black;"/>
    </g>
    <path d="M120.429,162.087L113.689,161.52L115.705,168.008" style="fill:none;stroke-width:0.47px;stroke-linejoin:miter;stroke:black;"/>
    <path d="M229.087,100.545L225.055,92.042" style="fill:none;stroke-width:0.47px;stroke:rgb(144,144,144);"/>
    <clipPath id="_clip89">
        <path d="M0,0L0,308L277,308L277,0L0,0ZM140.649,10.911L141.657,3.919L134.161,2.785L133.153,9.84L137.751,4.738L140.649,10.911Z"/>
    </clipPath>
    <g clip-path="url(#_clip89)">
        <path d="M131.893,43.791L137.814,4.234" style="fill:none;stroke-width:0.47px;stroke:black;"/>
    </g>
    <path d="M140.649,10.911L137.751,4.738L133.153,9.84" style="fill:none;stroke-width:0.47px;stroke-linejoin:miter;stroke:black;"/>
    <clipPath id="_clip90">
        <path d="M0,0L0,308L277,308L277,0L0,0ZM246.031,96.073L252.267,92.861L248.866,86.121L242.566,89.333L249.37,90.152L246.031,96.073Z"/>
    </clipPath>
    <g clip-path="url(#_clip90)">
        <path d="M209.308,110.624L249.747,89.963" style="fill:none;stroke-width:0.47px;stroke:black;"/>
    </g>
    <path d="M246.031,96.073L249.37,90.152L242.566,89.333" style="fill:none;stroke-width:0.47px;stroke-linejoin:miter;stroke:black;"/>
    <path d="M144.113,169.33L142.098,170.59" style="fill:none;stroke-width:0.47px;stroke:rgb(144,144,144);"/>
    <clipPath id="_clip91">
        <path d="M0,0L0,308L277,308L277,0L0,0ZM146.066,137.646L151.924,141.615L156.207,135.316L150.349,131.347L152.932,137.709L146.066,137.646Z"/>
    </clipPath>
    <g clip-path="url(#_clip91)">
        <path d="M137.247,127.064L153.31,137.961" style="fill:none;stroke-width:0.47px;stroke:black;"/>
    </g>
    <path d="M146.066,137.646L152.932,137.709L150.349,131.347" style="fill:none;stroke-width:0.47px;stroke-linejoin:miter;stroke:black;"/>
    <path d="M144.239,24.264L134.917,23.698" style="fill:none;stroke-width:0.47px;stroke:rgb(144,144,144);"/>
    <path d="M155.011,153.772L155.64,151.315" style="fill:none;stroke-width:0.47px;stroke:rgb(144,144,144);"/>
    <clipPath id="_clip92">
        <path d="M0,0L0,308L277,308L277,0L0,0ZM138.507,37.87L137.499,44.862L144.995,45.933L145.94,38.941L141.468,44.043L138.507,37.87Z"/>
    </clipPath>
    <g clip-path="url(#_clip92)">
        <path d="M147.011,4.8L141.405,44.484" style="fill:none;stroke-width:0.47px;stroke:black;"/>
    </g>
    <path d="M138.507,37.87L141.468,44.043L145.94,38.941" style="fill:none;stroke-width:0.47px;stroke-linejoin:miter;stroke:black;"/>
    <clipPath id="_clip93">
        <path d="M0,0L0,308L277,308L277,0L0,0ZM137.436,168.008L130.885,170.716L133.783,177.708L140.334,175L133.657,173.677L137.436,168.008Z"/>
    </clipPath>
    <g clip-path="url(#_clip93)">
        <path d="M154.759,164.984L133.216,173.866" style="fill:none;stroke-width:0.47px;stroke:black;"/>
    </g>
    <path d="M137.436,168.008L133.657,173.677L140.334,175" style="fill:none;stroke-width:0.47px;stroke-linejoin:miter;stroke:black;"/>
    <clipPath id="_clip94">
        <path d="M0,0L0,308L277,308L277,0L0,0ZM151.105,158.748L150.916,165.803L158.475,165.992L158.664,158.937L154.759,164.543L151.105,158.748Z"/>
    </clipPath>
    <g clip-path="url(#_clip94)">
        <path d="M155.325,142.308L154.759,164.984" style="fill:none;stroke-width:0.47px;stroke:black;"/>
    </g>
    <path d="M151.105,158.748L154.759,164.543L158.664,158.937" style="fill:none;stroke-width:0.47px;stroke-linejoin:miter;stroke:black;"/>
    <clipPath id="_clip95">
        <path d="M0,0L0,308L277,308L277,0L0,0ZM8.118,200.7L9,207.691L16.495,206.746L15.614,199.755L12.59,205.864L8.118,200.7Z"/>
    </clipPath>
    <g clip-path="url(#_clip95)">
        <path d="M3.898,137.709L12.653,206.305" style="fill:none;stroke-width:0.47px;stroke:black;"/>
    </g>
    <path d="M8.118,200.7L12.59,205.864L15.614,199.755" style="fill:none;stroke-width:0.47px;stroke-linejoin:miter;stroke:black;"/>
    <path d="M8.37,177.708L8.433,173.551" style="fill:none;stroke-width:0.47px;stroke:rgb(144,144,144);"/>
    <clipPath id="_clip96">
        <path d="M0,0L0,308L277,308L277,0L0,0ZM73.754,16.832L66.888,18.595L68.777,25.839L75.643,24.075L69.218,21.871L73.754,16.832Z"/>
    </clipPath>
    <g clip-path="url(#_clip96)">
        <path d="M137.814,4.234L68.777,21.997" style="fill:none;stroke-width:0.47px;stroke:black;"/>
    </g>
    <path d="M73.754,16.832L69.218,21.871L75.643,24.075" style="fill:none;stroke-width:0.47px;stroke-linejoin:miter;stroke:black;"/>
    <clipPath id="_clip97">
        <path d="M0,0L0,308L277,308L277,0L0,0ZM49.061,171.031L48.495,164.039L40.936,164.606L41.566,171.661L44.904,165.74L49.061,171.031Z"/>
    </clipPath>
    <g clip-path="url(#_clip97)">
        <path d="M46.668,188.227L44.841,165.299" style="fill:none;stroke-width:0.47px;stroke:black;"/>
    </g>
    <path d="M49.061,171.031L44.904,165.74L41.566,171.661" style="fill:none;stroke-width:0.47px;stroke-linejoin:miter;stroke:black;"/>
    <clipPath id="_clip98">
        <path d="M0,0L0,308L277,308L277,0L0,0ZM120.996,149.741L126.728,153.961L131.2,147.851L125.531,143.693L127.862,150.118L120.996,149.741Z"/>
    </clipPath>
    <g clip-path="url(#_clip98)">
        <path d="M112.681,138.717L128.24,150.37" style="fill:none;stroke-width:0.47px;stroke:black;"/>
    </g>
    <path d="M120.996,149.741L127.862,150.118L125.531,143.693" style="fill:none;stroke-width:0.47px;stroke-linejoin:miter;stroke:black;"/>
    <path d="M123.138,140.481L120.303,144.449" style="fill:none;stroke-width:0.47px;stroke:rgb(144,144,144);"/>
    <clipPath id="_clip99">
        <path d="M0,0L0,308L277,308L277,0L0,0ZM122.634,135.316L116.902,131.159L112.429,137.268L118.098,141.426L115.831,135.064L122.634,135.316Z"/>
    </clipPath>
    <g clip-path="url(#_clip99)">
        <path d="M131.137,146.339L115.453,134.812" style="fill:none;stroke-width:0.47px;stroke:black;"/>
    </g>
    <path d="M122.634,135.316L115.831,135.064L118.098,141.426" style="fill:none;stroke-width:0.47px;stroke-linejoin:miter;stroke:black;"/>
    <path d="M108.398,11.541L104.745,12.737" style="fill:none;stroke-width:0.47px;stroke:rgb(144,144,144);"/>
    <path d="M52.211,178.905L45.723,176.952" style="fill:none;stroke-width:0.47px;stroke:rgb(144,144,144);"/>
    <clipPath id="_clip100">
        <path d="M0,0L0,308L277,308L277,0L0,0ZM8.244,147.095L7.362,140.103L-0.134,141.048L0.748,148.04L3.834,141.993L8.244,147.095Z"/>
    </clipPath>
    <g clip-path="url(#_clip100)">
        <path d="M12.653,210.715L3.771,141.552" style="fill:none;stroke-width:0.47px;stroke:black;"/>
    </g>
    <path d="M8.244,147.095L3.834,141.993L0.748,148.04" style="fill:none;stroke-width:0.47px;stroke-linejoin:miter;stroke:black;"/>
    <clipPath id="_clip101">
        <path d="M0,0L0,308L277,308L277,0L0,0ZM127.106,49.145L133.846,47.13L131.641,39.886L124.901,41.902L131.452,43.917L127.106,49.145Z"/>
    </clipPath>
    <g clip-path="url(#_clip101)">
        <path d="M109.154,50.72L131.893,43.791" style="fill:none;stroke-width:0.47px;stroke:black;"/>
    </g>
    <path d="M127.106,49.145L131.452,43.917L124.901,41.902" style="fill:none;stroke-width:0.47px;stroke-linejoin:miter;stroke:black;"/>
    <clipPath id="_clip102">
        <path d="M0,0L0,308L277,308L277,0L0,0ZM124.586,167.315L124.649,174.37L132.208,174.307L132.145,167.252L128.429,172.984L124.586,167.315Z"/>
    </clipPath>
    <g clip-path="url(#_clip102)">
        <path d="M128.24,150.37L128.429,173.425" style="fill:none;stroke-width:0.47px;stroke:black;"/>
    </g>
    <path d="M124.586,167.315L128.429,172.984L132.145,167.252" style="fill:none;stroke-width:0.47px;stroke-linejoin:miter;stroke:black;"/>
    <path d="M133.153,162.527L128.366,162.087" style="fill:none;stroke-width:0.47px;stroke:rgb(144,144,144);"/>
    <clipPath id="_clip103">
        <path d="M0,0L0,308L277,308L277,0L0,0ZM228.268,216.573L222.41,212.605L218.127,218.778L223.921,222.809L221.465,216.51L228.268,216.573Z"/>
    </clipPath>
    <g clip-path="url(#_clip103)">
        <path d="M258.377,242.021L221.087,216.258" style="fill:none;stroke-width:0.47px;stroke:black;"/>
    </g>
    <path d="M228.268,216.573L221.465,216.51L223.921,222.809" style="fill:none;stroke-width:0.47px;stroke-linejoin:miter;stroke:black;"/>
    <clipPath id="_clip104">
        <path d="M0,0L0,308L277,308L277,0L0,0ZM48.747,184.385L49.313,191.44L56.809,190.873L56.305,183.818L52.967,189.802L48.747,184.385Z"/>
    </clipPath>
    <g clip-path="url(#_clip104)">
        <path d="M51.392,167.189L53.03,190.243" style="fill:none;stroke-width:0.47px;stroke:black;"/>
    </g>
    <path d="M48.747,184.385L52.967,189.802L56.305,183.818" style="fill:none;stroke-width:0.47px;stroke-linejoin:miter;stroke:black;"/>
    <clipPath id="_clip105">
        <path d="M0,0L0,308L277,308L277,0L0,0ZM135.484,140.607L128.87,143.127L131.578,150.182L138.192,147.662L131.578,146.15L135.484,140.607Z"/>
    </clipPath>
    <g clip-path="url(#_clip105)">
        <path d="M153.31,137.961L131.137,146.339" style="fill:none;stroke-width:0.47px;stroke:black;"/>
    </g>
    <path d="M135.484,140.607L131.578,146.15L138.192,147.662" style="fill:none;stroke-width:0.47px;stroke-linejoin:miter;stroke:black;"/>
    <clipPath id="_clip106">
        <path d="M0,0L0,308L277,308L277,0L0,0ZM136.932,156.859L136.87,149.804L129.311,149.866L129.373,156.921L133.153,151.252L136.932,156.859Z"/>
    </clipPath>
    <g clip-path="url(#_clip106)">
        <path d="M133.216,173.866L133.153,150.811" style="fill:none;stroke-width:0.47px;stroke:black;"/>
    </g>
    <path d="M136.932,156.859L133.153,151.252L129.373,156.921" style="fill:none;stroke-width:0.47px;stroke-linejoin:miter;stroke:black;"/>
    <path d="M245.527,221.297L239.921,229.297" style="fill:none;stroke-width:0.47px;stroke:rgb(144,144,144);"/>
    <clipPath id="_clip107">
        <path d="M0,0L0,308L277,308L277,0L0,0ZM256.739,233.643L262.597,237.675L266.881,231.502L261.086,227.47L263.605,233.832L256.739,233.643Z"/>
    </clipPath>
    <g clip-path="url(#_clip107)">
        <path d="M226.756,208.195L263.983,234.084" style="fill:none;stroke-width:0.47px;stroke:black;"/>
    </g>
    <path d="M256.739,233.643L263.605,233.832L261.086,227.47" style="fill:none;stroke-width:0.47px;stroke-linejoin:miter;stroke:black;"/>
    <clipPath id="_clip108">
        <path d="M0,0L0,308L277,308L277,0L0,0ZM57.502,198.369L52.4,193.519L47.235,199.062L52.337,203.912L50.825,197.298L57.502,198.369Z"/>
    </clipPath>
    <g clip-path="url(#_clip108)">
        <path d="M64.746,210.337L50.51,196.983" style="fill:none;stroke-width:0.47px;stroke:black;"/>
    </g>
    <path d="M57.502,198.369L50.825,197.298L52.337,203.912" style="fill:none;stroke-width:0.47px;stroke-linejoin:miter;stroke:black;"/>
    <path d="M144.428,146.465L142.35,142.056" style="fill:none;stroke-width:0.47px;stroke:rgb(144,144,144);"/>
    <clipPath id="_clip109">
        <path d="M0,0L0,308L277,308L277,0L0,0ZM49.565,256.698L54.352,261.863L59.959,256.76L55.172,251.595L56.242,258.335L49.565,256.698Z"/>
    </clipPath>
    <g clip-path="url(#_clip109)">
        <path d="M16.243,214.746L56.557,258.65" style="fill:none;stroke-width:0.47px;stroke:black;"/>
    </g>
    <path d="M49.565,256.698L56.242,258.335L55.172,251.595" style="fill:none;stroke-width:0.47px;stroke-linejoin:miter;stroke:black;"/>
    <path d="M120.681,47.256L124.649,52.799" style="fill:none;stroke-width:0.47px;stroke:rgb(144,144,144);"/>
    <clipPath id="_clip110">
        <path d="M0,0L0,308L277,308L277,0L0,0ZM150.916,148.04L157.53,145.457L154.821,138.402L148.207,140.985L154.884,142.497L150.916,148.04Z"/>
    </clipPath>
    <g clip-path="url(#_clip110)">
        <path d="M133.153,150.811L155.325,142.308" style="fill:none;stroke-width:0.47px;stroke:black;"/>
    </g>
    <path d="M150.916,148.04L154.884,142.497L148.207,140.985" style="fill:none;stroke-width:0.47px;stroke-linejoin:miter;stroke:black;"/>
    <path d="M57.502,203.534L60.084,196.731" style="fill:none;stroke-width:0.47px;stroke:rgb(144,144,144);"/>
    <path d="M35.204,235.407L31.613,231.313" style="fill:none;stroke-width:0.47px;stroke:rgb(144,144,144);"/>
    <clipPath id="_clip111">
        <path d="M0,0L0,308L277,308L277,0L0,0ZM60.4,202.022L65.565,206.809L70.667,201.204L65.439,196.479L67.14,203.093L60.4,202.022Z"/>
    </clipPath>
    <g clip-path="url(#_clip111)">
        <path d="M53.03,190.243L67.454,203.408" style="fill:none;stroke-width:0.47px;stroke:black;"/>
    </g>
    <path d="M60.4,202.022L67.14,203.093L65.439,196.479" style="fill:none;stroke-width:0.47px;stroke-linejoin:miter;stroke:black;"/>
    <clipPath id="_clip112">
        <path d="M0,0L0,308L277,308L277,0L0,0ZM117.783,50.972L111.043,53.114L113.311,60.295L120.051,58.216L113.563,56.326L117.783,50.972Z"/>
    </clipPath>
    <g clip-path="url(#_clip112)">
        <path d="M135.862,49.271L113.122,56.452" style="fill:none;stroke-width:0.47px;stroke:black;"/>
    </g>
    <path d="M117.783,50.972L113.563,56.326L120.051,58.216" style="fill:none;stroke-width:0.47px;stroke-linejoin:miter;stroke:black;"/>
    <clipPath id="_clip113">
        <path d="M0,0L0,308L277,308L277,0L0,0ZM136.743,8.265L143.609,6.438L141.72,-0.869L134.854,0.958L141.342,3.163L136.743,8.265Z"/>
    </clipPath>
    <g clip-path="url(#_clip113)">
        <path d="M72.116,20.863L141.782,2.974" style="fill:none;stroke-width:0.47px;stroke:black;"/>
    </g>
    <path d="M136.743,8.265L141.342,3.163L134.854,0.958" style="fill:none;stroke-width:0.47px;stroke-linejoin:miter;stroke:black;"/>
    <clipPath id="_clip114">
        <path d="M0,0L0,308L277,308L277,0L0,0ZM151.168,54.437L157.278,57.964L160.995,51.413L154.884,47.886L157.971,53.996L151.168,54.437Z"/>
    </clipPath>
    <g clip-path="url(#_clip114)">
        <path d="M141.405,44.484L158.349,54.248" style="fill:none;stroke-width:0.47px;stroke:black;"/>
    </g>
    <path d="M151.168,54.437L157.971,53.996L154.884,47.886" style="fill:none;stroke-width:0.47px;stroke-linejoin:miter;stroke:black;"/>
    <path d="M149.719,49.271L144.113,54.185" style="fill:none;stroke-width:0.47px;stroke:rgb(144,144,144);"/>
    <clipPath id="_clip115">
        <path d="M0,0L0,308L277,308L277,0L0,0ZM143.043,49.145L136.932,45.492L133.09,51.98L139.137,55.634L136.239,49.523L143.043,49.145Z"/>
    </clipPath>
    <g clip-path="url(#_clip115)">
        <path d="M152.68,59.287L135.862,49.271" style="fill:none;stroke-width:0.47px;stroke:black;"/>
    </g>
    <path d="M143.043,49.145L136.239,49.523L139.137,55.634" style="fill:none;stroke-width:0.47px;stroke-linejoin:miter;stroke:black;"/>
    <clipPath id="_clip116">
        <path d="M0,0L0,308L277,308L277,0L0,0ZM154.129,4.108L147.767,1.021L144.491,7.824L150.853,10.911L147.389,5.052L154.129,4.108Z"/>
    </clipPath>
    <g clip-path="url(#_clip116)">
        <path d="M200.867,30.438L147.011,4.8" style="fill:none;stroke-width:0.47px;stroke:black;"/>
    </g>
    <path d="M154.129,4.108L147.389,5.052L150.853,10.911" style="fill:none;stroke-width:0.47px;stroke-linejoin:miter;stroke:black;"/>
    <clipPath id="_clip117">
        <path d="M0,0L0,308L277,308L277,0L0,0ZM19.582,212.605L14.795,207.439L9.189,212.541L13.976,217.707L12.968,211.03L19.582,212.605Z"/>
    </clipPath>
    <g clip-path="url(#_clip117)">
        <path d="M52.967,254.619L12.653,210.715" style="fill:none;stroke-width:0.47px;stroke:black;"/>
    </g>
    <path d="M19.582,212.605L12.968,211.03L13.976,217.707" style="fill:none;stroke-width:0.47px;stroke-linejoin:miter;stroke:black;"/>
    <path d="M167.105,15.068L172.333,16.832" style="fill:none;stroke-width:0.47px;stroke:rgb(144,144,144);"/>
    <clipPath id="_clip118">
        <path d="M0,0L0,308L277,308L277,0L0,0ZM11.079,137.961L5.22,133.993L1,140.292L6.858,144.261L4.275,137.961L11.079,137.961Z"/>
    </clipPath>
    <g clip-path="url(#_clip118)">
        <path d="M44.841,165.299L3.898,137.709" style="fill:none;stroke-width:0.47px;stroke:black;"/>
    </g>
    <path d="M11.079,137.961L4.275,137.961L6.858,144.261" style="fill:none;stroke-width:0.47px;stroke-linejoin:miter;stroke:black;"/>
    <clipPath id="_clip119">
        <path d="M0,0L0,308L277,308L277,0L0,0ZM101.91,50.216L107.705,54.311L112.114,48.138L106.319,44.043L108.776,50.468L101.91,50.216Z"/>
    </clipPath>
    <g clip-path="url(#_clip119)">
        <path d="M68.777,21.997L109.154,50.72" style="fill:none;stroke-width:0.47px;stroke:black;"/>
    </g>
    <path d="M101.91,50.216L108.776,50.468L106.319,44.043" style="fill:none;stroke-width:0.47px;stroke-linejoin:miter;stroke:black;"/>
    <clipPath id="_clip120">
        <path d="M0,0L0,308L277,308L277,0L0,0ZM188.395,29.43L194.757,32.453L198.033,25.65L191.671,22.627L195.198,28.485L188.395,29.43Z"/>
    </clipPath>
    <g clip-path="url(#_clip120)">
        <path d="M141.782,2.974L195.576,28.674" style="fill:none;stroke-width:0.47px;stroke:black;"/>
    </g>
    <path d="M188.395,29.43L195.198,28.485L191.671,22.627" style="fill:none;stroke-width:0.47px;stroke-linejoin:miter;stroke:black;"/>
    <clipPath id="_clip121">
        <path d="M0,0L0,308L277,308L277,0L0,0ZM203.009,220.352L196.647,223.313L199.796,230.179L206.158,227.218L199.481,226.211L203.009,220.352Z"/>
    </clipPath>
    <g clip-path="url(#_clip121)">
        <path d="M221.087,216.258L199.104,226.399" style="fill:none;stroke-width:0.47px;stroke:black;"/>
    </g>
    <path d="M203.009,220.352L199.481,226.211L206.158,227.218" style="fill:none;stroke-width:0.47px;stroke-linejoin:miter;stroke:black;"/>
    <path d="M208.3,213.865L210.253,221.297" style="fill:none;stroke-width:0.47px;stroke:rgb(144,144,144);"/>
    <clipPath id="_clip122">
        <path d="M0,0L0,308L277,308L277,0L0,0ZM223.355,201.833L222.914,208.825L230.409,209.392L230.913,202.337L226.756,207.754L223.355,201.833Z"/>
    </clipPath>
    <g clip-path="url(#_clip122)">
        <path d="M228.394,184.826L226.756,208.195" style="fill:none;stroke-width:0.47px;stroke:black;"/>
    </g>
    <path d="M223.355,201.833L226.756,207.754L230.913,202.337" style="fill:none;stroke-width:0.47px;stroke-linejoin:miter;stroke:black;"/>
    <clipPath id="_clip123">
        <path d="M0,0L0,308L277,308L277,0L0,0ZM215.103,214.872L221.528,211.975L218.379,205.109L212.016,208.006L218.756,209.14L215.103,214.872Z"/>
    </clipPath>
    <g clip-path="url(#_clip123)">
        <path d="M197.088,218.904L219.134,208.951" style="fill:none;stroke-width:0.47px;stroke:black;"/>
    </g>
    <path d="M215.103,214.872L218.756,209.14L212.016,208.006" style="fill:none;stroke-width:0.47px;stroke-linejoin:miter;stroke:black;"/>
    <path d="M227.575,196.731L219.827,197.424" style="fill:none;stroke-width:0.47px;stroke:rgb(144,144,144);"/>
    <path d="M24.558,151.63L27.267,148.418" style="fill:none;stroke-width:0.47px;stroke:rgb(144,144,144);"/>
    <clipPath id="_clip124">
        <path d="M0,0L0,308L277,308L277,0L0,0ZM223.984,191.818L224.362,184.763L216.867,184.322L216.426,191.377L220.583,185.96L223.984,191.818Z"/>
    </clipPath>
    <g clip-path="url(#_clip124)">
        <path d="M219.134,208.951L220.583,185.519" style="fill:none;stroke-width:0.47px;stroke:black;"/>
    </g>
    <path d="M223.984,191.818L220.583,185.96L216.426,191.377" style="fill:none;stroke-width:0.47px;stroke-linejoin:miter;stroke:black;"/>
    <path d="M89.186,36.548L86.792,40.642" style="fill:none;stroke-width:0.47px;stroke:rgb(144,144,144);"/>
    <clipPath id="_clip125">
        <path d="M0,0L0,308L277,308L277,0L0,0ZM254.661,248.131L260.96,244.918L257.432,238.179L251.196,241.454L257.999,242.21L254.661,248.131Z"/>
    </clipPath>
    <g clip-path="url(#_clip125)">
        <path d="M193.371,275.909L258.377,242.021" style="fill:none;stroke-width:0.47px;stroke:black;"/>
    </g>
    <path d="M254.661,248.131L257.999,242.21L251.196,241.454" style="fill:none;stroke-width:0.47px;stroke-linejoin:miter;stroke:black;"/>
    <clipPath id="_clip126">
        <path d="M0,0L0,308L277,308L277,0L0,0ZM58.447,168.26L53.093,163.661L48.179,169.393L53.534,174.055L51.707,167.504L58.447,168.26Z"/>
    </clipPath>
    <g clip-path="url(#_clip126)">
        <path d="M66.257,179.85L51.392,167.189" style="fill:none;stroke-width:0.47px;stroke:black;"/>
    </g>
    <path d="M58.447,168.26L51.707,167.504L53.534,174.055" style="fill:none;stroke-width:0.47px;stroke-linejoin:miter;stroke:black;"/>
    <clipPath id="_clip127">
        <path d="M0,0L0,308L277,308L277,0L0,0ZM40.621,161.961L46.479,165.929L50.762,159.63L44.904,155.662L47.487,162.023L40.621,161.961Z"/>
    </clipPath>
    <g clip-path="url(#_clip127)">
        <path d="M6.291,134.182L47.865,162.275" style="fill:none;stroke-width:0.47px;stroke:black;"/>
    </g>
    <path d="M40.621,161.961L47.487,162.023L44.904,155.662" style="fill:none;stroke-width:0.47px;stroke-linejoin:miter;stroke:black;"/>
    <clipPath id="_clip128">
        <path d="M0,0L0,308L277,308L277,0L0,0ZM122.193,66.846L128.114,70.688L132.271,64.326L126.35,60.484L129.059,66.783L122.193,66.846Z"/>
    </clipPath>
    <g clip-path="url(#_clip128)">
        <path d="M113.122,56.452L129.437,67.035" style="fill:none;stroke-width:0.47px;stroke:black;"/>
    </g>
    <path d="M122.193,66.846L129.059,66.783L126.35,60.484" style="fill:none;stroke-width:0.47px;stroke-linejoin:miter;stroke:black;"/>
    <path d="M230.095,254.682L227.26,258.209" style="fill:none;stroke-width:0.47px;stroke:rgb(144,144,144);"/>
    <clipPath id="_clip129">
        <path d="M0,0L0,308L277,308L277,0L0,0ZM275.825,169.834L276.707,162.843L269.211,161.898L268.33,168.889L272.802,163.787L275.825,169.834Z"/>
    </clipPath>
    <g clip-path="url(#_clip129)">
        <path d="M263.983,234.084L272.865,163.346" style="fill:none;stroke-width:0.47px;stroke:black;"/>
    </g>
    <path d="M275.825,169.834L272.802,163.787L268.33,168.889" style="fill:none;stroke-width:0.47px;stroke-linejoin:miter;stroke:black;"/>
    <clipPath id="_clip130">
        <path d="M0,0L0,308L277,308L277,0L0,0ZM67.454,216.951L68.588,210.022L61.156,208.762L59.959,215.691L64.683,210.778L67.454,216.951Z"/>
    </clipPath>
    <g clip-path="url(#_clip130)">
        <path d="M56.557,258.65L64.746,210.337" style="fill:none;stroke-width:0.47px;stroke:black;"/>
    </g>
    <path d="M67.454,216.951L64.683,210.778L59.959,215.691" style="fill:none;stroke-width:0.47px;stroke-linejoin:miter;stroke:black;"/>
    <clipPath id="_clip131">
        <path d="M0,0L0,308L277,308L277,0L0,0ZM70.289,185.708L69.974,178.653L62.415,179.094L62.73,186.086L66.257,180.291L70.289,185.708Z"/>
    </clipPath>
    <g clip-path="url(#_clip131)">
        <path d="M67.454,203.408L66.257,179.85" style="fill:none;stroke-width:0.47px;stroke:black;"/>
    </g>
    <path d="M70.289,185.708L66.257,180.291L62.73,186.086" style="fill:none;stroke-width:0.47px;stroke-linejoin:miter;stroke:black;"/>
    <clipPath id="_clip132">
        <path d="M0,0L0,308L277,308L277,0L0,0ZM73.186,26.343L67.391,22.249L63.045,28.422L68.777,32.516L66.384,26.154L73.186,26.343Z"/>
    </clipPath>
    <g clip-path="url(#_clip132)">
        <path d="M107.138,55.066L66.006,25.902" style="fill:none;stroke-width:0.47px;stroke:black;"/>
    </g>
    <path d="M73.186,26.343L66.384,26.154L68.777,32.516" style="fill:none;stroke-width:0.47px;stroke-linejoin:miter;stroke:black;"/>
    <path d="M58.699,173.425L55.172,168.448" style="fill:none;stroke-width:0.47px;stroke:rgb(144,144,144);"/>
    <path d="M265.621,204.542L268.204,200.384" style="fill:none;stroke-width:0.47px;stroke:rgb(144,144,144);"/>
    <path d="M121.122,61.618L115.075,60.295" style="fill:none;stroke-width:0.47px;stroke:rgb(144,144,144);"/>
    <clipPath id="_clip133">
        <path d="M0,0L0,308L277,308L277,0L0,0ZM148.019,64.767L154.759,62.562L152.365,55.382L145.625,57.586L152.239,59.413L148.019,64.767Z"/>
    </clipPath>
    <g clip-path="url(#_clip133)">
        <path d="M129.437,67.035L152.68,59.287" style="fill:none;stroke-width:0.47px;stroke:black;"/>
    </g>
    <path d="M148.019,64.767L152.239,59.413L145.625,57.586" style="fill:none;stroke-width:0.47px;stroke-linejoin:miter;stroke:black;"/>
    <path d="M67.643,196.416L66.888,191.818" style="fill:none;stroke-width:0.47px;stroke:rgb(144,144,144);"/>
    <clipPath id="_clip134">
        <path d="M0,0L0,308L277,308L277,0L0,0ZM55.675,173.74L61.029,178.338L65.943,172.543L60.525,168.008L62.478,174.559L55.675,173.74Z"/>
    </clipPath>
    <g clip-path="url(#_clip134)">
        <path d="M47.865,162.275L62.793,174.873" style="fill:none;stroke-width:0.47px;stroke:black;"/>
    </g>
    <path d="M55.675,173.74L62.478,174.559L60.525,168.008" style="fill:none;stroke-width:0.47px;stroke-linejoin:miter;stroke:black;"/>
    <clipPath id="_clip135">
        <path d="M0,0L0,308L277,308L277,0L0,0ZM199.481,266.272L193.245,269.484L196.71,276.225L202.946,272.949L196.206,272.256L199.481,266.272Z"/>
    </clipPath>
    <g clip-path="url(#_clip135)">
        <path d="M261.464,238.431L195.828,272.445" style="fill:none;stroke-width:0.47px;stroke:black;"/>
    </g>
    <path d="M199.481,266.272L196.206,272.256L202.946,272.949" style="fill:none;stroke-width:0.47px;stroke-linejoin:miter;stroke:black;"/>
    <path d="M64.179,232.195L60.715,234.021" style="fill:none;stroke-width:0.47px;stroke:rgb(144,144,144);"/>
    <clipPath id="_clip136">
        <path d="M0,0L0,308L277,308L277,0L0,0ZM197.34,36.673L203.513,33.272L199.796,26.658L193.686,30.059L200.489,30.627L197.34,36.673Z"/>
    </clipPath>
    <g clip-path="url(#_clip136)">
        <path d="M158.349,54.248L200.867,30.438" style="fill:none;stroke-width:0.47px;stroke:black;"/>
    </g>
    <path d="M197.34,36.673L200.489,30.627L193.686,30.059" style="fill:none;stroke-width:0.47px;stroke-linejoin:miter;stroke:black;"/>
    <clipPath id="_clip137">
        <path d="M0,0L0,308L277,308L277,0L0,0ZM114.319,55.255L108.398,51.35L104.241,57.649L110.162,61.555L107.516,55.318L114.319,55.255Z"/>
    </clipPath>
    <g clip-path="url(#_clip137)">
        <path d="M123.389,65.712L107.138,55.066" style="fill:none;stroke-width:0.47px;stroke:black;"/>
    </g>
    <path d="M114.319,55.255L107.516,55.318L110.162,61.555" style="fill:none;stroke-width:0.47px;stroke-linejoin:miter;stroke:black;"/>
    <clipPath id="_clip138">
        <path d="M0,0L0,308L277,308L277,0L0,0ZM258.44,231.879L257.558,238.871L265.054,239.816L265.936,232.761L261.527,237.99L258.44,231.879Z"/>
    </clipPath>
    <g clip-path="url(#_clip138)">
        <path d="M270.219,167.189L261.464,238.431" style="fill:none;stroke-width:0.47px;stroke:black;"/>
    </g>
    <path d="M258.44,231.879L261.527,237.99L265.936,232.761" style="fill:none;stroke-width:0.47px;stroke-linejoin:miter;stroke:black;"/>
    <path d="M145.625,62.562L141.216,63.129" style="fill:none;stroke-width:0.47px;stroke:rgb(144,144,144);"/>
    <clipPath id="_clip139">
        <path d="M0,0L0,308L277,308L277,0L0,0ZM64.116,202.211L64.431,209.266L71.99,208.825L71.675,201.833L68.21,207.691L64.116,202.211Z"/>
    </clipPath>
    <g clip-path="url(#_clip139)">
        <path d="M67.013,184.385L68.21,208.132" style="fill:none;stroke-width:0.47px;stroke:black;"/>
    </g>
    <path d="M64.116,202.211L68.21,207.691L71.675,201.833" style="fill:none;stroke-width:0.47px;stroke-linejoin:miter;stroke:black;"/>
    <path d="M179.136,42.595L178.317,46.941" style="fill:none;stroke-width:0.47px;stroke:rgb(144,144,144);"/>
    <clipPath id="_clip140">
        <path d="M0,0L0,308L277,308L277,0L0,0ZM193.434,212.668L193.245,219.722L200.804,219.911L200.993,212.857L197.088,218.462L193.434,212.668Z"/>
    </clipPath>
    <g clip-path="url(#_clip140)">
        <path d="M197.844,195.093L197.088,218.904" style="fill:none;stroke-width:0.47px;stroke:black;"/>
    </g>
    <path d="M193.434,212.668L197.088,218.462L200.993,212.857" style="fill:none;stroke-width:0.47px;stroke-linejoin:miter;stroke:black;"/>
    <clipPath id="_clip141">
        <path d="M0,0L0,308L277,308L277,0L0,0ZM57.187,250.588L56.053,257.516L63.486,258.776L64.683,251.847L60.022,256.823L57.187,250.588Z"/>
    </clipPath>
    <g clip-path="url(#_clip141)">
        <path d="M68.21,208.132L59.959,257.265" style="fill:none;stroke-width:0.47px;stroke:black;"/>
    </g>
    <path d="M57.187,250.588L60.022,256.823L64.683,251.847" style="fill:none;stroke-width:0.47px;stroke-linejoin:miter;stroke:black;"/>
    <clipPath id="_clip142">
        <path d="M0,0L0,308L277,308L277,0L0,0ZM190.285,269.359L189.466,276.35L196.962,277.232L197.781,270.24L193.434,275.469L190.285,269.359Z"/>
    </clipPath>
    <g clip-path="url(#_clip142)">
        <path d="M199.104,226.399L193.371,275.909" style="fill:none;stroke-width:0.47px;stroke:black;"/>
    </g>
    <path d="M190.285,269.359L193.434,275.469L197.781,270.24" style="fill:none;stroke-width:0.47px;stroke-linejoin:miter;stroke:black;"/>
    <clipPath id="_clip143">
        <path d="M0,0L0,308L277,308L277,0L0,0ZM202.001,189.172L195.45,191.944L198.411,198.936L204.962,196.164L198.285,194.904L202.001,189.172Z"/>
    </clipPath>
    <g clip-path="url(#_clip143)">
        <path d="M220.583,185.519L197.844,195.093" style="fill:none;stroke-width:0.47px;stroke:black;"/>
    </g>
    <path d="M202.001,189.172L198.285,194.904L204.962,196.164" style="fill:none;stroke-width:0.47px;stroke-linejoin:miter;stroke:black;"/>
    <clipPath id="_clip144">
        <path d="M0,0L0,308L277,308L277,0L0,0ZM138.381,60.988L131.641,63.192L134.035,70.373L140.775,68.168L134.224,66.405L138.381,60.988Z"/>
    </clipPath>
    <g clip-path="url(#_clip144)">
        <path d="M157.152,58.72L133.783,66.531" style="fill:none;stroke-width:0.47px;stroke:black;"/>
    </g>
    <path d="M138.381,60.988L134.224,66.405L140.775,68.168" style="fill:none;stroke-width:0.47px;stroke-linejoin:miter;stroke:black;"/>
    <path d="M193.875,211.471L197.466,207.188" style="fill:none;stroke-width:0.47px;stroke:rgb(144,144,144);"/>
    <clipPath id="_clip145">
        <path d="M0,0L0,308L277,308L277,0L0,0ZM232.173,178.716L225.874,181.802L229.15,188.605L235.512,185.519L228.772,184.637L232.173,178.716Z"/>
    </clipPath>
    <g clip-path="url(#_clip145)">
        <path d="M272.865,163.346L228.394,184.826" style="fill:none;stroke-width:0.47px;stroke:black;"/>
    </g>
    <path d="M232.173,178.716L228.772,184.637L235.512,185.519" style="fill:none;stroke-width:0.47px;stroke-linejoin:miter;stroke:black;"/>
    <path d="M212.016,185.708L209.371,190.243" style="fill:none;stroke-width:0.47px;stroke:rgb(144,144,144);"/>
    <path d="M190.6,247.879L196.269,250.65" style="fill:none;stroke-width:0.47px;stroke:rgb(144,144,144);"/>
    <clipPath id="_clip146">
        <path d="M0,0L0,308L277,308L277,0L0,0ZM160.616,52.421L154.444,55.822L158.16,62.436L164.27,59.035L157.53,58.531L160.616,52.421Z"/>
    </clipPath>
    <g clip-path="url(#_clip146)">
        <path d="M200.426,34.658L157.152,58.72" style="fill:none;stroke-width:0.47px;stroke:black;"/>
    </g>
    <path d="M160.616,52.421L157.53,58.531L164.27,59.035" style="fill:none;stroke-width:0.47px;stroke-linejoin:miter;stroke:black;"/>
    <clipPath id="_clip147">
        <path d="M0,0L0,308L277,308L277,0L0,0ZM197.781,205.487L197.97,198.432L190.411,198.243L190.222,205.298L194.19,199.755L197.781,205.487Z"/>
    </clipPath>
    <g clip-path="url(#_clip147)">
        <path d="M193.561,223.25L194.19,199.314" style="fill:none;stroke-width:0.47px;stroke:black;"/>
    </g>
    <path d="M197.781,205.487L194.19,199.755L190.222,205.298" style="fill:none;stroke-width:0.47px;stroke-linejoin:miter;stroke:black;"/>
    <path d="M245.275,170.275L250.125,174.307" style="fill:none;stroke-width:0.47px;stroke:rgb(144,144,144);"/>
    <clipPath id="_clip148">
        <path d="M0,0L0,308L277,308L277,0L0,0ZM219.008,186.842L225.559,184.133L222.662,177.141L216.111,179.913L222.851,181.236L219.008,186.842Z"/>
    </clipPath>
    <g clip-path="url(#_clip148)">
        <path d="M200.363,190.558L223.292,181.046" style="fill:none;stroke-width:0.47px;stroke:black;"/>
    </g>
    <path d="M219.008,186.842L222.851,181.236L216.111,179.913" style="fill:none;stroke-width:0.47px;stroke-linejoin:miter;stroke:black;"/>
    <clipPath id="_clip149">
        <path d="M0,0L0,308L277,308L277,0L0,0ZM196.521,229.738L197.403,222.746L189.907,221.801L189.025,228.856L193.497,223.691L196.521,229.738Z"/>
    </clipPath>
    <g clip-path="url(#_clip149)">
        <path d="M187.513,273.453L193.561,223.25" style="fill:none;stroke-width:0.47px;stroke:black;"/>
    </g>
    <path d="M196.521,229.738L193.497,223.691L189.025,228.856" style="fill:none;stroke-width:0.47px;stroke-linejoin:miter;stroke:black;"/>
    <clipPath id="_clip150">
        <path d="M0,0L0,308L277,308L277,0L0,0ZM264.424,165.047L270.723,161.961L267.448,155.158L261.086,158.244L267.889,159.189L264.424,165.047Z"/>
    </clipPath>
    <g clip-path="url(#_clip150)">
        <path d="M223.292,181.046L268.266,159" style="fill:none;stroke-width:0.47px;stroke:black;"/>
    </g>
    <path d="M264.424,165.047L267.889,159.189L261.086,158.244" style="fill:none;stroke-width:0.47px;stroke-linejoin:miter;stroke:black;"/>
    <path d="M24.054,159.819L26.826,152.008" style="fill:none;stroke-width:0.47px;stroke:rgb(144,144,144);"/>
    <clipPath id="_clip151">
        <path d="M0,0L0,308L277,308L277,0L0,0ZM40.117,179.283L45.408,184.007L50.447,178.401L45.219,173.677L46.92,180.291L40.117,179.283Z"/>
    </clipPath>
    <g clip-path="url(#_clip151)">
        <path d="M3.771,141.552L47.235,180.605" style="fill:none;stroke-width:0.47px;stroke:black;"/>
    </g>
    <path d="M40.117,179.283L46.92,180.291L45.219,173.677" style="fill:none;stroke-width:0.47px;stroke-linejoin:miter;stroke:black;"/>
    <path d="M95.233,35.288L88.808,40.705" style="fill:none;stroke-width:0.47px;stroke:rgb(144,144,144);"/>
    <clipPath id="_clip152">
        <path d="M0,0L0,308L277,308L277,0L0,0ZM13.346,135.316L8.055,130.655L3.079,136.387L8.37,141.048L6.606,134.497L13.346,135.316Z"/>
    </clipPath>
    <g clip-path="url(#_clip152)">
        <path d="M50.258,172.354L6.291,134.182" style="fill:none;stroke-width:0.47px;stroke:black;"/>
    </g>
    <path d="M13.346,135.316L6.606,134.497L8.37,141.048" style="fill:none;stroke-width:0.47px;stroke-linejoin:miter;stroke:black;"/>
    <clipPath id="_clip153">
        <path d="M0,0L0,308L277,308L277,0L0,0ZM79.297,20.863L73.25,17.209L69.281,23.509L75.265,27.288L72.494,21.115L79.297,20.863Z"/>
    </clipPath>
    <g clip-path="url(#_clip153)">
        <path d="M121.563,51.665L72.116,20.863" style="fill:none;stroke-width:0.47px;stroke:black;"/>
    </g>
    <path d="M79.297,20.863L72.494,21.115L75.265,27.288" style="fill:none;stroke-width:0.47px;stroke-linejoin:miter;stroke:black;"/>
    <clipPath id="_clip154">
        <path d="M0,0L0,308L277,308L277,0L0,0ZM107.579,57.397L113.5,61.239L117.657,54.878L111.736,51.035L114.445,57.334L107.579,57.397Z"/>
    </clipPath>
    <g clip-path="url(#_clip154)">
        <path d="M66.006,25.902L114.823,57.586" style="fill:none;stroke-width:0.47px;stroke:black;"/>
    </g>
    <path d="M107.579,57.397L114.445,57.334L111.736,51.035" style="fill:none;stroke-width:0.47px;stroke-linejoin:miter;stroke:black;"/>
    <path d="M61.345,183.692L56.872,173.677" style="fill:none;stroke-width:0.47px;stroke:rgb(144,144,144);"/>
    <clipPath id="_clip155">
        <path d="M0,0L0,308L277,308L277,0L0,0ZM48.683,248.761L49.25,255.816L56.746,255.249L56.179,248.194L52.904,254.178L48.683,248.761Z"/>
    </clipPath>
    <g clip-path="url(#_clip155)">
        <path d="M47.235,180.605L52.967,254.619" style="fill:none;stroke-width:0.47px;stroke:black;"/>
    </g>
    <path d="M48.683,248.761L52.904,254.178L56.179,248.194" style="fill:none;stroke-width:0.47px;stroke-linejoin:miter;stroke:black;"/>
    <clipPath id="_clip156">
        <path d="M0,0L0,308L277,308L277,0L0,0ZM56.998,169.771L50.069,168.448L48.557,175.818L55.486,177.204L50.699,172.417L56.998,169.771Z"/>
    </clipPath>
    <g clip-path="url(#_clip156)">
        <path d="M62.793,174.873L50.258,172.354" style="fill:none;stroke-width:0.47px;stroke:black;"/>
    </g>
    <path d="M56.998,169.771L50.699,172.417L55.486,177.204" style="fill:none;stroke-width:0.47px;stroke-linejoin:miter;stroke:black;"/>
    <path d="M57.628,222.053L50.195,219.47" style="fill:none;stroke-width:0.47px;stroke:rgb(144,144,144);"/>
    <path d="M130.255,62.688L119.358,61.87" style="fill:none;stroke-width:0.47px;stroke:rgb(144,144,144);"/>
    <clipPath id="_clip157">
        <path d="M0,0L0,308L277,308L277,0L0,0ZM60.463,187.409L67.517,188.227L68.336,180.732L61.345,179.913L66.573,184.322L60.463,187.409Z"/>
    </clipPath>
    <g clip-path="url(#_clip157)">
        <path d="M54.982,182.999L67.013,184.385" style="fill:none;stroke-width:0.47px;stroke:black;"/>
    </g>
    <path d="M60.463,187.409L66.573,184.322L61.345,179.913" style="fill:none;stroke-width:0.47px;stroke-linejoin:miter;stroke:black;"/>
    <clipPath id="_clip158">
        <path d="M0,0L0,308L277,308L277,0L0,0ZM116.335,64.2L121.437,69.05L126.665,63.57L121.5,58.72L123.075,65.397L116.335,64.2Z"/>
    </clipPath>
    <g clip-path="url(#_clip158)">
        <path d="M114.823,57.586L123.389,65.712" style="fill:none;stroke-width:0.47px;stroke:black;"/>
    </g>
    <path d="M116.335,64.2L123.075,65.397L121.5,58.72" style="fill:none;stroke-width:0.47px;stroke-linejoin:miter;stroke:black;"/>
    <clipPath id="_clip159">
        <path d="M0,0L0,308L277,308L277,0L0,0ZM59.077,188.794L58.636,181.802L51.14,182.306L51.581,189.298L54.982,183.44L59.077,188.794Z"/>
    </clipPath>
    <g clip-path="url(#_clip159)">
        <path d="M59.959,257.265L54.982,182.999" style="fill:none;stroke-width:0.47px;stroke:black;"/>
    </g>
    <path d="M59.077,188.794L54.982,183.44L51.581,189.298" style="fill:none;stroke-width:0.47px;stroke-linejoin:miter;stroke:black;"/>
    <clipPath id="_clip160">
        <path d="M0,0L0,308L277,308L277,0L0,0ZM133.279,60.295L128.492,55.13L122.886,60.232L127.673,65.397L126.665,58.72L133.279,60.295Z"/>
    </clipPath>
    <g clip-path="url(#_clip160)">
        <path d="M133.783,66.531L126.35,58.405" style="fill:none;stroke-width:0.47px;stroke:black;"/>
    </g>
    <path d="M133.279,60.295L126.665,58.72L127.673,65.397" style="fill:none;stroke-width:0.47px;stroke-linejoin:miter;stroke:black;"/>
    <clipPath id="_clip161">
        <path d="M0,0L0,308L277,308L277,0L0,0ZM126.287,46.248L119.484,48.327L121.752,55.507L128.492,53.429L122.004,51.539L126.287,46.248Z"/>
    </clipPath>
    <g clip-path="url(#_clip161)">
        <path d="M195.576,28.674L121.563,51.665" style="fill:none;stroke-width:0.47px;stroke:black;"/>
    </g>
    <path d="M126.287,46.248L122.004,51.539L128.492,53.429" style="fill:none;stroke-width:0.47px;stroke-linejoin:miter;stroke:black;"/>
    <path d="M160.364,39.634L165.152,45.933" style="fill:none;stroke-width:0.47px;stroke:rgb(144,144,144);"/>
    <clipPath id="_clip162">
        <path d="M0,0L0,308L277,308L277,0L0,0ZM195.702,40.075L202.442,37.933L200.111,30.752L193.371,32.894L199.986,34.784L195.702,40.075Z"/>
    </clipPath>
    <g clip-path="url(#_clip162)">
        <path d="M126.35,58.405L200.426,34.658" style="fill:none;stroke-width:0.47px;stroke:black;"/>
    </g>
    <path d="M195.702,40.075L199.986,34.784L193.371,32.894" style="fill:none;stroke-width:0.47px;stroke-linejoin:miter;stroke:black;"/>
    <path d="M198.221,189.739L191.734,198.936" style="fill:none;stroke-width:0.47px;stroke:rgb(144,144,144);"/>
    <path d="M196.962,237.045L188.143,237.927" style="fill:none;stroke-width:0.47px;stroke:rgb(144,144,144);"/>
    <clipPath id="_clip163">
        <path d="M0,0L0,308L277,308L277,0L0,0ZM195.576,195.66L188.584,194.589L187.388,202.022L194.379,203.156L189.403,198.558L195.576,195.66Z"/>
    </clipPath>
    <g clip-path="url(#_clip163)">
        <path d="M194.19,199.314L188.962,198.495" style="fill:none;stroke-width:0.47px;stroke:black;"/>
    </g>
    <path d="M195.576,195.66L189.403,198.558L194.379,203.156" style="fill:none;stroke-width:0.47px;stroke-linejoin:miter;stroke:black;"/>
    <clipPath id="_clip164">
        <path d="M0,0L0,308L277,308L277,0L0,0ZM193.245,191.755L199.796,194.4L202.631,187.346L196.017,184.763L199.922,190.369L193.245,191.755Z"/>
    </clipPath>
    <g clip-path="url(#_clip164)">
        <path d="M195.765,188.731L200.363,190.558" style="fill:none;stroke-width:0.47px;stroke:black;"/>
    </g>
    <path d="M193.245,191.755L199.922,190.369L196.017,184.763" style="fill:none;stroke-width:0.47px;stroke-linejoin:miter;stroke:black;"/>
    <clipPath id="_clip165">
        <path d="M0,0L0,308L277,308L277,0L0,0ZM201.749,203.849L201.938,196.794L194.379,196.605L194.19,203.66L198.159,198.117L201.749,203.849Z"/>
    </clipPath>
    <g clip-path="url(#_clip165)">
        <path d="M195.828,272.445L198.159,197.676" style="fill:none;stroke-width:0.47px;stroke:black;"/>
    </g>
    <path d="M201.749,203.849L198.159,198.117L194.19,203.66" style="fill:none;stroke-width:0.47px;stroke-linejoin:miter;stroke:black;"/>
    <clipPath id="_clip166">
        <path d="M0,0L0,308L277,308L277,0L0,0ZM183.797,267.217L183.671,274.272L191.23,274.461L191.356,267.406L187.513,273.012L183.797,267.217Z"/>
    </clipPath>
    <g clip-path="url(#_clip166)">
        <path d="M188.962,198.495L187.513,273.453" style="fill:none;stroke-width:0.47px;stroke:black;"/>
    </g>
    <path d="M183.797,267.217L187.513,273.012L191.356,267.406" style="fill:none;stroke-width:0.47px;stroke-linejoin:miter;stroke:black;"/>
    <path d="M235.953,181.677L233.811,173.173" style="fill:none;stroke-width:0.47px;stroke:rgb(144,144,144);"/>
    <clipPath id="_clip167">
        <path d="M0,0L0,308L277,308L277,0L0,0ZM265.999,173.047L272.55,170.275L269.589,163.283L263.038,166.055L269.778,167.378L265.999,173.047Z"/>
    </clipPath>
    <g clip-path="url(#_clip167)">
        <path d="M198.159,197.676L270.219,167.189" style="fill:none;stroke-width:0.47px;stroke:black;"/>
    </g>
    <path d="M265.999,173.047L269.778,167.378L263.038,166.055" style="fill:none;stroke-width:0.47px;stroke-linejoin:miter;stroke:black;"/>
    <clipPath id="_clip168">
        <path d="M0,0L0,308L277,308L277,0L0,0ZM199.986,182.873L193.434,185.582L196.269,192.574L202.883,189.865L196.206,188.542L199.986,182.873Z"/>
    </clipPath>
    <g clip-path="url(#_clip168)">
        <path d="M268.266,159L195.765,188.731" style="fill:none;stroke-width:0.47px;stroke:black;"/>
    </g>
    <path d="M199.986,182.873L196.206,188.542L202.883,189.865" style="fill:none;stroke-width:0.47px;stroke-linejoin:miter;stroke:black;"/>
</svg>
