<?xml version="1.0" standalone="no"?>
<!DOCTYPE svg PUBLIC "-//W3C//DTD SVG 1.1//EN" "http://www.w3.org/Graphics/SVG/1.1/DTD/svg11.dtd">
<svg width="100%" height="100%" viewBox="0 0 316 270" version="1.1" xmlns="http://www.w3.org/2000/svg" xmlns:xlink="http://www.w3.org/1999/xlink" xml:space="preserve" style="fill-rule:evenodd;clip-rule:evenodd;stroke-linecap:round;stroke-linejoin:round;stroke-miterlimit:10;">
    <rect x="-58.5" y="-248.5" width="1118" height="783" style="fill:white;fill-rule:nonzero;"/>
    <path d="M14,13L302,13L203,49L185,121L77,148L14,256L14,13Z" style="fill:rgb(205,207,2);fill-opacity:0.501961;fill-rule:nonzero;"/>
    <path d="M302,13L221,67L194,130L95,175L14,256L302,256L302,13Z" style="fill:rgb(1,0,202);fill-opacity:0.509804;fill-rule:nonzero;"/>
    <path d="M302.5,13.5L203.5,49.5L185.5,121.5L77.5,148.5L14.5,256.5" style="fill:none;stroke-width:1px;stroke:black;"/>
    <path d="M14.5,256.5L95.5,175.5L194.5,130.5L221.5,67.5L302.5,13.5" style="fill:none;stroke-width:1px;stroke:black;"/>
    <path d="M305.182,10.318C306.939,12.075 306.939,14.925 305.182,16.682C303.425,18.439 300.575,18.439 298.818,16.682C297.061,14.925 297.061,12.075 298.818,10.318C300.575,8.561 303.425,8.561 305.182,10.318" style="fill:black;fill-rule:nonzero;"/>
    <path d="M206.624,45.657C208.381,47.414 208.381,50.264 206.624,52.021C204.867,53.778 202.017,53.778 200.26,52.021C198.503,50.264 198.503,47.414 200.26,45.657C202.017,43.9 204.867,43.9 206.624,45.657" style="fill:black;fill-rule:nonzero;"/>
    <path d="M187.682,118.818C189.439,120.575 189.439,123.425 187.682,125.182C185.925,126.939 183.075,126.939 181.318,125.182C179.561,123.425 179.561,120.575 181.318,118.818C183.075,117.061 185.925,117.061 187.682,118.818" style="fill:black;fill-rule:nonzero;"/>
    <path d="M79.71,145.626C81.467,147.383 81.467,150.233 79.71,151.99C77.953,153.747 75.103,153.747 73.346,151.99C71.589,150.233 71.589,147.383 73.346,145.626C75.103,143.869 77.953,143.869 79.71,145.626" style="fill:black;fill-rule:nonzero;"/>
    <path d="M16.682,252.818C18.439,254.575 18.439,257.425 16.682,259.182C14.925,260.939 12.075,260.939 10.318,259.182C8.561,257.425 8.561,254.575 10.318,252.818C12.075,251.061 14.925,251.061 16.682,252.818" style="fill:black;fill-rule:nonzero;"/>
    <path d="M98.689,171.587C100.446,173.344 100.446,176.194 98.689,177.951C96.932,179.708 94.082,179.708 92.325,177.951C90.568,176.194 90.568,173.344 92.325,171.587C94.082,169.83 96.932,169.83 98.689,171.587" style="fill:black;fill-rule:nonzero;"/>
    <path d="M196.682,126.818C198.439,128.575 198.439,131.425 196.682,133.182C194.925,134.939 192.075,134.939 190.318,133.182C188.561,131.425 188.561,128.575 190.318,126.818C192.075,125.061 194.925,125.061 196.682,126.818" style="fill:black;fill-rule:nonzero;"/>
    <path d="M225.419,62.993C227.176,64.75 227.176,67.6 225.419,69.357C223.662,71.114 220.812,71.114 219.055,69.357C217.298,67.6 217.298,64.75 219.055,62.993C220.812,61.236 223.662,61.236 225.419,62.993" style="fill:black;fill-rule:nonzero;"/>
    <path d="M94.375,138.817L113.375,166.817" style="fill:none;stroke-width:1px;stroke:black;"/>
    <path d="M209.625,140.795L238.125,72.97" style="fill:none;stroke-width:1px;stroke:black;"/>
    <path d="M231.975,70.045L246.148,76.001" style="fill:none;stroke-width:1px;stroke:black;"/>
    <path d="M202.375,138.17L216.548,144.125" style="fill:none;stroke-width:1px;stroke:black;"/>
    <path d="M101.173,134L87,143.618" style="fill:none;stroke-width:1px;stroke:black;"/>
    <path d="M120.173,162.633L106,172.25" style="fill:none;stroke-width:1px;stroke:black;"/>
    <g>
        <path d="M48.473,85.238C48.167,84.158 47.213,83.69 46.295,83.69C45.197,83.69 44.225,84.266 43.613,84.644L42.785,85.148C42.767,84.212 42.749,83.87 42.173,83.87C41.741,83.87 40.067,84.122 39.437,84.302C39.257,84.356 39.185,84.518 39.185,84.662C39.185,84.824 39.275,84.986 39.437,84.986L39.815,84.986C41.093,84.986 41.129,86.264 41.129,88.19L41.129,88.856C41.129,89.882 41.075,90.692 41.039,91.124C40.967,92.024 40.787,92.24 39.527,92.42C39.329,92.456 39.239,92.618 39.239,92.78C39.239,92.924 39.311,93.068 39.473,93.068L44.207,93.068C44.369,93.068 44.441,92.924 44.441,92.78C44.441,92.618 44.351,92.438 44.153,92.402C42.965,92.222 42.767,92.096 42.767,91.124L42.767,86.102C43.955,85.472 44.477,85.094 45.377,85.094C46.061,85.094 46.799,85.31 46.799,86.732L46.799,88.568C46.799,92.222 46.709,92.24 45.449,92.42C45.251,92.456 45.161,92.618 45.161,92.78C45.161,92.924 45.233,93.068 45.395,93.068L50.021,93.068C50.183,93.068 50.255,92.924 50.255,92.78C50.255,92.618 50.165,92.438 49.967,92.402C48.779,92.222 48.581,92.096 48.581,91.124L48.581,86.102C49.769,85.472 50.291,85.094 51.191,85.094C51.875,85.094 52.613,85.31 52.613,86.732L52.613,88.568C52.613,92.222 52.523,92.24 51.263,92.42C51.065,92.456 50.975,92.618 50.975,92.78C50.975,92.924 51.047,93.068 51.209,93.068L55.835,93.068C55.997,93.068 56.069,92.924 56.069,92.78C56.069,92.618 55.979,92.438 55.781,92.402C54.593,92.222 54.395,92.096 54.395,91.124L54.395,86.066C54.395,84.392 53.243,83.69 52.109,83.69C51.011,83.69 50.039,84.266 49.427,84.644L48.473,85.238Z" style="fill:black;fill-rule:nonzero;"/>
        <path d="M60.569,84.626C60.569,84.086 60.317,83.87 59.975,83.87C59.543,83.87 57.797,84.122 57.167,84.302C56.987,84.356 56.915,84.518 56.915,84.662C56.915,84.824 57.005,84.986 57.167,84.986L57.545,84.986C58.823,84.986 58.859,86.264 58.859,88.19L58.859,88.856C58.859,89.882 58.805,90.692 58.769,91.124C58.697,92.024 58.517,92.24 57.257,92.42C57.059,92.456 56.969,92.618 56.969,92.78C56.969,92.924 57.041,93.068 57.203,93.068L62.009,93.068C62.171,93.068 62.243,92.924 62.243,92.78C62.243,92.618 62.153,92.456 61.955,92.42C60.767,92.24 60.713,92.042 60.587,91.124C60.533,90.692 60.497,89.882 60.497,88.856L60.497,88.19C60.497,86.264 60.569,85.166 60.569,84.626ZM58.193,80.54C58.193,81.206 58.751,81.764 59.417,81.764C60.083,81.764 60.641,81.206 60.641,80.54C60.641,79.874 60.083,79.316 59.417,79.316C58.751,79.316 58.193,79.874 58.193,80.54Z" style="fill:black;fill-rule:nonzero;"/>
        <path d="M66.851,86.102C68.039,85.472 68.831,85.094 69.731,85.094C70.415,85.094 71.153,85.31 71.153,86.732L71.153,88.568C71.153,92.222 70.883,92.24 69.623,92.42C69.425,92.456 69.335,92.618 69.335,92.78C69.335,92.924 69.407,93.068 69.569,93.068L74.375,93.068C74.537,93.068 74.609,92.924 74.609,92.78C74.609,92.618 74.519,92.438 74.321,92.402C73.133,92.222 72.935,92.096 72.935,91.124L72.935,86.066C72.935,84.392 71.819,83.69 70.487,83.69C69.353,83.69 68.345,84.302 67.733,84.662L66.869,85.148C66.851,84.212 66.833,83.87 66.257,83.87C65.825,83.87 64.151,84.122 63.521,84.302C63.341,84.356 63.269,84.518 63.269,84.662C63.269,84.824 63.359,84.986 63.521,84.986L63.899,84.986C65.177,84.986 65.213,86.264 65.213,88.19L65.213,88.856C65.213,89.882 65.159,90.692 65.123,91.124C65.051,92.024 64.871,92.24 63.611,92.42C63.413,92.456 63.323,92.618 63.323,92.78C63.323,92.924 63.395,93.068 63.557,93.068L68.291,93.068C68.453,93.068 68.525,92.924 68.525,92.78C68.525,92.618 68.435,92.438 68.237,92.402C67.049,92.222 66.851,92.096 66.851,91.124L66.851,86.102Z" style="fill:black;fill-rule:nonzero;"/>
        <path d="M79.127,84.626C79.127,84.086 78.875,83.87 78.533,83.87C78.101,83.87 76.355,84.122 75.725,84.302C75.545,84.356 75.473,84.518 75.473,84.662C75.473,84.824 75.563,84.986 75.725,84.986L76.103,84.986C77.381,84.986 77.417,86.264 77.417,88.19L77.417,88.856C77.417,89.882 77.363,90.692 77.327,91.124C77.255,92.024 77.075,92.24 75.815,92.42C75.617,92.456 75.527,92.618 75.527,92.78C75.527,92.924 75.599,93.068 75.761,93.068L80.567,93.068C80.729,93.068 80.801,92.924 80.801,92.78C80.801,92.618 80.711,92.456 80.513,92.42C79.325,92.24 79.271,92.042 79.145,91.124C79.091,90.692 79.055,89.882 79.055,88.856L79.055,88.19C79.055,86.264 79.127,85.166 79.127,84.626ZM76.751,80.54C76.751,81.206 77.309,81.764 77.975,81.764C78.641,81.764 79.199,81.206 79.199,80.54C79.199,79.874 78.641,79.316 77.975,79.316C77.309,79.316 76.751,79.874 76.751,80.54Z" style="fill:black;fill-rule:nonzero;"/>
        <path d="M91.115,85.238C90.809,84.158 89.855,83.69 88.937,83.69C87.839,83.69 86.867,84.266 86.255,84.644L85.427,85.148C85.409,84.212 85.391,83.87 84.815,83.87C84.383,83.87 82.709,84.122 82.079,84.302C81.899,84.356 81.827,84.518 81.827,84.662C81.827,84.824 81.917,84.986 82.079,84.986L82.457,84.986C83.735,84.986 83.771,86.264 83.771,88.19L83.771,88.856C83.771,89.882 83.717,90.692 83.681,91.124C83.609,92.024 83.429,92.24 82.169,92.42C81.971,92.456 81.881,92.618 81.881,92.78C81.881,92.924 81.953,93.068 82.115,93.068L86.849,93.068C87.011,93.068 87.083,92.924 87.083,92.78C87.083,92.618 86.993,92.438 86.795,92.402C85.607,92.222 85.409,92.096 85.409,91.124L85.409,86.102C86.597,85.472 87.119,85.094 88.019,85.094C88.703,85.094 89.441,85.31 89.441,86.732L89.441,88.568C89.441,92.222 89.351,92.24 88.091,92.42C87.893,92.456 87.803,92.618 87.803,92.78C87.803,92.924 87.875,93.068 88.037,93.068L92.663,93.068C92.825,93.068 92.897,92.924 92.897,92.78C92.897,92.618 92.807,92.438 92.609,92.402C91.421,92.222 91.223,92.096 91.223,91.124L91.223,86.102C92.411,85.472 92.933,85.094 93.833,85.094C94.517,85.094 95.255,85.31 95.255,86.732L95.255,88.568C95.255,92.222 95.165,92.24 93.905,92.42C93.707,92.456 93.617,92.618 93.617,92.78C93.617,92.924 93.689,93.068 93.851,93.068L98.477,93.068C98.639,93.068 98.711,92.924 98.711,92.78C98.711,92.618 98.621,92.438 98.423,92.402C97.235,92.222 97.037,92.096 97.037,91.124L97.037,86.066C97.037,84.392 95.885,83.69 94.751,83.69C93.653,83.69 92.681,84.266 92.069,84.644L91.115,85.238Z" style="fill:black;fill-rule:nonzero;"/>
        <path d="M100.925,90.692C100.925,92.186 101.735,93.248 103.301,93.248C104.219,93.248 105.389,92.906 106.721,92.15C106.919,92.654 107.333,93.248 108.089,93.248C108.755,93.248 110.105,92.69 110.105,92.204C110.105,92.024 109.997,91.97 109.853,91.97C109.619,91.97 109.421,92.114 109.079,92.114C108.359,92.114 108.323,90.476 108.323,89.126L108.323,88.19C108.323,86.264 108.395,85.166 108.395,84.626C108.395,84.086 108.143,83.87 107.801,83.87C107.369,83.87 105.569,84.122 104.939,84.302C104.759,84.356 104.687,84.518 104.687,84.662C104.687,84.824 104.777,84.986 104.939,84.986L105.317,84.986C106.595,84.986 106.685,85.742 106.685,87.668L106.685,88.586C106.685,89.612 106.649,90.89 106.613,91.322C105.785,91.754 104.975,92.006 104.021,92.006C102.959,92.006 102.563,91.106 102.563,89.468L102.563,88.19C102.563,86.264 102.635,85.166 102.635,84.626C102.635,84.086 102.383,83.87 102.041,83.87C101.609,83.87 99.863,84.122 99.233,84.302C99.053,84.356 98.981,84.518 98.981,84.662C98.981,84.824 99.071,84.986 99.233,84.986L99.611,84.986C100.889,84.986 100.925,86.264 100.925,88.19L100.925,90.692Z" style="fill:black;fill-rule:nonzero;"/>
        <path d="M120.347,85.238C120.041,84.158 119.087,83.69 118.169,83.69C117.071,83.69 116.099,84.266 115.487,84.644L114.659,85.148C114.641,84.212 114.623,83.87 114.047,83.87C113.615,83.87 111.941,84.122 111.311,84.302C111.131,84.356 111.059,84.518 111.059,84.662C111.059,84.824 111.149,84.986 111.311,84.986L111.689,84.986C112.967,84.986 113.003,86.264 113.003,88.19L113.003,88.856C113.003,89.882 112.949,90.692 112.913,91.124C112.841,92.024 112.661,92.24 111.401,92.42C111.203,92.456 111.113,92.618 111.113,92.78C111.113,92.924 111.185,93.068 111.347,93.068L116.081,93.068C116.243,93.068 116.315,92.924 116.315,92.78C116.315,92.618 116.225,92.438 116.027,92.402C114.839,92.222 114.641,92.096 114.641,91.124L114.641,86.102C115.829,85.472 116.351,85.094 117.251,85.094C117.935,85.094 118.673,85.31 118.673,86.732L118.673,88.568C118.673,92.222 118.583,92.24 117.323,92.42C117.125,92.456 117.035,92.618 117.035,92.78C117.035,92.924 117.107,93.068 117.269,93.068L121.895,93.068C122.057,93.068 122.129,92.924 122.129,92.78C122.129,92.618 122.039,92.438 121.841,92.402C120.653,92.222 120.455,92.096 120.455,91.124L120.455,86.102C121.643,85.472 122.165,85.094 123.065,85.094C123.749,85.094 124.487,85.31 124.487,86.732L124.487,88.568C124.487,92.222 124.397,92.24 123.137,92.42C122.939,92.456 122.849,92.618 122.849,92.78C122.849,92.924 122.921,93.068 123.083,93.068L127.709,93.068C127.871,93.068 127.943,92.924 127.943,92.78C127.943,92.618 127.853,92.438 127.655,92.402C126.467,92.222 126.269,92.096 126.269,91.124L126.269,86.066C126.269,84.392 125.117,83.69 123.983,83.69C122.885,83.69 121.913,84.266 121.301,84.644L120.347,85.238Z" style="fill:black;fill-rule:nonzero;"/>
        <path d="M45.053,117.806L47.249,117.806C47.663,117.806 47.825,117.464 47.825,117.23C47.825,116.978 47.645,116.726 47.303,116.726C46.889,116.726 45.773,116.816 45.053,116.852L45.053,114.872C45.053,114.62 44.963,114.512 44.819,114.512C44.495,114.512 44.369,114.872 43.379,115.97C42.479,116.978 41.903,117.176 41.903,117.482C41.903,117.662 42.029,117.752 42.281,117.752L43.343,117.752C43.343,119.228 43.235,122.522 43.235,124.106C43.235,125.564 44.135,126.248 45.269,126.248C46.637,126.248 48.041,125.186 48.041,124.79C48.041,124.664 47.969,124.628 47.861,124.628C47.609,124.628 47.159,124.898 46.403,124.898C45.593,124.898 45.053,124.52 45.053,123.548L45.053,117.806Z" style="fill:black;fill-rule:nonzero;"/>
        <path d="M50.201,121.856C50.201,122.882 50.183,123.692 50.147,124.124C50.075,125.024 49.895,125.24 48.635,125.42C48.437,125.456 48.347,125.618 48.347,125.78C48.347,125.924 48.419,126.068 48.581,126.068L53.315,126.068C53.477,126.068 53.549,125.924 53.549,125.78C53.549,125.618 53.459,125.438 53.261,125.402C52.073,125.222 51.875,125.096 51.875,124.124L51.875,119.102C53.063,118.472 53.855,118.094 54.755,118.094C55.439,118.094 56.177,118.31 56.177,119.732L56.177,121.568C56.177,125.222 55.907,125.24 54.647,125.42C54.449,125.456 54.359,125.618 54.359,125.78C54.359,125.924 54.431,126.068 54.593,126.068L59.399,126.068C59.561,126.068 59.633,125.924 59.633,125.78C59.633,125.618 59.543,125.438 59.345,125.402C58.157,125.222 57.959,125.096 57.959,124.124L57.959,119.066C57.959,117.392 56.789,116.69 55.511,116.69C54.377,116.69 53.369,117.302 52.757,117.662L51.875,118.148L51.875,115.628C51.875,113.702 51.947,112.604 51.947,112.064C51.947,111.524 51.695,111.308 51.353,111.308C50.921,111.308 49.085,111.758 48.455,111.938C48.275,111.992 48.203,112.136 48.203,112.28C48.203,112.424 48.293,112.568 48.491,112.568L49.301,112.568C50.201,112.568 50.201,113.702 50.201,115.628L50.201,121.856Z" style="fill:black;fill-rule:nonzero;"/>
        <path d="M64.097,119.372C64.097,118.076 63.863,116.87 63.287,116.87C62.855,116.87 61.361,117.122 60.731,117.302C60.551,117.356 60.479,117.518 60.479,117.662C60.479,117.824 60.569,117.986 60.821,117.986L61.109,117.986C62.387,117.986 62.477,118.868 62.477,120.794L62.477,121.856C62.477,122.882 62.423,123.692 62.387,124.124C62.315,125.024 62.135,125.24 60.875,125.42C60.677,125.456 60.587,125.618 60.587,125.78C60.587,125.924 60.659,126.068 60.875,126.068L66.077,126.068C66.311,126.068 66.383,125.924 66.383,125.78C66.383,125.618 66.293,125.456 66.095,125.42C64.907,125.24 64.277,125.042 64.151,124.124C64.097,123.692 64.061,123.278 64.061,121.424C64.061,119.732 65.231,118.508 66.023,118.508C66.527,118.508 66.761,118.85 66.869,119.12C67.121,119.12 68.021,118.886 68.021,118.004C68.021,117.122 67.427,116.69 66.653,116.69C65.825,116.69 64.907,117.212 64.097,119.372Z" style="fill:black;fill-rule:nonzero;"/>
        <path d="M73.205,117.608C74.087,117.608 74.807,118.112 74.807,119.498C74.807,119.786 74.573,120.038 74.069,120.074L70.721,120.272C70.919,118.76 71.909,117.608 73.205,117.608ZM76.715,123.71C76.715,123.53 76.661,123.404 76.481,123.404C76.067,123.404 75.761,124.772 73.583,124.772C71.999,124.772 70.649,123.836 70.649,121.118L75.599,120.974C76.121,120.956 76.607,120.686 76.607,120.128C76.607,117.446 74.789,116.69 73.511,116.69C70.703,116.69 68.921,118.976 68.921,121.856C68.921,124.844 70.937,126.248 73.169,126.248C75.041,126.248 76.715,124.952 76.715,123.71Z" style="fill:black;fill-rule:nonzero;"/>
        <path d="M81.539,116.69C80.135,116.69 78.407,117.302 78.407,119.048C78.407,120.542 79.523,121.28 80.747,121.982C82.493,122.99 83.033,123.404 83.033,124.196C83.033,125.078 82.223,125.348 81.143,125.348C79.523,125.348 79.523,124.232 79.523,123.548C78.695,123.386 77.957,123.89 77.957,124.7C77.957,125.762 79.091,126.248 81.035,126.248C82.691,126.248 84.653,125.636 84.653,123.782C84.653,122.18 83.537,121.478 81.827,120.47C80.477,119.678 79.991,119.336 79.991,118.616C79.991,117.968 80.531,117.554 81.359,117.554C82.511,117.554 82.781,118.4 82.835,119.174C83.753,119.174 84.275,118.868 84.275,118.148C84.275,116.942 82.565,116.69 81.539,116.69Z" style="fill:black;fill-rule:nonzero;"/>
        <path d="M87.569,121.856C87.569,122.882 87.551,123.692 87.515,124.124C87.443,125.024 87.263,125.24 86.003,125.42C85.805,125.456 85.715,125.618 85.715,125.78C85.715,125.924 85.787,126.068 85.949,126.068L90.683,126.068C90.845,126.068 90.917,125.924 90.917,125.78C90.917,125.618 90.827,125.438 90.629,125.402C89.441,125.222 89.243,125.096 89.243,124.124L89.243,119.102C90.431,118.472 91.223,118.094 92.123,118.094C92.807,118.094 93.545,118.31 93.545,119.732L93.545,121.568C93.545,125.222 93.275,125.24 92.015,125.42C91.817,125.456 91.727,125.618 91.727,125.78C91.727,125.924 91.799,126.068 91.961,126.068L96.767,126.068C96.929,126.068 97.001,125.924 97.001,125.78C97.001,125.618 96.911,125.438 96.713,125.402C95.525,125.222 95.327,125.096 95.327,124.124L95.327,119.066C95.327,117.392 94.157,116.69 92.879,116.69C91.745,116.69 90.737,117.302 90.125,117.662L89.243,118.148L89.243,115.628C89.243,113.702 89.315,112.604 89.315,112.064C89.315,111.524 89.063,111.308 88.721,111.308C88.289,111.308 86.453,111.758 85.823,111.938C85.643,111.992 85.571,112.136 85.571,112.28C85.571,112.424 85.661,112.568 85.859,112.568L86.669,112.568C87.569,112.568 87.569,113.702 87.569,115.628L87.569,121.856Z" style="fill:black;fill-rule:nonzero;"/>
        <path d="M102.509,126.248C105.029,126.248 107.189,124.736 107.189,121.19C107.189,118.382 105.353,116.69 102.923,116.69C100.403,116.69 98.135,118.292 98.135,121.838C98.135,124.646 99.989,126.248 102.509,126.248ZM102.815,125.258C101.069,125.258 100.025,123.62 100.025,121.28C100.025,119.138 100.871,117.698 102.599,117.698C104.345,117.698 105.299,119.39 105.299,121.73C105.299,123.872 104.417,125.258 102.815,125.258Z" style="fill:black;fill-rule:nonzero;"/>
        <path d="M111.851,115.628C111.851,113.702 111.923,112.604 111.923,112.064C111.923,111.524 111.671,111.308 111.329,111.308C110.897,111.308 109.061,111.758 108.431,111.938C108.251,111.992 108.179,112.136 108.179,112.28C108.179,112.424 108.269,112.568 108.467,112.568L109.277,112.568C110.177,112.568 110.177,113.702 110.177,115.628L110.177,121.856C110.177,122.882 110.123,123.692 110.087,124.124C110.015,125.024 109.835,125.222 108.575,125.42C108.377,125.456 108.287,125.618 108.287,125.78C108.287,125.924 108.359,126.068 108.521,126.068L113.363,126.068C113.525,126.068 113.597,125.924 113.597,125.78C113.597,125.618 113.507,125.456 113.309,125.42C112.121,125.222 112.067,125.042 111.941,124.124C111.887,123.692 111.851,122.882 111.851,121.856L111.851,115.628Z" style="fill:black;fill-rule:nonzero;"/>
        <path d="M121.499,121.856C121.499,122.882 121.445,124.196 121.409,124.628C120.671,124.898 120.023,124.97 119.501,124.97C117.503,124.97 116.837,123.278 116.837,121.334C116.837,118.958 118.025,117.626 119.699,117.626C120.743,117.626 121.499,118.292 121.499,119.678L121.499,121.856ZM121.517,125.33C121.715,125.834 122.165,126.248 122.921,126.248C123.587,126.248 124.937,125.69 124.937,125.204C124.937,125.024 124.829,124.97 124.685,124.97C124.451,124.97 124.253,125.114 123.911,125.114C123.191,125.114 123.155,123.476 123.155,122.126L123.155,115.628C123.155,113.702 123.227,112.604 123.227,112.064C123.227,111.524 122.975,111.308 122.633,111.308C122.201,111.308 120.365,111.758 119.735,111.938C119.555,111.992 119.483,112.136 119.483,112.28C119.483,112.424 119.573,112.568 119.735,112.568L120.581,112.568C121.481,112.568 121.481,113.702 121.481,115.628L121.481,117.338C120.887,116.87 120.167,116.69 119.483,116.69C117.089,116.69 114.911,118.652 114.911,121.946C114.911,124.466 116.369,126.248 118.709,126.248C119.537,126.248 120.491,125.942 121.517,125.33Z" style="fill:black;fill-rule:nonzero;"/>
    </g>
    <g>
        <path d="M216.541,151.484C216.235,150.404 215.281,149.936 214.363,149.936C213.265,149.936 212.293,150.512 211.681,150.89L210.853,151.394C210.835,150.458 210.817,150.116 210.241,150.116C209.809,150.116 208.135,150.368 207.505,150.548C207.325,150.602 207.253,150.764 207.253,150.908C207.253,151.07 207.343,151.232 207.505,151.232L207.883,151.232C209.161,151.232 209.197,152.51 209.197,154.436L209.197,155.102C209.197,156.128 209.143,156.938 209.107,157.37C209.035,158.27 208.855,158.486 207.595,158.666C207.397,158.702 207.307,158.864 207.307,159.026C207.307,159.17 207.379,159.314 207.541,159.314L212.275,159.314C212.437,159.314 212.509,159.17 212.509,159.026C212.509,158.864 212.419,158.684 212.221,158.648C211.033,158.468 210.835,158.342 210.835,157.37L210.835,152.348C212.023,151.718 212.545,151.34 213.445,151.34C214.129,151.34 214.867,151.556 214.867,152.978L214.867,154.814C214.867,158.468 214.777,158.486 213.517,158.666C213.319,158.702 213.229,158.864 213.229,159.026C213.229,159.17 213.301,159.314 213.463,159.314L218.089,159.314C218.251,159.314 218.323,159.17 218.323,159.026C218.323,158.864 218.233,158.684 218.035,158.648C216.847,158.468 216.649,158.342 216.649,157.37L216.649,152.348C217.837,151.718 218.359,151.34 219.259,151.34C219.943,151.34 220.681,151.556 220.681,152.978L220.681,154.814C220.681,158.468 220.591,158.486 219.331,158.666C219.133,158.702 219.043,158.864 219.043,159.026C219.043,159.17 219.115,159.314 219.277,159.314L223.903,159.314C224.065,159.314 224.137,159.17 224.137,159.026C224.137,158.864 224.047,158.684 223.849,158.648C222.661,158.468 222.463,158.342 222.463,157.37L222.463,152.312C222.463,150.638 221.311,149.936 220.177,149.936C219.079,149.936 218.107,150.512 217.495,150.89L216.541,151.484Z" style="fill:black;fill-rule:nonzero;"/>
        <path d="M230.203,155.678C230.203,156.704 230.167,157.424 230.113,157.856C229.483,158.09 228.925,158.198 228.457,158.198C227.377,158.198 226.783,157.64 226.783,156.812C226.783,155.588 227.773,155.282 230.203,155.192L230.203,155.678ZM230.203,154.328C227.557,154.472 224.983,154.688 224.983,157.064C224.983,158.36 225.811,159.494 227.359,159.494C228.133,159.494 229.087,159.17 230.185,158.504C230.383,159.008 230.833,159.494 231.589,159.494C232.255,159.494 233.605,158.936 233.605,158.45C233.605,158.27 233.497,158.216 233.353,158.216C233.119,158.216 232.921,158.36 232.579,158.36C231.859,158.36 231.823,156.722 231.823,155.372C231.823,154.454 231.913,152.798 231.913,152.276C231.913,150.62 230.383,149.936 228.835,149.936C227.215,149.936 225.577,150.674 225.577,151.844C225.577,152.366 225.847,152.888 226.621,152.888C226.783,152.888 226.963,152.852 227.179,152.798C227.215,151.934 227.233,150.8 228.799,150.8C230.095,150.8 230.203,152.078 230.203,154.004L230.203,154.328Z" style="fill:black;fill-rule:nonzero;"/>
        <path d="M240.319,157.784C240.463,157.982 240.499,158.09 240.499,158.216C240.499,158.45 240.211,158.612 239.581,158.684C239.401,158.702 239.293,158.846 239.293,159.008C239.293,159.17 239.401,159.314 239.617,159.314L244.081,159.314C244.315,159.314 244.423,159.152 244.423,158.99C244.423,158.828 244.315,158.666 244.135,158.63C243.073,158.45 242.749,158.252 241.435,156.578L239.725,154.418L241.975,151.754C242.461,151.196 242.929,150.872 243.757,150.746C243.919,150.728 244.027,150.566 244.027,150.422C244.027,150.278 243.919,150.116 243.685,150.116L240.085,150.116C239.869,150.116 239.779,150.26 239.779,150.44C239.779,150.62 239.887,150.746 240.103,150.746C240.643,150.764 240.913,150.962 240.913,151.25C240.913,151.376 240.859,151.538 240.751,151.682L239.185,153.752L237.637,151.664C237.511,151.484 237.421,151.322 237.421,151.196C237.421,150.89 237.619,150.818 238.249,150.746C238.429,150.728 238.537,150.584 238.537,150.422C238.537,150.26 238.429,150.116 238.213,150.116L234.001,150.116C233.767,150.116 233.659,150.278 233.659,150.44C233.659,150.602 233.767,150.764 233.947,150.8C234.865,150.998 235.063,151.016 236.503,152.852L238.105,154.868L235.999,157.28C235.135,158.288 234.613,158.522 233.911,158.666C233.731,158.702 233.623,158.864 233.623,159.008C233.623,159.17 233.731,159.314 233.965,159.314L237.637,159.314C237.853,159.314 237.961,159.152 237.961,158.99C237.961,158.81 237.853,158.63 237.673,158.63C237.187,158.63 236.791,158.432 236.791,158.126C236.791,157.928 236.899,157.694 237.115,157.442L238.645,155.588L240.319,157.784Z" style="fill:black;fill-rule:nonzero;"/>
        <path d="M248.599,150.872C248.599,150.332 248.347,150.116 248.005,150.116C247.573,150.116 245.827,150.368 245.197,150.548C245.017,150.602 244.945,150.764 244.945,150.908C244.945,151.07 245.035,151.232 245.197,151.232L245.575,151.232C246.853,151.232 246.889,152.51 246.889,154.436L246.889,155.102C246.889,156.128 246.835,156.938 246.799,157.37C246.727,158.27 246.547,158.486 245.287,158.666C245.089,158.702 244.999,158.864 244.999,159.026C244.999,159.17 245.071,159.314 245.233,159.314L250.039,159.314C250.201,159.314 250.273,159.17 250.273,159.026C250.273,158.864 250.183,158.702 249.985,158.666C248.797,158.486 248.743,158.288 248.617,157.37C248.563,156.938 248.527,156.128 248.527,155.102L248.527,154.436C248.527,152.51 248.599,151.412 248.599,150.872ZM246.223,146.786C246.223,147.452 246.781,148.01 247.447,148.01C248.113,148.01 248.671,147.452 248.671,146.786C248.671,146.12 248.113,145.562 247.447,145.562C246.781,145.562 246.223,146.12 246.223,146.786Z" style="fill:black;fill-rule:nonzero;"/>
        <path d="M260.587,151.484C260.281,150.404 259.327,149.936 258.409,149.936C257.311,149.936 256.339,150.512 255.727,150.89L254.899,151.394C254.881,150.458 254.863,150.116 254.287,150.116C253.855,150.116 252.181,150.368 251.551,150.548C251.371,150.602 251.299,150.764 251.299,150.908C251.299,151.07 251.389,151.232 251.551,151.232L251.929,151.232C253.207,151.232 253.243,152.51 253.243,154.436L253.243,155.102C253.243,156.128 253.189,156.938 253.153,157.37C253.081,158.27 252.901,158.486 251.641,158.666C251.443,158.702 251.353,158.864 251.353,159.026C251.353,159.17 251.425,159.314 251.587,159.314L256.321,159.314C256.483,159.314 256.555,159.17 256.555,159.026C256.555,158.864 256.465,158.684 256.267,158.648C255.079,158.468 254.881,158.342 254.881,157.37L254.881,152.348C256.069,151.718 256.591,151.34 257.491,151.34C258.175,151.34 258.913,151.556 258.913,152.978L258.913,154.814C258.913,158.468 258.823,158.486 257.563,158.666C257.365,158.702 257.275,158.864 257.275,159.026C257.275,159.17 257.347,159.314 257.509,159.314L262.135,159.314C262.297,159.314 262.369,159.17 262.369,159.026C262.369,158.864 262.279,158.684 262.081,158.648C260.893,158.468 260.695,158.342 260.695,157.37L260.695,152.348C261.883,151.718 262.405,151.34 263.305,151.34C263.989,151.34 264.727,151.556 264.727,152.978L264.727,154.814C264.727,158.468 264.637,158.486 263.377,158.666C263.179,158.702 263.089,158.864 263.089,159.026C263.089,159.17 263.161,159.314 263.323,159.314L267.949,159.314C268.111,159.314 268.183,159.17 268.183,159.026C268.183,158.864 268.093,158.684 267.895,158.648C266.707,158.468 266.509,158.342 266.509,157.37L266.509,152.312C266.509,150.638 265.357,149.936 264.223,149.936C263.125,149.936 262.153,150.512 261.541,150.89L260.587,151.484Z" style="fill:black;fill-rule:nonzero;"/>
        <path d="M270.397,156.938C270.397,158.432 271.207,159.494 272.773,159.494C273.691,159.494 274.861,159.152 276.193,158.396C276.391,158.9 276.805,159.494 277.561,159.494C278.227,159.494 279.577,158.936 279.577,158.45C279.577,158.27 279.469,158.216 279.325,158.216C279.091,158.216 278.893,158.36 278.551,158.36C277.831,158.36 277.795,156.722 277.795,155.372L277.795,154.436C277.795,152.51 277.867,151.412 277.867,150.872C277.867,150.332 277.615,150.116 277.273,150.116C276.841,150.116 275.041,150.368 274.411,150.548C274.231,150.602 274.159,150.764 274.159,150.908C274.159,151.07 274.249,151.232 274.411,151.232L274.789,151.232C276.067,151.232 276.157,151.988 276.157,153.914L276.157,154.832C276.157,155.858 276.121,157.136 276.085,157.568C275.257,158 274.447,158.252 273.493,158.252C272.431,158.252 272.035,157.352 272.035,155.714L272.035,154.436C272.035,152.51 272.107,151.412 272.107,150.872C272.107,150.332 271.855,150.116 271.513,150.116C271.081,150.116 269.335,150.368 268.705,150.548C268.525,150.602 268.453,150.764 268.453,150.908C268.453,151.07 268.543,151.232 268.705,151.232L269.083,151.232C270.361,151.232 270.397,152.51 270.397,154.436L270.397,156.938Z" style="fill:black;fill-rule:nonzero;"/>
        <path d="M289.819,151.484C289.513,150.404 288.559,149.936 287.641,149.936C286.543,149.936 285.571,150.512 284.959,150.89L284.131,151.394C284.113,150.458 284.095,150.116 283.519,150.116C283.087,150.116 281.413,150.368 280.783,150.548C280.603,150.602 280.531,150.764 280.531,150.908C280.531,151.07 280.621,151.232 280.783,151.232L281.161,151.232C282.439,151.232 282.475,152.51 282.475,154.436L282.475,155.102C282.475,156.128 282.421,156.938 282.385,157.37C282.313,158.27 282.133,158.486 280.873,158.666C280.675,158.702 280.585,158.864 280.585,159.026C280.585,159.17 280.657,159.314 280.819,159.314L285.553,159.314C285.715,159.314 285.787,159.17 285.787,159.026C285.787,158.864 285.697,158.684 285.499,158.648C284.311,158.468 284.113,158.342 284.113,157.37L284.113,152.348C285.301,151.718 285.823,151.34 286.723,151.34C287.407,151.34 288.145,151.556 288.145,152.978L288.145,154.814C288.145,158.468 288.055,158.486 286.795,158.666C286.597,158.702 286.507,158.864 286.507,159.026C286.507,159.17 286.579,159.314 286.741,159.314L291.367,159.314C291.529,159.314 291.601,159.17 291.601,159.026C291.601,158.864 291.511,158.684 291.313,158.648C290.125,158.468 289.927,158.342 289.927,157.37L289.927,152.348C291.115,151.718 291.637,151.34 292.537,151.34C293.221,151.34 293.959,151.556 293.959,152.978L293.959,154.814C293.959,158.468 293.869,158.486 292.609,158.666C292.411,158.702 292.321,158.864 292.321,159.026C292.321,159.17 292.393,159.314 292.555,159.314L297.181,159.314C297.343,159.314 297.415,159.17 297.415,159.026C297.415,158.864 297.325,158.684 297.127,158.648C295.939,158.468 295.741,158.342 295.741,157.37L295.741,152.312C295.741,150.638 294.589,149.936 293.455,149.936C292.357,149.936 291.385,150.512 290.773,150.89L289.819,151.484Z" style="fill:black;fill-rule:nonzero;"/>
        <path d="M213.823,184.052L216.019,184.052C216.433,184.052 216.595,183.71 216.595,183.476C216.595,183.224 216.415,182.972 216.073,182.972C215.659,182.972 214.543,183.062 213.823,183.098L213.823,181.118C213.823,180.866 213.733,180.758 213.589,180.758C213.265,180.758 213.139,181.118 212.149,182.216C211.249,183.224 210.673,183.422 210.673,183.728C210.673,183.908 210.799,183.998 211.051,183.998L212.113,183.998C212.113,185.474 212.005,188.768 212.005,190.352C212.005,191.81 212.905,192.494 214.039,192.494C215.407,192.494 216.811,191.432 216.811,191.036C216.811,190.91 216.739,190.874 216.631,190.874C216.379,190.874 215.929,191.144 215.173,191.144C214.363,191.144 213.823,190.766 213.823,189.794L213.823,184.052Z" style="fill:black;fill-rule:nonzero;"/>
        <path d="M218.971,188.102C218.971,189.128 218.953,189.938 218.917,190.37C218.845,191.27 218.665,191.486 217.405,191.666C217.207,191.702 217.117,191.864 217.117,192.026C217.117,192.17 217.189,192.314 217.351,192.314L222.085,192.314C222.247,192.314 222.319,192.17 222.319,192.026C222.319,191.864 222.229,191.684 222.031,191.648C220.843,191.468 220.645,191.342 220.645,190.37L220.645,185.348C221.833,184.718 222.625,184.34 223.525,184.34C224.209,184.34 224.947,184.556 224.947,185.978L224.947,187.814C224.947,191.468 224.677,191.486 223.417,191.666C223.219,191.702 223.129,191.864 223.129,192.026C223.129,192.17 223.201,192.314 223.363,192.314L228.169,192.314C228.331,192.314 228.403,192.17 228.403,192.026C228.403,191.864 228.313,191.684 228.115,191.648C226.927,191.468 226.729,191.342 226.729,190.37L226.729,185.312C226.729,183.638 225.559,182.936 224.281,182.936C223.147,182.936 222.139,183.548 221.527,183.908L220.645,184.394L220.645,181.874C220.645,179.948 220.717,178.85 220.717,178.31C220.717,177.77 220.465,177.554 220.123,177.554C219.691,177.554 217.855,178.004 217.225,178.184C217.045,178.238 216.973,178.382 216.973,178.526C216.973,178.67 217.063,178.814 217.261,178.814L218.071,178.814C218.971,178.814 218.971,179.948 218.971,181.874L218.971,188.102Z" style="fill:black;fill-rule:nonzero;"/>
        <path d="M232.867,185.618C232.867,184.322 232.633,183.116 232.057,183.116C231.625,183.116 230.131,183.368 229.501,183.548C229.321,183.602 229.249,183.764 229.249,183.908C229.249,184.07 229.339,184.232 229.591,184.232L229.879,184.232C231.157,184.232 231.247,185.114 231.247,187.04L231.247,188.102C231.247,189.128 231.193,189.938 231.157,190.37C231.085,191.27 230.905,191.486 229.645,191.666C229.447,191.702 229.357,191.864 229.357,192.026C229.357,192.17 229.429,192.314 229.645,192.314L234.847,192.314C235.081,192.314 235.153,192.17 235.153,192.026C235.153,191.864 235.063,191.702 234.865,191.666C233.677,191.486 233.047,191.288 232.921,190.37C232.867,189.938 232.831,189.524 232.831,187.67C232.831,185.978 234.001,184.754 234.793,184.754C235.297,184.754 235.531,185.096 235.639,185.366C235.891,185.366 236.791,185.132 236.791,184.25C236.791,183.368 236.197,182.936 235.423,182.936C234.595,182.936 233.677,183.458 232.867,185.618Z" style="fill:black;fill-rule:nonzero;"/>
        <path d="M241.975,183.854C242.857,183.854 243.577,184.358 243.577,185.744C243.577,186.032 243.343,186.284 242.839,186.32L239.491,186.518C239.689,185.006 240.679,183.854 241.975,183.854ZM245.485,189.956C245.485,189.776 245.431,189.65 245.251,189.65C244.837,189.65 244.531,191.018 242.353,191.018C240.769,191.018 239.419,190.082 239.419,187.364L244.369,187.22C244.891,187.202 245.377,186.932 245.377,186.374C245.377,183.692 243.559,182.936 242.281,182.936C239.473,182.936 237.691,185.222 237.691,188.102C237.691,191.09 239.707,192.494 241.939,192.494C243.811,192.494 245.485,191.198 245.485,189.956Z" style="fill:black;fill-rule:nonzero;"/>
        <path d="M250.309,182.936C248.905,182.936 247.177,183.548 247.177,185.294C247.177,186.788 248.293,187.526 249.517,188.228C251.263,189.236 251.803,189.65 251.803,190.442C251.803,191.324 250.993,191.594 249.913,191.594C248.293,191.594 248.293,190.478 248.293,189.794C247.465,189.632 246.727,190.136 246.727,190.946C246.727,192.008 247.861,192.494 249.805,192.494C251.461,192.494 253.423,191.882 253.423,190.028C253.423,188.426 252.307,187.724 250.597,186.716C249.247,185.924 248.761,185.582 248.761,184.862C248.761,184.214 249.301,183.8 250.129,183.8C251.281,183.8 251.551,184.646 251.605,185.42C252.523,185.42 253.045,185.114 253.045,184.394C253.045,183.188 251.335,182.936 250.309,182.936Z" style="fill:black;fill-rule:nonzero;"/>
        <path d="M256.339,188.102C256.339,189.128 256.321,189.938 256.285,190.37C256.213,191.27 256.033,191.486 254.773,191.666C254.575,191.702 254.485,191.864 254.485,192.026C254.485,192.17 254.557,192.314 254.719,192.314L259.453,192.314C259.615,192.314 259.687,192.17 259.687,192.026C259.687,191.864 259.597,191.684 259.399,191.648C258.211,191.468 258.013,191.342 258.013,190.37L258.013,185.348C259.201,184.718 259.993,184.34 260.893,184.34C261.577,184.34 262.315,184.556 262.315,185.978L262.315,187.814C262.315,191.468 262.045,191.486 260.785,191.666C260.587,191.702 260.497,191.864 260.497,192.026C260.497,192.17 260.569,192.314 260.731,192.314L265.537,192.314C265.699,192.314 265.771,192.17 265.771,192.026C265.771,191.864 265.681,191.684 265.483,191.648C264.295,191.468 264.097,191.342 264.097,190.37L264.097,185.312C264.097,183.638 262.927,182.936 261.649,182.936C260.515,182.936 259.507,183.548 258.895,183.908L258.013,184.394L258.013,181.874C258.013,179.948 258.085,178.85 258.085,178.31C258.085,177.77 257.833,177.554 257.491,177.554C257.059,177.554 255.223,178.004 254.593,178.184C254.413,178.238 254.341,178.382 254.341,178.526C254.341,178.67 254.431,178.814 254.629,178.814L255.439,178.814C256.339,178.814 256.339,179.948 256.339,181.874L256.339,188.102Z" style="fill:black;fill-rule:nonzero;"/>
        <path d="M271.279,192.494C273.799,192.494 275.959,190.982 275.959,187.436C275.959,184.628 274.123,182.936 271.693,182.936C269.173,182.936 266.905,184.538 266.905,188.084C266.905,190.892 268.759,192.494 271.279,192.494ZM271.585,191.504C269.839,191.504 268.795,189.866 268.795,187.526C268.795,185.384 269.641,183.944 271.369,183.944C273.115,183.944 274.069,185.636 274.069,187.976C274.069,190.118 273.187,191.504 271.585,191.504Z" style="fill:black;fill-rule:nonzero;"/>
        <path d="M280.621,181.874C280.621,179.948 280.693,178.85 280.693,178.31C280.693,177.77 280.441,177.554 280.099,177.554C279.667,177.554 277.831,178.004 277.201,178.184C277.021,178.238 276.949,178.382 276.949,178.526C276.949,178.67 277.039,178.814 277.237,178.814L278.047,178.814C278.947,178.814 278.947,179.948 278.947,181.874L278.947,188.102C278.947,189.128 278.893,189.938 278.857,190.37C278.785,191.27 278.605,191.468 277.345,191.666C277.147,191.702 277.057,191.864 277.057,192.026C277.057,192.17 277.129,192.314 277.291,192.314L282.133,192.314C282.295,192.314 282.367,192.17 282.367,192.026C282.367,191.864 282.277,191.702 282.079,191.666C280.891,191.468 280.837,191.288 280.711,190.37C280.657,189.938 280.621,189.128 280.621,188.102L280.621,181.874Z" style="fill:black;fill-rule:nonzero;"/>
        <path d="M290.269,188.102C290.269,189.128 290.215,190.442 290.179,190.874C289.441,191.144 288.793,191.216 288.271,191.216C286.273,191.216 285.607,189.524 285.607,187.58C285.607,185.204 286.795,183.872 288.469,183.872C289.513,183.872 290.269,184.538 290.269,185.924L290.269,188.102ZM290.287,191.576C290.485,192.08 290.935,192.494 291.691,192.494C292.357,192.494 293.707,191.936 293.707,191.45C293.707,191.27 293.599,191.216 293.455,191.216C293.221,191.216 293.023,191.36 292.681,191.36C291.961,191.36 291.925,189.722 291.925,188.372L291.925,181.874C291.925,179.948 291.997,178.85 291.997,178.31C291.997,177.77 291.745,177.554 291.403,177.554C290.971,177.554 289.135,178.004 288.505,178.184C288.325,178.238 288.253,178.382 288.253,178.526C288.253,178.67 288.343,178.814 288.505,178.814L289.351,178.814C290.251,178.814 290.251,179.948 290.251,181.874L290.251,183.584C289.657,183.116 288.937,182.936 288.253,182.936C285.859,182.936 283.681,184.898 283.681,188.192C283.681,190.712 285.139,192.494 287.479,192.494C288.307,192.494 289.261,192.188 290.287,191.576Z" style="fill:black;fill-rule:nonzero;"/>
    </g>
</svg>
