<?xml version="1.0" standalone="no"?>
<!DOCTYPE svg PUBLIC "-//W3C//DTD SVG 1.1//EN" "http://www.w3.org/Graphics/SVG/1.1/DTD/svg11.dtd">
<svg width="100%" height="100%" viewBox="0 0 316 275" version="1.1" xmlns="http://www.w3.org/2000/svg" xmlns:xlink="http://www.w3.org/1999/xlink" xml:space="preserve" style="fill-rule:evenodd;clip-rule:evenodd;stroke-linecap:round;stroke-linejoin:round;stroke-miterlimit:10;">
    <rect x="-423.668" y="-240.221" width="1118" height="783" style="fill:white;fill-rule:nonzero;"/>
    <path d="M301.5,14L220.5,68L193.5,131L94.5,176L13.5,257L301.5,257L301.5,14Z" style="fill:rgb(1,0,202);fill-opacity:0.509804;fill-rule:nonzero;"/>
    <path d="M13.5,14L301.5,14L229,77L220,158L121,194L13.5,257L13.5,14Z" style="fill:rgb(205,207,2);fill-opacity:0.501961;fill-rule:nonzero;"/>
    <path d="M302,14.5L229.5,77L220.5,157.75L121.5,194.5L14,257.5" style="fill:none;stroke-width:1px;stroke:black;"/>
    <path d="M14,257.5L95,176.5L194,131.5L221,68.5L302,14.5" style="fill:none;stroke-width:1px;stroke:black;"/>
    <path d="M232.154,73.565C233.911,75.322 233.911,78.172 232.154,79.929C230.397,81.686 227.547,81.686 225.79,79.929C224.033,78.172 224.033,75.322 225.79,73.565C227.547,71.808 230.397,71.808 232.154,73.565" style="fill:black;fill-rule:nonzero;"/>
    <path d="M126.046,190.126C127.803,191.883 127.803,194.733 126.046,196.49C124.289,198.247 121.439,198.247 119.682,196.49C117.925,194.733 117.925,191.883 119.682,190.126C121.439,188.369 124.289,188.369 126.046,190.126" style="fill:black;fill-rule:nonzero;"/>
    <path d="M98.189,172.587C99.946,174.344 99.946,177.194 98.189,178.951C96.432,180.708 93.582,180.708 91.825,178.951C90.068,177.194 90.068,174.344 91.825,172.587C93.582,170.83 96.432,170.83 98.189,172.587" style="fill:black;fill-rule:nonzero;"/>
    <path d="M224.919,63.993C226.676,65.75 226.676,68.6 224.919,70.357C223.162,72.114 220.312,72.114 218.555,70.357C216.798,68.6 216.798,65.75 218.555,63.993C220.312,62.236 223.162,62.236 224.919,63.993" style="fill:black;fill-rule:nonzero;"/>
    <path d="M196.491,127.905C198.248,129.662 198.248,132.512 196.491,134.269C194.734,136.026 191.884,136.026 190.127,134.269C188.37,132.512 188.37,129.662 190.127,127.905C191.884,126.148 194.734,126.148 196.491,127.905" style="fill:black;fill-rule:nonzero;"/>
    <path d="M223.25,153.462C225.007,155.219 225.007,158.069 223.25,159.826C221.493,161.583 218.643,161.583 216.886,159.826C215.129,158.069 215.129,155.219 216.886,153.462C218.643,151.705 221.493,151.705 223.25,153.462" style="fill:black;fill-rule:nonzero;"/>
    <path d="M304.932,10.668C306.689,12.425 306.689,15.275 304.932,17.032C303.175,18.789 300.325,18.789 298.568,17.032C296.811,15.275 296.811,12.425 298.568,10.668C300.325,8.911 303.175,8.911 304.932,10.668" style="fill:black;fill-rule:nonzero;"/>
    <path d="M17.197,253.818C18.954,255.575 18.954,258.425 17.197,260.182C15.44,261.939 12.59,261.939 10.833,260.182C9.076,258.425 9.076,255.575 10.833,253.818C12.59,252.061 15.44,252.061 17.197,253.818" style="fill:black;fill-rule:nonzero;"/>
    <path d="M182.883,145.3L216.068,169.25" style="fill:none;stroke-width:1px;stroke:black;"/>
    <path d="M187.696,138.5L177.519,152.277" style="fill:none;stroke-width:1px;stroke:black;"/>
    <path d="M220.611,163.625L210.433,177.401" style="fill:none;stroke-width:1px;stroke:black;"/>
    <g>
        <path d="M209.56,184.375C209.254,183.295 208.3,182.827 207.382,182.827C206.284,182.827 205.312,183.403 204.7,183.781L203.872,184.285C203.854,183.349 203.836,183.007 203.26,183.007C202.828,183.007 201.154,183.259 200.524,183.439C200.344,183.493 200.272,183.655 200.272,183.799C200.272,183.961 200.362,184.123 200.524,184.123L200.902,184.123C202.18,184.123 202.216,185.401 202.216,187.327L202.216,187.993C202.216,189.019 202.162,189.829 202.126,190.261C202.054,191.161 201.874,191.377 200.614,191.557C200.416,191.593 200.326,191.755 200.326,191.917C200.326,192.061 200.398,192.205 200.56,192.205L205.294,192.205C205.456,192.205 205.528,192.061 205.528,191.917C205.528,191.755 205.438,191.575 205.24,191.539C204.052,191.359 203.854,191.233 203.854,190.261L203.854,185.239C205.042,184.609 205.564,184.231 206.464,184.231C207.148,184.231 207.886,184.447 207.886,185.869L207.886,187.705C207.886,191.359 207.796,191.377 206.536,191.557C206.338,191.593 206.248,191.755 206.248,191.917C206.248,192.061 206.32,192.205 206.482,192.205L211.108,192.205C211.27,192.205 211.342,192.061 211.342,191.917C211.342,191.755 211.252,191.575 211.054,191.539C209.866,191.359 209.668,191.233 209.668,190.261L209.668,185.239C210.856,184.609 211.378,184.231 212.278,184.231C212.962,184.231 213.7,184.447 213.7,185.869L213.7,187.705C213.7,191.359 213.61,191.377 212.35,191.557C212.152,191.593 212.062,191.755 212.062,191.917C212.062,192.061 212.134,192.205 212.296,192.205L216.922,192.205C217.084,192.205 217.156,192.061 217.156,191.917C217.156,191.755 217.066,191.575 216.868,191.539C215.68,191.359 215.482,191.233 215.482,190.261L215.482,185.203C215.482,183.529 214.33,182.827 213.196,182.827C212.098,182.827 211.126,183.403 210.514,183.781L209.56,184.375Z" style="fill:black;fill-rule:nonzero;"/>
        <path d="M221.656,183.763C221.656,183.223 221.404,183.007 221.062,183.007C220.63,183.007 218.884,183.259 218.254,183.439C218.074,183.493 218.002,183.655 218.002,183.799C218.002,183.961 218.092,184.123 218.254,184.123L218.632,184.123C219.91,184.123 219.946,185.401 219.946,187.327L219.946,187.993C219.946,189.019 219.892,189.829 219.856,190.261C219.784,191.161 219.604,191.377 218.344,191.557C218.146,191.593 218.056,191.755 218.056,191.917C218.056,192.061 218.128,192.205 218.29,192.205L223.096,192.205C223.258,192.205 223.33,192.061 223.33,191.917C223.33,191.755 223.24,191.593 223.042,191.557C221.854,191.377 221.8,191.179 221.674,190.261C221.62,189.829 221.584,189.019 221.584,187.993L221.584,187.327C221.584,185.401 221.656,184.303 221.656,183.763ZM219.28,179.677C219.28,180.343 219.838,180.901 220.504,180.901C221.17,180.901 221.728,180.343 221.728,179.677C221.728,179.011 221.17,178.453 220.504,178.453C219.838,178.453 219.28,179.011 219.28,179.677Z" style="fill:black;fill-rule:nonzero;"/>
        <path d="M227.938,185.239C229.126,184.609 229.918,184.231 230.818,184.231C231.502,184.231 232.24,184.447 232.24,185.869L232.24,187.705C232.24,191.359 231.97,191.377 230.71,191.557C230.512,191.593 230.422,191.755 230.422,191.917C230.422,192.061 230.494,192.205 230.656,192.205L235.462,192.205C235.624,192.205 235.696,192.061 235.696,191.917C235.696,191.755 235.606,191.575 235.408,191.539C234.22,191.359 234.022,191.233 234.022,190.261L234.022,185.203C234.022,183.529 232.906,182.827 231.574,182.827C230.44,182.827 229.432,183.439 228.82,183.799L227.956,184.285C227.938,183.349 227.92,183.007 227.344,183.007C226.912,183.007 225.238,183.259 224.608,183.439C224.428,183.493 224.356,183.655 224.356,183.799C224.356,183.961 224.446,184.123 224.608,184.123L224.986,184.123C226.264,184.123 226.3,185.401 226.3,187.327L226.3,187.993C226.3,189.019 226.246,189.829 226.21,190.261C226.138,191.161 225.958,191.377 224.698,191.557C224.5,191.593 224.41,191.755 224.41,191.917C224.41,192.061 224.482,192.205 224.644,192.205L229.378,192.205C229.54,192.205 229.612,192.061 229.612,191.917C229.612,191.755 229.522,191.575 229.324,191.539C228.136,191.359 227.938,191.233 227.938,190.261L227.938,185.239Z" style="fill:black;fill-rule:nonzero;"/>
        <path d="M240.214,183.763C240.214,183.223 239.962,183.007 239.62,183.007C239.188,183.007 237.442,183.259 236.812,183.439C236.632,183.493 236.56,183.655 236.56,183.799C236.56,183.961 236.65,184.123 236.812,184.123L237.19,184.123C238.468,184.123 238.504,185.401 238.504,187.327L238.504,187.993C238.504,189.019 238.45,189.829 238.414,190.261C238.342,191.161 238.162,191.377 236.902,191.557C236.704,191.593 236.614,191.755 236.614,191.917C236.614,192.061 236.686,192.205 236.848,192.205L241.654,192.205C241.816,192.205 241.888,192.061 241.888,191.917C241.888,191.755 241.798,191.593 241.6,191.557C240.412,191.377 240.358,191.179 240.232,190.261C240.178,189.829 240.142,189.019 240.142,187.993L240.142,187.327C240.142,185.401 240.214,184.303 240.214,183.763ZM237.838,179.677C237.838,180.343 238.396,180.901 239.062,180.901C239.728,180.901 240.286,180.343 240.286,179.677C240.286,179.011 239.728,178.453 239.062,178.453C238.396,178.453 237.838,179.011 237.838,179.677Z" style="fill:black;fill-rule:nonzero;"/>
        <path d="M252.202,184.375C251.896,183.295 250.942,182.827 250.024,182.827C248.926,182.827 247.954,183.403 247.342,183.781L246.514,184.285C246.496,183.349 246.478,183.007 245.902,183.007C245.47,183.007 243.796,183.259 243.166,183.439C242.986,183.493 242.914,183.655 242.914,183.799C242.914,183.961 243.004,184.123 243.166,184.123L243.544,184.123C244.822,184.123 244.858,185.401 244.858,187.327L244.858,187.993C244.858,189.019 244.804,189.829 244.768,190.261C244.696,191.161 244.516,191.377 243.256,191.557C243.058,191.593 242.968,191.755 242.968,191.917C242.968,192.061 243.04,192.205 243.202,192.205L247.936,192.205C248.098,192.205 248.17,192.061 248.17,191.917C248.17,191.755 248.08,191.575 247.882,191.539C246.694,191.359 246.496,191.233 246.496,190.261L246.496,185.239C247.684,184.609 248.206,184.231 249.106,184.231C249.79,184.231 250.528,184.447 250.528,185.869L250.528,187.705C250.528,191.359 250.438,191.377 249.178,191.557C248.98,191.593 248.89,191.755 248.89,191.917C248.89,192.061 248.962,192.205 249.124,192.205L253.75,192.205C253.912,192.205 253.984,192.061 253.984,191.917C253.984,191.755 253.894,191.575 253.696,191.539C252.508,191.359 252.31,191.233 252.31,190.261L252.31,185.239C253.498,184.609 254.02,184.231 254.92,184.231C255.604,184.231 256.342,184.447 256.342,185.869L256.342,187.705C256.342,191.359 256.252,191.377 254.992,191.557C254.794,191.593 254.704,191.755 254.704,191.917C254.704,192.061 254.776,192.205 254.938,192.205L259.564,192.205C259.726,192.205 259.798,192.061 259.798,191.917C259.798,191.755 259.708,191.575 259.51,191.539C258.322,191.359 258.124,191.233 258.124,190.261L258.124,185.203C258.124,183.529 256.972,182.827 255.838,182.827C254.74,182.827 253.768,183.403 253.156,183.781L252.202,184.375Z" style="fill:black;fill-rule:nonzero;"/>
        <path d="M262.012,189.829C262.012,191.323 262.822,192.385 264.388,192.385C265.306,192.385 266.476,192.043 267.808,191.287C268.006,191.791 268.42,192.385 269.176,192.385C269.842,192.385 271.192,191.827 271.192,191.341C271.192,191.161 271.084,191.107 270.94,191.107C270.706,191.107 270.508,191.251 270.166,191.251C269.446,191.251 269.41,189.613 269.41,188.263L269.41,187.327C269.41,185.401 269.482,184.303 269.482,183.763C269.482,183.223 269.23,183.007 268.888,183.007C268.456,183.007 266.656,183.259 266.026,183.439C265.846,183.493 265.774,183.655 265.774,183.799C265.774,183.961 265.864,184.123 266.026,184.123L266.404,184.123C267.682,184.123 267.772,184.879 267.772,186.805L267.772,187.723C267.772,188.749 267.736,190.027 267.7,190.459C266.872,190.891 266.062,191.143 265.108,191.143C264.046,191.143 263.65,190.243 263.65,188.605L263.65,187.327C263.65,185.401 263.722,184.303 263.722,183.763C263.722,183.223 263.47,183.007 263.128,183.007C262.696,183.007 260.95,183.259 260.32,183.439C260.14,183.493 260.068,183.655 260.068,183.799C260.068,183.961 260.158,184.123 260.32,184.123L260.698,184.123C261.976,184.123 262.012,185.401 262.012,187.327L262.012,189.829Z" style="fill:black;fill-rule:nonzero;"/>
        <path d="M281.434,184.375C281.128,183.295 280.174,182.827 279.256,182.827C278.158,182.827 277.186,183.403 276.574,183.781L275.746,184.285C275.728,183.349 275.71,183.007 275.134,183.007C274.702,183.007 273.028,183.259 272.398,183.439C272.218,183.493 272.146,183.655 272.146,183.799C272.146,183.961 272.236,184.123 272.398,184.123L272.776,184.123C274.054,184.123 274.09,185.401 274.09,187.327L274.09,187.993C274.09,189.019 274.036,189.829 274,190.261C273.928,191.161 273.748,191.377 272.488,191.557C272.29,191.593 272.2,191.755 272.2,191.917C272.2,192.061 272.272,192.205 272.434,192.205L277.168,192.205C277.33,192.205 277.402,192.061 277.402,191.917C277.402,191.755 277.312,191.575 277.114,191.539C275.926,191.359 275.728,191.233 275.728,190.261L275.728,185.239C276.916,184.609 277.438,184.231 278.338,184.231C279.022,184.231 279.76,184.447 279.76,185.869L279.76,187.705C279.76,191.359 279.67,191.377 278.41,191.557C278.212,191.593 278.122,191.755 278.122,191.917C278.122,192.061 278.194,192.205 278.356,192.205L282.982,192.205C283.144,192.205 283.216,192.061 283.216,191.917C283.216,191.755 283.126,191.575 282.928,191.539C281.74,191.359 281.542,191.233 281.542,190.261L281.542,185.239C282.73,184.609 283.252,184.231 284.152,184.231C284.836,184.231 285.574,184.447 285.574,185.869L285.574,187.705C285.574,191.359 285.484,191.377 284.224,191.557C284.026,191.593 283.936,191.755 283.936,191.917C283.936,192.061 284.008,192.205 284.17,192.205L288.796,192.205C288.958,192.205 289.03,192.061 289.03,191.917C289.03,191.755 288.94,191.575 288.742,191.539C287.554,191.359 287.356,191.233 287.356,190.261L287.356,185.203C287.356,183.529 286.204,182.827 285.07,182.827C283.972,182.827 283,183.403 282.388,183.781L281.434,184.375Z" style="fill:black;fill-rule:nonzero;"/>
        <path d="M206.14,216.943L208.336,216.943C208.75,216.943 208.912,216.601 208.912,216.367C208.912,216.115 208.732,215.863 208.39,215.863C207.976,215.863 206.86,215.953 206.14,215.989L206.14,214.009C206.14,213.757 206.05,213.649 205.906,213.649C205.582,213.649 205.456,214.009 204.466,215.107C203.566,216.115 202.99,216.313 202.99,216.619C202.99,216.799 203.116,216.889 203.368,216.889L204.43,216.889C204.43,218.365 204.322,221.659 204.322,223.243C204.322,224.701 205.222,225.385 206.356,225.385C207.724,225.385 209.128,224.323 209.128,223.927C209.128,223.801 209.056,223.765 208.948,223.765C208.696,223.765 208.246,224.035 207.49,224.035C206.68,224.035 206.14,223.657 206.14,222.685L206.14,216.943Z" style="fill:black;fill-rule:nonzero;"/>
        <path d="M211.288,220.993C211.288,222.019 211.27,222.829 211.234,223.261C211.162,224.161 210.982,224.377 209.722,224.557C209.524,224.593 209.434,224.755 209.434,224.917C209.434,225.061 209.506,225.205 209.668,225.205L214.402,225.205C214.564,225.205 214.636,225.061 214.636,224.917C214.636,224.755 214.546,224.575 214.348,224.539C213.16,224.359 212.962,224.233 212.962,223.261L212.962,218.239C214.15,217.609 214.942,217.231 215.842,217.231C216.526,217.231 217.264,217.447 217.264,218.869L217.264,220.705C217.264,224.359 216.994,224.377 215.734,224.557C215.536,224.593 215.446,224.755 215.446,224.917C215.446,225.061 215.518,225.205 215.68,225.205L220.486,225.205C220.648,225.205 220.72,225.061 220.72,224.917C220.72,224.755 220.63,224.575 220.432,224.539C219.244,224.359 219.046,224.233 219.046,223.261L219.046,218.203C219.046,216.529 217.876,215.827 216.598,215.827C215.464,215.827 214.456,216.439 213.844,216.799L212.962,217.285L212.962,214.765C212.962,212.839 213.034,211.741 213.034,211.201C213.034,210.661 212.782,210.445 212.44,210.445C212.008,210.445 210.172,210.895 209.542,211.075C209.362,211.129 209.29,211.273 209.29,211.417C209.29,211.561 209.38,211.705 209.578,211.705L210.388,211.705C211.288,211.705 211.288,212.839 211.288,214.765L211.288,220.993Z" style="fill:black;fill-rule:nonzero;"/>
        <path d="M225.184,218.509C225.184,217.213 224.95,216.007 224.374,216.007C223.942,216.007 222.448,216.259 221.818,216.439C221.638,216.493 221.566,216.655 221.566,216.799C221.566,216.961 221.656,217.123 221.908,217.123L222.196,217.123C223.474,217.123 223.564,218.005 223.564,219.931L223.564,220.993C223.564,222.019 223.51,222.829 223.474,223.261C223.402,224.161 223.222,224.377 221.962,224.557C221.764,224.593 221.674,224.755 221.674,224.917C221.674,225.061 221.746,225.205 221.962,225.205L227.164,225.205C227.398,225.205 227.47,225.061 227.47,224.917C227.47,224.755 227.38,224.593 227.182,224.557C225.994,224.377 225.364,224.179 225.238,223.261C225.184,222.829 225.148,222.415 225.148,220.561C225.148,218.869 226.318,217.645 227.11,217.645C227.614,217.645 227.848,217.987 227.956,218.257C228.208,218.257 229.108,218.023 229.108,217.141C229.108,216.259 228.514,215.827 227.74,215.827C226.912,215.827 225.994,216.349 225.184,218.509Z" style="fill:black;fill-rule:nonzero;"/>
        <path d="M234.292,216.745C235.174,216.745 235.894,217.249 235.894,218.635C235.894,218.923 235.66,219.175 235.156,219.211L231.808,219.409C232.006,217.897 232.996,216.745 234.292,216.745ZM237.802,222.847C237.802,222.667 237.748,222.541 237.568,222.541C237.154,222.541 236.848,223.909 234.67,223.909C233.086,223.909 231.736,222.973 231.736,220.255L236.686,220.111C237.208,220.093 237.694,219.823 237.694,219.265C237.694,216.583 235.876,215.827 234.598,215.827C231.79,215.827 230.008,218.113 230.008,220.993C230.008,223.981 232.024,225.385 234.256,225.385C236.128,225.385 237.802,224.089 237.802,222.847Z" style="fill:black;fill-rule:nonzero;"/>
        <path d="M242.626,215.827C241.222,215.827 239.494,216.439 239.494,218.185C239.494,219.679 240.61,220.417 241.834,221.119C243.58,222.127 244.12,222.541 244.12,223.333C244.12,224.215 243.31,224.485 242.23,224.485C240.61,224.485 240.61,223.369 240.61,222.685C239.782,222.523 239.044,223.027 239.044,223.837C239.044,224.899 240.178,225.385 242.122,225.385C243.778,225.385 245.74,224.773 245.74,222.919C245.74,221.317 244.624,220.615 242.914,219.607C241.564,218.815 241.078,218.473 241.078,217.753C241.078,217.105 241.618,216.691 242.446,216.691C243.598,216.691 243.868,217.537 243.922,218.311C244.84,218.311 245.362,218.005 245.362,217.285C245.362,216.079 243.652,215.827 242.626,215.827Z" style="fill:black;fill-rule:nonzero;"/>
        <path d="M248.656,220.993C248.656,222.019 248.638,222.829 248.602,223.261C248.53,224.161 248.35,224.377 247.09,224.557C246.892,224.593 246.802,224.755 246.802,224.917C246.802,225.061 246.874,225.205 247.036,225.205L251.77,225.205C251.932,225.205 252.004,225.061 252.004,224.917C252.004,224.755 251.914,224.575 251.716,224.539C250.528,224.359 250.33,224.233 250.33,223.261L250.33,218.239C251.518,217.609 252.31,217.231 253.21,217.231C253.894,217.231 254.632,217.447 254.632,218.869L254.632,220.705C254.632,224.359 254.362,224.377 253.102,224.557C252.904,224.593 252.814,224.755 252.814,224.917C252.814,225.061 252.886,225.205 253.048,225.205L257.854,225.205C258.016,225.205 258.088,225.061 258.088,224.917C258.088,224.755 257.998,224.575 257.8,224.539C256.612,224.359 256.414,224.233 256.414,223.261L256.414,218.203C256.414,216.529 255.244,215.827 253.966,215.827C252.832,215.827 251.824,216.439 251.212,216.799L250.33,217.285L250.33,214.765C250.33,212.839 250.402,211.741 250.402,211.201C250.402,210.661 250.15,210.445 249.808,210.445C249.376,210.445 247.54,210.895 246.91,211.075C246.73,211.129 246.658,211.273 246.658,211.417C246.658,211.561 246.748,211.705 246.946,211.705L247.756,211.705C248.656,211.705 248.656,212.839 248.656,214.765L248.656,220.993Z" style="fill:black;fill-rule:nonzero;"/>
        <path d="M263.596,225.385C266.116,225.385 268.276,223.873 268.276,220.327C268.276,217.519 266.44,215.827 264.01,215.827C261.49,215.827 259.222,217.429 259.222,220.975C259.222,223.783 261.076,225.385 263.596,225.385ZM263.902,224.395C262.156,224.395 261.112,222.757 261.112,220.417C261.112,218.275 261.958,216.835 263.686,216.835C265.432,216.835 266.386,218.527 266.386,220.867C266.386,223.009 265.504,224.395 263.902,224.395Z" style="fill:black;fill-rule:nonzero;"/>
        <path d="M272.938,214.765C272.938,212.839 273.01,211.741 273.01,211.201C273.01,210.661 272.758,210.445 272.416,210.445C271.984,210.445 270.148,210.895 269.518,211.075C269.338,211.129 269.266,211.273 269.266,211.417C269.266,211.561 269.356,211.705 269.554,211.705L270.364,211.705C271.264,211.705 271.264,212.839 271.264,214.765L271.264,220.993C271.264,222.019 271.21,222.829 271.174,223.261C271.102,224.161 270.922,224.359 269.662,224.557C269.464,224.593 269.374,224.755 269.374,224.917C269.374,225.061 269.446,225.205 269.608,225.205L274.45,225.205C274.612,225.205 274.684,225.061 274.684,224.917C274.684,224.755 274.594,224.593 274.396,224.557C273.208,224.359 273.154,224.179 273.028,223.261C272.974,222.829 272.938,222.019 272.938,220.993L272.938,214.765Z" style="fill:black;fill-rule:nonzero;"/>
        <path d="M282.586,220.993C282.586,222.019 282.532,223.333 282.496,223.765C281.758,224.035 281.11,224.107 280.588,224.107C278.59,224.107 277.924,222.415 277.924,220.471C277.924,218.095 279.112,216.763 280.786,216.763C281.83,216.763 282.586,217.429 282.586,218.815L282.586,220.993ZM282.604,224.467C282.802,224.971 283.252,225.385 284.008,225.385C284.674,225.385 286.024,224.827 286.024,224.341C286.024,224.161 285.916,224.107 285.772,224.107C285.538,224.107 285.34,224.251 284.998,224.251C284.278,224.251 284.242,222.613 284.242,221.263L284.242,214.765C284.242,212.839 284.314,211.741 284.314,211.201C284.314,210.661 284.062,210.445 283.72,210.445C283.288,210.445 281.452,210.895 280.822,211.075C280.642,211.129 280.57,211.273 280.57,211.417C280.57,211.561 280.66,211.705 280.822,211.705L281.668,211.705C282.568,211.705 282.568,212.839 282.568,214.765L282.568,216.475C281.974,216.007 281.254,215.827 280.57,215.827C278.176,215.827 275.998,217.789 275.998,221.083C275.998,223.603 277.456,225.385 279.796,225.385C280.624,225.385 281.578,225.079 282.604,224.467Z" style="fill:black;fill-rule:nonzero;"/>
    </g>
    <g>
        <path d="M98.01,63.775C97.704,62.695 96.75,62.227 95.832,62.227C94.734,62.227 93.762,62.803 93.15,63.181L92.322,63.685C92.304,62.749 92.286,62.407 91.71,62.407C91.278,62.407 89.604,62.659 88.974,62.839C88.794,62.893 88.722,63.055 88.722,63.199C88.722,63.361 88.812,63.523 88.974,63.523L89.352,63.523C90.63,63.523 90.666,64.801 90.666,66.727L90.666,67.393C90.666,68.419 90.612,69.229 90.576,69.661C90.504,70.561 90.324,70.777 89.064,70.957C88.866,70.993 88.776,71.155 88.776,71.317C88.776,71.461 88.848,71.605 89.01,71.605L93.744,71.605C93.906,71.605 93.978,71.461 93.978,71.317C93.978,71.155 93.888,70.975 93.69,70.939C92.502,70.759 92.304,70.633 92.304,69.661L92.304,64.639C93.492,64.009 94.014,63.631 94.914,63.631C95.598,63.631 96.336,63.847 96.336,65.269L96.336,67.105C96.336,70.759 96.246,70.777 94.986,70.957C94.788,70.993 94.698,71.155 94.698,71.317C94.698,71.461 94.77,71.605 94.932,71.605L99.558,71.605C99.72,71.605 99.792,71.461 99.792,71.317C99.792,71.155 99.702,70.975 99.504,70.939C98.316,70.759 98.118,70.633 98.118,69.661L98.118,64.639C99.306,64.009 99.828,63.631 100.728,63.631C101.412,63.631 102.15,63.847 102.15,65.269L102.15,67.105C102.15,70.759 102.06,70.777 100.8,70.957C100.602,70.993 100.512,71.155 100.512,71.317C100.512,71.461 100.584,71.605 100.746,71.605L105.372,71.605C105.534,71.605 105.606,71.461 105.606,71.317C105.606,71.155 105.516,70.975 105.318,70.939C104.13,70.759 103.932,70.633 103.932,69.661L103.932,64.603C103.932,62.929 102.78,62.227 101.646,62.227C100.548,62.227 99.576,62.803 98.964,63.181L98.01,63.775Z" style="fill:black;fill-rule:nonzero;"/>
        <path d="M111.672,67.969C111.672,68.995 111.636,69.715 111.582,70.147C110.952,70.381 110.394,70.489 109.926,70.489C108.846,70.489 108.252,69.931 108.252,69.103C108.252,67.879 109.242,67.573 111.672,67.483L111.672,67.969ZM111.672,66.619C109.026,66.763 106.452,66.979 106.452,69.355C106.452,70.651 107.28,71.785 108.828,71.785C109.602,71.785 110.556,71.461 111.654,70.795C111.852,71.299 112.302,71.785 113.058,71.785C113.724,71.785 115.074,71.227 115.074,70.741C115.074,70.561 114.966,70.507 114.822,70.507C114.588,70.507 114.39,70.651 114.048,70.651C113.328,70.651 113.292,69.013 113.292,67.663C113.292,66.745 113.382,65.089 113.382,64.567C113.382,62.911 111.852,62.227 110.304,62.227C108.684,62.227 107.046,62.965 107.046,64.135C107.046,64.657 107.316,65.179 108.09,65.179C108.252,65.179 108.432,65.143 108.648,65.089C108.684,64.225 108.702,63.091 110.268,63.091C111.564,63.091 111.672,64.369 111.672,66.295L111.672,66.619Z" style="fill:black;fill-rule:nonzero;"/>
        <path d="M121.788,70.075C121.932,70.273 121.968,70.381 121.968,70.507C121.968,70.741 121.68,70.903 121.05,70.975C120.87,70.993 120.762,71.137 120.762,71.299C120.762,71.461 120.87,71.605 121.086,71.605L125.55,71.605C125.784,71.605 125.892,71.443 125.892,71.281C125.892,71.119 125.784,70.957 125.604,70.921C124.542,70.741 124.218,70.543 122.904,68.869L121.194,66.709L123.444,64.045C123.93,63.487 124.398,63.163 125.226,63.037C125.388,63.019 125.496,62.857 125.496,62.713C125.496,62.569 125.388,62.407 125.154,62.407L121.554,62.407C121.338,62.407 121.248,62.551 121.248,62.731C121.248,62.911 121.356,63.037 121.572,63.037C122.112,63.055 122.382,63.253 122.382,63.541C122.382,63.667 122.328,63.829 122.22,63.973L120.654,66.043L119.106,63.955C118.98,63.775 118.89,63.613 118.89,63.487C118.89,63.181 119.088,63.109 119.718,63.037C119.898,63.019 120.006,62.875 120.006,62.713C120.006,62.551 119.898,62.407 119.682,62.407L115.47,62.407C115.236,62.407 115.128,62.569 115.128,62.731C115.128,62.893 115.236,63.055 115.416,63.091C116.334,63.289 116.532,63.307 117.972,65.143L119.574,67.159L117.468,69.571C116.604,70.579 116.082,70.813 115.38,70.957C115.2,70.993 115.092,71.155 115.092,71.299C115.092,71.461 115.2,71.605 115.434,71.605L119.106,71.605C119.322,71.605 119.43,71.443 119.43,71.281C119.43,71.101 119.322,70.921 119.142,70.921C118.656,70.921 118.26,70.723 118.26,70.417C118.26,70.219 118.368,69.985 118.584,69.733L120.114,67.879L121.788,70.075Z" style="fill:black;fill-rule:nonzero;"/>
        <path d="M130.068,63.163C130.068,62.623 129.816,62.407 129.474,62.407C129.042,62.407 127.296,62.659 126.666,62.839C126.486,62.893 126.414,63.055 126.414,63.199C126.414,63.361 126.504,63.523 126.666,63.523L127.044,63.523C128.322,63.523 128.358,64.801 128.358,66.727L128.358,67.393C128.358,68.419 128.304,69.229 128.268,69.661C128.196,70.561 128.016,70.777 126.756,70.957C126.558,70.993 126.468,71.155 126.468,71.317C126.468,71.461 126.54,71.605 126.702,71.605L131.508,71.605C131.67,71.605 131.742,71.461 131.742,71.317C131.742,71.155 131.652,70.993 131.454,70.957C130.266,70.777 130.212,70.579 130.086,69.661C130.032,69.229 129.996,68.419 129.996,67.393L129.996,66.727C129.996,64.801 130.068,63.703 130.068,63.163ZM127.692,59.077C127.692,59.743 128.25,60.301 128.916,60.301C129.582,60.301 130.14,59.743 130.14,59.077C130.14,58.411 129.582,57.853 128.916,57.853C128.25,57.853 127.692,58.411 127.692,59.077Z" style="fill:black;fill-rule:nonzero;"/>
        <path d="M142.056,63.775C141.75,62.695 140.796,62.227 139.878,62.227C138.78,62.227 137.808,62.803 137.196,63.181L136.368,63.685C136.35,62.749 136.332,62.407 135.756,62.407C135.324,62.407 133.65,62.659 133.02,62.839C132.84,62.893 132.768,63.055 132.768,63.199C132.768,63.361 132.858,63.523 133.02,63.523L133.398,63.523C134.676,63.523 134.712,64.801 134.712,66.727L134.712,67.393C134.712,68.419 134.658,69.229 134.622,69.661C134.55,70.561 134.37,70.777 133.11,70.957C132.912,70.993 132.822,71.155 132.822,71.317C132.822,71.461 132.894,71.605 133.056,71.605L137.79,71.605C137.952,71.605 138.024,71.461 138.024,71.317C138.024,71.155 137.934,70.975 137.736,70.939C136.548,70.759 136.35,70.633 136.35,69.661L136.35,64.639C137.538,64.009 138.06,63.631 138.96,63.631C139.644,63.631 140.382,63.847 140.382,65.269L140.382,67.105C140.382,70.759 140.292,70.777 139.032,70.957C138.834,70.993 138.744,71.155 138.744,71.317C138.744,71.461 138.816,71.605 138.978,71.605L143.604,71.605C143.766,71.605 143.838,71.461 143.838,71.317C143.838,71.155 143.748,70.975 143.55,70.939C142.362,70.759 142.164,70.633 142.164,69.661L142.164,64.639C143.352,64.009 143.874,63.631 144.774,63.631C145.458,63.631 146.196,63.847 146.196,65.269L146.196,67.105C146.196,70.759 146.106,70.777 144.846,70.957C144.648,70.993 144.558,71.155 144.558,71.317C144.558,71.461 144.63,71.605 144.792,71.605L149.418,71.605C149.58,71.605 149.652,71.461 149.652,71.317C149.652,71.155 149.562,70.975 149.364,70.939C148.176,70.759 147.978,70.633 147.978,69.661L147.978,64.603C147.978,62.929 146.826,62.227 145.692,62.227C144.594,62.227 143.622,62.803 143.01,63.181L142.056,63.775Z" style="fill:black;fill-rule:nonzero;"/>
        <path d="M151.866,69.229C151.866,70.723 152.676,71.785 154.242,71.785C155.16,71.785 156.33,71.443 157.662,70.687C157.86,71.191 158.274,71.785 159.03,71.785C159.696,71.785 161.046,71.227 161.046,70.741C161.046,70.561 160.938,70.507 160.794,70.507C160.56,70.507 160.362,70.651 160.02,70.651C159.3,70.651 159.264,69.013 159.264,67.663L159.264,66.727C159.264,64.801 159.336,63.703 159.336,63.163C159.336,62.623 159.084,62.407 158.742,62.407C158.31,62.407 156.51,62.659 155.88,62.839C155.7,62.893 155.628,63.055 155.628,63.199C155.628,63.361 155.718,63.523 155.88,63.523L156.258,63.523C157.536,63.523 157.626,64.279 157.626,66.205L157.626,67.123C157.626,68.149 157.59,69.427 157.554,69.859C156.726,70.291 155.916,70.543 154.962,70.543C153.9,70.543 153.504,69.643 153.504,68.005L153.504,66.727C153.504,64.801 153.576,63.703 153.576,63.163C153.576,62.623 153.324,62.407 152.982,62.407C152.55,62.407 150.804,62.659 150.174,62.839C149.994,62.893 149.922,63.055 149.922,63.199C149.922,63.361 150.012,63.523 150.174,63.523L150.552,63.523C151.83,63.523 151.866,64.801 151.866,66.727L151.866,69.229Z" style="fill:black;fill-rule:nonzero;"/>
        <path d="M171.288,63.775C170.982,62.695 170.028,62.227 169.11,62.227C168.012,62.227 167.04,62.803 166.428,63.181L165.6,63.685C165.582,62.749 165.564,62.407 164.988,62.407C164.556,62.407 162.882,62.659 162.252,62.839C162.072,62.893 162,63.055 162,63.199C162,63.361 162.09,63.523 162.252,63.523L162.63,63.523C163.908,63.523 163.944,64.801 163.944,66.727L163.944,67.393C163.944,68.419 163.89,69.229 163.854,69.661C163.782,70.561 163.602,70.777 162.342,70.957C162.144,70.993 162.054,71.155 162.054,71.317C162.054,71.461 162.126,71.605 162.288,71.605L167.022,71.605C167.184,71.605 167.256,71.461 167.256,71.317C167.256,71.155 167.166,70.975 166.968,70.939C165.78,70.759 165.582,70.633 165.582,69.661L165.582,64.639C166.77,64.009 167.292,63.631 168.192,63.631C168.876,63.631 169.614,63.847 169.614,65.269L169.614,67.105C169.614,70.759 169.524,70.777 168.264,70.957C168.066,70.993 167.976,71.155 167.976,71.317C167.976,71.461 168.048,71.605 168.21,71.605L172.836,71.605C172.998,71.605 173.07,71.461 173.07,71.317C173.07,71.155 172.98,70.975 172.782,70.939C171.594,70.759 171.396,70.633 171.396,69.661L171.396,64.639C172.584,64.009 173.106,63.631 174.006,63.631C174.69,63.631 175.428,63.847 175.428,65.269L175.428,67.105C175.428,70.759 175.338,70.777 174.078,70.957C173.88,70.993 173.79,71.155 173.79,71.317C173.79,71.461 173.862,71.605 174.024,71.605L178.65,71.605C178.812,71.605 178.884,71.461 178.884,71.317C178.884,71.155 178.794,70.975 178.596,70.939C177.408,70.759 177.21,70.633 177.21,69.661L177.21,64.603C177.21,62.929 176.058,62.227 174.924,62.227C173.826,62.227 172.854,62.803 172.242,63.181L171.288,63.775Z" style="fill:black;fill-rule:nonzero;"/>
        <path d="M95.292,96.343L97.488,96.343C97.902,96.343 98.064,96.001 98.064,95.767C98.064,95.515 97.884,95.263 97.542,95.263C97.128,95.263 96.012,95.353 95.292,95.389L95.292,93.409C95.292,93.157 95.202,93.049 95.058,93.049C94.734,93.049 94.608,93.409 93.618,94.507C92.718,95.515 92.142,95.713 92.142,96.019C92.142,96.199 92.268,96.289 92.52,96.289L93.582,96.289C93.582,97.765 93.474,101.059 93.474,102.643C93.474,104.101 94.374,104.785 95.508,104.785C96.876,104.785 98.28,103.723 98.28,103.327C98.28,103.201 98.208,103.165 98.1,103.165C97.848,103.165 97.398,103.435 96.642,103.435C95.832,103.435 95.292,103.057 95.292,102.085L95.292,96.343Z" style="fill:black;fill-rule:nonzero;"/>
        <path d="M100.44,100.393C100.44,101.419 100.422,102.229 100.386,102.661C100.314,103.561 100.134,103.777 98.874,103.957C98.676,103.993 98.586,104.155 98.586,104.317C98.586,104.461 98.658,104.605 98.82,104.605L103.554,104.605C103.716,104.605 103.788,104.461 103.788,104.317C103.788,104.155 103.698,103.975 103.5,103.939C102.312,103.759 102.114,103.633 102.114,102.661L102.114,97.639C103.302,97.009 104.094,96.631 104.994,96.631C105.678,96.631 106.416,96.847 106.416,98.269L106.416,100.105C106.416,103.759 106.146,103.777 104.886,103.957C104.688,103.993 104.598,104.155 104.598,104.317C104.598,104.461 104.67,104.605 104.832,104.605L109.638,104.605C109.8,104.605 109.872,104.461 109.872,104.317C109.872,104.155 109.782,103.975 109.584,103.939C108.396,103.759 108.198,103.633 108.198,102.661L108.198,97.603C108.198,95.929 107.028,95.227 105.75,95.227C104.616,95.227 103.608,95.839 102.996,96.199L102.114,96.685L102.114,94.165C102.114,92.239 102.186,91.141 102.186,90.601C102.186,90.061 101.934,89.845 101.592,89.845C101.16,89.845 99.324,90.295 98.694,90.475C98.514,90.529 98.442,90.673 98.442,90.817C98.442,90.961 98.532,91.105 98.73,91.105L99.54,91.105C100.44,91.105 100.44,92.239 100.44,94.165L100.44,100.393Z" style="fill:black;fill-rule:nonzero;"/>
        <path d="M114.336,97.909C114.336,96.613 114.102,95.407 113.526,95.407C113.094,95.407 111.6,95.659 110.97,95.839C110.79,95.893 110.718,96.055 110.718,96.199C110.718,96.361 110.808,96.523 111.06,96.523L111.348,96.523C112.626,96.523 112.716,97.405 112.716,99.331L112.716,100.393C112.716,101.419 112.662,102.229 112.626,102.661C112.554,103.561 112.374,103.777 111.114,103.957C110.916,103.993 110.826,104.155 110.826,104.317C110.826,104.461 110.898,104.605 111.114,104.605L116.316,104.605C116.55,104.605 116.622,104.461 116.622,104.317C116.622,104.155 116.532,103.993 116.334,103.957C115.146,103.777 114.516,103.579 114.39,102.661C114.336,102.229 114.3,101.815 114.3,99.961C114.3,98.269 115.47,97.045 116.262,97.045C116.766,97.045 117,97.387 117.108,97.657C117.36,97.657 118.26,97.423 118.26,96.541C118.26,95.659 117.666,95.227 116.892,95.227C116.064,95.227 115.146,95.749 114.336,97.909Z" style="fill:black;fill-rule:nonzero;"/>
        <path d="M123.444,96.145C124.326,96.145 125.046,96.649 125.046,98.035C125.046,98.323 124.812,98.575 124.308,98.611L120.96,98.809C121.158,97.297 122.148,96.145 123.444,96.145ZM126.954,102.247C126.954,102.067 126.9,101.941 126.72,101.941C126.306,101.941 126,103.309 123.822,103.309C122.238,103.309 120.888,102.373 120.888,99.655L125.838,99.511C126.36,99.493 126.846,99.223 126.846,98.665C126.846,95.983 125.028,95.227 123.75,95.227C120.942,95.227 119.16,97.513 119.16,100.393C119.16,103.381 121.176,104.785 123.408,104.785C125.28,104.785 126.954,103.489 126.954,102.247Z" style="fill:black;fill-rule:nonzero;"/>
        <path d="M131.778,95.227C130.374,95.227 128.646,95.839 128.646,97.585C128.646,99.079 129.762,99.817 130.986,100.519C132.732,101.527 133.272,101.941 133.272,102.733C133.272,103.615 132.462,103.885 131.382,103.885C129.762,103.885 129.762,102.769 129.762,102.085C128.934,101.923 128.196,102.427 128.196,103.237C128.196,104.299 129.33,104.785 131.274,104.785C132.93,104.785 134.892,104.173 134.892,102.319C134.892,100.717 133.776,100.015 132.066,99.007C130.716,98.215 130.23,97.873 130.23,97.153C130.23,96.505 130.77,96.091 131.598,96.091C132.75,96.091 133.02,96.937 133.074,97.711C133.992,97.711 134.514,97.405 134.514,96.685C134.514,95.479 132.804,95.227 131.778,95.227Z" style="fill:black;fill-rule:nonzero;"/>
        <path d="M137.808,100.393C137.808,101.419 137.79,102.229 137.754,102.661C137.682,103.561 137.502,103.777 136.242,103.957C136.044,103.993 135.954,104.155 135.954,104.317C135.954,104.461 136.026,104.605 136.188,104.605L140.922,104.605C141.084,104.605 141.156,104.461 141.156,104.317C141.156,104.155 141.066,103.975 140.868,103.939C139.68,103.759 139.482,103.633 139.482,102.661L139.482,97.639C140.67,97.009 141.462,96.631 142.362,96.631C143.046,96.631 143.784,96.847 143.784,98.269L143.784,100.105C143.784,103.759 143.514,103.777 142.254,103.957C142.056,103.993 141.966,104.155 141.966,104.317C141.966,104.461 142.038,104.605 142.2,104.605L147.006,104.605C147.168,104.605 147.24,104.461 147.24,104.317C147.24,104.155 147.15,103.975 146.952,103.939C145.764,103.759 145.566,103.633 145.566,102.661L145.566,97.603C145.566,95.929 144.396,95.227 143.118,95.227C141.984,95.227 140.976,95.839 140.364,96.199L139.482,96.685L139.482,94.165C139.482,92.239 139.554,91.141 139.554,90.601C139.554,90.061 139.302,89.845 138.96,89.845C138.528,89.845 136.692,90.295 136.062,90.475C135.882,90.529 135.81,90.673 135.81,90.817C135.81,90.961 135.9,91.105 136.098,91.105L136.908,91.105C137.808,91.105 137.808,92.239 137.808,94.165L137.808,100.393Z" style="fill:black;fill-rule:nonzero;"/>
        <path d="M152.748,104.785C155.268,104.785 157.428,103.273 157.428,99.727C157.428,96.919 155.592,95.227 153.162,95.227C150.642,95.227 148.374,96.829 148.374,100.375C148.374,103.183 150.228,104.785 152.748,104.785ZM153.054,103.795C151.308,103.795 150.264,102.157 150.264,99.817C150.264,97.675 151.11,96.235 152.838,96.235C154.584,96.235 155.538,97.927 155.538,100.267C155.538,102.409 154.656,103.795 153.054,103.795Z" style="fill:black;fill-rule:nonzero;"/>
        <path d="M162.09,94.165C162.09,92.239 162.162,91.141 162.162,90.601C162.162,90.061 161.91,89.845 161.568,89.845C161.136,89.845 159.3,90.295 158.67,90.475C158.49,90.529 158.418,90.673 158.418,90.817C158.418,90.961 158.508,91.105 158.706,91.105L159.516,91.105C160.416,91.105 160.416,92.239 160.416,94.165L160.416,100.393C160.416,101.419 160.362,102.229 160.326,102.661C160.254,103.561 160.074,103.759 158.814,103.957C158.616,103.993 158.526,104.155 158.526,104.317C158.526,104.461 158.598,104.605 158.76,104.605L163.602,104.605C163.764,104.605 163.836,104.461 163.836,104.317C163.836,104.155 163.746,103.993 163.548,103.957C162.36,103.759 162.306,103.579 162.18,102.661C162.126,102.229 162.09,101.419 162.09,100.393L162.09,94.165Z" style="fill:black;fill-rule:nonzero;"/>
        <path d="M171.738,100.393C171.738,101.419 171.684,102.733 171.648,103.165C170.91,103.435 170.262,103.507 169.74,103.507C167.742,103.507 167.076,101.815 167.076,99.871C167.076,97.495 168.264,96.163 169.938,96.163C170.982,96.163 171.738,96.829 171.738,98.215L171.738,100.393ZM171.756,103.867C171.954,104.371 172.404,104.785 173.16,104.785C173.826,104.785 175.176,104.227 175.176,103.741C175.176,103.561 175.068,103.507 174.924,103.507C174.69,103.507 174.492,103.651 174.15,103.651C173.43,103.651 173.394,102.013 173.394,100.663L173.394,94.165C173.394,92.239 173.466,91.141 173.466,90.601C173.466,90.061 173.214,89.845 172.872,89.845C172.44,89.845 170.604,90.295 169.974,90.475C169.794,90.529 169.722,90.673 169.722,90.817C169.722,90.961 169.812,91.105 169.974,91.105L170.82,91.105C171.72,91.105 171.72,92.239 171.72,94.165L171.72,95.875C171.126,95.407 170.406,95.227 169.722,95.227C167.328,95.227 165.15,97.189 165.15,100.483C165.15,103.003 166.608,104.785 168.948,104.785C169.776,104.785 170.73,104.479 171.756,103.867Z" style="fill:black;fill-rule:nonzero;"/>
    </g>
    <path d="M177,126.75L205.5,58.925" style="fill:none;stroke-width:1px;stroke:black;"/>
    <path d="M199.35,56L213.523,61.956" style="fill:none;stroke-width:1px;stroke:black;"/>
    <path d="M169.75,124.125L183.923,130.08" style="fill:none;stroke-width:1px;stroke:black;"/>
</svg>
