<?xml version="1.0" standalone="no"?>
<!DOCTYPE svg PUBLIC "-//W3C//DTD SVG 1.1//EN" "http://www.w3.org/Graphics/SVG/1.1/DTD/svg11.dtd">
<svg width="100%" height="100%" viewBox="0 0 198 269" version="1.1" xmlns="http://www.w3.org/2000/svg" xmlns:xlink="http://www.w3.org/1999/xlink" xml:space="preserve" style="fill-rule:evenodd;clip-rule:evenodd;stroke-linecap:round;stroke-linejoin:round;stroke-miterlimit:10;">
    <rect x="-1188" y="-980" width="1677" height="3132" style="fill:white;fill-rule:nonzero;"/>
    <path d="M171,244L27,244L99,172L171,244Z" style="fill:rgb(255,231,0);fill-opacity:0.501961;fill-rule:nonzero;stroke-width:1px;stroke:black;"/>
    <g>
        <path d="M99.889,208.171L99.507,208.171L100.009,205.493C100.391,203.436 101.061,202.528 102.161,202.528C102.878,202.528 103.524,202.886 103.883,203.46L104.122,203.365C104.241,202.982 104.48,202.241 104.672,201.763L104.791,201.404C104.409,201.237 103.667,201.093 103.117,201.093C102.854,201.093 102.472,201.165 102.28,201.26C101.707,201.523 99.746,202.982 99.196,203.556C98.67,204.082 98.383,204.799 98.12,206.162L97.761,208.051C96.781,208.529 96.303,208.721 95.705,208.936L95.585,209.462L97.522,209.462L97.307,210.801C96.59,215.464 95.705,219.911 95.179,221.561C94.748,222.972 94.031,223.713 93.17,223.713C92.62,223.713 92.357,223.546 91.927,223.02L91.592,223.115C91.497,223.665 91.162,224.813 91.042,225.028C91.257,225.148 91.616,225.219 91.879,225.219C92.859,225.219 94.151,224.478 95.083,223.354C96.781,221.346 97.259,219.05 99.268,209.462L101.754,209.462C101.85,209.008 102.017,208.458 102.161,208.123L102.065,207.956C101.372,208.123 101.396,208.171 99.889,208.171Z" style="fill:black;fill-rule:nonzero;"/>
        <path d="M110.072,205.819L109.565,208.036C109.495,208.333 109.461,208.647 109.461,208.926C109.461,209.31 109.618,209.537 109.88,209.537C110.281,209.537 110.997,209.083 112.428,207.896L112.306,207.53C111.887,207.879 111.381,208.35 110.997,208.35C110.84,208.35 110.735,208.193 110.735,207.949C110.735,207.861 110.735,207.809 110.752,207.757L112.358,201.141L112.184,200.984L111.608,201.298C110.892,201.036 110.595,200.967 110.124,200.967C109.635,200.967 109.286,201.054 108.815,201.281C107.733,201.822 107.157,202.346 106.72,203.201C105.952,204.754 105.411,206.849 105.411,208.211C105.411,208.979 105.673,209.572 106.004,209.572C106.65,209.572 108.047,208.664 110.072,205.819ZM110.909,202.154C110.525,204.056 110.194,204.964 109.6,205.872C108.605,207.338 107.541,208.35 106.982,208.35C106.772,208.35 106.668,208.123 106.668,207.652C106.668,206.535 107.157,204.493 107.767,203.096C108.186,202.136 108.588,201.822 109.426,201.822C109.827,201.822 110.141,201.892 110.909,202.154Z" style="fill:black;fill-rule:nonzero;"/>
        <path d="M109.383,213.025C106.677,213.025 105.298,215.172 105.298,219.397C105.298,221.439 105.665,223.202 106.276,224.057C106.887,224.912 107.864,225.401 108.946,225.401C111.582,225.401 112.909,223.132 112.909,218.663C112.909,214.841 111.774,213.025 109.383,213.025ZM109.069,213.776C110.762,213.776 111.442,215.347 111.442,219.536C111.442,223.254 110.779,224.651 109.173,224.651C107.48,224.651 106.764,223.027 106.764,218.768C106.764,215.085 107.41,213.776 109.069,213.776Z" style="fill:black;fill-rule:nonzero;"/>
    </g>
    <g>
        <path d="M54.483,127.17L53.909,127.576C52.642,128.485 51.494,128.963 50.633,128.963C49.509,128.963 48.816,128.078 48.816,126.644C48.816,126.046 48.888,125.4 49.007,124.707C49.414,124.611 52.02,123.894 52.618,123.631C54.65,122.746 55.583,121.646 55.583,120.164C55.583,119.04 54.77,118.299 53.574,118.299C51.948,117.964 49.318,119.71 48.433,121.479C47.716,122.675 46.999,125.52 46.999,127.122C46.999,128.987 48.051,130.087 49.772,130.087C51.135,130.087 52.474,129.418 54.674,127.624L54.483,127.17ZM49.342,123.272C49.748,121.622 50.227,120.594 50.92,119.973C51.351,119.59 52.092,119.303 52.666,119.303C53.359,119.303 53.813,119.781 53.813,120.546C53.813,121.599 52.976,122.722 51.733,123.32C51.064,123.655 50.203,123.918 49.127,124.157L49.342,123.272Z" style="fill:black;fill-rule:nonzero;"/>
        <path d="M62.341,114.237C62.393,113.574 62.481,113.015 62.62,112.299C62.428,112.212 62.359,112.195 62.271,112.195C61.73,112.195 61.189,112.614 60.561,113.504C59.88,114.481 59.199,115.529 58.92,116.139L59.478,113.486C59.548,113.19 59.583,112.963 59.583,112.753C59.583,112.404 59.443,112.195 59.182,112.195C58.815,112.195 58.152,112.561 56.86,113.486L56.371,113.835L56.494,114.184L57.052,113.818C57.541,113.504 57.733,113.416 57.89,113.416C58.065,113.416 58.187,113.574 58.187,113.8C58.187,114.813 57.436,118.409 56.738,120.643L56.912,120.765C57.174,120.678 57.454,120.625 57.855,120.538L58.082,120.503L58.536,118.409C58.85,116.96 59.251,116.035 60.02,115.04C60.613,114.272 61.084,113.905 61.468,113.905C61.73,113.905 61.905,113.992 62.097,114.237L62.341,114.237Z" style="fill:black;fill-rule:nonzero;"/>
        <path d="M63.224,136.404L63.224,135.776L62.317,135.724C61.357,135.671 61.182,135.479 61.182,134.572L61.182,124.325L60.938,124.238C59.803,124.832 58.564,125.355 56.975,125.914L57.097,126.769L57.272,126.769L59.576,125.739C59.681,125.739 59.716,125.896 59.716,126.315L59.716,134.572C59.716,135.479 59.524,135.671 58.581,135.724L57.604,135.776L57.604,136.404C60.292,136.352 60.292,136.352 60.484,136.352C61.025,136.352 62.945,136.404 63.224,136.404Z" style="fill:black;fill-rule:nonzero;"/>
    </g>
    <g>
        <path d="M142.483,127.266L141.909,127.672C140.642,128.581 139.494,129.059 138.633,129.059C137.509,129.059 136.816,128.174 136.816,126.74C136.816,126.142 136.888,125.496 137.007,124.803C137.414,124.707 140.02,123.99 140.618,123.727C142.65,122.842 143.583,121.742 143.583,120.26C143.583,119.136 142.77,118.395 141.574,118.395C139.948,118.06 137.318,119.806 136.433,121.575C135.716,122.771 134.999,125.616 134.999,127.218C134.999,129.083 136.051,130.183 137.772,130.183C139.135,130.183 140.474,129.514 142.674,127.72L142.483,127.266ZM137.342,123.368C137.748,121.718 138.227,120.69 138.92,120.069C139.351,119.686 140.092,119.399 140.666,119.399C141.359,119.399 141.813,119.877 141.813,120.642C141.813,121.695 140.976,122.818 139.733,123.416C139.064,123.751 138.203,124.014 137.127,124.253L137.342,123.368Z" style="fill:black;fill-rule:nonzero;"/>
        <path d="M150.341,114.333C150.393,113.67 150.481,113.111 150.62,112.395C150.428,112.308 150.359,112.291 150.271,112.291C149.73,112.291 149.189,112.71 148.561,113.6C147.88,114.577 147.199,115.625 146.92,116.235L147.478,113.582C147.548,113.286 147.583,113.059 147.583,112.849C147.583,112.5 147.443,112.291 147.182,112.291C146.815,112.291 146.152,112.657 144.86,113.582L144.371,113.931L144.494,114.28L145.052,113.914C145.541,113.6 145.733,113.512 145.89,113.512C146.065,113.512 146.187,113.67 146.187,113.896C146.187,114.909 145.436,118.505 144.738,120.739L144.912,120.861C145.174,120.774 145.454,120.721 145.855,120.634L146.082,120.599L146.536,118.505C146.85,117.056 147.251,116.131 148.02,115.136C148.613,114.368 149.084,114.001 149.468,114.001C149.73,114.001 149.905,114.088 150.097,114.333L150.341,114.333Z" style="fill:black;fill-rule:nonzero;"/>
        <path d="M144.207,135.305L144.207,136.404C147.471,136.404 147.471,136.352 148.1,136.352C148.728,136.352 148.728,136.404 152.097,136.404C152.097,136.038 152.062,135.863 152.062,135.619C152.062,135.392 152.097,135.217 152.097,134.833C150.09,134.921 149.287,134.938 146.058,135.008L149.234,131.639C150.928,129.841 151.451,128.881 151.451,127.572C151.451,125.565 150.09,124.325 147.873,124.325C146.616,124.325 145.761,124.674 144.905,125.547L144.609,127.921L145.377,127.921L145.604,127.118C145.883,126.106 146.25,125.669 147.419,125.669C148.92,125.669 149.88,126.612 149.88,128.096C149.88,129.405 148.606,130.609 146.634,132.704L144.207,135.305Z" style="fill:black;fill-rule:nonzero;"/>
    </g>
    <g>
        <path d="M54.483,199.17L53.909,199.576C52.642,200.485 51.494,200.963 50.633,200.963C49.509,200.963 48.816,200.078 48.816,198.644C48.816,198.046 48.888,197.4 49.007,196.707C49.414,196.611 52.02,195.894 52.618,195.631C54.65,194.746 55.583,193.646 55.583,192.164C55.583,191.04 54.77,190.299 53.574,190.299C51.948,189.964 49.318,191.71 48.433,193.479C47.716,194.675 46.999,197.52 46.999,199.122C46.999,200.987 48.051,202.087 49.772,202.087C51.135,202.087 52.474,201.418 54.674,199.624L54.483,199.17ZM49.342,195.272C49.748,193.622 50.227,192.594 50.92,191.973C51.351,191.59 52.092,191.303 52.666,191.303C53.359,191.303 53.813,191.781 53.813,192.546C53.813,193.599 52.976,194.722 51.733,195.32C51.064,195.655 50.203,195.918 49.127,196.157L49.342,195.272Z" style="fill:black;fill-rule:nonzero;"/>
        <path d="M60.648,189.023L60.142,191.24C60.072,191.537 60.037,191.851 60.037,192.13C60.037,192.514 60.194,192.741 60.456,192.741C60.857,192.741 61.573,192.287 63.004,191.1L62.882,190.734C62.463,191.083 61.957,191.554 61.573,191.554C61.416,191.554 61.311,191.397 61.311,191.153C61.311,191.065 61.311,191.013 61.329,190.961L62.935,184.345L62.76,184.188L62.184,184.502C61.468,184.24 61.172,184.171 60.7,184.171C60.212,184.171 59.862,184.258 59.391,184.485C58.309,185.026 57.733,185.55 57.297,186.405C56.528,187.958 55.987,190.053 55.987,191.415C55.987,192.183 56.249,192.776 56.581,192.776C57.227,192.776 58.623,191.868 60.648,189.023ZM61.486,185.358C61.102,187.26 60.77,188.168 60.177,189.076C59.182,190.542 58.117,191.554 57.558,191.554C57.349,191.554 57.244,191.327 57.244,190.856C57.244,189.739 57.733,187.697 58.344,186.3C58.763,185.34 59.164,185.026 60.002,185.026C60.404,185.026 60.718,185.096 61.486,185.358Z" style="fill:black;fill-rule:nonzero;"/>
        <path d="M63.224,208.404L63.224,207.776L62.317,207.724C61.357,207.671 61.182,207.479 61.182,206.572L61.182,196.325L60.938,196.238C59.803,196.832 58.564,197.355 56.975,197.914L57.097,198.769L57.272,198.769L59.576,197.739C59.681,197.739 59.716,197.896 59.716,198.315L59.716,206.572C59.716,207.479 59.524,207.671 58.581,207.724L57.604,207.776L57.604,208.404C60.292,208.352 60.292,208.352 60.484,208.352C61.025,208.352 62.945,208.404 63.224,208.404Z" style="fill:black;fill-rule:nonzero;"/>
    </g>
    <g>
        <path d="M142.483,199.266L141.909,199.672C140.642,200.581 139.494,201.059 138.633,201.059C137.509,201.059 136.816,200.174 136.816,198.74C136.816,198.142 136.888,197.496 137.007,196.803C137.414,196.707 140.02,195.99 140.618,195.727C142.65,194.842 143.583,193.742 143.583,192.26C143.583,191.136 142.77,190.395 141.574,190.395C139.948,190.06 137.318,191.806 136.433,193.575C135.716,194.771 134.999,197.616 134.999,199.218C134.999,201.083 136.051,202.183 137.772,202.183C139.135,202.183 140.474,201.514 142.674,199.72L142.483,199.266ZM137.342,195.368C137.748,193.718 138.227,192.69 138.92,192.069C139.351,191.686 140.092,191.399 140.666,191.399C141.359,191.399 141.813,191.877 141.813,192.642C141.813,193.695 140.976,194.818 139.733,195.416C139.064,195.751 138.203,196.014 137.127,196.253L137.342,195.368Z" style="fill:black;fill-rule:nonzero;"/>
        <path d="M148.648,189.119L148.142,191.336C148.072,191.633 148.037,191.947 148.037,192.226C148.037,192.61 148.194,192.837 148.456,192.837C148.857,192.837 149.573,192.383 151.004,191.196L150.882,190.83C150.463,191.179 149.957,191.65 149.573,191.65C149.416,191.65 149.311,191.493 149.311,191.249C149.311,191.161 149.311,191.109 149.329,191.057L150.935,184.441L150.76,184.284L150.184,184.598C149.468,184.336 149.172,184.267 148.7,184.267C148.212,184.267 147.862,184.354 147.391,184.581C146.309,185.122 145.733,185.646 145.297,186.501C144.528,188.054 143.987,190.149 143.987,191.511C143.987,192.279 144.249,192.872 144.581,192.872C145.227,192.872 146.623,191.964 148.648,189.119ZM149.486,185.454C149.102,187.356 148.77,188.264 148.177,189.172C147.182,190.638 146.117,191.65 145.558,191.65C145.349,191.65 145.244,191.423 145.244,190.952C145.244,189.835 145.733,187.793 146.344,186.396C146.763,185.436 147.164,185.122 148.002,185.122C148.404,185.122 148.718,185.192 149.486,185.454Z" style="fill:black;fill-rule:nonzero;"/>
        <path d="M144.207,207.305L144.207,208.404C147.471,208.404 147.471,208.352 148.1,208.352C148.728,208.352 148.728,208.404 152.097,208.404C152.097,208.038 152.062,207.863 152.062,207.619C152.062,207.392 152.097,207.217 152.097,206.833C150.09,206.921 149.287,206.938 146.058,207.008L149.234,203.639C150.928,201.841 151.451,200.881 151.451,199.572C151.451,197.565 150.09,196.325 147.873,196.325C146.616,196.325 145.761,196.674 144.905,197.547L144.609,199.921L145.377,199.921L145.604,199.118C145.883,198.106 146.25,197.669 147.419,197.669C148.92,197.669 149.88,198.612 149.88,200.096C149.88,201.405 148.606,202.609 146.634,204.704L144.207,207.305Z" style="fill:black;fill-rule:nonzero;"/>
    </g>
    <g>
        <g>
            <path d="M94.609,155.877C95.111,155.877 95.494,155.853 96.116,155.782C93.462,158.651 92.457,160.636 92.457,163.027C92.457,164.868 93.557,166.183 95.087,166.183C98.387,166.183 102.046,160.277 102.046,156.738C102.046,155.375 101.424,154.395 100.563,154.395C100.252,154.395 99.965,154.49 99.774,154.682L98.579,155.806L98.842,156.26C99.057,156.116 99.272,156.045 99.487,156.045C100.133,156.045 100.515,156.595 100.515,157.551C100.515,161.09 98.196,164.987 96.092,164.987C94.92,164.987 94.179,163.983 94.179,162.429C94.179,159.918 95.111,157.742 97.455,154.825L97.216,154.395C96.737,154.61 96.427,154.682 95.757,154.682C95.087,154.682 94.083,154.634 93.39,154.562L93.103,154.538C92.959,154.514 92.84,154.514 92.816,154.514C92.529,154.514 92.314,154.562 92.051,154.682C91.716,155.327 91.453,156.188 91.142,157.503L91.668,157.503L92.075,156.499C92.242,156.092 92.72,155.829 93.294,155.829C94.083,155.829 93.701,155.877 94.609,155.877Z" style="fill:black;fill-rule:nonzero;"/>
            <path d="M107.302,153.119L106.796,155.336C106.726,155.633 106.691,155.947 106.691,156.226C106.691,156.61 106.848,156.837 107.11,156.837C107.512,156.837 108.227,156.383 109.658,155.196L109.536,154.83C109.117,155.179 108.611,155.65 108.227,155.65C108.07,155.65 107.965,155.493 107.965,155.249C107.965,155.161 107.965,155.109 107.983,155.057L109.589,148.441L109.414,148.284L108.838,148.598C108.122,148.336 107.826,148.267 107.354,148.267C106.866,148.267 106.517,148.354 106.045,148.581C104.963,149.122 104.387,149.646 103.951,150.501C103.183,152.054 102.642,154.149 102.642,155.511C102.642,156.279 102.903,156.872 103.235,156.872C103.881,156.872 105.277,155.964 107.302,153.119ZM108.14,149.454C107.756,151.356 107.424,152.264 106.831,153.172C105.836,154.638 104.771,155.65 104.212,155.65C104.003,155.65 103.898,155.423 103.898,154.952C103.898,153.835 104.387,151.793 104.998,150.396C105.417,149.436 105.818,149.122 106.656,149.122C107.058,149.122 107.372,149.192 108.14,149.454Z" style="fill:black;fill-rule:nonzero;"/>
            <path d="M102.847,171.305L102.847,172.404C106.111,172.404 106.111,172.352 106.74,172.352C107.368,172.352 107.368,172.404 110.737,172.404C110.737,172.038 110.702,171.863 110.702,171.619C110.702,171.392 110.737,171.217 110.737,170.833C108.73,170.921 107.927,170.938 104.698,171.008L107.874,167.639C109.568,165.841 110.091,164.881 110.091,163.572C110.091,161.565 108.73,160.325 106.513,160.325C105.256,160.325 104.401,160.674 103.545,161.547L103.249,163.921L104.017,163.921L104.244,163.118C104.523,162.106 104.89,161.669 106.059,161.669C107.56,161.669 108.52,162.612 108.52,164.096C108.52,165.405 107.246,166.609 105.274,168.704L102.847,171.305Z" style="fill:black;fill-rule:nonzero;"/>
        </g>
    </g>
    <g>
        <clipPath id="_clip1">
            <rect x="90.5" y="72.5" width="20" height="25"/>
        </clipPath>
        <g clip-path="url(#_clip1)">
            <g>
                <g>
                    <path d="M93.609,79.877C94.111,79.877 94.494,79.853 95.116,79.782C92.462,82.651 91.457,84.636 91.457,87.027C91.457,88.868 92.557,90.183 94.087,90.183C97.387,90.183 101.046,84.277 101.046,80.738C101.046,79.375 100.424,78.395 99.563,78.395C99.252,78.395 98.965,78.49 98.774,78.682L97.579,79.806L97.842,80.26C98.057,80.116 98.272,80.045 98.487,80.045C99.133,80.045 99.515,80.595 99.515,81.551C99.515,85.09 97.196,88.987 95.092,88.987C93.92,88.987 93.179,87.983 93.179,86.429C93.179,83.918 94.111,81.742 96.455,78.825L96.216,78.395C95.737,78.61 95.427,78.682 94.757,78.682C94.087,78.682 93.083,78.634 92.39,78.562L92.103,78.538C91.959,78.514 91.84,78.514 91.816,78.514C91.529,78.514 91.314,78.562 91.051,78.682C90.716,79.327 90.453,80.188 90.142,81.503L90.668,81.503L91.075,80.499C91.242,80.092 91.72,79.829 92.294,79.829C93.083,79.829 92.701,79.877 93.609,79.877Z" style="fill:black;fill-rule:nonzero;"/>
                    <path d="M107.995,74.333C108.048,73.67 108.135,73.111 108.274,72.395C108.082,72.308 108.013,72.291 107.925,72.291C107.384,72.291 106.843,72.71 106.215,73.6C105.534,74.577 104.853,75.625 104.574,76.235L105.133,73.582C105.202,73.286 105.237,73.059 105.237,72.849C105.237,72.5 105.098,72.291 104.836,72.291C104.469,72.291 103.806,72.657 102.514,73.582L102.026,73.931L102.148,74.28L102.706,73.914C103.195,73.6 103.387,73.512 103.544,73.512C103.719,73.512 103.841,73.67 103.841,73.896C103.841,74.909 103.09,78.505 102.392,80.739L102.567,80.861C102.828,80.774 103.108,80.721 103.509,80.634L103.736,80.599L104.19,78.505C104.504,77.056 104.906,76.131 105.674,75.136C106.267,74.368 106.738,74.001 107.122,74.001C107.384,74.001 107.559,74.088 107.751,74.333L107.995,74.333Z" style="fill:black;fill-rule:nonzero;"/>
                    <path d="M101.847,95.305L101.847,96.404C105.111,96.404 105.111,96.352 105.74,96.352C106.368,96.352 106.368,96.404 109.737,96.404C109.737,96.038 109.702,95.863 109.702,95.619C109.702,95.392 109.737,95.217 109.737,94.833C107.73,94.921 106.927,94.938 103.698,95.008L106.874,91.639C108.568,89.841 109.091,88.881 109.091,87.572C109.091,85.565 107.73,84.325 105.513,84.325C104.256,84.325 103.401,84.674 102.545,85.547L102.249,87.921L103.017,87.921L103.244,87.118C103.523,86.106 103.89,85.669 105.059,85.669C106.56,85.669 107.52,86.612 107.52,88.096C107.52,89.405 106.246,90.609 104.274,92.704L101.847,95.305Z" style="fill:black;fill-rule:nonzero;"/>
                </g>
            </g>
        </g>
    </g>
    <g>
        <g>
            <path d="M4.609,236.577C5.111,236.577 5.494,236.553 6.116,236.482C3.462,239.351 2.457,241.336 2.457,243.727C2.457,245.568 3.557,246.883 5.087,246.883C8.387,246.883 12.046,240.977 12.046,237.438C12.046,236.075 11.424,235.095 10.563,235.095C10.252,235.095 9.965,235.19 9.774,235.382L8.579,236.506L8.842,236.96C9.057,236.816 9.272,236.745 9.487,236.745C10.133,236.745 10.515,237.295 10.515,238.251C10.515,241.79 8.196,245.687 6.092,245.687C4.92,245.687 4.179,244.683 4.179,243.129C4.179,240.618 5.111,238.442 7.455,235.525L7.216,235.095C6.737,235.31 6.427,235.382 5.757,235.382C5.087,235.382 4.083,235.334 3.39,235.262L3.103,235.238C2.959,235.214 2.84,235.214 2.816,235.214C2.529,235.214 2.314,235.262 2.051,235.382C1.716,236.027 1.453,236.888 1.142,238.203L1.668,238.203L2.075,237.199C2.242,236.792 2.72,236.529 3.294,236.529C4.083,236.529 3.701,236.577 4.609,236.577Z" style="fill:black;fill-rule:nonzero;"/>
            <path d="M17.302,233.819L16.796,236.036C16.726,236.333 16.691,236.647 16.691,236.926C16.691,237.31 16.848,237.537 17.11,237.537C17.512,237.537 18.227,237.083 19.659,235.896L19.536,235.53C19.117,235.879 18.611,236.35 18.227,236.35C18.07,236.35 17.965,236.193 17.965,235.949C17.965,235.861 17.965,235.809 17.983,235.757L19.589,229.141L19.414,228.984L18.838,229.298C18.122,229.036 17.826,228.967 17.354,228.967C16.866,228.967 16.517,229.054 16.045,229.281C14.963,229.822 14.387,230.346 13.951,231.201C13.183,232.754 12.642,234.849 12.642,236.211C12.642,236.979 12.903,237.572 13.235,237.572C13.881,237.572 15.277,236.664 17.302,233.819ZM18.14,230.154C17.756,232.056 17.424,232.964 16.831,233.872C15.836,235.338 14.771,236.35 14.212,236.35C14.003,236.35 13.898,236.123 13.898,235.652C13.898,234.535 14.387,232.493 14.998,231.096C15.417,230.136 15.818,229.822 16.656,229.822C17.058,229.822 17.372,229.892 18.14,230.154Z" style="fill:black;fill-rule:nonzero;"/>
            <path d="M17.159,241.025C14.453,241.025 13.074,243.172 13.074,247.397C13.074,249.439 13.441,251.202 14.052,252.057C14.663,252.912 15.64,253.401 16.722,253.401C19.358,253.401 20.685,251.132 20.685,246.663C20.685,242.841 19.55,241.025 17.159,241.025ZM16.845,241.776C18.538,241.776 19.218,243.347 19.218,247.536C19.218,251.254 18.555,252.651 16.949,252.651C15.256,252.651 14.54,251.027 14.54,246.768C14.54,243.085 15.186,241.776 16.845,241.776Z" style="fill:black;fill-rule:nonzero;"/>
        </g>
    </g>
    <path d="M101.506,174.505C100.122,175.889 97.878,175.889 96.495,174.505C95.111,173.122 95.111,170.878 96.495,169.495C97.878,168.111 100.122,168.111 101.506,169.495C102.889,170.878 102.889,173.122 101.506,174.505" style="fill:black;fill-rule:nonzero;stroke-width:1px;stroke:black;"/>
    <path d="M99,172L171,244L171,100L99,28L99,172Z" style="fill:rgb(0,249,0);fill-opacity:0.501961;fill-rule:nonzero;stroke-width:1px;stroke:black;"/>
    <path d="M99,172L27,244L27,100L99,28L99,172Z" style="fill:rgb(3,60,255);fill-opacity:0.501961;fill-rule:nonzero;stroke-width:1px;stroke:black;"/>
    <path d="M171,100L27,100L99,28L171,100Z" style="fill:rgb(254,64,255);fill-opacity:0.501961;fill-rule:nonzero;stroke-width:1px;stroke:black;"/>
    <path d="M101.506,30.506C100.122,31.889 97.878,31.889 96.495,30.506C95.111,29.122 95.111,26.878 96.495,25.495C97.878,24.111 100.122,24.111 101.506,25.495C102.889,26.878 102.889,29.122 101.506,30.506" style="fill:black;fill-rule:nonzero;"/>
    <path d="M101.505,30.505C100.122,31.889 97.878,31.889 96.495,30.505C95.111,29.122 95.111,26.878 96.495,25.495C97.878,24.111 100.122,24.111 101.505,25.495C102.889,26.878 102.889,29.122 101.505,30.505" style="fill:none;stroke-width:1px;stroke:black;"/>
    <path d="M173.505,102.506C172.122,103.889 169.878,103.889 168.495,102.506C167.111,101.122 167.111,98.878 168.495,97.495C169.878,96.111 172.122,96.111 173.505,97.495C174.889,98.878 174.889,101.122 173.505,102.506" style="fill:black;fill-rule:nonzero;"/>
    <path d="M173.505,102.505C172.122,103.889 169.878,103.889 168.495,102.505C167.111,101.122 167.111,98.878 168.495,97.495C169.878,96.111 172.122,96.111 173.505,97.495C174.889,98.878 174.889,101.122 173.505,102.505" style="fill:none;stroke-width:1px;stroke:black;"/>
    <path d="M29.505,102.506C28.122,103.889 25.878,103.889 24.495,102.506C23.111,101.122 23.111,98.878 24.495,97.495C25.878,96.111 28.122,96.111 29.505,97.495C30.889,98.878 30.889,101.122 29.505,102.506" style="fill:black;fill-rule:nonzero;"/>
    <path d="M29.505,102.505C28.122,103.889 25.878,103.889 24.495,102.505C23.111,101.122 23.111,98.878 24.495,97.495C25.878,96.111 28.122,96.111 29.505,97.495C30.889,98.878 30.889,101.122 29.505,102.505" style="fill:none;stroke-width:1px;stroke:black;"/>
    <path d="M173.505,246.505C172.122,247.889 169.878,247.889 168.495,246.505C167.111,245.122 167.111,242.878 168.495,241.495C169.878,240.111 172.122,240.111 173.505,241.495C174.889,242.878 174.889,245.122 173.505,246.505" style="fill:black;fill-rule:nonzero;"/>
    <path d="M173.505,246.505C172.122,247.889 169.878,247.889 168.495,246.505C167.111,245.122 167.111,242.878 168.495,241.495C169.878,240.111 172.122,240.111 173.505,241.495C174.889,242.878 174.889,245.122 173.505,246.505" style="fill:none;stroke-width:1px;stroke:black;"/>
    <path d="M29.505,246.505C28.122,247.889 25.878,247.889 24.495,246.505C23.111,245.122 23.111,242.878 24.495,241.495C25.878,240.111 28.122,240.111 29.505,241.495C30.889,242.878 30.889,245.122 29.505,246.505" style="fill:black;fill-rule:nonzero;stroke-width:1px;stroke:black;"/>
    <g>
        <clipPath id="_clip2">
            <rect x="177.5" y="228.5" width="19" height="25"/>
        </clipPath>
        <g clip-path="url(#_clip2)">
            <g>
                <g>
                    <path d="M181.609,235.781C182.111,235.781 182.494,235.757 183.116,235.686C180.462,238.555 179.457,240.54 179.457,242.931C179.457,244.772 180.557,246.087 182.087,246.087C185.387,246.087 189.046,240.181 189.046,236.642C189.046,235.279 188.424,234.299 187.563,234.299C187.252,234.299 186.965,234.394 186.774,234.586L185.579,235.71L185.842,236.164C186.057,236.02 186.272,235.949 186.487,235.949C187.133,235.949 187.515,236.499 187.515,237.455C187.515,240.994 185.196,244.891 183.092,244.891C181.92,244.891 181.179,243.887 181.179,242.333C181.179,239.822 182.111,237.646 184.455,234.729L184.216,234.299C183.737,234.514 183.427,234.586 182.757,234.586C182.087,234.586 181.083,234.538 180.39,234.466L180.103,234.442C179.959,234.418 179.84,234.418 179.816,234.418C179.529,234.418 179.314,234.466 179.051,234.586C178.716,235.231 178.453,236.092 178.142,237.407L178.668,237.407L179.075,236.403C179.242,235.996 179.72,235.733 180.294,235.733C181.083,235.733 180.701,235.781 181.609,235.781Z" style="fill:black;fill-rule:nonzero;"/>
                    <path d="M194.302,233.023L193.796,235.24C193.726,235.537 193.691,235.851 193.691,236.13C193.691,236.514 193.848,236.741 194.11,236.741C194.512,236.741 195.227,236.287 196.659,235.1L196.536,234.734C196.117,235.083 195.611,235.554 195.227,235.554C195.07,235.554 194.965,235.397 194.965,235.153C194.965,235.065 194.965,235.013 194.983,234.961L196.589,228.345L196.414,228.188L195.838,228.502C195.122,228.24 194.826,228.171 194.354,228.171C193.866,228.171 193.517,228.258 193.045,228.485C191.963,229.026 191.387,229.55 190.951,230.405C190.183,231.958 189.642,234.053 189.642,235.415C189.642,236.183 189.903,236.776 190.235,236.776C190.881,236.776 192.277,235.868 194.302,233.023ZM195.14,229.358C194.756,231.26 194.424,232.168 193.831,233.076C192.836,234.542 191.771,235.554 191.212,235.554C191.003,235.554 190.898,235.327 190.898,234.856C190.898,233.739 191.387,231.697 191.998,230.3C192.417,229.34 192.818,229.026 193.656,229.026C194.058,229.026 194.372,229.096 195.14,229.358Z" style="fill:black;fill-rule:nonzero;"/>
                    <path d="M196.864,252.404L196.864,251.776L195.957,251.724C194.997,251.671 194.822,251.479 194.822,250.572L194.822,240.325L194.578,240.238C193.443,240.832 192.204,241.355 190.615,241.914L190.737,242.769L190.912,242.769L193.216,241.739C193.321,241.739 193.356,241.896 193.356,242.315L193.356,250.572C193.356,251.479 193.164,251.671 192.221,251.724L191.244,251.776L191.244,252.404C193.932,252.352 193.932,252.352 194.124,252.352C194.665,252.352 196.585,252.404 196.864,252.404Z" style="fill:black;fill-rule:nonzero;"/>
                </g>
            </g>
        </g>
    </g>
    <g>
        <clipPath id="_clip3">
            <rect x="0" y="81.5" width="20" height="29"/>
        </clipPath>
        <g clip-path="url(#_clip3)">
            <g>
                <path d="M3.609,93.477C4.111,93.477 4.494,93.453 5.116,93.382C2.462,96.251 1.457,98.236 1.457,100.627C1.457,102.468 2.557,103.783 4.087,103.783C7.387,103.783 11.046,97.877 11.046,94.338C11.046,92.975 10.424,91.995 9.563,91.995C9.252,91.995 8.965,92.09 8.774,92.282L7.579,93.406L7.842,93.86C8.057,93.716 8.272,93.645 8.487,93.645C9.133,93.645 9.515,94.195 9.515,95.151C9.515,98.69 7.196,102.587 5.092,102.587C3.92,102.587 3.179,101.583 3.179,100.029C3.179,97.518 4.111,95.342 6.455,92.425L6.216,91.995C5.737,92.21 5.427,92.282 4.757,92.282C4.087,92.282 3.083,92.234 2.39,92.162L2.103,92.138C1.959,92.114 1.84,92.114 1.816,92.114C1.529,92.114 1.314,92.162 1.051,92.282C0.716,92.927 0.453,93.788 0.142,95.103L0.668,95.103L1.075,94.099C1.242,93.692 1.72,93.429 2.294,93.429C3.083,93.429 2.701,93.477 3.609,93.477Z" style="fill:black;fill-rule:nonzero;"/>
                <path d="M15.674,81.677L15.464,81.485C14.557,81.939 13.928,82.096 12.671,82.218L12.602,82.585L13.439,82.585C13.858,82.585 14.033,82.707 14.033,83.004C14.033,83.126 14.015,83.318 13.998,83.423L12.235,93.041C12.218,93.093 12.218,93.163 12.218,93.215C12.218,93.896 13.055,94.472 14.015,94.472C14.661,94.472 15.551,94.14 16.302,93.599C17.978,92.412 19.13,90.021 19.13,87.717C19.13,87.054 18.973,86.373 18.763,86.111C18.641,85.954 18.414,85.867 18.152,85.867C17.733,85.867 17.21,86.006 16.721,86.251C15.831,86.722 15.255,87.246 14.173,88.625L15.674,81.677ZM17.192,86.879C17.646,86.879 17.873,87.28 17.873,88.136C17.873,89.253 17.506,90.754 16.983,91.889C16.407,93.093 15.709,93.652 14.766,93.652C13.963,93.652 13.527,93.25 13.527,92.517C13.527,91.924 13.788,89.462 15.202,87.979C15.778,87.385 16.686,86.879 17.192,86.879Z" style="fill:black;fill-rule:nonzero;"/>
                <path d="M16.159,97.925C13.453,97.925 12.074,100.072 12.074,104.297C12.074,106.339 12.441,108.102 13.052,108.957C13.663,109.812 14.64,110.301 15.722,110.301C18.358,110.301 19.685,108.032 19.685,103.563C19.685,99.741 18.55,97.925 16.159,97.925ZM15.845,98.676C17.538,98.676 18.218,100.247 18.218,104.436C18.218,108.154 17.555,109.551 15.949,109.551C14.256,109.551 13.54,107.927 13.54,103.668C13.54,99.985 14.186,98.676 15.845,98.676Z" style="fill:black;fill-rule:nonzero;"/>
            </g>
        </g>
    </g>
    <g>
        <g>
            <path d="M181.609,93.681C182.111,93.681 182.494,93.657 183.116,93.586C180.462,96.455 179.457,98.44 179.457,100.831C179.457,102.672 180.557,103.987 182.087,103.987C185.387,103.987 189.046,98.081 189.046,94.542C189.046,93.179 188.424,92.199 187.563,92.199C187.252,92.199 186.965,92.294 186.774,92.486L185.579,93.61L185.842,94.064C186.057,93.92 186.272,93.849 186.487,93.849C187.133,93.849 187.515,94.399 187.515,95.355C187.515,98.894 185.196,102.791 183.092,102.791C181.92,102.791 181.179,101.787 181.179,100.233C181.179,97.722 182.111,95.546 184.455,92.629L184.216,92.199C183.737,92.414 183.427,92.486 182.757,92.486C182.087,92.486 181.083,92.438 180.39,92.366L180.103,92.342C179.959,92.318 179.84,92.318 179.816,92.318C179.529,92.318 179.314,92.366 179.051,92.486C178.716,93.131 178.453,93.992 178.142,95.307L178.668,95.307L179.075,94.303C179.242,93.896 179.72,93.633 180.294,93.633C181.083,93.633 180.701,93.681 181.609,93.681Z" style="fill:black;fill-rule:nonzero;"/>
            <path d="M193.674,81.881L193.464,81.689C192.557,82.143 191.928,82.3 190.671,82.422L190.602,82.789L191.439,82.789C191.858,82.789 192.033,82.911 192.033,83.208C192.033,83.33 192.015,83.522 191.998,83.627L190.235,93.245C190.218,93.297 190.218,93.367 190.218,93.419C190.218,94.1 191.055,94.676 192.015,94.676C192.661,94.676 193.551,94.344 194.302,93.803C195.978,92.616 197.13,90.225 197.13,87.921C197.13,87.258 196.973,86.577 196.763,86.315C196.641,86.158 196.414,86.071 196.152,86.071C195.733,86.071 195.21,86.21 194.721,86.455C193.831,86.926 193.255,87.45 192.173,88.829L193.674,81.881ZM195.192,87.083C195.646,87.083 195.873,87.484 195.873,88.34C195.873,89.457 195.506,90.958 194.983,92.093C194.407,93.297 193.709,93.856 192.766,93.856C191.963,93.856 191.527,93.454 191.527,92.721C191.527,92.128 191.788,89.666 193.202,88.183C193.778,87.589 194.686,87.083 195.192,87.083Z" style="fill:black;fill-rule:nonzero;"/>
            <path d="M196.864,110.304L196.864,109.676L195.957,109.624C194.997,109.571 194.822,109.379 194.822,108.472L194.822,98.225L194.578,98.138C193.443,98.732 192.204,99.255 190.615,99.814L190.737,100.669L190.912,100.669L193.216,99.639C193.321,99.639 193.356,99.796 193.356,100.215L193.356,108.472C193.356,109.379 193.164,109.571 192.221,109.624L191.244,109.676L191.244,110.304C193.932,110.252 193.932,110.252 194.124,110.252C194.665,110.252 196.585,110.304 196.864,110.304Z" style="fill:black;fill-rule:nonzero;"/>
        </g>
    </g>
    <g>
        <g>
            <path d="M93.609,12.777C94.111,12.777 94.494,12.753 95.116,12.682C92.462,15.551 91.457,17.536 91.457,19.927C91.457,21.768 92.557,23.083 94.087,23.083C97.387,23.083 101.046,17.177 101.046,13.638C101.046,12.275 100.424,11.295 99.563,11.295C99.252,11.295 98.965,11.39 98.774,11.582L97.579,12.706L97.842,13.16C98.057,13.016 98.272,12.945 98.487,12.945C99.133,12.945 99.515,13.495 99.515,14.451C99.515,17.99 97.196,21.887 95.092,21.887C93.92,21.887 93.179,20.883 93.179,19.329C93.179,16.818 94.111,14.642 96.455,11.725L96.216,11.295C95.737,11.51 95.427,11.582 94.757,11.582C94.087,11.582 93.083,11.534 92.39,11.462L92.103,11.438C91.959,11.414 91.84,11.414 91.816,11.414C91.529,11.414 91.314,11.462 91.051,11.582C90.716,12.227 90.453,13.088 90.142,14.403L90.668,14.403L91.075,13.399C91.242,12.992 91.72,12.729 92.294,12.729C93.083,12.729 92.701,12.777 93.609,12.777Z" style="fill:black;fill-rule:nonzero;"/>
            <path d="M105.674,0.977L105.464,0.785C104.557,1.239 103.928,1.396 102.671,1.518L102.602,1.885L103.439,1.885C103.858,1.885 104.033,2.007 104.033,2.304C104.033,2.426 104.015,2.618 103.998,2.723L102.235,12.341C102.218,12.393 102.218,12.463 102.218,12.515C102.218,13.196 103.055,13.772 104.015,13.772C104.661,13.772 105.551,13.44 106.302,12.899C107.978,11.712 109.13,9.321 109.13,7.017C109.13,6.354 108.973,5.673 108.763,5.411C108.641,5.254 108.414,5.167 108.152,5.167C107.733,5.167 107.21,5.306 106.721,5.551C105.831,6.022 105.255,6.546 104.173,7.925L105.674,0.977ZM107.192,6.179C107.646,6.179 107.873,6.58 107.873,7.436C107.873,8.553 107.506,10.054 106.983,11.189C106.407,12.393 105.709,12.952 104.766,12.952C103.963,12.952 103.527,12.55 103.527,11.817C103.527,11.224 103.788,8.762 105.202,7.279C105.778,6.685 106.686,6.179 107.192,6.179Z" style="fill:black;fill-rule:nonzero;"/>
            <path d="M101.847,28.205L101.847,29.304C105.111,29.304 105.111,29.252 105.74,29.252C106.368,29.252 106.368,29.304 109.737,29.304C109.737,28.938 109.702,28.763 109.702,28.519C109.702,28.292 109.737,28.117 109.737,27.733C107.73,27.821 106.927,27.838 103.698,27.908L106.874,24.539C108.568,22.741 109.091,21.781 109.091,20.472C109.091,18.465 107.73,17.225 105.513,17.225C104.256,17.225 103.401,17.574 102.545,18.447L102.249,20.821L103.017,20.821L103.244,20.018C103.523,19.006 103.89,18.569 105.059,18.569C106.56,18.569 107.52,19.512 107.52,20.996C107.52,22.305 106.246,23.509 104.274,25.604L101.847,28.205Z" style="fill:black;fill-rule:nonzero;"/>
        </g>
    </g>
    <g>
        <clipPath id="_clip4">
            <rect x="0.5" y="153" width="20" height="26"/>
        </clipPath>
        <g clip-path="url(#_clip4)">
            <g>
                <g>
                    <path d="M3.609,161.577C4.111,161.577 4.494,161.553 5.116,161.482C2.462,164.351 1.457,166.336 1.457,168.727C1.457,170.568 2.557,171.883 4.087,171.883C7.387,171.883 11.046,165.977 11.046,162.438C11.046,161.075 10.424,160.095 9.563,160.095C9.252,160.095 8.965,160.19 8.774,160.382L7.579,161.506L7.842,161.96C8.057,161.816 8.272,161.745 8.487,161.745C9.133,161.745 9.515,162.295 9.515,163.251C9.515,166.79 7.196,170.687 5.092,170.687C3.92,170.687 3.179,169.683 3.179,168.129C3.179,165.618 4.111,163.442 6.455,160.525L6.216,160.095C5.737,160.31 5.427,160.382 4.757,160.382C4.087,160.382 3.083,160.334 2.39,160.262L2.103,160.238C1.959,160.214 1.84,160.214 1.816,160.214C1.529,160.214 1.314,160.262 1.051,160.382C0.716,161.027 0.453,161.888 0.142,163.203L0.668,163.203L1.075,162.199C1.242,161.792 1.72,161.529 2.294,161.529C3.083,161.529 2.701,161.577 3.609,161.577Z" style="fill:black;fill-rule:nonzero;"/>
                    <path d="M17.995,156.033C18.048,155.37 18.135,154.811 18.274,154.095C18.082,154.008 18.013,153.991 17.925,153.991C17.384,153.991 16.843,154.41 16.215,155.3C15.534,156.277 14.853,157.325 14.574,157.935L15.133,155.282C15.202,154.986 15.237,154.759 15.237,154.549C15.237,154.2 15.098,153.991 14.836,153.991C14.469,153.991 13.806,154.357 12.514,155.282L12.026,155.631L12.148,155.98L12.706,155.614C13.195,155.3 13.387,155.212 13.544,155.212C13.719,155.212 13.841,155.37 13.841,155.596C13.841,156.609 13.09,160.205 12.392,162.439L12.567,162.561C12.828,162.474 13.108,162.421 13.509,162.334L13.736,162.299L14.19,160.205C14.504,158.756 14.906,157.831 15.674,156.836C16.267,156.068 16.738,155.701 17.122,155.701C17.384,155.701 17.559,155.788 17.751,156.033L17.995,156.033Z" style="fill:black;fill-rule:nonzero;"/>
                    <path d="M16.159,166.025C13.453,166.025 12.074,168.172 12.074,172.397C12.074,174.439 12.441,176.202 13.052,177.057C13.663,177.912 14.64,178.401 15.722,178.401C18.358,178.401 19.685,176.132 19.685,171.663C19.685,167.841 18.55,166.025 16.159,166.025ZM15.845,166.776C17.538,166.776 18.218,168.347 18.218,172.536C18.218,176.254 17.555,177.651 15.949,177.651C14.256,177.651 13.54,176.027 13.54,171.768C13.54,168.085 14.186,166.776 15.845,166.776Z" style="fill:black;fill-rule:nonzero;"/>
                </g>
            </g>
        </g>
    </g>
    <g>
        <g>
            <path d="M181.609,161.781C182.111,161.781 182.494,161.757 183.116,161.686C180.462,164.555 179.457,166.54 179.457,168.931C179.457,170.772 180.557,172.087 182.087,172.087C185.387,172.087 189.046,166.181 189.046,162.642C189.046,161.279 188.424,160.299 187.563,160.299C187.252,160.299 186.965,160.394 186.774,160.586L185.579,161.71L185.842,162.164C186.057,162.02 186.272,161.949 186.487,161.949C187.133,161.949 187.515,162.499 187.515,163.455C187.515,166.994 185.196,170.891 183.092,170.891C181.92,170.891 181.179,169.887 181.179,168.333C181.179,165.822 182.111,163.646 184.455,160.729L184.216,160.299C183.737,160.514 183.427,160.586 182.757,160.586C182.087,160.586 181.083,160.538 180.39,160.466L180.103,160.442C179.959,160.418 179.84,160.418 179.816,160.418C179.529,160.418 179.314,160.466 179.051,160.586C178.716,161.231 178.453,162.092 178.142,163.407L178.668,163.407L179.075,162.403C179.242,161.996 179.72,161.733 180.294,161.733C181.083,161.733 180.701,161.781 181.609,161.781Z" style="fill:black;fill-rule:nonzero;"/>
            <path d="M195.995,156.237C196.048,155.574 196.135,155.015 196.274,154.299C196.082,154.212 196.013,154.195 195.925,154.195C195.384,154.195 194.843,154.614 194.215,155.504C193.534,156.481 192.853,157.529 192.574,158.139L193.133,155.486C193.202,155.19 193.237,154.963 193.237,154.753C193.237,154.404 193.098,154.195 192.836,154.195C192.469,154.195 191.806,154.561 190.514,155.486L190.026,155.835L190.148,156.184L190.706,155.818C191.195,155.504 191.387,155.416 191.544,155.416C191.719,155.416 191.841,155.574 191.841,155.8C191.841,156.813 191.09,160.409 190.392,162.643L190.567,162.765C190.828,162.678 191.108,162.625 191.509,162.538L191.736,162.503L192.19,160.409C192.504,158.96 192.906,158.035 193.674,157.04C194.267,156.272 194.738,155.905 195.122,155.905C195.384,155.905 195.559,155.992 195.751,156.237L195.995,156.237Z" style="fill:black;fill-rule:nonzero;"/>
            <path d="M196.864,178.404L196.864,177.776L195.957,177.724C194.997,177.671 194.822,177.479 194.822,176.572L194.822,166.325L194.578,166.238C193.443,166.832 192.204,167.355 190.615,167.914L190.737,168.769L190.912,168.769L193.216,167.739C193.321,167.739 193.356,167.896 193.356,168.315L193.356,176.572C193.356,177.479 193.164,177.671 192.221,177.724L191.244,177.776L191.244,178.404C193.932,178.352 193.932,178.352 194.124,178.352C194.665,178.352 196.585,178.404 196.864,178.404Z" style="fill:black;fill-rule:nonzero;"/>
        </g>
    </g>
    <g>
        <path d="M98.983,258.966L98.409,259.372C97.142,260.281 95.994,260.759 95.133,260.759C94.009,260.759 93.316,259.874 93.316,258.44C93.316,257.842 93.388,257.196 93.507,256.503C93.914,256.407 96.52,255.69 97.118,255.427C99.15,254.542 100.083,253.442 100.083,251.96C100.083,250.836 99.27,250.095 98.074,250.095C96.448,249.76 93.818,251.506 92.933,253.275C92.216,254.471 91.499,257.316 91.499,258.918C91.499,260.783 92.551,261.883 94.272,261.883C95.635,261.883 96.974,261.214 99.174,259.42L98.983,258.966ZM93.842,255.068C94.248,253.418 94.727,252.39 95.42,251.769C95.851,251.386 96.592,251.099 97.166,251.099C97.859,251.099 98.313,251.577 98.313,252.342C98.313,253.395 97.476,254.518 96.233,255.116C95.564,255.451 94.703,255.714 93.627,255.953L93.842,255.068Z" style="fill:black;fill-rule:nonzero;"/>
        <path d="M105.148,248.819L104.642,251.036C104.572,251.333 104.537,251.647 104.537,251.926C104.537,252.31 104.694,252.537 104.956,252.537C105.357,252.537 106.073,252.083 107.504,250.896L107.382,250.53C106.963,250.879 106.457,251.35 106.073,251.35C105.916,251.35 105.811,251.193 105.811,250.949C105.811,250.861 105.811,250.809 105.829,250.757L107.435,244.141L107.26,243.984L106.684,244.298C105.968,244.036 105.672,243.967 105.2,243.967C104.712,243.967 104.362,244.054 103.891,244.281C102.809,244.822 102.233,245.346 101.797,246.201C101.028,247.754 100.487,249.849 100.487,251.211C100.487,251.979 100.749,252.572 101.081,252.572C101.727,252.572 103.123,251.664 105.148,248.819ZM105.986,245.154C105.602,247.056 105.27,247.964 104.677,248.872C103.682,250.338 102.617,251.35 102.058,251.35C101.849,251.35 101.744,251.123 101.744,250.652C101.744,249.535 102.233,247.493 102.844,246.096C103.263,245.136 103.664,244.822 104.502,244.822C104.904,244.822 105.218,244.892 105.986,245.154Z" style="fill:black;fill-rule:nonzero;"/>
        <path d="M105.019,256.025C102.313,256.025 100.934,258.172 100.934,262.397C100.934,264.439 101.301,266.202 101.912,267.057C102.523,267.912 103.5,268.401 104.582,268.401C107.218,268.401 108.545,266.132 108.545,261.663C108.545,257.841 107.41,256.025 105.019,256.025ZM104.705,256.776C106.398,256.776 107.078,258.347 107.078,262.536C107.078,266.254 106.415,267.651 104.809,267.651C103.116,267.651 102.4,266.027 102.4,261.768C102.4,258.085 103.046,256.776 104.705,256.776Z" style="fill:black;fill-rule:nonzero;"/>
    </g>
    <g>
        <path d="M53.983,47.07L53.409,47.476C52.142,48.385 50.994,48.863 50.133,48.863C49.009,48.863 48.316,47.978 48.316,46.544C48.316,45.946 48.388,45.3 48.507,44.607C48.914,44.511 51.52,43.794 52.118,43.531C54.15,42.646 55.083,41.546 55.083,40.064C55.083,38.94 54.27,38.199 53.074,38.199C51.448,37.864 48.818,39.61 47.933,41.379C47.216,42.575 46.499,45.42 46.499,47.022C46.499,48.887 47.551,49.987 49.272,49.987C50.635,49.987 51.974,49.318 54.174,47.524L53.983,47.07ZM48.842,43.172C49.248,41.522 49.727,40.494 50.42,39.873C50.851,39.49 51.592,39.203 52.166,39.203C52.859,39.203 53.313,39.681 53.313,40.446C53.313,41.499 52.476,42.622 51.233,43.22C50.564,43.555 49.703,43.818 48.627,44.057L48.842,43.172Z" style="fill:black;fill-rule:nonzero;"/>
        <path d="M59.52,27.881L59.31,27.689C58.402,28.143 57.774,28.3 56.517,28.422L56.447,28.789L57.285,28.789C57.704,28.789 57.879,28.911 57.879,29.208C57.879,29.33 57.861,29.522 57.844,29.627L56.081,39.245C56.063,39.297 56.063,39.367 56.063,39.419C56.063,40.1 56.901,40.676 57.861,40.676C58.507,40.676 59.397,40.344 60.148,39.803C61.824,38.616 62.976,36.225 62.976,33.921C62.976,33.258 62.819,32.577 62.609,32.315C62.487,32.158 62.26,32.071 61.998,32.071C61.579,32.071 61.056,32.21 60.567,32.455C59.677,32.926 59.101,33.45 58.018,34.829L59.52,27.881ZM61.038,33.083C61.492,33.083 61.719,33.484 61.719,34.34C61.719,35.457 61.352,36.958 60.829,38.093C60.253,39.297 59.554,39.856 58.612,39.856C57.809,39.856 57.373,39.454 57.373,38.721C57.373,38.128 57.634,35.666 59.048,34.183C59.624,33.589 60.532,33.083 61.038,33.083Z" style="fill:black;fill-rule:nonzero;"/>
        <path d="M62.724,56.304L62.724,55.676L61.817,55.624C60.857,55.571 60.682,55.379 60.682,54.472L60.682,44.225L60.438,44.138C59.303,44.732 58.064,45.255 56.475,45.814L56.597,46.669L56.772,46.669L59.076,45.639C59.181,45.639 59.216,45.796 59.216,46.215L59.216,54.472C59.216,55.379 59.024,55.571 58.081,55.624L57.104,55.676L57.104,56.304C59.792,56.252 59.792,56.252 59.984,56.252C60.525,56.252 62.445,56.304 62.724,56.304Z" style="fill:black;fill-rule:nonzero;"/>
    </g>
    <g>
        <path d="M142.483,47.166L141.909,47.572C140.642,48.481 139.494,48.959 138.633,48.959C137.509,48.959 136.816,48.074 136.816,46.64C136.816,46.042 136.888,45.396 137.007,44.703C137.414,44.607 140.02,43.89 140.618,43.627C142.65,42.742 143.583,41.642 143.583,40.16C143.583,39.036 142.77,38.295 141.574,38.295C139.948,37.96 137.318,39.706 136.433,41.475C135.716,42.671 134.999,45.516 134.999,47.118C134.999,48.983 136.051,50.083 137.772,50.083C139.135,50.083 140.474,49.414 142.674,47.62L142.483,47.166ZM137.342,43.268C137.748,41.618 138.227,40.59 138.92,39.969C139.351,39.586 140.092,39.299 140.666,39.299C141.359,39.299 141.813,39.777 141.813,40.542C141.813,41.595 140.976,42.718 139.733,43.316C139.064,43.651 138.203,43.914 137.127,44.153L137.342,43.268Z" style="fill:black;fill-rule:nonzero;"/>
        <path d="M148.02,27.977L147.81,27.785C146.902,28.239 146.274,28.396 145.017,28.518L144.947,28.885L145.785,28.885C146.204,28.885 146.379,29.007 146.379,29.304C146.379,29.426 146.361,29.618 146.344,29.723L144.581,39.341C144.563,39.393 144.563,39.463 144.563,39.515C144.563,40.196 145.401,40.772 146.361,40.772C147.007,40.772 147.897,40.44 148.648,39.899C150.324,38.712 151.476,36.321 151.476,34.017C151.476,33.354 151.319,32.673 151.109,32.411C150.987,32.254 150.76,32.167 150.498,32.167C150.079,32.167 149.556,32.306 149.067,32.551C148.177,33.022 147.601,33.546 146.518,34.925L148.02,27.977ZM149.538,33.179C149.992,33.179 150.219,33.58 150.219,34.436C150.219,35.553 149.852,37.054 149.329,38.189C148.753,39.393 148.054,39.952 147.112,39.952C146.309,39.952 145.873,39.55 145.873,38.817C145.873,38.224 146.134,35.762 147.548,34.279C148.124,33.685 149.032,33.179 149.538,33.179Z" style="fill:black;fill-rule:nonzero;"/>
        <path d="M144.207,55.205L144.207,56.304C147.471,56.304 147.471,56.252 148.1,56.252C148.728,56.252 148.728,56.304 152.097,56.304C152.097,55.938 152.062,55.763 152.062,55.519C152.062,55.292 152.097,55.117 152.097,54.733C150.09,54.821 149.287,54.838 146.058,54.908L149.234,51.539C150.928,49.741 151.451,48.781 151.451,47.472C151.451,45.465 150.09,44.225 147.873,44.225C146.616,44.225 145.761,44.574 144.905,45.447L144.609,47.821L145.377,47.821L145.604,47.018C145.883,46.006 146.25,45.569 147.419,45.569C148.92,45.569 149.88,46.512 149.88,47.996C149.88,49.305 148.606,50.509 146.634,52.604L144.207,55.205Z" style="fill:black;fill-rule:nonzero;"/>
    </g>
    <g>
        <path d="M98.483,189.966L97.909,190.372C96.642,191.281 95.494,191.759 94.633,191.759C93.509,191.759 92.816,190.874 92.816,189.44C92.816,188.842 92.888,188.196 93.007,187.503C93.414,187.407 96.02,186.69 96.618,186.427C98.65,185.542 99.583,184.442 99.583,182.96C99.583,181.836 98.77,181.095 97.574,181.095C95.948,180.76 93.318,182.506 92.433,184.275C91.716,185.471 90.999,188.316 90.999,189.918C90.999,191.783 92.051,192.883 93.772,192.883C95.135,192.883 96.474,192.214 98.674,190.42L98.483,189.966ZM93.342,186.068C93.748,184.418 94.227,183.39 94.92,182.769C95.351,182.386 96.092,182.099 96.666,182.099C97.359,182.099 97.813,182.577 97.813,183.342C97.813,184.395 96.976,185.518 95.733,186.116C95.064,186.451 94.203,186.714 93.127,186.953L93.342,186.068Z" style="fill:black;fill-rule:nonzero;"/>
        <path d="M106.341,177.033C106.393,176.37 106.481,175.811 106.62,175.095C106.428,175.008 106.359,174.991 106.271,174.991C105.73,174.991 105.189,175.41 104.561,176.3C103.88,177.277 103.199,178.325 102.92,178.935L103.478,176.282C103.548,175.986 103.583,175.759 103.583,175.549C103.583,175.2 103.443,174.991 103.182,174.991C102.815,174.991 102.152,175.357 100.86,176.282L100.371,176.631L100.494,176.98L101.052,176.614C101.541,176.3 101.733,176.212 101.89,176.212C102.065,176.212 102.187,176.37 102.187,176.596C102.187,177.609 101.436,181.205 100.738,183.439L100.912,183.561C101.174,183.474 101.454,183.421 101.855,183.334L102.082,183.299L102.536,181.205C102.85,179.756 103.251,178.831 104.02,177.836C104.613,177.068 105.084,176.701 105.468,176.701C105.73,176.701 105.905,176.788 106.097,177.033L106.341,177.033Z" style="fill:black;fill-rule:nonzero;"/>
        <path d="M104.519,187.025C101.813,187.025 100.434,189.172 100.434,193.397C100.434,195.439 100.801,197.202 101.412,198.057C102.023,198.912 103,199.401 104.082,199.401C106.718,199.401 108.045,197.132 108.045,192.663C108.045,188.841 106.91,187.025 104.519,187.025ZM104.205,187.776C105.898,187.776 106.578,189.347 106.578,193.536C106.578,197.254 105.915,198.651 104.309,198.651C102.616,198.651 101.9,197.027 101.9,192.768C101.9,189.085 102.546,187.776 104.205,187.776Z" style="fill:black;fill-rule:nonzero;"/>
    </g>
    <g>
        <clipPath id="_clip5">
            <rect x="90" y="54.5" width="22" height="29"/>
        </clipPath>
        <g clip-path="url(#_clip5)">
            <g>
                <path d="M98.889,66.071L98.507,66.071L99.009,63.393C99.391,61.336 100.061,60.428 101.161,60.428C101.878,60.428 102.524,60.786 102.883,61.36L103.122,61.265C103.241,60.882 103.48,60.141 103.672,59.663L103.791,59.304C103.409,59.137 102.667,58.993 102.117,58.993C101.854,58.993 101.472,59.065 101.28,59.16C100.707,59.423 98.746,60.882 98.196,61.456C97.67,61.982 97.383,62.699 97.12,64.062L96.761,65.951C95.781,66.429 95.303,66.621 94.705,66.836L94.585,67.362L96.522,67.362L96.307,68.701C95.59,73.364 94.705,77.811 94.179,79.461C93.748,80.872 93.031,81.613 92.17,81.613C91.62,81.613 91.357,81.446 90.927,80.92L90.592,81.015C90.497,81.565 90.162,82.713 90.042,82.928C90.257,83.048 90.616,83.119 90.879,83.119C91.859,83.119 93.151,82.378 94.083,81.254C95.781,79.246 96.259,76.95 98.268,67.362L100.754,67.362C100.85,66.908 101.017,66.358 101.161,66.023L101.065,65.856C100.372,66.023 100.396,66.071 98.889,66.071Z" style="fill:black;fill-rule:nonzero;"/>
                <path d="M108.443,54.677L108.234,54.485C107.326,54.939 106.698,55.096 105.441,55.218L105.371,55.585L106.209,55.585C106.628,55.585 106.802,55.707 106.802,56.004C106.802,56.126 106.785,56.318 106.767,56.423L105.004,66.041C104.987,66.093 104.987,66.163 104.987,66.215C104.987,66.896 105.825,67.472 106.785,67.472C107.431,67.472 108.321,67.14 109.072,66.599C110.747,65.412 111.899,63.021 111.899,60.717C111.899,60.054 111.742,59.373 111.533,59.111C111.411,58.954 111.184,58.867 110.922,58.867C110.503,58.867 109.979,59.006 109.49,59.251C108.6,59.722 108.024,60.246 106.942,61.625L108.443,54.677ZM109.962,59.879C110.416,59.879 110.642,60.28 110.642,61.136C110.642,62.253 110.276,63.754 109.752,64.889C109.176,66.093 108.478,66.652 107.535,66.652C106.733,66.652 106.296,66.25 106.296,65.517C106.296,64.924 106.558,62.462 107.972,60.979C108.548,60.385 109.456,59.879 109.962,59.879Z" style="fill:black;fill-rule:nonzero;"/>
                <path d="M108.383,70.925C105.677,70.925 104.298,73.072 104.298,77.297C104.298,79.339 104.665,81.102 105.276,81.957C105.887,82.812 106.864,83.301 107.946,83.301C110.582,83.301 111.909,81.032 111.909,76.563C111.909,72.741 110.774,70.925 108.383,70.925ZM108.069,71.676C109.762,71.676 110.442,73.247 110.442,77.436C110.442,81.154 109.779,82.551 108.173,82.551C106.48,82.551 105.764,80.927 105.764,76.668C105.764,72.985 106.41,71.676 108.069,71.676Z" style="fill:black;fill-rule:nonzero;"/>
            </g>
        </g>
    </g>
    <rect x="27" y="100" width="144" height="144" style="fill:rgb(255,38,2);fill-opacity:0.501961;fill-rule:nonzero;stroke-width:1px;stroke:black;"/>
    <g>
        <clipPath id="_clip6">
            <rect x="90.5" y="99.5" width="19" height="29"/>
        </clipPath>
        <g clip-path="url(#_clip6)">
            <g>
                <path d="M98.983,118.866L98.409,119.272C97.142,120.181 95.994,120.659 95.133,120.659C94.009,120.659 93.316,119.774 93.316,118.34C93.316,117.742 93.388,117.096 93.507,116.403C93.914,116.307 96.52,115.59 97.118,115.327C99.15,114.442 100.083,113.342 100.083,111.86C100.083,110.736 99.27,109.995 98.074,109.995C96.448,109.66 93.818,111.406 92.933,113.175C92.216,114.371 91.499,117.216 91.499,118.818C91.499,120.683 92.551,121.783 94.272,121.783C95.635,121.783 96.974,121.114 99.174,119.32L98.983,118.866ZM93.842,114.968C94.248,113.318 94.727,112.29 95.42,111.669C95.851,111.286 96.592,110.999 97.166,110.999C97.859,110.999 98.313,111.477 98.313,112.242C98.313,113.295 97.476,114.418 96.233,115.016C95.564,115.351 94.703,115.614 93.627,115.853L93.842,114.968Z" style="fill:black;fill-rule:nonzero;"/>
                <path d="M104.52,99.677L104.31,99.485C103.402,99.939 102.774,100.096 101.517,100.218L101.447,100.585L102.285,100.585C102.704,100.585 102.879,100.707 102.879,101.004C102.879,101.126 102.861,101.318 102.844,101.423L101.081,111.041C101.063,111.093 101.063,111.163 101.063,111.215C101.063,111.896 101.901,112.472 102.861,112.472C103.507,112.472 104.397,112.14 105.148,111.599C106.824,110.412 107.976,108.021 107.976,105.717C107.976,105.054 107.819,104.373 107.609,104.111C107.487,103.954 107.26,103.867 106.998,103.867C106.579,103.867 106.056,104.006 105.567,104.251C104.677,104.722 104.101,105.246 103.018,106.625L104.52,99.677ZM106.038,104.879C106.492,104.879 106.719,105.28 106.719,106.136C106.719,107.253 106.352,108.754 105.829,109.889C105.253,111.093 104.554,111.652 103.612,111.652C102.809,111.652 102.373,111.25 102.373,110.517C102.373,109.924 102.634,107.462 104.048,105.979C104.624,105.385 105.532,104.879 106.038,104.879Z" style="fill:black;fill-rule:nonzero;"/>
                <path d="M105.019,115.925C102.313,115.925 100.934,118.072 100.934,122.297C100.934,124.339 101.301,126.102 101.912,126.957C102.523,127.812 103.5,128.301 104.582,128.301C107.218,128.301 108.545,126.032 108.545,121.563C108.545,117.741 107.41,115.925 105.019,115.925ZM104.705,116.676C106.398,116.676 107.078,118.247 107.078,122.436C107.078,126.154 106.415,127.551 104.809,127.551C103.116,127.551 102.4,125.927 102.4,121.668C102.4,117.985 103.046,116.676 104.705,116.676Z" style="fill:black;fill-rule:nonzero;"/>
            </g>
        </g>
    </g>
</svg>
