<?xml version="1.0" standalone="no"?>
<!DOCTYPE svg PUBLIC "-//W3C//DTD SVG 1.1//EN" "http://www.w3.org/Graphics/SVG/1.1/DTD/svg11.dtd">
<svg width="100%" height="100%" viewBox="0 0 198 267" version="1.1" xmlns="http://www.w3.org/2000/svg" xmlns:xlink="http://www.w3.org/1999/xlink" xml:space="preserve" style="fill-rule:evenodd;clip-rule:evenodd;stroke-linecap:round;stroke-linejoin:round;stroke-miterlimit:10;">
    <rect x="-963" y="-983" width="1677" height="3132" style="fill:white;fill-rule:nonzero;"/>
    <path d="M171,241L27,241L99,169L171,241Z" style="fill:rgb(255,231,0);fill-opacity:0.501961;fill-rule:nonzero;stroke-width:1px;stroke:black;"/>
    <path d="M173.505,243.505C172.122,244.889 169.878,244.889 168.495,243.505C167.111,242.122 167.111,239.878 168.495,238.495C169.878,237.111 172.122,237.111 173.505,238.495C174.889,239.878 174.889,242.122 173.505,243.505" style="fill:black;fill-rule:nonzero;"/>
    <g>
        <clipPath id="_clip1">
            <rect x="90" y="141.5" width="20" height="17"/>
        </clipPath>
        <g clip-path="url(#_clip1)">
            <g>
                <g>
                    <path d="M93.609,142.649C94.111,142.649 94.494,142.625 95.116,142.554C92.462,145.423 91.457,147.408 91.457,149.799C91.457,151.64 92.557,152.955 94.087,152.955C97.387,152.955 101.046,147.049 101.046,143.51C101.046,142.147 100.424,141.167 99.563,141.167C99.252,141.167 98.965,141.262 98.774,141.454L97.579,142.578L97.842,143.032C98.057,142.888 98.272,142.817 98.487,142.817C99.133,142.817 99.515,143.367 99.515,144.323C99.515,147.862 97.196,151.759 95.092,151.759C93.92,151.759 93.179,150.755 93.179,149.201C93.179,146.69 94.111,144.514 96.455,141.597L96.216,141.167C95.737,141.382 95.427,141.454 94.757,141.454C94.087,141.454 93.083,141.406 92.39,141.334L92.103,141.31C91.959,141.286 91.84,141.286 91.816,141.286C91.529,141.286 91.314,141.334 91.051,141.454C90.716,142.099 90.453,142.96 90.142,144.275L90.668,144.275L91.075,143.271C91.242,142.864 91.72,142.601 92.294,142.601C93.083,142.601 92.701,142.649 93.609,142.649Z" style="fill:black;fill-rule:nonzero;"/>
                    <path d="M101.851,156.685L101.851,157.784C105.115,157.784 105.115,157.732 105.743,157.732C106.372,157.732 106.372,157.784 109.741,157.784C109.741,157.418 109.706,157.243 109.706,156.999C109.706,156.772 109.741,156.597 109.741,156.213C107.733,156.301 106.93,156.318 103.701,156.388L106.878,153.019C108.571,151.221 109.095,150.261 109.095,148.952C109.095,146.945 107.733,145.705 105.517,145.705C104.26,145.705 103.404,146.054 102.549,146.927L102.252,149.301L103.02,149.301L103.247,148.498C103.527,147.486 103.893,147.049 105.063,147.049C106.564,147.049 107.524,147.992 107.524,149.476C107.524,150.785 106.25,151.989 104.277,154.084L101.851,156.685Z" style="fill:black;fill-rule:nonzero;"/>
                </g>
            </g>
        </g>
    </g>
    <g>
        <g>
            <path d="M3.609,232.749C4.111,232.749 4.494,232.725 5.116,232.654C2.462,235.523 1.457,237.508 1.457,239.899C1.457,241.74 2.557,243.055 4.087,243.055C7.387,243.055 11.046,237.149 11.046,233.61C11.046,232.247 10.424,231.267 9.563,231.267C9.252,231.267 8.965,231.362 8.774,231.554L7.579,232.678L7.842,233.132C8.057,232.988 8.272,232.917 8.487,232.917C9.133,232.917 9.515,233.467 9.515,234.423C9.515,237.962 7.196,241.859 5.092,241.859C3.92,241.859 3.179,240.855 3.179,239.301C3.179,236.79 4.111,234.614 6.455,231.697L6.216,231.267C5.737,231.482 5.427,231.554 4.757,231.554C4.087,231.554 3.083,231.506 2.39,231.434L2.103,231.41C1.959,231.386 1.84,231.386 1.816,231.386C1.529,231.386 1.314,231.434 1.051,231.554C0.716,232.199 0.453,233.06 0.142,234.375L0.668,234.375L1.075,233.371C1.242,232.964 1.72,232.701 2.294,232.701C3.083,232.701 2.701,232.749 3.609,232.749Z" style="fill:black;fill-rule:nonzero;"/>
            <path d="M16.162,235.805C13.457,235.805 12.078,237.952 12.078,242.177C12.078,244.219 12.444,245.982 13.055,246.837C13.666,247.692 14.644,248.181 15.726,248.181C18.362,248.181 19.688,245.912 19.688,241.443C19.688,237.621 18.554,235.805 16.162,235.805ZM15.848,236.556C17.541,236.556 18.222,238.127 18.222,242.316C18.222,246.034 17.559,247.431 15.953,247.431C14.26,247.431 13.544,245.807 13.544,241.548C13.544,237.865 14.19,236.556 15.848,236.556Z" style="fill:black;fill-rule:nonzero;"/>
        </g>
    </g>
    <g>
        <clipPath id="_clip2">
            <rect x="178.5" y="233.5" width="19" height="17"/>
        </clipPath>
        <g clip-path="url(#_clip2)">
            <g>
                <g>
                    <path d="M182.609,234.649C183.111,234.649 183.494,234.625 184.116,234.554C181.462,237.423 180.457,239.408 180.457,241.799C180.457,243.64 181.557,244.955 183.087,244.955C186.387,244.955 190.046,239.049 190.046,235.51C190.046,234.147 189.424,233.167 188.563,233.167C188.252,233.167 187.965,233.262 187.774,233.454L186.579,234.578L186.842,235.032C187.057,234.888 187.272,234.817 187.487,234.817C188.133,234.817 188.515,235.367 188.515,236.323C188.515,239.862 186.196,243.759 184.092,243.759C182.92,243.759 182.179,242.755 182.179,241.201C182.179,238.69 183.111,236.514 185.455,233.597L185.216,233.167C184.737,233.382 184.427,233.454 183.757,233.454C183.087,233.454 182.083,233.406 181.39,233.334L181.103,233.31C180.959,233.286 180.84,233.286 180.816,233.286C180.529,233.286 180.314,233.334 180.051,233.454C179.716,234.099 179.453,234.96 179.142,236.275L179.668,236.275L180.075,235.271C180.242,234.864 180.72,234.601 181.294,234.601C182.083,234.601 181.701,234.649 182.609,234.649Z" style="fill:black;fill-rule:nonzero;"/>
                    <path d="M197.868,249.784L197.868,249.156L196.96,249.104C196,249.051 195.826,248.859 195.826,247.952L195.826,237.705L195.581,237.618C194.447,238.212 193.207,238.735 191.619,239.294L191.741,240.149L191.916,240.149L194.22,239.119C194.325,239.119 194.359,239.276 194.359,239.695L194.359,247.952C194.359,248.859 194.167,249.051 193.225,249.104L192.247,249.156L192.247,249.784C194.935,249.732 194.935,249.732 195.127,249.732C195.669,249.732 197.589,249.784 197.868,249.784Z" style="fill:black;fill-rule:nonzero;"/>
                </g>
            </g>
        </g>
    </g>
    <g>
        <path d="M97.483,258.138L96.909,258.544C95.642,259.453 94.494,259.931 93.633,259.931C92.509,259.931 91.816,259.046 91.816,257.612C91.816,257.014 91.888,256.368 92.007,255.675C92.414,255.579 95.02,254.862 95.618,254.599C97.65,253.714 98.583,252.614 98.583,251.132C98.583,250.008 97.77,249.267 96.574,249.267C94.948,248.932 92.318,250.678 91.433,252.447C90.716,253.643 89.999,256.488 89.999,258.09C89.999,259.955 91.051,261.055 92.772,261.055C94.135,261.055 95.474,260.386 97.674,258.592L97.483,258.138ZM92.342,254.24C92.748,252.59 93.227,251.562 93.92,250.941C94.351,250.558 95.092,250.271 95.666,250.271C96.359,250.271 96.813,250.749 96.813,251.514C96.813,252.567 95.976,253.69 94.733,254.288C94.064,254.623 93.203,254.886 92.127,255.125L92.342,254.24Z" style="fill:black;fill-rule:nonzero;"/>
        <path d="M103.508,253.805C100.803,253.805 99.424,255.952 99.424,260.177C99.424,262.219 99.79,263.982 100.401,264.837C101.012,265.692 101.99,266.181 103.072,266.181C105.708,266.181 107.034,263.912 107.034,259.443C107.034,255.621 105.9,253.805 103.508,253.805ZM103.194,254.556C104.887,254.556 105.568,256.127 105.568,260.316C105.568,264.034 104.905,265.431 103.299,265.431C101.606,265.431 100.89,263.807 100.89,259.548C100.89,255.865 101.536,254.556 103.194,254.556Z" style="fill:black;fill-rule:nonzero;"/>
    </g>
    <g>
        <clipPath id="_clip3">
            <rect x="45.5" y="186.5" width="18" height="17"/>
        </clipPath>
        <g clip-path="url(#_clip3)">
            <g>
                <path d="M53.483,196.038L52.909,196.444C51.642,197.353 50.494,197.831 49.633,197.831C48.509,197.831 47.816,196.946 47.816,195.512C47.816,194.914 47.888,194.268 48.007,193.575C48.414,193.479 51.02,192.762 51.618,192.499C53.65,191.614 54.583,190.514 54.583,189.032C54.583,187.908 53.77,187.167 52.574,187.167C50.948,186.832 48.318,188.578 47.433,190.347C46.716,191.543 45.999,194.388 45.999,195.99C45.999,197.855 47.051,198.955 48.772,198.955C50.135,198.955 51.474,198.286 53.674,196.492L53.483,196.038ZM48.342,192.14C48.748,190.49 49.227,189.462 49.92,188.841C50.351,188.458 51.092,188.171 51.666,188.171C52.359,188.171 52.813,188.649 52.813,189.414C52.813,190.467 51.976,191.59 50.733,192.188C50.064,192.523 49.203,192.786 48.127,193.025L48.342,192.14Z" style="fill:black;fill-rule:nonzero;"/>
                <path d="M62.214,203.784L62.214,203.156L61.306,203.104C60.346,203.051 60.172,202.859 60.172,201.952L60.172,191.705L59.927,191.618C58.793,192.212 57.553,192.735 55.965,193.294L56.087,194.149L56.262,194.149L58.566,193.119C58.67,193.119 58.705,193.276 58.705,193.695L58.705,201.952C58.705,202.859 58.513,203.051 57.571,203.104L56.593,203.156L56.593,203.784C59.281,203.732 59.281,203.732 59.473,203.732C60.014,203.732 61.935,203.784 62.214,203.784Z" style="fill:black;fill-rule:nonzero;"/>
            </g>
        </g>
    </g>
    <g>
        <clipPath id="_clip4">
            <rect x="134" y="186.5" width="19" height="17"/>
        </clipPath>
        <g clip-path="url(#_clip4)">
            <g>
                <path d="M142.483,196.038L141.909,196.444C140.642,197.353 139.494,197.831 138.633,197.831C137.509,197.831 136.816,196.946 136.816,195.512C136.816,194.914 136.888,194.268 137.007,193.575C137.414,193.479 140.02,192.762 140.618,192.499C142.65,191.614 143.583,190.514 143.583,189.032C143.583,187.908 142.77,187.167 141.574,187.167C139.948,186.832 137.318,188.578 136.433,190.347C135.716,191.543 134.999,194.388 134.999,195.99C134.999,197.855 136.051,198.955 137.772,198.955C139.135,198.955 140.474,198.286 142.674,196.492L142.483,196.038ZM137.342,192.14C137.748,190.49 138.227,189.462 138.92,188.841C139.351,188.458 140.092,188.171 140.666,188.171C141.359,188.171 141.813,188.649 141.813,189.414C141.813,190.467 140.976,191.59 139.733,192.188C139.064,192.523 138.203,192.786 137.127,193.025L137.342,192.14Z" style="fill:black;fill-rule:nonzero;"/>
                <path d="M144.197,202.685L144.197,203.784C147.461,203.784 147.461,203.732 148.089,203.732C148.718,203.732 148.718,203.784 152.087,203.784C152.087,203.418 152.052,203.243 152.052,202.999C152.052,202.772 152.087,202.597 152.087,202.213C150.079,202.301 149.276,202.318 146.047,202.388L149.224,199.019C150.917,197.221 151.441,196.261 151.441,194.952C151.441,192.945 150.079,191.705 147.862,191.705C146.606,191.705 145.75,192.054 144.895,192.927L144.598,195.301L145.366,195.301L145.593,194.498C145.873,193.486 146.239,193.049 147.409,193.049C148.91,193.049 149.87,193.992 149.87,195.476C149.87,196.785 148.596,197.989 146.623,200.084L144.197,202.685Z" style="fill:black;fill-rule:nonzero;"/>
            </g>
        </g>
    </g>
    <g>
        <path d="M95.889,206.375L95.507,206.375L96.009,203.697C96.391,201.64 97.061,200.732 98.161,200.732C98.878,200.732 99.524,201.09 99.883,201.664L100.122,201.569C100.241,201.186 100.48,200.445 100.672,199.967L100.791,199.608C100.409,199.441 99.667,199.297 99.117,199.297C98.854,199.297 98.472,199.369 98.28,199.464C97.707,199.727 95.746,201.186 95.196,201.76C94.67,202.286 94.383,203.003 94.12,204.366L93.761,206.255C92.781,206.733 92.303,206.925 91.705,207.14L91.585,207.666L93.522,207.666L93.307,209.005C92.59,213.668 91.705,218.115 91.179,219.765C90.748,221.176 90.031,221.917 89.17,221.917C88.62,221.917 88.357,221.75 87.927,221.224L87.592,221.319C87.497,221.869 87.162,223.017 87.042,223.232C87.257,223.352 87.616,223.423 87.879,223.423C88.859,223.423 90.151,222.682 91.083,221.558C92.781,219.55 93.259,217.254 95.268,207.666L97.754,207.666C97.85,207.212 98.017,206.662 98.161,206.327L98.065,206.16C97.372,206.327 97.396,206.375 95.889,206.375Z" style="fill:black;fill-rule:nonzero;"/>
        <path d="M105.382,209.837C102.676,209.837 101.297,211.984 101.297,216.209C101.297,218.251 101.664,220.014 102.275,220.869C102.886,221.724 103.863,222.213 104.945,222.213C107.581,222.213 108.908,219.944 108.908,215.475C108.908,211.653 107.773,209.837 105.382,209.837ZM105.068,210.588C106.761,210.588 107.442,212.159 107.442,216.348C107.442,220.066 106.778,221.463 105.172,221.463C103.479,221.463 102.764,219.839 102.764,215.58C102.764,211.897 103.409,210.588 105.068,210.588Z" style="fill:black;fill-rule:nonzero;"/>
    </g>
    <path d="M173.505,243.505C172.122,244.889 169.878,244.889 168.495,243.505C167.111,242.122 167.111,239.878 168.495,238.495C169.878,237.111 172.122,237.111 173.505,238.495C174.889,239.878 174.889,242.122 173.505,243.505" style="fill:none;stroke-width:1px;stroke:black;"/>
    <path d="M29.505,243.505C28.122,244.889 25.878,244.889 24.495,243.505C23.111,242.122 23.111,239.878 24.495,238.495C25.878,237.111 28.122,237.111 29.505,238.495C30.889,239.878 30.889,242.122 29.505,243.505" style="fill:black;fill-rule:nonzero;stroke-width:1px;stroke:black;"/>
    <path d="M101.506,171.505C100.122,172.889 97.878,172.889 96.495,171.505C95.111,170.122 95.111,167.878 96.495,166.495C97.878,165.111 100.122,165.111 101.506,166.495C102.889,167.878 102.889,170.122 101.506,171.505" style="fill:black;fill-rule:nonzero;"/>
    <path d="M101.505,171.505C100.122,172.889 97.878,172.889 96.495,171.505C95.111,170.122 95.111,167.878 96.495,166.495C97.878,165.111 100.122,165.111 101.505,166.495C102.889,167.878 102.889,170.122 101.505,171.505" style="fill:none;stroke-width:1px;stroke:black;"/>
    <path d="M18,147.8L18,10.2" style="fill:none;stroke-width:2px;stroke:black;"/>
    <path d="M13.2,10.2L22.8,10.2" style="fill:none;stroke-width:2px;stroke-linecap:butt;stroke-linejoin:miter;stroke:black;"/>
    <path d="M22.8,147.8L13.2,147.8" style="fill:none;stroke-width:2px;stroke-linecap:butt;stroke-linejoin:miter;stroke:black;"/>
    <path d="M32.12,147.86L31.427,150.897C31.331,151.303 31.283,151.734 31.283,152.116C31.283,152.642 31.498,152.953 31.857,152.953C32.407,152.953 33.387,152.332 35.348,150.706L35.181,150.203C34.607,150.682 33.913,151.327 33.387,151.327C33.172,151.327 33.029,151.112 33.029,150.777C33.029,150.658 33.029,150.586 33.052,150.514L35.252,141.452L35.013,141.237L34.224,141.667C33.244,141.308 32.837,141.213 32.192,141.213C31.522,141.213 31.044,141.332 30.398,141.643C28.916,142.384 28.127,143.102 27.529,144.273C26.477,146.402 25.736,149.271 25.736,151.136C25.736,152.188 26.094,153.001 26.549,153.001C27.433,153.001 29.346,151.758 32.12,147.86ZM33.268,142.839C32.742,145.445 32.287,146.688 31.474,147.932C30.111,149.94 28.653,151.327 27.888,151.327C27.601,151.327 27.457,151.016 27.457,150.371C27.457,148.84 28.127,146.043 28.964,144.13C29.538,142.815 30.087,142.384 31.235,142.384C31.785,142.384 32.216,142.48 33.268,142.839Z" style="fill:black;fill-rule:nonzero;"/>
    <g>
        <clipPath id="_clip5">
            <rect x="26.5" y="7" width="10" height="19"/>
        </clipPath>
        <g clip-path="url(#_clip5)">
            <path d="M31.859,7.674L31.572,7.411C30.329,8.033 29.468,8.248 27.746,8.415L27.651,8.917L28.798,8.917C29.372,8.917 29.611,9.085 29.611,9.491C29.611,9.659 29.588,9.922 29.564,10.065L27.149,23.24C27.125,23.312 27.125,23.408 27.125,23.479C27.125,24.412 28.272,25.201 29.588,25.201C30.472,25.201 31.692,24.747 32.72,24.005C35.015,22.38 36.594,19.104 36.594,15.947C36.594,15.039 36.378,14.106 36.091,13.748C35.924,13.532 35.613,13.413 35.255,13.413C34.681,13.413 33.963,13.604 33.294,13.939C32.074,14.584 31.285,15.302 29.803,17.191L31.859,7.674ZM33.939,14.8C34.561,14.8 34.872,15.35 34.872,16.521C34.872,18.052 34.37,20.108 33.652,21.662C32.863,23.312 31.907,24.077 30.616,24.077C29.516,24.077 28.918,23.527 28.918,22.523C28.918,21.71 29.277,18.339 31.214,16.306C32.003,15.493 33.246,14.8 33.939,14.8Z" style="fill:black;fill-rule:nonzero;"/>
        </g>
    </g>
    <path d="M9.439,73.046C9.511,72.138 9.631,71.373 9.822,70.392C9.559,70.273 9.463,70.249 9.344,70.249C8.602,70.249 7.861,70.823 7,72.042C6.068,73.381 5.135,74.816 4.753,75.653L5.518,72.018C5.614,71.612 5.661,71.301 5.661,71.014C5.661,70.536 5.47,70.249 5.111,70.249C4.609,70.249 3.701,70.751 1.931,72.018L1.262,72.496L1.429,72.975L2.194,72.473C2.864,72.042 3.127,71.923 3.342,71.923C3.581,71.923 3.748,72.138 3.748,72.449C3.748,73.835 2.72,78.761 1.764,81.822L2.003,81.989C2.362,81.87 2.744,81.798 3.294,81.678L3.605,81.631L4.227,78.761C4.657,76.777 5.207,75.509 6.259,74.146C7.072,73.094 7.718,72.592 8.244,72.592C8.602,72.592 8.842,72.712 9.105,73.046L9.439,73.046Z" style="fill:black;fill-rule:nonzero;"/>
</svg>
