<?xml version="1.0" standalone="no"?>
<!DOCTYPE svg PUBLIC "-//W3C//DTD SVG 1.1//EN" "http://www.w3.org/Graphics/SVG/1.1/DTD/svg11.dtd">
<svg width="100%" height="100%" viewBox="0 0 592 945" version="1.1" xmlns="http://www.w3.org/2000/svg" xmlns:xlink="http://www.w3.org/1999/xlink" xml:space="preserve" style="fill-rule:evenodd;clip-rule:evenodd;stroke-linecap:round;stroke-linejoin:round;stroke-miterlimit:10;">
    <rect x="56" y="-158" width="806" height="1132" style="fill:white;fill-rule:nonzero;"/>
    <path d="M367.811,70.189L515.213,243.102L306.866,347.984L260.094,622.945L328.126,930.504L94.268,791.606L58.835,461.37L132.535,194.913L367.811,70.189Z" style="fill:rgb(255,38,0);fill-opacity:0.501961;fill-rule:nonzero;"/>
    <path d="M141.14,187.726C146.675,193.261 146.675,202.235 141.14,207.77C135.605,213.305 126.631,213.305 121.096,207.77C115.561,202.235 115.561,193.261 121.096,187.726C126.631,182.191 135.605,182.191 141.14,187.726" style="fill:black;fill-rule:nonzero;"/>
    <path d="M316.888,337.962C322.423,343.497 322.423,352.471 316.888,358.006C311.353,363.541 302.379,363.541 296.844,358.006C291.309,352.471 291.309,343.497 296.844,337.962C302.379,332.427 311.353,332.427 316.888,337.962" style="fill:black;fill-rule:nonzero;"/>
    <path d="M377.833,61.584C383.368,67.119 383.368,76.093 377.833,81.628C372.298,87.163 363.324,87.163 357.789,81.628C352.254,76.093 352.254,67.119 357.789,61.584C363.324,56.049 372.298,56.049 377.833,61.584" style="fill:black;fill-rule:nonzero;"/>
    <path d="M523.817,233.08C529.352,238.615 529.352,247.589 523.817,253.124C518.282,258.659 509.308,258.659 503.773,253.124C498.238,247.589 498.238,238.615 503.773,233.08C509.308,227.545 518.282,227.545 523.817,233.08" style="fill:black;fill-rule:nonzero;"/>
    <path d="M271.534,614.34C277.069,619.875 277.069,628.849 271.534,634.384C265.999,639.919 257.025,639.919 251.49,634.384C245.955,628.849 245.955,619.875 251.49,614.34C257.025,608.805 265.999,608.805 271.534,614.34" style="fill:black;fill-rule:nonzero;"/>
    <path d="M70.274,452.765C75.809,458.3 75.809,467.274 70.274,472.809C64.739,478.344 55.765,478.344 50.23,472.809C44.695,467.274 44.695,458.3 50.23,452.765C55.765,447.23 64.739,447.23 70.274,452.765" style="fill:black;fill-rule:nonzero;"/>
    <path d="M105.707,783.002C111.242,788.537 111.242,797.511 105.707,803.046C100.172,808.581 91.198,808.581 85.663,803.046C80.128,797.511 80.128,788.537 85.663,783.002C91.198,777.467 100.172,777.467 105.707,783.002" style="fill:black;fill-rule:nonzero;"/>
    <path d="M338.148,920.482C343.683,926.017 343.683,934.991 338.148,940.526C332.613,946.061 323.639,946.061 318.104,940.526C312.569,934.991 312.569,926.017 318.104,920.482C323.639,914.947 332.613,914.947 338.148,920.482" style="fill:black;fill-rule:nonzero;"/>
    <path d="M376.998,82.399L504.608,232.309" style="fill:none;stroke-width:3px;stroke:black;"/>
    <path d="M501.15,249.512L319.512,341.575" style="fill:none;stroke-width:3px;stroke:black;"/>
    <path d="M355.3,78.274L143.629,191.08" style="fill:none;stroke-width:3px;stroke:black;"/>
    <path d="M141.892,206.958L296.092,338.774" style="fill:none;stroke-width:3px;stroke:black;"/>
    <path d="M304.571,361.972L263.807,610.375" style="fill:none;stroke-width:3px;stroke:black;"/>
    <path d="M127.456,211.443L63.914,449.093" style="fill:none;stroke-width:3px;stroke:black;"/>
    <path d="M71.305,471.661L250.459,615.489" style="fill:none;stroke-width:3px;stroke:black;"/>
    <path d="M264.526,638.213L325.112,916.653" style="fill:none;stroke-width:3px;stroke:black;"/>
    <path d="M61.764,476.88L94.173,778.931" style="fill:none;stroke-width:3px;stroke:black;"/>
    <path d="M107.887,800.241L315.924,923.287" style="fill:none;stroke-width:3px;stroke:black;"/>
    <path d="M499.72,241.434L145.193,199.416" style="fill:none;stroke-width:3px;stroke:black;"/>
    <path d="M294.013,353.967L73.105,456.804" style="fill:none;stroke-width:3px;stroke:black;"/>
    <path d="M251.575,634.469L105.622,782.917" style="fill:none;stroke-width:3px;stroke:black;"/>
    <path d="M398.154,29.555L395.264,42.208C394.866,43.902 394.667,45.696 394.667,47.29C394.667,49.481 395.563,50.777 397.058,50.777C399.349,50.777 403.434,48.186 411.604,41.411L410.906,39.319C408.515,41.312 405.626,44.002 403.434,44.002C402.537,44.002 401.94,43.105 401.94,41.71C401.94,41.212 401.94,40.913 402.039,40.614L411.205,2.855L410.209,1.958L406.921,3.751C402.836,2.257 401.143,1.858 398.453,1.858C395.663,1.858 393.67,2.356 390.98,3.652C384.803,6.74 381.516,9.729 379.025,14.611C374.641,23.478 371.553,35.434 371.553,43.205C371.553,47.589 373.047,50.976 374.94,50.976C378.626,50.976 386.597,45.795 398.154,29.555ZM402.936,8.633C400.744,19.493 398.851,24.674 395.464,29.854C389.785,38.223 383.707,44.002 380.519,44.002C379.324,44.002 378.726,42.707 378.726,40.017C378.726,33.64 381.516,21.984 385.003,14.013C387.394,8.534 389.685,6.74 394.467,6.74C396.759,6.74 398.552,7.139 402.936,8.633Z" style="fill:black;fill-rule:nonzero;"/>
    <path d="M571.567,183.947L570.371,182.851C565.191,185.442 561.604,186.338 554.431,187.036L554.032,189.128L558.814,189.128C561.206,189.128 562.202,189.825 562.202,191.519C562.202,192.216 562.102,193.312 562.003,193.91L551.94,248.806C551.84,249.105 551.84,249.504 551.84,249.803C551.84,253.688 556.623,256.976 562.102,256.976C565.789,256.976 570.87,255.083 575.154,251.994C584.718,245.22 591.294,231.57 591.294,218.419C591.294,214.633 590.397,210.748 589.202,209.253C588.504,208.356 587.209,207.858 585.715,207.858C583.323,207.858 580.334,208.655 577.545,210.05C572.464,212.74 569.176,215.729 562.999,223.6L571.567,183.947ZM580.235,213.637C582.825,213.637 584.12,215.928 584.12,220.81C584.12,227.187 582.028,235.755 579.039,242.231C575.752,249.105 571.766,252.293 566.386,252.293C561.803,252.293 559.313,250.002 559.313,245.817C559.313,242.43 560.807,228.382 568.877,219.914C572.165,216.526 577.346,213.637 580.235,213.637Z" style="fill:black;fill-rule:nonzero;"/>
    <path d="M105.027,158.002L107.319,158.002C108.116,151.526 108.813,147.84 109.71,145.249C107.319,143.755 103.832,142.858 100.146,142.858C95.662,142.759 88.389,144.751 82.71,151.028C77.33,155.81 73.445,166.869 73.445,177.33C73.445,186.895 77.629,191.976 85.6,191.976C90.98,191.976 95.762,189.983 101.242,185.5L106.223,181.415L105.426,179.423L103.932,180.419C96.758,185.201 92.972,186.895 89.485,186.895C83.906,186.895 81.017,182.91 81.017,175.039C81.017,164.279 84.504,153.917 89.386,150.131C91.478,148.537 93.869,147.74 96.957,147.74C101.441,147.74 105.027,149.633 105.027,152.024L105.027,158.002Z" style="fill:black;fill-rule:nonzero;"/>
    <g>
        <clipPath id="_clip1">
            <rect x="321.039" y="343.732" width="47" height="75"/>
        </clipPath>
        <g clip-path="url(#_clip1)">
            <path d="M367.475,345.947L366.28,344.851C361.099,347.442 357.512,348.338 350.339,349.036L349.94,351.128L354.723,351.128C357.114,351.128 358.11,351.825 358.11,353.519C358.11,354.316 358.01,355.213 357.911,355.91L355.121,371.253C352.132,370.356 349.442,369.858 346.952,369.858C340.077,369.858 330.712,377.032 326.129,385.7C323.04,391.478 321.048,400.943 321.048,409.312C321.048,415.788 322.542,418.976 325.431,418.976C328.121,418.976 331.808,417.282 335.195,414.592C340.575,410.208 343.863,406.323 350.538,396.26L348.247,405.327C347.151,409.71 346.653,412.898 346.653,415.489C346.653,417.581 347.549,418.777 349.243,418.777C350.937,418.777 353.328,417.581 356.715,415.09L364.785,409.113L363.789,407.22L359.405,410.308C358.01,411.304 356.416,412.002 355.52,412.002C354.723,412.002 354.125,411.105 354.125,409.71C354.125,408.913 354.224,408.017 354.922,405.127L367.475,345.947ZM330.712,412.002C329.118,412.002 328.221,410.607 328.221,408.116C328.221,395.563 332.804,380.021 337.686,376.235C338.981,375.238 340.874,374.74 343.564,374.74C347.948,374.74 350.837,375.338 354.125,377.032L352.929,382.91C349.243,400.843 335.195,412.002 330.712,412.002Z" style="fill:black;fill-rule:nonzero;"/>
        </g>
    </g>
    <g>
        <clipPath id="_clip2">
            <rect x="0.724" y="431.606" width="37" height="51"/>
        </clipPath>
        <g clip-path="url(#_clip2)">
            <path d="M32.533,470.821L30.142,472.515C24.861,476.301 20.079,478.293 16.492,478.293C11.81,478.293 8.92,474.607 8.92,468.629C8.92,466.138 9.219,463.448 9.717,460.559C11.411,460.161 22.271,457.172 24.762,456.076C33.23,452.39 37.116,447.807 37.116,441.629C37.116,436.947 33.728,433.858 28.747,433.858C21.972,432.464 11.013,439.737 7.326,447.109C4.337,452.091 1.348,463.947 1.348,470.622C1.348,478.393 5.732,482.976 12.906,482.976C18.584,482.976 24.164,480.186 33.33,472.714L32.533,470.821ZM11.112,454.581C12.806,447.707 14.799,443.423 17.688,440.832C19.481,439.238 22.57,438.043 24.961,438.043C27.85,438.043 29.743,440.035 29.743,443.224C29.743,447.607 26.256,452.29 21.075,454.781C18.286,456.175 14.699,457.271 10.216,458.268L11.112,454.581Z" style="fill:black;fill-rule:nonzero;"/>
        </g>
    </g>
    <path d="M321.026,583.342L319.432,583.342L321.524,572.183C323.119,563.615 325.908,559.829 330.491,559.829C333.48,559.829 336.17,561.323 337.665,563.715L338.661,563.316C339.159,561.722 340.155,558.633 340.952,556.641L341.45,555.146C339.856,554.449 336.768,553.851 334.476,553.851C333.38,553.851 331.786,554.15 330.989,554.549C328.598,555.645 320.429,561.722 318.137,564.113C315.945,566.305 314.75,569.294 313.654,574.973L312.159,582.844C308.074,584.836 306.082,585.633 303.591,586.53L303.093,588.722L311.163,588.722L310.266,594.301C307.277,613.729 303.591,632.26 301.399,639.134C299.606,645.013 296.617,648.101 293.03,648.101C290.739,648.101 289.643,647.404 287.85,645.212L286.455,645.61C286.056,647.902 284.661,652.684 284.163,653.581C285.06,654.079 286.554,654.378 287.65,654.378C291.735,654.378 297.115,651.289 301.001,646.607C308.074,638.238 310.067,628.673 318.436,588.722L328.797,588.722C329.196,586.829 329.893,584.537 330.491,583.142L330.093,582.445C327.203,583.142 327.303,583.342 321.026,583.342Z" style="fill:black;fill-rule:nonzero;"/>
    <path d="M43.752,775.858C37.077,775.858 21.834,782.135 21.834,798.076C21.834,805.747 26.317,810.33 33.989,810.33C34.786,810.33 35.881,810.33 36.977,810.231L32.893,814.017C31.298,815.511 30.203,817.304 30.203,818.699C30.203,819.696 30.9,820.791 32.295,821.987C25.42,824.279 12.668,828.662 12.668,839.721C12.668,846.795 19.642,851.378 30.501,851.378C43.354,851.378 54.612,844.205 54.612,835.935C54.612,832.349 52.52,828.762 48.236,825.275L42.258,820.393C38.87,817.703 37.575,815.81 37.575,813.917C37.575,812.522 39.07,811.127 40.265,809.334C50.029,806.943 57.103,798.674 57.103,789.807C57.103,788.312 56.804,786.419 56.704,786.021C58.398,786.22 59.195,786.22 60.092,786.22C61.785,786.22 62.782,786.12 65.073,785.821L65.97,781.338L65.671,780.74C62.881,781.438 60.889,781.637 55.509,781.637C55.509,781.537 53.117,775.858 43.752,775.858ZM33.889,823.78L41.56,829.659C46.143,833.245 48.036,835.935 48.036,839.223C48.036,844.404 41.162,848.588 32.893,848.588C24.723,848.588 19.044,844.404 19.044,838.326C19.044,828.164 30.003,824.976 33.889,823.78ZM41.261,779.246C47.04,779.246 49.929,782.832 49.929,789.906C49.929,800.168 45.147,807.142 38.173,807.142C32.096,807.142 28.907,803.057 28.907,795.187C28.907,785.722 33.989,779.246 41.261,779.246Z" style="fill:black;fill-rule:nonzero;"/>
    <path d="M376.867,848.947L375.671,847.851C371.188,850.043 367.103,851.438 359.73,852.036L359.332,854.128L364.114,854.128C365.907,854.128 367.501,854.427 367.501,856.419C367.501,857.017 367.501,857.914 367.302,858.91L363.118,882.224C361.125,893.781 356.941,912.91 354.35,920.681L355.048,921.777L361.922,920.183C362.719,914.504 364.114,904.541 368.099,897.367C372.583,889.297 382.844,879.633 387.029,879.633C388.125,879.633 389.221,880.331 389.221,881.725C389.221,883.519 388.723,886.807 387.726,890.692L382.645,910.22C382.047,912.411 381.35,915.4 381.35,917.791C381.35,920.282 382.346,921.777 384.439,921.777C387.627,921.777 394.402,916.795 400.28,912.411L399.283,910.618L396.693,912.312C394.402,913.806 391.811,915.301 390.616,915.301C389.918,915.301 389.32,914.404 389.32,913.308C389.32,912.113 389.619,910.817 390.018,909.323L396.394,883.818C396.992,881.227 397.49,878.737 397.49,876.345C397.49,874.652 396.892,872.858 394.302,872.858C390.815,872.858 383.143,877.342 376.369,883.618C373.081,886.707 370.49,890.194 367.701,893.681L367.302,893.482L376.867,848.947Z" style="fill:black;fill-rule:nonzero;"/>
</svg>
