<?xml version="1.0" standalone="no"?>
<!DOCTYPE svg PUBLIC "-//W3C//DTD SVG 1.1//EN" "http://www.w3.org/Graphics/SVG/1.1/DTD/svg11.dtd">
<svg width="100%" height="100%" viewBox="0 0 241 136" version="1.1" xmlns="http://www.w3.org/2000/svg" xmlns:xlink="http://www.w3.org/1999/xlink" xml:space="preserve" style="fill-rule:evenodd;clip-rule:evenodd;stroke-linecap:round;stroke-linejoin:round;stroke-miterlimit:10;">
    <rect x="-204" y="-469" width="806" height="1132" style="fill:white;fill-rule:nonzero;"/>
    <path d="M51.118,97.929L121.984,62.496L121.984,133.362L51.118,97.929Z" style="fill:rgb(255,38,0);fill-opacity:0.501961;fill-rule:nonzero;stroke-width:1px;stroke:black;"/>
    <path d="M51.118,112.102L51.118,15.703" style="fill:none;stroke-width:1px;stroke:black;"/>
    <path d="M51.118,7.703L48.118,15.703L54.118,15.703L51.118,7.703Z" style="fill:black;fill-rule:nonzero;stroke-width:1px;stroke-linecap:butt;stroke-linejoin:miter;stroke:black;"/>
    <path d="M36.945,97.929L218.383,97.929" style="fill:none;stroke-width:1px;stroke:black;"/>
    <path d="M226.384,97.929L218.384,94.929L218.384,100.929L226.384,97.929Z" style="fill:black;fill-rule:nonzero;stroke-width:1px;stroke-linecap:butt;stroke-linejoin:miter;stroke:black;"/>
    <path d="M174.096,52.904C175.48,54.288 175.48,56.531 174.096,57.915C172.712,59.299 170.469,59.299 169.085,57.915C167.701,56.531 167.701,54.288 169.085,52.904C170.469,51.52 172.712,51.52 174.096,52.904" style="fill:black;fill-rule:nonzero;"/>
    <g>
        <path d="M163.242,111.616C163.458,111.616 163.619,111.58 164.139,111.436C164.336,110.324 164.48,109.715 164.677,108.872L164.282,108.872L163.888,109.948C163.78,110.271 163.565,110.396 163.189,110.396C162.973,110.396 162.686,110.36 162.31,110.271L161.987,110.199C161.395,110.073 160.785,109.984 160.445,109.984C159.871,109.984 159.387,110.091 158.741,110.36L164.82,103.51L164.928,102.936L164.767,102.775L164.354,103.187C164.175,103.366 163.996,103.438 163.744,103.438C163.135,103.438 162.202,103.295 161.341,103.061L161.019,102.972C160.516,102.846 160.158,102.775 159.907,102.775C159.602,102.775 159.243,102.828 158.813,102.954L158.239,105.142L158.616,105.142L159.154,104.102C159.458,104.03 159.62,104.012 159.853,104.012C160.588,104.012 161.162,104.281 162.113,104.281C162.758,104.281 163.189,104.173 163.78,103.868L157.45,111.042L157.611,111.526C158.131,111.114 158.616,110.952 159.243,110.952C160.373,110.952 162.005,111.616 163.242,111.616Z" style="fill:black;fill-rule:nonzero;"/>
        <path d="M169.169,109.049C169.808,109.049 170.33,109.415 170.33,110.419C170.33,110.628 170.161,110.81 169.795,110.837L167.369,110.98C167.512,109.884 168.23,109.049 169.169,109.049ZM171.713,113.472C171.713,113.341 171.674,113.25 171.543,113.25C171.243,113.25 171.021,114.241 169.443,114.241C168.295,114.241 167.317,113.563 167.317,111.593L170.904,111.489C171.282,111.476 171.635,111.28 171.635,110.876C171.635,108.932 170.317,108.384 169.391,108.384C167.356,108.384 166.065,110.041 166.065,112.128C166.065,114.293 167.526,115.311 169.143,115.311C170.5,115.311 171.713,114.372 171.713,113.472Z" style="fill:black;fill-rule:nonzero;"/>
        <path d="M178.326,110.432C178.731,109.415 179.018,109.089 179.514,108.984C179.631,108.958 179.709,108.841 179.709,108.736C179.709,108.619 179.631,108.515 179.461,108.515L176.8,108.515C176.644,108.515 176.578,108.619 176.578,108.723C176.578,108.841 176.657,108.958 176.761,108.984C177.387,109.102 177.713,109.193 177.713,109.506C177.713,109.571 177.7,109.663 177.661,109.754L176.174,113.915L174.635,109.623C174.609,109.545 174.596,109.467 174.596,109.402C174.596,109.154 174.804,109.036 175.274,108.984C175.404,108.971 175.483,108.854 175.483,108.736C175.483,108.619 175.404,108.515 175.248,108.515L172.509,108.515C172.339,108.515 172.261,108.632 172.261,108.762C172.261,108.88 172.339,109.01 172.469,109.023C172.952,109.062 173.148,109.571 173.578,110.641L175.509,115.389L175.052,116.511C174.778,117.176 174.491,117.398 174.204,117.398C173.904,117.398 173.656,117.307 173.513,117.072C173.304,117.176 173.122,117.372 173.122,117.737C173.122,118.207 173.526,118.494 174.126,118.494C174.687,118.494 175.157,118.207 175.404,117.607L178.326,110.432Z" style="fill:black;fill-rule:nonzero;"/>
        <path d="M183.466,109.049C184.105,109.049 184.627,109.415 184.627,110.419C184.627,110.628 184.457,110.81 184.092,110.837L181.666,110.98C181.809,109.884 182.527,109.049 183.466,109.049ZM186.01,113.472C186.01,113.341 185.971,113.25 185.84,113.25C185.54,113.25 185.318,114.241 183.74,114.241C182.592,114.241 181.614,113.563 181.614,111.593L185.201,111.489C185.579,111.476 185.931,111.28 185.931,110.876C185.931,108.932 184.614,108.384 183.688,108.384C181.653,108.384 180.361,110.041 180.361,112.128C180.361,114.293 181.822,115.311 183.44,115.311C184.797,115.311 186.01,114.372 186.01,113.472Z" style="fill:black;fill-rule:nonzero;"/>
    </g>
    <path d="M220.476,111.616C220.692,111.616 220.853,111.58 221.373,111.436C221.57,110.324 221.714,109.715 221.911,108.872L221.516,108.872L221.122,109.948C221.014,110.271 220.799,110.396 220.423,110.396C220.207,110.396 219.92,110.36 219.544,110.271L219.221,110.199C218.629,110.073 218.019,109.984 217.679,109.984C217.105,109.984 216.621,110.091 215.975,110.36L222.054,103.51L222.162,102.936L222.001,102.775L221.588,103.187C221.409,103.366 221.23,103.438 220.978,103.438C220.369,103.438 219.436,103.295 218.575,103.061L218.253,102.972C217.75,102.846 217.392,102.775 217.141,102.775C216.836,102.775 216.477,102.828 216.047,102.954L215.473,105.142L215.85,105.142L216.388,104.102C216.692,104.03 216.854,104.012 217.087,104.012C217.822,104.012 218.396,104.281 219.347,104.281C219.992,104.281 220.423,104.173 221.014,103.868L214.684,111.042L214.845,111.526C215.365,111.114 215.85,110.952 216.477,110.952C217.607,110.952 219.239,111.616 220.476,111.616Z" style="fill:black;fill-rule:nonzero;"/>
    <g>
        <g>
            <path d="M9.143,54.4C9.412,54.544 9.699,54.616 9.914,54.616C10.506,54.616 11.206,54.096 11.761,53.253L13.124,51.155L13.322,52.392C13.555,53.916 13.967,54.616 14.613,54.616C15.007,54.616 15.581,54.311 16.155,53.791L17.034,53.002L16.872,52.661C16.227,53.199 15.779,53.468 15.492,53.468C15.223,53.468 14.989,53.289 14.81,52.93C14.649,52.589 14.451,51.926 14.362,51.406L14.039,49.594L14.667,48.716C15.51,47.55 15.994,47.137 16.55,47.137C16.837,47.137 17.052,47.281 17.141,47.55L17.393,47.478L17.662,45.954C17.446,45.828 17.285,45.775 17.124,45.775C16.406,45.775 15.689,46.42 14.577,48.07L13.913,49.056L13.806,48.196C13.591,46.42 13.106,45.775 12.048,45.775C11.582,45.775 11.188,45.918 11.026,46.151L9.986,47.64L10.291,47.819C10.829,47.209 11.188,46.958 11.528,46.958C12.12,46.958 12.515,47.693 12.82,49.451L13.017,50.563L12.299,51.675C11.528,52.876 10.919,53.45 10.416,53.45C10.147,53.45 9.95,53.378 9.914,53.289L9.717,52.786L9.358,52.84C9.358,53.468 9.215,53.934 9.143,54.4Z" style="fill:black;fill-rule:nonzero;"/>
            <path d="M21.687,52.049C22.327,52.049 22.848,52.415 22.848,53.419C22.848,53.628 22.679,53.81 22.314,53.837L19.887,53.98C20.031,52.884 20.748,52.049 21.687,52.049ZM24.231,56.472C24.231,56.341 24.192,56.25 24.062,56.25C23.762,56.25 23.54,57.241 21.961,57.241C20.813,57.241 19.835,56.563 19.835,54.593L23.422,54.489C23.801,54.476 24.153,54.28 24.153,53.876C24.153,51.932 22.835,51.384 21.909,51.384C19.874,51.384 18.583,53.041 18.583,55.128C18.583,57.293 20.044,58.311 21.661,58.311C23.018,58.311 24.231,57.372 24.231,56.472Z" style="fill:black;fill-rule:nonzero;"/>
            <path d="M30.845,53.432C31.249,52.415 31.536,52.089 32.032,51.984C32.149,51.958 32.227,51.841 32.227,51.736C32.227,51.619 32.149,51.515 31.98,51.515L29.319,51.515C29.162,51.515 29.097,51.619 29.097,51.723C29.097,51.841 29.175,51.958 29.279,51.984C29.906,52.102 30.232,52.193 30.232,52.506C30.232,52.571 30.219,52.663 30.179,52.754L28.692,56.915L27.153,52.623C27.127,52.545 27.114,52.467 27.114,52.402C27.114,52.154 27.323,52.036 27.792,51.984C27.923,51.971 28.001,51.854 28.001,51.736C28.001,51.619 27.923,51.515 27.766,51.515L25.027,51.515C24.857,51.515 24.779,51.632 24.779,51.762C24.779,51.88 24.857,52.01 24.988,52.023C25.47,52.062 25.666,52.571 26.096,53.641L28.027,58.389L27.571,59.511C27.297,60.176 27.01,60.398 26.723,60.398C26.423,60.398 26.175,60.307 26.031,60.072C25.823,60.176 25.64,60.372 25.64,60.737C25.64,61.207 26.044,61.494 26.644,61.494C27.205,61.494 27.675,61.207 27.923,60.607L30.845,53.432Z" style="fill:black;fill-rule:nonzero;"/>
            <path d="M35.984,52.049C36.623,52.049 37.145,52.415 37.145,53.419C37.145,53.628 36.976,53.81 36.61,53.837L34.184,53.98C34.328,52.884 35.045,52.049 35.984,52.049ZM38.528,56.472C38.528,56.341 38.489,56.25 38.358,56.25C38.058,56.25 37.837,57.241 36.258,57.241C35.11,57.241 34.132,56.563 34.132,54.593L37.719,54.489C38.098,54.476 38.45,54.28 38.45,53.876C38.45,51.932 37.132,51.384 36.206,51.384C34.171,51.384 32.88,53.041 32.88,55.128C32.88,57.293 34.341,58.311 35.958,58.311C37.315,58.311 38.528,57.372 38.528,56.472Z" style="fill:black;fill-rule:nonzero;"/>
        </g>
    </g>
    <g>
        <path d="M37.359,26.4C37.628,26.544 37.915,26.616 38.13,26.616C38.722,26.616 39.422,26.096 39.977,25.253L41.34,23.155L41.538,24.392C41.771,25.916 42.183,26.616 42.829,26.616C43.223,26.616 43.797,26.311 44.371,25.791L45.25,25.002L45.088,24.661C44.443,25.199 43.995,25.468 43.708,25.468C43.439,25.468 43.205,25.289 43.026,24.93C42.865,24.589 42.667,23.926 42.578,23.406L42.255,21.594L42.883,20.716C43.726,19.55 44.21,19.137 44.766,19.137C45.053,19.137 45.268,19.281 45.357,19.55L45.609,19.478L45.878,17.954C45.662,17.828 45.501,17.775 45.34,17.775C44.622,17.775 43.905,18.42 42.793,20.07L42.129,21.056L42.022,20.196C41.807,18.42 41.322,17.775 40.264,17.775C39.798,17.775 39.404,17.918 39.242,18.151L38.202,19.64L38.507,19.819C39.045,19.209 39.404,18.958 39.744,18.958C40.336,18.958 40.731,19.693 41.036,21.451L41.233,22.563L40.515,23.675C39.744,24.876 39.135,25.45 38.632,25.45C38.363,25.45 38.166,25.378 38.13,25.289L37.933,24.786L37.574,24.84C37.574,25.468 37.431,25.934 37.359,26.4Z" style="fill:black;fill-rule:nonzero;"/>
        <path d="M1.935,71.4C2.204,71.544 2.491,71.616 2.706,71.616C3.298,71.616 3.998,71.096 4.553,70.253L5.916,68.155L6.114,69.392C6.347,70.916 6.759,71.616 7.405,71.616C7.799,71.616 8.373,71.311 8.947,70.791L9.826,70.002L9.664,69.661C9.019,70.199 8.571,70.468 8.284,70.468C8.015,70.468 7.781,70.289 7.602,69.93C7.441,69.589 7.243,68.926 7.154,68.406L6.831,66.594L7.459,65.716C8.302,64.55 8.786,64.137 9.342,64.137C9.629,64.137 9.844,64.281 9.933,64.55L10.185,64.478L10.454,62.954C10.238,62.828 10.077,62.775 9.916,62.775C9.198,62.775 8.481,63.42 7.369,65.07L6.705,66.056L6.598,65.196C6.383,63.42 5.898,62.775 4.84,62.775C4.374,62.775 3.98,62.918 3.818,63.151L2.778,64.64L3.083,64.819C3.621,64.209 3.98,63.958 4.32,63.958C4.912,63.958 5.307,64.693 5.612,66.451L5.809,67.563L5.091,68.675C4.32,69.876 3.711,70.45 3.208,70.45C2.939,70.45 2.742,70.378 2.706,70.289L2.509,69.786L2.15,69.84C2.15,70.468 2.007,70.934 1.935,71.4Z" style="fill:black;fill-rule:nonzero;"/>
        <path d="M13.488,70.458C13.762,69.845 14.323,69.323 15.119,69.323C16.436,69.323 16.84,70.667 16.84,71.854C16.84,73.511 16.019,74.659 14.753,74.659C13.945,74.659 13.488,74.111 13.488,73.459L13.488,70.458ZM13.488,74.946C13.71,75.167 14.179,75.311 14.662,75.311C16.71,75.311 18.262,73.902 18.262,71.424C18.262,69.545 17.101,68.384 15.588,68.384C14.479,68.384 13.723,69.128 13.436,69.636C13.436,68.945 13.397,68.515 13.097,68.515C12.784,68.515 11.492,68.697 11.036,68.828C10.905,68.867 10.853,68.984 10.853,69.089C10.853,69.206 10.918,69.323 11.088,69.323L11.31,69.323C12.236,69.323 12.301,70.093 12.301,72.806L12.301,75.311C12.301,76.054 12.262,76.641 12.236,76.954C12.184,77.607 12.053,77.75 11.14,77.894C10.997,77.92 10.931,78.037 10.931,78.155C10.931,78.259 10.983,78.363 11.101,78.363L14.61,78.363C14.727,78.363 14.779,78.259 14.779,78.155C14.779,78.037 14.714,77.92 14.571,77.894C13.71,77.75 13.671,77.62 13.579,76.954C13.54,76.641 13.488,76.054 13.488,75.311L13.488,74.946Z" style="fill:black;fill-rule:nonzero;"/>
        <path d="M22.671,69.049C23.311,69.049 23.832,69.415 23.832,70.419C23.832,70.628 23.663,70.81 23.298,70.837L20.871,70.98C21.015,69.884 21.732,69.049 22.671,69.049ZM25.215,73.472C25.215,73.341 25.176,73.25 25.046,73.25C24.746,73.25 24.524,74.241 22.945,74.241C21.797,74.241 20.819,73.563 20.819,71.593L24.406,71.489C24.785,71.476 25.137,71.28 25.137,70.876C25.137,68.932 23.819,68.384 22.893,68.384C20.858,68.384 19.567,70.041 19.567,72.128C19.567,74.293 21.028,75.311 22.645,75.311C24.002,75.311 25.215,74.372 25.215,73.472Z" style="fill:black;fill-rule:nonzero;"/>
        <path d="M28.828,70.328C28.828,69.389 28.659,68.515 28.241,68.515C27.928,68.515 26.846,68.697 26.389,68.828C26.259,68.867 26.207,68.984 26.207,69.089C26.207,69.206 26.272,69.323 26.454,69.323L26.663,69.323C27.589,69.323 27.654,69.963 27.654,71.358L27.654,72.128C27.654,72.872 27.615,73.459 27.589,73.772C27.537,74.424 27.407,74.58 26.493,74.711C26.35,74.737 26.285,74.854 26.285,74.972C26.285,75.076 26.337,75.18 26.493,75.18L30.263,75.18C30.433,75.18 30.485,75.076 30.485,74.972C30.485,74.854 30.42,74.737 30.276,74.711C29.415,74.58 28.959,74.437 28.868,73.772C28.828,73.459 28.802,73.158 28.802,71.815C28.802,70.589 29.65,69.702 30.224,69.702C30.589,69.702 30.759,69.95 30.837,70.145C31.02,70.145 31.672,69.976 31.672,69.336C31.672,68.697 31.242,68.384 30.681,68.384C30.081,68.384 29.415,68.762 28.828,70.328Z" style="fill:black;fill-rule:nonzero;"/>
        <path d="M34.62,68.384C33.603,68.384 32.351,68.828 32.351,70.093C32.351,71.176 33.159,71.711 34.046,72.219C35.312,72.95 35.703,73.25 35.703,73.824C35.703,74.463 35.116,74.659 34.333,74.659C33.159,74.659 33.159,73.85 33.159,73.354C32.559,73.237 32.024,73.602 32.024,74.189C32.024,74.959 32.846,75.311 34.255,75.311C35.455,75.311 36.877,74.867 36.877,73.524C36.877,72.363 36.068,71.854 34.829,71.124C33.851,70.55 33.498,70.302 33.498,69.78C33.498,69.31 33.89,69.01 34.49,69.01C35.325,69.01 35.52,69.623 35.559,70.184C36.225,70.184 36.603,69.963 36.603,69.441C36.603,68.567 35.364,68.384 34.62,68.384Z" style="fill:black;fill-rule:nonzero;"/>
    </g>
    <path d="M171.59,90.842L171.59,105.016" style="fill:none;stroke-width:1px;stroke:black;"/>
    <path d="M171.59,58.953L171.59,90.842" style="fill:none;stroke-width:1px;stroke-dasharray:1,4;stroke:black;"/>
    <path d="M44.031,55.409L58.205,55.409" style="fill:none;stroke-width:1px;stroke:black;"/>
    <path d="M168.047,55.409L58.205,55.409" style="fill:none;stroke-width:1px;stroke-dasharray:1,4;stroke:black;"/>
    <path d="M51.118,97.929L168.248,56.589" style="fill:none;stroke-width:2px;stroke:black;"/>
    <path d="M124.49,70.62C125.874,72.004 125.874,74.248 124.49,75.631C123.106,77.015 120.863,77.015 119.479,75.631C118.095,74.248 118.095,72.004 119.479,70.62C120.863,69.237 123.106,69.237 124.49,70.62" style="fill:black;fill-rule:nonzero;"/>
    <path d="M44.031,73.166L58.205,73.166" style="fill:none;stroke-width:1px;stroke:black;"/>
    <path d="M121.984,73.166L58.205,73.166" style="fill:none;stroke-width:1px;stroke-dasharray:1,4;stroke:black;"/>
    <path d="M100.724,97.929C100.724,92.337 99.785,86.745 97.905,81.409L51.118,97.929L100.724,97.929Z" style="fill:white;fill-opacity:0;fill-rule:nonzero;stroke-width:1px;stroke:black;"/>
    <path d="M105.168,95.087C107.553,95.087 109.221,92.236 109.956,90.299C110.387,90.138 110.781,89.887 111.176,89.6L111.176,89.456C110.853,89.438 110.548,89.403 110.243,89.349C110.889,87.053 110.692,82.229 107.428,82.229C105.706,82.229 104.307,83.753 104.271,85.457C104.235,88.004 107.194,89.51 109.311,90.066C108.934,91.447 107.75,94.227 106.011,94.227C103.984,94.227 105.096,89.367 103.895,89.367C103.231,89.367 102.101,90.371 101.653,90.783L101.653,91.07L101.886,91.07C102.101,90.873 102.442,90.532 102.747,90.532C103.877,90.532 102.873,95.087 105.168,95.087ZM106.818,82.911C109.382,82.911 109.723,86.982 109.49,89.134C107.84,88.309 105.042,86.766 105.078,84.614C105.078,83.664 105.867,82.911 106.818,82.911Z" style="fill:black;fill-rule:nonzero;"/>
    <path d="M185.354,50.616C186.358,50.616 188.421,49.307 189.192,48.177C189.927,47.083 190.537,45.11 190.537,43.765C190.537,42.564 190.124,41.775 189.479,41.775C188.726,41.775 187.775,42.241 186.843,43.084C186.107,43.711 185.749,44.178 185.103,45.236L185.533,43.102C185.587,42.797 185.623,42.528 185.623,42.313C185.623,41.972 185.48,41.775 185.229,41.775C184.852,41.775 184.17,42.151 182.843,43.102L182.341,43.46L182.467,43.819L183.041,43.442C183.543,43.12 183.74,43.03 183.901,43.03C184.081,43.03 184.206,43.191 184.206,43.442C184.206,43.586 184.17,43.944 184.135,44.124L183.094,50.275C182.915,51.351 182.574,52.983 182.216,54.597L182.072,55.26L182.198,55.368C182.574,55.242 182.933,55.153 183.507,55.063L184.26,50.365C184.637,50.49 185.031,50.616 185.354,50.616ZM184.762,47.459C185.157,45.164 187.076,42.815 188.564,42.815C189.03,42.815 189.246,43.209 189.246,44.034C189.246,45.487 188.528,47.621 187.578,48.984C187.219,49.504 186.645,49.773 185.91,49.773C185.354,49.773 184.906,49.647 184.439,49.36L184.762,47.459Z" style="fill:black;fill-rule:nonzero;"/>
</svg>
