<?xml version="1.0" standalone="no"?>
<!DOCTYPE svg PUBLIC "-//W3C//DTD SVG 1.1//EN" "http://www.w3.org/Graphics/SVG/1.1/DTD/svg11.dtd">
<svg width="100%" height="100%" viewBox="0 0 233 120" version="1.1" xmlns="http://www.w3.org/2000/svg" xmlns:xlink="http://www.w3.org/1999/xlink" xml:space="preserve" style="fill-rule:evenodd;clip-rule:evenodd;stroke-linecap:round;stroke-linejoin:round;stroke-miterlimit:10;">
    <rect x="-212" y="-292" width="806" height="1132" style="fill:white;fill-rule:nonzero;"/>
    <path d="M43.118,111.937L43.118,15.538" style="fill:none;stroke-width:1px;stroke:black;"/>
    <path d="M43.118,7.538L40.118,15.538L46.118,15.538L43.118,7.538Z" style="fill:black;fill-rule:nonzero;stroke-width:1px;stroke-linecap:butt;stroke-linejoin:miter;stroke:black;"/>
    <path d="M28.945,97.764L210.383,97.764" style="fill:none;stroke-width:1px;stroke:black;"/>
    <path d="M218.384,97.764L210.384,94.764L210.384,100.764L218.384,97.764Z" style="fill:black;fill-rule:nonzero;stroke-width:1px;stroke-linecap:butt;stroke-linejoin:miter;stroke:black;"/>
    <path d="M166.096,52.739C167.48,54.122 167.48,56.366 166.096,57.75C164.712,59.133 162.469,59.133 161.085,57.75C159.701,56.366 159.701,54.122 161.085,52.739C162.469,51.355 164.712,51.355 166.096,52.739" style="fill:black;fill-rule:nonzero;"/>
    <g>
        <path d="M155.242,111.616C155.458,111.616 155.619,111.58 156.139,111.436C156.336,110.324 156.48,109.715 156.677,108.872L156.282,108.872L155.888,109.948C155.78,110.271 155.565,110.396 155.189,110.396C154.973,110.396 154.686,110.36 154.31,110.271L153.987,110.199C153.395,110.073 152.785,109.984 152.445,109.984C151.871,109.984 151.387,110.091 150.741,110.36L156.82,103.51L156.928,102.936L156.767,102.775L156.354,103.187C156.175,103.366 155.996,103.438 155.744,103.438C155.135,103.438 154.202,103.295 153.341,103.061L153.019,102.972C152.516,102.846 152.158,102.775 151.907,102.775C151.602,102.775 151.243,102.828 150.813,102.954L150.239,105.142L150.616,105.142L151.154,104.102C151.458,104.03 151.62,104.012 151.853,104.012C152.588,104.012 153.162,104.281 154.113,104.281C154.758,104.281 155.189,104.173 155.78,103.868L149.45,111.042L149.611,111.526C150.131,111.114 150.616,110.952 151.243,110.952C152.373,110.952 154.005,111.616 155.242,111.616Z" style="fill:black;fill-rule:nonzero;"/>
        <path d="M161.169,109.049C161.808,109.049 162.33,109.415 162.33,110.419C162.33,110.628 162.161,110.81 161.795,110.837L159.369,110.98C159.512,109.884 160.23,109.049 161.169,109.049ZM163.713,113.472C163.713,113.341 163.674,113.25 163.543,113.25C163.243,113.25 163.021,114.241 161.443,114.241C160.295,114.241 159.317,113.563 159.317,111.593L162.904,111.489C163.282,111.476 163.635,111.28 163.635,110.876C163.635,108.932 162.317,108.384 161.391,108.384C159.356,108.384 158.065,110.041 158.065,112.128C158.065,114.293 159.526,115.311 161.143,115.311C162.5,115.311 163.713,114.372 163.713,113.472Z" style="fill:black;fill-rule:nonzero;"/>
        <path d="M170.326,110.432C170.731,109.415 171.018,109.089 171.514,108.984C171.631,108.958 171.709,108.841 171.709,108.736C171.709,108.619 171.631,108.515 171.461,108.515L168.8,108.515C168.644,108.515 168.578,108.619 168.578,108.723C168.578,108.841 168.657,108.958 168.761,108.984C169.387,109.102 169.713,109.193 169.713,109.506C169.713,109.571 169.7,109.663 169.661,109.754L168.174,113.915L166.635,109.623C166.609,109.545 166.596,109.467 166.596,109.402C166.596,109.154 166.804,109.036 167.274,108.984C167.404,108.971 167.483,108.854 167.483,108.736C167.483,108.619 167.404,108.515 167.248,108.515L164.509,108.515C164.339,108.515 164.261,108.632 164.261,108.762C164.261,108.88 164.339,109.01 164.469,109.023C164.952,109.062 165.148,109.571 165.578,110.641L167.509,115.389L167.052,116.511C166.778,117.176 166.491,117.398 166.204,117.398C165.904,117.398 165.656,117.307 165.513,117.072C165.304,117.176 165.122,117.372 165.122,117.737C165.122,118.207 165.526,118.494 166.126,118.494C166.687,118.494 167.157,118.207 167.404,117.607L170.326,110.432Z" style="fill:black;fill-rule:nonzero;"/>
        <path d="M175.466,109.049C176.105,109.049 176.627,109.415 176.627,110.419C176.627,110.628 176.457,110.81 176.092,110.837L173.666,110.98C173.809,109.884 174.527,109.049 175.466,109.049ZM178.01,113.472C178.01,113.341 177.971,113.25 177.84,113.25C177.54,113.25 177.318,114.241 175.74,114.241C174.592,114.241 173.614,113.563 173.614,111.593L177.201,111.489C177.579,111.476 177.931,111.28 177.931,110.876C177.931,108.932 176.614,108.384 175.688,108.384C173.653,108.384 172.361,110.041 172.361,112.128C172.361,114.293 173.822,115.311 175.44,115.311C176.797,115.311 178.01,114.372 178.01,113.472Z" style="fill:black;fill-rule:nonzero;"/>
    </g>
    <path d="M212.476,111.616C212.692,111.616 212.853,111.58 213.373,111.436C213.57,110.324 213.714,109.715 213.911,108.872L213.516,108.872L213.122,109.948C213.014,110.271 212.799,110.396 212.423,110.396C212.207,110.396 211.92,110.36 211.544,110.271L211.221,110.199C210.629,110.073 210.019,109.984 209.679,109.984C209.105,109.984 208.621,110.091 207.975,110.36L214.054,103.51L214.162,102.936L214.001,102.775L213.588,103.187C213.409,103.366 213.23,103.438 212.978,103.438C212.369,103.438 211.436,103.295 210.575,103.061L210.253,102.972C209.75,102.846 209.392,102.775 209.141,102.775C208.836,102.775 208.477,102.828 208.047,102.954L207.473,105.142L207.85,105.142L208.388,104.102C208.692,104.03 208.854,104.012 209.087,104.012C209.822,104.012 210.396,104.281 211.347,104.281C211.992,104.281 212.423,104.173 213.014,103.868L206.684,111.042L206.845,111.526C207.365,111.114 207.85,110.952 208.477,110.952C209.607,110.952 211.239,111.616 212.476,111.616Z" style="fill:black;fill-rule:nonzero;"/>
    <g>
        <g>
            <path d="M1.143,54.4C1.412,54.544 1.699,54.616 1.914,54.616C2.506,54.616 3.206,54.096 3.761,53.253L5.124,51.155L5.322,52.392C5.555,53.916 5.967,54.616 6.613,54.616C7.007,54.616 7.581,54.311 8.155,53.791L9.034,53.002L8.872,52.661C8.227,53.199 7.779,53.468 7.492,53.468C7.223,53.468 6.989,53.289 6.81,52.93C6.649,52.589 6.451,51.926 6.362,51.406L6.039,49.594L6.667,48.716C7.51,47.55 7.994,47.137 8.55,47.137C8.837,47.137 9.052,47.281 9.141,47.55L9.393,47.478L9.662,45.954C9.446,45.828 9.285,45.775 9.124,45.775C8.406,45.775 7.689,46.42 6.577,48.07L5.913,49.056L5.806,48.196C5.591,46.42 5.106,45.775 4.048,45.775C3.582,45.775 3.188,45.918 3.026,46.151L1.986,47.64L2.291,47.819C2.829,47.209 3.188,46.958 3.528,46.958C4.12,46.958 4.515,47.693 4.82,49.451L5.017,50.563L4.299,51.675C3.528,52.876 2.919,53.45 2.416,53.45C2.147,53.45 1.95,53.378 1.914,53.289L1.717,52.786L1.358,52.84C1.358,53.468 1.215,53.934 1.143,54.4Z" style="fill:black;fill-rule:nonzero;"/>
            <path d="M13.687,52.049C14.327,52.049 14.848,52.415 14.848,53.419C14.848,53.628 14.679,53.81 14.314,53.837L11.887,53.98C12.031,52.884 12.748,52.049 13.687,52.049ZM16.231,56.472C16.231,56.341 16.192,56.25 16.062,56.25C15.762,56.25 15.54,57.241 13.961,57.241C12.813,57.241 11.835,56.563 11.835,54.593L15.422,54.489C15.801,54.476 16.153,54.28 16.153,53.876C16.153,51.932 14.835,51.384 13.909,51.384C11.874,51.384 10.583,53.041 10.583,55.128C10.583,57.293 12.044,58.311 13.661,58.311C15.018,58.311 16.231,57.372 16.231,56.472Z" style="fill:black;fill-rule:nonzero;"/>
            <path d="M22.845,53.432C23.249,52.415 23.536,52.089 24.032,51.984C24.149,51.958 24.227,51.841 24.227,51.736C24.227,51.619 24.149,51.515 23.98,51.515L21.319,51.515C21.162,51.515 21.097,51.619 21.097,51.723C21.097,51.841 21.175,51.958 21.279,51.984C21.906,52.102 22.232,52.193 22.232,52.506C22.232,52.571 22.219,52.663 22.179,52.754L20.692,56.915L19.153,52.623C19.127,52.545 19.114,52.467 19.114,52.402C19.114,52.154 19.323,52.036 19.792,51.984C19.923,51.971 20.001,51.854 20.001,51.736C20.001,51.619 19.923,51.515 19.766,51.515L17.027,51.515C16.857,51.515 16.779,51.632 16.779,51.762C16.779,51.88 16.857,52.01 16.988,52.023C17.47,52.062 17.666,52.571 18.096,53.641L20.027,58.389L19.571,59.511C19.297,60.176 19.01,60.398 18.723,60.398C18.423,60.398 18.175,60.307 18.031,60.072C17.823,60.176 17.64,60.372 17.64,60.737C17.64,61.207 18.044,61.494 18.644,61.494C19.205,61.494 19.675,61.207 19.923,60.607L22.845,53.432Z" style="fill:black;fill-rule:nonzero;"/>
            <path d="M27.984,52.049C28.623,52.049 29.145,52.415 29.145,53.419C29.145,53.628 28.976,53.81 28.61,53.837L26.184,53.98C26.328,52.884 27.045,52.049 27.984,52.049ZM30.528,56.472C30.528,56.341 30.489,56.25 30.358,56.25C30.058,56.25 29.837,57.241 28.258,57.241C27.11,57.241 26.132,56.563 26.132,54.593L29.719,54.489C30.098,54.476 30.45,54.28 30.45,53.876C30.45,51.932 29.132,51.384 28.206,51.384C26.171,51.384 24.88,53.041 24.88,55.128C24.88,57.293 26.341,58.311 27.958,58.311C29.315,58.311 30.528,57.372 30.528,56.472Z" style="fill:black;fill-rule:nonzero;"/>
        </g>
    </g>
    <path d="M29.359,26.4C29.628,26.544 29.915,26.616 30.13,26.616C30.722,26.616 31.422,26.096 31.977,25.253L33.34,23.155L33.538,24.392C33.771,25.916 34.183,26.616 34.829,26.616C35.223,26.616 35.797,26.311 36.371,25.791L37.25,25.002L37.088,24.661C36.443,25.199 35.995,25.468 35.708,25.468C35.439,25.468 35.205,25.289 35.026,24.93C34.865,24.589 34.667,23.926 34.578,23.406L34.255,21.594L34.883,20.716C35.726,19.55 36.21,19.137 36.766,19.137C37.053,19.137 37.268,19.281 37.357,19.55L37.609,19.478L37.878,17.954C37.662,17.828 37.501,17.775 37.34,17.775C36.622,17.775 35.905,18.42 34.793,20.07L34.129,21.056L34.022,20.196C33.807,18.42 33.322,17.775 32.264,17.775C31.798,17.775 31.404,17.918 31.242,18.151L30.202,19.64L30.507,19.819C31.045,19.209 31.404,18.958 31.744,18.958C32.336,18.958 32.731,19.693 33.036,21.451L33.233,22.563L32.515,23.675C31.744,24.876 31.135,25.45 30.632,25.45C30.363,25.45 30.166,25.378 30.13,25.289L29.933,24.786L29.574,24.84C29.574,25.468 29.431,25.934 29.359,26.4Z" style="fill:black;fill-rule:nonzero;"/>
    <path d="M177.354,50.616C178.358,50.616 180.421,49.307 181.192,48.177C181.927,47.083 182.537,45.11 182.537,43.765C182.537,42.564 182.124,41.775 181.479,41.775C180.726,41.775 179.775,42.241 178.843,43.084C178.107,43.711 177.749,44.178 177.103,45.236L177.533,43.102C177.587,42.797 177.623,42.528 177.623,42.313C177.623,41.972 177.48,41.775 177.229,41.775C176.852,41.775 176.17,42.151 174.843,43.102L174.341,43.46L174.467,43.819L175.041,43.442C175.543,43.12 175.74,43.03 175.901,43.03C176.081,43.03 176.206,43.191 176.206,43.442C176.206,43.586 176.17,43.944 176.135,44.124L175.094,50.275C174.915,51.351 174.574,52.983 174.216,54.597L174.072,55.26L174.198,55.368C174.574,55.242 174.933,55.153 175.507,55.063L176.26,50.365C176.637,50.49 177.031,50.616 177.354,50.616ZM176.762,47.459C177.157,45.164 179.076,42.815 180.564,42.815C181.03,42.815 181.246,43.209 181.246,44.034C181.246,45.487 180.528,47.621 179.578,48.984C179.219,49.504 178.645,49.773 177.91,49.773C177.354,49.773 176.906,49.647 176.439,49.36L176.762,47.459Z" style="fill:black;fill-rule:nonzero;"/>
    <g id="Trimado">
        <path d="M163.59,90.677L163.59,104.85" style="fill:none;stroke-width:1px;stroke:black;"/>
        <path d="M163.59,58.787L163.59,90.677" style="fill:none;stroke-width:1px;stroke-dasharray:1,4;stroke:black;"/>
        <path d="M36.031,55.244L50.205,55.244" style="fill:none;stroke-width:1px;stroke:black;"/>
        <path d="M160.047,55.244L50.205,55.244" style="fill:none;stroke-width:1px;stroke-dasharray:1,4;stroke:black;"/>
    </g>
</svg>
