<?xml version="1.0" standalone="no"?>
<!DOCTYPE svg PUBLIC "-//W3C//DTD SVG 1.1//EN" "http://www.w3.org/Graphics/SVG/1.1/DTD/svg11.dtd">
<svg width="100%" height="100%" viewBox="0 0 530 505" version="1.1" xmlns="http://www.w3.org/2000/svg" xmlns:xlink="http://www.w3.org/1999/xlink" xml:space="preserve" style="fill-rule:evenodd;clip-rule:evenodd;stroke-linecap:round;stroke-linejoin:round;stroke-miterlimit:10;">
    <rect x="-279" y="-407" width="806" height="1132" style="fill:white;fill-rule:nonzero;"/>
    <path d="M331.456,173.62C386.806,228.969 386.806,318.709 331.456,374.059C276.106,429.409 186.366,429.409 131.016,374.059C75.666,318.709 75.666,228.969 131.016,173.62C186.366,118.269 276.106,118.269 331.456,173.62" style="fill:rgb(0,249,0);fill-opacity:0.501961;fill-rule:nonzero;"/>
    <path d="M4.465,274.315L448.054,274.315" style="fill:none;stroke-width:3px;stroke:black;"/>
    <g>
        <path d="M481.654,274.315L448.054,261.715L448.054,286.915L481.654,274.315Z" style="fill:black;fill-rule:nonzero;"/>
        <path d="M485.926,274.315L446.554,289.079L446.554,259.55L485.926,274.315ZM449.554,284.75L477.382,274.315L449.554,263.879L449.554,284.75Z" style="fill:black;"/>
    </g>
    <path d="M231.236,500.087L231.236,56.497" style="fill:none;stroke-width:3px;stroke:black;"/>
    <g>
        <path d="M231.236,22.897L218.636,56.497L243.836,56.497L231.236,22.897Z" style="fill:black;fill-rule:nonzero;"/>
        <path d="M246.001,57.997L216.472,57.997L231.236,18.625L246.001,57.997ZM220.801,54.997L241.672,54.997L231.236,27.169L220.801,54.997Z" style="fill:black;"/>
    </g>
    <path d="M372.968,259.142L372.968,287.488" style="fill:none;stroke-width:3px;stroke:black;"/>
    <path d="M245.409,131.583L217.063,131.583" style="fill:none;stroke-width:3px;stroke:black;"/>
    <path d="M245.409,415.047L217.063,415.047" style="fill:none;stroke-width:3px;stroke:black;"/>
    <path d="M89.504,259.142L89.504,287.488" style="fill:none;stroke-width:3px;stroke:black;"/>
    <path d="M380.119,323.736L380.119,322.69L378.306,322.585C376.388,322.481 376.04,322.097 376.04,320.284L376.04,299.222L367.636,302.779L367.88,304.522L373.11,302.221L373.11,320.284C373.11,322.097 372.727,322.481 370.844,322.585L368.891,322.69L368.891,323.736C374.261,323.631 374.261,323.631 374.645,323.631C375.726,323.631 379.562,323.736 380.119,323.736Z" style="fill:black;fill-rule:nonzero;"/>
    <path d="M208.049,142.319L208.049,141.273L206.235,141.168C204.317,141.063 203.969,140.68 203.969,138.867L203.969,117.805L195.565,121.362L195.809,123.105L201.04,120.804L201.04,138.867C201.04,140.68 200.656,141.063 198.773,141.168L196.82,141.273L196.82,142.319C202.19,142.214 202.19,142.214 202.574,142.214C203.655,142.214 207.491,142.319 208.049,142.319Z" style="fill:black;fill-rule:nonzero;"/>
    <rect x="63.696" y="313.205" width="17.575" height="1.953" style="fill:black;fill-rule:nonzero;"/>
    <path d="M97.59,323.736L97.59,322.69L95.776,322.585C93.859,322.481 93.51,322.097 93.51,320.284L93.51,299.222L85.106,302.779L85.35,304.522L90.581,302.221L90.581,320.284C90.581,322.097 90.197,322.481 88.314,322.585L86.361,322.69L86.361,323.736C91.731,323.631 91.731,323.631 92.115,323.631C93.196,323.631 97.032,323.736 97.59,323.736Z" style="fill:black;fill-rule:nonzero;"/>
    <rect x="175.27" y="416.103" width="17.575" height="1.953" style="fill:black;fill-rule:nonzero;"/>
    <path d="M209.165,426.634L209.165,425.588L207.351,425.483C205.433,425.378 205.085,424.995 205.085,423.182L205.085,402.12L196.681,405.677L196.925,407.42L202.156,405.119L202.156,423.182C202.156,424.995 201.772,425.378 199.889,425.483L197.936,425.588L197.936,426.634C203.306,426.529 203.306,426.529 203.69,426.529C204.771,426.529 208.607,426.634 209.165,426.634Z" style="fill:black;fill-rule:nonzero;"/>
</svg>
