<?xml version="1.0" standalone="no"?>
<!DOCTYPE svg PUBLIC "-//W3C//DTD SVG 1.1//EN" "http://www.w3.org/Graphics/SVG/1.1/DTD/svg11.dtd">
<svg width="100%" height="100%" viewBox="0 0 183 135" version="1.1" xmlns="http://www.w3.org/2000/svg" xmlns:xlink="http://www.w3.org/1999/xlink" xml:space="preserve" style="fill-rule:evenodd;clip-rule:evenodd;stroke-miterlimit:10;">
    <rect x="-277" y="-242" width="559" height="783" style="fill:white;fill-rule:nonzero;"/>
    <path d="M38.084,126.525L36.584,130.525L39.584,130.525L38.084,126.525Z" style="fill:rgb(4,51,255);fill-rule:nonzero;stroke-width:1px;stroke:rgb(4,51,255);"/>
    <path d="M151.911,129.845L153.411,125.845L150.411,125.845L151.911,129.845Z" style="fill:rgb(4,51,255);fill-rule:nonzero;stroke-width:1px;stroke:rgb(4,51,255);"/>
    <path d="M18.551,102.683L20.992,106.189L22.695,103.72L18.551,102.683Z" style="fill:rgb(4,51,255);fill-rule:nonzero;stroke-width:1px;stroke:rgb(4,51,255);"/>
    <path d="M76.285,25.867L73.844,22.361L72.141,24.83L76.285,25.867Z" style="fill:rgb(4,51,255);fill-rule:nonzero;stroke-width:1px;stroke:rgb(4,51,255);"/>
    <path d="M108.706,23.882L104.562,24.921L106.268,27.389L108.706,23.882Z" style="fill:rgb(4,51,255);fill-rule:nonzero;stroke-width:1px;stroke:rgb(4,51,255);"/>
    <path d="M162.646,105.956L166.789,104.916L165.084,102.448L162.646,105.956Z" style="fill:rgb(4,51,255);fill-rule:nonzero;stroke-width:1px;stroke:rgb(4,51,255);"/>
    <path d="M82.314,123.205C85.363,121.174 88.412,119.207 91.461,119.207C94.509,119.207 97.558,121.174 100.607,123.205" style="fill:none;stroke-width:1px;stroke-linecap:round;stroke-linejoin:round;stroke:rgb(255,38,0);"/>
    <path d="M104.015,125.299L101.392,121.927L99.822,124.483L104.015,125.299Z" style="fill:rgb(255,38,0);fill-rule:nonzero;stroke-width:1px;stroke:rgb(255,38,0);"/>
    <path d="M78.906,125.299L83.1,124.483L81.529,121.927L78.906,125.299Z" style="fill:rgb(255,38,0);fill-rule:nonzero;stroke-width:1px;stroke:rgb(255,38,0);"/>
    <path d="M42.457,79.979C45.881,78.676 49.253,77.336 51.023,74.855C52.794,72.373 52.962,68.748 53.08,65.087" style="fill:none;stroke-width:1px;stroke-linecap:round;stroke-linejoin:round;stroke:rgb(255,38,0);"/>
    <path d="M53.354,61.097L51.583,64.984L54.576,65.19L53.354,61.097Z" style="fill:rgb(255,38,0);fill-rule:nonzero;stroke-width:1px;stroke:rgb(255,38,0);"/>
    <path d="M38.774,81.538L43.042,81.361L41.873,78.598L38.774,81.538Z" style="fill:rgb(255,38,0);fill-rule:nonzero;stroke-width:1px;stroke:rgb(255,38,0);"/>
    <path d="M140.068,80.047C136.645,78.744 133.272,77.404 131.502,74.923C129.732,72.441 129.563,68.816 129.446,65.155" style="fill:none;stroke-width:1px;stroke-linecap:round;stroke-linejoin:round;stroke:rgb(255,38,0);"/>
    <path d="M129.171,61.164L127.949,65.258L130.942,65.052L129.171,61.164Z" style="fill:rgb(255,38,0);fill-rule:nonzero;stroke-width:1px;stroke:rgb(255,38,0);"/>
    <path d="M143.752,81.606L140.653,78.666L139.484,81.429L143.752,81.606Z" style="fill:rgb(255,38,0);fill-rule:nonzero;stroke-width:1px;stroke:rgb(255,38,0);"/>
    <path d="M149.545,98.505C145.475,101.365 141.316,104.156 138.36,107.912C135.397,111.677 133.64,116.413 131.793,121.076" style="fill:none;stroke-width:1px;stroke-linecap:round;stroke-linejoin:round;stroke:black;"/>
    <path d="M130.225,124.756L133.173,121.664L130.413,120.488L130.225,124.756Z" style="fill:black;fill-rule:nonzero;stroke-width:1px;stroke:black;"/>
    <path d="M152.758,96.121L148.651,97.3L150.439,99.709L152.758,96.121Z" style="fill:black;fill-rule:nonzero;stroke-width:1px;stroke:black;"/>
    <path d="M69.167,47.132C76.526,49.66 83.882,52.813 91.254,52.763C98.638,52.713 106.042,49.45 113.441,46.82" style="fill:none;stroke-width:1px;stroke-linecap:round;stroke-linejoin:round;stroke:black;"/>
    <path d="M117.249,45.591L112.982,45.392L113.903,48.247L117.249,45.591Z" style="fill:black;fill-rule:nonzero;stroke-width:1px;stroke:black;"/>
    <path d="M65.347,45.946L68.722,48.565L69.612,45.7L65.347,45.946Z" style="fill:black;fill-rule:nonzero;stroke-width:1px;stroke:black;"/>
    <path d="M50.356,121.096C49.608,116.424 48.979,111.699 46.234,107.912C43.33,103.906 38.057,100.948 33.063,97.866" style="fill:none;stroke-width:1px;stroke-linecap:round;stroke-linejoin:round;stroke:black;"/>
    <path d="M29.728,95.662L32.238,99.119L33.892,96.616L29.728,95.662Z" style="fill:black;fill-rule:nonzero;stroke-width:1px;stroke:black;"/>
    <path d="M51.15,125.017L51.827,120.799L48.886,121.394L51.15,125.017Z" style="fill:black;fill-rule:nonzero;stroke-width:1px;stroke:black;"/>
    <path d="M6.421,126.504L91.461,6.032L176.5,126.504L6.421,126.504Z" style="fill:rgb(255,38,0);fill-opacity:0.25098;fill-rule:nonzero;"/>
    <path d="M135.001,70.594L138.464,68.128" style="fill:none;stroke-width:1px;stroke-linecap:round;stroke-linejoin:round;stroke:black;"/>
    <path d="M47.817,70.594L44.354,68.128" style="fill:none;stroke-width:1px;stroke-linecap:round;stroke-linejoin:round;stroke:black;"/>
    <path d="M6.708,126.504L176.544,126.504" style="fill:none;stroke-width:1px;stroke-linecap:round;stroke-linejoin:round;stroke:black;"/>
    <path d="M176.544,126.504L91.504,6.032" style="fill:none;stroke-width:1px;stroke-linecap:round;stroke-linejoin:round;stroke:black;"/>
    <path d="M91.504,6.032L6.62,126.504" style="fill:none;stroke-width:1px;stroke-linecap:round;stroke-linejoin:round;stroke:black;"/>
    <path d="M91.47,128.087L91.47,123.835" style="fill:none;stroke-width:1px;stroke-linecap:round;stroke-linejoin:round;stroke:black;"/>
    <path d="M6.421,130.047L91.461,98.158L176.5,130.047L6.421,130.047Z" style="fill:rgb(142,250,0);fill-opacity:0.25098;fill-rule:nonzero;"/>
    <path d="M91.504,132.381L91.504,128.129" style="fill:none;stroke-width:1px;stroke-linecap:round;stroke-linejoin:round;stroke:black;"/>
    <path d="M94.929,2.321L94.929,90.904L179.968,122.793L94.929,2.321Z" style="fill:rgb(255,251,0);fill-opacity:0.25098;fill-rule:nonzero;"/>
    <path d="M92.87,52.809L98.539,52.809" style="fill:none;stroke-width:1px;stroke-linecap:round;stroke-linejoin:round;stroke:black;"/>
    <path d="M87.961,2.488L87.961,91.071L2.921,122.961L87.961,2.488Z" style="fill:rgb(0,150,255);fill-opacity:0.25098;fill-rule:nonzero;"/>
    <path d="M84.664,52.809L90.333,52.809" style="fill:none;stroke-width:1px;stroke-linecap:round;stroke-linejoin:round;stroke:black;"/>
    <path d="M87.961,91.071L87.961,2.488" style="fill:none;stroke-width:1px;stroke-linecap:round;stroke-linejoin:round;stroke:black;"/>
    <path d="M95.047,91.071L95.047,2.488" style="fill:none;stroke-width:1px;stroke-linecap:round;stroke-linejoin:round;stroke:black;"/>
    <path d="M2.921,122.961L87.961,2.488" style="fill:none;stroke-width:1px;stroke-linecap:round;stroke-linejoin:round;stroke:black;"/>
    <path d="M95.047,2.488L180.087,122.961" style="fill:none;stroke-width:1px;stroke-linecap:round;stroke-linejoin:round;stroke:black;"/>
    <path d="M176.544,130.047L91.504,98.158" style="fill:none;stroke-width:1px;stroke-linecap:round;stroke-linejoin:round;stroke:black;"/>
    <path d="M91.504,98.158L6.62,130.047" style="fill:none;stroke-width:1px;stroke-linecap:round;stroke-linejoin:round;stroke:black;"/>
    <path d="M87.961,91.071L3.077,122.961" style="fill:none;stroke-width:1px;stroke-linecap:round;stroke-linejoin:round;stroke:black;"/>
    <path d="M180.087,122.961L95.047,91.071" style="fill:none;stroke-width:1px;stroke-linecap:round;stroke-linejoin:round;stroke:black;"/>
    <path d="M6.708,130.047L176.544,130.047" style="fill:none;stroke-width:1px;stroke-linecap:round;stroke-linejoin:round;stroke:black;"/>
    <path d="M46.441,109.507L44.045,104.369" style="fill:none;stroke-width:1px;stroke-linecap:round;stroke-linejoin:round;stroke:black;"/>
    <path d="M49.664,116.65L47.268,111.512" style="fill:none;stroke-width:1px;stroke-linecap:round;stroke-linejoin:round;stroke:black;"/>
    <path d="M135.85,109.507L138.246,104.369" style="fill:none;stroke-width:1px;stroke-linecap:round;stroke-linejoin:round;stroke:black;"/>
    <path d="M132.628,116.65L135.024,111.512" style="fill:none;stroke-width:1px;stroke-linecap:round;stroke-linejoin:round;stroke:black;"/>
    <path d="M139.398,67.572L142.861,65.105" style="fill:none;stroke-width:1px;stroke-linecap:round;stroke-linejoin:round;stroke:black;"/>
    <path d="M43.42,67.572L39.957,65.105" style="fill:none;stroke-width:1px;stroke-linecap:round;stroke-linejoin:round;stroke:black;"/>
    <path d="M29.475,95.859C29.906,96.47 30.234,97.208 30.393,98.158C30.769,100.416 30.18,103.872 29.548,107.381" style="fill:none;stroke-width:1px;stroke-linecap:round;stroke-linejoin:round;stroke:black;"/>
    <path d="M28.905,111.33L31.028,107.624L28.067,107.141L28.905,111.33Z" style="fill:black;fill-rule:nonzero;stroke-width:1px;stroke:black;"/>
    <path d="M26.479,93.205L28.479,96.98L30.468,94.734L26.479,93.205Z" style="fill:black;fill-rule:nonzero;stroke-width:1px;stroke:black;"/>
    <path d="M68.75,92.624C69.414,90.851 70.303,88.965 72.037,86.653C74.717,83.08 79.415,78.489 83.842,74.036" style="fill:none;stroke-width:1px;stroke-linecap:round;stroke-linejoin:round;stroke:black;"/>
    <path d="M86.634,71.172L82.768,72.988L84.916,75.083L86.634,71.172Z" style="fill:black;fill-rule:nonzero;stroke-width:1px;stroke:black;"/>
    <path d="M67.361,96.376L70.157,93.146L67.343,92.104L67.361,96.376Z" style="fill:black;fill-rule:nonzero;stroke-width:1px;stroke:black;"/>
    <path d="M99.232,73.969C102.33,76.929 105.455,79.884 107.47,83.109C109.327,86.08 110.244,89.282 111.108,92.497" style="fill:none;stroke-width:1px;stroke-linecap:round;stroke-linejoin:round;stroke:black;"/>
    <path d="M112.23,96.334L112.547,92.074L109.668,92.916L112.23,96.334Z" style="fill:black;fill-rule:nonzero;stroke-width:1px;stroke:black;"/>
    <path d="M96.395,71.15L98.176,75.033L100.29,72.905L96.395,71.15Z" style="fill:black;fill-rule:nonzero;stroke-width:1px;stroke:black;"/>
    <path d="M110.533,109.125C104.19,110.597 97.846,112.331 91.504,112.331C85.162,112.331 78.818,110.597 72.475,109.125" style="fill:none;stroke-width:1px;stroke-linecap:round;stroke-linejoin:round;stroke:black;"/>
    <path d="M68.56,108.303L72.167,110.593L72.783,107.657L68.56,108.303Z" style="fill:black;fill-rule:nonzero;stroke-width:1px;stroke:black;"/>
    <path d="M114.448,108.303L110.225,107.657L110.841,110.593L114.448,108.303Z" style="fill:black;fill-rule:nonzero;stroke-width:1px;stroke:black;"/>
    <path d="M34.498,122.261C38.205,122.133 41.886,122.033 44.566,122.961C46.652,123.683 48.133,125.028 49.467,126.525" style="fill:none;stroke-width:1px;stroke-linecap:round;stroke-linejoin:round;stroke:black;"/>
    <path d="M52.135,129.506L50.586,125.525L48.35,127.526L52.135,129.506Z" style="fill:black;fill-rule:nonzero;stroke-width:1px;stroke:black;"/>
    <path d="M30.499,122.312L34.518,123.761L34.48,120.761L30.499,122.312Z" style="fill:black;fill-rule:nonzero;stroke-width:1px;stroke:black;"/>
    <path d="M83.577,34.786C81.087,37.156 78.574,39.467 75.581,40.59C72.558,41.723 69.046,41.645 65.513,41.518" style="fill:none;stroke-width:1px;stroke-linecap:round;stroke-linejoin:round;stroke:black;"/>
    <path d="M61.514,41.482L65.5,43.018L65.528,40.018L61.514,41.482Z" style="fill:black;fill-rule:nonzero;stroke-width:1px;stroke:black;"/>
    <path d="M86.549,32.107L82.574,33.671L84.583,35.899L86.549,32.107Z" style="fill:black;fill-rule:nonzero;stroke-width:1px;stroke:black;"/>
    <path d="M116.494,41.588C114.839,41.588 113.084,41.394 111.014,40.59C107.827,39.351 103.892,36.665 99.995,34.05" style="fill:none;stroke-width:1px;stroke-linecap:round;stroke-linejoin:round;stroke:black;"/>
    <path d="M96.64,31.87L99.177,35.307L100.812,32.792L96.64,31.87Z" style="fill:black;fill-rule:nonzero;stroke-width:1px;stroke:black;"/>
    <path d="M120.494,41.504L116.464,40.088L116.526,43.087L120.494,41.504Z" style="fill:black;fill-rule:nonzero;stroke-width:1px;stroke:black;"/>
    <path d="M152.387,107.566C151.101,105.385 149.99,103.179 149.99,100.826C149.99,98.282 151.287,95.564 152.702,92.83" style="fill:none;stroke-width:1px;stroke-linecap:round;stroke-linejoin:round;stroke:black;"/>
    <path d="M154.452,89.236L151.352,92.176L154.049,93.489L154.452,89.236Z" style="fill:black;fill-rule:nonzero;stroke-width:1px;stroke:black;"/>
    <path d="M154.351,111.05L153.693,106.829L151.08,108.302L154.351,111.05Z" style="fill:black;fill-rule:nonzero;stroke-width:1px;stroke:black;"/>
    <path d="M137.764,125.903C138.497,125.278 139.331,124.711 140.36,124.254C142.131,123.467 144.482,123.005 146.928,122.598" style="fill:none;stroke-width:1px;stroke-linecap:round;stroke-linejoin:round;stroke:black;"/>
    <path d="M150.868,121.912L146.67,121.12L147.185,124.076L150.868,121.912Z" style="fill:black;fill-rule:nonzero;stroke-width:1px;stroke:black;"/>
    <path d="M134.944,128.742L138.827,126.961L136.698,124.847L134.944,128.742Z" style="fill:black;fill-rule:nonzero;stroke-width:1px;stroke:black;"/>
    <path d="M143.655,76.547C140.231,75.244 136.859,73.904 135.089,71.423C133.318,68.941 133.15,65.316 133.032,61.655" style="fill:none;stroke-width:1px;stroke-linecap:round;stroke-linejoin:round;stroke:rgb(255,38,0);"/>
    <path d="M132.758,57.664L131.536,61.758L134.529,61.552L132.758,57.664Z" style="fill:rgb(255,38,0);fill-rule:nonzero;stroke-width:1px;stroke:rgb(255,38,0);"/>
    <path d="M147.339,78.106L144.239,75.166L143.07,77.929L147.339,78.106Z" style="fill:rgb(255,38,0);fill-rule:nonzero;stroke-width:1px;stroke:rgb(255,38,0);"/>
    <path d="M38.957,76.479C42.381,75.176 45.753,73.836 47.523,71.355C49.294,68.873 49.462,65.248 49.58,61.587" style="fill:none;stroke-width:1px;stroke-linecap:round;stroke-linejoin:round;stroke:rgb(255,38,0);"/>
    <path d="M49.854,57.597L48.083,61.484L51.076,61.69L49.854,57.597Z" style="fill:rgb(255,38,0);fill-rule:nonzero;stroke-width:1px;stroke:rgb(255,38,0);"/>
    <path d="M35.274,78.038L39.542,77.861L38.373,75.098L35.274,78.038Z" style="fill:rgb(255,38,0);fill-rule:nonzero;stroke-width:1px;stroke:rgb(255,38,0);"/>
    <path d="M82.358,126.791C85.407,124.761 88.456,122.793 91.504,122.793C94.552,122.793 97.601,124.761 100.65,126.791" style="fill:none;stroke-width:1px;stroke-linecap:round;stroke-linejoin:round;stroke:rgb(255,38,0);"/>
    <path d="M104.058,128.885L101.435,125.513L99.865,128.069L104.058,128.885Z" style="fill:rgb(255,38,0);fill-rule:nonzero;stroke-width:1px;stroke:rgb(255,38,0);"/>
    <path d="M78.95,128.885L83.143,128.069L81.572,125.513L78.95,128.885Z" style="fill:rgb(255,38,0);fill-rule:nonzero;stroke-width:1px;stroke:rgb(255,38,0);"/>
    <path d="M130.157,100.645C133.716,99.778 137.254,98.97 140.119,100.011C142.984,101.052 145.178,103.943 147.35,106.892" style="fill:none;stroke-width:1px;stroke-linecap:round;stroke-linejoin:round;stroke:rgb(255,38,0);"/>
    <path d="M149.838,110.024L148.524,105.959L146.175,107.825L149.838,110.024Z" style="fill:rgb(255,38,0);fill-rule:nonzero;stroke-width:1px;stroke:rgb(255,38,0);"/>
    <path d="M126.239,101.449L130.459,102.114L129.856,99.175L126.239,101.449Z" style="fill:rgb(255,38,0);fill-rule:nonzero;stroke-width:1px;stroke:rgb(255,38,0);"/>
    <path d="M142.374,120.788C138.815,121.655 135.277,122.463 132.412,121.422C129.547,120.381 127.354,117.49 125.181,114.541" style="fill:none;stroke-width:1px;stroke-linecap:round;stroke-linejoin:round;stroke:rgb(255,38,0);"/>
    <path d="M122.693,111.409L124.007,115.474L126.356,113.608L122.693,111.409Z" style="fill:rgb(255,38,0);fill-rule:nonzero;stroke-width:1px;stroke:rgb(255,38,0);"/>
    <path d="M146.292,119.984L142.072,119.319L142.675,122.258L146.292,119.984Z" style="fill:rgb(255,38,0);fill-rule:nonzero;stroke-width:1px;stroke:rgb(255,38,0);"/>
    <path d="M42.779,120.499C46.338,121.366 49.876,122.174 52.741,121.133C55.606,120.092 57.8,117.201 59.972,114.252" style="fill:none;stroke-width:1px;stroke-linecap:round;stroke-linejoin:round;stroke:rgb(255,38,0);"/>
    <path d="M62.46,111.12L58.798,113.319L61.147,115.185L62.46,111.12Z" style="fill:rgb(255,38,0);fill-rule:nonzero;stroke-width:1px;stroke:rgb(255,38,0);"/>
    <path d="M38.861,119.695L42.478,121.969L43.081,119.03L38.861,119.695Z" style="fill:rgb(255,38,0);fill-rule:nonzero;stroke-width:1px;stroke:rgb(255,38,0);"/>
    <path d="M54.612,99.884C51.053,99.017 47.516,98.209 44.651,99.25C41.786,100.291 39.592,103.182 37.42,106.131" style="fill:none;stroke-width:1px;stroke-linecap:round;stroke-linejoin:round;stroke:rgb(255,38,0);"/>
    <path d="M34.932,109.263L38.594,107.064L36.245,105.198L34.932,109.263Z" style="fill:rgb(255,38,0);fill-rule:nonzero;stroke-width:1px;stroke:rgb(255,38,0);"/>
    <path d="M58.531,100.688L54.914,98.414L54.311,101.353L58.531,100.688Z" style="fill:rgb(255,38,0);fill-rule:nonzero;stroke-width:1px;stroke:rgb(255,38,0);"/>
    <path d="M84.533,61.944C82.503,58.895 80.536,55.846 80.536,52.798C80.536,49.75 82.503,46.701 84.534,43.652" style="fill:none;stroke-width:1px;stroke-linecap:round;stroke-linejoin:round;stroke:rgb(255,38,0);"/>
    <path d="M86.628,40.244L83.256,42.867L85.812,44.437L86.628,40.244Z" style="fill:rgb(255,38,0);fill-rule:nonzero;stroke-width:1px;stroke:rgb(255,38,0);"/>
    <path d="M86.628,65.352L85.812,61.159L83.255,62.73L86.628,65.352Z" style="fill:rgb(255,38,0);fill-rule:nonzero;stroke-width:1px;stroke:rgb(255,38,0);"/>
    <path d="M98.714,61.944C100.744,58.895 102.712,55.846 102.712,52.798C102.712,49.75 100.744,46.701 98.714,43.652" style="fill:none;stroke-width:1px;stroke-linecap:round;stroke-linejoin:round;stroke:rgb(255,38,0);"/>
    <path d="M96.62,40.244L97.436,44.437L99.992,42.867L96.62,40.244Z" style="fill:rgb(255,38,0);fill-rule:nonzero;stroke-width:1px;stroke:rgb(255,38,0);"/>
    <path d="M96.62,65.352L99.992,62.73L97.436,61.159L96.62,65.352Z" style="fill:rgb(255,38,0);fill-rule:nonzero;stroke-width:1px;stroke:rgb(255,38,0);"/>
    <path d="M93.817,16.66L95.004,16.66" style="fill:none;stroke-width:1px;stroke-linecap:round;stroke-linejoin:round;stroke:rgb(4,51,255);"/>
    <path d="M89.817,16.659L93.817,18.159L93.817,15.159L89.817,16.659Z" style="fill:rgb(4,51,255);fill-rule:nonzero;stroke-width:1px;stroke:rgb(4,51,255);"/>
    <path d="M89.017,83.96L87.831,83.96" style="fill:none;stroke-width:1px;stroke-linecap:round;stroke-linejoin:round;stroke:rgb(4,51,255);"/>
    <path d="M93.017,83.96L89.017,82.46L89.017,85.46L93.017,83.96Z" style="fill:rgb(4,51,255);fill-rule:nonzero;stroke-width:1px;stroke:rgb(4,51,255);"/>
    <path d="M83.472,99.607L83.914,100.708" style="fill:none;stroke-width:1px;stroke-linecap:round;stroke-linejoin:round;stroke:rgb(4,51,255);"/>
    <path d="M81.98,95.895L82.08,100.166L84.863,99.047L81.98,95.895Z" style="fill:rgb(4,51,255);fill-rule:nonzero;stroke-width:1px;stroke:rgb(4,51,255);"/>
    <path d="M100.689,95.15L101.132,94.049" style="fill:none;stroke-width:1px;stroke-linecap:round;stroke-linejoin:round;stroke:rgb(4,51,255);"/>
    <path d="M99.197,98.861L102.081,95.709L99.298,94.59L99.197,98.861Z" style="fill:rgb(4,51,255);fill-rule:nonzero;stroke-width:1px;stroke:rgb(4,51,255);"/>
    <path d="M13.965,120.779L13.523,119.678" style="fill:none;stroke-width:1px;stroke-linecap:round;stroke-linejoin:round;stroke:rgb(4,51,255);"/>
    <path d="M15.457,124.49L15.357,120.219L12.574,121.338L15.457,124.49Z" style="fill:rgb(4,51,255);fill-rule:nonzero;stroke-width:1px;stroke:rgb(4,51,255);"/>
    <path d="M166.02,124.765L165.577,125.866" style="fill:none;stroke-width:1px;stroke-linecap:round;stroke-linejoin:round;stroke:rgb(4,51,255);"/>
    <path d="M167.512,121.053L164.628,124.205L167.412,125.324L167.512,121.053Z" style="fill:rgb(4,51,255);fill-rule:nonzero;stroke-width:1px;stroke:rgb(4,51,255);"/>
    <g>
        <clipPath id="_clip1">
            <rect x="162.37" y="40.414" width="14" height="12.051"/>
        </clipPath>
        <g clip-path="url(#_clip1)">
            <path d="M174.678,49.405L174.511,49.405C174.128,49.835 173.674,50.409 173.028,50.409C171.952,50.409 171.57,47.324 171.426,46.559C172.359,45.077 173.196,43.522 173.793,41.849C173.578,41.49 173.339,41.107 173.076,40.749L172.813,40.749C172.765,42.375 171.928,44.192 171.307,45.579L171.139,45.507C170.876,43.666 170.828,40.414 168.15,40.414C164.133,40.414 161.814,45.914 162.388,49.5C162.603,50.935 163.296,52.107 164.922,52.107C167.122,52.107 168.987,50.194 170.135,48.592L170.207,48.663C170.35,49.452 170.613,52.107 171.833,52.107C172.933,52.107 174.272,50.433 174.893,49.715C174.869,49.548 174.798,49.476 174.678,49.405ZM170.039,47.803C169.226,49.022 167.648,51.054 165.951,51.054C164.683,51.054 164.253,50.05 164.085,48.974C163.751,46.894 164.54,41.275 167.146,41.275C169.226,41.275 169.728,45.698 169.944,47.133L170.039,47.803Z" style="fill:rgb(254,38,0);fill-rule:nonzero;"/>
        </g>
    </g>
    <g>
        <clipPath id="_clip2">
            <rect x="160.899" y="23.39" width="14.471" height="11.693"/>
        </clipPath>
        <g clip-path="url(#_clip2)">
            <path d="M172.885,23.51L172.741,23.39C171.904,23.892 168.987,23.653 167.768,23.797C166.859,23.916 166.07,24.227 165.353,24.633C162.675,26.092 161.694,27.694 162.22,31.066C162.627,33.576 163.679,35.083 166.357,35.083C170.183,35.083 172.096,32.333 171.498,28.579C171.187,26.522 170.446,26.092 168.7,25.064L168.748,24.992C170.015,24.992 171.426,25.088 172.693,24.896C172.789,24.466 172.861,23.988 172.885,23.51ZM169.848,28.34C170.231,30.707 170.015,34.413 167.003,34.413C164.803,34.413 164.181,32.046 163.918,30.372C163.488,27.742 163.894,24.873 167.027,24.873C167.385,24.873 167.744,24.944 168.079,24.992C169.274,25.829 169.633,27.049 169.848,28.34Z" style="fill:black;fill-rule:nonzero;"/>
        </g>
    </g>
    <g>
        <clipPath id="_clip3">
            <rect x="160.899" y="60.332" width="14.471" height="17.838"/>
        </clipPath>
        <g clip-path="url(#_clip3)">
            <path d="M163.744,60.332C162.19,60.332 161.497,61.456 160.899,62.627C160.923,62.771 161.018,62.843 161.09,62.914L161.234,62.891C161.688,62.221 162.094,61.791 162.979,61.791C165.251,61.791 165.992,64.708 166.255,66.382C166.59,68.39 166.685,70.375 166.637,72.335C165.777,73.698 165.035,75.97 164.677,77.596C164.796,77.787 164.94,77.978 165.059,78.17C165.538,78.05 165.992,77.859 166.446,77.644C166.781,76.018 167.02,74.177 167.068,72.503C168.216,70.614 169.507,68.773 170.798,67.003C171.85,65.569 173.62,63.201 173.309,61.169C173.261,60.882 173.213,60.475 172.83,60.475C172.424,60.475 171.683,60.81 171.3,60.978L171.204,61.241C171.348,61.623 171.515,62.054 171.587,62.436C171.97,64.971 168.526,69.06 167.379,71.188L167.235,71.092C167.833,62.245 165.848,60.332 163.744,60.332Z" style="fill:rgb(4,51,255);fill-rule:nonzero;"/>
        </g>
    </g>
</svg>
